<svg width="900" height="323" viewBox="0 0 900 323" version="1.1" xmlns="http://www.w3.org/2000/svg" xmlns:xlink="http://www.w3.org/1999/xlink"><defs><path id="path-1" d="M0 0h900v674.999H0z"/><path id="path-3" d="M0 0h900v674.999H0z"/><linearGradient x1="0%" y1="50%" x2="78.202%" y2="50%" id="linearGradient-5"><stop stop-color="#C66FD7" offset="0%"/><stop stop-color="#5937E5" offset="100%"/></linearGradient><linearGradient x1="16.163%" y1="50%" x2="94.365%" y2="50%" id="linearGradient-6"><stop stop-color="#52C5F1" offset="0%"/><stop stop-color="#5457E2" offset="100%"/></linearGradient><linearGradient x1="0%" y1="50%" x2="100%" y2="50%" id="linearGradient-7"><stop stop-color="#63D4FF" offset="0%"/><stop stop-color="#546BE5" offset="100%"/></linearGradient><linearGradient x1=".001%" y1="50.001%" x2="100.001%" y2="50.001%" id="linearGradient-8"><stop stop-color="#9E90F2" offset="0%"/><stop stop-color="#A1D8F6" offset="100%"/></linearGradient><linearGradient x1="-.005%" y1="49.999%" x2="99.992%" y2="49.999%" id="linearGradient-9"><stop stop-color="#C66FD7" offset="0%"/><stop stop-color="#5937E5" offset="100%"/></linearGradient><linearGradient x1="-.006%" y1="50.002%" x2="99.992%" y2="50.002%" id="linearGradient-10"><stop stop-color="#C66FD7" offset="0%"/><stop stop-color="#5937E5" offset="100%"/></linearGradient><linearGradient x1="0%" y1="50.002%" x2="100.002%" y2="50.002%" id="linearGradient-11"><stop stop-color="#9E90F2" offset="0%"/><stop stop-color="#A1D8F6" offset="100%"/></linearGradient><linearGradient x1="0%" y1="50%" x2="100%" y2="50%" id="linearGradient-12"><stop stop-color="#9E90F2" offset="0%"/><stop stop-color="#A1D8F6" offset="100%"/></linearGradient><linearGradient x1="-.001%" y1="50%" x2="99.995%" y2="50%" id="linearGradient-13"><stop stop-color="#9E90F2" offset="0%"/><stop stop-color="#A1D8F6" offset="100%"/></linearGradient><linearGradient x1=".007%" y1="50%" x2="100.005%" y2="50%" id="linearGradient-14"><stop stop-color="#9E90F2" offset="0%"/><stop stop-color="#A1D8F6" offset="100%"/></linearGradient><linearGradient x1="0%" y1="50%" x2="100%" y2="50%" id="linearGradient-15"><stop stop-color="#9E90F2" offset="0%"/><stop stop-color="#A1D8F6" offset="100%"/></linearGradient><linearGradient x1="0%" y1="49.998%" x2="100%" y2="49.998%" id="linearGradient-16"><stop stop-color="#9E90F2" offset="0%"/><stop stop-color="#A1D8F6" offset="100%"/></linearGradient><linearGradient x1="0%" y1="49.998%" x2="100%" y2="49.998%" id="linearGradient-17"><stop stop-color="#9E90F2" offset="0%"/><stop stop-color="#A1D8F6" offset="100%"/></linearGradient><linearGradient x1="-.001%" y1="50%" x2="99.999%" y2="50%" id="linearGradient-18"><stop stop-color="#9E90F2" offset="0%"/><stop stop-color="#A1D8F6" offset="100%"/></linearGradient><linearGradient x1=".012%" y1="49.981%" x2="99.999%" y2="49.981%" id="linearGradient-19"><stop stop-color="#9E90F2" offset="0%"/><stop stop-color="#A1D8F6" offset="100%"/></linearGradient><linearGradient x1="0%" y1="49.998%" x2="100%" y2="49.998%" id="linearGradient-20"><stop stop-color="#C66FD7" offset="0%"/><stop stop-color="#5937E5" offset="100%"/></linearGradient><linearGradient x1=".002%" y1="50.001%" x2="100.005%" y2="50.001%" id="linearGradient-21"><stop stop-color="#C66FD7" offset="0%"/><stop stop-color="#5937E5" offset="100%"/></linearGradient><linearGradient x1="62.079%" y1="88.386%" x2="35.728%" y2="24.309%" id="linearGradient-22"><stop stop-color="#5937E5" offset="0%"/><stop stop-color="#7F4BE0" offset="27.02%"/><stop stop-color="#A65EDB" offset="58.76%"/><stop stop-color="#BD6BD8" offset="84.21%"/><stop stop-color="#C66FD7" offset="100%"/></linearGradient><linearGradient x1="-.002%" y1="50.001%" x2="99.999%" y2="50.001%" id="linearGradient-23"><stop stop-color="#9E90F2" offset="0%"/><stop stop-color="#A1D8F6" offset="100%"/></linearGradient><linearGradient x1="-.001%" y1="49.981%" x2="100%" y2="49.981%" id="linearGradient-24"><stop stop-color="#9E90F2" offset="0%"/><stop stop-color="#A1D8F6" offset="100%"/></linearGradient><linearGradient x1="-7.685%" y1="11.216%" x2="118.499%" y2="86.775%" id="linearGradient-25"><stop stop-color="#C66FD7" offset="0%"/><stop stop-color="#B868D9" offset="18.54%"/><stop stop-color="#9355DE" offset="53.67%"/><stop stop-color="#5937E5" offset="100%"/></linearGradient><linearGradient x1="-6.039%" y1="10.923%" x2="117.359%" y2="86.732%" id="linearGradient-26"><stop stop-color="#C66FD7" offset="0%"/><stop stop-color="#B868D9" offset="18.54%"/><stop stop-color="#9355DE" offset="53.67%"/><stop stop-color="#5937E5" offset="100%"/></linearGradient><linearGradient x1=".001%" y1="50.002%" x2="100%" y2="50.002%" id="linearGradient-27"><stop stop-color="#C66FD7" offset="0%"/><stop stop-color="#5937E5" offset="100%"/></linearGradient><linearGradient x1="-.002%" y1="50.001%" x2="99.999%" y2="50.001%" id="linearGradient-28"><stop stop-color="#9E90F2" offset="0%"/><stop stop-color="#A1D8F6" offset="100%"/></linearGradient></defs><g id="Page-1" stroke="none" stroke-width="1" fill="none" fill-rule="evenodd"><g id="1" transform="translate(0 -352)"><g id="Clipped"><mask id="mask-2" fill="#fff"><use xlink:href="#path-1"/></mask><g id="Group" opacity=".4" mask="url(#mask-2)"><g id="Clipped"><mask id="mask-4" fill="#fff"><use xlink:href="#path-3"/></mask><g id="Group" mask="url(#mask-4)"><g id="Path"><path d="M173.506 158.847C81.855 153.752 2.765 235.841.222 281.592c-2.543 45.752 69.692 86.972 161.343 92.066 91.65 5.095 168.009-27.864 170.553-73.616 2.544-45.752-66.961-136.101-158.612-141.195z" fill="url(#linearGradient-5)" transform="translate(-62 352)"/><path d="M725.961 11.374C560.274 58.892 470.659 253.28 494.379 335.991c23.72 82.711 177.267 111.241 342.955 63.723s280.775-153.089 257.055-235.8c-23.72-82.711-202.739-200.058-368.428-152.54z" fill="url(#linearGradient-6)" transform="translate(-62 352)"/></g></g></g></g></g><g id="Clipped" transform="translate(57 406)"><g id="Group"><path d="M.988 268.464c12.012-1 29.661-11.854 38.053-27.147 8.393-15.294 15.127-33.688 30.569-40.394 14.452-6.275 31.234 17.785 46.421 13.925 31.067-7.898 51.027-143.349 90.338-143.349 37.325 0 77.674 124.256 129.435 90.082 49.679-32.799 86.411-144.393 127.378-158.617 79-27.431 109.809 188.816 166.58 188.816 16.063 0 14.885-60.097 26.453-67.353C693.63 100.964 677 231.464 732.863 268.464H.988z" id="Path" fill="url(#linearGradient-7)"/><g id="Path"><path fill="#F0F0F0" d="M19.263 63.754l-14.671 42.71H2.949l14.672-42.71zm24.803 0l-14.672 42.71h-1.643l14.671-42.71z" transform="translate(263 162)"/><path d="M16.001.608c10.287 0 20.19 8.341 22.117 18.629l6.441 26.746c1.133 6.047 7.758 10.429 13.91 10.429h13.395a3.654 3.654 0 0 1 .005 7.309l-55.244.057a5.344 5.344 0 0 1-5.255-4.336L.86 19.237C-1.066 8.949 5.712.608 16.001.608z" fill="url(#linearGradient-8)" transform="translate(263 162)"/><path d="M16.685 59.442L6.175 19.237C4.417 9.853 9.913 2.112 18.696.819a19.436 19.436 0 0 0-2.695-.211C5.712.608-1.066 8.949.86 19.237l10.51 40.205a5.343 5.343 0 0 0 5.255 4.336l5.252-.005a5.34 5.34 0 0 1-5.192-4.331z" fill="#F0F0F0" transform="translate(263 162)"/><path fill="#FFF" d="M76.3 106.464h-1.642l-14.672-42.71h1.643zm-24.801 0h-1.644l-14.672-42.71h1.645z" transform="translate(263 162)"/></g><g id="Path"><path d="M7.499 4.317c-.448 2.119.208 4.634-.163 6.811-.465 2.725-2.193 3.505-3.365 5.225-1.387 2.034-2.021 5.848-1.514 9.099.314 2.011 1 3.702 1.512 5.549.512 1.848.85 4.11.414 6.031C3.725 39.927.209 42.175.209 54.443c0 11.198 7.994 15.555 10.262 18.296V.126l-1.026.994c-.778.751-1.613 1.628-1.946 3.197z" fill="url(#linearGradient-9)" transform="translate(44 174)"/><path d="M16.836 31c.512-1.847 1.197-3.538 1.512-5.549.509-3.251-.126-7.064-1.513-9.099-1.172-1.72-2.901-2.5-3.366-5.225-.371-2.177.286-4.691-.163-6.811-.332-1.569-1.17-2.446-1.945-3.198L10.336.124v72.613c2.266-2.741 10.262-7.098 10.262-18.296 0-12.269-3.518-14.517-4.174-17.411-.437-1.92-.099-4.182.412-6.03z" fill="url(#linearGradient-10)" transform="translate(44 174)"/><g fill="#F0F0F0"><path d="M10.577 1.698c-.525.692-.292 1.737-.768 2.466-.595.911-1.914.873-2.922 1.283-1.192.486-2.014 1.765-1.958 3.052.034.796.367 1.544.559 2.317.192.773.219 1.666-.277 2.288-.75.938-3.496 1.103-4.668 5.6-1.068 4.104 4.271 7.2 5.643 8.63L13.118.719l-.834.172c-.632.13-1.318.295-1.707.807z" transform="translate(54 220)"/><path d="M14.226 5.314c-.06-.867.653-1.666.532-2.527-.089-.638-.608-1.115-1.095-1.537l-.645-.557-6.931 26.615c1.894-.58 8.065-.677 9.135-4.781 1.171-4.497-1.146-5.98-1.343-7.165-.131-.785.328-1.552.873-2.133.545-.581 1.199-1.072 1.618-1.751.677-1.096.583-2.612-.222-3.618-.678-.85-1.848-1.46-1.922-2.546z" transform="translate(54 220)"/></g><path d="M.245 70.905s4.983 5.341 4.983 8.934c0 .962-.345 2.431-.854 4.071-1.621 5.233 2.229 10.554 7.707 10.554h13.174c5.479 0 9.328-5.32 7.707-10.554-.509-1.641-.854-3.109-.854-4.071 0-3.593 4.983-8.934 4.983-8.934H.245z" fill="#FFF" transform="translate(41 174)"/></g><g id="Path"><path fill="#D5DBE0" d="M33.186 29.954l4.541 10.209h9.349l1.267-10.209z" transform="translate(283 31)"/><path d="M.707.899l7 12.708 8.855-2.898c.01-.115.014-4.662.014-4.662 0-2.889-2.338-3.537-5.227-3.537L.707.899zm0 30.197l7-12.708 8.855 2.899c.01.114.014 4.662.014 4.662 0 2.889-2.338 3.537-5.227 3.537L.707 31.096z" transform="translate(285 32)" fill="#D5DBE0"/><path d="M.679 17.559s72.465-.143 72.592-.002C64.76-12.451 4.707 4.263.679 17.559z" fill="#F0F0F0" transform="translate(283 31)"/><path d="M.679 17.559s72.465.143 72.592.003C64.76 47.568 4.707 30.855.679 17.559zm43.127-9.924c26.232 0 29.338 9.781 29.465 9.922H.685c.258-.097 16.842-9.922 43.121-9.922z" fill="#D5DBE0" transform="translate(283 31)"/><path d="M43.806 27.486c26.232 0 29.338-9.782 29.465-9.922H.685c.258.096 16.842 9.922 43.121 9.922z" fill="#F0F0F0" transform="translate(283 31)"/><path fill="#D5DBE0" d="M73.271 17.557l.002.002-.002.005z" transform="translate(283 31)"/></g><path d="M147.888 15.011c-2.861 0-5.402 1.453-7.033 3.453h14.066c-1.63-2-4.17-3.453-7.033-3.453zm-34.5-3.943c-3.004 0-5.289 3.576-8.004 2.941-5.932-1.389-8.369-9.027-14.879-9.027-5.023 0-7.934 6.235-12.57 5.813C70.591 10.125 67.283.218 59.374.218c-7.313 0-10.902 8.481-17.656 9.23-3.98.441-6.891-4.336-11.213-4.336-8.152 0-8.869 3.241-16.377 5.581-2.156.672-3.805 4.873-6.24 4.873-2.861 0-5.402.897-7.033 2.897H125.63c-2.091-3.999-6.781-7.395-12.242-7.395z" transform="translate(568 50)" fill="#F0F0F0" id="Path"/><path d="M7.888 15.011c2.863 0 5.403 1.453 7.033 3.453H.855c1.631-2 4.171-3.453 7.033-3.453zm34.5-3.943c3.004 0 5.289 3.576 8.004 2.941 5.932-1.389 8.37-9.027 14.879-9.027 5.025 0 7.934 6.235 12.57 5.813C85.185 10.125 88.494.218 96.403.218c7.312 0 10.903 8.481 17.656 9.23 3.979.441 6.89-4.336 11.212-4.336 8.153 0 6.244 4.123 16.379 5.581 5.934.854 3.803 4.873 6.238 4.873 2.863 0 5.403.897 7.033 2.897H30.146c2.092-3.999 6.781-7.395 12.242-7.395z" transform="translate(36 29)" fill="#F0F0F0" id="Path"/><g id="Path"><path d="M48.423 136.431l3.568.081s.068 1.204.213 2.037c.277 1.608 4.173 4.938 3.278 6.464-.452.771-2.479.513-3.831-.21-1.354-.722-2.469-1.476-2.932-2.308-.576-1.037-1.984-2.48-1.988-3.121-.009-1.114.939-1.843.939-1.843.361-.932.753-1.1.753-1.1z" fill="#4D3782" transform="translate(281 121)"/><path d="M52.205 138.55s-1.135.909-2.442.582c-1.446-.362-2.091-1.601-2.091-1.601a29.51 29.51 0 0 1 .639-1.545l3.862.417c-.001 0-.148.886.032 2.147z" fill="#FCD2C5" transform="translate(281 121)"/><path d="M5.826 74.164c6.471-.172 46.834 9.845 61.203 17.06 6.112 3.069 4.154 9.516-2.307 9.612-18.689.279-43.265 2.833-54.8-4.178-18.339-11.146-4.096-22.494-4.096-22.494z" fill="#CE61D4" transform="translate(281 121)"/><path d="M38.976 79.104c6.469.22 16.961-2.315 23.817.183 6.427 2.342 1.146 10.354-5.085 12.068-5.685 1.565-15.242 4.853-25.834-3.515-7.437-5.876 4.289-8.832 7.102-8.736zm31.271 21.582A4034.625 4034.625 0 0 1 52.73 138.28c-.805-1.243-3.388-2.101-5.111-1.463 0 0 5.299-18.371 10.389-38.061 3.355-12.984 16.177-6.638 12.239 1.93z" fill="#CE61D4" transform="translate(281 121)"/><path d="M44.88 123.169l3.055 1.847s-.539 1.078-.829 1.873c-.56 1.532 1.161 6.359-.375 7.237-.775.443-2.405-.789-3.218-2.089-.814-1.3-1.406-2.509-1.394-3.461.017-1.187-.487-3.14-.171-3.697.547-.97 1.732-1.13 1.732-1.13.778-.63 1.2-.58 1.2-.58z" fill="#4D3782" transform="translate(281 121)"/><path d="M47.106 126.889s-1.438.225-2.409-.711c-1.072-1.034-1.016-2.429-1.016-2.429a29.497 29.497 0 0 1 1.322-1.022l3.143 2.284s-.568.695-1.04 1.878z" fill="#FCD2C5" transform="translate(281 121)"/><path d="M65.746 88.166a4009.194 4009.194 0 0 1-17.518 37.593c-.804-1.243-3.387-2.101-5.111-1.463 0 0 5.3-18.371 10.389-38.061 3.355-12.983 16.179-6.637 12.24 1.931z" fill="#CE61D4" transform="translate(281 121)"/><path d="M49.523 17.356c.313.219-.338 1.759-.643 1.984-.894.32-1.078-.204-1.873.218.638-.467 1.209-1.097 1.678-1.738.233-.371.384-.841.838-.464z" fill="#FCD2C5" transform="translate(310 153)"/><path d="M45.995 19.964a13.16 13.16 0 0 1 2.105-.832c.87-.275 2.918-.631 3.062-.654.426-.045 1.449-.315 1.797-.239.223.049.827.453.99.727.217.362-.018.666-.018.666.352.417-.6.987-.496 1.072.421.348.223 1.007-1.395 1.24-.098.015-3.811 1.493-5.052 1.848-.414-.884-1.028-3.806-.993-3.828zM10.206.309c2.632 3.554 7.866 16.832 11.588 22.708 4.565 7.209-2.094 7.819-4.181 6.083C12.117 24.527-.787 9.368 1.288 6.274c.899-1.341 8.44-6.609 8.918-5.965z" fill="#FCD2C5" transform="translate(310 153)"/><path d="M12.904 20.506c-.785.49-3.114 2.049-3.932 2.467C3.668 16.894-.097 8.338 1.287 6.274c.9-1.341 8.44-6.608 8.918-5.965 1.857 2.509 5.303 9.839 8.883 15.617-1.69 1.49-4.262 3.381-6.184 4.58z" fill="#F0F0F0" transform="translate(310 153)"/><path d="M18.556 24.075c.291-.178.58-.3.834-.359 4.659-1.081 22.594-2.087 27.268-3.985.287 1.617.633 2.943 1.084 3.886-7.75 2.969-27.881 8.184-29.891 5.546-1.842-2.416-.572-4.301.705-5.088z" fill="#FCD2C5" transform="translate(310 153)"/><path d="M2.384 67.924S.409 76.926 1.304 81.03c.332 1.521 14.021.254 21.422 1.294 7.4 1.04 17.754-.717 20.391-2.927 1.166-.978-1.667-8.485-1.667-8.485L2.384 67.924z" fill="#F0F0F0" transform="translate(281 121)"/><path d="M23.093 17.104c.517.394 5.883 3.494 7.434 3.286-.02.43-1.14 4.946-.181 7.402-.47 2.26-6.755 2.168-8.421-1.704.74-1.082 1.438-6.888 1.168-8.984z" fill="#FCD2C5" transform="translate(281 121)"/><path d="M28.91 9.679c2.852-.146 5.597.563 6.181 3.264.21.968-.354 9.653-5.017 10.892-1.972.523-5.683-2.896-5.799-5.185 0 0-.16-3.118-.16-3.149-.155-3.034 1.732-5.666 4.795-5.822z" fill="#FCD2C5" transform="translate(281 121)"/><path d="M8.011 38.03c1.823-4.757 4.926-9.756 9.766-10.83 1.613-.358 4.146-1.12 4.146-1.12s3.33 2.993 5.562 3.193c1.531.138 2.86-1.489 2.86-1.489s5.485 1.771 6.479 2.37c3.849 2.323 3.848 6.135 4.021 9.299 1.723 31.542 3.063 36.178 2.047 37.901-2.493 4.229-42.585.712-41.748-4.555C3.934 55.26 7.45 39.497 8.011 38.03z" fill="#4D3782" transform="translate(281 121)"/><path d="M35.401 46.576c.044.379-1.54.914-1.911.836-.832-.456-.563-.941-1.405-1.257.772.167 1.623.178 2.413.102.433-.071.885-.272.903.319z" fill="#FCD2C5" transform="translate(291 151)"/><path d="M31.451 45.902c.842.315 1.709.725 2.541 1.181.99.531 3.066 1.964 3.211 2.065.406.314 1.524.973 1.76 1.303.148.211.318.952.221 1.256-.128.401-.596.402-.596.402-.061.546-1.377.135-1.361.271.061.559-.686.811-2.283-.351-.097-.069-4.587-2.145-5.967-2.926.41-.888 2.425-3.214 2.474-3.201zM13.448 3.059c.57 4.385-1.319 18.532-.928 25.477.479 8.519-5.634 5.812-6.612 3.279C3.332 25.145-.565 5.623 2.755 3.929c1.438-.734 10.589-1.665 10.693-.87z" fill="#FCD2C5" transform="translate(291 151)"/><path d="M1.34 22.257C-.335 14.365-.233 7.143.632 4.813 2.858-1.181 11.589-.523 13.447 3.059c1.438 2.771-.155 11.176.161 17.965-2.882 1.304-8.18 2.041-12.268 1.233z" fill="#F0F0F0" transform="translate(291 151)"/><path d="M9.83 27.865c.325.099.608.234.822.385 3.899 2.769 16.551 15.52 21.072 17.758-1.02 1.287-1.781 2.426-2.188 3.39-7.363-3.83-24.621-15.432-23.981-18.686.585-2.981 2.837-3.281 4.275-2.847z" fill="#FCD2C5" transform="translate(291 151)"/><path d="M33.126 8.547c4.889 1.02 3.699 8.18 1.43 9.186 1.155-5.262-2.396-7.031-2.396-7.031-6.646-.211-9.096 7.676-8.686 9.734 0 0-7.305-6.725-.946-12.293 4.223-3.7 10.598.404 10.598.404z" fill="#5836E5" transform="translate(281 121)"/><path d="M24.248 14.301c.302.017.854.156 1.265.461-.309 1.029-1.032 2.664-1.389 3.473-.728-.243-1.565-1.431-1.523-2.176.045-.79.857-1.803 1.647-1.758z" fill="#FCD2C5" transform="translate(281 121)"/><path d="M6.609 12.57C8.339-6.717 23.888 1.691 23.433 6.757c-.111 1.246-.807 1.967-1.801.634-1.682-2.251-7.823-4.336-4.438 7.489.894 3.121 4.865 7.191-4.014 12.648-8.032 4.937-1.513 6.993-1.992 9.33-1.231 5.996-16.619-7.324-8.201-16.187 1.706-1.792 3.1-2.287 3.622-8.101z" fill="#5836E5" transform="translate(281 121)"/><path d="M22.509 6.361a1.896 1.896 0 0 1 1.137-.271c.854.077 1.443.736 1.443.736-2.041.633-3.738 2.47-3.738 2.47-.432-.983-.379-2.04 1.158-2.935z" fill="#4D3782" transform="translate(281 121)"/></g><g id="Path"><path d="M29.529 54.116c.236.301 2.268-.651 2.475-.968.271-.911.26-1.177.113-1.883-.43.663-1.041 1.251-1.643 1.771-.568.495-1.349.649-.945 1.08z" fill="#FCD2C5" transform="translate(478 116)"/><path d="M32.06 51.273c-.551 2.346-1.279 3.163-1.174 4.196.043.42 4.086 1.418 4.553-.502.027-.115.258-1.401.582-2.865-.889-.408-3.932-.871-3.961-.829zM2.898 11.623c3.135 3.12 15.514 10.225 20.787 14.76 6.471 5.563 8.041-.938 6.625-3.254-3.727-6.102-16.854-21.068-20.217-19.464-1.457.696-7.763 7.393-7.195 7.958z" fill="#FCD2C5" transform="translate(478 116)"/><path d="M24.746 24.684c-.047.337-.041.651.006.908.883 4.7 7.176 21.524 7.318 26.567 1.596-.388 2.906-.09 3.951-.057.369-2.717-3.68-29.331-6.902-30.11-2.953-.716-4.166 1.205-4.373 2.692z" fill="#FCD2C5" transform="translate(478 116)"/><path d="M37.046 49.613c-.445-7.102-3.207-23.6-6.201-28.172C27.804 16.652 13.331-1.581 8.907.609 7.427 1.343.602 11.805.854 12.048c1.617 1.563 23.049 14.683 23.482 14.971.568 1.926 1.424 4.49 2.328 7.197 1.973 5.909 4.43 13.264 4.551 16.111l5.831-.714z" fill="#F0F0F0" transform="translate(478 116)"/><path d="M82.589 114.494c-.176 1.156-7.125 59.169-7.125 59.169-1.502 1.08-3.754.704-3.785.586 0 0-1.465-59.743-1.102-62.409 1.458 1.277 10.993 3.54 12.012 2.654z" fill="#FCD2C5" transform="translate(399 89)"/><path d="M71.943 173.439l3.223-1.533s.604 1.043 1.107 1.723c.971 1.312 5.947 2.531 5.836 4.297-.057.892-1.982 1.573-3.516 1.537a10.517 10.517 0 0 1-3.656-.742c-.883-.353-2.889-1.322-3.182-1.893-.508-.99.012-2.068.012-2.068-.1-.995.176-1.321.176-1.321z" fill="#F0F0F0" transform="translate(399 89)"/><path d="M34.726 94.386l-3.418 1.028s.254 1.179.336 2.021c.16 1.624-2.707 5.87-1.439 7.103.641.623 2.525-.165 3.637-1.222 1.113-1.057 1.986-2.079 2.211-3.005.281-1.153 1.254-2.919 1.088-3.538-.289-1.075-1.398-1.525-1.398-1.525-.595-.805-1.017-.862-1.017-.862z" fill="#F0F0F0" transform="translate(452 163)"/><path d="M31.644 97.435s1.221.305 2.51-.089c.729-.223 1.588-2.099 1.588-2.099-.594-.805-1.025-1.32-1.025-1.32l-3.611 1.431c-.001-.001.376.814.538 2.077z" fill="#FCD2C5" transform="translate(452 163)"/><path d="M.933.649c2.541.969 12.336 1.411 19.816.552 2.158 13.11.146 35.979-.719 54.046-.383 8.005 15.492 39.712 15.492 39.712-1.441 1.754-4.068 1.439-4.117 1.276 0 0-23.461-27.859-24.941-40.354C3.369 29.77.744 2.754.933.649z" fill="#5836E5" transform="translate(452 163)"/><path d="M76.273 173.629s-.699 1.046-1.92 1.619c-.689.325-2.586-.488-2.586-.488-.1-.995-.127-1.667-.127-1.667l3.637-1.365s.267.856.996 1.901z" fill="#FCD2C5" transform="translate(399 89)"/><path d="M91.419 70.715c-2.557.932-13.51 1.351-20.977.382 0 0-2.361 38.304-.898 56.938 1.695 21.586 1.844 44.358 1.844 44.358 1.416 1.775 4.547.321 4.6.159 0 0 15.734-97.811 15.431-101.837z" fill="#5836E5" transform="translate(399 89)"/><path d="M54.07 67.35s-.734 7.947-.734 14.825c0 0 7.109 2.908 15.416 2.896l2.32-6.854s3.203 6.936 4.418 6.965c6.836.167 13.785-.576 18.455-3.398l-2.58-10.383L54.07 67.35z" fill="#CE61D4" transform="translate(399 89)"/><path d="M74.732 13.768c.51.402 5.816 3.604 7.371 3.426-.027.428-1.232 4.923-.32 7.396-.512 2.252-6.795 2.042-8.387-1.86.76-1.07 1.566-6.863 1.336-8.962z" fill="#FCD2C5" transform="translate(399 89)"/><path d="M58.445 33.473c1.27-4.009 3.658-8.294 8.518-9.277 1.619-.328 6.434-1.467 6.434-1.467s3.271 3.055 5.5 3.297c1.529.166 2.887-1.437 2.887-1.437s5.453 1.874 6.434 2.491c3.807 2.396 4.482 6.269 3.848 9.373-2.213 10.818 2.645 36.111-.637 37.531-4.273 1.849-28.18 3.064-37.346-2.977-.766-.505-1.164-1.401-1.08-2.313.518-5.555 2.584-26.187 5.442-35.221z" fill="#F0F0F0" transform="translate(399 89)"/><path d="M9.775 12.683a20.116 20.116 0 0 0-2.514-1.239c-1.035-.438-3.453-1.154-3.623-1.205-.5-.117-1.715-.576-2.119-.551-.258.015-.941.348-1.115.614-.234.353.059.716.059.716-.387.39.76 1.157.645 1.23-.473.304-.201 1.043 1.705 1.559.115.031 4.547 2.227 6.021 2.812.433-.879.982-3.907.941-3.936zm49.029-8.226c-4.189 1.417-16.061 9.34-22.469 12.044-7.861 3.317-2.74 7.616-.035 7.381 7.121-.622 26.367-5.716 26.428-9.44.025-1.616-3.166-10.243-3.924-9.985z" fill="#FCD2C5" transform="translate(399 113)"/><path d="M37.384 18.207a2.872 2.872 0 0 0-.816-.399c-4.602-1.301-22.469-3.154-27.047-5.272-.363 1.602-.771 2.91-1.268 3.831 7.602 3.331 27.463 9.493 29.596 6.954 1.953-2.326.776-4.268-.465-5.114z" fill="#FCD2C5" transform="translate(399 113)"/><path d="M9.585 18.125c6.557 2.762 22.561 7.633 27.988 6.987 5.641-.591 25.674-5.664 25.682-10.601 0-1.652 3.16-14.199 1.623-13.635C51.435 5.8 35.925 16.54 35.474 16.8c-1.979-.348-4.656-.723-7.48-1.118-6.17-.863-13.85-1.938-16.453-3.096l-1.956 5.539z" fill="#F0F0F0" transform="translate(399 113)"/><path d="M82.089 32.859c-1.617-5.979-1.066-8.361-.645-10.918.436-2.628.727-5.35-.039-7.396.049-.074 3.811-4.25 5.203-2.19a15.782 15.782 0 0 1 .555 8.769c-1.037 4.641.273 8.125 1.09 9.627 1.355 2.498 1.492 5.943 1.393 7.579-.578 9.553-6.119 14.269-7.795 13.382-1.84-.976 2.561-10.261.238-18.853z" fill="#4D3782" transform="translate(399 89)"/><path d="M81.162 5.979c2.854-.092 5.109 1.141 5.643 3.852.191.971-.535 9.646-5.219 10.796-1.982.486-5.627-3.003-5.701-5.292 0 0-.102-3.121-.102-3.152-.098-3.037 2.314-6.105 5.379-6.204z" fill="#FCD2C5" transform="translate(399 89)"/><path d="M64.248 37.213c-.195-1.859-.07-5.782 1.98-8.658 1.234-1.729 3.188-5.725 1.453-10.979s.08-10.278 3.012-13.604c2.93-3.327 6.98-4.231 9.176-3.31 2.744 1.154 2.754 2.505 2.754 2.505s1.4-.321 2.93.513c3.309 1.803 3.064 9.283.453 11.598 1.746-8.035-3.293-9.31-3.293-9.31s-3.516.36-5.242 2.392c-1.568 1.848-3.137 6.816-2.191 10.611.721 2.896 2.973 4.986.604 11.828-3.402 9.834 3.688 20.286.846 21.441-2.588 1.051-11.34-4.174-12.482-15.027z" fill="#4D3782" transform="translate(399 89)"/><path d="M75.939 10.986c.301.021.85.172 1.256.484-.328 1.022-1.082 2.645-1.453 3.446-.725-.257-1.539-1.46-1.482-2.205.058-.787.89-1.785 1.679-1.725z" fill="#FCD2C5" transform="translate(399 89)"/></g><g transform="translate(481 55)"><path d="M35.837.105H7.589A7.192 7.192 0 0 0 .396 7.297v13.2a7.193 7.193 0 0 0 7.193 7.193h15.377v10.625L33.382 27.69h2.455a7.193 7.193 0 0 0 7.191-7.193v-13.2A7.191 7.191 0 0 0 35.837.105z" id="Path" fill="url(#linearGradient-11)"/><path d="M13.291 18.836l-4.93-4.93a.724.724 0 0 1 0-1.021l4.793-4.793 1.021 1.021-4.281 4.282 4.42 4.419-1.023 1.022zm17.4.242l-1.02-1.022 4.523-4.523-4.525-4.524 1.023-1.021 5.033 5.035a.718.718 0 0 1 0 1.022l-5.034 5.033z" id="Path" fill="#FFF"/><path id="Rectangle" fill="#FFF" transform="rotate(23.966 22.37 13.466)" d="M21.647 3.881h1.445v19.171h-1.445z"/></g><g transform="translate(520 119)"><g id="XMLID_123_" transform="translate(32 50)" fill="#F0F0F0"><path id="Rectangle" d="M.388.868h24.994v11.426H.388z"/></g><g id="XMLID_122_" fill="#FFF"><path d="M85.333.637H4.907A4.127 4.127 0 0 0 .794 4.752v43.767a4.127 4.127 0 0 0 4.113 4.115h80.426a4.127 4.127 0 0 0 4.115-4.115V4.752A4.126 4.126 0 0 0 85.333.637z" id="Path"/></g><g id="XMLID_111_" transform="translate(3 3)" fill="url(#linearGradient-12)"><path id="Rectangle" d="M.525.037h83.193v42.248H.525z"/></g><g id="XMLID_105_" transform="translate(22 60)" fill="#FFF"><path d="M42.441.663H1.847c-.873 0-1.59.716-1.59 1.591s.717 1.591 1.59 1.591h40.594c.875 0 1.59-.716 1.59-1.591S43.316.663 42.441.663z" id="Path"/></g><g transform="translate(32 15)" fill="#D5DBE0"><path d="M5.515 19.887c-.121-.201-.212-.564-.212-1.082 0-.361-.042-1.203-.114-2.515-.039-.869-.157-1.558-.31-2.073a3.735 3.735 0 0 0-.692-1.314 4.253 4.253 0 0 0-1.143-.939c.525-.344.917-.667 1.181-.99.254-.313.466-.707.626-1.193.164-.494.273-1.123.313-1.91.072-1.384.111-2.326.111-2.83 0-.484.063-.828.174-1.03.121-.204.466-.354.72-.455.24-.101.851-.153 1.851-.153V.502h-.954c-1.043 0-1.801.107-2.285.248-.709.215-1.254.524-1.627.886-.375.377-.627.869-.77 1.478-.141.605-.211 1.671-.211 3.208 0 .939-.031 1.599-.102 1.984-.08.504-.223.918-.434 1.263-.213.334-.245.567-.538.718-.291.142-1.081.224-1.081.265v2.841c0 .039 1.04.191 1.396.475.354.273.503.719.677 1.355.121.435.136 1.374.136 2.828 0 1.256.031 2.174.174 2.751.133.585.382 1.071.775 1.465.395.396.863.74 1.431.91.574.174 1.387.326 2.458.326h.954v-2.976c-1 0-1.569-.049-1.821-.16s-.552-.267-.683-.48zm19.707-9.815c-.355-.271-.708-.728-.891-1.354-.121-.445-.225-1.385-.225-2.831 0-1.253-.085-2.163-.226-2.737a3.177 3.177 0 0 0-.801-1.479 3.426 3.426 0 0 0-1.441-.884c-.574-.16-1.4-.289-2.462-.289h-.156v2.901c1 0 1.235.063 1.489.163.264.111.326.262.416.453.102.204.092.598.102 1.186.039 1.889.081 3.103.161 3.659.133.797.379 1.465.745 1.989.271.364.688.728 1.276 1.112a3.874 3.874 0 0 0-1.117.909c-.293.333-.517.758-.687 1.255-.174.494-.287 1.151-.326 1.969-.061 1.367-.104 2.285-.104 2.771-.008.484-.068.828-.191 1.03-.121.202-.073.354-.334.466-.264.101-1.429.15-1.429.15v2.985h.156c1.033 0 1.799-.137 2.275-.279.717-.213 1.273-.538 1.648-.903.373-.365.627-.876.758-1.481.141-.618.213-1.697.213-3.225 0-.939.029-1.6.102-1.973.08-.508.232-.935.443-1.269.203-.331.457-.52.748-.662.293-.143.717-.208 1.305-.208h.352v-2.951c-1.001-.038-1.448-.199-1.799-.473z" id="Path"/><path id="Rectangle" d="M8.02 6.499h10v3h-10zm0 4h10v3h-10zm0 4h6v2h-6z"/></g><g transform="translate(3 3)"><path id="Rectangle" fill="url(#linearGradient-13)" d="M.525.037h10.35v42.285H.525z"/><path id="Rectangle" fill="url(#linearGradient-14)" d="M78.214.037h5.504v42.285h-5.504z"/><path id="Rectangle" fill="#FFF" d="M1.646 6.781h3.27v2.865h-3.27zm4.648 0h3.27v2.865h-3.27zm-4.648 4.177h3.27v2.865h-3.27zm4.648 0h3.27v2.865h-3.27zm-4.648 4.177h3.27V18h-3.27zm4.648 0h3.27V18h-3.27zm-4.648 4.178h3.27v2.865h-3.27zm4.648 0h3.27v2.865h-3.27zm-4.648 4.175h3.27v2.865h-3.27zm4.648 0h3.27v2.865h-3.27zm-4.648 4.178h3.27v2.865h-3.27zm4.648 0h3.27v2.865h-3.27zm-4.648 6.168h3.27v6.227h-3.27zm4.648 0h3.27v6.227h-3.27zm73.038 2.402h3.27v3.824h-3.27zm0-7.088h3.27v3.824h-3.27zm0-7.087h3.27v3.824h-3.27zm0-7.088h3.27v3.824h-3.27zm0-7.088h3.27v3.824h-3.27z"/><path id="Rectangle" fill="#D5DBE0" d="M.525.037h83.193v5.518H.525z"/><path d="M13.482 4.068H5.339a1.271 1.271 0 0 1 0-2.544h8.143a1.272 1.272 0 0 1 0 2.544zm12.4 0h-8.143a1.272 1.272 0 0 1 0-2.544h8.143a1.271 1.271 0 0 1 0 2.544zm12.401 0h-8.141a1.273 1.273 0 1 1 0-2.544h8.141a1.273 1.273 0 1 1 0 2.544zm12.4 0h-8.141a1.271 1.271 0 0 1 0-2.544h8.141a1.273 1.273 0 1 1 0 2.544zm12.402 0h-8.143a1.272 1.272 0 0 1 0-2.544h8.143a1.272 1.272 0 0 1 0 2.544z" id="Path" fill="#FFF"/></g></g><g id="Rectangle"><path fill="#F0F0F0" d="M.083.248h13.061v40.666H.083z" transform="translate(381 142)"/><path fill="url(#linearGradient-15)" d="M13.144.248h28.289v40.666H13.144z" transform="translate(381 142)"/></g><g transform="translate(313 119)"><g id="XMLID_104_" transform="translate(32 50)" fill="#F0F0F0"><path id="Rectangle" d="M.574.868h24.994v11.426H.574z"/></g><g id="XMLID_101_" fill="#FFF"><path d="M85.519.637H5.094A4.127 4.127 0 0 0 .98 4.752v43.767a4.127 4.127 0 0 0 4.114 4.115h80.425a4.127 4.127 0 0 0 4.115-4.115V4.752A4.127 4.127 0 0 0 85.519.637z" id="Path"/></g><g id="XMLID_90_" transform="translate(25 7)" fill="#F0F0F0"><path d="M52.382.16H3.044A2.532 2.532 0 0 0 .52 2.684v26.849a2.531 2.531 0 0 0 2.524 2.524h49.338a2.53 2.53 0 0 0 2.523-2.524V2.684A2.53 2.53 0 0 0 52.382.16z" id="Path"/></g><g id="XMLID_80_" transform="translate(22 60)" fill="#FFF"><path d="M42.626.663H2.033c-.875 0-1.591.716-1.591 1.591s.716 1.591 1.591 1.591h40.593c.875 0 1.59-.716 1.59-1.591S43.501.663 42.626.663z" id="Path"/></g></g><path d="M.796.376H3.12v77.088H.796zm29.954 0h2.324v77.088H30.75zm82.175 0h2.324v77.088h-2.324zm29.951 0h2.324v77.088h-2.324z" transform="translate(511 191)" fill="#FFF" id="Rectangle"/><path d="M.228.376h2.324v77.088H.228zm29.952 0h2.324v77.088H30.18zm82.175 0h2.324v77.088h-2.324zm29.953 0h2.324v77.088h-2.324z" transform="translate(263 191)" fill="#FFF" id="Rectangle"/><g id="Rectangle"><path fill="#F0F0F0" d="M.302.845h50.914v8.619H.302z" transform="translate(498 182)"/><path fill="url(#linearGradient-16)" d="M51.216.845h124.283v8.619H51.216z" transform="translate(498 182)"/></g><g id="Rectangle"><path fill="#F0F0F0" d="M.103.845h50.914v8.619H.103z" transform="translate(255 182)"/><path fill="url(#linearGradient-17)" d="M51.017.845h124.285v8.619H51.017z" transform="translate(255 182)"/></g><g transform="translate(603 140)"><path id="Rectangle" fill="#F0F0F0" d="M28.988.881h18.445v41.4H28.988z"/><path id="Rectangle" fill="#D5DBE0" d="M30.662 4.642h15.096v6.308H30.662zm0 7.86h15.096v3.72H30.662z"/><path id="Rectangle" fill="url(#linearGradient-18)" d="M.699.881h28.289v41.4H.699z"/><circle id="Oval" fill="url(#linearGradient-19)" cx="38.21" cy="31.766" r="3.688"/></g><g id="Path"><path d="M6.128 37.149c-.395-.19-.771-.511-.955.052-.15.351 1.217 1.313 1.596 1.343.928-.202.807-.744 1.703-.808-.787-.058-1.605-.29-2.344-.587z" fill="#FCD2C5" transform="translate(569 142)"/><path d="M9.152 37.673c-.896.064-1.844.211-2.771.413-1.1.229-3.496 1.016-3.664 1.071-.479.188-1.736.502-2.055.752-.205.159-.576.822-.568 1.141.008.423.457.556.457.556-.098.54 1.281.519 1.229.645-.215.519.428.972 2.289.311.113-.039 5.008-.758 6.553-1.117-.146-.969-1.419-3.771-1.47-3.772z" fill="#FCD2C5" transform="translate(569 142)"/><path d="M34.996 26.496a2.91 2.91 0 0 0-.896.137c-4.523 1.551-20.27 10.198-25.238 11.063.613 1.523 1.021 2.832 1.139 3.87 8.145-1.587 27.982-7.828 28.291-11.13.28-3.024-1.794-3.95-3.296-3.94z" fill="#FCD2C5" transform="translate(569 142)"/><path d="M44.779 2.998c-2.637 3.551-7.887 16.822-11.615 22.694-4.574 7.202 2.084 7.82 4.172 6.088 5.502-4.567 18.426-19.71 16.354-22.807-.899-1.342-8.433-6.618-8.911-5.975z" fill="#FCD2C5" transform="translate(569 142)"/><path d="M43.939.479c-1.711 4.185-3.34 8.041-5.457 12.555-2.129 4.542-4.33 9.237-6.164 12.123-.313.494-.59.982-.822 1.457-1.885.835-4.381 2.048-7.016 3.326-5.752 2.793-12.91 6.27-15.791 6.771l1.502 5.837c7.17-1.397 23.598-6.401 27.836-10.044 4.48-3.739 17.393-18.077 16.037-22.959C51.81 1.433 44.074.146 43.939.479z" fill="url(#linearGradient-20)" transform="translate(569 142)"/><path d="M66.003 74.802c-6.465.316-40.4 12.459-54.186 20.736-5.863 3.521-3.426 9.803 3.025 9.411 18.656-1.13 43.354-.436 54.328-8.296 17.449-12.497.285-22.02-3.167-21.851z" fill="#4D3782" transform="translate(549 118)"/><path d="M29.859 140.573c.457 1.472.408 2.528.408 2.528 1.303 1.315 3.75 1.362 3.801 1.252 0 0 .379-1.693.086-4.006-.237.02-2.608-1.33-4.295.226z" fill="#FCD2C5" transform="translate(549 118)"/><path d="M9.322 105.216a7310.58 7310.58 0 0 1 20.426 37.083c.707-1.301 2.932-2.187 4.699-1.681 0 0-6.506-19-13.064-38.25-4.327-12.692-16.633-5.398-12.061 2.848z" fill="#4D3782" transform="translate(549 118)"/><path d="M30.201 142.107s-.115.239-.725.826c-1.176 1.131-6.492 3.495-6.676 5.255-.094.889 1.693 1.881 3.211 2.101 1.518.219 2.861.272 3.729-.123 1.078-.494 3.234-2.846 3.658-3.326 1.049-1.188.67-3.368.67-3.368-.885-2.104-3.867-1.365-3.867-1.365z" fill="#4D3782" transform="translate(549 118)"/><path d="M30.201 144.271c-1.529 1.066-6.461 2.799-6.615 4.28-.078.748 1.426 1.584 2.705 1.769 1.277.186 2.41.23 3.139-.104.908-.416 2.766-2.363 3.08-2.801 1.73-2.394-.823-4.179-2.309-3.144z" fill="#4D3782" transform="translate(549 118)"/><path d="M59.119 140.993a47.778 47.778 0 0 0 1.074 4.484c.051.111 3.314-1.061 4.617-2.376 0 0-1-1.546-1.723-2.983-1.687-1.555-3.732.895-3.968.875z" fill="#FCD2C5" transform="translate(549 118)"/><path d="M39.394 108.216c11.213 20.216 19.527 34.154 19.527 34.154.709-1.301 2.83-2.258 4.598-1.752 0 0-5.508-16-12.066-35.25-4.325-12.692-16.633-5.398-12.059 2.848zm25.207 34.718l-.033-.032c-.85-.817-2.098-1.153-3.199-.732l-.043.018c-.852.342-1.348 1.233-1.277 2.147.061.803.221 1.956.631 2.506.383.514 2.58 2.832 3.658 3.326.867.396 2.211.342 3.729.123 1.518-.22 3.305-1.212 3.211-2.101-.185-1.76-5.501-4.125-6.677-5.255z" fill="#4D3782" transform="translate(549 118)"/><path d="M63.876 144.271c-1.486-1.035-4.039.75-2.309 3.145.314.438 2.172 2.385 3.08 2.801.729.334 1.861.289 3.139.104 1.279-.185 2.783-1.021 2.705-1.769-.154-1.482-5.085-3.214-6.615-4.281z" fill="#4D3782" transform="translate(549 118)"/><path d="M76.402 74.202c-7.471.944-14.9 1.993-22.445 2.157-4.668.102-9.105-.394-13.25-1.546.021 6.989-1.4 8.055-4.525 9.94 2.211 7.677 6.633 9.813 10.467 11.066 10.096 3.298 35.352-4.26 36.07-4.313-.033-5.554-.535-11.803-1.262-18.043-1.641.304-3.331.521-5.055.739z" fill="#F0F0F0" transform="translate(549 118)"/><path d="M60.939 12.918c-.521.387-5.934 3.41-7.48 3.18.014.43 1.068 4.962.074 7.403.438 2.268 6.725 2.265 8.445-1.582-.725-1.093-1.34-6.909-1.039-9.001z" fill="#FCD2C5" transform="translate(549 118)"/><path d="M55.23 5.41c-2.85-.187-5.604.482-6.227 3.174-.223.965.215 9.658 4.859 10.963 1.963.551 5.723-2.814 5.873-5.101l.205-3.147c.2-3.03-1.649-5.689-4.71-5.889z" fill="#FCD2C5" transform="translate(549 118)"/><path d="M68.359 23.598c-1.607-.381-6.381-1.679-6.381-1.679s-.936 1.308-3.842 1.929c-2.611.557-4.604-.347-4.604-.347s-5.51 1.692-6.512 2.276c-3.883 2.269-3.902 3.904-4.154 9.24-.119 2.487-.172 40.703-6.211 49.491.201.352 2.379 5.568 7.365 6.887l1.223-10.811 1.109 11.309c11.684 2.507 20.635-2.114 30.021-3.55l.9-14.187 2.701 13.678a51.51 51.51 0 0 1 2.445-.255c-.125-21.669-6.123-54.227-6.387-55.211-1.116-4.178-2.849-7.626-7.673-8.77z" fill="url(#linearGradient-21)" transform="translate(549 118)"/><path d="M61.197 1.965c-4.455-3.492-11.969-.108-13.938 4.461-1.471 3.406-2.84 1.041-2.699.137-.443 2.266.514 4.227 4.889 3.896.92-.068-2.033.844-2.033.844s4.676 9.691 11.895 7.316c2.145-.705 4.014-2.803 4.014-2.803s-2.34.389-1.107-1.518c2.391-3.7 2.912-9.249-1.021-12.333z" fill="#5836E5" transform="translate(549 118)"/><path d="M6.105 59.593c-.225.309.893 1.553 1.254 1.667.949.013.953-.543 1.842-.402-.756-.234-1.5-.645-2.152-1.1-.342-.275-.637-.671-.944-.165z" fill="#FCD2C5" transform="translate(549 118)"/><path d="M7.083 60.727c-1.123-.024-3.637.202-3.813.219-.508.075-1.805.099-2.172.271-.234.109-.746.671-.811.983-.086.413.32.644.32.644-.215.505 1.133.794 1.053.905-.326.457.199 1.043 2.162.818.117-.014 5.047.389 6.633.387.08-.976-.531-3.992-.58-4.005-.887-.14-1.842-.21-2.792-.222z" fill="#FCD2C5" transform="translate(549 118)"/><path d="M35.55 55.181c-.34.012-.65.071-.895.162-4.479 1.678-20.678 4.727-25.621 5.732.656 1.506 1.102 2.802 1.248 3.837 8.098-1.818 28.455-2.576 28.67-5.886.198-3.031-1.902-3.897-3.402-3.845z" fill="#FCD2C5" transform="translate(549 118)"/><path d="M44.662 31.415c-2.535 3.624-7.406 17.038-10.969 23.014-4.367 7.329 2.307 7.759 4.346 5.968 5.369-4.722 17.857-20.225 15.699-23.261-.936-1.317-8.617-6.378-9.076-5.721z" fill="#FCD2C5" transform="translate(549 118)"/><path d="M43.751 28.92c-1.592 4.232-3.111 8.133-5.098 12.705-2.002 4.6-6.381 13.291-6.6 13.771-1.861.889-19.428 4.06-22.293 4.644l.74 5.848c7.096-.618 24.113-1.025 28.248-4.787 4.371-3.864 18.455-19.55 16.691-24.3-1.756-4.727-11.563-8.217-11.688-7.881z" fill="url(#linearGradient-22)" transform="translate(549 118)"/></g><g id="Path"><path fill="#F0F0F0" d="M58.003 63.754l14.672 42.71h1.643l-14.67-42.71zm-24.802 0l14.672 42.71h1.644l-14.672-42.71z" transform="translate(577 162)"/><path d="M61.267.608c-10.289 0-20.191 8.341-22.119 18.629l-6.439 26.746c-1.133 6.047-7.76 10.429-13.91 10.429H5.403a3.654 3.654 0 0 0-.004 7.309l55.244.057a5.347 5.347 0 0 0 5.256-4.336l10.508-40.205C78.333 8.949 71.554.608 61.267.608z" fill="url(#linearGradient-23)" transform="translate(577 162)"/><path d="M61.267.607c-10.289 0-20.191 8.341-22.119 18.629l-6.439 26.772c-1.133 6.047-7.76 10.455-13.91 10.455H5.403c-2.018 0-3.654 1.61-3.654 3.629a3.643 3.643 0 0 0 3.65 3.642l1.734-.024c.559-1.305 1.852-2.246 3.361-2.246h13.395c6.152 0 12.777-4.362 13.91-10.409l6.441-26.736C46.168 14.031 56.07 5.695 66.357 5.695c3.135 0 5.938.785 8.273 2.153C72.046 3.449 67.261.607 61.267.607zM.966 106.464h1.645l14.67-42.71h-1.643zm24.803 0h1.643l14.671-42.71h-1.642z" fill="#FFF" transform="translate(577 162)"/></g><g transform="translate(92 119)"><g id="XMLID_51_" transform="translate(32 50)" fill="#D5DBE0"><path id="Rectangle" d="M.388.868h24.994v11.426H.388z"/></g><g id="XMLID_32_" fill="#F0F0F0"><path d="M85.333.637H4.908A4.127 4.127 0 0 0 .794 4.752v43.767a4.127 4.127 0 0 0 4.114 4.115h80.425a4.127 4.127 0 0 0 4.115-4.115V4.752A4.126 4.126 0 0 0 85.333.637z" id="Path"/></g><g id="XMLID_10_" transform="translate(3 3)" fill="url(#linearGradient-12)"><path id="Rectangle" d="M.525.037h83.193v42.248H.525z"/></g><g id="XMLID_3_" transform="translate(22 60)" fill="#FFF"><path d="M42.441.663H1.848C.973.663.257 1.379.257 2.254s.716 1.591 1.591 1.591h40.593c.875 0 1.591-.716 1.591-1.591S43.316.663 42.441.663z" id="Path"/></g><g transform="translate(3 3)"><path id="Rectangle" fill="url(#linearGradient-13)" d="M.525.037h10.35v42.285H.525z"/><path id="Rectangle" fill="url(#linearGradient-14)" d="M78.214.037h5.504v42.285h-5.504z"/><path id="Rectangle" fill="#FFF" d="M1.646 6.781h3.271v2.865H1.646zm4.648 0h3.27v2.865h-3.27zm-4.648 4.177h3.271v2.865H1.646zm4.648 0h3.27v2.865h-3.27zm-4.648 4.177h3.271V18H1.646zm4.648 0h3.27V18h-3.27zm-4.648 4.178h3.271v2.865H1.646zm4.648 0h3.27v2.865h-3.27zm-4.648 4.175h3.271v2.865H1.646zm4.648 0h3.27v2.865h-3.27zm-4.648 4.178h3.271v2.865H1.646zm4.648 0h3.27v2.865h-3.27zm-4.648 6.168h3.271v6.227H1.646zm4.648 0h3.27v6.227h-3.27zm73.038 2.402h3.27v3.824h-3.27zm0-7.088h3.27v3.824h-3.27zm0-7.087h3.27v3.824h-3.27zm0-7.088h3.27v3.824h-3.27zm0-7.088h3.27v3.824h-3.27z"/><path id="Rectangle" fill="#D5DBE0" d="M.525.037h83.193v5.518H.525z"/><path d="M13.481 4.068H5.339a1.272 1.272 0 0 1 0-2.544h8.142a1.273 1.273 0 0 1 0 2.544zm12.401 0H17.74a1.273 1.273 0 0 1 0-2.544h8.142a1.272 1.272 0 0 1 0 2.544zm12.401 0h-8.141a1.273 1.273 0 1 1 0-2.544h8.141a1.272 1.272 0 0 1 0 2.544zm12.401 0h-8.142a1.272 1.272 0 0 1 0-2.544h8.142a1.273 1.273 0 0 1 0 2.544zm12.401 0h-8.143a1.272 1.272 0 0 1 0-2.544h8.143a1.272 1.272 0 0 1 0 2.544z" id="Path" fill="#FFF"/></g><g transform="translate(31 29)" fill="#FFF"><path d="M10.958 10.998H8.629L7.703 8.59H3.466l-.875 2.408H.32L4.45.396h2.263l4.245 10.602zM7.017 6.804L5.556 2.87 4.124 6.804h2.893zm4.975 4.194V.396h2.032v3.818c.626-.713 1.369-1.07 2.228-1.07.936 0 1.709.339 2.32 1.017.613.677.919 1.649.919 2.918 0 1.311-.312 2.32-.937 3.029-.625.709-1.383 1.063-2.274 1.063-.438 0-.871-.109-1.298-.329a3.116 3.116 0 0 1-1.104-.973v1.128h-1.886v.001zm2.017-4.006c0 .795.125 1.383.376 1.764.353.54.819.811 1.403.811.447 0 .83-.191 1.146-.575.314-.383.473-.987.473-1.812 0-.877-.158-1.51-.477-1.898a1.513 1.513 0 0 0-1.223-.582c-.486 0-.892.189-1.215.568-.321.378-.483.953-.483 1.724z" id="Shape" fill-rule="nonzero"/><path d="M27.821 5.589l-2.003.361c-.067-.399-.221-.701-.459-.903-.238-.203-.549-.304-.93-.304-.506 0-.91.175-1.211.524-.301.349-.451.934-.451 1.753 0 .911.152 1.555.459 1.931.306.376.717.564 1.232.564.386 0 .701-.109.947-.329.246-.22.42-.597.521-1.132l1.996.34c-.208.916-.604 1.608-1.193 2.075-.588.468-1.376.702-2.364.702-1.123 0-2.019-.354-2.687-1.063-.668-.709-1.001-1.689-1.001-2.942 0-1.269.334-2.256 1.004-2.962.67-.706 1.577-1.06 2.72-1.06.935 0 1.679.201 2.23.604.552.403.949 1.017 1.19 1.841z" id="Path"/></g><g id="XMLID_574_" transform="translate(29 12)"><g id="XMLID_575_" fill="#D5DBE0"><path id="Rectangle" d="M.903.038H31.34v10.954H.903z"/></g><g id="Group" transform="translate(6 2)" fill="#FFF"><path id="Path" d="M1.138.896v1.94H3.38V.896h.605v4.638H3.38V3.359H1.138v2.175h-.6V.896zm4.767.51h-1.41v-.51h3.433v.51H6.512v4.128h-.606V1.406zm6.446 2.092c-.035-.646-.076-1.425-.068-2.002h-.021a28.169 28.169 0 0 1-.584 1.761l-.819 2.249h-.454l-.75-2.208a20.695 20.695 0 0 1-.537-1.802h-.014a64.096 64.096 0 0 1-.089 2.05l-.124 1.988H8.32L8.643.896h.764l.792 2.243c.192.571.351 1.08.468 1.562h.021c.116-.467.282-.977.488-1.562l.825-2.243h.764l.289 4.638h-.584l-.119-2.036zM13.974.896h.598v4.135h1.982v.503h-2.58zm5.703.675H17.97l-.172 1.149c.104-.015.199-.027.365-.027.344 0 .688.075.963.24.352.199.64.585.64 1.148 0 .874-.694 1.527-1.665 1.527-.488 0-.901-.137-1.114-.275l.151-.46c.186.11.551.247.957.247.57 0 1.059-.371 1.059-.97-.007-.578-.393-.991-1.287-.991-.254 0-.453.027-.619.049l.289-2.146h2.141v.509h-.001z"/></g></g></g><path d="M.797.376H3.12v77.088H.797zm29.953 0h2.324v77.088H30.75zm82.175 0h2.323v77.088h-2.323zm29.951 0h2.324v77.088h-2.324z" transform="translate(83 191)" fill="#FFF" id="Rectangle"/><g id="Rectangle"><path fill="#F0F0F0" d="M.301.845h50.915v8.619H.301z" transform="translate(70 182)"/><path fill="url(#linearGradient-16)" d="M51.216.845h124.283v8.619H51.216z" transform="translate(70 182)"/></g><g transform="translate(175 140)"><path id="Rectangle" fill="#F0F0F0" d="M28.988.881h18.445v41.4H28.988z"/><path id="Rectangle" fill="#D5DBE0" d="M30.663 4.642h15.095v6.308H30.663zm0 7.86h15.095v3.72H30.663z"/><path id="Rectangle" fill="url(#linearGradient-18)" d="M.699.881h28.289v41.4H.699z"/><circle id="Oval" fill="url(#linearGradient-24)" cx="38.21" cy="31.766" r="3.687"/></g><g id="Path"><path d="M29.859 140.573c.457 1.472.408 2.528.408 2.528 1.303 1.315 3.75 1.362 3.801 1.252 0 0 .379-1.693.086-4.006-.237.02-2.608-1.33-4.295.226z" fill="#FCD2C5" transform="translate(121 118)"/><path d="M9.322 105.216a7310.58 7310.58 0 0 1 20.426 37.083c.707-1.301 2.932-2.187 4.699-1.681 0 0-6.506-19-13.064-38.25-4.326-12.692-16.633-5.398-12.061 2.848z" fill="url(#linearGradient-25)" transform="translate(121 118)"/><path d="M30.201 142.107s-.114.239-.725.826c-1.176 1.131-6.493 3.495-6.676 5.255-.093.889 1.693 1.881 3.211 2.101 1.518.219 2.862.272 3.729-.123 1.078-.494 3.234-2.846 3.658-3.326 1.049-1.188.67-3.368.67-3.368-.885-2.104-3.867-1.365-3.867-1.365z" fill="#4D3782" transform="translate(121 118)"/><path d="M30.201 144.271c-1.529 1.066-6.461 2.799-6.615 4.28-.078.748 1.426 1.584 2.704 1.769 1.278.186 2.411.23 3.14-.104.908-.416 2.766-2.363 3.081-2.801 1.729-2.394-.824-4.179-2.31-3.144z" fill="#3A2B62" transform="translate(121 118)"/><path d="M59.119 140.993a47.778 47.778 0 0 0 1.074 4.484c.051.111 3.314-1.061 4.617-2.376 0 0-1-1.546-1.723-2.983-1.687-1.555-3.732.895-3.968.875z" fill="#FCD2C5" transform="translate(121 118)"/><path d="M39.394 108.216c11.213 20.216 19.527 34.154 19.527 34.154.709-1.301 2.83-2.258 4.598-1.752 0 0-5.507-16-12.065-35.25-4.326-12.692-16.633-5.398-12.06 2.848z" fill="url(#linearGradient-26)" transform="translate(121 118)"/><path d="M64.601 142.934l-.033-.032c-.85-.817-2.098-1.153-3.198-.732a1.99 1.99 0 0 0-.044.018c-.852.342-1.348 1.233-1.277 2.147.062.803.221 1.956.631 2.506.383.514 2.58 2.832 3.658 3.326.866.396 2.211.342 3.729.123 1.518-.22 3.305-1.212 3.211-2.101-.184-1.76-5.501-4.125-6.677-5.255z" fill="#4D3782" transform="translate(121 118)"/><path d="M63.876 144.271c-1.486-1.035-4.039.75-2.31 3.145.315.438 2.173 2.385 3.081 2.801.729.334 1.861.289 3.14.104 1.278-.185 2.782-1.021 2.704-1.769-.154-1.482-5.085-3.214-6.615-4.281z" fill="#3A2B62" transform="translate(121 118)"/><path d="M6.129 37.149c-.396-.19-.772-.511-.956.052-.15.351 1.218 1.313 1.596 1.343.928-.202.807-.744 1.703-.808-.787-.058-1.605-.29-2.343-.587z" fill="#FCD2C5" transform="translate(141 142)"/><path d="M9.152 37.673c-.896.064-1.844.211-2.771.413-1.1.229-3.496 1.016-3.664 1.071-.479.188-1.737.502-2.056.752-.203.159-.575.822-.568 1.141.009.423.457.556.457.556-.097.54 1.282.519 1.229.645-.215.519.428.972 2.29.311.112-.039 5.006-.758 6.551-1.117-.144-.969-1.417-3.771-1.468-3.772z" fill="#FCD2C5" transform="translate(141 142)"/><path d="M34.997 26.496c-.341.003-.65.053-.897.137-4.524 1.551-20.269 10.198-25.239 11.063.614 1.523 1.022 2.832 1.14 3.87 8.146-1.587 27.982-7.828 28.29-11.13.282-3.024-1.793-3.95-3.294-3.94z" fill="#FCD2C5" transform="translate(141 142)"/><path d="M44.779 2.998c-2.637 3.551-7.887 16.822-11.616 22.694-4.573 7.202 2.084 7.82 4.173 6.088 5.502-4.567 18.426-19.71 16.354-22.807-.899-1.342-8.433-6.618-8.911-5.975z" fill="#FCD2C5" transform="translate(141 142)"/><path d="M43.939.479c-1.711 4.185-3.34 8.041-5.456 12.555-2.13 4.542-4.332 9.237-6.165 12.123-.313.494-.59.982-.822 1.457-1.885.835-4.381 2.048-7.016 3.326-5.752 2.793-12.91 6.27-15.791 6.771l1.501 5.837c7.172-1.397 23.598-6.401 27.837-10.044 4.48-3.739 17.392-18.077 16.036-22.959C51.81 1.433 44.075.146 43.939.479z" fill="#5836E5" transform="translate(141 142)"/><path d="M66.003 74.802c-6.465.316-40.401 12.459-54.186 20.736-5.863 3.521-3.426 9.803 3.024 9.411 18.657-1.13 43.354-.436 54.329-8.296 17.449-12.497.285-22.02-3.167-21.851z" fill="url(#linearGradient-27)" transform="translate(121 118)"/><path d="M76.402 74.202c-7.472.944-14.901 1.993-22.445 2.157-4.669.102-9.104-.394-13.25-1.546.021 6.989-1.4 8.055-4.525 9.94 2.211 7.677 6.633 9.813 10.467 11.066 10.096 3.298 35.352-4.26 36.069-4.313-.032-5.554-.534-11.803-1.262-18.043-1.64.304-3.33.521-5.054.739z" fill="#F0F0F0" transform="translate(121 118)"/><path d="M60.939 12.918c-.521.387-5.933 3.41-7.48 3.18.014.43 1.068 4.962.074 7.403.438 2.268 6.725 2.265 8.445-1.582-.724-1.093-1.34-6.909-1.039-9.001z" fill="#FCD2C5" transform="translate(121 118)"/><path d="M55.23 5.41c-2.85-.187-5.604.482-6.227 3.174-.224.965.215 9.658 4.859 10.963 1.964.551 5.724-2.814 5.873-5.101 0 0 .204-3.116.205-3.147.199-3.03-1.649-5.689-4.71-5.889z" fill="#FCD2C5" transform="translate(121 118)"/><path d="M68.359 23.598c-1.607-.381-6.381-1.679-6.381-1.679s-.936 1.308-3.842 1.929c-2.61.557-4.604-.347-4.604-.347s-5.511 1.692-6.512 2.276c-3.883 2.269-3.902 3.904-4.154 9.24-.119 2.487-.172 40.703-6.211 49.491.201.352 2.379 5.568 7.365 6.887l1.223-10.811 1.109 11.309c11.684 2.507 20.635-2.114 30.022-3.55l.9-14.187 2.7 13.678a51.51 51.51 0 0 1 2.445-.255c-.125-21.669-6.122-54.227-6.387-55.211-1.116-4.178-2.849-7.626-7.673-8.77z" fill="#5836E5" transform="translate(121 118)"/><path d="M6.105 59.593c-.225.309.893 1.553 1.254 1.667.949.013.952-.543 1.842-.402-.755-.234-1.5-.645-2.152-1.1-.342-.275-.637-.671-.944-.165z" fill="#FCD2C5" transform="translate(121 118)"/><path d="M7.083 60.727c-1.123-.024-3.636.202-3.813.219-.508.075-1.805.099-2.172.271-.233.109-.745.671-.811.983-.086.413.32.644.32.644-.215.505 1.133.794 1.054.905-.327.457.198 1.043 2.161.818.117-.014 5.047.389 6.634.387.078-.976-.531-3.992-.581-4.005-.887-.14-1.842-.21-2.792-.222z" fill="#FCD2C5" transform="translate(121 118)"/><path d="M35.55 55.181c-.34.012-.649.071-.895.162-4.478 1.678-20.677 4.727-25.621 5.732.656 1.506 1.103 2.802 1.248 3.837 8.098-1.818 28.456-2.576 28.67-5.886.198-3.031-1.902-3.897-3.402-3.845z" fill="#FCD2C5" transform="translate(121 118)"/><path d="M44.662 31.415c-2.535 3.624-7.406 17.038-10.968 23.014-4.368 7.329 2.305 7.759 4.345 5.968 5.369-4.722 17.857-20.225 15.699-23.261-.936-1.317-8.616-6.378-9.076-5.721z" fill="#FCD2C5" transform="translate(121 118)"/><path d="M43.751 28.92c-1.592 4.232-3.111 8.133-5.099 12.705-2 4.6-6.38 13.291-6.6 13.771-1.86.889-19.427 4.06-22.293 4.644l.741 5.848c7.096-.618 24.113-1.025 28.248-4.787 4.371-3.864 18.455-19.55 16.69-24.3-1.755-4.727-11.561-8.217-11.687-7.881z" fill="#5836E5" transform="translate(121 118)"/><path d="M45.477 7.951c-.044 1.338 2.327 2.998 6.114 2.263.625 8.448 7.481 8.325 9.826 6.534 3.971-3.031 4.367-10.701.009-14.588-5.7-5.084-15.752-.267-15.949 5.791z" fill="#4D3782" transform="translate(121 118)"/></g><g id="Path"><path fill="#F0F0F0" d="M58.003 63.754l14.672 42.71h1.643l-14.671-42.71zm-24.801 0l14.671 42.71h1.644l-14.672-42.71z" transform="translate(149 162)"/><path d="M61.267.608c-10.289 0-20.191 8.341-22.119 18.629l-6.439 26.746c-1.133 6.047-7.76 10.429-13.91 10.429H5.403a3.654 3.654 0 0 0-.004 7.309l55.244.057a5.346 5.346 0 0 0 5.256-4.336l10.508-40.205C78.333 8.949 71.555.608 61.267.608z" fill="url(#linearGradient-28)" transform="translate(149 162)"/><path d="M61.267.607c-10.289 0-20.191 8.341-22.119 18.629l-6.439 26.772c-1.133 6.047-7.76 10.455-13.91 10.455H5.403c-2.018 0-3.654 1.61-3.654 3.629a3.643 3.643 0 0 0 3.65 3.642l1.734-.024c.558-1.305 1.852-2.246 3.361-2.246h13.395c6.152 0 12.778-4.362 13.91-10.409l6.441-26.736C46.168 14.031 56.07 5.695 66.358 5.695c3.135 0 5.937.785 8.272 2.153C72.047 3.449 67.261.607 61.267.607zM.966 106.464H2.61l14.672-42.71h-1.644zm24.803 0h1.643l14.671-42.71h-1.642z" fill="#FFF" transform="translate(149 162)"/></g><g transform="translate(412 228)"><g id="Path"><path d="M.679 13.461v11.87a2.636 2.636 0 0 0 2.635 2.636H20.56a2.637 2.637 0 0 0 2.637-2.636v-11.87a2.637 2.637 0 0 0-2.637-2.636H3.314a2.636 2.636 0 0 0-2.635 2.636z" fill="#F0F0F0"/><path d="M17.625 19.396a5.696 5.696 0 0 1-5.688 5.689c-3.135 0-5.684-2.554-5.684-5.689a5.693 5.693 0 0 1 5.684-5.688 5.696 5.696 0 0 1 5.688 5.688z" fill="#D5DBE0"/><path fill="#4D3782" d="M10.433 15.216v8.36h3.01v-8.36zm-2.98-4.391V7.7a4.492 4.492 0 0 1 4.488-4.486c1.258 0 2.395.522 3.209 1.359A4.493 4.493 0 0 1 16.427 7.7v3.125h3.008V7.8a7.45 7.45 0 0 0-1.172-4.008 7.8 7.8 0 0 0-.541-.756 7.497 7.497 0 0 0-2.572-1.998 7.433 7.433 0 0 0-3.209-.732C7.808.306 4.445 3.667 4.445 7.8v3.025h3.008z"/></g><g transform="translate(11 11)"><path d="M16.978 12.087h2.102l1-1.487h2.105a8.876 8.876 0 0 1-.289-2.204c0-.761.109-1.493.289-2.204H3.246L.937 8.396 3.246 10.6h4.533L9 12.087h1.52l1.133-1.487h4.277l1.048 1.487z" id="Path" fill="#FFF"/><path d="M19.246 7.66H4.566a.734.734 0 0 0 0 1.469h14.68a.736.736 0 1 0 0-1.469z" id="Path" fill="#F0F0F0"/><path d="M36.982 6.604a7.947 7.947 0 0 0-2.298-4A7.934 7.934 0 0 0 29.219.419a8.015 8.015 0 0 0-6.629 3.543 7.988 7.988 0 0 0-.84 1.654 7.911 7.911 0 0 0-.512 2.779c0 .98.188 1.911.512 2.779.219.586.498 1.144.84 1.654a8.12 8.12 0 0 0 2.295 2.256c.541.35 1.129.636 1.748.848a7.86 7.86 0 0 0 2.586.437c4.396 0 7.975-3.577 7.975-7.975 0-.322-.025-.639-.063-.951a8.515 8.515 0 0 0-.149-.839zm-7.764 7.156h-.422V3.035h.422c.098 0 .195.009.291.013a5.378 5.378 0 0 1 1.762.396 5.38 5.38 0 0 1 3.217 4.002c.059.309.092.627.092.951a5.37 5.37 0 0 1-5.362 5.363z" id="Shape" fill="#FFF" fill-rule="nonzero"/></g></g></g></g></g></g></svg>