<?xml version="1.0" standalone="no"?>
<!DOCTYPE svg PUBLIC "-//W3C//DTD SVG 1.1//EN" "http://www.w3.org/Graphics/SVG/1.1/DTD/svg11.dtd" >
<svg xmlns="http://www.w3.org/2000/svg" xmlns:xlink="http://www.w3.org/1999/xlink" version="1.1">
<metadata>
Created by FontForge 20170731 at Sun Sep 15 21:31:32 2013
 By Aleksey,,,
Copyright (c) 2011 Swiss Typefaces Sa`rl. All rights reserved.
</metadata>
<defs>
<font id="SimplonMono-Bold" horiz-adv-x="608" >
  <font-face 
    font-family="Simplon Mono Bold"
    font-weight="700"
    font-stretch="normal"
    units-per-em="1000"
    panose-1="2 11 8 9 3 0 0 0 0 0"
    ascent="806"
    descent="-194"
    x-height="516"
    cap-height="700"
    bbox="-537 -210 638 880"
    underline-thickness="100"
    underline-position="-300"
    unicode-range="U+0020-FB02"
  />
<missing-glyph 
d="M498 0h-387v700h387v-700zM304 408l106 238h-212zM443 96v507l-113 -253zM166 98l112 252l-112 251v-503zM198 54h212l-106 237z" />
    <glyph glyph-name=".notdef" 
d="M498 0h-387v700h387v-700zM304 408l106 238h-212zM443 96v507l-113 -253zM166 98l112 252l-112 251v-503zM198 54h212l-106 237z" />
    <glyph glyph-name=".null" horiz-adv-x="0" 
 />
    <glyph glyph-name="nonmarkingreturn" horiz-adv-x="333" 
 />
    <glyph glyph-name="space" unicode=" " 
 />
    <glyph glyph-name="exclam" unicode="!" 
d="M370 700v-470h-132v470h132zM224 0v160h160v-160h-160z" />
    <glyph glyph-name="quotedbl" unicode="&#x22;" 
d="M452 476h-53v224h53v-224zM209 476h-53v224h53v-224z" />
    <glyph glyph-name="numbersign" unicode="#" 
d="M516 216h-93l-53 -216h-47l53 216h-211l-53 -216h-47l53 216h-71v45h82l44 178h-81v45h92l54 216h47l-54 -216h211l54 216h47l-54 -216h72v-45h-83l-44 -178h82v-45zM220 439l-44 -178h211l44 178h-211z" />
    <glyph glyph-name="dollar" unicode="$" 
d="M280 -100v91q-97 7 -154.5 68.5t-62.5 161.5h132q2 -47 30.5 -79.5t76.5 -32.5q45 0 71.5 20.5t26.5 56.5q0 62 -74 87l-86 29q-80 27 -124 80t-44 129q0 88 59 140.5t149 57.5v91h43v-91q83 -7 135.5 -61t63.5 -139h-132q-6 39 -30 60.5t-58 21.5q-45 0 -71.5 -20.5
t-26.5 -59.5q0 -54 72 -79l90 -31q166 -57 166 -215q0 -83 -56.5 -136.5t-152.5 -58.5v-91h-43z" />
    <glyph glyph-name="percent" unicode="%" 
d="M54 567q0 57 40 97.5t97 40.5t97.5 -40.5t40.5 -97.5t-40.5 -97t-97.5 -40t-97 40t-40 97zM279 132q0 57 40 97.5t97 40.5t97.5 -40.5t40.5 -97.5t-40.5 -97t-97.5 -40t-97 40t-40 97zM150 567q0 -18 11.5 -30.5t29.5 -12.5t30 12.5t12 30.5t-12 31t-30 13t-29.5 -12.5
t-11.5 -31.5zM375 132q0 -18 11.5 -30.5t29.5 -12.5t30 12.5t12 30.5t-12 31t-30 13t-29.5 -12.5t-11.5 -31.5zM71 150l434 435l32 -32l-434 -435z" />
    <glyph glyph-name="ampersand" unicode="&#x26;" 
d="M456 368l111 -64l-76 -133l65 -113l-111 -63l-33 58q-55 -63 -150 -63q-91 0 -155.5 64.5t-64.5 155.5q0 56 27 104.5t73 79.5q32 20 61 28l-90 159v119h369v-119h-223l159 -280zM174 210q0 -43 23.5 -72t64.5 -29q56 0 83 63l-79 139h-4q-41 0 -64.5 -29t-23.5 -72z" />
    <glyph glyph-name="quotesingle" unicode="'" 
d="M330 476h-53v224h53v-224z" />
    <glyph glyph-name="parenleft" unicode="(" 
d="M250 11v586q0 53 23 78t84 25h118v-42h-118q-38 0 -51 -14t-13 -47v-586q0 -33 13 -47t51 -14h118v-42h-118q-61 0 -84 25t-23 78z" />
    <glyph glyph-name="parenright" unicode=")" 
d="M358 597v-586q0 -53 -23 -78t-84 -25h-118v42h118q38 0 51 14t13 47v586q0 33 -13 47t-51 14h-118v42h118q61 0 84 -25t23 -78z" />
    <glyph glyph-name="asterisk" unicode="*" 
d="M304 470l-95 -131l-37 25l96 131l-154 50l13 43l154 -50v162h45v-162l154 50l13 -43l-154 -50l96 -131l-37 -25z" />
    <glyph glyph-name="plus" unicode="+" 
d="M282 82v176h-176v45h176v175h45v-175h175v-45h-175v-176h-45z" />
    <glyph glyph-name="comma" unicode="," 
d="M204 -166l-85 85l204 203l85 -85z" />
    <glyph glyph-name="hyphen" unicode="-" 
d="M449 258h-290v45h290v-45z" />
    <glyph glyph-name="period" unicode="." 
d="M224 0v160h160v-160h-160z" />
    <glyph glyph-name="slash" unicode="/" 
d="M522 705l37 -26l-472 -684l-37 26z" />
    <glyph glyph-name="zero" unicode="0" 
d="M534 480v-260q0 -95 -67.5 -162.5t-162.5 -67.5t-162.5 67.5t-67.5 162.5v260q0 95 67.5 162.5t162.5 67.5t162.5 -67.5t67.5 -162.5zM304 109q43 0 70.5 30.5t27.5 72.5v204l-196 -196v-8q0 -42 27.5 -72.5t70.5 -30.5zM402 481v7q0 42 -27.5 72.5t-70.5 30.5
t-70.5 -30.5t-27.5 -72.5v-204z" />
    <glyph glyph-name="one" unicode="1" 
d="M569 0h-496v119h182v408l-96 -96l-86 87l182 182h132v-581h182v-119z" />
    <glyph glyph-name="two" unicode="2" 
d="M236 416l-95 -90q-65 64 -65 154q0 95 67.5 162.5t162.5 67.5q94 0 162 -65.5t68 -154.5q0 -61 -23 -104.5t-78 -97.5l-170 -169h271v-119h-460v119l275 268q53 51 53 108q0 38 -27 67t-71 29t-71 -30.5t-27 -75.5q0 -37 28 -69z" />
    <glyph glyph-name="three" unicode="3" 
d="M525 220q0 -98 -60 -164t-160 -66q-108 0 -174 66t-66 164h132q0 -46 26 -78.5t72 -32.5t72 32.5t26 78.5q0 42 -27.5 74.5t-70.5 32.5v119h3q27 1 43.5 21.5t16.5 47.5q0 32 -16 54t-47 22t-47 -22t-16 -54h-132q0 81 57 138t138 57t138 -57t57 -138q0 -71 -46 -123
q81 -68 81 -172z" />
    <glyph glyph-name="four" unicode="4" 
d="M344 705l104 -76l-252 -351h144v141h132v-141h73v-119h-73v-159h-132v159h-302v119z" />
    <glyph glyph-name="five" unicode="5" 
d="M217 284l-137 92l71 324h334v-119h-228l-32 -145q35 22 86 22q89 0 154.5 -68t65.5 -162v-8q0 -98 -60 -164t-160 -66q-108 0 -174 66t-66 164h132q0 -49 27 -80t71 -31q43 0 70.5 30.5t27.5 72.5v24q0 42 -27.5 72.5t-70.5 30.5q-59 0 -84 -55z" />
    <glyph glyph-name="six" unicode="6" 
d="M460 629l-128 -175q30 -6 61 -20q58 -28 93 -83.5t35 -122.5v-8q0 -95 -67.5 -162.5t-162.5 -67.5t-162.5 67.5t-67.5 162.5v8q0 76 52 146l243 331zM389 212v24q0 42 -27.5 72.5t-70.5 30.5t-70.5 -30.5t-27.5 -72.5v-24q0 -42 27.5 -72.5t70.5 -30.5t70.5 30.5
t27.5 72.5z" />
    <glyph glyph-name="seven" unicode="7" 
d="M77 700h454v-119l-220 -586l-120 45l203 541h-185v-111h-132v230z" />
    <glyph glyph-name="eight" unicode="8" 
d="M78 216q0 108 85 177q-48 53 -48 127q0 79 55 134.5t134 55.5t134.5 -55.5t55.5 -134.5q0 -72 -49 -128q85 -67 85 -176q0 -94 -66 -160t-160 -66t-160 66t-66 160zM402 220q0 46 -27 78.5t-71 32.5t-71 -32.5t-27 -78.5t27 -78.5t71 -32.5t71 32.5t27 78.5zM240 516
q0 -30 16.5 -52t47.5 -22t48 22t17 52t-17 52.5t-48 22.5t-47.5 -22t-16.5 -53z" />
    <glyph glyph-name="nine" unicode="9" 
d="M148 71l128 175q-30 6 -61 20q-58 28 -93 83.5t-35 122.5v8q0 95 67.5 162.5t162.5 67.5t162.5 -67.5t67.5 -162.5v-8q0 -76 -52 -146l-243 -331zM219 488v-24q0 -42 27.5 -72.5t70.5 -30.5t70.5 30.5t27.5 72.5v24q0 42 -27.5 72.5t-70.5 30.5t-70.5 -30.5t-27.5 -72.5z
" />
    <glyph glyph-name="colon" unicode=":" 
d="M224 308v160h160v-160h-160zM224 0v160h160v-160h-160z" />
    <glyph glyph-name="semicolon" unicode=";" 
d="M180 -166l-85 85l204 203l85 -85zM224 308v160h160v-160h-160z" />
    <glyph glyph-name="less" unicode="&#x3c;" 
d="M449 499l-239 -239l239 -239l-32 -31l-270 270l270 270z" />
    <glyph glyph-name="equal" unicode="=" 
d="M502 155h-396v45h396v-45zM502 350h-396v45h396v-45z" />
    <glyph glyph-name="greater" unicode="&#x3e;" 
d="M398 260l-239 239l32 31l270 -270l-270 -270l-32 31z" />
    <glyph glyph-name="question" unicode="?" 
d="M229 395h66q41 0 69.5 28.5t28.5 69.5t-28.5 69.5t-69.5 28.5t-69.5 -28.5t-28.5 -69.5h-132q0 94 66.5 155.5t163.5 61.5t163.5 -61.5t66.5 -155.5q0 -77 -45.5 -133.5t-118.5 -75.5v-54h-132v165zM218 0v160h160v-160h-160z" />
    <glyph glyph-name="at" unicode="@" 
d="M130 150v12q0 76 43.5 118t126.5 42h37v46q0 43 -38 43q-37 0 -37 -43v-14h-132v16q0 76 43.5 118t126.5 42q82 0 125.5 -42t43.5 -118v-308q0 -30 28 -30t28 30v389q0 98 -58.5 157.5t-162.5 59.5t-162.5 -59.5t-58.5 -157.5v-381q0 -98 58.5 -157.5t162.5 -59.5v-42
q-124 0 -194 70.5t-70 188.5v381q0 118 70 188.5t194 70.5t194 -70.5t70 -188.5v-390q0 -32 -18 -51.5t-53 -19.5q-31 0 -48.5 17t-20.5 43q-50 -60 -128 -60q-83 0 -126.5 42t-43.5 118zM337 152v61h-38q-37 0 -37 -43v-18q0 -43 37 -43q38 0 38 43z" />
    <glyph glyph-name="A" unicode="A" 
d="M382 268l-78 227l-78 -227h156zM428 141h-248l-50 -141h-140l250 700h128l250 -700h-140z" />
    <glyph glyph-name="B" unicode="B" 
d="M52 0v700h290q105 0 163 -54.5t58 -146.5q0 -93 -63 -141q80 -60 80 -153q0 -95 -58 -150t-164 -55h-306zM186 133h176q84 0 84 77q0 37 -22.5 57t-61.5 20h-176v-154zM429 494q0 36 -22.5 54.5t-61.5 18.5h-159v-147h159q39 0 61.5 19.5t22.5 54.5z" />
    <glyph glyph-name="C" unicode="C" 
d="M438 234h135q-5 -112 -74.5 -178t-189.5 -66q-124 0 -194 70.5t-70 188.5v202q0 118 70 188.5t194 70.5q120 0 189.5 -66t74.5 -178h-135q-5 52 -41 81.5t-88 29.5q-57 0 -93.5 -33.5t-36.5 -92.5v-202q0 -59 36.5 -92.5t93.5 -33.5q53 0 88.5 29t40.5 82z" />
    <glyph glyph-name="D" unicode="D" 
d="M308 0h-264v700h264q124 0 194 -70.5t70 -188.5v-182q0 -118 -70 -188.5t-194 -70.5zM438 259v182q0 59 -36.5 92.5t-93.5 33.5h-130v-434h130q57 0 93.5 33.5t36.5 92.5z" />
    <glyph glyph-name="E" unicode="E" 
d="M236 567v-147h222v-133h-222v-154h292v-133h-426v700h426v-133h-292z" />
    <glyph glyph-name="F" unicode="F" 
d="M254 567v-147h222v-133h-222v-287h-134v700h426v-133h-292z" />
    <glyph glyph-name="G" unicode="G" 
d="M306 267v133h264v-151q0 -118 -70 -188.5t-194 -70.5t-194 70.5t-70 188.5v202q0 118 70 188.5t194 70.5q117 0 186 -62.5t77 -168.5h-135q-9 46 -44 72t-84 26q-57 0 -93.5 -33.5t-36.5 -92.5v-202q0 -59 36.5 -92.5t93.5 -33.5t93.5 33.5t36.5 92.5v18h-130z" />
    <glyph glyph-name="H" unicode="H" 
d="M434 420v280h134v-700h-134v287h-260v-287h-134v700h134v-280h260z" />
    <glyph glyph-name="I" unicode="I" 
d="M517 0h-426v133h146v434h-146v133h426v-133h-146v-434h146v-133z" />
    <glyph glyph-name="J" unicode="J" 
d="M421 567h-292v133h426v-451q0 -118 -70 -188.5t-194 -70.5q-111 0 -179 56.5t-82 153.5h139q13 -37 45.5 -57t76.5 -20q57 0 93.5 33.5t36.5 92.5v318z" />
    <glyph glyph-name="K" unicode="K" 
d="M176 198v-198h-136v700h136v-302l257 302h171l-246 -289l271 -411h-164l-199 303z" />
    <glyph glyph-name="L" unicode="L" 
d="M243 700v-567h292v-133h-426v700h134z" />
    <glyph glyph-name="M" unicode="M" 
d="M348 188h-88l-91 261v-449h-129v700h138l126 -359l126 359h138v-700h-129v449z" />
    <glyph glyph-name="N" unicode="N" 
d="M568 700v-700h-134l-260 451v-451h-134v700h134l260 -451v451h134z" />
    <glyph glyph-name="O" unicode="O" 
d="M568 249q0 -118 -70 -188.5t-194 -70.5t-194 70.5t-70 188.5v202q0 118 70 188.5t194 70.5t194 -70.5t70 -188.5v-202zM434 249v202q0 59 -36.5 92.5t-93.5 33.5t-93.5 -33.5t-36.5 -92.5v-202q0 -59 36.5 -92.5t93.5 -33.5t93.5 33.5t36.5 92.5z" />
    <glyph glyph-name="P" unicode="P" 
d="M198 348h152q52 0 80 32.5t28 77.5q0 44 -28 76.5t-80 32.5h-152v-219zM198 215v-215h-134v700h286q118 0 180 -69.5t62 -172.5t-62 -173t-180 -70h-152z" />
    <glyph glyph-name="Q" unicode="Q" 
d="M568 249q0 -89 -39 -150l54 -55l-91 -89l-59 61q-55 -26 -129 -26q-124 0 -194 70.5t-70 188.5v202q0 118 70 188.5t194 70.5t194 -70.5t70 -188.5v-202zM434 249v202q0 59 -36.5 92.5t-93.5 33.5q-52 0 -88 -29t-41 -80l252 -263q7 23 7 44zM304 123q9 0 25 2l-155 161
v-37q0 -59 36.5 -92.5t93.5 -33.5z" />
    <glyph glyph-name="R" unicode="R" 
d="M276 288h-82v-288h-134v700h295q105 0 163 -55t58 -151q0 -78 -39 -130t-112 -69l174 -295h-154zM442 492q0 36 -22.5 55.5t-61.5 19.5h-164v-149h164q39 0 61.5 19.5t22.5 54.5z" />
    <glyph glyph-name="S" unicode="S" 
d="M310 -10q-114 0 -184 63t-75 168h138q6 -45 38.5 -71.5t82.5 -26.5q46 0 73 17.5t27 52.5q0 55 -72 74l-118 32q-79 21 -119.5 75t-40.5 132q0 99 66.5 151.5t165.5 52.5q103 0 166.5 -55t75.5 -146h-149q-9 33 -37 50.5t-63 17.5q-41 0 -66 -18t-25 -53q0 -51 70 -69
l114 -31q166 -45 166 -213q0 -96 -60.5 -149.5t-173.5 -53.5z" />
    <glyph glyph-name="T" unicode="T" 
d="M568 567h-195v-567h-138v567h-195v133h528v-133z" />
    <glyph glyph-name="U" unicode="U" 
d="M434 700h134v-451q0 -118 -70 -188.5t-194 -70.5t-194 70.5t-70 188.5v451h134v-451q0 -59 36.5 -92.5t93.5 -33.5t93.5 33.5t36.5 92.5v451z" />
    <glyph glyph-name="V" unicode="V" 
d="M304 213l174 487h141l-250 -700h-130l-250 700h141z" />
    <glyph glyph-name="W" unicode="W" 
d="M348 600l57 -400l58 500h135l-100 -700h-134l-60 420l-60 -420h-134l-100 700h135l58 -500l57 400h88z" />
    <glyph glyph-name="X" unicode="X" 
d="M459 0l-155 246l-155 -246h-153l232 362l-217 338h153l140 -220l140 220h153l-217 -338l232 -362h-153z" />
    <glyph glyph-name="Y" unicode="Y" 
d="M371 255v-255h-134v255l-248 445h152l163 -292l163 292h152z" />
    <glyph glyph-name="Z" unicode="Z" 
d="M566 0h-533v133l350 434h-345v133h523v-133l-350 -434h355v-133z" />
    <glyph glyph-name="bracketleft" unicode="[" 
d="M250 -92v792h225v-42h-182v-708h182v-42h-225z" />
    <glyph glyph-name="backslash" unicode="\" 
d="M49 679l37 26l472 -684l-37 -26z" />
    <glyph glyph-name="bracketright" unicode="]" 
d="M358 700v-792h-225v42h182v708h-182v42h225z" />
    <glyph glyph-name="asciicircum" unicode="^" 
d="M543 403l-239 239l-239 -239l-31 32l270 270l270 -270z" />
    <glyph glyph-name="underscore" unicode="_" 
d="M502 -114h-396v45h396v-45z" />
    <glyph glyph-name="grave" unicode="`" 
d="M431 584l-267 73l13 48l267 -73z" />
    <glyph glyph-name="a" unicode="a" 
d="M395 335q-3 18 -12 33q-25 43 -84 43q-70 0 -91 -57h-133q16 83 73.5 129.5t150.5 46.5q109 0 169.5 -64t60.5 -173v-293h-132v59q-42 -69 -144 -69q-88 0 -138 41t-50 112q0 57 22.5 93t75.5 61q51 24 232 38zM225 202q-28 -14 -28 -44q0 -22 18.5 -37t59.5 -15
q53 0 87.5 28t34.5 75v17q-144 -10 -172 -24z" />
    <glyph glyph-name="b" unicode="b" 
d="M210 49v-49h-132v700h132v-229q17 26 51.5 42.5t69.5 16.5q85 0 146 -58t61 -166v-92q0 -108 -61 -166t-146 -58q-35 0 -69.5 16.5t-51.5 42.5zM406 219v82q0 49 -28.5 74.5t-69.5 25.5t-69.5 -25.5t-28.5 -74.5v-82q0 -49 28.5 -74.5t69.5 -25.5t69.5 25.5t28.5 74.5z
" />
    <glyph glyph-name="c" unicode="c" 
d="M405 188h132q-11 -92 -70 -145t-158 -53q-109 0 -169.5 64t-60.5 173v66q0 109 60.5 173t169.5 64q99 0 158 -53t70 -145h-132q-6 37 -31 58t-65 21q-47 0 -72.5 -27.5t-25.5 -73.5v-100q0 -46 25.5 -73.5t72.5 -27.5q41 0 66 21t30 58z" />
    <glyph glyph-name="d" unicode="d" 
d="M398 49q-17 -26 -51.5 -42.5t-69.5 -16.5q-85 0 -146 58t-61 166v92q0 108 61 166t146 58q35 0 69.5 -16.5t51.5 -42.5v229h132v-700h-132v49zM202 301v-82q0 -49 28.5 -74.5t69.5 -25.5t69.5 25.5t28.5 74.5v82q0 49 -28.5 74.5t-69.5 25.5t-69.5 -25.5t-28.5 -74.5z
" />
    <glyph glyph-name="e" unicode="e" 
d="M535 213h-328v-3q0 -46 25.5 -73.5t72.5 -27.5q70 0 91 57h134q-16 -83 -74 -129.5t-151 -46.5q-109 0 -169.5 64t-60.5 173v66q0 109 60.5 173t169.5 64t169.5 -64t60.5 -173v-80zM305 411q-43 0 -68.5 -24t-29.5 -64v-1h195v1q-3 41 -28 64.5t-69 23.5z" />
    <glyph glyph-name="f" unicode="f" 
d="M544 581h-179q-22 0 -30 -10.5t-8 -30.5v-24h217v-119h-217v-397h-132v397h-147v119h147v52q0 132 132 132h217v-119z" />
    <glyph glyph-name="g" unicode="g" 
d="M73 -3h132q16 -72 95 -72q47 0 72.5 27.5t25.5 73.5v60q-17 -26 -51.5 -42.5t-69.5 -16.5q-85 0 -146 58t-61 166v55q0 108 61 166t146 58q35 0 69.5 -16.5t51.5 -42.5v45h132v-473q0 -109 -60.5 -173t-169.5 -64q-97 0 -156 51t-71 140zM202 301v-45q0 -49 28.5 -74.5
t69.5 -25.5t69.5 25.5t28.5 74.5v45q0 49 -28.5 74.5t-69.5 25.5t-69.5 -25.5t-28.5 -74.5z" />
    <glyph glyph-name="h" unicode="h" 
d="M536 306v-306h-132v301q0 49 -28.5 74.5t-69.5 25.5t-69.5 -25.5t-28.5 -74.5v-301h-132v700h132v-229q17 26 51.5 42.5t69.5 16.5q85 0 146 -58t61 -166z" />
    <glyph glyph-name="i" unicode="i" 
d="M555 0h-496v119h182v278h-132v119h264v-397h182v-119zM236 553v147h147v-147h-147z" />
    <glyph glyph-name="j" unicode="j" 
d="M40 -65h229q22 0 30 10.5t8 30.5v421h-217v119h349v-568q0 -132 -132 -132h-267v119zM292 553v147h147v-147h-147z" />
    <glyph glyph-name="k" unicode="k" 
d="M223 700v-364l165 180h160l-187 -203l214 -313h-155l-148 216l-49 -54v-162h-132v700h132z" />
    <glyph glyph-name="l" unicode="l" 
d="M553 0h-496v119h182v462h-132v119h264v-581h182v-119z" />
    <glyph glyph-name="m" unicode="m" 
d="M369 366v-366h-126v366q0 17 -10.5 26t-24.5 9t-24.5 -9t-10.5 -26v-366h-126v516h126v-23q22 32 68 32q50 0 75 -33q31 38 94 38q80 0 117.5 -47t37.5 -122v-361h-126v366q0 17 -10.5 26t-24.5 9t-24.5 -9t-10.5 -26z" />
    <glyph glyph-name="n" unicode="n" 
d="M536 306v-306h-132v301q0 49 -28.5 74.5t-69.5 25.5t-69.5 -25.5t-28.5 -74.5v-301h-132v516h132v-45q17 26 51.5 42.5t69.5 16.5q85 0 146 -58t61 -166z" />
    <glyph glyph-name="o" unicode="o" 
d="M74 227v66q0 109 60.5 173t169.5 64t169.5 -64t60.5 -173v-66q0 -109 -60.5 -173t-169.5 -64t-169.5 64t-60.5 173zM402 210v100q0 46 -25.5 73.5t-72.5 27.5t-72.5 -27.5t-25.5 -73.5v-100q0 -46 25.5 -73.5t72.5 -27.5t72.5 27.5t25.5 73.5z" />
    <glyph glyph-name="p" unicode="p" 
d="M210 49v-233h-132v700h132v-45q17 26 51.5 42.5t69.5 16.5q85 0 146 -58t61 -166v-92q0 -108 -61 -166t-146 -58q-35 0 -69.5 16.5t-51.5 42.5zM406 219v82q0 49 -28.5 74.5t-69.5 25.5t-69.5 -25.5t-28.5 -74.5v-82q0 -49 28.5 -74.5t69.5 -25.5t69.5 25.5t28.5 74.5z
" />
    <glyph glyph-name="q" unicode="q" 
d="M398 49q-17 -26 -51.5 -42.5t-69.5 -16.5q-85 0 -146 58t-61 166v92q0 108 61 166t146 58q35 0 69.5 -16.5t51.5 -42.5v45h132v-700h-132v233zM202 301v-82q0 -49 28.5 -74.5t69.5 -25.5t69.5 25.5t28.5 74.5v82q0 49 -28.5 74.5t-69.5 25.5t-69.5 -25.5t-28.5 -74.5z
" />
    <glyph glyph-name="r" unicode="r" 
d="M501 0h-469v119h163v278h-113v119h245v-56q12 27 44 46t76 19h104v-119h-126q-41 0 -69.5 -25.5t-28.5 -74.5v-187h174v-119z" />
    <glyph glyph-name="s" unicode="s" 
d="M316 -10q-88 0 -154 45.5t-70 131.5h132q4 -28 32 -43t64 -15q65 0 65 40q0 30 -46 40l-108 24q-51 12 -89 50.5t-38 107.5q0 73 57 116t140 43q84 0 139 -41.5t61 -125.5h-135q-10 48 -69 48t-61 -39q0 -29 40 -38l116 -26q52 -12 88.5 -49.5t36.5 -109.5
q0 -81 -56.5 -120t-144.5 -39z" />
    <glyph glyph-name="t" unicode="t" 
d="M360 119h179v-119h-217q-132 0 -132 132v265h-147v119h147v117h132v-117h217v-119h-217v-237q0 -20 8 -30.5t30 -10.5z" />
    <glyph glyph-name="u" unicode="u" 
d="M302 119q39 0 67 25.5t28 74.5v297h132v-516h-132v56q-41 -66 -125 -66q-80 0 -138.5 57.5t-58.5 166.5v302h132v-297q0 -49 28 -74.5t67 -25.5z" />
    <glyph glyph-name="v" unicode="v" 
d="M304 187l115 329h139l-186 -516h-136l-186 516h139z" />
    <glyph glyph-name="w" unicode="w" 
d="M340 436l45 -282l38 362h135l-83 -516h-123l-48 286l-48 -286h-123l-83 516h135l38 -362l45 282h72z" />
    <glyph glyph-name="x" unicode="x" 
d="M304 370l95 146h150l-167 -251l175 -265h-151l-102 158l-102 -158h-151l175 265l-167 251h150z" />
    <glyph glyph-name="y" unicode="y" 
d="M558 516l-203 -565q-3 -8 -9.5 -27.5t-9.5 -27t-9.5 -22t-11.5 -20.5t-14 -15.5t-19 -13t-24 -6.5t-31 -3h-110v119h67q27 0 35 23l15 42l-184 516h139l115 -329l115 329h139z" />
    <glyph glyph-name="z" unicode="z" 
d="M492 397l-222 -278h229v-119h-395v119l222 278h-215v119h381v-119z" />
    <glyph glyph-name="braceleft" unicode="{" 
d="M186 283h-10v42h10q38 0 51 14t13 47v211q0 53 23 78t84 25h118v-42h-118q-38 0 -51 -14t-13 -47v-211q0 -62 -34 -82q34 -22 34 -82v-211q0 -33 13 -47t51 -14h118v-42h-118q-61 0 -84 25t-23 78v211q0 33 -13 47t-51 14z" />
    <glyph glyph-name="bar" unicode="|" 
d="M282 -100v800h43v-800h-43z" />
    <glyph glyph-name="braceright" unicode="}" 
d="M432 283h-10q-38 0 -51 -14t-13 -47v-211q0 -53 -23 -78t-84 -25h-118v42h118q38 0 51 14t13 47v211q0 60 34 82q-34 20 -34 82v211q0 33 -13 47t-51 14h-118v42h118q61 0 84 -25t23 -78v-211q0 -33 13 -47t51 -14h10v-42z" />
    <glyph glyph-name="asciitilde" unicode="~" 
d="M513 304l-159 -86l-102 73l-135 -73l-21 38l159 86l102 -73l135 73z" />
    <glyph glyph-name="uni00A0" unicode="&#xa0;" 
 />
    <glyph glyph-name="exclamdown" unicode="&#xa1;" 
d="M370 286v-470h-132v470h132zM224 356v160h160v-160h-160z" />
    <glyph glyph-name="cent" unicode="&#xa2;" 
d="M287 484v136h43v-136h-43zM287 -100v140h43v-140h-43zM405 188h132q-11 -92 -70 -145t-158 -53q-109 0 -169.5 64t-60.5 173v66q0 109 60.5 173t169.5 64q99 0 158 -53t70 -145h-132q-6 37 -31 58t-65 21q-47 0 -72.5 -27.5t-25.5 -73.5v-100q0 -46 25.5 -73.5
t72.5 -27.5q41 0 66 21t30 58z" />
    <glyph glyph-name="sterling" unicode="&#xa3;" 
d="M45 372h64v101q0 109 60.5 173t169.5 64q107 0 167.5 -62t62.5 -167h-132v9q0 46 -25.5 73.5t-72.5 27.5t-72.5 -27.5t-25.5 -73.5v-118h196v-43h-196v-210h328v-119h-524v119h64v210h-64v43z" />
    <glyph glyph-name="currency" unicode="&#xa4;" 
d="M563 50l-84 84q-75 -64 -175 -64t-175 64l-84 -84l-31 30l84 85q-64 75 -64 175t64 175l-84 85l31 30l84 -85q75 65 175 65t175 -65l84 85l31 -30l-85 -85q65 -75 65 -175t-65 -175l85 -85zM153 340q0 -62 44.5 -106.5t106.5 -44.5t106.5 44.5t44.5 106.5t-44.5 106.5
t-106.5 44.5t-106.5 -44.5t-44.5 -106.5z" />
    <glyph glyph-name="yen" unicode="&#xa5;" 
d="M370 173h131v-43h-131v-130h-132v130h-132v43h132v82h-132v43h108l-225 402h148l167 -300l167 300h148l-225 -402h107v-43h-131v-82z" />
    <glyph glyph-name="brokenbar" unicode="&#xa6;" 
d="M283 -100v339h43v-339h-43zM283 361v339h43v-339h-43z" />
    <glyph glyph-name="section" unicode="&#xa7;" 
d="M232 122q-28 11 -45 19.5t-42 27t-37.5 47t-12.5 65.5q0 51 26.5 86t74.5 51q-68 47 -68 133q0 70 50 114.5t125 44.5q72 0 122 -43.5t60 -118.5h-45q-8 54 -45 87t-92 33q-52 0 -90.5 -32t-39.5 -85q0 -43 23.5 -72.5t63.5 -42.5l116 -40q26 -9 45 -18.5t43 -27.5
t37.5 -47.5t13.5 -66.5q0 -103 -104 -138q70 -50 70 -140q0 -67 -41.5 -109.5t-131.5 -42.5q-82 0 -130 47.5t-56 124.5h45q6 -58 45 -94t96 -36q65 0 96.5 30.5t31.5 79.5q0 44 -24 77.5t-63 46.5zM367 353l-105 35q-51 -4 -86 -28.5t-36 -78.5q0 -82 103 -116l103 -36
q52 4 88 28.5t36 78.5q0 83 -103 117z" />
    <glyph glyph-name="dieresis" unicode="&#xa8;" 
d="M148 607v76h76v-76h-76zM384 607v76h76v-76h-76z" />
    <glyph glyph-name="copyright" unicode="&#xa9;" 
d="M525 249v202q0 98 -58.5 157.5t-162.5 59.5t-162.5 -59.5t-58.5 -157.5v-202q0 -98 58.5 -157.5t162.5 -59.5t162.5 59.5t58.5 157.5zM568 451v-202q0 -118 -70 -188.5t-194 -70.5t-194 70.5t-70 188.5v202q0 118 70 188.5t194 70.5t194 -70.5t70 -188.5zM304 168
q-71 0 -108.5 37.5t-37.5 99.5v86q0 62 37.5 99t108.5 37q70 0 107.5 -36t39.5 -97h-94q-2 18 -16.5 29.5t-36.5 11.5q-23 0 -38 -12.5t-15 -31.5v-86q0 -20 15 -32.5t38 -12.5q22 0 36.5 11t16.5 30h94q-2 -61 -39.5 -97t-107.5 -36z" />
    <glyph glyph-name="ordfeminine" unicode="&#xaa;" 
d="M264 294q-73 0 -111.5 32t-38.5 86q0 77 59 112q13 7 29 13t29.5 9.5t35 6.5t33 4t36.5 3t33 3q-3 16 -12 26q-20 23 -57 23q-48 0 -65 -38h-112q32 137 177 137q95 0 139 -54.5t44 -137.5v-217h-112v49q-29 -57 -107 -57zM283 389q40 0 64 22.5t24 52.5v9
q-99 -6 -122 -15t-23 -32q0 -13 13 -25t44 -12zM483 207h-369v45h369v-45z" />
    <glyph glyph-name="guillemotleft" unicode="&#xab;" 
d="M264 46l-210 210l210 210l32 -31l-179 -179l179 -179zM489 46l-210 210l210 210l32 -31l-179 -179l179 -179z" />
    <glyph glyph-name="logicalnot" unicode="&#xac;" 
d="M106 258v45h396v-221h-45v176h-351z" />
    <glyph glyph-name="uni00AD" unicode="&#xad;" 
d="M449 258h-290v45h290v-45z" />
    <glyph glyph-name="registered" unicode="&#xae;" 
d="M568 451v-202q0 -118 -70 -188.5t-194 -70.5t-194 70.5t-70 188.5v202q0 118 70 188.5t194 70.5t194 -70.5t70 -188.5zM525 249v202q0 98 -58.5 157.5t-162.5 59.5t-162.5 -59.5t-58.5 -157.5v-202q0 -98 58.5 -157.5t162.5 -59.5t162.5 59.5t58.5 157.5zM467 173h-107
l-76 130h-21v-130h-93v349h166q59 0 89.5 -28.5t30.5 -80.5q0 -82 -70 -103zM263 430v-36h75q25 0 25 18t-25 18h-75z" />
    <glyph glyph-name="macron" unicode="&#xaf;" 
d="M460 620h-312v50h312v-50z" />
    <glyph glyph-name="degree" unicode="&#xb0;" 
d="M148 549q0 65 46 110.5t110 45.5t110 -45.5t46 -110.5t-46 -110.5t-110 -45.5t-110 45.5t-46 110.5zM191 549q0 -47 33 -80.5t80 -33.5t80 33.5t33 80.5t-33 80.5t-80 33.5t-80 -33.5t-33 -80.5z" />
    <glyph glyph-name="plusminus" unicode="&#xb1;" 
d="M282 229v121h-176v45h176v121h45v-121h175v-45h-175v-121h-45zM502 155h-396v45h396v-45z" />
    <glyph glyph-name="twosuperior" unicode="&#xb2;" 
d="M267 645l-69 -62q-34 38 -34 88q0 59 41 100.5t100 41.5t100.5 -41.5t41.5 -100.5q0 -36 -13.5 -58.5t-50.5 -55.5l-83 -73h147v-83h-283v83l161 144q29 26 29 48q0 24 -12.5 39t-36.5 15q-23 0 -35.5 -15t-12.5 -39q0 -13 10 -31z" />
    <glyph glyph-name="threesuperior" unicode="&#xb3;" 
d="M308 395q-70 0 -110 40.5t-40 101.5h93q0 -25 12 -42t36 -17q25 0 37 17t12 42q0 21 -13.5 38t-35.5 17v83q20 0 20 25q0 30 -20 30t-20 -30h-93q0 47 33 80t80 33t80 -33t33 -80q0 -32 -18 -60q47 -41 47 -103t-35 -102t-98 -40z" />
    <glyph glyph-name="acute" unicode="&#xb4;" 
d="M444 657l-267 -73l-13 48l267 73z" />
    <glyph glyph-name="mu" unicode="&#xb5;" 
d="M304 41q60 0 100.5 41.5t40.5 109.5v324h53v-516h-53v63q-22 -35 -61.5 -54t-79.5 -19t-79.5 19t-61.5 54v-247h-53v700h53v-324q0 -68 40.5 -109.5t100.5 -41.5z" />
    <glyph glyph-name="mu" unicode="&#x3bc;" 
d="M304 41q60 0 100.5 41.5t40.5 109.5v324h53v-516h-53v63q-22 -35 -61.5 -54t-79.5 -19t-79.5 19t-61.5 54v-247h-53v700h53v-324q0 -68 40.5 -109.5t100.5 -41.5z" />
    <glyph glyph-name="paragraph" unicode="&#xb6;" 
d="M515 700v-787h-43v745h-155v-745h-43v387h-10q-82 0 -140.5 58.5t-58.5 141.5q0 82 58.5 141t140.5 59h251z" />
    <glyph glyph-name="periodcentered" unicode="&#xb7;" 
d="M224 205v160h160v-160h-160z" />
    <glyph glyph-name="cedilla" unicode="&#xb8;" 
d="M215 -134h84v84h50v-134h-134v50z" />
    <glyph glyph-name="onesuperior" unicode="&#xb9;" 
d="M219 632l-63 63l112 112h93v-323h105v-83h-304v83h106v197z" />
    <glyph glyph-name="ordmasculine" unicode="&#xba;" 
d="M304 393q35 0 53 20t18 52v74q0 32 -18 52.5t-53 20.5q-34 0 -52.5 -20.5t-18.5 -52.5v-74q0 -31 18.5 -51.5t52.5 -20.5zM304 294q-95 0 -139 54.5t-44 137.5v33q0 83 44 137.5t139 54.5t139 -54.5t44 -137.5v-33q0 -83 -44 -137.5t-139 -54.5zM487 207h-366v45h366v-45
z" />
    <glyph glyph-name="guillemotright" unicode="&#xbb;" 
d="M329 256l-210 -210l-32 31l179 179l-179 179l32 31zM554 256l-210 -210l-32 31l179 179l-179 179l32 31z" />
    <glyph glyph-name="onequarter" unicode="&#xbc;" 
d="M69 606l-29 29l65 65h42v-221h67v-40h-177v40h68v164zM71 150l434 435l32 -32l-434 -435zM519 0h-42v63h-115v40l116 160l33 -24l-99 -136h65v53h42v-53h27v-40h-27v-63z" />
    <glyph glyph-name="onehalf" unicode="&#xbd;" 
d="M69 606l-29 29l65 65h42v-221h67v-40h-177v40h68v164zM71 150l434 435l32 -32l-434 -435zM432 154l-29 -29q-25 23 -25 59q0 34 23.5 57.5t57.5 23.5t57.5 -23.5t23.5 -57.5q0 -36 -35 -72l-70 -72h105v-40h-162v40l96 99q24 24 24 45q0 17 -10.5 28.5t-28.5 11.5
q-17 0 -28 -11.5t-11 -28.5q0 -18 12 -30z" />
    <glyph glyph-name="threequarters" unicode="&#xbe;" 
d="M134 558v38h3q12 1 20.5 11t8.5 23q0 14 -9 23.5t-23 9.5t-23 -9.5t-9 -23.5h-42q0 31 21.5 52.5t52.5 21.5t52.5 -21.5t21.5 -52.5q0 -30 -22 -52q29 -24 29 -62q0 -34 -23.5 -57.5t-57.5 -23.5t-57.5 23.5t-23.5 57.5h42q0 -17 11 -28.5t28 -11.5t28 11.5t11 28.5
t-10 29t-26 13h-3zM71 150l434 435l32 -32l-434 -435zM519 0h-42v63h-115v40l116 160l33 -24l-99 -136h65v53h42v-53h27v-40h-27v-63z" />
    <glyph glyph-name="questiondown" unicode="&#xbf;" 
d="M379 121h-70q-39 -1 -66.5 -30t-27.5 -68q0 -41 28.5 -69.5t69.5 -28.5t69.5 28.5t28.5 69.5h132q0 -94 -66.5 -155.5t-163.5 -61.5t-163.5 61.5t-66.5 155.5q0 77 45.5 133t118.5 75v55h132v-165zM236 356v160h160v-160h-160z" />
    <glyph glyph-name="Agrave" unicode="&#xc0;" 
d="M382 268l-78 227l-78 -227h156zM428 141h-248l-50 -141h-140l250 700h128l250 -700h-140zM431 738l-267 73l13 48l267 -73z" />
    <glyph glyph-name="Aacute" unicode="&#xc1;" 
d="M382 268l-78 227l-78 -227h156zM428 141h-248l-50 -141h-140l250 700h128l250 -700h-140zM444 811l-267 -73l-13 48l267 73z" />
    <glyph glyph-name="Acircumflex" unicode="&#xc2;" 
d="M382 268l-78 227l-78 -227h156zM428 141h-248l-50 -141h-140l250 700h128l250 -700h-140zM445 738l-141 67l-141 -67l-21 44l162 77l162 -77z" />
    <glyph glyph-name="Atilde" unicode="&#xc3;" 
d="M382 268l-78 227l-78 -227h156zM428 141h-248l-50 -141h-140l250 700h128l250 -700h-140zM475 813l-133 -71l-79 57l-107 -57l-23 43l133 71l79 -57l107 57z" />
    <glyph glyph-name="Adieresis" unicode="&#xc4;" 
d="M382 268l-78 227l-78 -227h156zM428 141h-248l-50 -141h-140l250 700h128l250 -700h-140zM148 761v76h76v-76h-76zM384 761v76h76v-76h-76z" />
    <glyph glyph-name="Aring" unicode="&#xc5;" 
d="M190 765q0 47 33.5 81t80.5 34t81 -34t34 -81q0 -54 -43 -89l242 -676h-140l-50 141h-248l-50 -141h-140l241 676q-41 34 -41 89zM382 268l-78 227l-78 -227h156zM239 765q0 -27 19 -46t46 -19t46.5 19t19.5 46t-19.5 46.5t-46.5 19.5t-46 -19.5t-19 -46.5z" />
    <glyph glyph-name="AE" unicode="&#xc6;" 
d="M422 567v-147h76v-133h-76v-154h146v-133h-280v141h-108l-50 -141h-141l250 700h329v-133h-146zM226 268h62v174z" />
    <glyph glyph-name="Ccedilla" unicode="&#xc7;" 
d="M438 234h135q-5 -112 -74.5 -178t-189.5 -66q-124 0 -194 70.5t-70 188.5v202q0 118 70 188.5t194 70.5q120 0 189.5 -66t74.5 -178h-135q-5 52 -41 81.5t-88 29.5q-57 0 -93.5 -33.5t-36.5 -92.5v-202q0 -59 36.5 -92.5t93.5 -33.5q53 0 88.5 29t40.5 82zM200 -134h84
v84h50v-134h-134v50z" />
    <glyph glyph-name="Egrave" unicode="&#xc8;" 
d="M236 567v-147h222v-133h-222v-154h292v-133h-426v700h426v-133h-292zM442 738l-267 73l13 48l267 -73z" />
    <glyph glyph-name="Eacute" unicode="&#xc9;" 
d="M236 567v-147h222v-133h-222v-154h292v-133h-426v700h426v-133h-292zM455 811l-267 -73l-13 48l267 73z" />
    <glyph glyph-name="Ecircumflex" unicode="&#xca;" 
d="M236 567v-147h222v-133h-222v-154h292v-133h-426v700h426v-133h-292zM456 738l-141 67l-141 -67l-21 44l162 77l162 -77z" />
    <glyph glyph-name="Edieresis" unicode="&#xcb;" 
d="M236 567v-147h222v-133h-222v-154h292v-133h-426v700h426v-133h-292zM159 761v76h76v-76h-76zM395 761v76h76v-76h-76z" />
    <glyph glyph-name="Igrave" unicode="&#xcc;" 
d="M517 0h-426v133h146v434h-146v133h426v-133h-146v-434h146v-133zM431 738l-267 73l13 48l267 -73z" />
    <glyph glyph-name="Iacute" unicode="&#xcd;" 
d="M517 0h-426v133h146v434h-146v133h426v-133h-146v-434h146v-133zM444 811l-267 -73l-13 48l267 73z" />
    <glyph glyph-name="Icircumflex" unicode="&#xce;" 
d="M517 0h-426v133h146v434h-146v133h426v-133h-146v-434h146v-133zM445 738l-141 67l-141 -67l-21 44l162 77l162 -77z" />
    <glyph glyph-name="Idieresis" unicode="&#xcf;" 
d="M517 0h-426v133h146v434h-146v133h426v-133h-146v-434h146v-133zM148 761v76h76v-76h-76zM384 761v76h76v-76h-76z" />
    <glyph glyph-name="Eth" unicode="&#xd0;" 
d="M322 0h-264v328h-70v45h70v327h264q124 0 194 -70.5t70 -188.5v-182q0 -118 -70 -188.5t-194 -70.5zM452 259v182q0 59 -36.5 92.5t-93.5 33.5h-130v-194h130v-45h-130v-195h130q57 0 93.5 33.5t36.5 92.5z" />
    <glyph glyph-name="Ntilde" unicode="&#xd1;" 
d="M568 700v-700h-134l-260 451v-451h-134v700h134l260 -451v451h134zM475 813l-133 -71l-79 57l-107 -57l-23 43l133 71l79 -57l107 57z" />
    <glyph glyph-name="Ograve" unicode="&#xd2;" 
d="M568 249q0 -118 -70 -188.5t-194 -70.5t-194 70.5t-70 188.5v202q0 118 70 188.5t194 70.5t194 -70.5t70 -188.5v-202zM434 249v202q0 59 -36.5 92.5t-93.5 33.5t-93.5 -33.5t-36.5 -92.5v-202q0 -59 36.5 -92.5t93.5 -33.5t93.5 33.5t36.5 92.5zM431 738l-267 73l13 48
l267 -73z" />
    <glyph glyph-name="Oacute" unicode="&#xd3;" 
d="M568 249q0 -118 -70 -188.5t-194 -70.5t-194 70.5t-70 188.5v202q0 118 70 188.5t194 70.5t194 -70.5t70 -188.5v-202zM434 249v202q0 59 -36.5 92.5t-93.5 33.5t-93.5 -33.5t-36.5 -92.5v-202q0 -59 36.5 -92.5t93.5 -33.5t93.5 33.5t36.5 92.5zM444 811l-267 -73
l-13 48l267 73z" />
    <glyph glyph-name="Ocircumflex" unicode="&#xd4;" 
d="M568 249q0 -118 -70 -188.5t-194 -70.5t-194 70.5t-70 188.5v202q0 118 70 188.5t194 70.5t194 -70.5t70 -188.5v-202zM434 249v202q0 59 -36.5 92.5t-93.5 33.5t-93.5 -33.5t-36.5 -92.5v-202q0 -59 36.5 -92.5t93.5 -33.5t93.5 33.5t36.5 92.5zM445 738l-141 67
l-141 -67l-21 44l162 77l162 -77z" />
    <glyph glyph-name="Otilde" unicode="&#xd5;" 
d="M568 249q0 -118 -70 -188.5t-194 -70.5t-194 70.5t-70 188.5v202q0 118 70 188.5t194 70.5t194 -70.5t70 -188.5v-202zM434 249v202q0 59 -36.5 92.5t-93.5 33.5t-93.5 -33.5t-36.5 -92.5v-202q0 -59 36.5 -92.5t93.5 -33.5t93.5 33.5t36.5 92.5zM475 813l-133 -71
l-79 57l-107 -57l-23 43l133 71l79 -57l107 57z" />
    <glyph glyph-name="Odieresis" unicode="&#xd6;" 
d="M568 249q0 -118 -70 -188.5t-194 -70.5t-194 70.5t-70 188.5v202q0 118 70 188.5t194 70.5t194 -70.5t70 -188.5v-202zM434 249v202q0 59 -36.5 92.5t-93.5 33.5t-93.5 -33.5t-36.5 -92.5v-202q0 -59 36.5 -92.5t93.5 -33.5t93.5 33.5t36.5 92.5zM148 761v76h76v-76h-76z
M384 761v76h76v-76h-76z" />
    <glyph glyph-name="multiply" unicode="&#xd7;" 
d="M476 419l-140 -139l140 -139l-32 -32l-140 139l-139 -139l-32 32l139 139l-139 139l32 32l139 -139l140 139z" />
    <glyph glyph-name="Oslash" unicode="&#xd8;" 
d="M568 249q0 -118 -70 -188.5t-194 -70.5q-97 0 -164 45l-40 -68l-37 23l44 73q-67 70 -67 186v202q0 118 70 188.5t194 70.5q97 0 162 -45l41 68l37 -23l-44 -73q68 -71 68 -186v-202zM434 249v202q0 31 -11 56l-211 -352q35 -32 92 -32t93.5 33.5t36.5 92.5zM174 249
q0 -33 10 -56l211 352q-37 32 -91 32q-57 0 -93.5 -33.5t-36.5 -92.5v-202z" />
    <glyph glyph-name="Ugrave" unicode="&#xd9;" 
d="M434 700h134v-451q0 -118 -70 -188.5t-194 -70.5t-194 70.5t-70 188.5v451h134v-451q0 -59 36.5 -92.5t93.5 -33.5t93.5 33.5t36.5 92.5v451zM431 738l-267 73l13 48l267 -73z" />
    <glyph glyph-name="Uacute" unicode="&#xda;" 
d="M434 700h134v-451q0 -118 -70 -188.5t-194 -70.5t-194 70.5t-70 188.5v451h134v-451q0 -59 36.5 -92.5t93.5 -33.5t93.5 33.5t36.5 92.5v451zM444 811l-267 -73l-13 48l267 73z" />
    <glyph glyph-name="Ucircumflex" unicode="&#xdb;" 
d="M434 700h134v-451q0 -118 -70 -188.5t-194 -70.5t-194 70.5t-70 188.5v451h134v-451q0 -59 36.5 -92.5t93.5 -33.5t93.5 33.5t36.5 92.5v451zM445 738l-141 67l-141 -67l-21 44l162 77l162 -77z" />
    <glyph glyph-name="Udieresis" unicode="&#xdc;" 
d="M434 700h134v-451q0 -118 -70 -188.5t-194 -70.5t-194 70.5t-70 188.5v451h134v-451q0 -59 36.5 -92.5t93.5 -33.5t93.5 33.5t36.5 92.5v451zM148 761v76h76v-76h-76zM384 761v76h76v-76h-76z" />
    <glyph glyph-name="Yacute" unicode="&#xdd;" 
d="M371 255v-255h-134v255l-248 445h152l163 -292l163 292h152zM444 811l-267 -73l-13 48l267 73z" />
    <glyph glyph-name="Thorn" unicode="&#xde;" 
d="M198 241h152q52 0 80 32.5t28 77.5q0 44 -28 76.5t-80 32.5h-152v-219zM198 108v-108h-134v700h134v-107h152q118 0 180 -69.5t62 -172.5t-62 -173t-180 -70h-152z" />
    <glyph glyph-name="germandbls" unicode="&#xdf;" 
d="M288 -70q53 0 87.5 40t34.5 95t-34.5 95t-87.5 40v119l59 78h-123v-397h-132v568q0 132 132 132h64v-119h-26q-22 0 -30 -10.5t-8 -30.5v-24h272v-119l-84 -111q59 -33 94.5 -92t35.5 -129q0 -105 -74.5 -179.5t-179.5 -74.5v119z" />
    <glyph glyph-name="agrave" unicode="&#xe0;" 
d="M395 335q-3 18 -12 33q-25 43 -84 43q-70 0 -91 -57h-133q16 83 73.5 129.5t150.5 46.5q109 0 169.5 -64t60.5 -173v-293h-132v59q-42 -69 -144 -69q-88 0 -138 41t-50 112q0 57 22.5 93t75.5 61q51 24 232 38zM225 202q-28 -14 -28 -44q0 -22 18.5 -37t59.5 -15
q53 0 87.5 28t34.5 75v17q-144 -10 -172 -24zM434 584l-267 73l13 48l267 -73z" />
    <glyph glyph-name="aacute" unicode="&#xe1;" 
d="M395 335q-3 18 -12 33q-25 43 -84 43q-70 0 -91 -57h-133q16 83 73.5 129.5t150.5 46.5q109 0 169.5 -64t60.5 -173v-293h-132v59q-42 -69 -144 -69q-88 0 -138 41t-50 112q0 57 22.5 93t75.5 61q51 24 232 38zM225 202q-28 -14 -28 -44q0 -22 18.5 -37t59.5 -15
q53 0 87.5 28t34.5 75v17q-144 -10 -172 -24zM447 657l-267 -73l-13 48l267 73z" />
    <glyph glyph-name="acircumflex" unicode="&#xe2;" 
d="M395 335q-3 18 -12 33q-25 43 -84 43q-70 0 -91 -57h-133q16 83 73.5 129.5t150.5 46.5q109 0 169.5 -64t60.5 -173v-293h-132v59q-42 -69 -144 -69q-88 0 -138 41t-50 112q0 57 22.5 93t75.5 61q51 24 232 38zM225 202q-28 -14 -28 -44q0 -22 18.5 -37t59.5 -15
q53 0 87.5 28t34.5 75v17q-144 -10 -172 -24zM448 584l-141 67l-141 -67l-21 44l162 77l162 -77z" />
    <glyph glyph-name="atilde" unicode="&#xe3;" 
d="M395 335q-3 18 -12 33q-25 43 -84 43q-70 0 -91 -57h-133q16 83 73.5 129.5t150.5 46.5q109 0 169.5 -64t60.5 -173v-293h-132v59q-42 -69 -144 -69q-88 0 -138 41t-50 112q0 57 22.5 93t75.5 61q51 24 232 38zM225 202q-28 -14 -28 -44q0 -22 18.5 -37t59.5 -15
q53 0 87.5 28t34.5 75v17q-144 -10 -172 -24zM478 659l-133 -71l-79 57l-107 -57l-23 43l133 71l79 -57l107 57z" />
    <glyph glyph-name="adieresis" unicode="&#xe4;" 
d="M395 335q-3 18 -12 33q-25 43 -84 43q-70 0 -91 -57h-133q16 83 73.5 129.5t150.5 46.5q109 0 169.5 -64t60.5 -173v-293h-132v59q-42 -69 -144 -69q-88 0 -138 41t-50 112q0 57 22.5 93t75.5 61q51 24 232 38zM225 202q-28 -14 -28 -44q0 -22 18.5 -37t59.5 -15
q53 0 87.5 28t34.5 75v17q-144 -10 -172 -24zM151 607v76h76v-76h-76zM387 607v76h76v-76h-76z" />
    <glyph glyph-name="aring" unicode="&#xe5;" 
d="M185 595q0 47 33.5 81t80.5 34t81 -34t34 -81q0 -44 -31 -77q71 -22 108.5 -81t37.5 -144v-293h-132v59q-42 -69 -144 -69q-88 0 -138 41t-50 112q0 57 22.5 93t75.5 61q51 24 232 38q-15 76 -96 76q-70 0 -91 -57h-133q25 128 140 164q-30 32 -30 77zM225 202
q-28 -14 -28 -44q0 -22 18.5 -37t59.5 -15q53 0 87.5 28t34.5 75v17q-144 -10 -172 -24zM234 595q0 -27 19 -46.5t46 -19.5t46.5 19.5t19.5 46.5t-19.5 46.5t-46.5 19.5t-46 -19.5t-19 -46.5z" />
    <glyph glyph-name="ae" unicode="&#xe6;" 
d="M189 -10q-71 0 -115 42t-44 118v12q0 76 43.5 118t126.5 42h37v46q0 43 -38 43q-37 0 -37 -43v-14h-132v16q0 76 44 118t115 42q32 0 64.5 -12.5t49.5 -35.5q17 23 49 35.5t65 12.5q71 0 115 -42t44 -118v-157h-207v-61q0 -43 38 -43q37 0 37 43v14h132v-16
q0 -76 -44 -118t-115 -42q-33 0 -65 12.5t-49 35.5q-17 -23 -49.5 -35.5t-64.5 -12.5zM162 170v-18q0 -43 37 -43q38 0 38 43v61h-38q-37 0 -37 -43zM444 322v46q0 43 -38 43q-37 0 -37 -43v-46h75z" />
    <glyph glyph-name="ccedilla" unicode="&#xe7;" 
d="M405 188h132q-11 -92 -70 -145t-158 -53q-109 0 -169.5 64t-60.5 173v66q0 109 60.5 173t169.5 64q99 0 158 -53t70 -145h-132q-6 37 -31 58t-65 21q-47 0 -72.5 -27.5t-25.5 -73.5v-100q0 -46 25.5 -73.5t72.5 -27.5q41 0 66 21t30 58zM199 -134h84v84h50v-134h-134v50z
" />
    <glyph glyph-name="egrave" unicode="&#xe8;" 
d="M535 213h-328v-3q0 -46 25.5 -73.5t72.5 -27.5q70 0 91 57h134q-16 -83 -74 -129.5t-151 -46.5q-109 0 -169.5 64t-60.5 173v66q0 109 60.5 173t169.5 64t169.5 -64t60.5 -173v-80zM305 411q-43 0 -68.5 -24t-29.5 -64v-1h195v1q-3 41 -28 64.5t-69 23.5zM432 584
l-267 73l13 48l267 -73z" />
    <glyph glyph-name="eacute" unicode="&#xe9;" 
d="M535 213h-328v-3q0 -46 25.5 -73.5t72.5 -27.5q70 0 91 57h134q-16 -83 -74 -129.5t-151 -46.5q-109 0 -169.5 64t-60.5 173v66q0 109 60.5 173t169.5 64t169.5 -64t60.5 -173v-80zM305 411q-43 0 -68.5 -24t-29.5 -64v-1h195v1q-3 41 -28 64.5t-69 23.5zM445 657
l-267 -73l-13 48l267 73z" />
    <glyph glyph-name="ecircumflex" unicode="&#xea;" 
d="M535 213h-328v-3q0 -46 25.5 -73.5t72.5 -27.5q70 0 91 57h134q-16 -83 -74 -129.5t-151 -46.5q-109 0 -169.5 64t-60.5 173v66q0 109 60.5 173t169.5 64t169.5 -64t60.5 -173v-80zM305 411q-43 0 -68.5 -24t-29.5 -64v-1h195v1q-3 41 -28 64.5t-69 23.5zM446 584
l-141 67l-141 -67l-21 44l162 77l162 -77z" />
    <glyph glyph-name="edieresis" unicode="&#xeb;" 
d="M535 213h-328v-3q0 -46 25.5 -73.5t72.5 -27.5q70 0 91 57h134q-16 -83 -74 -129.5t-151 -46.5q-109 0 -169.5 64t-60.5 173v66q0 109 60.5 173t169.5 64t169.5 -64t60.5 -173v-80zM305 411q-43 0 -68.5 -24t-29.5 -64v-1h195v1q-3 41 -28 64.5t-69 23.5zM149 607v76h76
v-76h-76zM385 607v76h76v-76h-76z" />
    <glyph glyph-name="igrave" unicode="&#xec;" 
d="M555 0h-496v119h182v278h-132v119h264v-397h182v-119zM434 584l-267 73l13 48l267 -73z" />
    <glyph glyph-name="iacute" unicode="&#xed;" 
d="M555 0h-496v119h182v278h-132v119h264v-397h182v-119zM447 657l-267 -73l-13 48l267 73z" />
    <glyph glyph-name="icircumflex" unicode="&#xee;" 
d="M555 0h-496v119h182v278h-132v119h264v-397h182v-119zM448 584l-141 67l-141 -67l-21 44l162 77l162 -77z" />
    <glyph glyph-name="idieresis" unicode="&#xef;" 
d="M555 0h-496v119h182v278h-132v119h264v-397h182v-119zM151 607v76h76v-76h-76zM387 607v76h76v-76h-76z" />
    <glyph glyph-name="eth" unicode="&#xf0;" 
d="M74 227v66q0 100 51 162.5t145 72.5l-40 57h-111v43h80l-52 72h160l52 -72h95v-43h-64l97 -135l1 -1q46 -61 46 -156v-66q0 -109 -60.5 -173t-169.5 -64t-169.5 64t-60.5 173zM402 210v100q0 46 -25.5 73.5t-72.5 27.5t-72.5 -27.5t-25.5 -73.5v-100q0 -46 25.5 -73.5
t72.5 -27.5t72.5 27.5t25.5 73.5z" />
    <glyph glyph-name="ntilde" unicode="&#xf1;" 
d="M477 659l-133 -71l-79 57l-107 -57l-23 43l133 71l79 -57l107 57zM536 306v-306h-132v301q0 49 -28.5 74.5t-69.5 25.5t-69.5 -25.5t-28.5 -74.5v-301h-132v516h132v-45q17 26 51.5 42.5t69.5 16.5q85 0 146 -58t61 -166z" />
    <glyph glyph-name="ograve" unicode="&#xf2;" 
d="M74 227v66q0 109 60.5 173t169.5 64t169.5 -64t60.5 -173v-66q0 -109 -60.5 -173t-169.5 -64t-169.5 64t-60.5 173zM402 210v100q0 46 -25.5 73.5t-72.5 27.5t-72.5 -27.5t-25.5 -73.5v-100q0 -46 25.5 -73.5t72.5 -27.5t72.5 27.5t25.5 73.5zM431 584l-267 73l13 48
l267 -73z" />
    <glyph glyph-name="oacute" unicode="&#xf3;" 
d="M74 227v66q0 109 60.5 173t169.5 64t169.5 -64t60.5 -173v-66q0 -109 -60.5 -173t-169.5 -64t-169.5 64t-60.5 173zM402 210v100q0 46 -25.5 73.5t-72.5 27.5t-72.5 -27.5t-25.5 -73.5v-100q0 -46 25.5 -73.5t72.5 -27.5t72.5 27.5t25.5 73.5zM444 657l-267 -73l-13 48
l267 73z" />
    <glyph glyph-name="ocircumflex" unicode="&#xf4;" 
d="M74 227v66q0 109 60.5 173t169.5 64t169.5 -64t60.5 -173v-66q0 -109 -60.5 -173t-169.5 -64t-169.5 64t-60.5 173zM402 210v100q0 46 -25.5 73.5t-72.5 27.5t-72.5 -27.5t-25.5 -73.5v-100q0 -46 25.5 -73.5t72.5 -27.5t72.5 27.5t25.5 73.5zM445 584l-141 67l-141 -67
l-21 44l162 77l162 -77z" />
    <glyph glyph-name="otilde" unicode="&#xf5;" 
d="M475 659l-133 -71l-79 57l-107 -57l-23 43l133 71l79 -57l107 57zM74 227v66q0 109 60.5 173t169.5 64t169.5 -64t60.5 -173v-66q0 -109 -60.5 -173t-169.5 -64t-169.5 64t-60.5 173zM402 210v100q0 46 -25.5 73.5t-72.5 27.5t-72.5 -27.5t-25.5 -73.5v-100
q0 -46 25.5 -73.5t72.5 -27.5t72.5 27.5t25.5 73.5z" />
    <glyph glyph-name="odieresis" unicode="&#xf6;" 
d="M74 227v66q0 109 60.5 173t169.5 64t169.5 -64t60.5 -173v-66q0 -109 -60.5 -173t-169.5 -64t-169.5 64t-60.5 173zM402 210v100q0 46 -25.5 73.5t-72.5 27.5t-72.5 -27.5t-25.5 -73.5v-100q0 -46 25.5 -73.5t72.5 -27.5t72.5 27.5t25.5 73.5zM148 607v76h76v-76h-76z
M384 607v76h76v-76h-76z" />
    <glyph glyph-name="divide" unicode="&#xf7;" 
d="M262 479q0 17 12.5 29.5t29.5 12.5t29.5 -12.5t12.5 -29.5t-12.5 -29.5t-29.5 -12.5t-29.5 12.5t-12.5 29.5zM262 82q0 17 12.5 29.5t29.5 12.5t29.5 -12.5t12.5 -29.5t-12.5 -29.5t-29.5 -12.5t-29.5 12.5t-12.5 29.5zM502 258h-396v45h396v-45z" />
    <glyph glyph-name="oslash" unicode="&#xf8;" 
d="M74 227v66q0 109 60.5 173t169.5 64q69 0 119 -26l30 49l37 -23l-31 -51q75 -64 75 -186v-66q0 -109 -60.5 -173t-169.5 -64q-71 0 -121 26l-29 -49l-37 23l30 51q-73 64 -73 186zM402 210v100q0 30 -12 53l-143 -240q23 -14 57 -14q47 0 72.5 27.5t25.5 73.5zM206 210
q0 -30 11 -52l142 239q-23 14 -55 14q-47 0 -72.5 -27.5t-25.5 -73.5v-100z" />
    <glyph glyph-name="ugrave" unicode="&#xf9;" 
d="M302 119q39 0 67 25.5t28 74.5v297h132v-516h-132v56q-41 -66 -125 -66q-80 0 -138.5 57.5t-58.5 166.5v302h132v-297q0 -49 28 -74.5t67 -25.5zM429 584l-267 73l13 48l267 -73z" />
    <glyph glyph-name="uacute" unicode="&#xfa;" 
d="M302 119q39 0 67 25.5t28 74.5v297h132v-516h-132v56q-41 -66 -125 -66q-80 0 -138.5 57.5t-58.5 166.5v302h132v-297q0 -49 28 -74.5t67 -25.5zM442 657l-267 -73l-13 48l267 73z" />
    <glyph glyph-name="ucircumflex" unicode="&#xfb;" 
d="M302 119q39 0 67 25.5t28 74.5v297h132v-516h-132v56q-41 -66 -125 -66q-80 0 -138.5 57.5t-58.5 166.5v302h132v-297q0 -49 28 -74.5t67 -25.5zM443 584l-141 67l-141 -67l-21 44l162 77l162 -77z" />
    <glyph glyph-name="udieresis" unicode="&#xfc;" 
d="M302 119q39 0 67 25.5t28 74.5v297h132v-516h-132v56q-41 -66 -125 -66q-80 0 -138.5 57.5t-58.5 166.5v302h132v-297q0 -49 28 -74.5t67 -25.5zM146 607v76h76v-76h-76zM382 607v76h76v-76h-76z" />
    <glyph glyph-name="yacute" unicode="&#xfd;" 
d="M558 516l-203 -565q-3 -8 -9.5 -27.5t-9.5 -27t-9.5 -22t-11.5 -20.5t-14 -15.5t-19 -13t-24 -6.5t-31 -3h-110v119h67q27 0 35 23l15 42l-184 516h139l115 -329l115 329h139zM444 657l-267 -73l-13 48l267 73z" />
    <glyph glyph-name="thorn" unicode="&#xfe;" 
d="M210 49v-233h-132v884h132v-229q17 26 51.5 42.5t69.5 16.5q85 0 146 -58t61 -166v-92q0 -108 -61 -166t-146 -58q-35 0 -69.5 16.5t-51.5 42.5zM406 219v82q0 49 -28.5 74.5t-69.5 25.5t-69.5 -25.5t-28.5 -74.5v-82q0 -49 28.5 -74.5t69.5 -25.5t69.5 25.5t28.5 74.5z
" />
    <glyph glyph-name="ydieresis" unicode="&#xff;" 
d="M558 516l-203 -565q-3 -8 -9.5 -27.5t-9.5 -27t-9.5 -22t-11.5 -20.5t-14 -15.5t-19 -13t-24 -6.5t-31 -3h-110v119h67q27 0 35 23l15 42l-184 516h139l115 -329l115 329h139zM148 607v76h76v-76h-76zM384 607v76h76v-76h-76z" />
    <glyph glyph-name="Amacron" unicode="&#x100;" 
d="M382 268l-78 227l-78 -227h156zM428 141h-248l-50 -141h-140l250 700h128l250 -700h-140zM460 774h-312v50h312v-50z" />
    <glyph glyph-name="amacron" unicode="&#x101;" 
d="M395 335q-3 18 -12 33q-25 43 -84 43q-70 0 -91 -57h-133q16 83 73.5 129.5t150.5 46.5q109 0 169.5 -64t60.5 -173v-293h-132v59q-42 -69 -144 -69q-88 0 -138 41t-50 112q0 57 22.5 93t75.5 61q51 24 232 38zM225 202q-28 -14 -28 -44q0 -22 18.5 -37t59.5 -15
q53 0 87.5 28t34.5 75v17q-144 -10 -172 -24zM463 620h-312v50h312v-50z" />
    <glyph glyph-name="Abreve" unicode="&#x102;" 
d="M382 268l-78 227l-78 -227h156zM428 141h-248l-50 -141h-140l250 700h128l250 -700h-140zM334 743h-60q-46 0 -78.5 32.5t-32.5 78.5h49q0 -26 18 -44t44 -18h60q26 0 44 18t18 44h49q0 -46 -32.5 -78.5t-78.5 -32.5z" />
    <glyph glyph-name="abreve" unicode="&#x103;" 
d="M395 335q-3 18 -12 33q-25 43 -84 43q-70 0 -91 -57h-133q16 83 73.5 129.5t150.5 46.5q109 0 169.5 -64t60.5 -173v-293h-132v59q-42 -69 -144 -69q-88 0 -138 41t-50 112q0 57 22.5 93t75.5 61q51 24 232 38zM225 202q-28 -14 -28 -44q0 -22 18.5 -37t59.5 -15
q53 0 87.5 28t34.5 75v17q-144 -10 -172 -24zM337 589h-60q-46 0 -78.5 32.5t-32.5 78.5h49q0 -26 18 -44t44 -18h60q26 0 44 18t18 44h49q0 -46 -32.5 -78.5t-78.5 -32.5z" />
    <glyph glyph-name="Aogonek" unicode="&#x104;" 
d="M618 -137v-50q-10 -2 -30 -2q-46 0 -72.5 28.5t-26.5 65.5q0 66 51 95h-62l-50 141h-248l-50 -141h-140l250 700h128l250 -700q-35 -14 -57.5 -38t-22.5 -51q0 -23 14 -37t42 -14q12 0 24 3zM382 268l-78 227l-78 -227h156z" />
    <glyph glyph-name="aogonek" unicode="&#x105;" 
d="M529 -137v-50q-10 -2 -30 -2q-46 0 -72.5 28.5t-26.5 65.5q0 66 51 95h-54v59q-42 -69 -144 -69q-88 0 -138 41t-50 112q0 57 22.5 93t75.5 61q51 24 232 38q-3 18 -12 33q-25 43 -84 43q-70 0 -91 -57h-133q16 83 73.5 129.5t150.5 46.5q109 0 169.5 -64t60.5 -173v-293
q-35 -14 -57.5 -38t-22.5 -51q0 -23 14 -37t42 -14q12 0 24 3zM225 202q-28 -14 -28 -44q0 -22 18.5 -37t59.5 -15q53 0 87.5 28t34.5 75v17q-144 -10 -172 -24z" />
    <glyph glyph-name="Cacute" unicode="&#x106;" 
d="M438 234h135q-5 -112 -74.5 -178t-189.5 -66q-124 0 -194 70.5t-70 188.5v202q0 118 70 188.5t194 70.5q120 0 189.5 -66t74.5 -178h-135q-5 52 -41 81.5t-88 29.5q-57 0 -93.5 -33.5t-36.5 -92.5v-202q0 -59 36.5 -92.5t93.5 -33.5q53 0 88.5 29t40.5 82zM449 811
l-267 -73l-13 48l267 73z" />
    <glyph glyph-name="cacute" unicode="&#x107;" 
d="M405 188h132q-11 -92 -70 -145t-158 -53q-109 0 -169.5 64t-60.5 173v66q0 109 60.5 173t169.5 64q99 0 158 -53t70 -145h-132q-6 37 -31 58t-65 21q-47 0 -72.5 -27.5t-25.5 -73.5v-100q0 -46 25.5 -73.5t72.5 -27.5q41 0 66 21t30 58zM448 657l-267 -73l-13 48l267 73z
" />
    <glyph glyph-name="Ccircumflex" unicode="&#x108;" 
d="M438 234h135q-5 -112 -74.5 -178t-189.5 -66q-124 0 -194 70.5t-70 188.5v202q0 118 70 188.5t194 70.5q120 0 189.5 -66t74.5 -178h-135q-5 52 -41 81.5t-88 29.5q-57 0 -93.5 -33.5t-36.5 -92.5v-202q0 -59 36.5 -92.5t93.5 -33.5q53 0 88.5 29t40.5 82zM450 738
l-141 67l-141 -67l-21 44l162 77l162 -77z" />
    <glyph glyph-name="ccircumflex" unicode="&#x109;" 
d="M405 188h132q-11 -92 -70 -145t-158 -53q-109 0 -169.5 64t-60.5 173v66q0 109 60.5 173t169.5 64q99 0 158 -53t70 -145h-132q-6 37 -31 58t-65 21q-47 0 -72.5 -27.5t-25.5 -73.5v-100q0 -46 25.5 -73.5t72.5 -27.5q41 0 66 21t30 58zM449 584l-141 67l-141 -67l-21 44
l162 77l162 -77z" />
    <glyph glyph-name="Cdotaccent" unicode="&#x10a;" 
d="M438 234h135q-5 -112 -74.5 -178t-189.5 -66q-124 0 -194 70.5t-70 188.5v202q0 118 70 188.5t194 70.5q120 0 189.5 -66t74.5 -178h-135q-5 52 -41 81.5t-88 29.5q-57 0 -93.5 -33.5t-36.5 -92.5v-202q0 -59 36.5 -92.5t93.5 -33.5q53 0 88.5 29t40.5 82zM271 761v76h76
v-76h-76z" />
    <glyph glyph-name="cdotaccent" unicode="&#x10b;" 
d="M405 188h132q-11 -92 -70 -145t-158 -53q-109 0 -169.5 64t-60.5 173v66q0 109 60.5 173t169.5 64q99 0 158 -53t70 -145h-132q-6 37 -31 58t-65 21q-47 0 -72.5 -27.5t-25.5 -73.5v-100q0 -46 25.5 -73.5t72.5 -27.5q41 0 66 21t30 58zM270 607v76h76v-76h-76z" />
    <glyph glyph-name="Ccaron" unicode="&#x10c;" 
d="M438 234h135q-5 -112 -74.5 -178t-189.5 -66q-124 0 -194 70.5t-70 188.5v202q0 118 70 188.5t194 70.5q120 0 189.5 -66t74.5 -178h-135q-5 52 -41 81.5t-88 29.5q-57 0 -93.5 -33.5t-36.5 -92.5v-202q0 -59 36.5 -92.5t93.5 -33.5q53 0 88.5 29t40.5 82zM309 792
l141 67l21 -44l-162 -77l-162 77l21 44z" />
    <glyph glyph-name="ccaron" unicode="&#x10d;" 
d="M405 188h132q-11 -92 -70 -145t-158 -53q-109 0 -169.5 64t-60.5 173v66q0 109 60.5 173t169.5 64q99 0 158 -53t70 -145h-132q-6 37 -31 58t-65 21q-47 0 -72.5 -27.5t-25.5 -73.5v-100q0 -46 25.5 -73.5t72.5 -27.5q41 0 66 21t30 58zM308 638l141 67l21 -44l-162 -77
l-162 77l21 44z" />
    <glyph glyph-name="Dcaron" unicode="&#x10e;" 
d="M308 0h-264v700h264q124 0 194 -70.5t70 -188.5v-182q0 -118 -70 -188.5t-194 -70.5zM438 259v182q0 59 -36.5 92.5t-93.5 33.5h-130v-434h130q57 0 93.5 33.5t36.5 92.5zM288 792l141 67l21 -44l-162 -77l-162 77l21 44z" />
    <glyph glyph-name="dcaron" unicode="&#x10f;" 
d="M623 700v-126l-63 -116l-44 23l57 105v114h50zM354 49q-17 -26 -51.5 -42.5t-69.5 -16.5q-85 0 -146 58t-61 166v92q0 108 61 166t146 58q35 0 69.5 -16.5t51.5 -42.5v229h132v-700h-132v49zM158 301v-82q0 -49 28.5 -74.5t69.5 -25.5t69.5 25.5t28.5 74.5v82
q0 49 -28.5 74.5t-69.5 25.5t-69.5 -25.5t-28.5 -74.5z" />
    <glyph glyph-name="Dcroat" unicode="&#x110;" 
d="M322 0h-264v328h-70v45h70v327h264q124 0 194 -70.5t70 -188.5v-182q0 -118 -70 -188.5t-194 -70.5zM452 259v182q0 59 -36.5 92.5t-93.5 33.5h-130v-194h130v-45h-130v-195h130q57 0 93.5 33.5t36.5 92.5z" />
    <glyph glyph-name="dcroat" unicode="&#x111;" 
d="M398 49q-17 -26 -51.5 -42.5t-69.5 -16.5q-85 0 -146 58t-61 166v92q0 108 61 166t146 58q35 0 69.5 -16.5t51.5 -42.5v120h-121v43h121v66h132v-66h70v-43h-70v-591h-132v49zM202 301v-82q0 -49 28.5 -74.5t69.5 -25.5t69.5 25.5t28.5 74.5v82q0 49 -28.5 74.5
t-69.5 25.5t-69.5 -25.5t-28.5 -74.5z" />
    <glyph glyph-name="Emacron" unicode="&#x112;" 
d="M236 567v-147h222v-133h-222v-154h292v-133h-426v700h426v-133h-292zM471 774h-312v50h312v-50z" />
    <glyph glyph-name="emacron" unicode="&#x113;" 
d="M535 213h-328v-3q0 -46 25.5 -73.5t72.5 -27.5q70 0 91 57h134q-16 -83 -74 -129.5t-151 -46.5q-109 0 -169.5 64t-60.5 173v66q0 109 60.5 173t169.5 64t169.5 -64t60.5 -173v-80zM305 411q-43 0 -68.5 -24t-29.5 -64v-1h195v1q-3 41 -28 64.5t-69 23.5zM461 620h-312
v50h312v-50z" />
    <glyph glyph-name="Ebreve" unicode="&#x114;" 
d="M236 567v-147h222v-133h-222v-154h292v-133h-426v700h426v-133h-292zM345 743h-60q-46 0 -78.5 32.5t-32.5 78.5h49q0 -26 18 -44t44 -18h60q26 0 44 18t18 44h49q0 -46 -32.5 -78.5t-78.5 -32.5z" />
    <glyph glyph-name="ebreve" unicode="&#x115;" 
d="M535 213h-328v-3q0 -46 25.5 -73.5t72.5 -27.5q70 0 91 57h134q-16 -83 -74 -129.5t-151 -46.5q-109 0 -169.5 64t-60.5 173v66q0 109 60.5 173t169.5 64t169.5 -64t60.5 -173v-80zM305 411q-43 0 -68.5 -24t-29.5 -64v-1h195v1q-3 41 -28 64.5t-69 23.5zM335 589h-60
q-46 0 -78.5 32.5t-32.5 78.5h49q0 -26 18 -44t44 -18h60q26 0 44 18t18 44h49q0 -46 -32.5 -78.5t-78.5 -32.5z" />
    <glyph glyph-name="Edotaccent" unicode="&#x116;" 
d="M236 567v-147h222v-133h-222v-154h292v-133h-426v700h426v-133h-292zM277 761v76h76v-76h-76z" />
    <glyph glyph-name="edotaccent" unicode="&#x117;" 
d="M535 213h-328v-3q0 -46 25.5 -73.5t72.5 -27.5q70 0 91 57h134q-16 -83 -74 -129.5t-151 -46.5q-109 0 -169.5 64t-60.5 173v66q0 109 60.5 173t169.5 64t169.5 -64t60.5 -173v-80zM305 411q-43 0 -68.5 -24t-29.5 -64v-1h195v1q-3 41 -28 64.5t-69 23.5zM267 607v76h76
v-76h-76z" />
    <glyph glyph-name="Eogonek" unicode="&#x118;" 
d="M528 -137v-50q-10 -2 -30 -2q-46 0 -72.5 28.5t-26.5 65.5q0 66 51 95h-348v700h426v-133h-292v-147h222v-133h-222v-154h292v-133q-35 -14 -57.5 -38t-22.5 -51q0 -23 14 -37t42 -14q12 0 24 3z" />
    <glyph glyph-name="eogonek" unicode="&#x119;" 
d="M398 -137v-50q-10 -2 -30 -2q-46 0 -72.5 28.5t-26.5 65.5q0 55 36 85q-109 0 -169.5 64t-60.5 173v66q0 109 60.5 173t169.5 64t169.5 -64t60.5 -173v-80h-328v-3q0 -46 25.5 -73.5t72.5 -27.5q70 0 91 57h134q-21 -108 -112 -153q-28 -14 -47 -25.5t-36 -32.5t-17 -44
t14 -37t42 -14q12 0 24 3zM305 411q-43 0 -68.5 -24t-29.5 -64v-1h195v1q-3 41 -28 64.5t-69 23.5z" />
    <glyph glyph-name="Ecaron" unicode="&#x11a;" 
d="M236 567v-147h222v-133h-222v-154h292v-133h-426v700h426v-133h-292zM315 792l141 67l21 -44l-162 -77l-162 77l21 44z" />
    <glyph glyph-name="ecaron" unicode="&#x11b;" 
d="M535 213h-328v-3q0 -46 25.5 -73.5t72.5 -27.5q70 0 91 57h134q-16 -83 -74 -129.5t-151 -46.5q-109 0 -169.5 64t-60.5 173v66q0 109 60.5 173t169.5 64t169.5 -64t60.5 -173v-80zM305 411q-43 0 -68.5 -24t-29.5 -64v-1h195v1q-3 41 -28 64.5t-69 23.5zM305 638l141 67
l21 -44l-162 -77l-162 77l21 44z" />
    <glyph glyph-name="Gcircumflex" unicode="&#x11c;" 
d="M306 267v133h264v-151q0 -118 -70 -188.5t-194 -70.5t-194 70.5t-70 188.5v202q0 118 70 188.5t194 70.5q117 0 186 -62.5t77 -168.5h-135q-9 46 -44 72t-84 26q-57 0 -93.5 -33.5t-36.5 -92.5v-202q0 -59 36.5 -92.5t93.5 -33.5t93.5 33.5t36.5 92.5v18h-130zM447 738
l-141 67l-141 -67l-21 44l162 77l162 -77z" />
    <glyph glyph-name="gcircumflex" unicode="&#x11d;" 
d="M73 -3h132q16 -72 95 -72q47 0 72.5 27.5t25.5 73.5v60q-17 -26 -51.5 -42.5t-69.5 -16.5q-85 0 -146 58t-61 166v55q0 108 61 166t146 58q35 0 69.5 -16.5t51.5 -42.5v45h132v-473q0 -109 -60.5 -173t-169.5 -64q-97 0 -156 51t-71 140zM202 301v-45q0 -49 28.5 -74.5
t69.5 -25.5t69.5 25.5t28.5 74.5v45q0 49 -28.5 74.5t-69.5 25.5t-69.5 -25.5t-28.5 -74.5zM441 584l-141 67l-141 -67l-21 44l162 77l162 -77z" />
    <glyph glyph-name="Gbreve" unicode="&#x11e;" 
d="M306 267v133h264v-151q0 -118 -70 -188.5t-194 -70.5t-194 70.5t-70 188.5v202q0 118 70 188.5t194 70.5q117 0 186 -62.5t77 -168.5h-135q-9 46 -44 72t-84 26q-57 0 -93.5 -33.5t-36.5 -92.5v-202q0 -59 36.5 -92.5t93.5 -33.5t93.5 33.5t36.5 92.5v18h-130zM336 743
h-60q-46 0 -78.5 32.5t-32.5 78.5h49q0 -26 18 -44t44 -18h60q26 0 44 18t18 44h49q0 -46 -32.5 -78.5t-78.5 -32.5z" />
    <glyph glyph-name="gbreve" unicode="&#x11f;" 
d="M73 -3h132q16 -72 95 -72q47 0 72.5 27.5t25.5 73.5v60q-17 -26 -51.5 -42.5t-69.5 -16.5q-85 0 -146 58t-61 166v55q0 108 61 166t146 58q35 0 69.5 -16.5t51.5 -42.5v45h132v-473q0 -109 -60.5 -173t-169.5 -64q-97 0 -156 51t-71 140zM202 301v-45q0 -49 28.5 -74.5
t69.5 -25.5t69.5 25.5t28.5 74.5v45q0 49 -28.5 74.5t-69.5 25.5t-69.5 -25.5t-28.5 -74.5zM330 589h-60q-46 0 -78.5 32.5t-32.5 78.5h49q0 -26 18 -44t44 -18h60q26 0 44 18t18 44h49q0 -46 -32.5 -78.5t-78.5 -32.5z" />
    <glyph glyph-name="Gdotaccent" unicode="&#x120;" 
d="M306 267v133h264v-151q0 -118 -70 -188.5t-194 -70.5t-194 70.5t-70 188.5v202q0 118 70 188.5t194 70.5q117 0 186 -62.5t77 -168.5h-135q-9 46 -44 72t-84 26q-57 0 -93.5 -33.5t-36.5 -92.5v-202q0 -59 36.5 -92.5t93.5 -33.5t93.5 33.5t36.5 92.5v18h-130zM268 761
v76h76v-76h-76z" />
    <glyph glyph-name="gdotaccent" unicode="&#x121;" 
d="M73 -3h132q16 -72 95 -72q47 0 72.5 27.5t25.5 73.5v60q-17 -26 -51.5 -42.5t-69.5 -16.5q-85 0 -146 58t-61 166v55q0 108 61 166t146 58q35 0 69.5 -16.5t51.5 -42.5v45h132v-473q0 -109 -60.5 -173t-169.5 -64q-97 0 -156 51t-71 140zM202 301v-45q0 -49 28.5 -74.5
t69.5 -25.5t69.5 25.5t28.5 74.5v45q0 49 -28.5 74.5t-69.5 25.5t-69.5 -25.5t-28.5 -74.5zM262 607v76h76v-76h-76z" />
    <glyph glyph-name="Gcommaaccent" unicode="&#x122;" 
d="M306 267v133h264v-151q0 -118 -70 -188.5t-194 -70.5t-194 70.5t-70 188.5v202q0 118 70 188.5t194 70.5q117 0 186 -62.5t77 -168.5h-135q-9 46 -44 72t-84 26q-57 0 -93.5 -33.5t-36.5 -92.5v-202q0 -59 36.5 -92.5t93.5 -33.5t93.5 33.5t36.5 92.5v18h-130zM374 -89
l-100 -100l-36 37l100 99z" />
    <glyph glyph-name="gcommaaccent" unicode="&#x123;" 
d="M73 -3h132q16 -72 95 -72q47 0 72.5 27.5t25.5 73.5v60q-17 -26 -51.5 -42.5t-69.5 -16.5q-85 0 -146 58t-61 166v55q0 108 61 166t146 58q35 0 69.5 -16.5t51.5 -42.5v45h132v-473q0 -109 -60.5 -173t-169.5 -64q-97 0 -156 51t-71 140zM202 301v-45q0 -49 28.5 -74.5
t69.5 -25.5t69.5 25.5t28.5 74.5v45q0 49 -28.5 74.5t-69.5 25.5t-69.5 -25.5t-28.5 -74.5zM232 620l100 100l36 -37l-100 -99z" />
    <glyph glyph-name="Hcircumflex" unicode="&#x124;" 
d="M434 420v280h134v-700h-134v287h-260v-287h-134v700h134v-280h260zM445 738l-141 67l-141 -67l-21 44l162 77l162 -77z" />
    <glyph glyph-name="hcircumflex" unicode="&#x125;" 
d="M536 306v-306h-132v301q0 49 -28.5 74.5t-69.5 25.5t-69.5 -25.5t-28.5 -74.5v-301h-132v700h132v-229q17 26 51.5 42.5t69.5 16.5q85 0 146 -58t61 -166zM447 738l-141 67l-141 -67l-21 44l162 77l162 -77z" />
    <glyph glyph-name="Hbar" unicode="&#x126;" 
d="M638 538h-70v-538h-134v287h-260v-287h-134v538h-70v45h70v117h134v-117h260v117h134v-117h70v-45zM434 420v118h-260v-118h260z" />
    <glyph glyph-name="hbar" unicode="&#x127;" 
d="M536 306v-306h-132v301q0 49 -28.5 74.5t-69.5 25.5t-69.5 -25.5t-28.5 -74.5v-301h-132v591h-70v43h70v66h132v-66h121v-43h-121v-120q17 26 51.5 42.5t69.5 16.5q85 0 146 -58t61 -166z" />
    <glyph glyph-name="Itilde" unicode="&#x128;" 
d="M517 0h-426v133h146v434h-146v133h426v-133h-146v-434h146v-133zM475 813l-133 -71l-79 57l-107 -57l-23 43l133 71l79 -57l107 57z" />
    <glyph glyph-name="itilde" unicode="&#x129;" 
d="M555 0h-496v119h182v278h-132v119h264v-397h182v-119zM478 659l-133 -71l-79 57l-107 -57l-23 43l133 71l79 -57l107 57z" />
    <glyph glyph-name="Imacron" unicode="&#x12a;" 
d="M517 0h-426v133h146v434h-146v133h426v-133h-146v-434h146v-133zM460 774h-312v50h312v-50z" />
    <glyph glyph-name="imacron" unicode="&#x12b;" 
d="M555 0h-496v119h182v278h-132v119h264v-397h182v-119zM463 620h-312v50h312v-50z" />
    <glyph glyph-name="Ibreve" unicode="&#x12c;" 
d="M517 0h-426v133h146v434h-146v133h426v-133h-146v-434h146v-133zM334 743h-60q-46 0 -78.5 32.5t-32.5 78.5h49q0 -26 18 -44t44 -18h60q26 0 44 18t18 44h49q0 -46 -32.5 -78.5t-78.5 -32.5z" />
    <glyph glyph-name="ibreve" unicode="&#x12d;" 
d="M555 0h-496v119h182v278h-132v119h264v-397h182v-119zM337 589h-60q-46 0 -78.5 32.5t-32.5 78.5h49q0 -26 18 -44t44 -18h60q26 0 44 18t18 44h49q0 -46 -32.5 -78.5t-78.5 -32.5z" />
    <glyph glyph-name="Iogonek" unicode="&#x12e;" 
d="M517 -137v-50q-10 -2 -30 -2q-46 0 -72.5 28.5t-26.5 65.5q0 66 51 95h-348v133h146v434h-146v133h426v-133h-146v-434h146v-133q-35 -14 -57.5 -38t-22.5 -51q0 -23 14 -37t42 -14q12 0 24 3z" />
    <glyph glyph-name="iogonek" unicode="&#x12f;" 
d="M555 -137v-50q-10 -2 -30 -2q-46 0 -72.5 28.5t-26.5 65.5q0 66 51 95h-418v119h182v278h-132v119h264v-397h182v-119q-35 -14 -57.5 -38t-22.5 -51q0 -23 14 -37t42 -14q12 0 24 3zM236 553v147h147v-147h-147z" />
    <glyph glyph-name="Idotaccent" unicode="&#x130;" 
d="M517 0h-426v133h146v434h-146v133h426v-133h-146v-434h146v-133zM266 761v76h76v-76h-76z" />
    <glyph glyph-name="dotlessi" unicode="&#x131;" 
d="M555 0h-496v119h182v278h-132v119h264v-397h182v-119z" />
    <glyph glyph-name="Jcircumflex" unicode="&#x134;" 
d="M421 567h-292v133h426v-451q0 -118 -70 -188.5t-194 -70.5q-111 0 -179 56.5t-82 153.5h139q13 -37 45.5 -57t76.5 -20q57 0 93.5 33.5t36.5 92.5v318zM483 738l-141 67l-141 -67l-21 44l162 77l162 -77z" />
    <glyph glyph-name="jcircumflex" unicode="&#x135;" 
d="M40 -65h229q22 0 30 10.5t8 30.5v421h-217v119h349v-568q0 -132 -132 -132h-267v119zM514 584l-141 67l-141 -67l-21 44l162 77l162 -77z" />
    <glyph glyph-name="Kcommaaccent" unicode="&#x136;" 
d="M176 198v-198h-136v700h136v-302l257 302h171l-246 -289l271 -411h-164l-199 303zM378 -89l-100 -100l-36 37l100 99z" />
    <glyph glyph-name="kcommaaccent" unicode="&#x137;" 
d="M223 700v-364l165 180h160l-187 -203l214 -313h-155l-148 216l-49 -54v-162h-132v700h132zM379 -89l-100 -100l-36 37l100 99z" />
    <glyph glyph-name="Lacute" unicode="&#x139;" 
d="M243 700v-567h292v-133h-426v700h134zM316 811l-267 -73l-13 48l267 73z" />
    <glyph glyph-name="lacute" unicode="&#x13a;" 
d="M553 0h-496v119h182v462h-132v119h264v-581h182v-119zM445 811l-267 -73l-13 48l267 73z" />
    <glyph glyph-name="Lcommaaccent" unicode="&#x13b;" 
d="M243 700v-567h292v-133h-426v700h134zM390 -89l-100 -100l-36 37l100 99z" />
    <glyph glyph-name="lcommaaccent" unicode="&#x13c;" 
d="M553 0h-496v119h182v462h-132v119h264v-581h182v-119zM373 -89l-100 -100l-36 37l100 99z" />
    <glyph glyph-name="Lcaron" unicode="&#x13d;" 
d="M450 700v-126l-63 -116l-44 23l57 105v114h50zM243 700v-567h292v-133h-426v700h134z" />
    <glyph glyph-name="lcaron" unicode="&#x13e;" 
d="M508 700v-126l-63 -116l-44 23l57 105v114h50zM553 0h-496v119h182v462h-132v119h264v-581h182v-119z" />
    <glyph glyph-name="Ldot" unicode="&#x13f;" 
d="M243 700v-567h292v-133h-426v700h134zM459 378v76h76v-76h-76z" />
    <glyph glyph-name="ldot" unicode="&#x140;" 
d="M553 0h-496v119h182v462h-132v119h264v-581h182v-119zM477 371v76h76v-76h-76z" />
    <glyph glyph-name="Lslash" unicode="&#x141;" 
d="M272 700v-303l156 86l21 -39l-177 -98v-213h292v-133h-426v272l-59 -32l-22 39l81 44v377h134z" />
    <glyph glyph-name="lslash" unicode="&#x142;" 
d="M553 0h-496v119h182v190l-53 -28l-21 38l74 40v222h-132v119h264v-270l53 29l21 -38l-74 -40v-262h182v-119z" />
    <glyph glyph-name="Nacute" unicode="&#x143;" 
d="M568 700v-700h-134l-260 451v-451h-134v700h134l260 -451v451h134zM444 811l-267 -73l-13 48l267 73z" />
    <glyph glyph-name="nacute" unicode="&#x144;" 
d="M536 306v-306h-132v301q0 49 -28.5 74.5t-69.5 25.5t-69.5 -25.5t-28.5 -74.5v-301h-132v516h132v-45q17 26 51.5 42.5t69.5 16.5q85 0 146 -58t61 -166zM446 657l-267 -73l-13 48l267 73z" />
    <glyph glyph-name="Ncommaaccent" unicode="&#x145;" 
d="M568 700v-700h-134l-260 451v-451h-134v700h134l260 -451v451h134zM372 -89l-100 -100l-36 37l100 99z" />
    <glyph glyph-name="ncommaaccent" unicode="&#x146;" 
d="M536 306v-306h-132v301q0 49 -28.5 74.5t-69.5 25.5t-69.5 -25.5t-28.5 -74.5v-301h-132v516h132v-45q17 26 51.5 42.5t69.5 16.5q85 0 146 -58t61 -166zM374 -89l-100 -100l-36 37l100 99z" />
    <glyph glyph-name="Ncaron" unicode="&#x147;" 
d="M568 700v-700h-134l-260 451v-451h-134v700h134l260 -451v451h134zM304 792l141 67l21 -44l-162 -77l-162 77l21 44z" />
    <glyph glyph-name="ncaron" unicode="&#x148;" 
d="M536 306v-306h-132v301q0 49 -28.5 74.5t-69.5 25.5t-69.5 -25.5t-28.5 -74.5v-301h-132v516h132v-45q17 26 51.5 42.5t69.5 16.5q85 0 146 -58t61 -166zM306 638l141 67l21 -44l-162 -77l-162 77l21 44z" />
    <glyph glyph-name="Eng" unicode="&#x14a;" 
d="M568 700v-674q0 -103 -54.5 -156.5t-153.5 -53.5h-56v133h56q59 0 71 55l-257 447v-451h-134v700h134l260 -451v451h134z" />
    <glyph glyph-name="eng" unicode="&#x14b;" 
d="M404 -24v325q0 49 -28.5 74.5t-69.5 25.5t-69.5 -25.5t-28.5 -74.5v-301h-132v516h132v-45q17 26 51.5 42.5t69.5 16.5q85 0 146 -58t61 -166v-358q0 -132 -132 -132h-64v119h26q22 0 30 10.5t8 30.5z" />
    <glyph glyph-name="Omacron" unicode="&#x14c;" 
d="M568 249q0 -118 -70 -188.5t-194 -70.5t-194 70.5t-70 188.5v202q0 118 70 188.5t194 70.5t194 -70.5t70 -188.5v-202zM434 249v202q0 59 -36.5 92.5t-93.5 33.5t-93.5 -33.5t-36.5 -92.5v-202q0 -59 36.5 -92.5t93.5 -33.5t93.5 33.5t36.5 92.5zM460 774h-312v50h312
v-50z" />
    <glyph glyph-name="omacron" unicode="&#x14d;" 
d="M74 227v66q0 109 60.5 173t169.5 64t169.5 -64t60.5 -173v-66q0 -109 -60.5 -173t-169.5 -64t-169.5 64t-60.5 173zM402 210v100q0 46 -25.5 73.5t-72.5 27.5t-72.5 -27.5t-25.5 -73.5v-100q0 -46 25.5 -73.5t72.5 -27.5t72.5 27.5t25.5 73.5zM460 620h-312v50h312v-50z
" />
    <glyph glyph-name="Obreve" unicode="&#x14e;" 
d="M568 249q0 -118 -70 -188.5t-194 -70.5t-194 70.5t-70 188.5v202q0 118 70 188.5t194 70.5t194 -70.5t70 -188.5v-202zM434 249v202q0 59 -36.5 92.5t-93.5 33.5t-93.5 -33.5t-36.5 -92.5v-202q0 -59 36.5 -92.5t93.5 -33.5t93.5 33.5t36.5 92.5zM334 743h-60
q-46 0 -78.5 32.5t-32.5 78.5h49q0 -26 18 -44t44 -18h60q26 0 44 18t18 44h49q0 -46 -32.5 -78.5t-78.5 -32.5z" />
    <glyph glyph-name="obreve" unicode="&#x14f;" 
d="M74 227v66q0 109 60.5 173t169.5 64t169.5 -64t60.5 -173v-66q0 -109 -60.5 -173t-169.5 -64t-169.5 64t-60.5 173zM402 210v100q0 46 -25.5 73.5t-72.5 27.5t-72.5 -27.5t-25.5 -73.5v-100q0 -46 25.5 -73.5t72.5 -27.5t72.5 27.5t25.5 73.5zM334 589h-60
q-46 0 -78.5 32.5t-32.5 78.5h49q0 -26 18 -44t44 -18h60q26 0 44 18t18 44h49q0 -46 -32.5 -78.5t-78.5 -32.5z" />
    <glyph glyph-name="Ohungarumlaut" unicode="&#x150;" 
d="M568 249q0 -118 -70 -188.5t-194 -70.5t-194 70.5t-70 188.5v202q0 118 70 188.5t194 70.5t194 -70.5t70 -188.5v-202zM434 249v202q0 59 -36.5 92.5t-93.5 33.5t-93.5 -33.5t-36.5 -92.5v-202q0 -59 36.5 -92.5t93.5 -33.5t93.5 33.5t36.5 92.5zM281 791l-127 -35
l-13 48l127 35zM467 794l-127 -35l-13 48l127 35z" />
    <glyph glyph-name="ohungarumlaut" unicode="&#x151;" 
d="M74 227v66q0 109 60.5 173t169.5 64t169.5 -64t60.5 -173v-66q0 -109 -60.5 -173t-169.5 -64t-169.5 64t-60.5 173zM402 210v100q0 46 -25.5 73.5t-72.5 27.5t-72.5 -27.5t-25.5 -73.5v-100q0 -46 25.5 -73.5t72.5 -27.5t72.5 27.5t25.5 73.5zM281 637l-127 -35l-13 48
l127 35zM467 640l-127 -35l-13 48l127 35z" />
    <glyph glyph-name="OE" unicode="&#x152;" 
d="M438 567v-147h76v-133h-76v-154h146v-133h-280q-124 0 -194 70.5t-70 188.5v182q0 118 70 188.5t194 70.5h280v-133h-146zM304 567q-57 0 -93.5 -33.5t-36.5 -92.5v-182q0 -59 36.5 -92.5t93.5 -33.5v434z" />
    <glyph glyph-name="oe" unicode="&#x153;" 
d="M577 166v-16q0 -76 -44 -118t-115 -42q-33 0 -65 12.5t-49 35.5q-17 -23 -49.5 -35.5t-64.5 -12.5q-71 0 -115 42t-44 118v220q0 76 44 118t115 42q32 0 64.5 -12.5t49.5 -35.5q17 23 49 35.5t65 12.5q71 0 115 -42t44 -118v-157h-207v-61q0 -43 38 -43q37 0 37 43v14
h132zM163 368v-216q0 -43 37 -43q38 0 38 43v216q0 43 -38 43q-37 0 -37 -43zM445 322v46q0 43 -38 43q-37 0 -37 -43v-46h75z" />
    <glyph glyph-name="Racute" unicode="&#x154;" 
d="M276 288h-82v-288h-134v700h295q105 0 163 -55t58 -151q0 -78 -39 -130t-112 -69l174 -295h-154zM442 492q0 36 -22.5 55.5t-61.5 19.5h-164v-149h164q39 0 61.5 19.5t22.5 54.5zM449 811l-267 -73l-13 48l267 73z" />
    <glyph glyph-name="racute" unicode="&#x155;" 
d="M501 0h-469v119h163v278h-113v119h245v-56q12 27 44 46t76 19h104v-119h-126q-41 0 -69.5 -25.5t-28.5 -74.5v-187h174v-119zM431 657l-267 -73l-13 48l267 73z" />
    <glyph glyph-name="Rcommaaccent" unicode="&#x156;" 
d="M276 288h-82v-288h-134v700h295q105 0 163 -55t58 -151q0 -78 -39 -130t-112 -69l174 -295h-154zM442 492q0 36 -22.5 55.5t-61.5 19.5h-164v-149h164q39 0 61.5 19.5t22.5 54.5zM377 -89l-100 -100l-36 37l100 99z" />
    <glyph glyph-name="rcommaaccent" unicode="&#x157;" 
d="M501 0h-469v119h163v278h-113v119h245v-56q12 27 44 46t76 19h104v-119h-126q-41 0 -69.5 -25.5t-28.5 -74.5v-187h174v-119zM359 -89l-100 -100l-36 37l100 99z" />
    <glyph glyph-name="Rcaron" unicode="&#x158;" 
d="M276 288h-82v-288h-134v700h295q105 0 163 -55t58 -151q0 -78 -39 -130t-112 -69l174 -295h-154zM442 492q0 36 -22.5 55.5t-61.5 19.5h-164v-149h164q39 0 61.5 19.5t22.5 54.5zM309 792l141 67l21 -44l-162 -77l-162 77l21 44z" />
    <glyph glyph-name="rcaron" unicode="&#x159;" 
d="M501 0h-469v119h163v278h-113v119h245v-56q12 27 44 46t76 19h104v-119h-126q-41 0 -69.5 -25.5t-28.5 -74.5v-187h174v-119zM291 638l141 67l21 -44l-162 -77l-162 77l21 44z" />
    <glyph glyph-name="Sacute" unicode="&#x15a;" 
d="M310 -10q-114 0 -184 63t-75 168h138q6 -45 38.5 -71.5t82.5 -26.5q46 0 73 17.5t27 52.5q0 55 -72 74l-118 32q-79 21 -119.5 75t-40.5 132q0 99 66.5 151.5t165.5 52.5q103 0 166.5 -55t75.5 -146h-149q-9 33 -37 50.5t-63 17.5q-41 0 -66 -18t-25 -53q0 -51 70 -69
l114 -31q166 -45 166 -213q0 -96 -60.5 -149.5t-173.5 -53.5zM437 811l-267 -73l-13 48l267 73z" />
    <glyph glyph-name="sacute" unicode="&#x15b;" 
d="M316 -10q-88 0 -154 45.5t-70 131.5h132q4 -28 32 -43t64 -15q65 0 65 40q0 30 -46 40l-108 24q-51 12 -89 50.5t-38 107.5q0 73 57 116t140 43q84 0 139 -41.5t61 -125.5h-135q-10 48 -69 48t-61 -39q0 -29 40 -38l116 -26q52 -12 88.5 -49.5t36.5 -109.5
q0 -81 -56.5 -120t-144.5 -39zM444 657l-267 -73l-13 48l267 73z" />
    <glyph glyph-name="Scircumflex" unicode="&#x15c;" 
d="M310 -10q-114 0 -184 63t-75 168h138q6 -45 38.5 -71.5t82.5 -26.5q46 0 73 17.5t27 52.5q0 55 -72 74l-118 32q-79 21 -119.5 75t-40.5 132q0 99 66.5 151.5t165.5 52.5q103 0 166.5 -55t75.5 -146h-149q-9 33 -37 50.5t-63 17.5q-41 0 -66 -18t-25 -53q0 -51 70 -69
l114 -31q166 -45 166 -213q0 -96 -60.5 -149.5t-173.5 -53.5zM438 738l-141 67l-141 -67l-21 44l162 77l162 -77z" />
    <glyph glyph-name="scircumflex" unicode="&#x15d;" 
d="M316 -10q-88 0 -154 45.5t-70 131.5h132q4 -28 32 -43t64 -15q65 0 65 40q0 30 -46 40l-108 24q-51 12 -89 50.5t-38 107.5q0 73 57 116t140 43q84 0 139 -41.5t61 -125.5h-135q-10 48 -69 48t-61 -39q0 -29 40 -38l116 -26q52 -12 88.5 -49.5t36.5 -109.5
q0 -81 -56.5 -120t-144.5 -39zM445 584l-141 67l-141 -67l-21 44l162 77l162 -77z" />
    <glyph glyph-name="Scedilla" unicode="&#x15e;" 
d="M310 -10q-114 0 -184 63t-75 168h138q6 -45 38.5 -71.5t82.5 -26.5q46 0 73 17.5t27 52.5q0 55 -72 74l-118 32q-79 21 -119.5 75t-40.5 132q0 99 66.5 151.5t165.5 52.5q103 0 166.5 -55t75.5 -146h-149q-9 33 -37 50.5t-63 17.5q-41 0 -66 -18t-25 -53q0 -51 70 -69
l114 -31q166 -45 166 -213q0 -96 -60.5 -149.5t-173.5 -53.5zM201 -134h84v84h50v-134h-134v50z" />
    <glyph glyph-name="scedilla" unicode="&#x15f;" 
d="M316 -10q-88 0 -154 45.5t-70 131.5h132q4 -28 32 -43t64 -15q65 0 65 40q0 30 -46 40l-108 24q-51 12 -89 50.5t-38 107.5q0 73 57 116t140 43q84 0 139 -41.5t61 -125.5h-135q-10 48 -69 48t-61 -39q0 -29 40 -38l116 -26q52 -12 88.5 -49.5t36.5 -109.5
q0 -81 -56.5 -120t-144.5 -39zM207 -134h84v84h50v-134h-134v50z" />
    <glyph glyph-name="Scaron" unicode="&#x160;" 
d="M310 -10q-114 0 -184 63t-75 168h138q6 -45 38.5 -71.5t82.5 -26.5q46 0 73 17.5t27 52.5q0 55 -72 74l-118 32q-79 21 -119.5 75t-40.5 132q0 99 66.5 151.5t165.5 52.5q103 0 166.5 -55t75.5 -146h-149q-9 33 -37 50.5t-63 17.5q-41 0 -66 -18t-25 -53q0 -51 70 -69
l114 -31q166 -45 166 -213q0 -96 -60.5 -149.5t-173.5 -53.5zM297 792l141 67l21 -44l-162 -77l-162 77l21 44z" />
    <glyph glyph-name="scaron" unicode="&#x161;" 
d="M316 -10q-88 0 -154 45.5t-70 131.5h132q4 -28 32 -43t64 -15q65 0 65 40q0 30 -46 40l-108 24q-51 12 -89 50.5t-38 107.5q0 73 57 116t140 43q84 0 139 -41.5t61 -125.5h-135q-10 48 -69 48t-61 -39q0 -29 40 -38l116 -26q52 -12 88.5 -49.5t36.5 -109.5
q0 -81 -56.5 -120t-144.5 -39zM304 638l141 67l21 -44l-162 -77l-162 77l21 44z" />
    <glyph glyph-name="uni0162" unicode="&#x162;" 
d="M568 567h-195v-567h-138v567h-195v133h528v-133zM372 -89l-100 -100l-36 37l100 99z" />
    <glyph glyph-name="uni0163" unicode="&#x163;" 
d="M360 119h179v-119h-217q-132 0 -132 132v265h-147v119h147v117h132v-117h217v-119h-217v-237q0 -20 8 -30.5t30 -10.5zM432 -89l-100 -100l-36 37l100 99z" />
    <glyph glyph-name="Tcaron" unicode="&#x164;" 
d="M568 567h-195v-567h-138v567h-195v133h528v-133zM304 792l141 67l21 -44l-162 -77l-162 77l21 44z" />
    <glyph glyph-name="tcaron" unicode="&#x165;" 
d="M455 700v-97l-18 -32h-56l24 44v85h50zM360 119h179v-119h-217q-132 0 -132 132v265h-147v119h147v117h132v-117h217v-119h-217v-237q0 -20 8 -30.5t30 -10.5z" />
    <glyph glyph-name="Tbar" unicode="&#x166;" 
d="M568 567h-195v-194h125v-45h-125v-328h-138v328h-125v45h125v194h-195v133h528v-133z" />
    <glyph glyph-name="tbar" unicode="&#x167;" 
d="M360 119h179v-119h-217q-132 0 -132 132v142h-147v43h147v80h-147v119h147v117h132v-117h217v-119h-217v-80h217v-43h-217v-114q0 -20 8 -30.5t30 -10.5z" />
    <glyph glyph-name="Utilde" unicode="&#x168;" 
d="M434 700h134v-451q0 -118 -70 -188.5t-194 -70.5t-194 70.5t-70 188.5v451h134v-451q0 -59 36.5 -92.5t93.5 -33.5t93.5 33.5t36.5 92.5v451zM475 813l-133 -71l-79 57l-107 -57l-23 43l133 71l79 -57l107 57z" />
    <glyph glyph-name="utilde" unicode="&#x169;" 
d="M302 119q39 0 67 25.5t28 74.5v297h132v-516h-132v56q-41 -66 -125 -66q-80 0 -138.5 57.5t-58.5 166.5v302h132v-297q0 -49 28 -74.5t67 -25.5zM473 659l-133 -71l-79 57l-107 -57l-23 43l133 71l79 -57l107 57z" />
    <glyph glyph-name="Umacron" unicode="&#x16a;" 
d="M434 700h134v-451q0 -118 -70 -188.5t-194 -70.5t-194 70.5t-70 188.5v451h134v-451q0 -59 36.5 -92.5t93.5 -33.5t93.5 33.5t36.5 92.5v451zM460 774h-312v50h312v-50z" />
    <glyph glyph-name="umacron" unicode="&#x16b;" 
d="M302 119q39 0 67 25.5t28 74.5v297h132v-516h-132v56q-41 -66 -125 -66q-80 0 -138.5 57.5t-58.5 166.5v302h132v-297q0 -49 28 -74.5t67 -25.5zM458 620h-312v50h312v-50z" />
    <glyph glyph-name="Ubreve" unicode="&#x16c;" 
d="M434 700h134v-451q0 -118 -70 -188.5t-194 -70.5t-194 70.5t-70 188.5v451h134v-451q0 -59 36.5 -92.5t93.5 -33.5t93.5 33.5t36.5 92.5v451zM334 743h-60q-46 0 -78.5 32.5t-32.5 78.5h49q0 -26 18 -44t44 -18h60q26 0 44 18t18 44h49q0 -46 -32.5 -78.5t-78.5 -32.5z
" />
    <glyph glyph-name="ubreve" unicode="&#x16d;" 
d="M302 119q39 0 67 25.5t28 74.5v297h132v-516h-132v56q-41 -66 -125 -66q-80 0 -138.5 57.5t-58.5 166.5v302h132v-297q0 -49 28 -74.5t67 -25.5zM332 589h-60q-46 0 -78.5 32.5t-32.5 78.5h49q0 -26 18 -44t44 -18h60q26 0 44 18t18 44h49q0 -46 -32.5 -78.5t-78.5 -32.5
z" />
    <glyph glyph-name="Uring" unicode="&#x16e;" 
d="M434 700h134v-451q0 -118 -70 -188.5t-194 -70.5t-194 70.5t-70 188.5v451h134v-451q0 -59 36.5 -92.5t93.5 -33.5t93.5 33.5t36.5 92.5v451zM190 765q0 47 33.5 81t80.5 34t81 -34t34 -81t-34 -80.5t-81 -33.5t-80.5 33.5t-33.5 80.5zM239 765q0 -27 19 -46t46 -19
t46.5 19t19.5 46t-19.5 46.5t-46.5 19.5t-46 -19.5t-19 -46.5z" />
    <glyph glyph-name="uring" unicode="&#x16f;" 
d="M302 119q39 0 67 25.5t28 74.5v297h132v-516h-132v56q-41 -66 -125 -66q-80 0 -138.5 57.5t-58.5 166.5v302h132v-297q0 -49 28 -74.5t67 -25.5zM188 595q0 47 33.5 81t80.5 34t81 -34t34 -81t-34 -80.5t-81 -33.5t-80.5 33.5t-33.5 80.5zM237 595q0 -27 19 -46t46 -19
t46.5 19t19.5 46t-19.5 46.5t-46.5 19.5t-46 -19.5t-19 -46.5z" />
    <glyph glyph-name="Uhungarumlaut" unicode="&#x170;" 
d="M434 700h134v-451q0 -118 -70 -188.5t-194 -70.5t-194 70.5t-70 188.5v451h134v-451q0 -59 36.5 -92.5t93.5 -33.5t93.5 33.5t36.5 92.5v451zM281 791l-127 -35l-13 48l127 35zM467 794l-127 -35l-13 48l127 35z" />
    <glyph glyph-name="uhungarumlaut" unicode="&#x171;" 
d="M302 119q39 0 67 25.5t28 74.5v297h132v-516h-132v56q-41 -66 -125 -66q-80 0 -138.5 57.5t-58.5 166.5v302h132v-297q0 -49 28 -74.5t67 -25.5zM279 637l-127 -35l-13 48l127 35zM465 640l-127 -35l-13 48l127 35z" />
    <glyph glyph-name="Uogonek" unicode="&#x172;" 
d="M409 -137v-50q-10 -2 -30 -2q-46 0 -72.5 28.5t-26.5 65.5q0 55 36 85h-12q-124 0 -194 70.5t-70 188.5v451h134v-451q0 -59 36.5 -92.5t93.5 -33.5t93.5 33.5t36.5 92.5v451h134v-451q0 -78 -31.5 -136.5t-89.5 -89.5q-59 -31 -88.5 -55.5t-29.5 -56.5q0 -23 14 -37
t42 -14q12 0 24 3z" />
    <glyph glyph-name="uogonek" unicode="&#x173;" 
d="M529 -137v-50q-10 -2 -30 -2q-46 0 -72.5 28.5t-26.5 65.5q0 66 51 95h-54v56q-41 -66 -125 -66q-80 0 -138.5 57.5t-58.5 166.5v302h132v-297q0 -49 28 -74.5t67 -25.5t67 25.5t28 74.5v297h132v-516q-35 -14 -57.5 -38t-22.5 -51q0 -23 14 -37t42 -14q12 0 24 3z" />
    <glyph glyph-name="Wcircumflex" unicode="&#x174;" 
d="M348 600l57 -400l58 500h135l-100 -700h-134l-60 420l-60 -420h-134l-100 700h135l58 -500l57 400h88zM445 738l-141 67l-141 -67l-21 44l162 77l162 -77z" />
    <glyph glyph-name="wcircumflex" unicode="&#x175;" 
d="M340 436l45 -282l38 362h135l-83 -516h-123l-48 286l-48 -286h-123l-83 516h135l38 -362l45 282h72zM445 584l-141 67l-141 -67l-21 44l162 77l162 -77z" />
    <glyph glyph-name="Ycircumflex" unicode="&#x176;" 
d="M371 255v-255h-134v255l-248 445h152l163 -292l163 292h152zM445 738l-141 67l-141 -67l-21 44l162 77l162 -77z" />
    <glyph glyph-name="ycircumflex" unicode="&#x177;" 
d="M558 516l-203 -565q-3 -8 -9.5 -27.5t-9.5 -27t-9.5 -22t-11.5 -20.5t-14 -15.5t-19 -13t-24 -6.5t-31 -3h-110v119h67q27 0 35 23l15 42l-184 516h139l115 -329l115 329h139zM445 584l-141 67l-141 -67l-21 44l162 77l162 -77z" />
    <glyph glyph-name="Ydieresis" unicode="&#x178;" 
d="M371 255v-255h-134v255l-248 445h152l163 -292l163 292h152zM148 761v76h76v-76h-76zM384 761v76h76v-76h-76z" />
    <glyph glyph-name="Zacute" unicode="&#x179;" 
d="M566 0h-533v133l350 434h-345v133h523v-133l-350 -434h355v-133zM439 811l-267 -73l-13 48l267 73z" />
    <glyph glyph-name="zacute" unicode="&#x17a;" 
d="M492 397l-222 -278h229v-119h-395v119l222 278h-215v119h381v-119zM441 657l-267 -73l-13 48l267 73z" />
    <glyph glyph-name="Zdotaccent" unicode="&#x17b;" 
d="M566 0h-533v133l350 434h-345v133h523v-133l-350 -434h355v-133zM261 761v76h76v-76h-76z" />
    <glyph glyph-name="zdotaccent" unicode="&#x17c;" 
d="M492 397l-222 -278h229v-119h-395v119l222 278h-215v119h381v-119zM263 607v76h76v-76h-76z" />
    <glyph glyph-name="Zcaron" unicode="&#x17d;" 
d="M566 0h-533v133l350 434h-345v133h523v-133l-350 -434h355v-133zM299 792l141 67l21 -44l-162 -77l-162 77l21 44z" />
    <glyph glyph-name="zcaron" unicode="&#x17e;" 
d="M492 397l-222 -278h229v-119h-395v119l222 278h-215v119h381v-119zM301 638l141 67l21 -44l-162 -77l-162 77l21 44z" />
    <glyph glyph-name="Scommaaccent" unicode="&#x218;" 
d="M310 -10q-114 0 -184 63t-75 168h138q6 -45 38.5 -71.5t82.5 -26.5q46 0 73 17.5t27 52.5q0 55 -72 74l-118 32q-79 21 -119.5 75t-40.5 132q0 99 66.5 151.5t165.5 52.5q103 0 166.5 -55t75.5 -146h-149q-9 33 -37 50.5t-63 17.5q-41 0 -66 -18t-25 -53q0 -51 70 -69
l114 -31q166 -45 166 -213q0 -96 -60.5 -149.5t-173.5 -53.5zM365 -89l-100 -100l-36 37l100 99z" />
    <glyph glyph-name="scommaaccent" unicode="&#x219;" 
d="M316 -10q-88 0 -154 45.5t-70 131.5h132q4 -28 32 -43t64 -15q65 0 65 40q0 30 -46 40l-108 24q-51 12 -89 50.5t-38 107.5q0 73 57 116t140 43q84 0 139 -41.5t61 -125.5h-135q-10 48 -69 48t-61 -39q0 -29 40 -38l116 -26q52 -12 88.5 -49.5t36.5 -109.5
q0 -81 -56.5 -120t-144.5 -39zM372 -89l-100 -100l-36 37l100 99z" />
    <glyph glyph-name="Tcommaaccent" unicode="&#x21a;" 
d="M568 567h-195v-567h-138v567h-195v133h528v-133zM372 -89l-100 -100l-36 37l100 99z" />
    <glyph glyph-name="tcommaaccent" unicode="&#x21b;" 
d="M360 119h179v-119h-217q-132 0 -132 132v265h-147v119h147v117h132v-117h217v-119h-217v-237q0 -20 8 -30.5t30 -10.5zM432 -89l-100 -100l-36 37l100 99z" />
    <glyph glyph-name="uni0232" unicode="&#x232;" 
d="M371 255v-255h-134v255l-248 445h152l163 -292l163 292h152zM460 774h-312v50h312v-50z" />
    <glyph glyph-name="uni0233" unicode="&#x233;" 
d="M558 516l-203 -565q-3 -8 -9.5 -27.5t-9.5 -27t-9.5 -22t-11.5 -20.5t-14 -15.5t-19 -13t-24 -6.5t-31 -3h-110v119h67q27 0 35 23l15 42l-184 516h139l115 -329l115 329h139zM460 620h-312v50h312v-50z" />
    <glyph glyph-name="dotlessj" unicode="&#x237;" 
d="M40 -65h229q22 0 30 10.5t8 30.5v421h-217v119h349v-568q0 -132 -132 -132h-267v119z" />
    <glyph glyph-name="circumflex" unicode="&#x2c6;" 
d="M445 584l-141 67l-141 -67l-21 44l162 77l162 -77z" />
    <glyph glyph-name="caron" unicode="&#x2c7;" 
d="M304 638l141 67l21 -44l-162 -77l-162 77l21 44z" />
    <glyph glyph-name="breve" unicode="&#x2d8;" 
d="M334 589h-60q-46 0 -78.5 32.5t-32.5 78.5h49q0 -26 18 -44t44 -18h60q26 0 44 18t18 44h49q0 -46 -32.5 -78.5t-78.5 -32.5z" />
    <glyph glyph-name="dotaccent" unicode="&#x2d9;" 
d="M266 607v76h76v-76h-76z" />
    <glyph glyph-name="ring" unicode="&#x2da;" 
d="M190 595q0 47 33.5 81t80.5 34t81 -34t34 -81t-34 -80.5t-81 -33.5t-80.5 33.5t-33.5 80.5zM239 595q0 -27 19 -46t46 -19t46.5 19t19.5 46t-19.5 46.5t-46.5 19.5t-46 -19.5t-19 -46.5z" />
    <glyph glyph-name="ogonek" unicode="&#x2db;" 
d="M329 -137v-50q-10 -2 -30 -2q-46 0 -72.5 28.5t-26.5 65.5q0 66 51 95h78q-35 -14 -57.5 -38t-22.5 -51q0 -23 14 -37t42 -14q12 0 24 3z" />
    <glyph glyph-name="tilde" unicode="&#x2dc;" 
d="M475 659l-133 -71l-79 57l-107 -57l-23 43l133 71l79 -57l107 57z" />
    <glyph glyph-name="hungarumlaut" unicode="&#x2dd;" 
d="M281 637l-127 -35l-13 48l127 35zM467 640l-127 -35l-13 48l127 35z" />
    <glyph glyph-name="uni032C" unicode="&#x32c;" 
d="M304 -72l141 67l21 -44l-162 -77l-162 77l21 44z" />
    <glyph glyph-name="Delta" unicode="&#x394;" 
d="M567 0h-526l263 710zM491 54l-187 505l-187 -505h374z" />
    <glyph glyph-name="Delta" unicode="&#x2206;" 
d="M567 0h-526l263 710zM491 54l-187 505l-187 -505h374z" />
    <glyph glyph-name="Omega" unicode="&#x3a9;" 
d="M103 0v54h96v60q-54 28 -85 82.5t-31 130.5v146q0 108 62 172.5t159 64.5t159 -64.5t62 -172.5v-146q0 -75 -31 -130t-85 -83v-60h96v-54h-151v150q53 14 84.5 59.5t31.5 117.5v146q0 89 -47 136t-119 47t-119 -47t-47 -136v-146q0 -72 31.5 -117.5t84.5 -59.5v-150h-151
z" />
    <glyph glyph-name="Omega" unicode="&#x2126;" 
d="M103 0v54h96v60q-54 28 -85 82.5t-31 130.5v146q0 108 62 172.5t159 64.5t159 -64.5t62 -172.5v-146q0 -75 -31 -130t-85 -83v-60h96v-54h-151v150q53 14 84.5 59.5t31.5 117.5v146q0 89 -47 136t-119 47t-119 -47t-47 -136v-146q0 -72 31.5 -117.5t84.5 -59.5v-150h-151
z" />
    <glyph glyph-name="pi" unicode="&#x3c0;" 
d="M106 465h-73v51h542v-51h-73v-465h-53v465h-290v-465h-53v465z" />
    <glyph glyph-name="Wgrave" unicode="&#x1e80;" 
d="M348 600l57 -400l58 500h135l-100 -700h-134l-60 420l-60 -420h-134l-100 700h135l58 -500l57 400h88zM431 738l-267 73l13 48l267 -73z" />
    <glyph glyph-name="wgrave" unicode="&#x1e81;" 
d="M340 436l45 -282l38 362h135l-83 -516h-123l-48 286l-48 -286h-123l-83 516h135l38 -362l45 282h72zM431 584l-267 73l13 48l267 -73z" />
    <glyph glyph-name="Wacute" unicode="&#x1e82;" 
d="M348 600l57 -400l58 500h135l-100 -700h-134l-60 420l-60 -420h-134l-100 700h135l58 -500l57 400h88zM444 811l-267 -73l-13 48l267 73z" />
    <glyph glyph-name="wacute" unicode="&#x1e83;" 
d="M340 436l45 -282l38 362h135l-83 -516h-123l-48 286l-48 -286h-123l-83 516h135l38 -362l45 282h72zM444 657l-267 -73l-13 48l267 73z" />
    <glyph glyph-name="Wdieresis" unicode="&#x1e84;" 
d="M348 600l57 -400l58 500h135l-100 -700h-134l-60 420l-60 -420h-134l-100 700h135l58 -500l57 400h88zM148 761v76h76v-76h-76zM384 761v76h76v-76h-76z" />
    <glyph glyph-name="wdieresis" unicode="&#x1e85;" 
d="M340 436l45 -282l38 362h135l-83 -516h-123l-48 286l-48 -286h-123l-83 516h135l38 -362l45 282h72zM148 607v76h76v-76h-76zM384 607v76h76v-76h-76z" />
    <glyph glyph-name="uni1ECA" unicode="&#x1eca;" 
d="M517 0h-426v133h146v434h-146v133h426v-133h-146v-434h146v-133zM266 -163v76h76v-76h-76z" />
    <glyph glyph-name="uni1ECB" unicode="&#x1ecb;" 
d="M555 0h-496v119h182v278h-132v119h264v-397h182v-119zM236 553v147h147v-147h-147zM269 -163v76h76v-76h-76z" />
    <glyph glyph-name="uni1ECC" unicode="&#x1ecc;" 
d="M568 249q0 -118 -70 -188.5t-194 -70.5t-194 70.5t-70 188.5v202q0 118 70 188.5t194 70.5t194 -70.5t70 -188.5v-202zM434 249v202q0 59 -36.5 92.5t-93.5 33.5t-93.5 -33.5t-36.5 -92.5v-202q0 -59 36.5 -92.5t93.5 -33.5t93.5 33.5t36.5 92.5zM266 -163v76h76v-76h-76
z" />
    <glyph glyph-name="uni1ECD" unicode="&#x1ecd;" 
d="M74 227v66q0 109 60.5 173t169.5 64t169.5 -64t60.5 -173v-66q0 -109 -60.5 -173t-169.5 -64t-169.5 64t-60.5 173zM402 210v100q0 46 -25.5 73.5t-72.5 27.5t-72.5 -27.5t-25.5 -73.5v-100q0 -46 25.5 -73.5t72.5 -27.5t72.5 27.5t25.5 73.5zM266 -163v76h76v-76h-76z
" />
    <glyph glyph-name="uni1EE4" unicode="&#x1ee4;" 
d="M434 700h134v-451q0 -118 -70 -188.5t-194 -70.5t-194 70.5t-70 188.5v451h134v-451q0 -59 36.5 -92.5t93.5 -33.5t93.5 33.5t36.5 92.5v451zM266 -163v76h76v-76h-76z" />
    <glyph glyph-name="uni1EE5" unicode="&#x1ee5;" 
d="M302 119q39 0 67 25.5t28 74.5v297h132v-516h-132v56q-41 -66 -125 -66q-80 0 -138.5 57.5t-58.5 166.5v302h132v-297q0 -49 28 -74.5t67 -25.5zM264 -163v76h76v-76h-76z" />
    <glyph glyph-name="Ygrave" unicode="&#x1ef2;" 
d="M371 255v-255h-134v255l-248 445h152l163 -292l163 292h152zM431 738l-267 73l13 48l267 -73z" />
    <glyph glyph-name="ygrave" unicode="&#x1ef3;" 
d="M558 516l-203 -565q-3 -8 -9.5 -27.5t-9.5 -27t-9.5 -22t-11.5 -20.5t-14 -15.5t-19 -13t-24 -6.5t-31 -3h-110v119h67q27 0 35 23l15 42l-184 516h139l115 -329l115 329h139zM431 584l-267 73l13 48l267 -73z" />
    <glyph glyph-name="endash" unicode="&#x2013;" 
d="M502 258h-396v45h396v-45z" />
    <glyph glyph-name="emdash" unicode="&#x2014;" 
d="M533 258h-459v45h459v-45z" />
    <glyph glyph-name="quoteleft" unicode="&#x2018;" 
d="M370 686l-87 -219l-46 19l87 219z" />
    <glyph glyph-name="quoteright" unicode="&#x2019;" 
d="M370 686l-87 -219l-46 19l87 219z" />
    <glyph glyph-name="quotesinglbase" unicode="&#x201a;" 
d="M370 100l-87 -219l-46 19l87 219z" />
    <glyph glyph-name="quotedblleft" unicode="&#x201c;" 
d="M482 686l-87 -219l-46 19l87 219zM259 686l-87 -219l-46 19l87 219z" />
    <glyph glyph-name="quotedblright" unicode="&#x201d;" 
d="M482 686l-87 -219l-46 19l87 219zM259 686l-87 -219l-46 19l87 219z" />
    <glyph glyph-name="quotedblbase" unicode="&#x201e;" 
d="M482 100l-87 -219l-46 19l87 219zM259 100l-87 -219l-46 19l87 219z" />
    <glyph glyph-name="dagger" unicode="&#x2020;" 
d="M501 471h-176v-558h-43v558h-176v45h176v184h43v-184h176v-45z" />
    <glyph glyph-name="daggerdbl" unicode="&#x2021;" 
d="M501 97h-176v-184h-43v184h-176v45h176v329h-176v45h176v184h43v-184h176v-45h-176v-329h176v-45z" />
    <glyph glyph-name="bullet" unicode="&#x2022;" 
d="M136 298q0 70 49 119t119 49t119 -49t49 -119t-49 -119t-119 -49t-119 49t-49 119z" />
    <glyph glyph-name="ellipsis" unicode="&#x2026;" 
d="M48 0v105h105v-105h-105zM251 0v105h105v-105h-105zM454 0v105h105v-105h-105z" />
    <glyph glyph-name="perthousand" unicode="&#x2030;" 
d="M54 567q0 57 40 97.5t97 40.5t97.5 -40.5t40.5 -97.5t-40.5 -97t-97.5 -40t-97 40t-40 97zM214 86q0 38 26.5 65t64.5 27q52 0 79 -45q27 45 78 45q38 0 65 -27t27 -65t-27 -64.5t-65 -26.5q-52 0 -78 44q-26 -44 -79 -44q-37 0 -64 26.5t-27 64.5zM71 150l434 435
l32 -32l-434 -435zM410 86q0 -22 15 -37t37 -15t37.5 15t15.5 37t-15.5 37.5t-37.5 15.5t-37 -15.5t-15 -37.5zM253 86q0 -22 15 -37t37 -15t37.5 15t15.5 37t-15.5 37.5t-37.5 15.5t-37 -15.5t-15 -37.5zM150 567q0 -18 11.5 -30.5t29.5 -12.5t30 12.5t12 30.5t-12 31
t-30 13t-29.5 -12.5t-11.5 -31.5z" />
    <glyph glyph-name="guilsinglleft" unicode="&#x2039;" 
d="M363 48l-210 210l210 210l32 -31l-179 -179l179 -179z" />
    <glyph glyph-name="guilsinglright" unicode="&#x203a;" 
d="M455 258l-210 -210l-32 31l179 179l-179 179l32 31z" />
    <glyph glyph-name="fraction" unicode="&#x2044;" horiz-adv-x="0" 
d="M-537 150l434 435l32 -32l-434 -435z" />
    <glyph glyph-name="zero.superior" unicode="&#x2070;" 
d="M304 395q-59 0 -100 41.5t-41 100.5v134q0 59 41 100.5t100 41.5t100.5 -41.5t41.5 -100.5v-134q0 -59 -41.5 -100.5t-100.5 -41.5zM304 478q22 0 35.5 15.5t13.5 36.5v102l-97 -96v-6q0 -21 13 -36.5t35 -15.5zM256 678v-102l97 97v5q0 21 -13.5 36.5t-35.5 15.5
t-35 -15.5t-13 -36.5z" />
    <glyph glyph-name="four.superior" unicode="&#x2074;" 
d="M407 401h-93v84h-169v89l172 236l73 -54l-137 -189h61v77h93v-77h43v-82h-43v-84z" />
    <glyph glyph-name="five.superior" unicode="&#x2075;" 
d="M311 395q-69 0 -109.5 40.5t-40.5 101.5h93q0 -27 13 -43t36 -16q22 0 35 15.5t13 36.5v6q0 21 -13 36.5t-35 15.5q-29 0 -40 -26l-97 67l39 178h210v-83h-135l-14 -63q19 10 44 10q52 0 92 -40t42 -96q-1 -61 -36 -100.5t-97 -39.5z" />
    <glyph glyph-name="six.superior" unicode="&#x2076;" 
d="M297 395q-58 0 -99 39.5t-43 96.5v-2v8v-6v6q3 43 34 84l139 189l73 -54l-65 -88q30 -6 50 -22q49 -38 52 -111v2v-2v-4q-2 -57 -43 -96.5t-98 -39.5zM297 478q22 0 35 15.5t13 36.5v6q0 21 -13 36.5t-35 15.5t-35.5 -15.5t-13.5 -36.5v-6q0 -21 13.5 -36.5t35.5 -15.5z
" />
    <glyph glyph-name="seven.superior" unicode="&#x2077;" 
d="M165 661v146h279v-83l-127 -326l-84 32l114 294h-89v-63h-93z" />
    <glyph glyph-name="eight.superior" unicode="&#x2078;" 
d="M304 395q-57 0 -97.5 40.5t-40.5 97.5q0 64 49 106q-19 30 -19 65q0 45 31.5 77t76.5 32t77 -32t32 -77q0 -35 -19 -65q48 -42 48 -106q0 -57 -40 -97.5t-98 -40.5zM304 478q24 0 36.5 17t12.5 42t-12.5 42t-36.5 17q-23 0 -35.5 -17t-12.5 -42t12.5 -42t35.5 -17z
M304 672q22 0 22 29t-22 29q-21 0 -21 -29t21 -29z" />
    <glyph glyph-name="nine.superior" unicode="&#x2079;" 
d="M311 813q59 0 100.5 -41.5t41.5 -100.5q-3 -40 -34 -84l-139 -189l-73 54l65 88q-30 6 -50 22q-50 37 -52 110v-1v6v-5v5q2 57 43 96.5t98 39.5zM311 730q-22 0 -35 -15.5t-13 -36.5v-6q0 -21 13 -36.5t35 -15.5t35.5 15.5t13.5 36.5v6q0 21 -13.5 36.5t-35.5 15.5z" />
    <glyph glyph-name="plus.superior" unicode="&#x207a;" 
d="M292 449v102h-103v26h103v101h26v-101h101v-26h-101v-102h-26z" />
    <glyph glyph-name="minus.superior" unicode="&#x207b;" 
d="M419 551h-230v26h230v-26z" />
    <glyph glyph-name="equal.superior" unicode="&#x207c;" 
d="M419 604h-230v26h230v-26zM419 491h-230v26h230v-26z" />
    <glyph glyph-name="parenleft.superior" unicode="&#x207d;" 
d="M273 407v340q0 31 13 45.5t49 14.5h69v-24h-69q-22 0 -29.5 -8.5t-7.5 -27.5v-340q0 -19 7.5 -27t29.5 -8h69v-24h-69q-36 0 -49 14t-13 45z" />
    <glyph glyph-name="parenright.superior" unicode="&#x207e;" 
d="M336 747v-340q0 -30 -13.5 -44.5t-48.5 -14.5h-69v24h69q21 0 29 8.5t8 26.5v340q0 19 -7.5 27.5t-29.5 8.5h-69v24h69q35 0 48.5 -14.5t13.5 -45.5z" />
    <glyph glyph-name="n.superior" unicode="&#x207f;" 
d="M164 401v299h93v-25q23 33 68 33q51 0 86.5 -36.5t35.5 -99.5v-171h-93v166q0 25 -14 37.5t-35 12.5q-20 0 -34 -12.5t-14 -37.5v-166h-93z" />
    <glyph glyph-name="zero.inferior" unicode="&#x2080;" 
d="M304 -103q-59 0 -100 41.5t-41 100.5v134q0 59 41 100.5t100 41.5t100.5 -41.5t41.5 -100.5v-134q0 -59 -41.5 -100.5t-100.5 -41.5zM304 -20q22 0 35.5 15.5t13.5 36.5v102l-97 -96v-6q0 -21 13 -36.5t35 -15.5zM256 180v-102l97 97v5q0 21 -13.5 36.5t-35.5 15.5
t-35 -15.5t-13 -36.5z" />
    <glyph glyph-name="one.inferior" unicode="&#x2081;" 
d="M219 134l-63 63l112 112h93v-323h105v-83h-304v83h106v197z" />
    <glyph glyph-name="two.inferior" unicode="&#x2082;" 
d="M267 147l-69 -62q-34 38 -34 88q0 59 41 100.5t100 41.5t100.5 -41.5t41.5 -100.5q0 -36 -13.5 -58.5t-50.5 -55.5l-83 -73h147v-83h-283v83l161 144q29 26 29 48q0 24 -12.5 39t-36.5 15q-23 0 -35.5 -15t-12.5 -39q0 -13 10 -31z" />
    <glyph glyph-name="three.inferior" unicode="&#x2083;" 
d="M308 -103q-70 0 -110 40.5t-40 101.5h93q0 -25 12 -42t36 -17q25 0 37 17t12 42q0 21 -13.5 38t-35.5 17v83q20 0 20 25q0 30 -20 30t-20 -30h-93q0 47 33 80t80 33t80 -33t33 -80q0 -32 -18 -60q47 -41 47 -103t-35 -102t-98 -40z" />
    <glyph glyph-name="four.inferior" unicode="&#x2084;" 
d="M407 -97h-93v84h-169v89l172 236l73 -54l-137 -189h61v77h93v-77h43v-82h-43v-84z" />
    <glyph glyph-name="five.inferior" unicode="&#x2085;" 
d="M311 -103q-69 0 -109.5 40.5t-40.5 101.5h93q0 -27 13 -43t36 -16q22 0 35 15.5t13 36.5v6q0 21 -13 36.5t-35 15.5q-29 0 -40 -26l-97 67l39 178h210v-83h-135l-14 -63q19 10 44 10q52 0 92 -40t42 -96q-1 -61 -36 -100.5t-97 -39.5z" />
    <glyph glyph-name="six.inferior" unicode="&#x2086;" 
d="M297 -103q-58 0 -99 39.5t-43 96.5v-2v8v-6v6q3 43 34 84l139 189l73 -54l-65 -88q30 -6 50 -22q49 -38 52 -111v2v-2v-4q-2 -57 -43 -96.5t-98 -39.5zM297 -20q22 0 35 15.5t13 36.5v6q0 21 -13 36.5t-35 15.5t-35.5 -15.5t-13.5 -36.5v-6q0 -21 13.5 -36.5t35.5 -15.5z
" />
    <glyph glyph-name="seven.inferior" unicode="&#x2087;" 
d="M165 163v146h279v-83l-127 -326l-84 32l114 294h-89v-63h-93z" />
    <glyph glyph-name="eight.inferior" unicode="&#x2088;" 
d="M304 -103q-57 0 -97.5 40.5t-40.5 97.5q0 64 49 106q-19 30 -19 65q0 45 31.5 77t76.5 32t77 -32t32 -77q0 -35 -19 -65q48 -42 48 -106q0 -57 -40 -97.5t-98 -40.5zM304 -20q24 0 36.5 17t12.5 42t-12.5 42t-36.5 17q-23 0 -35.5 -17t-12.5 -42t12.5 -42t35.5 -17z
M304 174q22 0 22 29t-22 29q-21 0 -21 -29t21 -29z" />
    <glyph glyph-name="nine.inferior" unicode="&#x2089;" 
d="M311 315q59 0 100.5 -41.5t41.5 -100.5q-3 -40 -34 -84l-139 -189l-73 54l65 88q-30 6 -50 22q-50 37 -52 110v-1v6v-5v5q2 57 43 96.5t98 39.5zM311 232q-22 0 -35 -15.5t-13 -36.5v-6q0 -21 13 -36.5t35 -15.5t35.5 15.5t13.5 36.5v6q0 21 -13.5 36.5t-35.5 15.5z" />
    <glyph glyph-name="parenleft.inferior" unicode="&#x208d;" 
d="M273 -91v340q0 31 13 45.5t49 14.5h69v-24h-69q-22 0 -29.5 -8.5t-7.5 -27.5v-340q0 -19 7.5 -27t29.5 -8h69v-24h-69q-36 0 -49 14t-13 45z" />
    <glyph glyph-name="parenright.inferior" unicode="&#x208e;" 
d="M336 249v-340q0 -30 -13.5 -44.5t-48.5 -14.5h-69v24h69q21 0 29 8.5t8 26.5v340q0 19 -7.5 27.5t-29.5 8.5h-69v24h69q35 0 48.5 -14.5t13.5 -45.5z" />
    <glyph glyph-name="Euro" unicode="&#x20ac;" 
d="M71 426v25q0 118 70 188.5t194 70.5q120 0 189.5 -66t74.5 -178h-132q-4 60 -40.5 92.5t-91.5 32.5q-58 0 -95 -35t-37 -101v-29h214v-43h-214v-65h214v-43h-214v-30q0 -66 37 -101t95 -35q55 0 91.5 32.5t40.5 92.5h132q-5 -112 -74.5 -178t-189.5 -66q-124 0 -194 70.5
t-70 188.5v26h-70v43h70v65h-70v43h70z" />
    <glyph glyph-name="afii61289" unicode="&#x2113;" 
d="M164 138v13l-48 -38l-22 28l70 56v353q0 79 40.5 119.5t101.5 40.5q132 0 132 -150q0 -74 -39.5 -160t-102.5 -142v-126q0 -48 17.5 -68t52.5 -20q22 0 63 9l9 -31q-59 -32 -120 -32q-66 0 -110 37t-44 111zM296 521v-214q43 47 74.5 112.5t31.5 109.5q0 29 -11.5 51
t-39.5 22q-55 0 -55 -81z" />
    <glyph glyph-name="afii61352" unicode="&#x2116;" 
d="M568 395v-90h-128v90h128zM400 700v-700h-114l-132 451v-451h-114v700h114l132 -451v451h114zM440 425v94q18 0 30 12.5t12 30.5t-12 31t-30 13v94q57 0 97.5 -40.5t40.5 -97.5t-40.5 -97t-97.5 -40z" />
    <glyph glyph-name="uni2117" unicode="&#x2117;" 
d="M525 249v202q0 98 -58.5 157.5t-162.5 59.5t-162.5 -59.5t-58.5 -157.5v-202q0 -98 58.5 -157.5t162.5 -59.5t162.5 59.5t58.5 157.5zM568 451v-202q0 -118 -70 -188.5t-194 -70.5t-194 70.5t-70 188.5v202q0 118 70 188.5t194 70.5t194 -70.5t70 -188.5zM171 173v349
h162q69 0 101.5 -39.5t32.5 -93.5t-32.5 -94.5t-101.5 -40.5h-69v-81h-93zM264 347h69q23 0 32 13.5t9 28.5q0 14 -9 27.5t-32 13.5h-69v-83z" />
    <glyph glyph-name="trademark" unicode="&#x2122;" 
d="M94 357v250h-76v93h249v-93h-76v-250h-97zM301 357v343h87l58 -147l58 147h87v-343h-93v154l-24 -62h-56l-24 62v-154h-93z" />
    <glyph glyph-name="estimated" unicode="&#x212e;" 
d="M303 609q-68 0 -127 -49q-12 -10 -12 -25v-191q0 -10 10 -10h260q10 0 10 10v191q0 15 -12 25q-58 49 -129 49zM313 -10q-121 0 -201 95.5t-80 231.5q0 129 79 228t192 99t193 -98.5t80 -228.5v-17h-402q-10 0 -10 -10v-191q0 -15 12 -25q59 -49 137 -49q90 0 159 69h50
q-87 -104 -209 -104z" />
    <glyph glyph-name="onethird" unicode="&#x2153;" 
d="M69 606l-29 29l65 65h42v-221h67v-40h-177v40h68v164zM71 150l434 435l32 -32l-434 -435zM469 119v38h3q12 1 20.5 11t8.5 23q0 14 -9 23.5t-23 9.5t-23 -9.5t-9 -23.5h-42q0 31 21.5 52.5t52.5 21.5t52.5 -21.5t21.5 -52.5q0 -30 -22 -52q29 -24 29 -62
q0 -34 -23.5 -57.5t-57.5 -23.5t-57.5 23.5t-23.5 57.5h42q0 -17 11 -28.5t28 -11.5t28 11.5t11 28.5t-10 29t-26 13h-3z" />
    <glyph glyph-name="twothirds" unicode="&#x2154;" 
d="M92 593l-29 -29q-25 23 -25 59q0 34 23.5 57.5t57.5 23.5t57.5 -23.5t23.5 -57.5q0 -36 -35 -72l-70 -72h105v-40h-162v40l96 99q24 24 24 45q0 17 -10.5 28.5t-28.5 11.5q-17 0 -28 -11.5t-11 -28.5q0 -18 12 -30zM71 150l434 435l32 -32l-434 -435zM469 119v38h3
q12 1 20.5 11t8.5 23q0 14 -9 23.5t-23 9.5t-23 -9.5t-9 -23.5h-42q0 31 21.5 52.5t52.5 21.5t52.5 -21.5t21.5 -52.5q0 -30 -22 -52q29 -24 29 -62q0 -34 -23.5 -57.5t-57.5 -23.5t-57.5 23.5t-23.5 57.5h42q0 -17 11 -28.5t28 -11.5t28 11.5t11 28.5t-10 29t-26 13h-3z
" />
    <glyph glyph-name="uni2155" unicode="&#x2155;" 
d="M69 606l-29 29l65 65h42v-221h67v-40h-177v40h68v164zM71 150l434 435l32 -32l-434 -435zM464 -4q-34 0 -57.5 23.5t-23.5 57.5h42q0 -17 11 -28.5t28 -11.5q18 0 28.5 11.5t10.5 28.5v11q0 17 -11 29t-28 12q-20 0 -33 -20l-44 34l26 118h116v-40h-83l-13 -61q16 9 33 9
q32 0 55.5 -23.5t23.5 -57.5v-11q0 -34 -23.5 -57.5t-57.5 -23.5z" />
    <glyph glyph-name="uni2156" unicode="&#x2156;" 
d="M92 593l-29 -29q-25 23 -25 59q0 34 23.5 57.5t57.5 23.5t57.5 -23.5t23.5 -57.5q0 -36 -35 -72l-70 -72h105v-40h-162v40l96 99q24 24 24 45q0 17 -10.5 28.5t-28.5 11.5q-17 0 -28 -11.5t-11 -28.5q0 -18 12 -30zM71 150l434 435l32 -32l-434 -435zM464 -4
q-34 0 -57.5 23.5t-23.5 57.5h42q0 -17 11 -28.5t28 -11.5q18 0 28.5 11.5t10.5 28.5v11q0 17 -11 29t-28 12q-20 0 -33 -20l-44 34l26 118h116v-40h-83l-13 -61q16 9 33 9q32 0 55.5 -23.5t23.5 -57.5v-11q0 -34 -23.5 -57.5t-57.5 -23.5z" />
    <glyph glyph-name="uni2157" unicode="&#x2157;" 
d="M134 558v38h3q12 1 20.5 11t8.5 23q0 14 -9 23.5t-23 9.5t-23 -9.5t-9 -23.5h-42q0 31 21.5 52.5t52.5 21.5t52.5 -21.5t21.5 -52.5q0 -30 -22 -52q29 -24 29 -62q0 -34 -23.5 -57.5t-57.5 -23.5t-57.5 23.5t-23.5 57.5h42q0 -17 11 -28.5t28 -11.5t28 11.5t11 28.5
t-10 29t-26 13h-3zM71 150l434 435l32 -32l-434 -435zM464 -4q-34 0 -57.5 23.5t-23.5 57.5h42q0 -17 11 -28.5t28 -11.5q18 0 28.5 11.5t10.5 28.5v11q0 17 -11 29t-28 12q-20 0 -33 -20l-44 34l26 118h116v-40h-83l-13 -61q16 9 33 9q32 0 55.5 -23.5t23.5 -57.5v-11
q0 -34 -23.5 -57.5t-57.5 -23.5z" />
    <glyph glyph-name="uni2158" unicode="&#x2158;" 
d="M199 439h-42v63h-115v40l116 160l33 -24l-99 -136h65v53h42v-53h27v-40h-27v-63zM71 150l434 435l32 -32l-434 -435zM464 -4q-34 0 -57.5 23.5t-23.5 57.5h42q0 -17 11 -28.5t28 -11.5q18 0 28.5 11.5t10.5 28.5v11q0 17 -11 29t-28 12q-20 0 -33 -20l-44 34l26 118h116
v-40h-83l-13 -61q16 9 33 9q32 0 55.5 -23.5t23.5 -57.5v-11q0 -34 -23.5 -57.5t-57.5 -23.5z" />
    <glyph glyph-name="uni2159" unicode="&#x2159;" 
d="M69 606l-29 29l65 65h42v-221h67v-40h-177v40h68v164zM71 150l434 435l32 -32l-434 -435zM456 -4q-34 0 -58 23.5t-24 57.5v11q0 27 17 49l92 126l33 -24l-52 -70q30 -2 51.5 -25.5t21.5 -55.5v-11q0 -34 -24 -57.5t-57 -23.5zM456 37q17 0 28 11.5t11 28.5v11
q0 17 -11 29t-28 12q-18 0 -29 -12t-11 -29v-11q0 -17 11 -28.5t29 -11.5z" />
    <glyph glyph-name="uni215A" unicode="&#x215a;" 
d="M144 435q-34 0 -57.5 23.5t-23.5 57.5h42q0 -17 11 -28.5t28 -11.5q18 0 28.5 11.5t10.5 28.5v11q0 17 -11 29t-28 12q-20 0 -33 -20l-44 34l26 118h116v-40h-83l-13 -61q16 9 33 9q32 0 55.5 -23.5t23.5 -57.5v-11q0 -34 -23.5 -57.5t-57.5 -23.5zM71 150l434 435
l32 -32l-434 -435zM456 -4q-34 0 -58 23.5t-24 57.5v11q0 27 17 49l92 126l33 -24l-52 -70q30 -2 51.5 -25.5t21.5 -55.5v-11q0 -34 -24 -57.5t-57 -23.5zM456 37q17 0 28 11.5t11 28.5v11q0 17 -11 29t-28 12q-18 0 -29 -12t-11 -29v-11q0 -17 11 -28.5t29 -11.5z" />
    <glyph glyph-name="oneeighth" unicode="&#x215b;" 
d="M69 606l-29 29l65 65h42v-221h67v-40h-177v40h68v164zM71 150l434 435l32 -32l-434 -435zM474 -4q-34 0 -57.5 23.5t-23.5 57.5q0 38 29 62q-21 21 -21 52t21 52.5t52 21.5t52.5 -21.5t21.5 -52.5t-21 -52q29 -24 29 -62q0 -34 -24 -57.5t-58 -23.5zM474 37
q17 0 28.5 11.5t11.5 28.5t-11.5 29t-28.5 12t-28 -12t-11 -29t11 -28.5t28 -11.5zM474 158q14 0 23 9.5t9 23.5t-9 23.5t-23 9.5t-22.5 -9.5t-8.5 -23.5t8.5 -23.5t22.5 -9.5z" />
    <glyph glyph-name="threeeighths" unicode="&#x215c;" 
d="M134 558v38h3q12 1 20.5 11t8.5 23q0 14 -9 23.5t-23 9.5t-23 -9.5t-9 -23.5h-42q0 31 21.5 52.5t52.5 21.5t52.5 -21.5t21.5 -52.5q0 -30 -22 -52q29 -24 29 -62q0 -34 -23.5 -57.5t-57.5 -23.5t-57.5 23.5t-23.5 57.5h42q0 -17 11 -28.5t28 -11.5t28 11.5t11 28.5
t-10 29t-26 13h-3zM71 150l434 435l32 -32l-434 -435zM474 -4q-34 0 -57.5 23.5t-23.5 57.5q0 38 29 62q-21 21 -21 52t21 52.5t52 21.5t52.5 -21.5t21.5 -52.5t-21 -52q29 -24 29 -62q0 -34 -24 -57.5t-58 -23.5zM474 37q17 0 28.5 11.5t11.5 28.5t-11.5 29t-28.5 12
t-28 -12t-11 -29t11 -28.5t28 -11.5zM474 158q14 0 23 9.5t9 23.5t-9 23.5t-23 9.5t-22.5 -9.5t-8.5 -23.5t8.5 -23.5t22.5 -9.5z" />
    <glyph glyph-name="fiveeighths" unicode="&#x215d;" 
d="M144 435q-34 0 -57.5 23.5t-23.5 57.5h42q0 -17 11 -28.5t28 -11.5q18 0 28.5 11.5t10.5 28.5v11q0 17 -11 29t-28 12q-20 0 -33 -20l-44 34l26 118h116v-40h-83l-13 -61q16 9 33 9q32 0 55.5 -23.5t23.5 -57.5v-11q0 -34 -23.5 -57.5t-57.5 -23.5zM71 150l434 435
l32 -32l-434 -435zM474 -4q-34 0 -57.5 23.5t-23.5 57.5q0 38 29 62q-21 21 -21 52t21 52.5t52 21.5t52.5 -21.5t21.5 -52.5t-21 -52q29 -24 29 -62q0 -34 -24 -57.5t-58 -23.5zM474 37q17 0 28.5 11.5t11.5 28.5t-11.5 29t-28.5 12t-28 -12t-11 -29t11 -28.5t28 -11.5z
M474 158q14 0 23 9.5t9 23.5t-9 23.5t-23 9.5t-22.5 -9.5t-8.5 -23.5t8.5 -23.5t22.5 -9.5z" />
    <glyph glyph-name="seveneighths" unicode="&#x215e;" 
d="M77 621v79h160v-40l-80 -223l-38 14l75 209h-75v-39h-42zM71 150l434 435l32 -32l-434 -435zM474 -4q-34 0 -57.5 23.5t-23.5 57.5q0 38 29 62q-21 21 -21 52t21 52.5t52 21.5t52.5 -21.5t21.5 -52.5t-21 -52q29 -24 29 -62q0 -34 -24 -57.5t-58 -23.5zM474 37
q17 0 28.5 11.5t11.5 28.5t-11.5 29t-28.5 12t-28 -12t-11 -29t11 -28.5t28 -11.5zM474 158q14 0 23 9.5t9 23.5t-9 23.5t-23 9.5t-22.5 -9.5t-8.5 -23.5t8.5 -23.5t22.5 -9.5z" />
    <glyph glyph-name="uni215F" unicode="&#x215f;" horiz-adv-x="0" 
d="M69 606l-29 29l65 65h42v-221h67v-40h-177v40h68v164zM71 150l434 435l32 -32l-434 -435z" />
    <glyph glyph-name="uni2190" unicode="&#x2190;" 
d="M107 253l234 -233l-30 -30l-286 285l286 285l30 -30l-234 -233h476v-44h-476z" />
    <glyph glyph-name="uni2191" unicode="&#x2191;" 
d="M559 394l-233 234v-628h-44v628l-233 -234l-30 30l285 286l285 -286z" />
    <glyph glyph-name="uni2192" unicode="&#x2192;" 
d="M267 20l234 233h-476v44h476l-234 233l30 30l286 -285l-286 -285z" />
    <glyph glyph-name="uni2193" unicode="&#x2193;" 
d="M326 82l233 234l30 -30l-285 -286l-285 286l30 30l233 -234v628h44v-628z" />
    <glyph glyph-name="uni2196" unicode="&#x2196;" 
d="M461 473h-330l452 -452l-31 -31l-453 452v-330h-43v404h405v-43z" />
    <glyph glyph-name="uni2197" unicode="&#x2197;" 
d="M477 473h-330v43h405v-404h-43v330l-453 -452l-31 31z" />
    <glyph glyph-name="uni2198" unicode="&#x2198;" 
d="M147 43h330l-452 452l31 31l453 -452v330h43v-404h-405v43z" />
    <glyph glyph-name="uni2199" unicode="&#x2199;" 
d="M131 43h330v-43h-405v404h43v-330l453 452l31 -31z" />
    <glyph glyph-name="uni21B0" unicode="&#x21b0;" 
d="M107 253l234 -233l-30 -30l-286 285l286 285l30 -30l-234 -233h418v-481h-44v437h-374z" />
    <glyph glyph-name="uni21B1" unicode="&#x21b1;" 
d="M127 253v-437h-44v481h418l-234 233l30 30l286 -285l-286 -285l-30 30l234 233h-374z" />
    <glyph glyph-name="uni21B2" unicode="&#x21b2;" 
d="M107 253l234 -233l-30 -30l-286 285l286 285l30 -30l-234 -233h374v403h44v-447h-418z" />
    <glyph glyph-name="uni21B3" unicode="&#x21b3;" 
d="M127 700v-403h374l-234 233l30 30l286 -285l-286 -285l-30 30l234 233h-418v447h44z" />
    <glyph glyph-name="partialdiff" unicode="&#x2202;" 
d="M482 552q0 113 -128 113q-67 0 -119 -43t-64 -114l-1 -8h-45l1 8q19 104 86.5 153t151.5 49q67 0 115 -36.5t48 -112.5q0 -29 -5 -53l-61 -316q-19 -104 -86.5 -153t-151.5 -49q-67 0 -115 36.5t-48 112.5q0 15 12 89q19 104 86 153t151 49q48 0 86 -21.5t53 -53.5
l29 153q5 28 5 44zM233 35q67 0 119 43t64 114q12 67 12 80q0 53 -31.5 83t-97.5 30q-67 0 -118.5 -43t-63.5 -114q-12 -67 -12 -80q0 -113 128 -113z" />
    <glyph glyph-name="product" unicode="&#x220f;" 
d="M83 0v700h442v-700h-55v647h-332v-647h-55z" />
    <glyph glyph-name="summation" unicode="&#x2211;" 
d="M48 -142l321 400l-321 400v42h512v-42h-454l321 -400l-321 -400h454v-42h-512v42z" />
    <glyph glyph-name="minus" unicode="&#x2212;" 
d="M502 258h-396v45h396v-45z" />
    <glyph glyph-name="radical" unicode="&#x221a;" 
d="M245 47l193 653h102v-42h-69l-194 -658h-64l-77 258h-68v42h102z" />
    <glyph glyph-name="infinity" unicode="&#x221e;" 
d="M74 336q0 53 36.5 89.5t88.5 36.5q67 0 104 -55q38 55 104 55q53 0 89.5 -37t36.5 -89t-36.5 -88.5t-89.5 -36.5q-66 0 -104 54q-36 -54 -104 -54q-53 0 -89 36.5t-36 88.5zM325 336q0 -35 23.5 -59t58.5 -24t59 24t24 59t-24 59.5t-59 24.5q-34 0 -57.5 -23.5
t-24.5 -57.5v-3zM117 336q0 -35 23.5 -59t58.5 -24t59 24t24 59v3q-2 34 -25.5 57.5t-57.5 23.5q-35 0 -58.5 -24.5t-23.5 -59.5z" />
    <glyph glyph-name="integral" unicode="&#x222b;" 
d="M326 597v-678q0 -53 -23 -78t-84 -25h-118v42h118q38 0 51 14t13 47v678q0 53 23 78t84 25h118v-42h-118q-38 0 -51 -14t-13 -47z" />
    <glyph glyph-name="approxequal" unicode="&#x2248;" 
d="M513 396l-159 -86l-102 73l-135 -73l-21 38l159 86l102 -73l135 73zM513 201l-159 -86l-102 73l-135 -73l-21 38l159 86l102 -73l135 73z" />
    <glyph glyph-name="notequal" unicode="&#x2260;" 
d="M502 155h-241l-65 -117l-37 22l53 95h-106v45h396v-45zM449 490l-53 -95h106v-45h-396v45h240l66 117z" />
    <glyph glyph-name="lessequal" unicode="&#x2264;" 
d="M502 0h-396v45h396v-45zM502 119l-396 180v44l396 180v-48l-338 -154l338 -154v-48z" />
    <glyph glyph-name="greaterequal" unicode="&#x2265;" 
d="M502 0h-396v45h396v-45zM502 299l-396 -180v48l338 154l-338 154v48l396 -180v-44z" />
    <glyph glyph-name="uni25A0" unicode="&#x25a0;" 
d="M46 0v516h516v-516h-516z" />
    <glyph glyph-name="uni25A1" unicode="&#x25a1;" 
d="M46 0v516h516v-516h-516zM90 472v-428h428v428h-428z" />
    <glyph glyph-name="lozenge" unicode="&#x25ca;" 
d="M561 350l-257 -360l-257 360l257 360zM103 350l201 -281l201 281l-201 281z" />
    <glyph glyph-name="uni25CB" unicode="&#x25cb;" 
d="M34 260q0 112 79 191t191 79t191 -79t79 -191t-79 -191t-191 -79t-191 79t-79 191zM77 260q0 -94 66.5 -160.5t160.5 -66.5t160.5 66.5t66.5 160.5t-66.5 160.5t-160.5 66.5t-160.5 -66.5t-66.5 -160.5z" />
    <glyph glyph-name="uni25CF" unicode="&#x25cf;" 
d="M34 260q0 112 79 191t191 79t191 -79t79 -191t-79 -191t-191 -79t-191 79t-79 191z" />
    <glyph glyph-name="fi" unicode="&#xfb01;" 
d="M553 516v-516h-132v397h-196v-397h-132v397h-73v119h73v52q0 132 132 132h127v-119h-89q-22 0 -30 -10.5t-8 -30.5v-24h328zM416 553v147h147v-147h-147z" />
    <glyph glyph-name="fl" unicode="&#xfb02;" 
d="M553 700v-700h-132v581h-158q-22 0 -30 -10.5t-8 -30.5v-24h127v-119h-127v-397h-132v397h-73v119h73v52q0 132 132 132h328z" />
    <glyph glyph-name="CR" horiz-adv-x="0" 
 />
    <glyph glyph-name="apple" 
d="M155 26q-27 6 -38 24.5t-11 53.5v256q-27 0 -37 24q-24 10 -24 37q0 17 11 28q-36 18 -36 59t36 59q-11 11 -11 28q0 15 9 26.5t23 13.5q6 21 23.5 34.5t39.5 13.5q24 0 44 -17q7 19 23.5 31.5t37.5 12.5q34 0 55 -31q14 7 29 7q41 0 59 -37q12 12 28 12q27 0 37 -24
q22 -5 36.5 -23.5t14.5 -40.5q0 -38 -34 -57v-38h4q46 0 63 -18t17 -62v-215q0 -44 -17 -62t-63 -18h-4q0 -35 -11 -53t-38 -24v-26h-266v26zM421 104v406q-16 4 -29 17h-83q-19 -19 -46 -19q-34 0 -53 27q-8 -3 -16 -3q-18 0 -29 11q-6 -10 -10 -15v-424q0 -19 7 -26.5
t25 -7.5h202q18 0 25 7.5t7 26.5zM85 462v-19q-9 0 -15 -6.5t-6 -15.5t6 -15t15 -6q0 -9 6 -15t15 -6v147q19 0 32 12t15 30v4h19q0 -21 22 -21q9 0 15 6t6 15h19q0 -13 -9 -26q13 -19 38 -19q20 0 33.5 13.5t13.5 32.5h82q0 -19 13 -32.5t33 -13.5t33.5 13.5t13.5 32.5
t-13.5 33t-33.5 14q0 9 -6.5 15.5t-15.5 6.5t-15 -6t-6 -16h-19q0 20 -14 33.5t-33 13.5q-32 0 -43 -30q28 -9 28 -38h-19q0 9 -6.5 15t-15.5 6t-15 -6t-6 -15h-19q0 15 9.5 26t23.5 13q6 19 19 30q-13 23 -40 23q-19 0 -32 -13t-14 -32q7 -16 7 -29h-19q0 19 -13.5 33
t-33.5 14q-33 0 -43 -30q29 -9 29 -39h-19q0 9 -6.5 15.5t-15.5 6.5t-15 -6.5t-6 -15.5q0 -19 17 -21h4v-19h-4q-18 -2 -30 -15t-12 -32t12 -32t30 -14h4zM505 183v215q0 19 -7 26.5t-24 7.5h-4v-283h4q17 0 24 7.5t7 26.5zM196 103v375h15v-375h-15zM364 103v375h15v-375
h-15zM308 103v375h15v-375h-15zM252 103v375h15v-375h-15z" />
    <glyph glyph-name="f_i" 
d="M553 516v-516h-132v397h-196v-397h-132v397h-73v119h73v52q0 132 132 132h127v-119h-89q-22 0 -30 -10.5t-8 -30.5v-24h328zM416 553v147h147v-147h-147z" />
    <glyph glyph-name="f_l" 
d="M553 700v-700h-132v581h-158q-22 0 -30 -10.5t-8 -30.5v-24h127v-119h-127v-397h-132v397h-73v119h73v52q0 132 132 132h328z" />
    <glyph glyph-name="commaaccent" 
d="M372 -89l-100 -100l-36 37l100 99z" />
    <glyph glyph-name="one.case" 
d="M163 410l-92 102l183 188h134v-567h182v-133h-498v133h182v363z" />
    <glyph glyph-name="two.case" 
d="M236 419l-96 -100q-65 66 -65 153q0 98 67.5 168t163.5 70t163.5 -70t67.5 -168q0 -62 -22 -100t-80 -96l-168 -143h270v-133h-462v133l275 257q32 30 42.5 48.5t10.5 39.5q0 43 -26 71t-71 28t-71 -28t-26 -71q0 -30 27 -59z" />
    <glyph glyph-name="three.case" 
d="M295 329v133q28 0 44.5 16t16.5 37q0 26 -15.5 44t-45.5 18t-45.5 -18t-15.5 -44h-134q0 81 57 138t138 57t138 -57t57 -138q0 -66 -39 -114q75 -70 75 -173q0 -101 -60 -169.5t-161 -68.5q-108 0 -174.5 68.5t-66.5 169.5h134q0 -43 25.5 -74t71.5 -31t71.5 31t25.5 74
q0 39 -27 70t-70 31z" />
    <glyph glyph-name="four.case" 
d="M473 0h-134v150h-302v143l306 412l105 -86l-254 -336h145v136h134v-136h73v-133h-73v-150z" />
    <glyph glyph-name="five.case" 
d="M311 -10q-108 0 -174.5 68.5t-66.5 169.5h134q0 -47 26.5 -76t70.5 -29q43 0 70 28.5t27 66.5v16q0 38 -27 66.5t-70 28.5q-59 0 -83 -49l-139 106l71 314h336v-133h-229l-31 -123q31 18 85 18q88 0 154 -68.5t67 -165.5q0 -101 -60 -169.5t-161 -68.5z" />
    <glyph glyph-name="six.case" 
d="M291 -10q-95 0 -162 68.5t-69 165.5q0 83 52 153l243 328l106 -86l-128 -164q67 -9 115 -56q72 -69 74 -171q0 -98 -67.5 -168t-163.5 -70zM291 123q43 0 70 28.5t27 66.5v16q0 38 -27 66.5t-70 28.5t-70 -28.5t-27 -66.5v-16q0 -38 27 -66.5t70 -28.5z" />
    <glyph glyph-name="seven.case" 
d="M76 458v242h456v-133l-220 -572l-122 51l203 521h-183v-109h-134z" />
    <glyph glyph-name="eight.case" 
d="M304 -10q-94 0 -160.5 68t-66.5 165q0 110 85 180q-47 53 -47 118q0 79 55 134t134 55t134.5 -55t55.5 -134q0 -63 -48 -119q85 -69 85 -179q0 -97 -66.5 -165t-160.5 -68zM304 123q44 0 70.5 31t26.5 74q0 44 -26.5 75t-70.5 31t-70.5 -31t-26.5 -75q0 -43 26.5 -74
t70.5 -31zM304 457q30 0 46.5 18t16.5 41q0 24 -16.5 42.5t-46.5 18.5t-46 -18.5t-16 -42.5q0 -23 16 -41t46 -18z" />
    <glyph glyph-name="nine.case" 
d="M317 710q94 0 161.5 -68.5t69.5 -165.5q0 -83 -52 -153l-243 -328l-106 86l128 164q-67 9 -115 56q-72 69 -74 171q0 98 67.5 168t163.5 70zM317 577q-43 0 -70 -28.5t-27 -66.5v-16q0 -38 27 -66.5t70 -28.5t70 28.5t27 66.5v16q0 38 -27 66.5t-70 28.5z" />
    <glyph glyph-name="zero.case" 
d="M304 -10q-96 0 -163.5 70t-67.5 168v244q0 98 67.5 168t163.5 70t163.5 -70t67.5 -168v-244q0 -98 -67.5 -168t-163.5 -70zM304 123q43 0 70 28.5t27 66.5v197l-194 -194v-3q0 -38 27 -66.5t70 -28.5zM207 482v-197l194 195v2q0 38 -27 66.5t-70 28.5t-70 -28.5
t-27 -66.5z" />
    <glyph glyph-name="a.superior" 
d="M271 395q-56 0 -85 24t-29 65q0 57 42 84q38 24 149 32q-1 7 -6 13q-11 13 -41 13q-28 0 -43 -21h-93q25 103 136 103q72 0 107 -41t35 -106v-160h-93v36q-22 -42 -79 -42zM286 475q25 0 43.5 13.5t20.5 35.5q-76 -5 -88 -11q-12 -5 -12 -17q0 -21 36 -21z" />
    <glyph glyph-name="b.superior" 
d="M327 395q-20 0 -39.5 9.5t-29.5 23.5v-27h-93v406h93v-132q23 33 69 33q50 0 85.5 -36.5t35.5 -99.5v-40q0 -64 -35.5 -100.5t-85.5 -36.5zM307 487q20 0 34 12t14 37v31q0 25 -14 37.5t-34 12.5t-34.5 -12.5t-14.5 -37.5v-31q0 -25 14.5 -37t34.5 -12z" />
    <glyph glyph-name="c.superior" 
d="M308 395q-72 0 -107 41.5t-35 106.5v18q0 65 35 106t107 41q64 0 98.5 -33.5t41.5 -87.5h-93q-7 39 -47 39q-49 0 -49 -51v-47q0 -50 49 -50q42 0 47 38h93q-7 -54 -41.5 -87.5t-98.5 -33.5z" />
    <glyph glyph-name="d.superior" 
d="M282 395q-51 0 -86.5 36.5t-35.5 100.5v40q0 63 35.5 99.5t86.5 36.5q20 0 39.5 -9.5t28.5 -23.5v132h94v-406h-94v27q-9 -14 -29 -23.5t-39 -9.5zM302 487q20 0 34 12t14 37v31q0 25 -14 37.5t-34 12.5t-34 -12.5t-14 -37.5v-31q0 -25 14 -37t34 -12z" />
    <glyph glyph-name="e.superior" 
d="M305 395q-72 0 -107 41.5t-35 106.5v18q0 65 35 106t107 41t106.5 -41t34.5 -106v-45h-190q0 -14 12.5 -26t36.5 -12q28 0 43 20h94q-26 -103 -137 -103zM256 591h96q-6 35 -47 35q-39 0 -49 -35z" />
    <glyph glyph-name="f.superior" 
d="M233 401v217h-86v82h86v28q0 36 20.5 57.5t58.5 21.5h140v-83h-107q-19 0 -19 -20v-4h126v-82h-126v-217h-93z" />
    <glyph glyph-name="g.superior" 
d="M302 288q-62 0 -96 31.5t-43 83.5h93q8 -32 46 -32q48 0 48 51v33q-9 -14 -28.5 -23.5t-39.5 -9.5q-51 0 -86.5 36.5t-35.5 99.5v14q0 63 35.5 99.5t86.5 36.5q20 0 39.5 -9.5t28.5 -23.5v25h94v-264q0 -65 -35 -106.5t-107 -41.5zM302 513q20 0 34 12.5t14 37.5v4
q0 25 -14 37.5t-34 12.5t-34 -12.5t-14 -37.5v-4q0 -25 14 -37.5t34 -12.5z" />
    <glyph glyph-name="h.superior" 
d="M164 401v406h93v-132q23 33 68 33q51 0 86.5 -36.5t35.5 -99.5v-171h-93v166q0 25 -14 37.5t-35 12.5q-20 0 -34 -12.5t-14 -37.5v-166h-93z" />
    <glyph glyph-name="i.superior" 
d="M154 401v83h105v134h-76v82h169v-216h106v-83h-304zM262 711v96h96v-96h-96z" />
    <glyph glyph-name="j.superior" 
d="M143 294v83h136q19 0 19 23v218h-126v82h219v-327q0 -36 -20.5 -57.5t-58.5 -21.5h-169zM292 711v96h96v-96h-96z" />
    <glyph glyph-name="k.superior" 
d="M265 807v-193l78 86h112l-108 -118l124 -181h-109l-78 113l-19 -22v-91h-93v406h93z" />
    <glyph glyph-name="l.superior" 
d="M153 401v83h106v240h-77v83h170v-323h105v-83h-304z" />
    <glyph glyph-name="m.superior" 
d="M378 401v200q0 16 -16 16t-16 -16v-200h-81v200q0 16 -16 16t-16 -16v-200h-83v299h83v-9q18 13 41 13q28 0 40 -15q16 19 53 19q95 0 95 -105v-202h-84z" />
    <glyph glyph-name="o.superior" 
d="M304 478q49 0 49 50v47q0 51 -49 51q-48 0 -48 -51v-47q0 -50 48 -50zM304 395q-72 0 -106.5 41t-34.5 107v18q0 65 34.5 106t106.5 41t107 -41t35 -106v-18q0 -65 -35 -106.5t-107 -41.5z" />
    <glyph glyph-name="p.superior" 
d="M165 294v406h93v-25q23 33 69 33q50 0 85.5 -36.5t35.5 -99.5v-40q0 -64 -35.5 -100.5t-85.5 -36.5q-20 0 -39.5 9.5t-29.5 23.5v-134h-93zM307 487q20 0 34 12t14 37v31q0 25 -14 37.5t-34 12.5t-34.5 -12.5t-14.5 -37.5v-31q0 -25 14.5 -37t34.5 -12z" />
    <glyph glyph-name="q.superior" 
d="M350 294v134q-9 -14 -29 -23.5t-39 -9.5q-51 0 -86.5 36.5t-35.5 100.5v40q0 63 35.5 99.5t86.5 36.5q20 0 39.5 -9.5t28.5 -23.5v25h94v-406h-94zM302 487q20 0 34 12t14 37v31q0 25 -14 37.5t-34 12.5t-34 -12.5t-14 -37.5v-31q0 -25 14 -37t34 -12z" />
    <glyph glyph-name="r.superior" 
d="M138 401v83h95v134h-66v82h159v-33q4 15 22 27t45 12h55v-83h-74q-20 0 -34 -12.5t-14 -37.5v-89h93v-83h-281z" />
    <glyph glyph-name="s.superior" 
d="M311 395q-51 0 -92.5 27.5t-42.5 75.5h92q3 -9 17.5 -14.5t28.5 -5.5q26 0 26 13q0 9 -19 13l-65 14q-29 6 -51 30t-22 66q0 43 35 68.5t85 25.5t83 -24t37 -73h-95q-5 15 -28 15t-25 -12q0 -9 15 -13l72 -15q27 -6 49 -28.5t22 -65.5q0 -50 -35 -73.5t-87 -23.5z" />
    <glyph glyph-name="t.superior" 
d="M449 401h-140q-38 0 -58.5 21.5t-20.5 57.5v138h-85v82h85v68h93v-68h126v-82h-126v-112q0 -22 19 -22h107v-83z" />
    <glyph glyph-name="u.superior" 
d="M277 395q-47 0 -80.5 36.5t-33.5 100.5v168h93v-165q0 -23 13.5 -35.5t33.5 -12.5t33.5 12t13.5 37v164h93v-299h-93v33q-26 -39 -73 -39z" />
    <glyph glyph-name="v.superior" 
d="M257 401l-108 299h99l56 -164l57 164h98l-108 -299h-94z" />
    <glyph glyph-name="w.superior" 
d="M205 401l-48 299h98l17 -195l11 149h42l12 -149l17 195h98l-48 -299h-88l-12 151l-11 -151h-88z" />
    <glyph glyph-name="x.superior" 
d="M149 401l101 154l-97 145h106l45 -71l46 71h105l-96 -145l101 -154h-107l-49 76l-49 -76h-106z" />
    <glyph glyph-name="y.superior" 
d="M189 294v83h43q12 0 18 11l5 15l-106 297h99l56 -164l57 164h98l-109 -304q-4 -12 -9.5 -31.5t-9 -29t-11 -21t-19 -16t-29.5 -4.5h-83z" />
    <glyph glyph-name="z.superior" 
d="M414 618l-108 -134h112v-83h-231v83l109 134h-104v82h222v-82z" />
    <glyph glyph-name="period.superior" 
d="M258 401v93h93v-93h-93z" />
    <glyph glyph-name="hyphen.superior" 
d="M388 551h-168v26h168v-26z" />
    <glyph glyph-name="comma.superior" 
d="M270 305l-50 49l119 118l49 -50z" />
    <glyph glyph-name="a.inferior" 
d="M271 -103q-56 0 -85 24t-29 65q0 57 42 84q38 24 149 32q-1 7 -6 13q-11 13 -41 13q-28 0 -43 -21h-93q25 103 136 103q72 0 107 -41t35 -106v-160h-93v36q-22 -42 -79 -42zM286 -23q25 0 43.5 13.5t20.5 35.5q-76 -5 -88 -11q-12 -5 -12 -17q0 -21 36 -21z" />
    <glyph glyph-name="b.inferior" 
d="M327 -103q-20 0 -39.5 9.5t-29.5 23.5v-27h-93v406h93v-132q23 33 69 33q50 0 85.5 -36.5t35.5 -99.5v-40q0 -64 -35.5 -100.5t-85.5 -36.5zM307 -11q20 0 34 12t14 37v31q0 25 -14 37.5t-34 12.5t-34.5 -12.5t-14.5 -37.5v-31q0 -25 14.5 -37t34.5 -12z" />
    <glyph glyph-name="c.inferior" 
d="M308 -103q-72 0 -107 41.5t-35 106.5v18q0 65 35 106t107 41q64 0 98.5 -33.5t41.5 -87.5h-93q-7 39 -47 39q-49 0 -49 -51v-47q0 -50 49 -50q42 0 47 38h93q-7 -54 -41.5 -87.5t-98.5 -33.5z" />
    <glyph glyph-name="d.inferior" 
d="M282 -103q-51 0 -86.5 36.5t-35.5 100.5v40q0 63 35.5 99.5t86.5 36.5q20 0 39.5 -9.5t28.5 -23.5v132h94v-406h-94v27q-9 -14 -29 -23.5t-39 -9.5zM302 -11q20 0 34 12t14 37v31q0 25 -14 37.5t-34 12.5t-34 -12.5t-14 -37.5v-31q0 -25 14 -37t34 -12z" />
    <glyph glyph-name="e.inferior" 
d="M305 -103q-72 0 -107 41.5t-35 106.5v18q0 65 35 106t107 41t106.5 -41t34.5 -106v-45h-190q0 -14 12.5 -26t36.5 -12q28 0 43 20h94q-26 -103 -137 -103zM256 93h96q-6 35 -47 35q-39 0 -49 -35z" />
    <glyph glyph-name="f.inferior" 
d="M233 -97v217h-86v82h86v28q0 36 20.5 57.5t58.5 21.5h140v-83h-107q-19 0 -19 -20v-4h126v-82h-126v-217h-93z" />
    <glyph glyph-name="g.inferior" 
d="M302 -210q-62 0 -96 31.5t-43 83.5h93q8 -32 46 -32q48 0 48 51v33q-9 -14 -28.5 -23.5t-39.5 -9.5q-51 0 -86.5 36.5t-35.5 99.5v14q0 63 35.5 99.5t86.5 36.5q20 0 39.5 -9.5t28.5 -23.5v25h94v-264q0 -65 -35 -106.5t-107 -41.5zM302 15q20 0 34 12.5t14 37.5v4
q0 25 -14 37.5t-34 12.5t-34 -12.5t-14 -37.5v-4q0 -25 14 -37.5t34 -12.5z" />
    <glyph glyph-name="h.inferior" 
d="M164 -97v406h93v-132q23 33 68 33q51 0 86.5 -36.5t35.5 -99.5v-171h-93v166q0 25 -14 37.5t-35 12.5q-20 0 -34 -12.5t-14 -37.5v-166h-93z" />
    <glyph glyph-name="i.inferior" 
d="M154 -97v83h105v134h-76v82h169v-216h106v-83h-304zM262 213v96h96v-96h-96z" />
    <glyph glyph-name="j.inferior" 
d="M143 -204v83h136q19 0 19 23v218h-126v82h219v-327q0 -36 -20.5 -57.5t-58.5 -21.5h-169zM292 213v96h96v-96h-96z" />
    <glyph glyph-name="k.inferior" 
d="M265 309v-193l78 86h112l-108 -118l124 -181h-109l-78 113l-19 -22v-91h-93v406h93z" />
    <glyph glyph-name="l.inferior" 
d="M153 -97v83h106v240h-77v83h170v-323h105v-83h-304z" />
    <glyph glyph-name="m.inferior" 
d="M378 -97v200q0 16 -16 16t-16 -16v-200h-81v200q0 16 -16 16t-16 -16v-200h-83v299h83v-9q18 13 41 13q28 0 40 -15q16 19 53 19q95 0 95 -105v-202h-84z" />
    <glyph glyph-name="n.inferior" 
d="M164 -97v299h93v-25q23 33 68 33q51 0 86.5 -36.5t35.5 -99.5v-171h-93v166q0 25 -14 37.5t-35 12.5q-20 0 -34 -12.5t-14 -37.5v-166h-93z" />
    <glyph glyph-name="o.inferior" 
d="M304 -20q49 0 49 50v47q0 51 -49 51q-48 0 -48 -51v-47q0 -50 48 -50zM304 -103q-72 0 -106.5 41t-34.5 107v18q0 65 34.5 106t106.5 41t107 -41t35 -106v-18q0 -65 -35 -106.5t-107 -41.5z" />
    <glyph glyph-name="p.inferior" 
d="M165 -204v406h93v-25q23 33 69 33q50 0 85.5 -36.5t35.5 -99.5v-40q0 -64 -35.5 -100.5t-85.5 -36.5q-20 0 -39.5 9.5t-29.5 23.5v-134h-93zM307 -11q20 0 34 12t14 37v31q0 25 -14 37.5t-34 12.5t-34.5 -12.5t-14.5 -37.5v-31q0 -25 14.5 -37t34.5 -12z" />
    <glyph glyph-name="q.inferior" 
d="M350 -204v134q-9 -14 -29 -23.5t-39 -9.5q-51 0 -86.5 36.5t-35.5 100.5v40q0 63 35.5 99.5t86.5 36.5q20 0 39.5 -9.5t28.5 -23.5v25h94v-406h-94zM302 -11q20 0 34 12t14 37v31q0 25 -14 37.5t-34 12.5t-34 -12.5t-14 -37.5v-31q0 -25 14 -37t34 -12z" />
    <glyph glyph-name="r.inferior" 
d="M138 -97v83h95v134h-66v82h159v-33q4 15 22 27t45 12h55v-83h-74q-20 0 -34 -12.5t-14 -37.5v-89h93v-83h-281z" />
    <glyph glyph-name="s.inferior" 
d="M311 -103q-51 0 -92.5 27.5t-42.5 75.5h92q3 -9 17.5 -14.5t28.5 -5.5q26 0 26 13q0 9 -19 13l-65 14q-29 6 -51 30t-22 66q0 43 35 68.5t85 25.5t83 -24t37 -73h-95q-5 15 -28 15t-25 -12q0 -9 15 -13l72 -15q27 -6 49 -28.5t22 -65.5q0 -50 -35 -73.5t-87 -23.5z" />
    <glyph glyph-name="t.inferior" 
d="M449 -97h-140q-38 0 -58.5 21.5t-20.5 57.5v138h-85v82h85v68h93v-68h126v-82h-126v-112q0 -22 19 -22h107v-83z" />
    <glyph glyph-name="u.inferior" 
d="M277 -103q-47 0 -80.5 36.5t-33.5 100.5v168h93v-165q0 -23 13.5 -35.5t33.5 -12.5t33.5 12t13.5 37v164h93v-299h-93v33q-26 -39 -73 -39z" />
    <glyph glyph-name="v.inferior" 
d="M257 -97l-108 299h99l56 -164l57 164h98l-108 -299h-94z" />
    <glyph glyph-name="w.inferior" 
d="M205 -97l-48 299h98l17 -195l11 149h42l12 -149l17 195h98l-48 -299h-88l-12 151l-11 -151h-88z" />
    <glyph glyph-name="x.inferior" 
d="M149 -97l101 154l-97 145h106l45 -71l46 71h105l-96 -145l101 -154h-107l-49 76l-49 -76h-106z" />
    <glyph glyph-name="y.inferior" 
d="M189 -204v83h43q12 0 18 11l5 15l-106 297h99l56 -164l57 164h98l-109 -304q-4 -12 -9.5 -31.5t-9 -29t-11 -21t-19 -16t-29.5 -4.5h-83z" />
    <glyph glyph-name="z.inferior" 
d="M414 120l-108 -134h112v-83h-231v83l109 134h-104v82h222v-82z" />
    <glyph glyph-name="period.inferior" 
d="M258 -97v93h93v-93h-93z" />
    <glyph glyph-name="hyphen.inferior" 
d="M388 53h-168v26h168v-26z" />
    <glyph glyph-name="comma.inferior" 
d="M270 -193l-50 49l119 118l49 -50z" />
    <glyph glyph-name="equal.inferior" 
d="M419 106h-230v26h230v-26zM419 -7h-230v26h230v-26z" />
    <glyph glyph-name="plus.inferior" 
d="M292 -49v102h-103v26h103v101h26v-101h101v-26h-101v-102h-26z" />
    <glyph glyph-name="minus.inferior" 
d="M419 53h-230v26h230v-26z" />
    <glyph glyph-name="one.numerator" 
d="M69 606l-29 29l65 65h42v-221h67v-40h-177v40h68v164z" />
    <glyph glyph-name="two.numerator" 
d="M92 593l-29 -29q-25 23 -25 59q0 34 23.5 57.5t57.5 23.5t57.5 -23.5t23.5 -57.5q0 -36 -35 -72l-70 -72h105v-40h-162v40l96 99q24 24 24 45q0 17 -10.5 28.5t-28.5 11.5q-17 0 -28 -11.5t-11 -28.5q0 -18 12 -30z" />
    <glyph glyph-name="three.numerator" 
d="M134 558v38h3q12 1 20.5 11t8.5 23q0 14 -9 23.5t-23 9.5t-23 -9.5t-9 -23.5h-42q0 31 21.5 52.5t52.5 21.5t52.5 -21.5t21.5 -52.5q0 -30 -22 -52q29 -24 29 -62q0 -34 -23.5 -57.5t-57.5 -23.5t-57.5 23.5t-23.5 57.5h42q0 -17 11 -28.5t28 -11.5t28 11.5t11 28.5
t-10 29t-26 13h-3z" />
    <glyph glyph-name="four.numerator" 
d="M199 439h-42v63h-115v40l116 160l33 -24l-99 -136h65v53h42v-53h27v-40h-27v-63z" />
    <glyph glyph-name="five.numerator" 
d="M144 435q-34 0 -57.5 23.5t-23.5 57.5h42q0 -17 11 -28.5t28 -11.5q18 0 28.5 11.5t10.5 28.5v11q0 17 -11 29t-28 12q-20 0 -33 -20l-44 34l26 118h116v-40h-83l-13 -61q16 9 33 9q32 0 55.5 -23.5t23.5 -57.5v-11q0 -34 -23.5 -57.5t-57.5 -23.5z" />
    <glyph glyph-name="six.numerator" 
d="M144 435q-34 0 -58 23.5t-24 57.5v11q0 27 17 49l92 126l33 -24l-52 -70q30 -2 51.5 -25.5t21.5 -55.5v-11q0 -34 -24 -57.5t-57 -23.5zM144 476q17 0 28 11.5t11 28.5v11q0 17 -11 29t-28 12q-18 0 -29 -12t-11 -29v-11q0 -17 11 -28.5t29 -11.5z" />
    <glyph glyph-name="seven.numerator" 
d="M77 621v79h160v-40l-80 -223l-38 14l75 209h-75v-39h-42z" />
    <glyph glyph-name="eight.numerator" 
d="M133 435q-34 0 -57.5 23.5t-23.5 57.5q0 38 29 62q-21 21 -21 52t21 52.5t52 21.5t52.5 -21.5t21.5 -52.5t-21 -52q29 -24 29 -62q0 -34 -24 -57.5t-58 -23.5zM133 476q17 0 28.5 11.5t11.5 28.5t-11.5 29t-28.5 12t-28 -12t-11 -29t11 -28.5t28 -11.5zM133 597
q14 0 23 9.5t9 23.5t-9 23.5t-23 9.5t-22.5 -9.5t-8.5 -23.5t8.5 -23.5t22.5 -9.5z" />
    <glyph glyph-name="nine.numerator" 
d="M152 704q34 0 58 -23.5t24 -57.5v-11q0 -27 -17 -49l-92 -126l-33 24l52 70q-30 2 -51.5 25.5t-21.5 55.5v11q0 34 24 57.5t57 23.5zM152 663q-17 0 -28 -11.5t-11 -28.5v-11q0 -17 11 -29t28 -12q18 0 29 12t11 29v11q0 17 -11 28.5t-29 11.5z" />
    <glyph glyph-name="zero.numerator" 
d="M144 435q-34 0 -57.5 23.5t-23.5 57.5v107q0 34 23.5 57.5t57.5 23.5t58 -23.5t24 -57.5v-107q0 -34 -24 -57.5t-58 -23.5zM144 476q18 0 29 11.5t11 28.5v80l-79 -79v-1q0 -17 11 -28.5t28 -11.5zM105 623v-80l79 80q0 17 -11 28.5t-29 11.5q-17 0 -28 -11.5t-11 -28.5z
" />
    <glyph glyph-name="one.denominator" 
d="M418 167l-29 29l65 65h42v-221h67v-40h-177v40h68v164z" />
    <glyph glyph-name="two.denominator" 
d="M432 154l-29 -29q-25 23 -25 59q0 34 23.5 57.5t57.5 23.5t57.5 -23.5t23.5 -57.5q0 -36 -35 -72l-70 -72h105v-40h-162v40l96 99q24 24 24 45q0 17 -10.5 28.5t-28.5 11.5q-17 0 -28 -11.5t-11 -28.5q0 -18 12 -30z" />
    <glyph glyph-name="three.denominator" 
d="M469 119v38h3q12 1 20.5 11t8.5 23q0 14 -9 23.5t-23 9.5t-23 -9.5t-9 -23.5h-42q0 31 21.5 52.5t52.5 21.5t52.5 -21.5t21.5 -52.5q0 -30 -22 -52q29 -24 29 -62q0 -34 -23.5 -57.5t-57.5 -23.5t-57.5 23.5t-23.5 57.5h42q0 -17 11 -28.5t28 -11.5t28 11.5t11 28.5
t-10 29t-26 13h-3z" />
    <glyph glyph-name="four.denominator" 
d="M519 0h-42v63h-115v40l116 160l33 -24l-99 -136h65v53h42v-53h27v-40h-27v-63z" />
    <glyph glyph-name="five.denominator" 
d="M464 -4q-34 0 -57.5 23.5t-23.5 57.5h42q0 -17 11 -28.5t28 -11.5q18 0 28.5 11.5t10.5 28.5v11q0 17 -11 29t-28 12q-20 0 -33 -20l-44 34l26 118h116v-40h-83l-13 -61q16 9 33 9q32 0 55.5 -23.5t23.5 -57.5v-11q0 -34 -23.5 -57.5t-57.5 -23.5z" />
    <glyph glyph-name="six.denominator" 
d="M456 -4q-34 0 -58 23.5t-24 57.5v11q0 27 17 49l92 126l33 -24l-52 -70q30 -2 51.5 -25.5t21.5 -55.5v-11q0 -34 -24 -57.5t-57 -23.5zM456 37q17 0 28 11.5t11 28.5v11q0 17 -11 29t-28 12q-18 0 -29 -12t-11 -29v-11q0 -17 11 -28.5t29 -11.5z" />
    <glyph glyph-name="seven.denominator" 
d="M411 182v79h160v-40l-80 -223l-38 14l75 209h-75v-39h-42z" />
    <glyph glyph-name="eight.denominator" 
d="M474 -4q-34 0 -57.5 23.5t-23.5 57.5q0 38 29 62q-21 21 -21 52t21 52.5t52 21.5t52.5 -21.5t21.5 -52.5t-21 -52q29 -24 29 -62q0 -34 -24 -57.5t-58 -23.5zM474 37q17 0 28.5 11.5t11.5 28.5t-11.5 29t-28.5 12t-28 -12t-11 -29t11 -28.5t28 -11.5zM474 158
q14 0 23 9.5t9 23.5t-9 23.5t-23 9.5t-22.5 -9.5t-8.5 -23.5t8.5 -23.5t22.5 -9.5z" />
    <glyph glyph-name="nine.denominator" 
d="M464 265q34 0 58 -23.5t24 -57.5v-11q0 -27 -17 -49l-92 -126l-33 24l52 70q-30 2 -51.5 25.5t-21.5 55.5v11q0 34 24 57.5t57 23.5zM464 224q-17 0 -28 -11.5t-11 -28.5v-11q0 -17 11 -29t28 -12q18 0 29 12t11 29v11q0 17 -11 28.5t-29 11.5z" />
    <glyph glyph-name="zero.denominator" 
d="M463 -4q-34 0 -57.5 23.5t-23.5 57.5v107q0 34 23.5 57.5t57.5 23.5t58 -23.5t24 -57.5v-107q0 -34 -24 -57.5t-58 -23.5zM463 37q18 0 29 11.5t11 28.5v80l-79 -79v-1q0 -17 11 -28.5t28 -11.5zM424 184v-80l79 80q0 17 -11 28.5t-29 11.5q-17 0 -28 -11.5t-11 -28.5z
" />
    <glyph glyph-name="ampersand.case" 
d="M262 -10q-91 0 -155.5 66t-64.5 158q0 55 25.5 103.5t69.5 80.5q16 11 57 27l-81 141v134h370v-134h-222l150 -259l33 68l114 -58l-72 -140l67 -114l-109 -68l-35 60q-56 -65 -147 -65zM262 123q53 0 80 49l-77 132l-8 1q-35 0 -58 -26.5t-23 -64.5t23 -64.5t63 -26.5z
" />
    <glyph glyph-name="hyphen.case" 
d="M449 315h-290v45h290v-45z" />
    <glyph glyph-name="endash.case" 
d="M502 315h-396v45h396v-45z" />
    <glyph glyph-name="emdash.case" 
d="M533 315h-459v45h459v-45z" />
    <glyph glyph-name="question.case" 
d="M228 230v170h67q40 0 68.5 26t28.5 63q0 36 -28.5 62t-68.5 26t-68.5 -26t-28.5 -62h-134q0 97 66.5 159t164.5 62t164.5 -62t66.5 -159q0 -79 -45.5 -136.5t-118.5 -77.5v-45h-134zM218 0v160h160v-160h-160z" />
    <glyph glyph-name="questiondown.case" 
d="M380 480v-170h-67q-40 0 -68.5 -26t-28.5 -63q0 -36 28.5 -62t68.5 -26t68.5 26t28.5 62h134q0 -97 -66.5 -159t-164.5 -62t-164.5 62t-66.5 159q0 79 45.5 136.5t118.5 77.5v45h134zM390 710v-160h-160v160h160z" />
    <glyph glyph-name="exclam.case" 
d="M371 700v-470h-134v470h134zM224 0v160h160v-160h-160z" />
    <glyph glyph-name="exclamdown.case" 
d="M371 470v-470h-134v470h134zM224 540v160h160v-160h-160z" />
    <glyph glyph-name="guilsinglleft.case" 
d="M363 105l-210 210l210 210l32 -31l-179 -179l179 -179z" />
    <glyph glyph-name="guilsinglright.case" 
d="M455 315l-210 -210l-32 31l179 179l-179 179l32 31z" />
    <glyph glyph-name="guillemotleft.case" 
d="M264 103l-210 210l210 210l32 -31l-179 -179l179 -179zM489 103l-210 210l210 210l32 -31l-179 -179l179 -179z" />
    <glyph glyph-name="guillemotright.case" 
d="M329 313l-210 -210l-32 31l179 179l-179 179l32 31zM554 313l-210 -210l-32 31l179 179l-179 179l32 31z" />
    <glyph glyph-name="parenleft.case" 
d="M250 103v494q0 53 23 78t84 25h118v-42h-118q-38 0 -51 -14t-13 -47v-494q0 -33 13 -47t51 -14h118v-42h-118q-61 0 -84 25t-23 78z" />
    <glyph glyph-name="parenright.case" 
d="M358 597v-494q0 -53 -23 -78t-84 -25h-118v42h118q38 0 51 14t13 47v494q0 33 -13 47t-51 14h-118v42h118q61 0 84 -25t23 -78z" />
    <glyph glyph-name="bracketleft.case" 
d="M250 0v700h225v-42h-182v-616h182v-42h-225z" />
    <glyph glyph-name="bracketright.case" 
d="M358 700v-700h-225v42h182v616h-182v42h225z" />
    <glyph glyph-name="braceleft.case" 
d="M186 329h-10v42h10q38 0 51 14t13 47v165q0 53 23 78t84 25h118v-42h-118q-38 0 -51 -14t-13 -47v-165q0 -62 -34 -82q34 -22 34 -82v-165q0 -33 13 -47t51 -14h118v-42h-118q-61 0 -84 25t-23 78v165q0 33 -13 47t-51 14z" />
    <glyph glyph-name="braceright.case" 
d="M432 329h-10q-38 0 -51 -14t-13 -47v-165q0 -53 -23 -78t-84 -25h-118v42h118q38 0 51 14t13 47v165q0 60 34 82q-34 20 -34 82v165q0 33 -13 47t-51 14h-118v42h118q61 0 84 -25t23 -78v-165q0 -33 13 -47t51 -14h10v-42z" />
    <glyph glyph-name="bar.case" 
d="M282 0v700h43v-700h-43z" />
    <glyph glyph-name="brokenbar.case" 
d="M283 0v289h43v-289h-43zM283 411v289h43v-289h-43z" />
    <glyph glyph-name="periodcentered.case" 
d="M224 262v160h160v-160h-160z" />
    <glyph glyph-name="at.case" 
d="M130 240v12q0 76 43.5 118t126.5 42h37v46q0 43 -38 43q-37 0 -37 -43v-14h-132v16q0 76 43.5 118t126.5 42q82 0 125.5 -42t43.5 -118v-308q0 -30 28 -30t28 30v319q0 98 -58.5 157.5t-162.5 59.5t-162.5 -59.5t-58.5 -157.5v-242q0 -98 58.5 -157.5t162.5 -59.5v-42
q-124 0 -194 70.5t-70 188.5v242q0 118 70 188.5t194 70.5t194 -70.5t70 -188.5v-320q0 -32 -18 -51.5t-53 -19.5q-31 0 -48.5 17t-20.5 43q-50 -60 -128 -60q-83 0 -126.5 42t-43.5 118zM337 242v61h-38q-37 0 -37 -43v-18q0 -43 37 -43q38 0 38 43z" />
    <glyph glyph-name="plus.case" 
d="M282 139v176h-176v45h176v175h45v-175h175v-45h-175v-176h-45z" />
    <glyph glyph-name="minus.case" 
d="M502 315h-396v45h396v-45z" />
    <glyph glyph-name="divide.case" 
d="M262 536q0 17 12.5 29.5t29.5 12.5t29.5 -12.5t12.5 -29.5t-12.5 -29.5t-29.5 -12.5t-29.5 12.5t-12.5 29.5zM262 139q0 17 12.5 29.5t29.5 12.5t29.5 -12.5t12.5 -29.5t-12.5 -29.5t-29.5 -12.5t-29.5 12.5t-12.5 29.5zM502 315h-396v45h396v-45z" />
    <glyph glyph-name="multiply.case" 
d="M476 476l-140 -139l140 -139l-32 -32l-140 139l-139 -139l-32 32l139 139l-139 139l32 32l139 -139l140 139z" />
    <glyph glyph-name="equal.case" 
d="M502 212h-396v45h396v-45zM502 407h-396v45h396v-45z" />
    <glyph glyph-name="plusminus.case" 
d="M282 286v121h-176v45h176v121h45v-121h175v-45h-175v-121h-45zM502 212h-396v45h396v-45z" />
    <glyph glyph-name="less.case" 
d="M449 556l-239 -239l239 -239l-32 -31l-270 270l270 270z" />
    <glyph glyph-name="greater.case" 
d="M398 317l-239 239l32 31l270 -270l-270 -270l-32 31z" />
    <glyph glyph-name="lessequal.case" 
d="M502 57h-396v45h396v-45zM502 176l-396 180v44l396 180v-48l-338 -154l338 -154v-48z" />
    <glyph glyph-name="greaterequal.case" 
d="M502 57h-396v45h396v-45zM502 356l-396 -180v48l338 154l-338 154v48l396 -180v-44z" />
    <glyph glyph-name="notequal.case" 
d="M502 212h-241l-65 -117l-37 22l53 95h-106v45h396v-45zM449 547l-53 -95h106v-45h-396v45h240l66 117z" />
    <glyph glyph-name="acute.case" 
d="M444 811l-267 -73l-13 48l267 73z" />
    <glyph glyph-name="breve.case" 
d="M334 743h-60q-46 0 -78.5 32.5t-32.5 78.5h49q0 -26 18 -44t44 -18h60q26 0 44 18t18 44h49q0 -46 -32.5 -78.5t-78.5 -32.5z" />
    <glyph glyph-name="caron.case" 
d="M304 792l141 67l21 -44l-162 -77l-162 77l21 44z" />
    <glyph glyph-name="cedilla.case" 
d="M215 -134h84v84h50v-134h-134v50z" />
    <glyph glyph-name="circumflex.case" 
d="M445 738l-141 67l-141 -67l-21 44l162 77l162 -77z" />
    <glyph glyph-name="dieresis.case" 
d="M148 761v76h76v-76h-76zM384 761v76h76v-76h-76z" />
    <glyph glyph-name="dotaccent.case" 
d="M266 761v76h76v-76h-76z" />
    <glyph glyph-name="grave.case" 
d="M431 738l-267 73l13 48l267 -73z" />
    <glyph glyph-name="hungarumlaut.case" 
d="M281 791l-127 -35l-13 48l127 35zM467 794l-127 -35l-13 48l127 35z" />
    <glyph glyph-name="macron.case" 
d="M460 774h-312v50h312v-50z" />
    <glyph glyph-name="ogonek.case" 
d="M329 -137v-50q-10 -2 -30 -2q-46 0 -72.5 28.5t-26.5 65.5q0 66 51 95h78q-35 -14 -57.5 -38t-22.5 -51q0 -23 14 -37t42 -14q12 0 24 3z" />
    <glyph glyph-name="ring.case" 
d="M190 765q0 47 33.5 81t80.5 34t81 -34t34 -81t-34 -80.5t-81 -33.5t-80.5 33.5t-33.5 80.5zM239 765q0 -27 19 -46t46 -19t46.5 19t19.5 46t-19.5 46.5t-46.5 19.5t-46 -19.5t-19 -46.5z" />
    <glyph glyph-name="tilde.case" 
d="M475 813l-133 -71l-79 57l-107 -57l-23 43l133 71l79 -57l107 57z" />
    <glyph glyph-name="at.case.ss01" 
d="M337 583v23h132v-454q0 -30 28 -30t28 30v319q0 98 -58.5 157.5t-162.5 59.5t-162.5 -59.5t-58.5 -157.5v-242q0 -98 58.5 -157.5t162.5 -59.5v-42q-124 0 -194 70.5t-70 188.5v242q0 118 70 188.5t194 70.5t194 -70.5t70 -188.5v-320q0 -32 -18 -51.5t-53 -19.5
q-31 0 -48.5 17t-20.5 43q-55 -60 -139 -60q-71 0 -115 42t-44 118v220q0 74 39 117t90 43q53 0 78 -37zM262 458v-216q0 -43 37 -43q38 0 38 43v216q0 43 -38 43q-37 0 -37 -43z" />
    <glyph glyph-name="a.ss01" 
d="M401 49q-17 -26 -51.5 -42.5t-69.5 -16.5q-85 0 -146 58t-61 166v92q0 108 61 166t146 58q35 0 69.5 -16.5t51.5 -42.5v45h132v-516h-132v49zM205 301v-82q0 -49 28.5 -74.5t69.5 -25.5t69.5 25.5t28.5 74.5v82q0 49 -28.5 74.5t-69.5 25.5t-69.5 -25.5t-28.5 -74.5z" />
    <glyph glyph-name="aacute.ss01" 
d="M401 49q-17 -26 -51.5 -42.5t-69.5 -16.5q-85 0 -146 58t-61 166v92q0 108 61 166t146 58q35 0 69.5 -16.5t51.5 -42.5v45h132v-516h-132v49zM205 301v-82q0 -49 28.5 -74.5t69.5 -25.5t69.5 25.5t28.5 74.5v82q0 49 -28.5 74.5t-69.5 25.5t-69.5 -25.5t-28.5 -74.5z
M443 657l-267 -73l-13 48l267 73z" />
    <glyph glyph-name="abreve.ss01" 
d="M401 49q-17 -26 -51.5 -42.5t-69.5 -16.5q-85 0 -146 58t-61 166v92q0 108 61 166t146 58q35 0 69.5 -16.5t51.5 -42.5v45h132v-516h-132v49zM205 301v-82q0 -49 28.5 -74.5t69.5 -25.5t69.5 25.5t28.5 74.5v82q0 49 -28.5 74.5t-69.5 25.5t-69.5 -25.5t-28.5 -74.5z
M333 589h-60q-46 0 -78.5 32.5t-32.5 78.5h49q0 -26 18 -44t44 -18h60q26 0 44 18t18 44h49q0 -46 -32.5 -78.5t-78.5 -32.5z" />
    <glyph glyph-name="acircumflex.ss01" 
d="M401 49q-17 -26 -51.5 -42.5t-69.5 -16.5q-85 0 -146 58t-61 166v92q0 108 61 166t146 58q35 0 69.5 -16.5t51.5 -42.5v45h132v-516h-132v49zM205 301v-82q0 -49 28.5 -74.5t69.5 -25.5t69.5 25.5t28.5 74.5v82q0 49 -28.5 74.5t-69.5 25.5t-69.5 -25.5t-28.5 -74.5z
M444 584l-141 67l-141 -67l-21 44l162 77l162 -77z" />
    <glyph glyph-name="adieresis.ss01" 
d="M401 49q-17 -26 -51.5 -42.5t-69.5 -16.5q-85 0 -146 58t-61 166v92q0 108 61 166t146 58q35 0 69.5 -16.5t51.5 -42.5v45h132v-516h-132v49zM205 301v-82q0 -49 28.5 -74.5t69.5 -25.5t69.5 25.5t28.5 74.5v82q0 49 -28.5 74.5t-69.5 25.5t-69.5 -25.5t-28.5 -74.5z
M147 607v76h76v-76h-76zM383 607v76h76v-76h-76z" />
    <glyph glyph-name="agrave.ss01" 
d="M401 49q-17 -26 -51.5 -42.5t-69.5 -16.5q-85 0 -146 58t-61 166v92q0 108 61 166t146 58q35 0 69.5 -16.5t51.5 -42.5v45h132v-516h-132v49zM205 301v-82q0 -49 28.5 -74.5t69.5 -25.5t69.5 25.5t28.5 74.5v82q0 49 -28.5 74.5t-69.5 25.5t-69.5 -25.5t-28.5 -74.5z
M430 584l-267 73l13 48l267 -73z" />
    <glyph glyph-name="amacron.ss01" 
d="M401 49q-17 -26 -51.5 -42.5t-69.5 -16.5q-85 0 -146 58t-61 166v92q0 108 61 166t146 58q35 0 69.5 -16.5t51.5 -42.5v45h132v-516h-132v49zM205 301v-82q0 -49 28.5 -74.5t69.5 -25.5t69.5 25.5t28.5 74.5v82q0 49 -28.5 74.5t-69.5 25.5t-69.5 -25.5t-28.5 -74.5z
M459 620h-312v50h312v-50z" />
    <glyph glyph-name="aogonek.ss01" 
d="M533 -137v-50q-10 -2 -30 -2q-46 0 -72.5 28.5t-26.5 65.5q0 66 51 95h-54v49q-17 -26 -51.5 -42.5t-69.5 -16.5q-85 0 -146 58t-61 166v92q0 108 61 166t146 58q35 0 69.5 -16.5t51.5 -42.5v45h132v-516q-35 -14 -57.5 -38t-22.5 -51q0 -23 14 -37t42 -14q12 0 24 3z
M205 301v-82q0 -49 28.5 -74.5t69.5 -25.5t69.5 25.5t28.5 74.5v82q0 49 -28.5 74.5t-69.5 25.5t-69.5 -25.5t-28.5 -74.5z" />
    <glyph glyph-name="aring.ss01" 
d="M189 595q0 47 33.5 81t80.5 34t81 -34t34 -81q0 -59 -49 -93q21 -15 32 -31v45h132v-516h-132v49q-17 -26 -51.5 -42.5t-69.5 -16.5q-85 0 -146 58t-61 166v92q0 86 40 141t103 74q-27 32 -27 74zM205 301v-82q0 -49 28.5 -74.5t69.5 -25.5t69.5 25.5t28.5 74.5v82
q0 49 -28.5 74.5t-69.5 25.5t-69.5 -25.5t-28.5 -74.5zM238 595q0 -27 19 -46t46 -19t46.5 19t19.5 46t-19.5 46.5t-46.5 19.5t-46 -19.5t-19 -46.5z" />
    <glyph glyph-name="atilde.ss01" 
d="M401 49q-17 -26 -51.5 -42.5t-69.5 -16.5q-85 0 -146 58t-61 166v92q0 108 61 166t146 58q35 0 69.5 -16.5t51.5 -42.5v45h132v-516h-132v49zM205 301v-82q0 -49 28.5 -74.5t69.5 -25.5t69.5 25.5t28.5 74.5v82q0 49 -28.5 74.5t-69.5 25.5t-69.5 -25.5t-28.5 -74.5z
M474 659l-133 -71l-79 57l-107 -57l-23 43l133 71l79 -57l107 57z" />
    <glyph glyph-name="at.ss01" 
d="M337 493v23h132v-454q0 -30 28 -30t28 30v389q0 98 -58.5 157.5t-162.5 59.5t-162.5 -59.5t-58.5 -157.5v-381q0 -98 58.5 -157.5t162.5 -59.5v-42q-124 0 -194 70.5t-70 188.5v381q0 118 70 188.5t194 70.5t194 -70.5t70 -188.5v-390q0 -32 -18 -51.5t-53 -19.5
q-31 0 -48.5 17t-20.5 43q-55 -60 -139 -60q-71 0 -115 42t-44 118v220q0 74 39 117t90 43q53 0 78 -37zM262 368v-216q0 -43 37 -43q38 0 38 43v216q0 43 -38 43q-37 0 -37 -43z" />
  </font>
</defs>
</svg>
