<svg class="svg" viewBox="0 0 148 44" width="300" version="1.1" xmlns:xlink="http://www.w3.org/1999/xlink">
    <g id="Page-1" stroke="none" stroke-width="1" fill="none" fill-rule="evenodd">
        <g id="about-face-logo" fill="#FFFFFF">
            <path d="M16.6715294,41.6030588 C16.5825047,41.3240051 16.5088258,41.0402864 16.4508235,40.7531765 C16.3915294,40.3150588 16.4623529,39.8604706 16.1807059,39.4602353 C16.1032941,39.3515294 16.1428235,39.1522353 16.1494118,38.9957647 C16.1905882,37.996 16.1741176,36.988 16.3042353,35.9997647 C16.3744226,35.3272832 16.3854452,34.6499386 16.3371765,33.9755294 C16.3357215,33.315477 16.3681563,32.6557851 16.4343529,31.9990588 C16.4722353,31.3402353 16.5545882,30.6929412 16.4343529,30.0341176 C16.3931765,29.8167059 16.5397647,29.5581176 16.4887059,29.3456471 C16.352,28.7609412 16.4244706,28.1630588 16.3371765,27.5750588 C16.2498824,26.9870588 16.3190588,26.4221176 16.3174118,25.8390588 C16.3174118,25.2329412 16.3305882,24.6268235 16.3174118,24.0272941 C16.3025882,23.4821176 16.3552941,22.9402353 16.1955294,22.3884706 C16.0917647,22.0327059 16.2185882,21.6094118 16.2498824,21.2157647 C16.2778824,20.8517647 16.3470588,20.4976471 16.1889412,20.1287059 C16.1187367,19.9310357 16.1275878,19.713889 16.2136471,19.5225882 C16.3466611,19.2319969 16.3567571,18.9000195 16.2416471,18.6018824 C16.0834196,18.0690305 16.0771448,17.5025791 16.2235294,16.9663529 C16.3170965,16.6915679 16.3035686,16.3916003 16.1856471,16.1263529 C16.1,15.9616471 16.1444706,15.7145882 16.1444706,15.5037647 C16.1444706,13.9505882 16.1444706,12.3974118 16.1444706,10.8425882 C16.1444706,10.5592941 16.1988235,10.2694118 16.0028235,10.0058824 C15.9509503,9.8866611 15.9377033,9.75419119 15.9649412,9.62705882 C15.9837525,9.39058412 16.0150906,9.15527334 16.0588235,8.92211765 C16.1286551,8.51141124 16.1118242,8.09064018 16.0094118,7.68682353 C15.858282,6.88811387 15.7532456,6.08136821 15.6948235,5.27058824 C15.6569412,4.87858824 15.6734118,4.48164706 15.652,4.08635294 C15.6451102,3.92841738 15.6145746,3.77240798 15.5614118,3.62352941 C15.4115294,3.22 15.4214118,3.10964706 15.68,2.87905882 C15.7426774,2.8310036 15.8087302,2.78751886 15.8776471,2.74894118 L16.0423529,2.63364706 C16.2828235,2.30423529 15.8776471,2.08352941 15.9583529,1.79364706 C16.0390588,1.50376471 16.0967059,1.232 16.1708235,0.930588235 C16.5202226,0.760303908 16.9138875,0.702750569 17.2974118,0.765882353 C17.6498824,0.820235294 18.0270588,0.729647059 18.3910588,0.693411765 C18.6002353,0.672 18.8061176,0.606117647 19.0136471,0.602823529 C20.0908235,0.584705882 21.1663529,0.581411765 22.2435294,0.569882353 C22.6124706,0.569882353 22.9830588,0.685176471 23.3289412,0.672 C23.7472941,0.655529412 24.1656471,0.7 24.5823529,0.672 C24.7473864,0.671207507 24.9123393,0.679455155 25.0764706,0.696705882 C25.2741176,1.11341176 25.6216471,1.28635294 26.0795294,1.30282353 C26.3661176,1.31270588 26.6625882,1.35388235 26.8552941,1.62235294 C26.8706703,1.64388851 26.891009,1.66140232 26.9145882,1.67341176 C27.1813207,1.76859052 27.4369982,1.89228761 27.6771765,2.04235294 C27.8978824,2.20705882 28.0395294,2.48541176 28.2338824,2.70117647 C28.7128391,3.18608792 29.0539501,3.78985434 29.2221176,4.45035294 C29.3062741,4.86258691 29.3656745,5.27948963 29.4,5.69882353 C29.4293713,6.01360075 29.4381743,6.3299589 29.4263529,6.64588235 C29.3687059,8.72941176 29.5449412,10.8030588 29.6536471,12.88 C29.7425882,14.5665882 29.7491765,16.2531765 29.4049412,17.9150588 C29.2760972,18.477201 29.1020406,19.0280129 28.8844706,19.5621176 C28.7591751,19.8508409 28.5927433,20.1199055 28.3903529,20.3609412 C28.1976471,20.6063529 27.9571765,20.8155294 27.7232941,21.0576471 C27.9589289,21.2523061 28.1791907,21.4648586 28.3821176,21.6934118 C28.5731765,21.9404706 28.6818824,22.2501176 28.8581176,22.5169412 C29.0343529,22.7837647 29.0475294,23.0637647 29.1661176,23.3124706 C29.4741176,23.9712941 29.4164706,24.6416471 29.4312941,25.3218824 C29.413208,25.6646896 29.4877372,26.0060444 29.6470588,26.3101176 C29.7143066,26.4512637 29.745435,26.6069056 29.7376471,26.7630588 C29.7475294,27.3411765 29.7376471,27.916 29.7376471,28.5007059 C29.7535738,28.6311812 29.7348264,28.7635496 29.6832941,28.8844706 C29.5906158,29.0439835 29.5772293,29.2374797 29.6470588,29.4082353 C29.6916902,29.5866478 29.7160015,29.7695354 29.7195294,29.9534118 C29.7195294,30.128 29.6536471,30.3058824 29.6734118,30.4755294 C29.7179059,30.6383434 29.7838148,30.7945309 29.8694118,30.94 C29.5795294,31.1294118 29.5004706,31.4028235 29.4988235,31.7421176 C29.4762856,32.0824098 29.4278314,32.4204879 29.3538824,32.7534118 C29.2839542,33.052868 29.09154,33.309221 28.8235294,33.46 C28.8307138,33.499416 28.841747,33.5380322 28.8564706,33.5752941 C29.0211765,33.5752941 29.204,33.5752941 29.4065882,33.5752941 C29.4548486,33.7239365 29.4895781,33.8766358 29.5103529,34.0315294 C29.6536471,36.6948235 28.7148235,38.8705882 26.5687059,40.4912941 C26.0524186,40.9098013 25.4049653,41.1326186 24.7404706,41.1204706 C24.3994058,41.1112161 24.0590692,41.1568168 23.7324706,41.2555294 C23.4211765,41.3477647 23.0571765,41.2736471 22.7162353,41.2654118 C22.3291765,41.2555294 21.9305882,41.1451765 21.5731765,41.3971765 C20.608,41.5305882 19.6461176,41.6936471 18.6694118,41.4828235 C18.3115684,41.3903324 17.9349602,41.4000329 17.5823529,41.5108235 C17.3336471,41.6030588 17.0322353,41.5734118 16.6715294,41.6030588 Z M21.3623529,19.5851765 C21.9378797,19.6625798 22.5211791,19.6625798 23.0967059,19.5851765 C23.324942,19.5364215 23.5462423,19.4595196 23.7555294,19.3562353 C24.1434003,19.2329554 24.4160258,18.8844916 24.4423529,18.4783529 C24.4818824,18.0336471 24.5444706,17.5872941 24.5477647,17.1425882 C24.5576471,14.8004706 24.5477647,12.4583529 24.5477647,10.1162353 C24.5477647,9.90705882 24.5807059,9.66823529 24.4950588,9.49364706 C24.3632941,9.22847059 24.4176471,8.99952941 24.4505882,8.73105882 C24.4835294,8.46258824 24.5592941,8.17435294 24.4637647,7.96188235 C24.2946056,7.54228827 24.2731162,7.07765195 24.4028235,6.64423529 C24.5362353,6.08423529 24.3863529,5.63129412 24.1096471,5.15035294 C23.9167519,4.76974296 23.5453897,4.51164624 23.1214118,4.46352941 C22.4552719,4.38714873 21.782431,4.38991307 21.1169412,4.47176471 C20.9344165,4.84609694 20.8467443,5.2595703 20.8616471,5.67576471 C20.8616471,6.72823529 20.8418824,7.78235294 20.8847059,8.83317647 C20.9597048,10.0946756 20.9646535,11.3593643 20.8995294,12.6214118 C20.8573366,13.0403935 20.8722971,13.4631663 20.944,13.8781176 C21.0288094,14.3435463 21.0614034,14.8169872 21.0411765,15.2896471 C21.0296471,16.2630588 21.0181176,17.2364706 21.028,18.2098824 C21.0144288,18.689968 21.1298924,19.1649045 21.3623529,19.5851765 Z M21.56,37.4623529 C22.2517647,37.5463529 22.8957647,37.5414118 23.5183529,37.2828235 C23.7917647,37.1691765 24.0437647,37.0407059 24.0635294,36.6832941 C24.0635294,36.5927059 24.1557647,36.5021176 24.2134118,36.4197647 C24.4001937,36.1711289 24.5173134,35.8771927 24.5527059,35.5682353 C24.6578458,34.6834085 24.7046136,33.7926191 24.6927059,32.9016471 C24.6930383,32.6139534 24.7222833,32.3270214 24.78,32.0451765 C24.9279394,31.2696335 24.9958251,30.4809455 24.9825882,29.6915294 C24.9694118,29.3621176 25.0122353,29.0063529 24.7569412,28.7181176 C24.7019742,28.6278362 24.6793238,28.5215535 24.6927059,28.4167059 C24.7371765,27.4712941 24.6087059,26.5341176 24.5609412,25.592 C24.5767896,25.3309467 24.523978,25.0702957 24.4077647,24.836 C24.2348235,24.5527059 24.1063529,24.2430588 23.9581176,23.9465882 C23.0736471,23.8131765 22.2418824,23.5167059 21.3574118,23.8461176 C21.3244706,24.8705882 21.2651765,25.8670588 21.2684706,26.8635294 C21.2684706,27.9143529 21.2981176,28.9684706 21.3837647,30.0143529 C21.4315294,30.5908235 21.5484706,31.1557647 21.4035294,31.7322353 C21.3761531,31.8072424 21.3721336,31.8887817 21.392,31.9661176 C21.5781176,32.4042353 21.4447059,32.8456471 21.4232941,33.2837647 C21.4002353,33.7548235 21.3705882,34.2258824 21.3821176,34.6969412 C21.4018824,35.4331765 21.4512941,36.1677647 21.4941176,36.9023529 C21.504,37.0835294 21.5352941,37.2597647 21.56,37.4623529 Z M26.9524706,36.7574118 C26.9178824,36.9221176 26.8816471,37.0868235 26.8503529,37.2614118 C26.8190588,37.436 26.7992941,37.5908235 26.7564706,37.8642353 C27.1929412,37.1905882 27.2077647,37.1296471 26.9524706,36.7574118 Z" id="Shape" fill-rule="nonzero"></path>
            <path d="M47.4682353,23.1691765 C47.2541176,23.4392941 47.1470588,23.6303529 47.152,23.8889412 C47.1684706,24.6257255 47.1684706,25.3625098 47.152,26.0992941 C47.152,26.3743529 47.2985882,26.5934118 47.3282353,26.8404706 C47.3545882,27.0545882 47.1750588,27.2868235 47.1635294,27.5141176 C47.1404706,28.1976471 47.1503529,28.8844706 47.1635294,29.568 C47.1743062,29.6965465 47.204862,29.822659 47.2541176,29.9418824 C47.2788235,30.0143529 47.376,30.0901176 47.3628235,30.1428235 C47.2294118,30.6171765 47.46,31.0668235 47.4352941,31.5395294 C47.3957647,32.2741176 47.4270588,33.0136471 47.4237647,33.7515294 C47.4237647,34.0167059 47.4237647,34.2555294 47.6395294,34.4778824 C47.7383529,34.5832941 47.7054118,34.8072941 47.7334118,35 L47.2392941,35.0312941 C47.2694662,35.3478273 47.2477692,35.667163 47.1750588,35.9767059 C47.0795294,36.2929412 47.1371765,36.6552941 47.1371765,36.9978824 C47.160315,37.2856805 47.0540586,37.5688297 46.8472941,37.7703529 C46.6825882,37.9350588 46.6101176,38.1771765 46.5030588,38.388 C46.396,38.5988235 46.2724706,38.8557647 46.1489412,39.1094118 C45.6465882,39.1258824 45.3567059,39.4388235 45.0289412,39.7567059 C44.648115,40.1046035 44.2094434,40.3833021 43.7327059,40.5802353 C43.3110588,40.7729412 42.8828235,41.0183529 42.3821176,40.9689412 C42.1712941,40.9475294 42.0527059,41.104 41.916,41.2192941 C41.5903891,41.4964561 41.1568964,41.6114891 40.7367059,41.5322353 C40.1931765,41.4465882 39.6545882,41.3411765 39.1374118,41.2489412 L38.9644706,40.8569412 C38.9051765,40.8322353 38.8574118,40.7943529 38.8112941,40.796 C38.6540698,40.7832129 38.4958183,40.7977007 38.3435294,40.8388235 C37.8148235,41.0595294 37.3124706,40.8009412 36.7985882,40.7811765 C36.5218824,40.5472941 36.1562353,40.4962353 35.8515294,40.3084706 C35.4298824,40.0465882 35.0181176,39.8061176 34.7628235,39.3432941 C34.6821176,39.1967059 34.412,39.1538824 34.1995294,39.0484706 C34.1451765,38.808 34.0710588,38.5543529 34.0348235,38.2990588 C34.0051765,38.1063529 33.964,37.9515294 33.7581176,37.8675294 C33.6688112,37.8173435 33.6079359,37.7284656 33.5934118,37.6270588 C33.6082265,37.3645701 33.4828798,37.1138767 33.264,36.9682353 C33.3727059,36.7063529 33.4632941,36.4905882 33.5637647,36.2517647 L33.1058824,35.784 C33.0762353,35.4249412 33.3595294,35.2898824 33.4912941,35.0263529 C33.3858824,34.8451765 33.2722353,34.6458824 33.1487059,34.4284706 C33.1946527,34.3685096 33.2465224,34.3133291 33.3035294,34.2637647 C33.5176471,34.1089412 33.5983529,33.9343529 33.5028235,33.7696471 C33.4287059,33.6329412 33.3068235,33.5225882 33.2392941,33.3825882 C33.1748311,33.2658817 33.1661317,33.1264099 33.2155929,33.0025975 C33.265054,32.8787852 33.3674565,32.7836968 33.4945882,32.7435294 C33.6329412,32.6875294 33.8009412,32.7089412 33.9376471,32.6529412 C34.05941,32.5772587 34.1702423,32.4852679 34.2670588,32.3795294 C34.0595294,32.2757647 33.9047059,32.2032941 33.7564706,32.1242353 C33.6082353,32.0451765 33.4435294,31.9430588 33.2854118,31.8508235 C33.2112941,31.5098824 33.1075294,31.192 33.2343529,30.8395294 C33.2739326,30.7131924 33.2807339,30.5788652 33.2541176,30.4491765 C33.1946048,30.2526454 33.1456718,30.0530648 33.1075294,29.8512941 C33.1153107,29.6450198 33.1451272,29.440169 33.1964706,29.2402353 C33.2343529,29.0261176 33.0696471,28.9108235 32.9263529,28.8136471 C33.0518268,28.5757568 33.1544057,28.326479 33.2327059,28.0691765 C33.2615084,27.8334255 33.2615084,27.5950451 33.2327059,27.3592941 C33.1849412,26.0976471 33.2607059,24.8294118 33.0284706,23.5710588 C33.1372434,23.1952053 33.0915956,22.7914892 32.9016471,22.4494118 C32.9988235,22.1792941 33.0943529,21.9388235 33.1717647,21.6901176 C33.1997647,21.5962353 33.2294118,21.4447059 33.1717647,21.3936471 C32.9345882,21.1482353 33.0597647,20.8764706 33.0614118,20.6047059 C33.0614118,20.216 33.1454118,19.8190588 32.9691765,19.4369412 C32.9330714,19.3149287 32.9330714,19.1850713 32.9691765,19.0630588 C33.0350588,18.7517647 33.0894118,18.4618824 32.8950588,18.1555294 C32.8094118,18.0188235 32.844,17.7997647 32.844,17.6169412 C32.844,16.2482353 32.844,14.8795294 32.844,13.5108235 C32.844,12.6971765 32.8061176,11.8835294 32.7847059,11.0698824 C32.7735277,10.965417 32.7696752,10.8602974 32.7731765,10.7552941 C32.9378824,9.33717647 32.8011765,7.91411765 32.8472941,6.49435294 C32.8289485,6.25848428 32.8389016,6.02126756 32.8769412,5.78776471 C33.0200339,5.29284461 33.1932993,4.80715135 33.3957647,4.33341176 C33.5127059,4.06 33.6115294,3.76847059 33.9294118,3.59882353 C34.076,3.51976471 34.1171765,3.24141176 34.2110588,3.04211765 C34.337416,3.00535476 34.4594515,2.95510485 34.5750588,2.89223529 C34.8351947,2.70471237 35.171192,2.6578577 35.4727059,2.76705882 C35.6456471,2.81976471 35.8334118,2.88235294 35.98,2.63858824 C35.896,2.54635294 35.7461176,2.45741176 35.728,2.34541176 C35.7210636,2.1739172 35.7399411,2.00235401 35.784,1.83647059 C36.5844706,1.30611765 37.4656471,1.07717647 38.3336471,0.848235294 C38.8668352,0.709243432 39.4166352,0.644398067 39.9675294,0.655529412 C40.5978891,0.689577316 41.2258506,0.75886203 41.8484706,0.863058824 C42.0823529,0.894352941 42.3129412,0.961882353 42.5468235,0.986588235 C42.7807059,1.01129412 43.0047059,1.01129412 43.1908235,1.21223529 C43.3198761,1.30295452 43.4681074,1.36269792 43.624,1.38682353 C43.9698824,1.49717647 44.3750588,1.82329412 44.7423529,2.02917647 C45.2068235,2.28941176 45.4571765,2.78352941 45.9414118,3.00588235 C46.0546616,3.07005841 46.1463625,3.1663444 46.2049412,3.28258824 C46.3512186,3.5326335 46.4778733,3.79365224 46.5837647,4.06329412 C46.6474788,4.23523689 46.6716845,4.41931314 46.6545882,4.60188235 C46.6051765,5.096 46.5623529,5.57364706 46.8752941,6.01835294 C46.9543529,6.12870588 46.9148235,6.32305882 46.9312941,6.47952941 C46.9609412,6.76282353 46.9955294,7.04776471 47.0202353,7.33105882 C47.0319477,7.42916279 47.0252447,7.5285911 47.0004706,7.62423529 C46.8891943,7.89563529 46.9073763,8.20291083 47.0498824,8.45929412 C47.0864856,8.52947956 47.1056912,8.6074317 47.1058824,8.68658824 C47.1058824,9.10823529 47.1371765,9.53152941 47.1058824,9.94988235 C47.0745882,10.3682353 47.1635294,10.7734118 47.1437647,11.1934118 C47.1025882,12.1091765 47.0202353,13.0331765 47.1981176,13.9472941 C47.2129753,13.9974722 47.2174585,14.0501504 47.2112941,14.1021176 C47.0136471,14.9075294 47.1437647,15.7261176 47.1190588,16.5381176 C47.1075294,16.9235294 47.1865882,17.3138824 47.18,17.6992941 C47.1734118,18.0847059 47.1075294,18.48 47.068,18.872 C47.063065,18.897568 47.063065,18.9238438 47.068,18.9494118 C47.3002353,20.0496471 47.0828235,21.1564706 47.1075294,22.26 C47.1058824,22.5877647 47.0597647,22.9468235 47.4682353,23.1691765 Z M39.1390588,37.1181176 C39.984,37.2663529 40.8058824,37.24 41.6096471,36.8710588 C42.0181176,36.6832941 42.2289412,36.4148235 42.2207059,35.9651765 C42.2207059,35.4908235 42.2207059,35.0164706 42.2207059,34.5437647 C42.2049539,34.3883179 42.2377518,34.2318088 42.3145882,34.0957647 C42.5105882,33.8701176 42.5105882,33.6164706 42.5122353,33.3562353 C42.5122353,32.5162353 42.5122353,31.6745882 42.5122353,30.8329412 C42.494557,30.6497485 42.4984265,30.4651146 42.5237647,30.2828235 C42.6598587,29.6440791 42.6760553,28.9856042 42.5715294,28.3409412 C42.4551487,27.2428418 42.3946784,26.139535 42.3903529,25.0352941 C42.3195294,22.2451765 42.2701176,19.4550588 42.2256471,16.6665882 C42.1663529,13.4021176 42.111451,10.1376471 42.0609412,6.87317647 C42.0759811,6.68813665 42.0552916,6.50193108 42,6.32470588 C41.7924706,5.87176471 41.5487059,5.43364706 41.3049412,5.00705882 C41.2484378,4.91901813 41.1617695,4.85460249 41.0611765,4.82588235 C40.3298824,4.648 39.6035294,4.78964706 38.8771765,4.87858824 C38.4341176,5.22611765 37.8345882,5.42870588 37.772,6.12047059 C37.7489412,6.37741176 37.7028235,6.63270588 37.6665882,6.88964706 C37.912,7.15811765 37.8049412,7.48917647 37.8312941,7.79552941 C37.8893083,8.3166491 37.9146128,8.84089189 37.9070588,9.36517647 C37.8741176,9.90376471 38.0289412,10.4703529 37.7258824,10.9825882 C37.6937675,11.0509248 37.6937675,11.1300164 37.7258824,11.1983529 C37.8905882,11.4404706 37.8214118,11.7089412 37.8329412,11.9658824 C37.8642353,12.6477647 37.8938824,13.3296471 37.9103529,14.0131765 C37.9253271,14.2221844 37.9075439,14.4322485 37.8576471,14.6357647 C37.7657922,14.9926021 37.7584606,15.3659492 37.8362353,15.7261176 C37.8897078,16.0898039 37.9144901,16.4571329 37.9103529,16.8247059 C37.9103529,17.4538824 37.8576471,18.0830588 37.8345882,18.7138824 C37.7934118,19.8964706 37.7407059,21.0807059 37.7192941,22.2649412 C37.6845427,22.947431 37.706027,23.6316233 37.7835294,24.3105882 C37.8933801,25.1977389 37.938519,26.0917081 37.9185882,26.9854118 C37.9185882,28.224 37.9185882,29.456 37.9185882,30.6978824 C37.9185882,31.0618824 37.8510588,31.4357647 38.0141176,31.7898824 C38.0369836,31.8622364 38.0369836,31.9398812 38.0141176,32.0122353 C37.8494118,32.6710588 37.9778824,33.3298824 38.0141176,33.9771765 C38.0049365,34.2413438 38.0491936,34.5046451 38.1442353,34.7512941 C38.3204706,35.0971765 38.332,35.448 38.3698824,35.812 C38.40504,36.015775 38.483687,36.2095838 38.6004706,36.3802353 C38.7355294,36.6124706 38.9216471,36.8282353 39.1390588,37.1181176 Z M34.5882353,35.0345882 C34.9654118,34.9275294 35.2124706,34.8797647 35.2470588,34.5635294 C35.2585882,34.4844706 35.1795294,34.3988235 35.1432941,34.3115294 C35.0774118,34.3428235 34.9868235,34.356 34.9505882,34.4087059 C34.8435294,34.5701176 34.7529412,34.7529412 34.5882353,35.0345882 Z M34.0545882,35.9371765 L34.0545882,36.6602353 C34.2176471,36.3242353 34.3329412,36.1397647 34.0512941,35.9371765 L34.0545882,35.9371765 Z M45.2825882,36.7607059 C45.3488534,36.8032432 45.4188706,36.8396301 45.4917647,36.8694118 C45.5032941,36.8694118 45.5691765,36.7804706 45.5592941,36.7475294 C45.5307775,36.686315 45.4917562,36.6305703 45.444,36.5828235 L45.2825882,36.7607059 Z" id="Shape" fill-rule="nonzero"></path>
            <path d="M56.9338824,40.6411765 C56.7312941,40.4138824 56.4397647,40.5176471 56.1861176,40.4369412 C56.0988235,40.2541176 56.0131765,40.0712941 55.916,39.8687059 C55.4581176,40.18 55.5635294,40.6922353 55.3988235,41.1402353 L54.8470588,40.9475294 C54.7301176,40.4896471 55.2291765,40.4715294 55.3214118,40.1388235 L54.7564706,40.0828235 C54.8454118,39.7912941 55.1978824,39.5508235 54.9211765,39.2230588 L54.3430588,39.3383529 C54.1783529,39.0254118 54.3710588,38.556 53.8687059,38.4769412 C53.5666194,38.6373117 53.4048268,38.9762739 53.4701176,39.312 C53.5969412,39.4174118 53.7583529,39.5458824 53.9131765,39.6825882 C54.0103529,39.7682353 54.1371765,39.8472941 54.1734118,39.9625882 C54.2144796,40.1070272 54.2098772,40.2606319 54.1602353,40.4023529 C54.1124706,40.5275294 53.8621176,40.4632941 53.7007059,40.2952941 C53.4701176,40.0548235 53.4701176,40.0548235 53.0303529,39.9411765 C52.9313311,39.7624115 52.8184356,39.5916915 52.6927059,39.4305882 C52.1788235,38.8491765 51.9894118,38.1491765 51.9136471,37.4047059 C51.8658824,36.932 51.8164706,36.4609412 51.7752941,35.9882353 C51.7521873,35.8320658 51.7521873,35.673346 51.7752941,35.5171765 C51.9112606,34.7952322 51.9028637,34.0535047 51.7505882,33.3348235 C51.6920663,32.9443689 51.6606969,32.5503252 51.6567059,32.1555294 C51.6605692,32.0003421 51.6935323,31.8472594 51.7538824,31.7042353 C51.8444706,31.444 51.8872941,31.2002353 51.6995294,30.9597647 C51.6583529,30.9054118 51.6204706,30.7950588 51.6484706,30.7472941 C51.8494118,30.4178824 51.6781176,30.0785882 51.6764706,29.7458824 C51.6764706,29.4889412 51.6007059,29.2369412 51.7950588,28.9931765 C51.9367059,28.8152941 51.8329412,28.5863529 51.772,28.3854118 C51.7042932,28.1626793 51.7135765,27.9236343 51.7983529,27.7068235 C51.8971765,27.4251765 51.8576471,27.0941176 51.8790588,26.7647059 C52.1047059,26.6312941 52.3451765,26.74 52.5691765,26.7087059 C52.7931765,26.6774118 53.0352941,26.6609412 53.2675294,26.6378824 C53.3189646,26.7064138 53.3605452,26.7818132 53.3910588,26.8618824 C53.424,27.0265882 53.4750588,27.1665882 53.6776471,27.1698824 C53.8422583,27.146367 53.9948173,27.260602 54.0185882,27.4251765 C54.0647059,27.6788235 54.2574118,27.6574118 54.4451765,27.6590588 C54.6329412,27.6607059 54.7218824,27.5207059 54.7745882,27.3708235 C54.8235827,27.2520973 54.8389677,27.1221799 54.8190588,26.9952941 C54.7614118,26.7943529 54.8322353,26.6938824 54.9442353,26.5242353 C55.0941176,26.3018824 55.1089412,25.984 55.1665882,25.7385882 C55.0611765,25.5096471 54.9738824,25.3202353 54.8915294,25.1390588 L55.1896471,24.5856471 C55.1468235,24.5 55.1402353,24.4654118 55.1221176,24.4555294 C54.852,24.3237647 54.5687059,24.2529412 54.2887059,24.4028235 C54.0564706,24.528 54.0070588,24.7322353 54.0301176,25.0072941 C54.0614118,25.3630588 53.9807059,25.7204706 54.0301176,26.0861176 C54.0906234,26.3591317 53.9410696,26.6350692 53.6792941,26.7334118 C53.5014118,26.4912941 53.7089412,26.2392941 53.6611765,25.956 C53.4900717,25.9234884 53.3216107,25.8783453 53.1571765,25.8209412 C52.9710588,25.7418824 52.9924706,25.5837647 53.0715294,25.396 L53.676,25.2823529 C53.6545882,25.2164706 53.6545882,25.1505882 53.6265882,25.1357647 C53.2872941,24.9397647 52.9430588,24.7536471 52.5527059,24.5378824 C52.3294383,24.6704915 52.2380778,24.947384 52.3385882,25.1868235 C52.4299907,25.3987456 52.4393829,25.6370716 52.3649412,25.8555294 C52.3171765,26.0416471 52.388,26.2574118 52.4044706,26.4435294 C52.2710588,26.5571765 52.1771765,26.4962353 52.1392941,26.3974118 C52.0870612,26.2494188 52.0527769,26.0956923 52.0371765,25.9395294 C51.9844706,25.4981176 51.9663529,25.0649412 51.7275294,24.6515294 C51.6155294,24.4571765 51.7275294,24.1425882 51.6978824,23.8872941 C51.6682353,23.632 51.3536471,23.4854118 51.3849412,23.1872941 C51.3948235,23.0835294 51.3503529,22.9567059 51.3948235,22.876 C51.604,22.4955294 51.4969412,22.1167059 51.4244706,21.7345882 C51.4149459,21.6249909 51.4149459,21.5147738 51.4244706,21.4051765 C51.4929364,21.3695077 51.5589634,21.3293413 51.6221176,21.2849412 C51.8790588,21.0889412 51.8922353,20.9472941 51.6764706,20.72 C51.6402353,20.6837647 51.5825882,20.6672941 51.5463529,20.6310588 C51.3734118,20.4515294 51.3816471,20.4152941 51.6715294,20.1105882 C51.5740794,19.9681374 51.5006353,19.8106779 51.4541176,19.6444706 C51.4343529,19.4797647 51.5331765,19.292 51.5578824,19.1124706 C51.6155294,18.7237647 51.6764706,18.3334118 51.7011765,17.9397647 C51.7258824,17.5461176 51.7505882,17.1705882 51.2663529,17.0832941 C51.246173,16.796744 51.3233636,16.5117771 51.4854118,16.2745882 C51.6797647,15.9830588 51.6616471,15.9698824 51.3865882,15.7096471 C51.156,15.4938824 51.1411765,15.3308235 51.408,15.176 C51.5688814,15.086306 51.6708228,14.9186968 51.6764706,14.7345882 C51.7143529,14.4545882 51.7868235,14.224 52.1327059,14.1976471 C52.3764706,14.1778824 52.2776471,13.8814118 52.4341176,13.7809412 C52.7141176,13.7661176 52.584,
            14.0774118 52.7388235,14.1630588 C52.7882353,14.1778824 52.8442353,14.2174118 52.8854118,14.2042353 C53.3501446,14.0433503 53.8536557,14.0324045 54.3249412,14.1729412 C54.4369412,14.2091765 54.572,13.9950588 54.5028235,13.8945882 C54.3381176,13.6623529 54.1734118,13.4317647 53.9856471,13.2143529 C53.9378235,13.1483776 53.8633514,13.1068354 53.7820897,13.1008043 C53.700828,13.0947732 53.6210391,13.1248663 53.564,13.1830588 C53.1505882,13.5915294 52.7009412,13.4021176 52.2463529,13.2983529 C52.0816471,12.9821176 51.7192941,12.9952941 51.4590588,12.8701176 C51.4508235,12.3002353 51.9251765,12.4632941 52.2051765,12.3463529 C52.3418824,11.9823529 52.0223529,11.7616471 51.9564706,11.4701176 C52.248,10.9545882 52.5708235,10.4818824 53.3350588,10.5461176 C53.3752763,10.6086458 53.4253332,10.6642645 53.4832941,10.7108235 C53.5446377,10.7517101 53.622001,10.760306 53.6908235,10.7338824 C53.9543529,10.5065882 54.0564706,10.2397647 53.8670588,9.91035294 C54.0498824,9.92188235 54.2392941,9.94494118 54.3117647,9.59741176 C54.3512941,9.53152941 54.0004706,9.50682353 54.1552941,9.30752941 C54.2063529,9.30752941 54.2557647,9.30752941 54.3035294,9.32564706 C54.4797647,9.36023529 54.6329412,9.31576471 54.6658824,9.13129412 C54.6922353,8.98305882 54.5785882,8.89576471 54.4237647,8.91223529 C54.2689412,8.92870588 54.2112941,8.80023529 54.1470588,8.69317647 C54.0828235,8.58611765 53.9823529,8.48729412 53.8357647,8.54823529 C53.7772065,8.71349906 53.7090111,8.87518814 53.6315294,9.03247059 C53.4272941,9.38988235 53.4124706,9.39811765 53.7550588,9.62211765 C53.8868235,9.70941176 53.9444706,9.78682353 53.8884706,9.92847059 L53.3037647,10.1178824 C52.9644706,9.55294118 52.8705882,9.25482353 52.8705882,8.72941176 C52.8705882,8.49388235 52.8574118,8.25670588 52.8343529,8.02117647 C52.8244706,7.91082353 52.6136471,7.82682353 52.5131765,7.896 C52.4588235,7.93388235 52.3912941,8.04917647 52.4110588,8.08047059 C52.8030588,8.71294118 52.5988235,9.40964706 52.6383529,10.08 C52.6329476,10.1729628 52.6180465,10.2651289 52.5938824,10.3550588 C52.2282353,10.4258824 51.9498824,10.64 51.8329412,11.1785882 C51.6682353,10.8491765 51.6204706,10.584 51.4689412,10.4835294 C51.2922144,10.3723534 51.1909518,10.1729926 51.2054118,9.96470588 C51.1856471,9.62541176 51.1411765,9.28776471 51.1247059,8.94847059 C51.1323492,8.81956658 51.1488588,8.69134179 51.1741176,8.56470588 C51.1922353,8.38188235 51.2581176,8.18094118 51.2054118,8.02282353 C51.0110588,7.45129412 51.296,7.12517647 51.7143529,6.85835294 L52.7289412,6.95388235 C52.8936471,6.57505882 52.7487059,6.23741176 52.8508235,5.91294118 L52.4209412,5.78282353 C52.2068235,5.52423529 52.612,5.45341176 52.5856471,5.25082353 C52.3814118,5.08611765 52.1887059,5.33152941 51.9432941,5.25082353 C51.7594669,5.00054324 51.6786984,4.68926035 51.7176471,4.38117647 C51.8149263,4.3517074 51.9147246,4.33130664 52.0157647,4.32023529 C52.1264413,4.32573324 52.236552,4.33949708 52.3451765,4.36141176 C52.2969466,4.43629861 52.252956,4.51383219 52.2134118,4.59364706 C52.1343529,4.80117647 52.1837647,4.90494118 52.3781176,4.92305882 C52.5146034,4.92524036 52.6510786,4.91808642 52.7865882,4.90164706 C52.8869157,4.50616344 52.8992847,4.09348834 52.8228235,3.69270588 L52.4061176,3.71411765 L52.2496471,3.32541176 C51.5908235,3.22823529 51.0390588,2.996 51.2614118,2.09505882 C51.7934118,1.94847059 52.2990588,2.20211765 52.8145882,2.20047059 C53.3778824,1.81505882 54.0054118,1.484 54.0037647,0.667058824 C54.6428235,0.502352941 55.1336471,0.721411765 55.6162353,0.996470588 C55.7447059,1.30611765 55.6837647,1.62564706 55.6821176,1.93694118 C55.6821176,2.85929412 55.6656471,3.78 55.9176471,4.68258824 C55.9599242,4.88890962 55.974876,5.09989611 55.9621176,5.31011765 C55.9621176,6.13364706 55.9538824,6.94235294 55.9621176,7.75929412 C56.000549,10.5230588 56.0439216,13.2873725 56.0922353,16.0522353 C56.0922353,16.2317647 56.1498824,16.4112941 56.168,16.5924706 C56.1762373,16.715313 56.1762373,16.8385693 56.168,16.9614118 C56.1431274,17.1680145 56.130478,17.3759058 56.1301176,17.584 C56.1482353,17.8722353 56.2305882,18.1571765 56.2355294,18.4437647 C56.2355294,18.6990588 56.1482353,18.9527059 56.1465882,19.208 C56.1465882,19.6181176 56.2487059,20.0315294 56.1103529,20.4383529 C56.4397647,21.2783529 56.2124706,22.1545882 56.2618824,23.0127059 C56.2523067,23.3511296 56.2154023,23.6882264 56.1515294,24.0207059 C56.3672941,24.304 56.3870588,24.6927059 56.3294118,25.1341176 C56.2585882,25.6710588 56.1647059,26.2327059 56.4249412,26.7597647 C56.4068235,27.5141176 56.5896471,28.2783529 56.308,29.0211765 C56.2593148,29.1393385 56.2593148,29.2719556 56.308,29.3901176 C56.4628235,29.6322353 56.4463529,29.8842353 56.448,30.1527059 C56.448,30.6468235 56.448,31.1524706 56.448,31.6531765 C56.448,32.0978824 56.4101176,32.5442353 56.5567059,32.984 C56.5918277,33.1646357 56.5996008,33.3495243 56.5797647,33.5324706 C56.5797647,34.3230588 56.5929412,35.1136471 56.5797647,35.9042353 C56.5671226,36.2947895 56.6496508,36.6825592 56.8202353,37.0341176 C57.0063529,37.4211765 57.2616471,37.66 57.7228235,37.6484706 C59.0207059,37.6188235 59.4176471,37.2663529 59.6449412,35.9421176 C59.6760337,35.6803567 59.6848497,35.4164288 59.6712941,35.1531765 C59.6570196,32.256549 59.6416471,29.3593725 59.6251765,26.4616471 C59.6101227,26.3570091 59.6134672,26.2505456 59.6350588,26.1470588 C59.7882604,25.7794877 59.7964998,25.3675204 59.6581176,24.9941176 C59.631758,24.892027 59.631758,24.7849142 59.6581176,24.6828235 C59.892,23.5298824 59.7931765,22.3769412 59.7075294,21.224 C59.5922353,19.6741176 59.4604706,18.1258824 59.5131765,16.5694118 C59.5444706,15.6487059 59.5543529,14.7247059 59.3484706,13.8155294 C59.3337953,13.687926 59.3496006,13.5586614 59.3945882,13.4383529 C59.5345882,12.9755294 59.5724706,12.5192941 59.3534118,12.0663529 C59.3188235,11.9971765 59.2776471,11.9016471 59.3056471,11.8407059 C59.4868235,11.4915294 59.3764706,11.1407059 59.3550588,10.7849412 C59.3549404,10.4474696 59.3752915,10.1103015 59.416,9.77529412 C59.4283562,9.72411606 59.4327999,9.67134723 59.4291765,9.61882353 C59.2298824,8.95011765 59.3287059,8.26164706 59.3155294,7.58305882 C59.3155294,7.28988235 59.0371765,7.07082353 59.1376471,6.75952941 C59.2113791,6.50753385 59.2664303,6.25044474 59.3023529,5.99035294 C59.3221517,5.80714241 59.3287569,5.6227458 59.3221176,5.43858824 C59.3221176,4.12094118 59.3248627,2.80329412 59.3303529,1.48564706 L59.3303529,0.762588235 C59.5510588,0.525411765 59.7734118,0.597882353 59.9727059,0.611058824 C61.2096471,0.667058824 62.4432941,0.736235294 63.6818824,0.800470588 C63.7856471,0.800470588 63.8910588,0.800470588 63.9964706,0.800470588 C64.2517647,0.800470588 64.3752941,0.947058824 64.4444706,1.21717647 L64.0195294,1.67670588 C64.0475294,2.43764706 64.0294118,3.22658824 64.2072941,4.004 C64.2346094,4.07591059 64.245853,4.15292873 64.2402353,4.22964706 C64.0261176,5.03505882 64.1891765,5.85364706 64.1463529,6.664 C64.1514461,6.87355427 64.169599,7.08258718 64.2007059,7.28988235 C64.2410563,7.52265534 64.248817,7.7599112 64.2237647,7.99482353 C64.0442353,8.80847059 64.2237647,9.61717647 64.2105882,10.4275294 C64.2105882,10.6894118 64.2402353,10.9529412 64.2402353,11.2148235 C64.2402353,13.0068235 64.2402353,14.7971765 64.2402353,16.5891765 C64.2402353,16.8691765 64.1891765,17.1541176 64.4148235,17.4127059 C64.5152941,17.5263529 64.4971765,17.7618824 64.4988235,17.9414118 C64.4988235,18.9675294 64.4988235,19.9952941 64.4988235,21.0230588 C64.4988235,21.3343529 64.4576471,21.6505882 64.6305882,21.9487059 C64.6756007,22.0724467 64.6902858,22.2051769 64.6734118,22.3357647 C64.6734118,22.9418824 64.6734118,23.5463529 64.6734118,24.1475294 C64.6899692,24.2777405 64.6682197,24.4099545 64.6108235,24.528 C64.3505882,24.8705882 64.4312941,25.2263529 64.5268235,25.5854118 C64.582189,25.7813704 64.595104,25.9868872 64.5647059,26.1882353 C64.4856471,26.8058824 64.4247059,27.4284706 64.6223529,28.056 C64.7022407,28.3595314 64.6971125,28.6791874 64.6075294,28.98 C64.5136471,29.2995294 64.4576471,29.5844706 64.6190588,29.8858824 C64.6918811,30.0295044 64.6765426,30.2020626 64.5795294,30.3305882 C64.4850049,30.4560921 64.4022993,30.5900753 64.3324706,30.7308235 C64.2929412,30.8378824 64.2764706,31.0305882 64.3324706,31.0865882 C64.5432941,31.2743529 64.5284706,31.5082353 64.5301176,31.7454118 C64.5301176,32.6941176 64.5498824,33.6428235 64.3341176,34.5767059 C64.2929412,34.7578824 64.2517647,34.9192941 64.4065882,35.0889412 C64.4770749,35.1970699 64.5079223,35.3262797 64.4938824,35.4545882 C64.484,35.7395294 64.4247059,36.0244706 64.4230588,36.3110588 C64.4241801,36.5596993 64.3841083,36.8068085 64.3044706,37.0423529 C64.1661176,37.4574118 64.1661176,37.9169412 64.1134118,38.3270588 C63.9388235,38.6185882 63.5254118,38.6762353 63.532,39.0731765 C63.532,39.1522353 62.9176471,39.6430588 62.7990588,39.7237647 C62.6639577,39.7968238 62.5424869,39.8926632 62.44,40.0070588 C62.0594647,40.5801824 61.4616793,40.9733527 60.7847059,41.0957647 C60.6416174,41.1472829 60.5076308,41.2212257 60.3877647,41.3148235 C60.2757647,41.3790588 60.1670588,41.4976471 60.0583529,41.5025882 C59.5049412,41.524 58.9943529,41.7249412 58.464,41.832 C57.7352862,41.958217 56.9866566,41.7808787 56.392,41.3411765 C56.5045129,41.2275209 56.6262641,41.1233989 56.756,41.0298824 C56.9207059,40.9277647 56.9207059,40.7795294 56.9207059,40.6197647 L57.5152941,40.8470588 C57.593663,40.7108444 57.6925482,40.5875157 57.8084706,40.4814118 C57.8792761,40.4484182 57.9298134,40.38329 57.9441894,40.3065091 C57.9585654,40.2297281 57.9350138,40.1507279 57.8809412,40.0943529 C57.7998088,39.9547296 57.6261376,39.8992118 57.4790588,39.9658824 C57.1733567,40.053862 56.9554336,40.323797 56.9338824,40.6411765 Z M53.8588235,14.7708235 C53.7386634,14.7340399 53.6150282,14.7097544 53.4898824,14.6983529 C53.3416471,14.6983529 53.2576471,14.7724706 53.3630588,14.924 C53.396,14.924 53.4207059,14.9454118 53.4371765,14.9388235 C53.5788235,14.8828235 53.7188235,14.8235294 53.8604706,14.7741176 C53.8604706,
            14.9931765 53.6463529,15.2122353 53.8967059,15.4708235 C53.9362353,15.3687059 54.0021176,15.2830588 53.9922353,15.2072941 C53.9610409,15.0580725 53.9163877,14.9119849 53.8588235,14.7708235 Z M53.5294118,23.7802353 C53.6694118,23.8889412 53.7649412,24.0668235 53.9889412,24.0421176 C54.2283388,24.0312491 54.452285,23.9207689 54.6065882,23.7374118 C54.7015515,23.6118838 54.7848021,23.4779109 54.8552941,23.3371765 C54.936,23.1823529 55.2028235,23.1625882 55.1517647,22.9155294 L54.7383529,22.54 L55.1962353,22.0705882 C55.02,21.4776471 54.8487059,20.9028235 54.6741176,20.3296471 C54.6741176,20.3065882 54.6378824,20.2934118 54.5802353,20.2407059 L54.1075294,20.2983529 C54.0350588,20.7809412 54.0367059,20.7792941 54.3150588,20.9868235 C54.4089412,21.0576471 54.4962353,21.1383529 54.5851765,21.2141176 C54.5374118,21.2750588 54.5242353,21.3063529 54.5044706,21.3145882 C54.3018824,21.3936471 54.0976471,21.0971765 53.9164706,21.2865882 C53.7854948,21.4475248 53.6748567,21.6239927 53.5870588,21.812 C53.5261176,21.9207059 53.4767059,22.0376471 53.4042353,22.1858824 C53.8456471,22.4263529 54.0004706,22.8447059 54.2162353,23.2317647 C54.2433829,23.2922616 54.2402388,23.3620473 54.207761,23.4198578 C54.1752831,23.4776683 54.1173186,23.516656 54.0515294,23.5249412 C53.8472941,23.5611765 53.6167059,23.5249412 53.536,23.7967059 C53.4959262,23.825847 53.4579503,23.8577688 53.4223529,23.8922353 C53.2131765,24.1228235 53.2461176,24.2101176 53.62,24.3056471 C53.5870588,24.1178824 53.5557647,23.9482353 53.5294118,23.7802353 Z M54.936,35.3491765 C54.9524706,35.3327059 54.9804706,35.3178824 54.9837647,35.2981176 C55.0381176,34.9571765 54.9738824,34.5684706 55.412,34.3955294 C55.5042353,34.3592941 55.4367059,34.0941176 55.3197647,34.076 C54.9705882,34.02 54.6609412,33.7647059 54.2985882,33.8042353 C54.2429426,33.872633 54.19541,33.9472483 54.1569412,34.0265882 C54.0383529,34.4449412 53.928,34.8649412 53.8094118,35.3030588 C54.3809412,35.1910588 54.3809412,35.1910588 54.9294118,35.3491765 L54.936,35.3491765 Z M52.7948235,19.1882353 L52.7157647,19.7136471 L53.4042353,19.8651765 C53.34,19.2409412 53.2790588,18.648 53.2164706,18.0534118 C52.7223529,18.0962353 52.7223529,18.0978824 52.64,18.4124706 C52.5905882,18.5771765 52.5131765,18.7418824 52.4538824,18.9164706 C52.44729,18.9601448 52.44729,19.0045611 52.4538824,19.0482353 L52.7948235,19.1882353 Z M54.7564706,17.304 C54.4496194,17.2264271 54.129143,17.2196684 53.8192941,17.2842353 C53.5496444,17.3144433 53.2776928,17.3183047 53.0072941,17.2957647 C52.9068235,17.8755294 53.4009412,17.5675294 53.5557647,17.7388235 C53.6348235,18.3465882 53.6628235,18.3745882 54.1618824,18.3284706 C54.2870588,17.7585882 54.2870588,17.7585882 54.7548235,17.304 L54.7564706,17.304 Z M54.2623529,30.9745882 C54.5917647,30.9251765 54.6444706,31.3402353 55.0002353,31.3336471 C55.0259292,31.2031999 55.0424403,31.071111 55.0496471,30.9383529 C55.0397647,30.6550588 55.0117647,30.3734118 54.992,30.0967059 C54.3529412,30.1016471 54.2821176,30.1790588 54.264,30.9762353 L54.2623529,30.9745882 Z M54.4501176,37.7868235 C54.5492542,37.4862702 54.5532803,37.1624547 54.4616471,36.8595294 C54.2629178,36.7588089 54.0218743,36.798095 53.8654118,36.9567059 C53.8123181,37.0126998 53.7864331,37.0891506 53.7945882,37.1658824 C53.8308235,37.3931765 53.8571765,37.6484706 54.0745882,37.7785882 C54.1684706,37.8345882 54.32,37.7884706 54.4517647,37.7884706 L54.4501176,37.7868235 Z M54.8997647,28.2832941 L54.8997647,29.5861176 C55.0644706,29.5515294 55.1896471,29.5301176 55.3082353,29.5004706 C55.3230588,29.5004706 55.3296471,29.4625882 55.3543529,29.4148235 C55.2950588,29.1101176 55.2407059,28.7790588 55.1583529,28.4562353 C55.1435294,28.3952941 55.02,28.3607059 54.9014118,28.2849412 L54.8997647,28.2832941 Z M52.9232941,30.0538824 C52.9512941,30.3141176 52.9727059,30.5381176 53.2230588,30.4870588 C53.4996352,30.4446285 53.6923074,30.1899218 53.6578824,29.9122353 C53.5483122,29.9021029 53.4380408,29.9021029 53.3284706,29.9122353 C53.1898376,29.9509332 53.0539301,29.9988034 52.9216471,30.0555294 L52.9232941,30.0538824 Z M63.3887059,31.3863529 C63.1416471,31.3287059 62.9242353,31.3007059 62.7628235,31.5312941 C62.6887059,31.6383529 62.6195294,31.7487059 62.8254118,31.9051765 C62.9934118,31.7487059 63.4117647,31.8969412 63.3870588,31.388 L63.3887059,31.3863529 Z M52.6828235,27.9028235 C52.8903529,28.0230588 52.9545882,28.3047059 53.2312941,28.4496471 C53.2555968,28.3320933 53.2671928,28.2122677 53.2658824,28.0922353 C53.2510588,27.9769412 53.2329412,27.8155294 53.1571765,27.7628235 C53.0007059,27.6705882 52.8129412,27.6425882 52.6762353,27.9044706 L52.6828235,27.9028235 Z M53.2,33.9294118 C53.3103529,33.7317647 53.3762353,33.5654118 53.2312941,33.4089412 C53.1777903,33.3602657 53.1051092,33.3384614 53.0336471,33.3496471 C52.967735,33.3766707 52.9195789,33.4347049 52.9051765,33.5044706 C52.8780946,33.7012091 53.0062319,33.8858986 53.2,33.9294118 Z M53.5047059,32.8785882 C53.5997905,33.0664628 53.7805163,33.1961674 53.9889412,33.2261176 C54.0385357,33.2280084 54.0863387,33.207435 54.1190588,33.1701176 C54.1436075,33.1275117 54.147836,33.0761657 54.1305882,33.0301176 C53.9971765,32.7501176 53.788,32.7517647 53.5014118,32.8752941 L53.5047059,32.8785882 Z M54.0136471,11.4207059 C53.8987228,11.3613662 53.7778056,11.3144349 53.6529412,11.2807059 C53.5491765,11.2642353 53.4882353,11.4091765 53.5327059,11.5129412 C53.5541924,11.5753951 53.6021456,11.6251835 53.6637489,11.6489992 C53.7253523,11.672815 53.794326,11.6682303 53.8522353,11.6364706 C53.9049412,11.6101176 53.9345882,11.5294118 54.0103529,11.4174118 L54.0136471,11.4207059 Z M53.0567059,28.8795294 C52.9381176,29.1331765 52.8327059,29.2797647 52.9792941,29.456 C53.0299411,29.5088663 53.1026837,29.5345402 53.1752941,29.5251765 C53.2263529,29.5087059 53.2971765,29.4032941 53.284,29.3604706 C53.2178541,29.1957678 53.1408212,29.0356493 53.0534118,28.8811765 L53.0567059,28.8795294 Z M53.8901176,19.0762353 C53.9395294,19.0021176 53.9691765,18.9757647 53.9642353,18.9592941 C53.9428235,18.8687059 53.9362353,18.7369412 53.8769412,18.704 C53.8176471,18.6710588 53.6908235,18.7155294 53.5936471,18.7270588 C53.6340787,18.8113051 53.679168,18.8932358 53.7287059,18.9724706 C53.7517647,19.0103529 53.8077647,19.0284706 53.8868235,19.0778824 L53.8901176,19.0762353 Z M54.3463529,35.924 C54.4501176,35.8004706 54.5110588,35.7592941 54.5341176,35.6950588 C54.5736471,35.5978824 54.5785882,35.4792941 54.4435294,35.4595294 C54.3730457,35.4697867 54.3133941,35.5168801 54.2870588,35.5830588 C54.2890089,35.6993667 54.3078732,35.8147719 54.3430588,35.9256471 L54.3463529,35.924 Z M52.7651765,11.48 C52.7487059,11.4058824 52.752,11.368 52.7371765,11.3597647 C52.6565458,11.3082125 52.5716935,11.2635824 52.4835294,11.2263529 C52.4654118,11.2263529 52.4225882,11.284 52.3912941,11.3152941 C52.4687059,11.3745882 52.5461176,11.4338824 52.6268235,11.48 C52.6432941,11.4997647 52.6745882,11.4865882 52.7651765,11.48 Z M53.2592941,15.3571765 C53.2193763,15.3017539 53.1716689,15.2523822 53.1176471,15.2105882 C53.0962353,15.1974118 53.0369412,15.2468235 52.9941176,15.2682353 C53.0274565,15.3269324 53.0666355,15.3821141 53.1110588,15.4329412 C53.1143529,15.4444706 53.1835294,15.3934118 53.2527059,15.3571765 L53.2592941,15.3571765 Z M54.9936471,18.4734118 C54.9380232,18.4421582 54.8795666,18.4162387 54.8190588,18.396 C54.8075294,18.396 54.7482353,18.4981176 54.7597647,18.5096471 C54.8056084,18.5510574 54.8565255,18.5864781 54.9112941,18.6150588 L54.9936471,18.4734118 Z M53.7056471,4.45017745 C53.6710588,4.37625745 53.6611765,4.31577745 53.6315294,4.30401745 C53.58577,4.29049803 53.5365131,4.29785052 53.4964706,4.32417745 C53.4767059,4.33761745 53.4964706,4.44177745 53.4964706,4.44345745 C53.5657796,4.4530822 53.6358816,4.4553343 53.7056471,4.45017745 Z M58.4729106,39.5825788 L58.4510706,39.5170588 C58.4342706,39.5170588 58.4057106,39.5288188 58.4040306,39.5372188 C58.4052227,39.5592303 58.4103434,39.5808509 58.4191506,39.6010588 L58.4729106,39.5825788 Z M52.7679271,34.6602118 L52.7679271,34.7106118 L52.8233671,34.6870918 L52.7679271,34.6602118 Z M62.7748471,28.6601741 L62.7916471,28.7240141 L62.8924471,28.6668941 C62.8739671,28.6534541 62.8571671,28.6265741 62.8386871,28.6265741 C62.8202071,28.6265741 62.7950071,28.6467341 62.7748471,28.6601741 Z" id="Shape" fill-rule="nonzero"></path>
            <path d="M3.54282353,11.3943529 C3.27105882,10.8409412 3.192,10.3550588 3.53129412,9.85105882 C3.67623529,9.63529412 3.76517647,9.35694118 3.59388235,9.10494118 C3.40282353,8.83152941 3.50494118,8.61082353 3.64658824,8.38023529 C3.74211765,8.21552941 3.83105882,8.06564706 3.92164706,7.90752941 C3.64988235,7.55011765 3.99247059,7.27176471 4.04023529,6.95388235 C4.088,6.636 4.06494118,6.26541176 4.13411765,5.93270588 C4.27663501,5.2434767 4.37020202,4.54502648 4.41411765,3.84258824 C4.43159729,3.68732025 4.43765279,3.53097838 4.43223529,3.37482353 C4.39828651,3.06318513 4.42060175,2.74798239 4.49811765,2.44423529 C4.59035294,2.09670588 4.55247059,1.71788235 4.57388235,1.32423529 C5.26070588,0.909176471 5.96564706,0.693411765 6.75294118,0.968470588 C6.87020717,1.00626023 6.99638106,1.00626023 7.11364706,0.968470588 C7.63137087,0.823113945 8.18547732,1.00694691 8.51364706,1.43294118 C8.90235294,1.87105882 9.08023529,2.27623529 8.92376471,2.84117647 C8.88991577,3.02243326 8.88991577,3.20839027 8.92376471,3.38964706 C9.02917647,4.41082353 9.10658824,5.43694118 9.27129412,6.44823529 C9.38242964,7.06885194 9.45285446,7.69607302 9.48211765,8.32588235 C9.47084694,8.45754973 9.49234936,8.58995937 9.54470588,8.71129412 C9.74276159,9.02839701 9.80507757,9.41178867 9.71764706,9.77529412 C9.70488736,9.82599065 9.71384084,9.87971151 9.74235294,9.92352941 C10.0338824,10.2315294 9.92847059,10.6169412 9.94988235,10.9727059 C9.996,11.7072941 10.0289412,12.4435294 10.0717647,13.1781176 C10.0624656,13.3088686 10.0827317,13.4400351 10.1310588,13.5618824 C10.332,13.8781176 10.2842353,14.2207059 10.2957647,14.56 C10.2957647,14.6390588 10.2727059,14.7411765 10.3122353,14.7922353 C10.6301176,15.204 10.4571765,15.7211765 10.6037647,16.1510588 C10.8936471,17.0025882 10.7042353,17.8722353 10.8096471,18.7254118 C10.8689412,19.2195294 10.7668235,19.7284706 11.0814118,20.1748235 C11.1309379,20.296982 11.1435366,20.4309865 11.1176471,20.5602353 C11.0989147,21.166113 11.1744836,21.7712203 11.3416471,22.3538824 C11.4552941,22.8117647 11.4948235,23.2877647 11.5689412,23.7555294 C11.5737729,23.7816609 11.5737729,23.8084568 11.5689412,23.8345882 C11.4585882,24.2644706 12.3529412,24.5411765 11.7632941,25.0352941 C11.7929412,25.48 11.8077647,25.9247059 11.8522353,26.3677647 C12.0290196,28.1498824 12.2101961,29.931451 12.3957647,31.7124706 C12.4814118,32.5228235 12.5604706,33.3364706 12.6675294,34.1451765 C12.7070588,34.4548235 12.8025882,34.7562353 12.8701176,35.0609412 C12.9059844,35.1851382 12.9329547,35.3117334 12.9508235,35.4397647 C12.9837647,35.8235294 12.9145882,36.2171765 13.2209412,36.5531765 C13.3181176,36.6602353 13.2654118,36.9072941 13.2687059,37.0917647 C13.2631199,37.5638214 13.3100754,38.0350341 13.4087059,38.4967059 C13.5865882,39.2164706 13.44,39.9527059 13.3807059,40.6823529 C12.6263529,40.8305882 11.9378824,40.9969412 11.2395294,41.0908235 C10.416,41.2011765 9.62376471,40.9656471 8.82164706,40.7301176 C8.64891519,40.2052828 8.55240187,39.658374 8.53505882,39.1061176 C8.52712048,39.0022185 8.55065178,38.8983364 8.60258824,38.808 C8.85129412,38.4143529 8.64376471,38.1755294 8.33905882,37.9597647 C8.31512741,37.9341875 8.29413398,37.9060122 8.27647059,37.8757647 C8.32094118,37.4804706 8.38352941,37.0670588 8.40658824,36.6503529 C8.43458824,36.1809412 8.16941176,35.9635294 7.72141176,36.0607059 C7.51552941,36.1051765 7.31623529,36.1858824 7.10870588,36.2105882 C6.90149928,36.243349 6.6901102,36.238887 6.48447059,36.1974118 C5.92776471,36.0541176 5.93270588,36.0327059 5.46329412,36.2715294 C5.27388235,37.7407059 5.31835294,39.2691765 5.03670588,40.796 L0.271764706,40.796 C0.107058824,40.5028235 0.171294118,40.2096471 0.196,39.9312941 C0.288234522,38.5906826 0.50885272,37.2620095 0.854823529,35.9635294 C0.921485538,35.7102521 0.956342065,35.4496581 0.958588235,35.1877647 C0.973411765,34.5816471 0.932235294,33.9738824 0.971764706,33.376 C1.00094342,32.6658589 1.08352962,31.958921 1.21882353,31.2611765 C1.41591263,30.3886045 1.53333622,29.4999339 1.56964706,28.6061176 C1.55353623,28.2177191 1.6368749,27.83164 1.81176471,27.4844706 L2.38988235,27.272 L1.97647059,26.5258824 C2.23670588,26.2195294 2.47058824,26.5835294 2.772,26.4912941 L2.87741176,26.0696471 C2.62705882,25.8225882 2.464,26.0284706 2.24658824,26.1042353 C2.12635294,25.7649412 2.00776471,25.4256471 1.87270588,25.0402353 C2.21364706,24.6037647 2.24,24.0602353 2.25152941,23.5018824 C2.268,22.8216471 2.34047059,22.1430588 2.37341176,21.4628235 C2.38329412,21.2585882 2.32564706,21.0494118 2.32729412,20.8435294 C2.34412862,20.7110494 2.37504869,20.5807434 2.41952941,20.4548235 L2.93505882,20.5108235 L3.052,20.1418824 C3.18870588,19.936 3.61035294,20.1237647 3.64823529,19.7070588 L2.68141176,19.1503529 C2.57792452,18.9553273 2.56527918,18.7247004 2.64682353,18.5195294 C2.72496637,18.2979214 2.78015752,18.0688781 2.81152941,17.836 C2.92847059,16.7357647 3.07341176,15.6371765 3.11952941,14.5336471 C3.14588235,13.8748235 3.29247059,13.2407059 3.38141176,12.5950588 C3.40282353,12.4402353 3.472,12.2409412 3.40611765,12.1371765 C3.21176471,11.8390588 3.39458824,11.6430588 3.54282353,11.3943529 Z M7.68517647,21.2915294 C6.74964706,21.4002353 6.72658824,21.4216471 6.66070588,22.1150588 C6.65082353,22.2204706 6.65082353,22.3258824 6.63764706,22.4296471 C6.48282353,23.7094118 6.36094118,24.9924706 6.16,26.264 C6.05849237,26.8856887 6.0116466,27.5150754 6.02,28.1449412 C6.03317647,29.0096471 6.13694118,29.8776471 5.85529412,30.7275294 C5.79435294,30.9087059 5.79105882,31.1969412 6.02,31.2825882 C6.33458824,31.3995294 6.34941176,31.7305882 6.53223529,31.9414118 L7.54188235,31.6482353 C7.54188235,31.4225882 7.532,31.2183529 7.54188235,31.0141176 C7.56164706,30.6847059 7.96352941,30.8494118 8.036,30.6847059 C8.036,30.0044706 8.02117647,29.4 8.036,28.7971765 C8.05082353,28.3491765 8.07388235,27.9143529 7.78564706,27.524 C7.72596887,27.4066171 7.70138005,27.2745237 7.71482353,27.1435294 C7.72238628,26.9326192 7.64868839,26.7268547 7.50894118,26.5687059 C7.33270588,26.3710588 7.36564706,26.1305882 7.47929412,25.9098824 C7.53694118,25.7929412 7.60941176,25.6825882 7.69011765,25.5458824 C7.44305882,25.2345882 7.36070588,24.8277647 7.54352941,24.5197647 C7.83011765,24.0256471 7.66870588,23.6089412 7.52541176,23.1642353 C7.45294118,22.9385882 7.34258824,22.7277647 7.26352941,22.5054118 C7.1620885,22.2555933 7.20299459,21.9705093 7.37058824,21.7592941 C7.46117647,21.6522353 7.53364706,21.5237647 7.68517647,21.2915294 Z M2.436,27.6228235 C2.39482353,28.0049412 2.30258824,28.3244706 2.66823529,28.4463529 C2.93835294,28.5336471 3.17552941,28.4232941 3.26941176,28.0790588 L2.436,27.6228235 Z" id="Shape" fill-rule="nonzero"></path>
            <path d="M112.075765,40.6823529 L110.211294,41.0496471 C109.770563,41.1339805 109.317335,41.1283782 108.878824,41.0331765 C108.467059,40.9458824 108.055294,40.8487059 107.620471,40.7515294 C107.324,40.2014118 107.381647,39.5821176 107.291059,38.9941176 C107.287202,38.9674758 107.293685,38.940368 107.309176,38.9183529 C107.447529,38.7536471 107.569412,38.5494118 107.473882,38.3435294 C107.355899,38.1627345 107.21654,37.9968304 107.058824,37.8494118 C107.103294,37.4277647 107.151059,36.9847059 107.198824,36.5432941 C107.21958,36.3233368 107.081426,36.1195587 106.869412,36.0574118 C106.747446,36.017532 106.616687,36.012964 106.492235,36.0442353 C106.26,36.0854118 106.034353,36.1677647 105.802118,36.2089412 C105.403529,36.2748235 105.373882,36.2583529 104.899529,35.9470588 L104.202824,36.2221176 C104.001882,37.7423529 104.038118,39.2477647 103.789412,40.7630588 C103.295294,40.7778824 102.860471,40.8009412 102.419059,40.8009412 C102.023765,40.8009412 101.630118,40.7778824 101.236471,40.7647059 L101.071765,40.7647059 C100.806588,40.7515294 100.661647,40.46 100.353647,40.4896471 C100.106588,40.5143529 99.848,40.4171765 99.5301176,40.3611765 C99.3654118,40.4023529 99.3423529,40.74 99.0903529,40.7647059 C99.0343529,40.7087059 98.9750588,40.6774118 98.9734118,40.6411765 C98.9141176,39.7155294 99.0623529,38.8030588 99.2056471,37.8938824 C99.3028235,37.2729412 99.484,36.6635294 99.6108235,36.0458824 C99.6780644,35.7391503 99.7193865,35.427306 99.7343529,35.1136471 C99.7574118,34.3757647 99.7508235,33.6312941 99.7623529,32.9016471 C99.774808,32.2423143 99.8699835,31.5871529 100.045647,30.9515294 C100.186235,30.4441162 100.264226,29.9214109 100.277882,29.3950588 C100.289412,28.9997647 100.333882,28.6061176 100.375059,28.2141176 C100.421176,27.7825882 100.444235,27.3263529 101.002588,27.3774118 C101.196941,26.9541176 100.790118,26.8124706 100.744,26.488 C100.83849,26.4592369 100.936759,26.444802 101.035529,26.4451765 C101.196943,26.4819376 101.355916,26.5286944 101.511529,26.5851765 C101.569176,26.3875294 101.616941,26.2228235 101.656471,26.0910588 C101.425882,25.8094118 101.185412,26.0449412 100.969647,25.9971765 L100.640235,25.0978824 C100.687441,24.7232102 101.01047,24.4450066 101.388,24.4538824 C101.550314,24.4258751 101.708906,24.3794579 101.860706,24.3155294 C101.910118,23.9663529 101.966118,23.6336471 101.999059,23.2976471 C101.985971,23.1420902 101.981023,22.9859557 101.984235,22.8298824 C102.037813,22.6914588 102.112241,22.5620416 102.204941,22.4461176 C101.834353,22.2352941 101.363294,22.4131765 101.061882,21.9931765 C101.136923,21.9367387 101.220268,21.8922882 101.308941,21.8614118 C101.621882,21.8185882 101.939765,21.8087059 102.196706,21.5863529 C102.130824,21.2832941 101.976,21.1070588 101.656471,21.1152941 C101.577283,21.1202643 101.497793,21.1169523 101.419294,21.1054118 C101.221647,21.0708235 101.058588,20.8896471 101.104706,20.7298824 C101.11917,20.650204 101.169682,20.5816992 101.241524,20.5443285 C101.313366,20.5069578 101.398456,20.5049254 101.472,20.5388235 C101.535913,20.5438523 101.600214,20.539972 101.663059,20.5272941 C101.756941,20.2736471 101.878824,20.0216471 102.232941,20.0150588 C102.307059,20.0150588 102.379529,19.8898824 102.475059,19.7992941 C102.160471,19.4698824 101.732235,19.3776471 101.389647,19.0976471 L101.389647,18.5129412 L102.117647,18.7023529 C102.265882,18.3927059 102.649647,18.2082353 102.623294,17.7882353 C102.600677,17.5019113 102.548236,17.21873 102.466824,16.9432941 C102.384341,16.7120971 102.28809,16.4860456 102.178588,16.2663529 L102.909882,15.7936471 C103.056704,15.5441141 103.061707,15.2358123 102.923059,14.9816471 C102.757665,14.5436591 102.617437,14.0965773 102.503059,13.6425882 C102.533317,13.6085093 102.568919,13.5795821 102.608471,13.5569412 C102.753412,13.4992941 102.937882,13.4745882 102.896706,13.2555294 C102.865412,13.0743529 102.697412,13.1385882 102.583765,13.1007059 C102.470118,13.0628235 102.396,12.8618824 102.509647,12.7877647 C102.736941,12.6395294 102.863765,12.4797647 102.725412,12.1552941 L102.120941,11.9905882 C101.969412,11.6611765 102.351529,11.5870588 102.364706,11.3564706 C102.035294,10.8969412 101.929882,10.444 102.265882,9.91694118 C102.438824,9.64517647 102.608471,9.30752941 102.303765,8.97317647 C102.253812,8.88446984 102.24655,8.77796003 102.284,8.68329412 C102.357412,8.51568855 102.446183,8.3552392 102.549176,8.204 C102.662824,8.02447059 102.792941,7.85976471 102.629882,7.63411765 C102.596881,7.56222232 102.60056,7.47882743 102.639765,7.41011765 C102.848941,7.08070588 102.804471,6.69694118 102.853882,6.33623529 C102.975765,5.51270588 103.203059,4.70564706 103.183294,3.86564706 C103.199146,3.68658208 103.205194,3.50678427 103.201412,3.32705882 C103.156821,3.04587036 103.172541,2.75841366 103.247529,2.48376471 C103.341412,2.13952941 103.300235,1.75741176 103.32,1.36211765 C104.026588,0.919058824 104.749647,0.703294118 105.551765,1.03270588 C105.639217,1.07471383 105.741018,1.07471383 105.828471,1.03270588 C106.347294,0.84 106.803529,0.928941176 107.156,1.39176471 C107.282824,1.55647059 107.426118,1.71129412 107.650118,1.96329412 C107.698175,2.27949117 107.705371,2.60055552 107.671529,2.91858824 C107.654941,3.39150823 107.680295,3.86496796 107.747294,4.33341176 C107.819765,5.068 107.869176,5.81576471 108.012471,6.52729412 C108.129498,7.14505608 108.184673,7.77294272 108.177176,8.40164706 C108.172989,8.42783367 108.172989,8.45451927 108.177176,8.48070588 C108.289456,8.74273904 108.384636,9.01177343 108.462118,9.28611765 C108.524706,9.55788235 108.381412,9.86094118 108.588941,10.1228235 C108.64186,10.21304 108.66813,10.3164057 108.664706,10.4209412 C108.712471,11.2345882 108.758588,12.0482353 108.796471,12.8618824 C108.812941,13.2028235 108.763529,13.552 108.976,13.8501176 C109.005647,13.8929412 109.041882,13.9555294 109.030353,13.9967059 C108.857412,14.6143529 109.312,15.1496471 109.277412,15.7409412 C109.251726,16.0816818 109.318293,16.4230504 109.470118,16.7291765 C109.53714,16.9271787 109.562377,17.1369273 109.544235,17.3451765 C109.560706,18.0534118 109.560706,18.7632941 109.578824,19.4731765 C109.578824,19.628 109.578824,19.8338824 109.666118,19.9228235 C109.908235,20.1649412 109.883529,20.4498824 109.870353,20.7315294 C109.858617,21.286593 109.922337,21.8406785 110.059765,22.3785882 C110.183294,22.9155294 110.244235,23.4672941 110.344706,24.0108235 C110.354396,24.135839 110.409461,24.2529977 110.499529,24.3402353 C110.707059,24.4670588 110.741647,24.6696471 110.634588,24.8030588 C110.440235,25.0451765 110.469882,25.2971765 110.499529,25.5508235 C110.629647,26.8882353 110.748235,28.2256471 110.889882,29.5597647 C111.054588,31.1837647 111.247294,32.8044706 111.438353,34.4268235 C111.504235,34.9950588 111.741412,35.5352941 111.718353,36.1183529 C112.070824,36.6338824 111.972,37.2218824 111.986824,37.7917647 C111.981474,37.8967162 111.993155,38.0018414 112.021412,38.1030588 C112.362353,38.9545882 112.179529,39.8094118 112.075765,40.6823529 Z M105.217412,23.7176471 C105.191059,24.1030588 105.172941,24.304 105.166353,24.5065882 C105.148235,25.0583529 105.14,25.6117647 105.116941,26.1635294 C105.135586,26.4021653 105.038095,26.6351634 104.855059,26.7894118 C104.757882,26.8635294 104.733176,27.0661176 104.724941,27.2143529 C104.696392,27.7633725 104.679922,28.3156863 104.675529,28.8712941 C104.667843,29.8430588 104.667843,30.8159216 104.675529,31.7898824 C104.691746,31.9608848 104.723165,32.1301026 104.769412,32.2955294 C105.731294,32.4602353 106.54,32.3218824 107.169176,31.9134118 C107.23619,31.3719007 107.169459,30.8222176 106.974824,30.3124706 C106.865929,30.0504488 106.801363,29.7721436 106.783765,29.4889412 C106.717882,28.2283922 106.652549,26.9683922 106.587765,25.7089412 C106.54,24.8277647 105.998118,24.2974118 105.217412,23.7176471 Z M101.264471,27.6442353 C100.987765,27.9094118 101.164,28.1614118 101.223294,28.4315294 C101.612,28.5254118 101.901882,28.4875294 102.056706,28.0774118 L101.264471,27.6442353 Z" id="Shape" fill-rule="nonzero"></path>
            <path d="M117.483059,12.6938824 L116.903294,12.9145882 C116.636471,12.3265882 116.710588,11.7468235 116.727059,11.1818824 C116.709368,10.8647892 116.855474,10.5607652 117.114118,10.3764706 C117.183671,10.4729856 117.239129,10.5789111 117.278824,10.6910588 C117.311744,10.9553242 117.364042,11.2168128 117.435294,11.4734118 C117.446824,11.1571765 117.468235,10.8425882 117.469882,10.5263529 C117.469882,9.39317647 117.461647,8.26 117.469882,7.12682353 C117.481412,6.12705882 117.522588,5.12564706 117.539059,4.12588235 C117.539059,3.80964706 117.524235,3.49341176 117.499529,3.18047059 C117.475773,3.04162773 117.440514,2.9050003 117.394118,2.772 C117.089412,2.92023529 117.298588,3.25623529 117.046588,3.41270588 L116.659529,3.32211765 C116.628235,3.248 116.585412,3.19694118 116.593647,3.15741176 C116.652941,2.828 116.723765,2.48541176 116.801176,2.10164706 C117.359529,2.05882353 117.751529,1.70964706 118.118824,1.31105882 C118.266556,1.16305844 118.44393,1.04798966 118.639294,0.973411765 C119.728,0.543529412 120.854588,0.494117647 121.994353,0.579764706 C122.071765,0.579764706 122.178824,0.579764706 122.223294,0.627529412 C122.575765,0.999764706 123.046824,0.882823529 123.475059,0.956941176 C123.604232,0.960332561 123.730501,0.996004995 123.842353,1.06070588 C124.231059,1.40658824 124.716941,1.50870588 125.080941,1.60094118 C125.393882,1.95341176 125.601412,2.268 125.881412,2.48870588 C126.494118,2.96470588 126.770824,3.62352941 126.935529,4.34823529 C126.953647,4.424 126.935529,4.52941176 126.978353,4.57717647 C127.327529,4.94282353 127.233647,5.40070588 127.281412,5.83882353 C127.309091,6.12702303 127.352529,6.41349095 127.411529,6.69694118 C127.505412,7.10376471 127.658588,7.49905882 127.464235,7.92235294 C127.436106,8.02421127 127.436106,8.13178873 127.464235,8.23364706 C127.497176,8.43952941 127.617412,8.65858824 127.574588,8.84305882 C127.337412,9.87576471 127.600941,10.9545882 127.268235,11.9724706 C127.249706,12.0193387 127.228252,12.0649972 127.204,12.1091765 C126.433802,12.3921087 125.631683,12.5790854 124.815765,12.6658824 C124.713647,12.6757647 124.573647,12.6889412 124.509412,12.6329412 C124.138824,12.3117647 123.672706,12.3694118 123.242824,12.2788235 C123.088,12.2475294 122.938118,12.1981176 122.799765,12.1602353 C122.616941,11.9378824 122.687765,11.6924706 122.689412,11.4635294 C122.699294,10.3105882 122.705882,9.14447059 122.738824,7.98494118 C122.755699,7.16774356 122.618236,6.35469901 122.333647,5.58847059 C122.203529,5.22941176 121.930118,4.92964706 121.727529,4.60023529 C121.085176,4.50305882 120.503765,4.47011765 119.928941,4.76494118 C119.731528,4.83396607 119.576319,4.98917505 119.507294,5.18658824 C119.288235,5.91294118 119.024706,6.62611765 119.082353,7.41176471 C119.123529,8.01623529 119.095529,8.624 119.082353,9.22352941 C119.098752,9.56092918 119.042586,9.89792129 118.917647,10.2117647 C118.787529,10.5 118.863294,10.8821176 118.850118,11.2230588 C118.833647,11.6710588 118.832,12.1174118 119.098824,12.5077647 C119.299765,12.7992941 119.250353,13.1221176 119.200941,13.4268235 C119.016471,14.5534118 119.093882,15.6865882 119.080706,16.8181176 C119.080706,17.4423529 119.080706,17.4423529 119.429882,18.0303529 C119.353631,18.310205 119.298573,18.5954043 119.265176,18.8835294 C119.242118,19.5143529 119.265176,20.1484706 119.253647,20.7792941 C119.253647,21.1465882 119.177882,21.5122353 119.186118,21.8778824 C119.194353,22.2435294 119.289882,22.6091765 119.108706,22.9632941 C119.08513,23.0386655 119.094085,23.1204569 119.133412,23.1889412 C119.298118,23.5183529 119.255294,23.8576471 119.255294,24.1969412 C119.255294,25.5409412 119.255294,26.8849412 119.255294,28.2289412 C119.237271,29.0194528 119.307988,29.8094912 119.466118,30.5842353 C119.503982,30.7905912 119.503982,31.0021147 119.466118,31.2084706 C119.30192,32.5481698 119.228733,33.8974593 119.247059,35.2470588 C119.234945,35.7500966 119.372528,36.2453964 119.642353,36.6701176 C120.174353,37.5018824 121.012706,37.4458824 121.618824,37.0127059 C121.953309,36.7997595 122.187389,36.4605221 122.267765,36.0722353 C122.401263,35.4827039 122.475202,34.8812531 122.488471,34.2769412 C122.488471,33.6016471 122.366588,32.9115294 122.653176,32.2510588 C122.689235,32.0966361 122.695385,31.9367362 122.671294,31.78 C122.671294,31.0157647 122.671294,30.2515294 122.671294,29.4872941 C122.671294,29.176 122.643294,28.868 122.836,28.5731765 C122.923294,28.4348235 122.890353,28.2174118 122.903529,28.0362353 C122.916706,27.8550588 122.903529,27.7183529 122.913412,27.5618824 C122.939765,27.2670588 123.068235,27.1534118 123.376235,27.1435294 C123.508,27.1435294 123.639765,27.1550588 123.771529,27.16 C124.646118,27.1830588 125.487765,27.3988235 126.337647,27.5832941 C127.294588,27.7924706 127.655294,28.5715294 127.589412,29.3308235 C127.549882,29.8496471 127.439529,30.3717647 127.472471,30.8856471 C127.497441,31.2980256 127.444927,31.711432 127.317647,32.1044706 C127.248685,32.4131474 127.235852,32.7317178 127.279765,33.0449412 C127.327529,33.7795294 127.413176,34.5141176 127.462588,35.2487059 C127.482353,35.5550588 127.561412,35.8861176 127.297882,36.148 C127.281412,36.1644706 127.279765,36.1974118 127.273176,36.2221176 C127.174353,36.6157647 127.325882,37.0456471 127.001412,37.4178824 C126.759294,37.7011765 126.672,38.1228235 126.528706,38.4835294 C126.502276,38.5516139 126.480808,38.621522 126.464471,38.6927059 C126.115294,38.9809412 125.828706,39.2049412 125.553647,39.4454118 C125.328,39.6447059 125.224235,39.9971765 124.850353,40.0169412 C124.810824,40.0169412 124.759765,40.0762353 124.738353,40.1207059 C124.512706,40.5703529 124.079529,40.6938824 123.648,40.8272941 C122.364301,41.23292 121.022927,41.4259754 119.676941,41.3988235 C118.906118,41.3790588 118.156706,41.2604706 117.545647,40.7103529 C117.562118,40.5538824 117.580235,40.404 117.595059,40.2656471 C117.534118,40.2244706 117.494588,40.1750588 117.453412,40.1734118 C117.110824,40.1585882 116.768235,40.1305882 116.427294,40.1470588 C116.079495,40.1804065 115.743775,40.0096579 115.565882,39.7089412 C115.279294,39.2691765 114.971294,38.8425882 114.697882,38.3912941 C114.640605,38.2467562 114.613153,38.0921269 114.617176,37.9367059 C114.576549,37.5985098 114.538667,37.2597647 114.503529,36.9204706 C114.442588,36.3192941 114.338824,35.7164706 114.338824,35.1087059 C114.322353,34.0545882 114.360235,33.0004706 114.370118,31.9463529 C114.384941,30.5512941 114.421176,29.1545882 114.399765,27.7578824 C114.320706,22.8842353 114.220235,18.0105882 114.132941,13.1352941 C114.132941,12.8338824 114.080235,12.5225882 114.179059,12.2392941 C114.508471,12.2162353 114.365176,12.5571765 114.597412,12.5934118 C114.625109,12.456776 114.664792,12.3228463 114.716,12.1931765 C114.785176,12.0531765 114.908706,11.9411765 114.976235,11.8011765 C115.129412,11.4898824 115.384706,11.4190588 115.752,11.4585882 C115.770118,11.9527059 115.822824,12.4468235 115.796471,12.9409412 C115.773083,13.3088621 115.82521,13.6776782 115.949647,14.0247059 C116.081014,14.3175575 116.061975,14.655967 115.898588,14.9322353 C115.676235,15.3011765 115.834353,15.7030588 115.78,16.0654118 C116.056706,16.212 116.139059,15.9649412 116.295529,15.9122353 C116.489798,15.8541904 116.69076,15.8215271 116.893412,15.8150588 C117.086581,15.8152478 117.279589,15.8262454 117.471529,15.848 C117.618118,14.8383529 117.422118,13.7924706 117.483059,12.6938824 Z M117.545647,32.816 C117.601647,32.7649412 117.667529,32.7352941 117.670824,32.6990588 C117.753389,32.2084081 117.808377,31.7135136 117.835529,31.2167059 C117.850353,28.4825882 117.835529,25.7484706 117.835529,23.0143529 C117.852895,22.8572628 117.852895,22.6987372 117.835529,22.5416471 C117.652706,21.7345882 117.766353,20.9192941 117.748235,20.1072941 C117.728471,19.1882353 117.680706,18.2708235 117.639529,17.3517647 C117.639529,17.2529412 117.618118,17.1392941 117.448471,17.1672941 C117.407917,17.2250968 117.378328,17.289858 117.361176,17.3583529 C117.298588,18.0912941 117.232706,18.8242353 117.196471,19.5571765 C117.178353,19.8948235 117.175059,20.2423529 117.412235,20.5454118 C117.474211,20.6308895 117.498058,20.7382009 117.478118,20.8418824 C117.339765,21.3689412 117.212941,21.8927059 117.423765,22.4312941 C117.254889,22.7367187 117.244454,23.1050329 117.395765,23.4195294 C117.580235,23.7983529 117.282118,24.136 117.357882,24.4950588 C117.369412,24.5461176 117.402353,24.5922353 117.410588,24.6416471 C117.447388,24.8193036 117.472151,24.9992423 117.484706,25.1802353 C117.496235,25.5491765 117.484706,25.9164706 117.484706,26.2854118 C117.484706,26.6543529 117.46,27.0710588 117.445176,27.4647059 C117.145412,27.8138824 117.461647,28.1597647 117.445176,28.5072941 C117.445176,28.5847059 117.394118,28.6604706 117.390824,28.7362353 C117.370156,28.8614578 117.377468,28.989703 117.412235,29.1117647 C117.601647,29.512 117.576941,29.9352941 117.557176,30.3487059 C117.524235,30.8724706 117.479765,31.3978824 117.440235,31.9216471 C117.412235,32.2164706 117.385882,32.5228235 117.545647,32.816 Z M116.827529,36.5762353 C117.109176,36.26 117.245882,36.0952941 117.097647,35.8268235 C116.90906,35.5021235 116.895458,35.1045953 117.061412,34.7677647 C117.187369,34.4805763 117.236193,34.1654874 117.203059,33.8536471 C117.203059,33.544 117.272235,33.2228235 117.100941,32.8983529 L116.592,32.7336471 C116.499335,33.3438865 116.467884,33.9618589 116.498118,34.5783529 C116.48439,34.7626343 116.506769,34.9478231 116.564,35.1235294 C116.751765,35.5303529 116.814353,35.9635294 116.827529,36.5762353 Z M116.611765,25.4338824 C116.349882,26.2804706 116.349882,26.2804706 116.648,27.4861176 C116.726607,27.4915211 116.80408,27.4650566 116.862953,27.4126906 C116.921826,27.3603246 116.957143,27.2864654 116.960941,27.2077647 C117.037194,26.6865012 116.985182,26.1545059 116.809412,25.6578824 C116.776471,25.5903529 116.704,25.5425882 116.611765,25.4338824 Z M116.554118,38.4670588 C116.554118,38.7223529 116.542588,38.9611765 116.554118,39.1884706 C116.565647,39.3811765 116.718824,39.4734118 116.957647,
            39.4322353 C117.035385, 39.4032388 117.108592,39.3633077 117.175059,39.3136471 C117.214588,38.9842353 117.275529,38.6465882 117.105882,38.2924706 L116.554118,38.4670588 Z M116.611765,17.0108235 C116.298824,17.3567059 116.223059,17.6943529 116.364706,18.0698824 C116.386471,18.1535811 116.446552,18.2220478 116.526714,18.254502 C116.606876,18.2869562 116.697666,18.2795711 116.771529,18.2345882 C116.834118,17.8392941 117.053176,17.4176471 116.611765,17.0108235 Z" id="Shape" fill-rule="nonzero"></path>
            <path d="M135.375059,18.732 L138.143765,18.4207059 C138.428706,18.3894118 138.715294,18.3021176 138.995294,18.4437647 C139.02,18.4552941 139.052941,18.4816471 139.066118,18.4750588 C139.517412,18.2296471 139.916,18.4931765 140.367294,18.6084706 C140.532,19.1618824 140.405176,19.7432941 140.439765,20.3131765 C140.479789,20.9030912 140.46269,21.4954937 140.388706,22.0821176 C140.234453,22.1177084 140.077385,22.139753 139.919294,22.148 C139.287922,22.1216471 138.657098,22.0865098 138.026824,22.0425882 C137.265863,21.9622961 136.49739,21.9894643 135.744,22.1232941 C135.571664,22.1695106 135.401796,22.224484 135.235059,22.288 C135.203075,22.3708729 135.180426,22.4570517 135.167529,22.5449412 C135.160941,23.6232157 135.160941,24.7031373 135.167529,25.7847059 C135.16446,25.9162208 135.186831,26.0470899 135.233412,26.1701176 C135.310824,26.3545882 135.244941,26.516 135.233412,26.6938824 C135.21205,27.1124955 135.223615,27.53214 135.268,27.9489412 C135.283614,28.1793696 135.273671,28.4108184 135.238353,28.6390588 C135.198074,29.0826752 135.204699,29.5293029 135.258118,29.9715294 C135.281176,30.2828235 135.330588,30.5743529 135.216941,30.8988235 C135.126353,31.1557647 135.182353,31.4703529 135.198824,31.7585882 C135.223529,32.2312941 135.268,32.704 135.305882,33.1767059 C135.354159,33.4348659 135.31045,33.701781 135.182353,33.9310588 C135.095998,34.1212978 135.070681,34.333613 135.109882,34.5388235 C135.150152,34.8524773 135.210114,35.1632872 135.289412,35.4694118 C135.373412,35.84 135.388235,36.1858824 135.169176,36.5317647 C135.032471,36.7475294 135.147765,36.9402353 135.388235,36.9978824 C135.516706,37.0291765 135.674824,37.1098824 135.770353,37.0637647 C136.127765,36.8990588 136.429176,37.1181176 136.758588,37.1444706 C137.027059,37.1658824 137.285647,37.3651765 137.564,37.1527059 C137.636642,37.1191214 137.719736,37.1161538 137.794588,37.1444706 C138.231964,37.3032036 138.703278,37.3446565 139.161647,37.2647059 C139.491059,37.4294118 139.833647,37.3503529 140.171294,37.3668235 C140.626504,37.3631466 141.079819,37.425845 141.516941,37.5529412 C141.631882,38.3412523 141.453098,39.1443142 141.014588,39.8094118 C141.380235,40.1734118 141.380235,40.1734118 141.312706,40.7004706 C141.198311,40.7346318 141.080784,40.7572544 140.961882,40.768 C138.591216,40.768 136.220549,40.768 133.849882,40.768 C133.692536,40.7791308 133.534561,40.7584036 133.385412,40.7070588 C133.070773,40.5639292 132.70889,40.5675481 132.397176,40.7169412 C131.931877,40.9400035 131.381745,40.8900489 130.964235,40.5868235 C130.812706,40.2969412 131.025176,39.9082353 130.756706,39.6249412 C130.733841,39.5804937 130.733841,39.5277416 130.756706,39.4832941 C130.987294,39.1538824 130.890118,38.7684706 130.893412,38.4077647 C130.903294,37.2218824 130.873647,36.036 130.903294,34.8517647 C130.937882,33.4847059 130.873647,32.1209412 130.893412,30.7555294 C130.913176,29.3901176 130.929647,28.0164706 130.908235,26.6461176 C130.895059,25.6990588 130.824235,24.7536471 130.764941,23.8082353 C130.705634,23.2369911 130.732842,22.6600684 130.845647,22.0969412 C130.989897,21.4792042 130.975733,20.8350349 130.804471,20.2242353 C130.766221,20.1272593 130.747201,20.0237685 130.748471,19.9195294 C130.886824,18.9049412 130.624941,17.8755294 130.867059,16.8642353 C130.915296,16.7121432 130.920428,16.5496561 130.881882,16.3948235 C130.751765,16.0489412 130.804471,15.6898824 130.750118,15.3472941 C130.695765,15.0047059 130.792941,14.6785882 130.750118,14.3425882 C130.707294,14.0065882 130.750118,13.6112941 130.750118,13.2456471 C130.750118,13.0117647 130.708941,12.7778824 130.708941,12.5423529 C130.715529,9.61827451 130.725412,6.69419608 130.738588,3.77011765 C130.738588,3.08658824 130.792941,2.39811765 130.522824,1.74423529 C130.407529,1.46752941 130.514588,1.23035294 130.687529,0.963529412 C130.855187,0.932632218 131.024618,0.912278555 131.194824,0.902588235 C131.88,0.894352941 132.565176,0.902588235 133.250353,0.902588235 C133.433541,0.923695507 133.618979,0.91367183 133.798824,0.872941176 C134.350588,0.662117647 134.826588,0.841647059 135.330588,1.11505882 C135.608941,0.975058824 135.913647,0.793882353 136.261176,1.00305882 C136.325412,1.04094118 136.439059,1.08376471 136.481882,1.05411765 C136.859059,0.792235294 137.305412,0.975058824 137.705647,0.843294118 C137.904431,0.774140481 138.117515,0.756572384 138.324941,0.792235294 C138.606255,0.847629534 138.895227,0.852092419 139.178118,0.805411765 C139.476235,0.764235294 139.550353,0.869647059 139.537176,1.23364706 C139.537176,1.28305882 139.537176,1.33247059 139.537176,1.42964706 L140.042824,1.62070588 C140.079059,1.77552941 140.116941,1.95011765 140.158118,2.12964706 L140.652235,2.10494118 C140.701647,2.25482353 140.749412,2.39976471 140.803765,2.56117647 L141.335765,2.76705882 L141.335765,4.39105882 C141.116706,4.592 140.868,4.53435294 140.639059,4.536 C139.084235,4.536 137.531059,4.54588235 135.976235,4.54917647 L135.223529,4.54917647 C135.041633,5.1349867 134.99434,5.7543041 135.085176,6.36094118 C135.108235,6.56847059 135.139529,6.776 135.146118,6.98517647 C135.167529,7.92894118 135.126353,8.87105882 135.180706,9.81647059 C135.235059,10.7618824 135.190588,11.7122353 135.180706,12.6609412 C135.170824,13.6096471 135.136235,14.5567059 135.129647,15.5054118 C135.129647,16.1642353 135.129647,16.8230588 135.167529,17.4818824 C135.197176,17.8574118 135.294353,18.2395294 135.375059,18.732 Z M140.856471,38.2842353 L139.703529,37.968 C139.60408,37.9297765 139.4933,37.9340491 139.39709,37.9798189 C139.30088,38.0255887 139.227675,38.1088431 139.194588,38.2101176 C139.407059,39.0764706 139.459765,39.1983529 139.804,39.6183529 C140.003294,39.4091765 139.817176,39.0929412 140.008235,38.8952941 C140.294824,38.8804706 140.294824,38.8804706 140.532,39.144 L140.856471,38.2842353 Z M138.221176,2.72588235 C138.352941,2.64517647 138.455059,2.61552941 138.496235,2.548 C138.580235,2.40964706 138.446824,2.17905882 138.702118,2.07529412 L139.416941,2.48211765 L139.545412,2.24494118 L138.588471,1.47247059 C138.374353,1.49882353 138.232706,1.59929412 138.224471,1.81341176 C138.206353,2.09176471 138.214588,2.37011765 138.214588,2.72588235 L138.221176,2.72588235 Z M138.632941,39.2 L138.632941,38.1112941 L138.240941,38.1327059 C138.180984,38.5058487 138.187117,38.8866285 138.259059,39.2576471 L138.632941,39.2 Z" id="Shape" fill-rule="nonzero"></path>
            <path d="M71.3884706,8.11835294 C71.4132598,8.18301566 71.4713618,8.22899545 71.5399907,8.23826036 C71.6086197,8.24752527 71.6768341,8.2185982 71.7178824,8.16282353 C71.7958431,8.05736205 71.8574756,7.94076018 71.9007059,7.81694118 C71.5383529,7.61105882 71.1842353,7.77741176 70.8070588,7.672 C70.5294938,7.44919936 70.3663193,7.11378507 70.3623529,6.75788235 C70.3294118,6.42352941 70.3294118,6.07435294 70.3129412,5.73176471 C70.3030588,5.49952941 70.2931765,5.26729412 70.2816471,4.99058824 C70.0961705,4.95983625 69.9092695,4.9383976 69.7216471,4.92635294 C68.7729412,4.92635294 67.8242353,4.92635294 66.8755294,4.92635294 C66.6152941,4.92635294 66.3534118,4.91811765 66.108,4.91317647 C65.9515294,4.31858824 65.9350588,2.10329412 66.0750588,1.30282353 C66.2193227,1.27626937 66.3650914,1.25866711 66.5115294,1.25011765 C70.3052549,1.18752941 74.0989804,1.12713725 77.8927059,1.06894118 C78.1298824,1.06894118 78.3687059,1.06894118 78.6042353,1.06894118 C78.8497891,1.06762195 79.0615037,1.24128325 79.1082353,1.48235294 C79.184,2.55788235 79.2729412,3.63670588 78.904,4.68258824 C78.8957647,4.70564706 78.8694118,4.72211765 78.82,4.77482353 C78.2369412,4.93952941 77.6028235,4.84894118 76.9769412,4.85552941 C76.3510588,4.86211765 75.768,4.85552941 75.1371765,4.85552941 C74.9592941,5.03670588 74.7369412,5.23105882 74.9214118,5.56047059 C74.788,5.87011765 74.8687059,6.15670588 74.9807059,6.45482353 C75.0119802,6.60987875 75.0175446,6.76902145 74.9971765,6.92588235 L74.9971765,19.1058824 C75.0079151,19.2104702 75.0079151,19.3158828 74.9971765,19.4204706 C74.9494118,19.6461176 74.8324706,19.8701176 74.8324706,20.0908235 C74.8324706,20.3115294 74.9642353,20.5421176 75.0367059,20.7677647 C75.0449412,20.7924706 75.0367059,20.8204706 75.0498824,20.8451765 C75.1190588,21.1416471 74.6463529,21.308 74.8571765,21.6324706 C75.068,21.9569412 74.7254118,22.1677647 74.7567059,22.456 C74.7977381,22.7618178 74.7231445,23.0719395 74.5475294,23.3256471 C74.3383529,23.3355294 74.1044706,23.3437647 73.8705882,23.3569412 C73.6663529,23.3668235 73.4621176,23.3816471 73.2447059,23.3948235 C73.3624333,23.680726 73.6663267,23.8430326 73.9694118,23.7818824 C74.0659116,23.743746 74.1657007,23.714526 74.2675294,23.6945882 C74.3869127,23.6807901 74.5067981,23.7158975 74.5998798,23.7919143 C74.6929616,23.867931 74.7513142,23.9783846 74.7616471,24.0981176 C74.7769071,24.2295516 74.734564,24.3611609 74.6455266,24.4590388 C74.5564893,24.5569168 74.4294639,24.6114926 74.2971765,24.6087059 C73.9941176,24.64 73.8887059,24.444 73.7651765,24.2167059 C73.3748235,24.2463529 73.0898824,24.4654118 72.8098824,24.7108235 C72.5298824,24.9562353 72.5134118,24.9595294 72.0061176,25.0962353 C72.0308235,24.5807059 72.0818824,24.0701176 71.876,23.5628235 C71.6470588,23.4244706 71.4461176,23.4870588 71.2764706,23.6978824 C71.1559963,23.8499404 71.1636719,24.0669513 71.2945882,24.2101176 C71.472707,24.4324298 71.5815333,24.7022044 71.6075294,24.9858824 C71.6750588,25.592 71.8858824,25.7501176 72.5298824,25.8555294 C72.6056471,25.8687059 72.6797647,25.8934118 72.7950588,25.9214118 C72.8461176,26.3529412 72.5282353,26.7037647 72.5134118,27.1731765 L73.164,27.5931765 C73.2941176,27.468 73.4308235,27.3527059 73.5461176,27.2209412 C73.6614118,27.0891765 73.7108235,26.9261176 73.8294118,26.8454118 C74.1324706,26.6428235 74.2197647,26.376 74.1588235,26.0021176 C74.0455431,25.9601799 73.9354509,25.9100879 73.8294118,25.8522353 C73.6932512,25.7577471 73.6457987,25.5784045 73.7174118,25.4289412 C73.7612689,25.3110074 73.8564476,25.2194661 73.976,25.1802353 C74.1836027,25.1573312 74.393659,25.1735324 74.5952941,25.228 C74.8670588,25.3021176 74.9625882,25.4734118 74.9576471,25.76 C74.9576471,25.8390588 74.9477647,25.9247059 74.9395294,25.9971765 C74.7654565,27.4905069 74.775967,28.999592 74.9708235,30.4903529 C75.014236,31.042152 75.0213887,31.5962053 74.9922353,32.1489412 C75.0053152,32.2792107 74.9813359,32.4105256 74.9230588,32.5277647 C74.813891,32.6768655 74.7998064,32.8753294 74.8868235,33.0383529 C75.0383529,33.4385882 75.1025882,33.8421176 74.8258824,34.2374118 C74.7071294,34.4509535 74.7071294,34.7106936 74.8258824,34.9242353 C75.0251765,35.4068235 74.9905882,35.9025882 74.9757647,36.4065882 C74.9461176,37.2301176 74.9148235,38.0388235 74.9098824,38.8557647 C74.9098824,39.4602353 74.8983529,40.0663529 75.1454118,40.6444706 C75.2552889,40.9315503 75.2085381,41.255066 75.0218824,41.4992941 C74.4714927,41.6540302 73.9020665,41.7305451 73.3303529,41.7265882 C72.8675294,41.7265882 72.3832941,41.8781176 71.9534118,41.5734118 C71.4181176,41.5931765 70.8630588,41.3988235 70.3524706,41.72 C70.3162353,41.7414118 70.2503529,41.72 70.1581176,41.7101176 C69.9619146,41.4678915 69.9109671,41.1389345 70.0247059,40.8487059 C70.1611935,40.4770999 70.2173302,40.0807753 70.1894118,39.6858824 C70.1762353,38.9216471 70.1498824,38.1574118 70.1317647,37.3948235 C70.1185882,36.8414118 70.0988235,36.288 70.1004706,35.7345882 C70.1081569,32.8884706 70.1202353,30.0423529 70.1367059,27.1962353 C70.1367059,26.8816471 70.1745882,26.5654118 70.1943529,26.2508235 C70.2207059,25.8357647 70.3277647,25.4157647 70.0889412,25.0237647 C70.0988235,24.3929412 70.0889412,23.7604706 70.1218824,23.1312941 C70.1367059,22.8167059 70.2042353,22.5054118 70.2487059,22.1924706 C70.2635294,22.0870588 70.3211765,21.9734118 70.2948235,21.8811765 C70.1301176,21.3047059 70.308,20.7414118 70.3310588,20.1731765 C70.3475294,19.7564706 70.3607059,19.3496471 70.1663529,18.9428235 C70.0334928,18.7035828 70.0541545,18.4085084 70.2190588,18.1901176 C70.3656471,18.0072941 70.336,17.7931765 70.3425882,17.5856471 C70.3771765,16.2943529 70.4216471,15.0047059 70.4397647,13.7134118 C70.448,13.1089412 70.4150588,12.5028235 70.3755294,11.9016471 C70.3327915,11.4706255 70.3327915,11.0364334 70.3755294,10.6054118 C70.7816585,10.4991472 71.2061743,10.4834036 71.6190588,10.5592941 C71.7656471,10.5774118 71.8891765,10.7684706 72.0670588,10.9183529 L72.6007059,10.4242353 C72.6007059,10.2381176 72.6007059,10.0305882 72.6007059,9.82305882 C72.6038572,9.38991355 72.3429208,8.99850894 71.9418824,8.83482353 C71.8978204,8.80537434 71.8502318,8.78158002 71.8002353,8.764 C71.4329412,8.68658824 71.4049412,8.40823529 71.4082353,8.10517647 L71.3884706,8.11835294 Z M73.7503529,21.3952941 L73.78,21.5105882 L73.7174118,21.5105882 C73.7355294,21.476 73.752,21.4414118 73.7701176,21.4084706 C73.721601,21.3505202 73.6831822,21.2848185 73.6564706,21.2141176 C73.6235294,21.0395294 73.6712941,20.8204706 73.4736471,20.72 C73.3105567,20.6464253 73.1351548,20.6039713 72.9564706,20.5948235 C72.8111988,20.5859919 72.6719846,20.6541986 72.5899337,20.7744048 C72.5078828,20.8946111 72.4950838,21.0491068 72.5562353,21.1811765 C72.6312249,21.3788044 72.7977681,21.5275255 73.0025882,21.5797647 L73.7503529,21.3952941 Z M71.3291765,19.6247059 C71.4049412,19.1305882 71.3291765,18.6677647 71.4938824,18.2181176 C71.5531765,18.0534118 71.4444706,17.8112941 71.3785882,17.6169412 C71.3371257,17.5261541 71.258467,17.457703 71.1628235,17.4291765 C71.0804706,17.4061176 70.9767059,17.4588235 70.8976471,17.4752941 C70.8804588,17.5383126 70.8694267,17.6028504 70.8647059,17.668 C70.8828235,17.9644706 71.0014118,18.2214118 70.8416471,18.5623529 C70.6588235,18.9543529 70.8712941,19.3611765 71.3291765,19.6247059 Z M70.896,4.94117647 C70.7,5.76470588 70.7,5.76470588 70.8696471,6.14188235 C71.1414118,5.82564706 71.4115294,5.53576471 71.6470588,5.22117647 C71.6948235,5.15858824 71.6157647,4.99882353 71.5927059,4.86705882 L70.896,4.94117647 Z M71.6635294,13.7150588 C71.5992941,13.6738824 71.512,13.5750588 71.4115294,13.5618824 C71.176,13.5289412 71.0705882,13.6392941 71.0689412,13.8665882 C71.0672941,14.0938824 71.1545882,14.196 71.3077647,14.196 C71.5218824,14.2091765 71.6585882,14.0477647 71.6635294,13.7167059 L71.6635294,13.7150588 Z M71.9583529,12.74 C71.8038135,12.4850679 71.563993,12.2930948 71.2814118,12.1981176 C71.1957647,12.1635294 71.0623529,12.2771765 71.0854118,12.376 C71.0966235,12.4758658 71.1366873,12.5703019 71.2007059,12.6477647 C71.4075405,12.837107 71.7115595,12.8747789 71.9583529,12.7416471 L71.9583529,12.74 Z M71.5449412,15.0870588 C71.0985882,15.0294118 70.8712941,15.1232941 70.8696471,15.4032941 L71.344,15.6207059 L71.5449412,15.0870588 Z M72.9976471,31.2595294 C72.8988235,31.0948235 72.9449412,30.8345882 72.6287059,30.8922353 C72.6056471,31.0569412 72.5825882,31.2298824 72.5463529,31.4983529 L72.9976471,31.2595294 Z M72.5249412,23.7341176 C72.5035294,23.9663529 72.604,24.0635294 72.7736471,24.0948235 C72.8231698,24.111572 72.8777029,24.1038157 72.9205919,24.0739234 C72.9634809,24.0440311 72.9896321,23.9955529 72.9910588,23.9432941 C73.0174118,23.8296471 72.9828235,23.7291765 72.8642353,23.7127059 C72.7506946,23.7074198 72.6369166,23.7146 72.5249412,23.7341176 Z M73.6581176,19.8849412 C73.6001411,19.8624481 73.539018,19.8491121 73.4769412,19.8454118 C73.4538824,19.8454118 73.4374118,19.9244706 73.4176471,19.9672941 C73.4757384,19.9933177 73.5357618,20.014794 73.5971765,20.0315294 C73.6221634,19.9847432 73.6425719,19.9356524 73.6581176,19.8849412 Z" id="Shape" fill-rule="nonzero"></path>
            <path d="M89.4122353,14.7938824 C89.4698824,14.756 89.5769412,14.7181176 89.5769412,14.6785882 C89.5769412,14.2668235 89.7037647,13.8451765 89.4764706,13.4432941 C89.4349879,13.3237489 89.4315358,13.1942921 89.4665882,13.0727059 C89.488,12.9458824 89.5687059,12.8289412 89.5917647,12.7037647 C89.6691765,12.264 89.5917647,11.9395294 89.2887059,11.4404706 L89.4369412,11.2757647 L89.5489412,11.1538824 C89.4523137,10.9232941 89.3518431,10.6877647 89.2475294,10.4472941 C89.292,10.3501176 89.3117647,10.2150588 89.3858824,10.1672941 C89.6016471,10.0272941 89.6049412,9.828 89.6049412,9.61388235 C89.6049412,8.05905882 89.6049412,6.50478431 89.6049412,4.95105882 C89.6049412,4.63976471 89.5917647,4.35647059 89.2409412,4.33670588 C89.1355294,3.91670588 89.2969412,3.51317647 88.9576471,3.22823529 C88.9253452,3.18673496 88.9132648,3.13297727 88.9247059,3.08164706 C89.0136471,2.64847059 88.8950588,2.17905882 89.1767059,1.74588235 C89.3117647,1.72776471 89.4632941,1.708 89.6148235,1.68329412 C89.7958297,1.67473277 89.9748178,1.6414842 90.1468235,1.58447059 C90.6294118,1.35882353 91.0576471,1.41976471 91.4348235,1.78211765 C91.4924706,1.73764706 91.5352941,1.70964706 91.5731765,1.67505882 C91.8795294,1.39341176 91.8828235,1.39341176 92.0952941,1.78376471 C92.1183529,1.82658824 92.1677647,1.85458824 92.2435294,1.92376471 L92.5334118,1.49058824 L93.1823529,1.82 C93.2432941,1.71623529 93.3042353,1.61247059 93.3602353,1.51364706 C94.9694118,1.66188235 96.5703529,1.55317647 98.1696471,1.58941176 C98.4529412,1.58941176 98.7461176,1.54164706 98.9931765,1.65694118 C99.1875294,1.92541176 99.1101176,2.19717647 99.1167059,2.45247059 C99.1232941,2.70776471 99.0969412,2.97129412 99.0837647,3.248 C99.2918652,3.34928884 99.4209148,3.56351131 99.4131765,3.79482353 C99.3983529,4.21152941 99.5021176,4.63152941 99.344,5.08447059 C99.1723999,5.12133918 98.998519,5.14665095 98.8235294,5.16023529 C97.7430588,5.16023529 96.6625882,5.16023529 95.5821176,5.16023529 C95.3507663,5.17473014 95.1206065,5.11719019 94.9232941,4.99552941 C94.7223529,4.86705882 94.4291765,4.88682353 94.1294118,4.83082353 L93.8823529,4.28235294 C93.8131765,4.76164706 93.8345882,5.11741176 93.5529412,5.35952941 C93.4722353,5.85364706 93.3882353,6.34776471 93.3157647,6.84188235 C93.3050467,7.04927338 93.3050467,7.25707956 93.3157647,7.46447059 C93.3042353,7.88776471 93.3025882,7.88776471 93.5908235,8.35223529 C93.365722,8.67082791 93.2681717,9.06220444 93.3174118,9.44917647 C93.3322353,9.54964706 93.3289412,9.69129412 93.3931765,9.74235294 C93.6847059,9.97788235 93.6501176,10.304 93.6583529,10.6103529 C93.6995294,12.32 93.7291765,14.0312941 93.7604706,15.7409412 C93.7604706,16.2152941 93.7604706,16.6896471 93.7604706,17.164 C93.7831274,17.3468536 93.7679912,17.532412 93.716,17.7091765 C93.6083677,17.9178009 93.6171041,18.1674112 93.7390588,18.368 C93.7543331,18.4181235 93.7610156,18.4704703 93.7588235,18.5228235 C93.8543529,19.2574118 93.856,19.2689412 94.5527059,19.2705882 C95.0237647,19.2705882 95.4981176,19.3183529 95.9658824,19.1767059 C96.117926,19.1545042 96.2728217,19.1617737 96.4221176,19.1981176 C96.628,19.2228235 96.8322353,19.2672941 97.0381176,19.2903529 C97.2901176,19.3167059 97.5536471,19.2343529 97.7644706,19.4896471 C97.8254118,19.5621176 98.0494118,19.4995294 98.2388235,19.4995294 C98.3607059,20.2967059 98.476,21.0675294 98.5962353,21.8564706 C98.6721164,21.8666797 98.7486124,21.8716326 98.8251765,21.8712941 C99.1216471,21.8515294 99.1216471,21.8498824 99.0672941,22.2303529 L98.7378824,22.2303529 L98.3854118,22.708 C98.3340082,22.7371089 98.2784686,22.758214 98.2207059,22.7705882 C97.1698824,22.7343529 96.1174118,22.6931765 95.0649412,22.6569412 C94.7767059,22.6470588 94.4884706,22.6569412 94.1442353,22.6569412 C94.0042353,22.9023529 93.8444706,23.1642353 93.7011765,23.436 C93.6420912,23.5230009 93.6147558,23.6276895 93.6237647,23.7324706 C93.8032941,24.2710588 93.52,24.8211765 93.6814118,25.3581176 C93.6952676,25.4838606 93.6863406,25.6110716 93.6550588,25.7336471 C93.6369412,25.9131765 93.5414118,26.1338824 93.6122353,26.264 C93.7769412,26.5769412 93.6962353,26.8717647 93.6682353,27.1814118 C93.6369412,27.5487059 93.6237647,27.9176471 93.6122353,28.2849412 C93.5902892,28.4147549 93.6045361,28.5481057 93.6534118,28.6703529 C93.9235294,29.0574118 93.8065882,29.484 93.8181176,29.8974118 C93.8181176,30.1592941 93.8181176,30.4228235 93.8016471,30.6847059 C93.8016471,30.8411765 93.8345882,31.0289412 93.7604706,31.1458824 C93.5216471,31.528 93.6254118,31.9035294 93.7077647,32.2988235 C93.7648384,32.5275869 93.8033944,32.7605754 93.8230588,32.9955294 C93.8812549,34.0727059 93.9306667,35.1504314 93.9712941,36.2287059 C94.0141176,37.3338824 94.0470588,38.4390588 94.0816471,39.5425882 C94.0816471,39.7501176 94.0816471,39.9592941 94.0816471,40.1437647 C93.3338824,40.4978824 90.8385882,40.6592941 89.488,40.4534118 C89.4459365,40.313307 89.4183414,40.1692604 89.4056471,40.0235294 C89.4056471,37.3355294 89.3941176,34.6475294 89.4056471,31.9611765 C89.4056471,30.0127059 89.4451765,28.0642353 89.4649412,26.1141176 C89.4649412,25.8258824 89.4649412,25.5425882 89.3002353,25.2757647 C89.2129206,25.1441108 89.1899092,24.9800029 89.2376471,24.8294118 C89.4814118,24.4522353 89.3710588,24.0668235 89.3183529,23.688 C89.2709282,23.4082433 89.2855473,23.1214834 89.3611765,22.848 C89.4559627,22.5180198 89.4806486,22.1718562 89.4336471,21.8317647 C89.3381176,21.1729412 89.404,20.5141176 89.3974118,19.8651765 C89.3974118,19.5802353 89.4204706,19.2985882 89.2607059,19.0218824 C89.1816471,18.8835294 89.2228235,18.6628235 89.2409412,18.4832941 C89.2689412,18.1967059 89.3249412,17.9134118 89.3644706,17.6482353 L88.9477647,17.1541176 C89.1115813,16.9789425 89.254717,16.7855159 89.3743529,16.5776471 C89.5390588,16.1807059 89.7630588,15.7804706 89.4303529,15.3308235 C89.3447059,15.2155294 89.4303529,14.9734118 89.4303529,14.7905882 L89.4122353,14.7938824 Z M94.5708235,21.3541176 C94.8294118,21.5830588 94.9167059,21.9108235 95.3021176,22.0047059 C95.3841007,21.6149336 95.4024557,21.2144611 95.3564706,20.8188235 C95.3564706,20.776 95.2955294,20.7414118 95.2592941,20.6985882 L94.7832941,20.6985882 C94.7157647,20.9061176 94.6548235,21.0971765 94.5708235,21.3541176 Z M92.2797647,38.6910588 C92.0211765,38.8178824 92.0228235,39.0336471 91.812,39.0978824 C91.6011765,39.1621176 91.6324706,39.4124706 91.7065882,39.5755294 C91.779931,39.6780537 91.8904784,39.7478109 92.0145882,39.7698824 C92.0806264,39.7821003 92.1486199,39.7633507 92.1990625,39.7190127 C92.249505,39.6746746 92.276822,39.6096481 92.2731765,39.5425882 C92.2912941,39.284 92.2797647,39.0221176 92.2797647,38.6910588 Z M93.6140635,37.1592941 L93.6140635,39.6595294 C93.7065761,38.9172931 93.7564947,38.1705485 93.7635835,37.4228235 C93.7635835,37.3882353 93.7199035,37.3355294 93.6140635,37.1592941 Z M91.5978824,22.4115294 C91.9882353,22.26 92.092,22.1265882 91.9783529,21.8811765 C91.9315096,21.7982053 91.847456,21.7429876 91.7527059,21.7329412 C91.6630168,21.7496879 91.5886487,21.8121822 91.5567059,21.8976471 C91.5545147,22.0698458 91.5682992,22.2418767 91.5978824,22.4115294 Z" id="Shape" fill-rule="nonzero"></path>
            <path d="M71.3950588,7.10023529 C71.1723737,7.24565188 71.0375127,7.49310325 71.036,7.75905882 C71.0428737,8.14459307 70.8248786,8.49891546 70.4776471,8.66658824 C70.2964808,8.55721028 70.2050814,8.34460738 70.2503529,8.13788235 C70.27359,7.72820232 70.3860129,7.32853881 70.5797647,6.96682353 C70.8535681,6.82018503 71.1925989,6.88469697 71.3934118,7.12164706 C71.3934118,7.12164706 71.3950588,7.10023529 71.3950588,7.10023529 Z" id="Path"></path>
            <path d="M51.2350588,0.84 L52.2232941,0.84 C52.2957647,1.04094118 52.3748235,1.25341176 52.4505882,1.46094118 C52.3912941,1.49882353 52.3517647,1.54164706 52.3072941,1.54823529 C52.1014118,1.58117647 51.8922353,1.59270588 51.688,1.62894118 C51.2877647,1.70141176 51.1065882,1.55482353 51.1296471,1.14635294 C51.1516644,1.04018206 51.1870854,0.937239726 51.2350588,0.84 Z" id="Path"></path>
            <path d="M116.809412,5.99529412 L117.105882,6.524 C117.007059,6.60470588 116.875294,6.664 116.842353,6.53388235 C116.738588,6.104 116.677647,5.66588235 116.590353,5.23105882 C116.580471,5.18164706 116.573882,5.10752941 116.600235,5.07952941 C116.909882,4.75011765 116.700706,4.312 116.853882,3.95623529 C116.875294,3.90847059 116.977412,3.88047059 117.044941,3.87058824 C117.077882,3.87058824 117.122353,3.92164706 117.155294,3.95788235 C117.172395,3.97750211 117.181764,4.00267959 117.181647,4.02870588 C117.181647,4.52282353 117.222824,5.02682353 117.181647,5.52094118 C117.166824,5.68070588 116.949412,5.824 116.809412,5.99529412 Z" id="Path"></path>
            <path d="M117.193176,9.31576471 C117.056471,9.22517647 116.957647,9.19717647 116.944471,9.15105882 C116.795734,8.54299285 116.757243,7.91318251 116.830824,7.29152941 C116.830824,7.23717647 116.944471,7.14 116.972471,7.14988235 C117.051529,7.17952941 117.171765,7.25035294 117.178353,7.31458824 C117.221194,7.98082783 117.226144,8.64896357 117.193176,9.31576471 Z" id="Path"></path>
            <path d="M140.612706,1.54 C140.014824,1.33082353 139.983529,1.29788235 140.011529,0.833411765 C140.223635,0.917936034 140.427613,1.02157873 140.620941,1.14305882 C140.683501,1.19054419 140.719553,1.26510368 140.717924,1.34362694 C140.716295,1.42215019 140.677181,1.49515021 140.612706,1.54 Z" id="Path"></path>
            <path d="M116.262588,13.6211765 C116.592,13.6211765 116.786353,13.2917647 117.140471,13.4202353 C116.652941,13.9407059 116.652941,13.9407059 116.262588,13.6211765 Z" id="Path"></path>
            <path d="M51.3569412,5.17505882 L51.5216471,5.61976471 L50.9847059,5.79764706 C50.9089412,5.42376471 50.9089412,5.42376471 51.3569412,5.17505882 Z" id="Path"></path>
            <path d="M56.1795294,41.4202353 L55.7315294,41.4202353 C55.7232941,41.2242353 55.7150588,41.0512941 55.7051765,40.8618824 C55.7885198,40.8470286 55.8738331,40.8470286 55.9571765,40.8618824 C56.1498824,40.9590588 56.1828235,41.1385882 56.1795294,41.4202353 Z" id="Path"></path>
            <path d="M117.033412,14.8745882 C116.951059,14.784 116.891765,14.7510588 116.890118,14.7098824 C116.880235,14.5451765 116.890118,14.3623529 116.890118,14.1894118 C117.367765,14.2767059 117.402353,14.4134118 117.033412,14.8745882 Z" id="Path"></path>
            <path d="M89.2887059,5.72188235 C89.3414118,5.78117647 89.4534118,5.85364706 89.4847059,5.95082353 C89.5193342,6.03472947 89.5058334,6.13080616 89.4494217,6.20191908 C89.39301,6.27303199 89.3025255,6.30803984 89.2129412,6.29341176 C89.1213714,6.27493059 89.0442041,6.21368672 89.0054118,6.12870588 C88.9716359,6.03602478 88.9850809,5.93270408 89.0414512,5.85175361 C89.0978216,5.77080314 89.1900632,5.72235295 89.2887059,5.72188235 Z" id="Path"></path>
            <path d="M101.676235,23.7258824 C101.346824,23.6468235 101.205176,23.5414118 101.262824,23.2861176 C101.294118,23.1527059 101.391294,23.0489412 101.534588,23.0917647 C101.617724,23.1320481 101.678243,23.2076962 101.699294,23.2976471 C101.707072,23.440806 101.699341,23.5843863 101.676235,23.7258824 Z" id="Path"></path>
            <path d="M115.799765,4.91152941 C115.773003,4.79469739 115.757559,4.67555879 115.753647,4.55576471 C115.753647,4.50141176 115.827765,4.44047059 115.883765,4.40752941 C115.905176,4.39435294 116.002353,4.44705882 116.004,4.47176471 C116.010618,4.59509804 116.003992,4.71878545 115.984235,4.84070588 C115.979294,4.86376471 115.896941,4.87529412 115.799765,4.91152941 Z" id="Path"></path>
            <path d="M114.078588,8.11835294 C114.124706,8.13317647 114.207059,8.13811765 114.213647,8.16611765 C114.240172,8.25808681 114.251303,8.35381004 114.246588,8.44941176 C114.246588,8.46917647 114.156,8.51035294 114.118118,8.50047059 C113.997882,8.47082353 113.953412,8.32094118 114.027529,8.17105882 C114.042288,8.15143239 114.05944,8.13372664 114.078588,8.11835294 Z" id="Path"></path>
            <path d="M114.424471,10.4390588 C114.381028,10.4684497 114.335315,10.4943354 114.287765,10.5164706 C114.249331,10.4644178 114.21518,10.4093355 114.185647,10.3517647 C114.221882,10.3303529 114.277882,10.2842353 114.292706,10.2941176 C114.341519,10.3377471 114.385677,10.3863206 114.424471,10.4390588 Z" id="Path"></path>
            <path d="M102.144,13.7792941 C102.096235,13.8336471 102.073176,13.8863529 102.035294,13.8978824 C101.938118,13.9308235 101.834353,13.7957647 101.883765,13.7018824 C101.901882,13.6672941 101.979294,13.6261176 102.000706,13.6376471 C102.054413,13.6784469 102.102582,13.7260624 102.144,13.7792941 Z" id="Path"></path>
            <ellipse id="Oval" cx="113.309412" cy="10.9727059" rx="1" ry="1"></ellipse>
            <path d="M103.942588,0.0527058824 C103.921176,0.0938823529 103.909647,0.148235294 103.876706,0.168 C103.834302,0.175788847 103.791096,0.159268822 103.764706,0.125176471 C103.764706,0.0872941176 103.789412,0.0428235294 103.804235,-2.77555756e-14 L103.942588,0.0527058824 Z" id="Path"></path>
            <path d="M89.4352941,14.7823312 C89.3888748,14.806848 89.3387785,14.823313 89.2870588,14.8310512 C89.2590588,14.8310512 89.2310588,14.7823312 89.2030588,14.7554512 C89.2261176,14.7554512 89.2524706,14.7302512 89.2705882,14.7369712 C89.32,14.7520912 89.3661176,14.7789712 89.4171765,14.7991312 L89.4352941,14.7823312 Z" id="Path"></path>
            <path d="M51.5374614,3.62463294 L51.4786614,3.73215294 C51.4635414,3.71535294 51.4333014,3.69183294 51.4366614,3.68175294 C51.4523165,3.64368023 51.4714368,3.60712657 51.4937814,3.57255294 L51.5374614,3.62463294 Z" id="Path"></path>
            <path d="M5.19447765,0.097329965 L5.10711765,0.167889965 C5.08880041,0.12884232 5.07363215,0.0883936342 5.06175765,0.046929965 C5.06175765,0.038529965 5.11047765,0.00660996505 5.11551765,0.011649965 C5.14485475,0.0372745018 5.17132923,0.0660021306 5.19447765,0.097329965 Z" id="Path"></path>
            <path d="M54.7002075,34.5157647 L54.6229275,34.636 C54.5994075,34.5931765 54.5574075,34.5503529 54.5590875,34.5091765 C54.5607675,34.468 54.6044475,34.4268235 54.6313275,34.3872941 C54.6548475,34.4235294 54.6850875,34.4729412 54.7002075,34.5157647 Z" id="Path"></path>
        </g>
    </g>
</svg>