<svg xmlns="http://www.w3.org/2000/svg" viewBox="0 0 858.39 254.22">
  <title>Asset 2</title>
  <g id="Layer_2" data-name="Layer 2">
    <g id="AF-bw-flat_Image" data-name="AF-bw-flat Image">
      <g>
        <path d="M541.81,89.86a5.54,5.54,0,0,0-.86-.39c-.11,0-.27.07-.41.11.17.16.34.45.51.45a2.86,2.86,0,0,0,.9-.29c0,1.11-.56,2.58,0,3.28,2,2.73.71,5.16-.34,7.57a19,19,0,0,1-2.59,3.5l2.53,3c-.24,1.61-.58,3.33-.75,5.07-.11,1.09-.36,2.43.12,3.27,1,1.68.81,3.39.83,5.12,0,4-.36,7.94.22,11.94a14.94,14.94,0,0,1-.44,6.17,11.76,11.76,0,0,0-.26,5.1c.32,2.3,1,4.64-.49,6.93a3.17,3.17,0,0,0,.38,2.71c1,1.62,1,3.34,1,5.09-.12,11.84-.32,23.67-.36,35.5-.06,16.31,0,32.63,0,48.95a13,13,0,0,0,.5,2.61c8.2,1.25,23.35.27,27.89-1.88,0-1.12,0-2.39,0-3.65-.21-6.7-.41-13.41-.67-20.12q-.39-9.81-.9-19.63a26.66,26.66,0,0,0-.7-4.23c-.5-2.35-1.13-4.63.32-7,.45-.71.21-1.85.25-2.8.05-1.59.14-3.19.1-4.78-.07-2.51.64-5.1-1-7.45a4.35,4.35,0,0,1-.25-2.34c.07-2.23.15-4.47.34-6.7.17-1.88.7-3.67-.34-5.57-.43-.79.15-2.13.26-3.22a6.39,6.39,0,0,0,.16-2.28c-1-3.26.74-6.6-.35-9.87a2.78,2.78,0,0,1,.47-1.8c.87-1.65,1.84-3.24,2.69-4.73,2.09,0,3.84-.05,5.59,0,6.39.22,12.78.47,19.16.69a3.53,3.53,0,0,0,1-.38l2.14-2.9h2c.33-2.31.33-2.3-1.47-2.18a10.09,10.09,0,0,1-1.39-.09c-.73-4.79-1.43-9.47-2.17-14.31-1.15,0-2.51.38-2.88-.06-1.28-1.55-2.88-1-4.41-1.21-1.25-.14-2.49-.41-3.74-.56a7.27,7.27,0,0,0-2.77-.13c-2.84.86-5.72.57-8.58.57-4.23,0-4.24-.08-4.82-4.54a2.82,2.82,0,0,0-.12-.94,4.09,4.09,0,0,1-.14-4,8.17,8.17,0,0,0,.27-3.31c0-2.88.06-5.76,0-8.64-.19-10.38-.37-20.77-.62-31.15-.05-1.86.16-3.84-1.61-5.27-.39-.31-.37-1.17-.46-1.78a9.47,9.47,0,0,1,1.66-6.66c-1.75-2.82-1.74-2.82-1.67-5.39a36.62,36.62,0,0,1,0-3.78c.4-3,1-6,1.44-9,1.69-1.47,1.56-3.63,2-6.54l1.56,3.36c1.8.32,3.6.2,4.82,1a6.81,6.81,0,0,0,4,1c6.56,0,13.12,0,19.68,0a23.82,23.82,0,0,0,3.16-.46c1-2.75.33-5.3.42-7.83a3.56,3.56,0,0,0-2-3.32c.08-1.68.24-3.26.2-4.83s.43-3.2-.75-4.83c-1.52-.7-3.3-.37-5-.41-9.71-.22-19.43.44-29.2-.46-.34.6-.71,1.23-1.08,1.86l-3.94-2-1.76,2.63c-.46-.42-.76-.59-.9-.85-1.29-2.37-1.31-2.37-3.17-.66-.23.21-.49.38-.84.65-2.29-2.24-4.89-2.57-7.82-1.2a12.08,12.08,0,0,1-3.23.6c-.92.15-1.84.27-2.66.38-1.71,2.63-1,5.48-1.53,8.11a1.07,1.07,0,0,0,.2.89c2.06,1.71,1.08,4.18,1.72,6.73,2.13.12,2.22,1.84,2.21,3.73q0,14.16,0,28.31c0,1.3,0,2.51-1.33,3.36-.45.29-.57,1.11-.84,1.7q.95,2.19,1.83,4.29l-.68.74-.9,1c1.81,3,2.31,5,1.84,7.67-.14.76-.63,1.47-.76,2.24a3.72,3.72,0,0,0,.06,2.25c1.38,2.44.65,5,.61,7.5C542.88,89.36,542.21,89.59,541.81,89.86ZM432.4,49.32a4,4,0,0,0-4.93-1,17.11,17.11,0,0,0-2,7.11,3,3,0,0,0,1.38,3.21,6,6,0,0,0,3.39-5.51,4.81,4.81,0,0,1,2.18-4c0,1.81.15,3.5,2.38,4a3.84,3.84,0,0,1,.86.43,6.43,6.43,0,0,1,4,6c.05,1.26,0,2.52,0,3.65l-3.24,3c-1.08-.91-1.83-2.07-2.72-2.18a17.4,17.4,0,0,0-7.55.28,39.88,39.88,0,0,0,0,7.87c.24,3.67.44,7.35.39,11-.11,7.84-.38,15.67-.59,23.51,0,1.26.14,2.56-.75,3.67a4.2,4.2,0,0,0-.32,4.57c1.22,2.45,1.14,4.94,1,7.47-.14,3.45-1.22,6.87-.22,10.37.16.56-.19,1.25-.28,1.89-.27,1.9-.68,3.79-.77,5.7-.16,3.82-.14,7.66-.2,11.49,1.45,2.38.8,4.93.64,7.45-.12,1.91-.34,3.83-.35,5.74q-.15,25.92-.22,51.84c0,3.36.11,6.72.19,10.08.11,4.63.27,9.27.35,13.91a17,17,0,0,1-1,7.06,5.26,5.26,0,0,0,.81,5.23c.56,0,1,.19,1.18.06,3.1-1.95,6.47-.77,9.72-.89,2.61,1.85,5.55,1,8.36.93A37,37,0,0,0,454.46,252a5.38,5.38,0,0,0,.75-5.19c-1.5-3.51-1.45-7.19-1.43-10.86,0-5,.22-9.91.4-14.87.11-3,.3-6.05-.91-9a4.29,4.29,0,0,1,0-4.17c1.68-2.4,1.29-4.85.37-7.28a2.92,2.92,0,0,1,.22-3.1,4.22,4.22,0,0,0,.42-2.3,76.81,76.81,0,0,0-.13-10.07,111.17,111.17,0,0,1-.19-27.28c.05-.48.1-1,.11-1.44,0-1.74-.55-2.78-2.2-3.23a10.15,10.15,0,0,0-3.76-.29,2.51,2.51,0,0,0-1.57,1.51,2.05,2.05,0,0,0,.68,2.57,15.18,15.18,0,0,0,2,.91c.34,2.27-.19,3.89-2,5.12-.75.49-1.09,1.56-1.72,2.28s-1.53,1.5-2.32,2.26L439.24,165c.09-2.85,2-5,1.71-7.6-.7-.17-1.15-.32-1.61-.4-3.91-.64-5.19-1.6-5.6-5.28a8.82,8.82,0,0,0-1.9-4.71,2.4,2.4,0,0,1-.11-3.11c1-1.28,2.25-1.66,3.64-.82,1.25,3.08.94,6.18.79,9.31,3.08-.83,3.12-.79,4.88-2.34s3.43-2.82,5.8-3c.75,1.34,1.39,2.57,3.23,2.38a2.78,2.78,0,0,0,2.82-3.1,2.7,2.7,0,0,0-3-2.45,10.32,10.32,0,0,0-1.81.53,3.92,3.92,0,0,1-4.4-2.35c1.32-.08,2.56-.17,3.8-.23,1.42-.08,2.84-.13,4.11-.19a7.52,7.52,0,0,0,1.27-5.28c-.19-1.77,1.81-3.17.61-5s1.59-3,1.17-4.78c0-.15,0-.32-.08-.47-.44-1.37-1.2-2.72-1.24-4.11s.68-2.7,1-4.07a9.35,9.35,0,0,0,0-1.91V42.09a8.76,8.76,0,0,0-.1-2.86c-.68-1.81-1.17-3.55-.36-5.43-1.12-2,.23-3.18,1.31-4.28,3.83,0,7.5,0,11.17,0S474,30,477.55,29c.3-.32.46-.42.51-.56,2.25-6.35,1.7-12.9,1.24-19.43a3.1,3.1,0,0,0-3.06-2.53c-1.43-.08-2.88,0-4.32,0q-34.55.54-69.1,1.1a21.59,21.59,0,0,0-2.65.32c-.85,4.86-.75,18.31.2,21.92,1.49,0,3.08.08,4.66.08,5.76,0,11.52,0,17.28,0a34.17,34.17,0,0,1,3.4.39c.07,1.68.13,3.09.19,4.5.08,2.08.09,4.16.26,6.23a7.22,7.22,0,0,0,2.7,5.55c2.29.64,4.44-.37,6.64.88a7.93,7.93,0,0,1-1.11,2.1A1.18,1.18,0,0,1,432.4,49.32Zm-106.22,11-.14-.11c1.16,2,.54,3.65-1.06,5a1.38,1.38,0,0,1-1.26-.14,4.19,4.19,0,0,1-.9-1c-4.64-.39-6.6,2.48-8.37,5.61.4,1.77,2.34,3.11,1.51,5.32-1.7.71-4.58-.28-4.53,3.18,1.58.76,3.76.68,4.78,2.6,2.73.63,5.46,1.78,8-.7a1.68,1.68,0,0,1,2.56.19c1.11,1.32,2.14,2.72,3.14,4.13.42.61-.4,1.91-1.08,1.69a14.26,14.26,0,0,0-8.74.19c-.25.08-.59-.16-.89-.25-.94-.52-.15-2.41-1.85-2.32-.95.61-.35,2.41-1.83,2.53-2.1.16-2.54,1.56-2.77,3.26a3.18,3.18,0,0,1-1.63,2.68c-1.62.94-1.53,1.93-.13,3.24,1.67,1.58,1.78,1.66.6,3.43a7.74,7.74,0,0,0-1.33,4.91c2.94.53,2.79,2.93,2.64,5.2s-.52,4.76-.87,7.12c-.15,1.09-.75,2.19-.63,3.23a9.59,9.59,0,0,0,1.32,2.83c-1.76,1.85-1.81,2.07-.76,3.16.22.22.57.32.79.54,1.31,1.38,1.23,2.24-.33,3.43a10.61,10.61,0,0,1-1.2.73,11.55,11.55,0,0,0,0,2c.44,2.32,1.09,4.62-.18,6.93-.27.49,0,1.26-.06,1.89-.19,1.81,1.71,2.69,1.9,4.25s-.5,3.46.18,4.64c1.45,2.51,1.56,5.14,1.88,7.82a11.91,11.91,0,0,0,.62,2.78c.23.6.8,1,1.61.28-.1-1.13-.53-2.44-.24-3.57a5.65,5.65,0,0,0-.16-4.06,3.16,3.16,0,0,1,1.3-3.94c2.37,1.31,4.46,2.44,6.52,3.63.17.09.17.49.3.89l-3.67.69c-.47,1.14-.61,2.1.52,2.58a21.41,21.41,0,0,0,3.06.82c.29,1.73-1,3.25.11,4.72a3.41,3.41,0,0,0,2.13-3.93c-.33-2.22.16-4.39,0-6.55-.14-1.63.16-2.91,1.57-3.67,1.7-.91,3.42-.48,5.06.32.11.06.15.27.41.79l-1.81,3.36c.5,1.1,1,2.25,1.67,3.64-.38,1.49-.44,3.42-1.35,4.77-.68,1-1.11,1.64-.76,2.86a4.25,4.25,0,0,1-.27,2.28c-.3.91-.78,1.75-2,1.75s-2.31.12-2.59-1.42a1.83,1.83,0,0,0-2.07-1.55c-1.23,0-1.54-.84-1.74-1.87a5.57,5.57,0,0,0-.75-1.36c-1.41.14-2.83.23-4.24.43s-2.82-.47-4.19.34c-.13,2,.11,4-.49,5.72a6.29,6.29,0,0,0-.16,4.12c.37,1.22,1,2.61.14,3.69-1.18,1.48-.72,3-.72,4.57,0,2,1,4.07-.17,6.08-.17.28.06,1,.31,1.29,1.14,1.46.88,2.94.33,4.52a7.53,7.53,0,0,0-.59,2.74,51.84,51.84,0,0,0,.57,7.16,33.77,33.77,0,0,1,.15,13.25,9.77,9.77,0,0,0,0,2.86c.25,2.87.55,5.73.84,8.6.46,4.52,1.61,8.77,4.73,12.3a23.72,23.72,0,0,1,2.05,3.1c2.67.69,2.67.69,4.07,2.15,1,1,2.5,1.41,2.79.65a4.42,4.42,0,0,0,.08-2.67c-.22-.67-1-1.18-1.58-1.7-.94-.83-1.92-1.61-2.69-2.25a4.72,4.72,0,0,1,2.42-5.07c3.05.48,1.9,3.33,2.88,5.23l3.51-.7c1.72,2-.42,3.45-1,5.22l3.43.34c-.56,2-3.59,2.13-2.88,4.91l3.37,1.17c1-2.75.36-5.83,3.14-7.72.59,1.23,1.11,2.34,1.64,3.45,1.52.49,3.31-.14,4.54,1.24l-.12-.13c.06,1,.07,1.87-1,2.49a17.55,17.55,0,0,0-2.21,1.89A16.44,16.44,0,0,0,354,254c3.22-.61,6.32-1.83,9.68-2,.69,0,1.35-.75,2-1.14a8.71,8.71,0,0,1,2.41-1.33,15.34,15.34,0,0,0,10.05-6.61,8.1,8.1,0,0,1,2.18-1.72c.72-.49,4.46-3.47,4.45-3.95,0-2.41,2.47-2.76,3.53-4.53.32-2.49.32-5.28,1.16-7.8a13.67,13.67,0,0,0,.72-4.44c0-1.74.37-3.47.43-5.2a3.39,3.39,0,0,0-.53-2.22c-.94-1-.69-2-.44-3.11,1.31-5.67,1.21-11.43,1.19-17.19,0-1.41.08-2.83-1.2-4-.37-.34-.27-1.51,0-2.16a15.46,15.46,0,0,1,1.5-2.43,2.56,2.56,0,0,0,.24-2.7c-1-1.83-.64-3.56-.07-5.5a10.39,10.39,0,0,0,.09-5.61c-1.2-3.81-.83-7.59-.35-11.34a8.69,8.69,0,0,0-.19-3.64c-.58-2.18-1.07-4.34.51-6.42a4.1,4.1,0,0,0,.38-2.31c0-3.68,0-7.35,0-11a5,5,0,0,0-.26-2.35c-1.05-1.81-.79-3.73-.8-5.62,0-6.24,0-12.48,0-18.71,0-1.09.1-2.52-.51-3.21-1.37-1.56-1.05-3.29-1.06-5,0-10.88,0-21.75,0-32.63,0-1.59-.2-3.19-.18-4.78.09-4.92-1-9.83.08-14.77a15.46,15.46,0,0,0-.14-4.28,30.62,30.62,0,0,1-.33-3.8c.26-4.92-.73-9.89.57-14.78a3.2,3.2,0,0,0-.2-1.37c-1.08-4.72-1-9.51-1.14-14.13l2.58-2.79c-.42-1.64-1.17-2.54-2.72-2.53-.64,0-1.28,0-1.91,0-7.51-.39-15-.81-22.52-1.15-1.21-.06-2.56-.52-3.9.92V9q0,12-.05,24a23.35,23.35,0,0,1-.12,3.35A32.43,32.43,0,0,1,358,41c-.61,1.92,1,3.25,1.08,5,.08,4.12-.52,8.3.69,12.36a3.13,3.13,0,0,1-.08.95,50.67,50.67,0,0,0-.37,6.13c.13,2.16.8,4.29-.3,6.41-.17.33.08,1,.29,1.37,1.33,2.75,1.1,5.52.25,8.33a4.93,4.93,0,0,0-.28,2.29c1.23,5.52,1.17,11.13,1,16.72-.32,9.45.48,18.85,1.18,28.26.52,7,1.12,14-.3,21a3.78,3.78,0,0,0,0,1.89,9.56,9.56,0,0,1-.14,7,5.51,5.51,0,0,0-.06,1.91q.13,26.39.28,52.77a28.28,28.28,0,0,1-.16,4.79c-1.38,8-3.79,10.18-11.67,10.36-2.8.07-4.35-1.38-5.48-3.73a14.63,14.63,0,0,1-1.46-6.86c.11-4.8,0-9.6,0-14.4a11.15,11.15,0,0,0-.14-3.33c-.89-2.67-.62-5.38-.66-8.08,0-3,0-6.07,0-9.11,0-1.59.09-3.16-.85-4.63a2.94,2.94,0,0,1,0-2.24c1.73-4.51.6-9.15.71-13.73-1.62-3.2-1-6.61-.58-9.87.35-2.68.23-5-1.08-6.76a38.16,38.16,0,0,0,.67-6.12c-.3-5.21,1.09-10.53-.92-15.63.84-2.47.2-5,.22-7.47,0-1.55.56-3.09.54-4.64,0-1.74-.53-3.47-.64-5.22A32.09,32.09,0,0,1,340,103a16.74,16.74,0,0,0,0-2.24c-.11-1.1-.45-2.19-.46-3.28q-.44-25.17-.79-50.35c-.07-5,0-9.92,0-14.87a14.58,14.58,0,0,0-.27-3.81C336.94,23,337,17.37,337,11.77c0-1.89.38-3.83-.4-5.71-2.93-1.68-5.91-3-9.79-2,0,5-3.8,7-7.22,9.31-3.13,0-6.2-1.53-9.43-.64-1.31,5.43,2,6.88,6,7.47l.95,2.36,2.53-.13a16.94,16.94,0,0,1-.22,7.34,18.18,18.18,0,0,1-2.48.13c-1.2-.11-1.5-.74-1-2a14.46,14.46,0,0,1,.8-1.41,13.5,13.5,0,0,0-2-.25,10,10,0,0,0-1.81.37,7.36,7.36,0,0,0,1.31,5.29c1.49.51,2.66-1,3.9,0,.2,1.26-2.26,1.66-1,3.23l2.61.79c-.62,2,.25,4-.74,6.32l-6.16-.58c-2.54,1.62-4.27,3.6-3.09,7.07.32,1-.08,2.18-.19,3.29a17.08,17.08,0,0,0-.3,2.33c.1,2.06.37,4.11.49,6.17a3.44,3.44,0,0,0,1.6,3.15c.92.61,1.2,2.19,2.21,4.22.71-3.28,2.4-4.58,4.62-5a8.29,8.29,0,0,0,.27-1.67c-.24-4.07,1-8.3-1.38-12.14-.12-.19.29-.89.62-1.12.61-.42,1.89.09,1.95.76.14,1.43.19,2.87.22,4.3.07,3.17.61,4.95,2.67,8.43Zm-226,192.29c2.19-.18,4,0,5.6-.55a12,12,0,0,1,6.6-.17c5.93,1.28,11.77.29,17.63-.52,2.17-1.53,4.59-.86,6.94-.8,2.07,0,4.28.5,6.17-.06a19.34,19.34,0,0,1,6.12-.82,17.13,17.13,0,0,0,11.1-3.82c13-9.84,18.73-23,17.86-39.22a15.75,15.75,0,0,0-.63-2.77c-1.23,0-2.29,0-3.34,0a3.72,3.72,0,0,1-.2-.7,6.66,6.66,0,0,0,3.22-4.29,40.73,40.73,0,0,0,.88-6.14c0-2.06.49-3.72,2.25-4.87a11.58,11.58,0,0,1-1.19-2.82c-.12-1,.3-2.11.28-3.17a14.81,14.81,0,0,0-.44-3.31,3.61,3.61,0,0,1,.22-3.18,4.54,4.54,0,0,0,.33-2.33c0-3.52,0-7,0-10.55a5.73,5.73,0,0,0-.55-2.75,11.61,11.61,0,0,1-1.31-6c-.09-4.13.26-8.24-1.61-12.2-.72-1.51-.85-3.33-1.87-4.83s-1.73-3.46-2.89-5a36.07,36.07,0,0,0-4-3.86c1.42-1.47,2.88-2.74,4.05-4.23a19.8,19.8,0,0,0,3-4.85,65,65,0,0,0,3.16-10c2.09-10.09,2-20.33,1.51-30.57-.66-12.61-1.73-25.2-1.38-37.85a44.13,44.13,0,0,0-.16-5.75,64,64,0,0,0-1.08-7.58,23.29,23.29,0,0,0-6-10.62c-1.18-1.28-2-2.92-3.38-4a23.89,23.89,0,0,0-4.63-2.24,1,1,0,0,1-.36-.31C160.9,8.29,159.1,8,157.36,8c-2.78-.1-4.89-1.15-6.09-3.68a27.44,27.44,0,0,0-3-.15c-2.53.15-5.07-.12-7.61,0-2.1.08-4.35-.65-6.59-.62-6.54.07-13.07.09-19.61.2-1.26,0-2.51.42-3.78.55-2.21.22-4.5.77-6.64.44a11.39,11.39,0,0,0-6.84,1c-.45,1.83-.81,3.55-1.29,5.24s2,3.11.51,5.1l-1,.7a10,10,0,0,0-1.2.79c-1.57,1.4-1.63,2.07-.72,4.52A9.6,9.6,0,0,1,94,24.77c.13,2.4,0,4.81.26,7.19A128.63,128.63,0,0,0,96.1,46.68a18.14,18.14,0,0,1,.3,7.5,40.74,40.74,0,0,0-.57,4.28,3.78,3.78,0,0,0,.23,2.3c1.19,1.6.86,3.36.86,5.08,0,9.44,0,18.87,0,28.3,0,1.28-.27,2.73.25,3.78a7,7,0,0,1,.23,5.1,18.12,18.12,0,0,0,.11,9.93,7.2,7.2,0,0,1-.17,5.59,4.94,4.94,0,0,0-.15,3.68c1,2.24.54,4.39.37,6.6-.19,2.39-1,5-.33,7.12,1,3.35.65,6.64.74,9.95.1,3.67,0,7.35,0,11,0,3.52-.39,7.09.12,10.54s.09,7.2.92,10.75c.31,1.29-.58,2.86-.33,4.18.78,4,.28,8,0,11.93a117.08,117.08,0,0,0-.59,12,70.15,70.15,0,0,1-.2,12.29c-.79,6-.69,12.12-.94,18.19,0,1-.28,2.16.19,2.82,1.71,2.43,1.28,5.19,1.64,7.85A48.72,48.72,0,0,0,100.22,252.59Zm187-111.92c-2.48-1.35-2.18-3.53-2.23-5.58-.15-6.7,1.17-13.42-.24-20.1a1.24,1.24,0,0,1,0-.47c.24-2.38.63-4.74.68-7.12s-.44-4.71-.37-7.05c.15-4.93-.64-9.9.56-14.79a2.34,2.34,0,0,0-.08-.94c-1.08-5.55-.58-11.16-.33-16.72.12-2.55-.42-5-.23-7.55s0-5.11,0-7.67a3,3,0,0,0-.34-1.38,5.86,5.86,0,0,1-.3-5.07,4.82,4.82,0,0,0,.12-1.78c-.15-1.72-.36-3.45-.54-5.17-.1-1,.14-2.13-.34-2.8-1.9-2.7-1.64-5.6-1.34-8.6a7.42,7.42,0,0,0-.43-3.27,34,34,0,0,0-2.3-4.74,4,4,0,0,0-1.6-1.68c-2.94-1.35-4.46-4.35-7.28-5.93C268.4,11,265.94,9,263.84,8.36a6.23,6.23,0,0,1-2.63-1.06c-1.13-1.22-2.48-1.22-3.91-1.37s-2.82-.56-4.24-.75a102.77,102.77,0,0,0-11.42-1.26,36.41,36.41,0,0,0-9.92,1.17c-5.27,1.42-10.62,2.81-15.48,6a10.4,10.4,0,0,0-.34,3.09c.11.68,1,1.22,1.53,1.78-.89,1.48-2,1.1-3.08.78a5.89,5.89,0,0,0-5.45.76,11.14,11.14,0,0,1-2.21.91c-.57,1.21-.82,2.9-1.71,3.38-1.93,1-2.53,2.8-3.24,4.46a76.62,76.62,0,0,0-3.15,8.83,18,18,0,0,0-.18,4.29c-.28,8.62.59,17.26-.45,25.87a13.67,13.67,0,0,0,.07,1.91c.13,4.94.33,9.88.36,14.82.06,8.31,0,16.62,0,24.93,0,1.11-.21,2.44.31,3.27,1.18,1.86.85,3.62.45,5.51a4,4,0,0,0,0,2.27c1.07,2.32.56,4.73.56,7.09,0,1.65-.77,3.3.67,4.79.3.31.12,1.23,0,1.8-.47,1.51-1.05,3-1.64,4.61a8.92,8.92,0,0,1,.77,6.81c1.41,7.6.95,15.3,1.24,23a17.77,17.77,0,0,1,0,4.31,25.77,25.77,0,0,1-1.86,4.52c.87.64,1.87,1.29,1.64,2.59a17.58,17.58,0,0,0-.54,3.71,34.88,34.88,0,0,0,.89,3.63,4.74,4.74,0,0,1-.12,2.37c-.77,2.11-.14,4.07.31,6.14,1,.56,1.89,1.13,2.86,1.66s1.84.92,3.1,1.55a9.54,9.54,0,0,1-2,1.66c-.83.34-1.85.21-2.69.55a2.7,2.7,0,0,0-1.55,3.88c.41.85,1.15,1.52,1.6,2.35.58,1.06.09,2.11-1.21,3a6.83,6.83,0,0,0-.94,1c.75,1.32,1.44,2.53,2.08,3.63-.8,1.59-2.52,2.42-2.34,4.6l2.76,2.88c-.61,1.45-1.16,2.76-1.82,4.35a4.5,4.5,0,0,1,2,4,2,2,0,0,0,1,1.46c1.25.51,1.5,1.45,1.68,2.62.24,1.56.69,3.09,1,4.55,1.29.64,2.93.9,3.42,1.79,1.55,2.81,4,4.27,6.61,5.86,1.85,1.14,4.07,1.45,5.75,2.87,3.12.12,6.17,1.69,9.38.35a8.31,8.31,0,0,1,2.84-.26c.28,0,.57.22.93.37l1.05,2.38c3.14.56,6.41,1.2,9.71,1.72a8.59,8.59,0,0,0,7.16-1.9c.84-.7,1.55-1.65,2.83-1.52,3,.3,5.64-1.19,8.2-2.36a26.89,26.89,0,0,0,7.87-5c2-2,3.75-3.83,6.8-3.93.75-1.54,1.43-3,2.15-4.38s1.1-2.8,2.09-3.75a5.89,5.89,0,0,0,1.76-4.69c0-2.08-.35-4.28.23-6.2a17.74,17.74,0,0,0,.39-5.74l3-.19c-.17-1.14,0-2.53-.57-3.17-1.27-1.35-1.32-2.8-1.31-4.41,0-4.48-.17-9,.07-13.43.15-2.87-1.25-5.6-.44-8.48.08-.32-.51-.78-.66-1.22a7.61,7.61,0,0,1-.55-2.27c-.06-4.15-.12-8.32,0-12.47.05-1.38,1.14-2.79,1-4.09-.18-1.48-1.11-2.83-1.07-4.5q.15-6.71,0-13.42C285.25,143.47,285.9,142.31,287.2,140.67ZM20.51,69.18c-.9,1.51-2,2.7-.84,4.51.4.63,0,1.84-.15,2.78-.54,3.92-1.43,7.75-1.59,11.77-.28,6.7-1.16,13.37-1.87,20.05a20.85,20.85,0,0,1-1,4.15,4.57,4.57,0,0,0,.21,3.83l5.87,3.38c-.23,2.53-2.79,1.39-3.62,2.64l-.71,2.24-3.13-.34a11.4,11.4,0,0,0-.56,2.36c0,1.25.34,2.52.28,3.76-.2,4.13-.64,8.25-.74,12.38-.07,3.39-.23,6.69-2.3,9.34.82,2.34,1.54,4.4,2.27,6.46,1.32-.46,2.31-1.71,3.83-.21l-.64,2.56c-1.81.56-3.25-1.65-4.83.21l2.58,4.53L10,166.87a13.86,13.86,0,0,0-1.49,6.81A89.69,89.69,0,0,1,6.4,189.8a86,86,0,0,0-1.49,12.83c-.24,3.67,0,7.36-.08,11a19.15,19.15,0,0,1-.63,4.71,127.58,127.58,0,0,0-4,24.09c-.15,1.69-.51,3.47.46,5.25H29.58c1.71-9.27,1.44-18.55,2.59-27.47,2.85-1.41,2.82-1.32,6.2-.45a10.71,10.71,0,0,0,3.79.08c1.26-.15,2.47-.64,3.72-.91,2.72-.59,4.33.73,4.16,3.58-.14,2.53-.52,5-.79,7.44a2.85,2.85,0,0,0,.38.51c1.85,1.31,3.11,2.76,1.6,5.15a3.15,3.15,0,0,0-.41,1.81,35.06,35.06,0,0,0,1.74,9.86c4.87,1.43,9.67,2.86,14.68,2.19,4.24-.57,8.42-1.58,13-2.48.36-4.43,1.25-8.9.17-13.27a38.64,38.64,0,0,1-.85-8.53c0-1.12.3-2.62-.29-3.27-1.86-2-1.44-4.43-1.64-6.76a16.52,16.52,0,0,0-.49-2.3c-.41-1.85-1-3.68-1.23-5.56-.63-4.91-1.13-9.85-1.65-14.77q-1.68-16.23-3.3-32.45c-.27-2.69-.36-5.39-.54-8.09,3.61-3.07-1.85-4.71-1.16-7.32a1.32,1.32,0,0,0,0-.48c-.45-2.84-.69-5.73-1.38-8.51a35.51,35.51,0,0,1-1.36-10.89,4.09,4.09,0,0,0-.22-2.34c-1.91-2.71-1.29-5.85-1.65-8.8-.64-5.18.51-10.46-1.25-15.63-.89-2.61.16-5.75-1.77-8.25-.24-.31-.09-.93-.1-1.41,0-2.06.27-4.14-1-6.06A5.3,5.3,0,0,1,60.18,80c-.26-4.46-.46-8.93-.74-13.39-.13-2.16.51-4.5-1.26-6.37a1.14,1.14,0,0,1-.15-.9,8.46,8.46,0,0,0-1.16-6.42,4.86,4.86,0,0,1-.38-2.34,87.79,87.79,0,0,0-1.28-11.4c-1-6.14-1.47-12.37-2.11-18.57a9.07,9.07,0,0,1,0-3.33c1-3.43-.13-5.89-2.49-8.55a8,8,0,0,0-8.5-2.82,3.57,3.57,0,0,1-2.19,0c-4.75-1.67-9-.36-13.2,2.16-.13,2.39.1,4.69-.46,6.8a15.89,15.89,0,0,0-.4,5.65,19.38,19.38,0,0,1-.11,2.84A90.58,90.58,0,0,1,24.1,36c-.42,2-.27,4.15-.57,6.2s-2.37,3.62-.72,5.79c-.55,1-1.09,1.92-1.67,2.87-.86,1.41-1.48,2.74-.32,4.4,1,1.49.5,3.22-.38,4.53C18.38,62.87,18.86,65.82,20.51,69.18ZM679.46,247c.63-5.29,1.74-10.48-.34-15.65a5.91,5.91,0,0,1-.21-1.89c-.09-3.46.51-7-1.63-10.16.14-3.54-1.3-6.82-1.7-10.27-1.16-9.85-2.29-19.69-3.33-29.55-.86-8.1-1.58-16.22-2.37-24.34-.15-1.58-.36-3.07.82-4.54.65-.81.44-2-.82-2.81a3.12,3.12,0,0,1-.94-2c-.61-3.3-1-6.65-1.73-9.91a37.22,37.22,0,0,1-1.15-10c.08-1.71.23-3.44-1.24-4.91-.54-.54-.51-1.79-.53-2.73-.11-4.31-.11-8.62-.21-12.92a9.18,9.18,0,0,0-.45-3.74,11.55,11.55,0,0,1-1.17-6c.21-3.64-2.55-6.84-1.5-10.59.07-.25-.15-.63-.33-.89-1.29-1.84-1-4-1.09-6-.23-4.94-.51-9.88-.8-14.82a3.36,3.36,0,0,0-.46-1.81c-1.26-1.59-.39-3.43-.77-5.08a40.06,40.06,0,0,0-1.73-4.89,1.52,1.52,0,0,1,0-.48,57.46,57.46,0,0,0-1-11.38c-.87-4.37-1.17-8.86-1.61-13.32a48.63,48.63,0,0,1-.46-8.59,22.65,22.65,0,0,0-.13-5.8c-1.31-1.53-2.18-2.46-3-3.47-2.14-2.81-4.91-3.35-8.06-2.18a1.94,1.94,0,0,1-1.68,0c-4.87-2-9.26-.72-13.55,2-.12,2.4.13,4.72-.44,6.81a12.19,12.19,0,0,0-.28,5.12,29.94,29.94,0,0,1-.11,3.27c.14,5.12-1.24,10-2,15-.33,2.19,0,4.5-1.3,6.52a1.49,1.49,0,0,0-.06,1.36c1,1.37.2,2.37-.49,3.46A18,18,0,0,0,620,52.74a2.05,2.05,0,0,0,.12,1.76c1.85,2,.82,4.08-.23,5.73-2,3.2-1.38,6,.6,8.74-.08,1.4-2.4,1.87-1.48,3.85l3.67,1c.84,2,.07,2.94-1.31,3.84-.69.45-.36,1.62.45,1.9s1.71-.16,1.9.94c.23,1.33-.87,1.48-1.75,1.83a2.55,2.55,0,0,0-.64.52A74.61,74.61,0,0,0,623.88,91a5,5,0,0,1-.08,4.93l-4.44,2.87a37.34,37.34,0,0,1,1.75,4.11,25.06,25.06,0,0,1,.95,5.13c.16,2.52-2.17,3.67-3.07,5.55l-4.42-1.15v3.47c2.08,1.7,4.68,2.25,6.59,4.26-.58.55-1,1.31-1.47,1.31-2.15,0-2.89,1.57-3.46,3.11a4.2,4.2,0,0,1-1.16.07,1.59,1.59,0,0,0-2.23,1.16c-.28,1,.71,2.07,1.91,2.28a6.92,6.92,0,0,0,1.44.06c1.94-.05,2.88,1,3.28,2.86-1.56,1.35-3.49,1.41-5.39,1.67a5.51,5.51,0,0,0-1.5.8c1.83,2.55,4.69,1.47,6.94,2.75a8.84,8.84,0,0,0-1.34,2.33,27.2,27.2,0,0,0,.09,2.84c-.2,2-.54,4.06-.84,6.18a13.16,13.16,0,0,1-2.87.84A4.47,4.47,0,0,0,610,152.3l2,5.46c1.31.29,2.77-1.14,4.17.57-.24.84-.53,1.84-.88,3a24.26,24.26,0,0,0-2.89-.85,6,6,0,0,0-1.77.26c.28,2,2.75,2.83,1.57,5.4-3.39-.31-3.53,2.46-3.81,5.08-.25,2.38-.52,4.77-.59,7.17a39.2,39.2,0,0,1-1.41,9.45,47.84,47.84,0,0,0-1.72,11.84c-.07,4.47,0,8.95-.17,13.43a34,34,0,0,1-.75,5.66c-.77,3.75-1.87,7.45-2.46,11.22-.87,5.52-1.77,11.06-1.41,16.68,0,.22.37.41.71.75,1.53-.15,1.68-2.2,2.67-2.45,1.94.34,3.51.93,5,.78,1.87-.18,2.75,1.59,4.36,1.67l1,0c2.39.08,4.78.23,7.18.22,2.68,0,5.35-.14,8.32-.23,1.49-9.2,1.29-18.34,2.51-27.57l4.23-1.67c2.88,1.89,3.06,2,5.48,1.59,1.41-.23,2.78-.73,4.19-1a4.13,4.13,0,0,1,2.29.08,2.8,2.8,0,0,1,2,2.95c-.29,2.68-.58,5.37-.85,7.93a16.3,16.3,0,0,1,2.52,3c.63,1.25-.11,2.46-1,3.49a.64.64,0,0,0-.11.46c.55,3.57.2,7.33,2,10.67,2.65.59,5.14,1.18,7.64,1.71a20.22,20.22,0,0,0,8.09.1ZM712.29,77.07c-.37,6.67.82,13-.09,19.16a31.44,31.44,0,0,0-3.51-.2,14.27,14.27,0,0,0-3.63.59c-.95.32-1.45,1.82-3.13.93.33-2.2-.63-4.64.72-6.88a6,6,0,0,0,.31-5.51,16.41,16.41,0,0,1-.93-6.58c.16-3-.16-6-.27-9-2.23-.24-3.78.19-4.71,2.08-.41.85-1.16,1.53-1.58,2.38a14.41,14.41,0,0,0-.72,2.43c-1.41-.22-.57-2.29-2.54-2.15-.6,1.72-.31,3.61-.28,5.44.53,29.6,1.14,59.19,1.62,88.78.13,8.48-.09,17-.18,25.43-.06,6.4-.29,12.8-.19,19.2.06,3.66.64,7.32,1,11q.31,3.09.69,6.17a7,7,0,0,0,.49,2.76c1.66,2.72,3.53,5.31,5.27,8a5.47,5.47,0,0,0,5.23,2.66c2.07-.1,4.15.07,6.23.16.25,0,.49.31.86.56-.09.84-.2,1.75-.3,2.7,3.71,3.34,8.26,4.06,12.94,4.18a75,75,0,0,0,24.11-3.47c2.6-.81,5.25-1.56,6.62-4.29.13-.27.44-.61.68-.63,2.29-.12,2.9-2.26,4.27-3.47,1.67-1.46,3.41-2.82,5.53-4.57a9.19,9.19,0,0,1,.39-1.27c.9-2.19,1.4-4.75,2.87-6.47,2-2.31,1-4.87,1.65-7.26,0-.15,0-.35.15-.45,1.59-1.59,1.11-3.6,1-5.46-.3-4.46-.82-8.92-1.11-13.38a16,16,0,0,1,.23-5.71,20.08,20.08,0,0,0,.94-7.4c-.2-3.12.47-6.29.71-9.44.35-4.6-1.79-9.34-7.6-10.61-5.16-1.12-10.27-2.43-15.58-2.57-.8,0-1.6-.13-2.4-.1-1.87.06-2.65.75-2.81,2.54-.08.95,0,1.92-.06,2.88s.12,2.42-.41,3.26c-1.13,1.79-.95,3.66-1,5.55,0,4.64,0,9.28,0,13.92a7.54,7.54,0,0,1-.11,2.86c-1.74,4-1,8.2-1,12.3a54.8,54.8,0,0,1-1.34,10.9,8.91,8.91,0,0,1-3.94,5.71c-3.7,2.63-8.79,3-12-2.08A15.42,15.42,0,0,1,723,214a181.32,181.32,0,0,1,1.38-24.42,10.5,10.5,0,0,0,0-3.79,64.19,64.19,0,0,1-1.28-14.3q0-12.24,0-24.48c0-2.06.28-4.17-.74-6.12a1.72,1.72,0,0,1-.15-1.37c1.1-2.15.52-4.36.47-6.59s.37-4.44.41-6.67c.08-3.83-.07-7.68.07-11.51a35.06,35.06,0,0,1,1-5.18C722,106,722,106,722,102.2c.08-6.87-.39-13.75.73-20.59.3-1.85.6-3.81-.62-5.58-1.62-2.37-1.61-5.08-1.51-7.8.08-2.07-.38-4.39.41-6.14a14.34,14.34,0,0,0,1-6c0-3.68.21-7.37,0-11-.32-4.79,1.28-9.12,2.59-13.56a4.17,4.17,0,0,1,2.56-2.56c3.49-1.76,7-1.56,10.92-1,1.23,2,2.89,3.83,3.68,6a39.45,39.45,0,0,1,2.46,14.55c-.2,7-.24,14.08-.3,21.12,0,1.39-.44,2.88.67,4.23.84.23,1.75.53,2.69.72,2.61.55,5.44.2,7.69,2.15.39.34,1.24.26,1.86.2a60.66,60.66,0,0,0,14.5-3.38,7.31,7.31,0,0,0,.39-.83c2-6.19.42-12.74,1.86-19,.26-1.12-.47-2.45-.67-3.7a3.55,3.55,0,0,1,0-1.89c1.18-2.57.25-5-.32-7.44a48.16,48.16,0,0,1-.79-5.21c-.29-2.63.28-5.44-1.84-7.66-.27-.29-.15-.93-.26-1.39-1-4.41-2.66-8.38-6.4-11.32-1.7-1.34-3-3.25-4.86-5.39-2.21-.56-5.16-1.18-7.52-3.28a4.7,4.7,0,0,0-2.23-.63c-2.59-.42-5.46.29-7.6-2-.27-.29-.92-.26-1.39-.29-6.92-.48-13.76-.22-20.29,2.41A9,9,0,0,0,716.23,8c-2.26,2.42-4.64,4.54-8,4.8-.47,2.33-.9,4.37-1.26,6.41-.05.25.21.56.4,1l2.35.55c1.53-.95.26-3,2.11-3.89a15.43,15.43,0,0,1,.64,2.48c.15,1.9.28,3.82.24,5.74-.1,6.07-.35,12.15-.42,18.22-.08,6.88,0,13.76,0,20.64,0,1.92-.14,3.83-.21,5.75a33,33,0,0,1-.95-4.75,7.61,7.61,0,0,0-1-1.91,5.62,5.62,0,0,0-2.35,4.86c-.1,3.43-.55,7,1.07,10.52Zm108.63,36.66c-.49-3-1.08-5.31-1.22-7.66-.23-4-.26-8-.23-12,0-5.76.24-11.51.31-17.27s.32-11.53,0-17.27-.08-11.46-.21-17.19c0-1.27-.23-2.53-.37-3.79a24.74,24.74,0,0,1,.84-11h4.47c9.44,0,18.87,0,28.31-.08,1.39,0,2.9.34,4.23-.88V16.77l-3.23-1.25c-.33-1-.62-1.86-.92-2.77l-3,.15c-.25-1.1-.48-2.15-.7-3.09l-3.07-1.16c0-.59,0-.89,0-1.19.08-2.21-.37-2.85-2.18-2.6a14.55,14.55,0,0,1-5.18-.08,7.55,7.55,0,0,0-3.76.31c-2.42.8-5.14-.31-7.43,1.28-.26.18-1-.08-1.34-.31-2.11-1.27-4-.17-5.65.68-3.06-1.66-6-2.75-9.3-1.47a9.93,9.93,0,0,1-3.33.18c-4.16,0-8.32,0-12.48,0a24.76,24.76,0,0,0-3.08.37c-1,1.62-1.68,3.06-1,4.74,1.64,4,1.33,8.15,1.31,12.3q-.12,26.63-.18,53.26c0,1.43.22,2.85.25,4.27,0,2.22-.17,4.47,0,6.66s-.38,4,0,6.1,0,4.26.8,6.36a5.24,5.24,0,0,1-.09,2.85c-1.47,6.14.12,12.39-.72,18.55a4.88,4.88,0,0,0,.34,1.85,22.86,22.86,0,0,1,.25,11.37,34.67,34.67,0,0,0-.49,10.39c.36,5.74.79,11.48.87,17.23.13,8.32,0,16.64-.09,24.95s.27,16.57.06,24.87c-.18,7.19,0,14.39-.06,21.59,0,2.19.57,4.49-.83,6.53a.94.94,0,0,0,0,.86c1.63,1.72.34,4.08,1.26,5.84a8.53,8.53,0,0,0,8.7.79,7.09,7.09,0,0,1,6-.06,7.12,7.12,0,0,0,2.82.37q21.58,0,43.18,0a10.86,10.86,0,0,0,2.13-.41c.41-3.2.41-3.2-1.81-5.41a19.72,19.72,0,0,0,3.05-13.7,28.44,28.44,0,0,0-8.17-1.13c-2-.1-4.17.39-6.13-.62a16.18,16.18,0,0,1-8.3-.73,1.81,1.81,0,0,0-1.4.05c-1.69,1.29-3.26.08-4.89-.05-2-.16-3.88-1.49-6-.49-.58.28-1.54-.21-2.32-.4-1.46-.35-2.16-1.52-1.33-2.83,1.33-2.1,1.24-4.2.73-6.45a45.78,45.78,0,0,1-1.09-5.65,6.14,6.14,0,0,1,.44-3.69,6.82,6.82,0,0,0,.75-4.58c-.23-2.87-.5-5.74-.65-8.61-.1-1.75-.44-3.66.11-5.22.69-2,.39-3.74.25-5.63a38.46,38.46,0,0,1-.12-8.09,19,19,0,0,0,.18-4.19,48.58,48.58,0,0,1-.21-7.62c.09-1.08.49-2.06,0-3.18a6.2,6.2,0,0,1-.4-2.34q0-9.84,0-19.67a7.26,7.26,0,0,1,.41-1.56,31.87,31.87,0,0,1,3.09-1,49.53,49.53,0,0,1,13.86-.49q5.75.4,11.49.64a16.5,16.5,0,0,0,2.85-.4,55.7,55.7,0,0,0,.31-10.74c-.21-3.46.59-7-.44-10.35-2.74-.7-5.16-2.3-7.9-.81-.08,0-.28-.12-.43-.19-1.7-.86-3.44-.33-5.17-.14ZM310.07,5.1A7.77,7.77,0,0,0,309.43,7c-.14,2.48,1,3.37,3.39,2.93,1.24-.22,2.51-.29,3.76-.49.27,0,.51-.3.87-.53-.46-1.26-.94-2.55-1.38-3.77ZM708.2,36.4c.85-1,2.17-1.91,2.26-2.88.26-3,0-6,0-9.06a.65.65,0,0,0-.16-.43c-.2-.22-.47-.56-.67-.53-.41.06-1,.23-1.16.52-.93,2.16.34,4.83-1.54,6.82-.16.17-.12.62-.06.92.48,2.64.9,5.3,1.53,7.91.2.79,1,.43,1.6-.06Zm2.33,20.16a107,107,0,0,0-.09-12.19c0-.38-.77-.81-1.25-1-.17-.06-.84.53-.86.86A31.79,31.79,0,0,0,709,55.53C709.1,55.84,709.7,56,710.53,56.56ZM852.72,9.35a1.49,1.49,0,0,0,0-2.41,22.86,22.86,0,0,0-3.7-1.88C848.9,7.88,849.09,8.08,852.72,9.35ZM704.88,82.7c2.37,1.94,2.37,1.94,5.33-1.22C708.06,80.74,706.93,82.72,704.88,82.7ZM310.81,31.42c-2.72,1.51-2.72,1.51-2.23,3.78l3.26-1.08Zm29.28,220.06c0-1.71-.18-2.8-1.35-3.36a4.36,4.36,0,0,0-1.53,0c.06,1.15.11,2.2.16,3.39ZM709.56,90.31c2.24-2.8,2-3.63-.9-4.14,0,1,0,2.11,0,3.16C708.7,89.56,709.06,89.76,709.56,90.31ZM541.11,34.74a1.84,1.84,0,0,0-1.72,2.48,1.77,1.77,0,0,0,1.26,1,1.52,1.52,0,0,0,1.65-2.08C542.1,35.54,541.43,35.1,541.11,34.74Zm75.21,109.31a12.07,12.07,0,0,0,.15-2.6,1.86,1.86,0,0,0-1-1.25c-.87-.26-1.46.37-1.65,1.18C613.46,142.93,614.36,143.57,616.32,144.05ZM702.07,29.82c.59-.22,1.09-.29,1.12-.43a10.49,10.49,0,0,0,.12-2.24c0-.15-.6-.47-.73-.39-.34.2-.78.57-.79.9A11.33,11.33,0,0,0,702.07,29.82ZM691.62,49.29a1.79,1.79,0,0,0-.31.37c-.41.86-.18,1.77.55,2,.23.06.78-.19.78-.31a5.27,5.27,0,0,0-.2-1.72C692.4,49.41,691.9,49.38,691.62,49.29Zm2.1,14.09a5.75,5.75,0,0,0-.8-.88c-.09-.06-.43.22-.65.35a7.27,7.27,0,0,0,.62,1A6,6,0,0,0,693.72,63.38ZM619.16,83.66a4.72,4.72,0,0,0-.87-.86c-.13-.07-.6.18-.71.39-.3.57.33,1.39.92,1.19C618.73,84.31,618.87,84,619.16,83.66Zm68-18.17h-.59v2.25h.59ZM630.08.32l-.8-.32c-.09.26-.29.53-.24.76a.7.7,0,0,0,.64.26C629.88.9,630,.57,630.08.32ZM710,60.14c-.1,0-.24,0-.27.09a.92.92,0,0,0-.09.37l.47-.1Zm-5.52-25.78-.32-.6a1.91,1.91,0,0,0-.32.21,5,5,0,0,0,.34.65ZM311.89,22l-.26-.31a4,4,0,0,0-.34.65c0,.06.16.2.25.3ZM30.52.58a3.21,3.21,0,0,0-.46-.51s-.33.16-.32.21A4.82,4.82,0,0,0,30,1Z" style="fill: #fff"/>
        <path d="M100.22,252.59a48.72,48.72,0,0,1-1.34-5.16c-.36-2.66.07-5.42-1.64-7.85-.47-.66-.23-1.87-.19-2.82.25-6.07.15-12.19.94-18.19a70.15,70.15,0,0,0,.2-12.29,117.08,117.08,0,0,1,.59-12c.23-4,.73-7.93,0-11.93-.25-1.32.64-2.89.33-4.18-.83-3.55-.39-7.18-.92-10.75s-.11-7-.12-10.54c0-3.68.08-7.36,0-11-.09-3.31.23-6.6-.74-9.95-.63-2.16.14-4.73.33-7.12.17-2.21.59-4.36-.37-6.6a4.94,4.94,0,0,1,.15-3.68,7.2,7.2,0,0,0,.17-5.59,18.12,18.12,0,0,1-.11-9.93,7,7,0,0,0-.23-5.1c-.52-1-.25-2.5-.25-3.78,0-9.43,0-18.86,0-28.3,0-1.72.33-3.48-.86-5.08a3.78,3.78,0,0,1-.23-2.3,40.74,40.74,0,0,1,.57-4.28,18.14,18.14,0,0,0-.3-7.5A128.63,128.63,0,0,1,94.29,32c-.23-2.38-.13-4.79-.26-7.19A9.6,9.6,0,0,0,93.48,22c-.91-2.45-.85-3.12.72-4.52a10,10,0,0,1,1.2-.79l1-.7c1.46-2-1-3.34-.51-5.1s.84-3.41,1.29-5.24a11.39,11.39,0,0,1,6.84-1c2.14.33,4.43-.22,6.64-.44,1.27-.13,2.52-.53,3.78-.55,6.54-.11,13.07-.13,19.61-.2,2.24,0,4.49.7,6.59.62,2.54-.1,5.08.17,7.61,0a27.44,27.44,0,0,1,3,.15c1.2,2.53,3.31,3.58,6.09,3.68,1.74.06,3.54.31,4.71,1.94a1,1,0,0,0,.36.31,23.89,23.89,0,0,1,4.63,2.24c1.34,1,2.2,2.69,3.38,4a23.29,23.29,0,0,1,6,10.62,64,64,0,0,1,1.08,7.58,44.13,44.13,0,0,1,.16,5.75c-.35,12.65.72,25.24,1.38,37.85.54,10.24.58,20.48-1.51,30.57a65,65,0,0,1-3.16,10,19.8,19.8,0,0,1-3,4.85c-1.17,1.49-2.63,2.76-4.05,4.23a36.07,36.07,0,0,1,4,3.86c1.16,1.5,1.82,3.38,2.89,5s1.15,3.32,1.87,4.83c1.87,4,1.52,8.07,1.61,12.2a11.61,11.61,0,0,0,1.31,6,5.73,5.73,0,0,1,.55,2.75c.06,3.51,0,7,0,10.55a4.54,4.54,0,0,1-.33,2.33,3.61,3.61,0,0,0-.22,3.18,14.81,14.81,0,0,1,.44,3.31c0,1.06-.4,2.14-.28,3.17a11.58,11.58,0,0,0,1.19,2.82c-1.76,1.15-2.24,2.81-2.25,4.87a40.73,40.73,0,0,1-.88,6.14,6.66,6.66,0,0,1-3.22,4.29,3.72,3.72,0,0,0,.2.7c1,0,2.11,0,3.34,0a15.75,15.75,0,0,1,.63,2.77c.87,16.17-4.83,29.38-17.86,39.22a17.13,17.13,0,0,1-11.1,3.82,19.34,19.34,0,0,0-6.12.82c-1.89.56-4.1.11-6.17.06-2.35-.06-4.77-.73-6.94.8-5.86.81-11.7,1.8-17.63.52a12,12,0,0,0-6.6.17C104.24,252.59,102.41,252.41,100.22,252.59ZM128.7,118.91a39.5,39.5,0,0,0,10.53,0,17.12,17.12,0,0,0,4-1.39,6,6,0,0,0,4.17-5.33c.24-2.7.62-5.41.64-8.11.06-14.22,0-28.44,0-42.66,0-1.27.2-2.72-.32-3.78-.8-1.61-.47-3-.27-4.63s.66-3.38.08-4.67a12.11,12.11,0,0,1-.37-8c.81-3.4-.1-6.15-1.78-9.07a7.7,7.7,0,0,0-6-4.17,51.57,51.57,0,0,0-12.17.05,15.42,15.42,0,0,0-1.55,7.31c0,6.39-.12,12.79.14,19.17a207.43,207.43,0,0,1,.09,23,28.21,28.21,0,0,0,.27,7.63,38.6,38.6,0,0,1,.59,8.57c-.07,5.91-.14,11.82-.08,17.73A16.3,16.3,0,0,0,128.7,118.91Zm1.2,108.54c4.2.51,8.11.48,11.89-1.09,1.66-.69,3.19-1.47,3.31-3.64,0-.55.56-1.1.91-1.6a10.62,10.62,0,0,0,2.06-5.17,123.25,123.25,0,0,0,.85-16.19,26.07,26.07,0,0,1,.53-5.2,70,70,0,0,0,1.23-14.29c-.08-2,.18-4.16-1.37-5.91a2.83,2.83,0,0,1-.39-1.83c.27-5.74-.51-11.43-.8-17.15a9.09,9.09,0,0,0-.93-4.59c-1.05-1.72-1.83-3.6-2.73-5.4-5.37-.81-10.42-2.61-15.79-.61-.2,6.22-.56,12.27-.54,18.32,0,6.38.18,12.78.7,19.13.29,3.5,1,6.93.12,10.43a2.4,2.4,0,0,0-.07,1.42c1.13,2.66.32,5.34.19,8-.14,2.86-.32,5.72-.25,8.58.12,4.47.42,8.93.68,13.39C129.56,225.15,129.75,226.22,129.9,227.45Zm32.74-4.28c-.21,1-.43,2-.62,3.06s-.31,2-.57,3.66C164.1,225.8,164.19,225.43,162.64,223.17Z"/>
        <path d="M287.2,140.67c-1.3,1.64-1.95,2.8-1.92,4.37q.15,6.71,0,13.42c0,1.67.89,3,1.07,4.5.16,1.3-.93,2.71-1,4.09-.14,4.15-.08,8.32,0,12.47a7.61,7.61,0,0,0,.55,2.27c.15.44.74.9.66,1.22-.81,2.88.59,5.61.44,8.48-.24,4.46-.05,8.95-.07,13.43,0,1.61,0,3.06,1.31,4.41.6.64.4,2,.57,3.17l-3,.19a17.74,17.74,0,0,1-.39,5.74c-.58,1.92-.23,4.12-.23,6.2a5.89,5.89,0,0,1-1.76,4.69c-1,1-1.44,2.47-2.09,3.75s-1.4,2.84-2.15,4.38c-3.05.1-4.81,2-6.8,3.93a26.89,26.89,0,0,1-7.87,5c-2.56,1.17-5.16,2.66-8.2,2.36-1.28-.13-2,.82-2.83,1.52a8.59,8.59,0,0,1-7.16,1.9c-3.3-.52-6.57-1.16-9.71-1.72l-1.05-2.38c-.36-.15-.65-.38-.93-.37a8.31,8.31,0,0,0-2.84.26c-3.21,1.34-6.26-.23-9.38-.35-1.68-1.42-3.9-1.73-5.75-2.87-2.56-1.59-5.06-3.05-6.61-5.86-.49-.89-2.13-1.15-3.42-1.79-.33-1.46-.78-3-1-4.55-.18-1.17-.43-2.11-1.68-2.62a2,2,0,0,1-1-1.46,4.5,4.5,0,0,0-2-4c.66-1.59,1.21-2.9,1.82-4.35L200,217.26c-.18-2.18,1.54-3,2.34-4.6-.64-1.1-1.33-2.31-2.08-3.63a6.83,6.83,0,0,1,.94-1c1.3-.94,1.79-2,1.21-3-.45-.83-1.19-1.5-1.6-2.35a2.7,2.7,0,0,1,1.55-3.88c.84-.34,1.86-.21,2.69-.55a9.54,9.54,0,0,0,2-1.66c-1.26-.63-2.2-1.07-3.1-1.55s-1.9-1.1-2.86-1.66c-.45-2.07-1.08-4-.31-6.14a4.74,4.74,0,0,0,.12-2.37,34.88,34.88,0,0,1-.89-3.63,17.58,17.58,0,0,1,.54-3.71c.23-1.3-.77-2-1.64-2.59a25.77,25.77,0,0,0,1.86-4.52,17.77,17.77,0,0,0,0-4.31c-.29-7.66.17-15.36-1.24-23a8.92,8.92,0,0,0-.77-6.81c.59-1.64,1.17-3.1,1.64-4.61.17-.57.35-1.49,0-1.8-1.44-1.49-.68-3.14-.67-4.79,0-2.36.51-4.77-.56-7.09a4,4,0,0,1,0-2.27c.4-1.89.73-3.65-.45-5.51-.52-.83-.31-2.16-.31-3.27,0-8.31,0-16.62,0-24.93,0-4.94-.23-9.88-.36-14.82a13.67,13.67,0,0,1-.07-1.91c1-8.61.17-17.25.45-25.87a18,18,0,0,1,.18-4.29,76.62,76.62,0,0,1,3.15-8.83c.71-1.66,1.31-3.43,3.24-4.46.89-.48,1.14-2.17,1.71-3.38a11.14,11.14,0,0,0,2.21-.91,5.89,5.89,0,0,1,5.45-.76c1.05.32,2.19.7,3.08-.78-.51-.56-1.42-1.1-1.53-1.78a10.4,10.4,0,0,1,.34-3.09c4.86-3.22,10.21-4.61,15.48-6a36.41,36.41,0,0,1,9.92-1.17,102.77,102.77,0,0,1,11.42,1.26c1.42.19,2.82.6,4.24.75s2.78.15,3.91,1.37a6.23,6.23,0,0,0,2.63,1.06c2.1.67,4.56,2.65,6.79,3.9,2.82,1.58,4.34,4.58,7.28,5.93a4,4,0,0,1,1.6,1.68,34,34,0,0,1,2.3,4.74,7.42,7.42,0,0,1,.43,3.27c-.3,3-.56,5.9,1.34,8.6.48.67.24,1.85.34,2.8.18,1.72.39,3.45.54,5.17a4.82,4.82,0,0,1-.12,1.78,5.86,5.86,0,0,0,.3,5.07,3,3,0,0,1,.34,1.38c0,2.56.19,5.13,0,7.67s.35,5,.23,7.55c-.25,5.56-.75,11.17.33,16.72a2.34,2.34,0,0,1,.08.94c-1.2,4.89-.41,9.86-.56,14.79-.07,2.34.41,4.71.37,7.05s-.44,4.74-.68,7.12a1.24,1.24,0,0,0,0,.47c1.41,6.68.09,13.4.24,20.1C285,137.14,284.72,139.32,287.2,140.67Zm-50.57,84.69c5.13.9,10.12.74,15-1.5,2.48-1.14,3.76-2.77,3.71-5.5,0-2.88,0-5.76,0-8.63a4.59,4.59,0,0,1,.57-2.72c1.19-1.37,1.19-2.91,1.2-4.49,0-5.1,0-10.21,0-15.32a14.29,14.29,0,0,1,.07-3.34,32,32,0,0,0,.29-11.79A197.78,197.78,0,0,1,256.37,152c-.43-16.94-.73-33.88-1-50.81q-.54-29.73-1-59.46A8.79,8.79,0,0,0,254,38.4c-1.26-2.75-2.74-5.41-4.22-8a2.61,2.61,0,0,0-1.48-1.1c-4.44-1.08-8.85-.22-13.26.32-2.69,2.11-6.33,3.34-6.71,7.54-.14,1.56-.42,3.11-.64,4.67,1.49,1.63.84,3.64,1,5.5a76.21,76.21,0,0,1,.46,9.53c-.2,3.27.74,6.71-1.1,9.82a1.54,1.54,0,0,0,0,1.31c1,1.47.58,3.1.65,4.66.19,4.14.37,8.28.47,12.43a12.21,12.21,0,0,1-.32,3.78,14.38,14.38,0,0,0-.13,6.62,42.56,42.56,0,0,1,.45,6.67c0,3.82-.32,7.64-.46,11.47-.25,7.18-.57,14.37-.7,21.56a75.61,75.61,0,0,0,.39,12.42,111.86,111.86,0,0,1,.82,16.24c0,7.52,0,15,0,22.54,0,2.21-.41,4.48.58,6.63a2.24,2.24,0,0,1,0,1.35c-1,4-.22,8,0,11.93a11.92,11.92,0,0,0,.79,4.7c1.07,2.1,1.14,4.23,1.37,6.44a8.74,8.74,0,0,0,1.4,3.45C234.18,222.29,235.31,223.6,236.63,225.36ZM209,212.71c2.29-.65,3.79-.94,4-2.86.07-.48-.41-1-.63-1.53-.4.19-.95.27-1.17.59C210.55,209.89,210,211,209,212.71Zm-3.24,5.48v4.39C206.75,220.54,207.45,219.42,205.74,218.19Zm68.17,5a7.84,7.84,0,0,0,1.27.66c.07,0,.47-.54.41-.74a3.51,3.51,0,0,0-.7-1Z"/>
        <path d="M344.67,246.75c-1.23-1.38-3-.75-4.54-1.24-.53-1.11-1.05-2.22-1.64-3.45-2.78,1.89-2.14,5-3.14,7.72L332,248.61c-.71-2.78,2.32-2.89,2.88-4.91l-3.43-.34c.54-1.77,2.68-3.23,1-5.22l-3.51.7c-1-1.9.17-4.75-2.88-5.23a4.72,4.72,0,0,0-2.42,5.07c.77.64,1.75,1.42,2.69,2.25.59.52,1.36,1,1.58,1.7a4.42,4.42,0,0,1-.08,2.67c-.29.76-1.81.37-2.79-.65-1.4-1.46-1.4-1.46-4.07-2.15a23.72,23.72,0,0,0-2.05-3.1c-3.12-3.53-4.27-7.78-4.73-12.3-.29-2.87-.59-5.73-.84-8.6a9.77,9.77,0,0,1,0-2.86,33.77,33.77,0,0,0-.15-13.25,51.84,51.84,0,0,1-.57-7.16,7.53,7.53,0,0,1,.59-2.74c.55-1.58.81-3.06-.33-4.52-.25-.33-.48-1-.31-1.29,1.22-2,.18-4.06.17-6.08,0-1.56-.46-3.09.72-4.57.86-1.08.23-2.47-.14-3.69a6.29,6.29,0,0,1,.16-4.12c.6-1.71.36-3.72.49-5.72,1.37-.81,2.83-.15,4.19-.34s2.83-.29,4.24-.43a5.57,5.57,0,0,1,.75,1.36c.2,1,.51,1.85,1.74,1.87a1.83,1.83,0,0,1,2.07,1.55c.28,1.54,1.45,1.41,2.59,1.42s1.68-.84,2-1.75a4.25,4.25,0,0,0,.27-2.28c-.35-1.22.08-1.83.76-2.86.91-1.35,1-3.28,1.35-4.77-.64-1.39-1.17-2.54-1.67-3.64l1.81-3.36c-.26-.52-.3-.73-.41-.79-1.64-.8-3.36-1.23-5.06-.32-1.41.76-1.71,2-1.57,3.67.19,2.16-.3,4.33,0,6.55a3.41,3.41,0,0,1-2.13,3.93c-1.08-1.47.18-3-.11-4.72a21.41,21.41,0,0,1-3.06-.82c-1.13-.48-1-1.44-.52-2.58l3.67-.69c-.13-.4-.13-.8-.3-.89-2.06-1.19-4.15-2.32-6.52-3.63a3.16,3.16,0,0,0-1.3,3.94,5.65,5.65,0,0,1,.16,4.06c-.29,1.13.14,2.44.24,3.57-.81.69-1.38.32-1.61-.28a11.91,11.91,0,0,1-.62-2.78c-.32-2.68-.43-5.31-1.88-7.82-.68-1.18,0-3.09-.18-4.64s-2.09-2.44-1.9-4.25c.06-.63-.21-1.4.06-1.89,1.27-2.31.62-4.61.18-6.93a11.55,11.55,0,0,1,0-2,10.61,10.61,0,0,0,1.2-.73c1.56-1.19,1.64-2.05.33-3.43-.22-.22-.57-.32-.79-.54-1.05-1.09-1-1.31.76-3.16a9.59,9.59,0,0,1-1.32-2.83c-.12-1,.48-2.14.63-3.23.35-2.36.72-4.73.87-7.12s.3-4.67-2.64-5.2a7.74,7.74,0,0,1,1.33-4.91c1.18-1.77,1.07-1.85-.6-3.43-1.4-1.31-1.49-2.3.13-3.24a3.18,3.18,0,0,0,1.63-2.68c.23-1.7.67-3.1,2.77-3.26,1.48-.12.88-1.92,1.83-2.53,1.7-.09.91,1.8,1.85,2.32.3.09.64.33.89.25a14.26,14.26,0,0,1,8.74-.19c.68.22,1.5-1.08,1.08-1.69-1-1.41-2-2.81-3.14-4.13a1.68,1.68,0,0,0-2.56-.19c-2.51,2.48-5.24,1.33-8,.7-1-1.92-3.2-1.84-4.78-2.6-.05-3.46,2.83-2.47,4.53-3.18.83-2.21-1.11-3.55-1.51-5.32,1.77-3.13,3.73-6,8.37-5.61a4.19,4.19,0,0,0,.9,1,1.38,1.38,0,0,0,1.26.14c1.6-1.38,2.22-3,1.07-5,1.11.07,2.26.21,2.7-1.9.24-.4-1.89-.55-.95-1.76.31,0,.61,0,.9.11,1.07.21,2-.06,2.2-1.18.16-.9-.53-1.43-1.47-1.33s-1.29-.68-1.68-1.33-1-1.25-1.89-.88a27.24,27.24,0,0,1-1.24,2.94c-1.24,2.17-1.33,2.22.75,3.58.8.53,1.15,1,.81,1.86l-3.55,1.15C320.57,58,320,56.19,320,53c0-1.43-.08-2.87-.22-4.3-.06-.67-1.34-1.18-1.95-.76-.33.23-.74.93-.62,1.12,2.38,3.84,1.14,8.07,1.38,12.14a8.29,8.29,0,0,1-.27,1.67c-2.22.43-3.91,1.73-4.62,5-1-2-1.29-3.61-2.21-4.22a3.44,3.44,0,0,1-1.6-3.15c-.12-2.06-.39-4.11-.49-6.17a17.08,17.08,0,0,1,.3-2.33c.11-1.11.51-2.33.19-3.29-1.18-3.47.55-5.45,3.09-7.07l6.16.58c1-2.3.12-4.35.74-6.32l-2.61-.79c-1.3-1.57,1.16-2,1-3.23-1.24-1-2.41.49-3.9,0A7.36,7.36,0,0,1,313,26.6a10,10,0,0,1,1.81-.37,13.5,13.5,0,0,1,2,.25,14.46,14.46,0,0,0-.8,1.41c-.48,1.26-.18,1.89,1,2a18.18,18.18,0,0,0,2.48-.13,16.94,16.94,0,0,0,.22-7.34l-2.53.13-.95-2.36c-4-.59-7.35-2-6-7.47,3.23-.89,6.3.65,9.43.64,3.42-2.34,7.23-4.35,7.22-9.31,3.88-1,6.86.33,9.79,2,.78,1.88.41,3.82.4,5.71,0,5.6-.1,11.19,1.43,16.67a14.58,14.58,0,0,1,.27,3.81c0,5-.05,9.91,0,14.87q.35,25.17.79,50.35c0,1.09.35,2.18.46,3.28a16.74,16.74,0,0,1,0,2.24,32.09,32.09,0,0,0-.23,3.78c.11,1.75.61,3.48.64,5.22,0,1.55-.53,3.09-.54,4.64,0,2.49.62,5-.22,7.47,2,5.1.62,10.42.92,15.63a38.16,38.16,0,0,1-.67,6.12c1.31,1.72,1.43,4.08,1.08,6.76-.43,3.26-1,6.67.58,9.87-.11,4.58,1,9.22-.71,13.73a2.94,2.94,0,0,0,0,2.24c.94,1.47.84,3,.85,4.63,0,3,0,6.07,0,9.11,0,2.7-.23,5.41.66,8.08a11.15,11.15,0,0,1,.14,3.33c0,4.8.08,9.6,0,14.4a14.63,14.63,0,0,0,1.46,6.86c1.13,2.35,2.68,3.8,5.48,3.73,7.88-.18,10.29-2.32,11.67-10.36a28.28,28.28,0,0,0,.16-4.79q-.13-26.38-.28-52.77a5.51,5.51,0,0,1,.06-1.91,9.56,9.56,0,0,0,.14-7,3.78,3.78,0,0,1,0-1.89c1.42-7,.82-14,.3-21-.7-9.41-1.5-18.81-1.18-28.26.19-5.59.25-11.2-1-16.72a4.93,4.93,0,0,1,.28-2.29c.85-2.81,1.08-5.58-.25-8.33-.21-.42-.46-1-.29-1.37,1.1-2.12.43-4.25.3-6.41a50.67,50.67,0,0,1,.37-6.13,3.13,3.13,0,0,0,.08-.95c-1.21-4.06-.61-8.24-.69-12.36,0-1.78-1.69-3.11-1.08-5a32.43,32.43,0,0,0,1-4.67,23.35,23.35,0,0,0,.12-3.35q0-12,.05-24V4.63c1.34-1.44,2.69-1,3.9-.92,7.51.34,15,.76,22.52,1.15.63,0,1.27,0,1.91,0,1.55,0,2.3.89,2.72,2.53l-2.58,2.79c.17,4.62.06,9.41,1.14,14.13a3.2,3.2,0,0,1,.2,1.37c-1.3,4.89-.31,9.86-.57,14.78a30.62,30.62,0,0,0,.33,3.8,15.46,15.46,0,0,1,.14,4.28c-1.09,4.94,0,9.85-.08,14.77,0,1.59.18,3.19.18,4.78,0,10.88,0,21.75,0,32.63,0,1.7-.31,3.43,1.06,5,.61.69.5,2.12.51,3.21,0,6.23,0,12.47,0,18.71,0,1.89-.25,3.81.8,5.62a5,5,0,0,1,.26,2.35c0,3.68,0,7.35,0,11a4.1,4.1,0,0,1-.38,2.31c-1.58,2.08-1.09,4.24-.51,6.42A8.69,8.69,0,0,1,391,159c-.48,3.75-.85,7.53.35,11.34a10.39,10.39,0,0,1-.09,5.61c-.57,1.94-.91,3.67.07,5.5a2.56,2.56,0,0,1-.24,2.7,15.46,15.46,0,0,0-1.5,2.43c-.24.65-.34,1.82,0,2.16,1.28,1.14,1.19,2.56,1.2,4,0,5.76.12,11.52-1.19,17.19-.25,1.1-.5,2.08.44,3.11a3.39,3.39,0,0,1,.53,2.22c-.06,1.73-.42,3.46-.43,5.2a13.67,13.67,0,0,1-.72,4.44c-.84,2.52-.84,5.31-1.16,7.8-1.06,1.77-3.57,2.12-3.53,4.53,0,.48-3.73,3.46-4.45,3.95a8.1,8.1,0,0,0-2.18,1.72,15.34,15.34,0,0,1-10.05,6.61,8.71,8.71,0,0,0-2.41,1.33c-.68.39-1.34,1.11-2,1.14-3.36.13-6.46,1.35-9.68,2A16.44,16.44,0,0,1,341.38,251a17.55,17.55,0,0,1,2.21-1.89c1-.62,1-1.52,1-2.49L348.2,248a9.29,9.29,0,0,1,1.78-2.22,1.47,1.47,0,0,0,.44-2.35,1.91,1.91,0,0,0-2.44-.78A4.59,4.59,0,0,0,344.67,246.75ZM326,89.68a11.09,11.09,0,0,0-2.24-.44c-.9,0-1.41.45-.77,1.37.2,0,.35.13.45.09.86-.34,1.71-.7,2.57-1,0,1.33-1.3,2.66.22,4.23.24-.62.64-1.14.58-1.6A15.32,15.32,0,0,0,326,89.68Zm-2,54.7c.85.66,1.43,1.74,2.79,1.59a5.21,5.21,0,0,0,3.75-1.85,15.63,15.63,0,0,0,1.51-2.43c.49-.94,2.11-1.06,1.8-2.56l-2.51-2.28,2.78-2.85c-1.07-3.6-2.11-7.09-3.17-10.57,0-.14-.22-.22-.57-.54l-2.87.35c-.44,2.93-.43,2.92,1.26,4.18.57.43,1.1.92,1.64,1.38-.29.37-.37.56-.49.61-1.23.48-2.47-1.32-3.57-.17a15.33,15.33,0,0,0-2,3.19c-.37.66-.67,1.37-1.11,2.27,2.68,1.46,3.62,4,4.93,6.35a1.27,1.27,0,0,1-1,1.78c-1.24.22-2.64,0-3.13,1.65a6.42,6.42,0,0,0-.69.58c-1.27,1.4-1.07,1.93,1.2,2.51C324.35,146.43,324.16,145.4,324,144.38Zm8.54,70.24c.1-.1.27-.19.29-.31.33-2.07-.06-4.43,2.6-5.48.56-.22.15-1.83-.56-1.94-2.12-.34-4-1.89-6.2-1.65a6.93,6.93,0,0,0-.86,1.35c-.72,2.54-1.39,5.09-2.11,7.75C329.17,213.66,329.17,213.66,332.5,214.62Zm-13-98.12-.48,3.19,4.18.92c-.39-3.79-.76-7.39-1.14-11-3,.26-3,.27-3.5,2.18-.3,1-.77,2-1.13,3.06a2.68,2.68,0,0,0,0,.8Zm11.91-11.44a12.67,12.67,0,0,0-5.69-.12,25.36,25.36,0,0,1-4.93.07c-.61,3.52,2.39,1.65,3.33,2.69.48,3.69.65,3.86,3.68,3.58C328.6,107.82,328.6,107.82,331.44,105.06Zm-3,83c2-.3,2.32,2.22,4.48,2.18a17.26,17.26,0,0,0,.3-2.4c-.06-1.72-.23-3.43-.35-5.11C329,182.76,328.57,183.23,328.46,188.07Zm1.14,41.36a9.34,9.34,0,0,0,.07-5.63,3.11,3.11,0,0,0-3.62.59,1.6,1.6,0,0,0-.43,1.27c.22,1.38.38,2.93,1.7,3.72C327.88,229.71,328.8,229.43,329.6,229.43Zm2.73-57.7v7.91c1-.21,1.76-.34,2.48-.52.09,0,.13-.23.28-.52-.36-1.85-.69-3.86-1.19-5.82C333.8,172.4,333.05,172.19,332.33,171.73Zm-12,10.75c.17,1.58.3,2.94,1.82,2.63a3.14,3.14,0,0,0,2.64-3.49,10.86,10.86,0,0,0-2,0A19.72,19.72,0,0,0,320.31,182.48Zm63.54,8.09c-1.5-.35-2.82-.52-3.8.88-.45.65-.87,1.32.38,2.27C381.46,192.76,384,193.66,383.85,190.57Zm-65-21.15c1.26.73,1.65,2.44,3.33,3.32a10.17,10.17,0,0,0,.21-2.17c-.09-.7-.2-1.68-.66-2C320.79,168,319.65,167.83,318.82,169.42ZM322,206c.67-1.2,1.07-2.21.19-3.16a1.45,1.45,0,0,0-1.2-.36,1.3,1.3,0,0,0-.78.94A2.32,2.32,0,0,0,322,206Zm1.85-6.38a3.92,3.92,0,0,0,2.94,2.11,1,1,0,0,0,.79-.34,1,1,0,0,0,.07-.85C326.84,198.84,325.57,198.85,323.83,199.6Zm3.09-130.28a11.06,11.06,0,0,0-2.19-.85c-.63-.1-1,.78-.73,1.41a1.36,1.36,0,0,0,1.94.75C326.28,70.49,326.46,70,326.92,69.32Zm-5.81,106c-.72,1.54-1.36,2.43-.47,3.5a1.4,1.4,0,0,0,1.19.42c.31-.1.74-.74.66-1A24.29,24.29,0,0,0,321.11,175.35Zm5.06-59.52c.3-.45.48-.61.45-.71-.13-.55-.17-1.35-.53-1.55s-1.13.07-1.72.14a15.29,15.29,0,0,0,.82,1.49C325.35,115.42,325.69,115.53,326.17,115.83Zm2.77,102.29c.63-.75,1-1,1.14-1.39.24-.59.27-1.31-.55-1.43a1.21,1.21,0,0,0-.95.75A7.28,7.28,0,0,0,328.94,218.12ZM319.36,69.7c-.1-.45-.08-.68-.17-.73a10.29,10.29,0,0,0-1.54-.81c-.11,0-.37.35-.56.54.47.36.94.72,1.43,1C318.62,69.82,318.81,69.74,319.36,69.7Zm3,23.54a4.31,4.31,0,0,0-.86-.89c-.13-.08-.49.22-.75.35a6.09,6.09,0,0,0,.71,1C321.48,93.77,321.9,93.46,322.32,93.24Zm10.53,18.92a6.14,6.14,0,0,0-1.06-.47c-.07,0-.43.62-.36.69a4.43,4.43,0,0,0,.92.64ZM325.07,27c-.21-.44-.27-.8-.45-.87a1,1,0,0,0-.82.12c-.12.08,0,.7,0,.71A6.13,6.13,0,0,0,325.07,27ZM354,240.31l-.13-.39c-.1,0-.27.07-.28.12a1.1,1.1,0,0,0,.09.38Zm-34.63-29.88,0,.3.33-.14ZM380.13,174l.1.38.6-.34c-.11-.08-.21-.24-.32-.24S380.25,173.92,380.13,174Z"/>
        <path d="M20.51,69.18c-1.65-3.36-2.13-6.31-.07-9.37.88-1.31,1.42-3,.38-4.53-1.16-1.66-.54-3,.32-4.4.58-1,1.12-1.91,1.67-2.87-1.65-2.17.43-3.86.72-5.79s.15-4.18.57-6.2a90.58,90.58,0,0,0,1.7-12.69,19.38,19.38,0,0,0,.11-2.84,15.89,15.89,0,0,1,.4-5.65c.56-2.11.33-4.41.46-6.8C30.94,5.52,35.22,4.21,40,5.88a3.57,3.57,0,0,0,2.19,0,8,8,0,0,1,8.5,2.82c2.36,2.66,3.44,5.12,2.49,8.55a9.07,9.07,0,0,0,0,3.33c.64,6.2,1.11,12.43,2.11,18.57a87.79,87.79,0,0,1,1.28,11.4,4.86,4.86,0,0,0,.38,2.34A8.46,8.46,0,0,1,58,59.35a1.14,1.14,0,0,0,.15.9c1.77,1.87,1.13,4.21,1.26,6.37.28,4.46.48,8.93.74,13.39a5.3,5.3,0,0,0,.36,2.33c1.22,1.92.93,4,1,6.06,0,.48-.14,1.1.1,1.41,1.93,2.5.88,5.64,1.77,8.25,1.76,5.17.61,10.45,1.25,15.63.36,3-.26,6.09,1.65,8.8a4.09,4.09,0,0,1,.22,2.34,35.51,35.51,0,0,0,1.36,10.89c.69,2.78.93,5.67,1.38,8.51a1.32,1.32,0,0,1,0,.48C68.57,147.32,74,149,70.42,152c.18,2.7.27,5.4.54,8.09q1.61,16.23,3.3,32.45c.52,4.92,1,9.86,1.65,14.77.24,1.88.82,3.71,1.23,5.56a16.52,16.52,0,0,1,.49,2.3c.2,2.33-.22,4.72,1.64,6.76.59.65.27,2.15.29,3.27a38.64,38.64,0,0,0,.85,8.53c1.08,4.37.19,8.84-.17,13.27-4.58.9-8.76,1.91-13,2.48-5,.67-9.81-.76-14.68-2.19a35.06,35.06,0,0,1-1.74-9.86,3.15,3.15,0,0,1,.41-1.81c1.51-2.39.25-3.84-1.6-5.15a2.85,2.85,0,0,1-.38-.51c.27-2.4.65-4.91.79-7.44.17-2.85-1.44-4.17-4.16-3.58-1.25.27-2.46.76-3.72.91a10.71,10.71,0,0,1-3.79-.08c-3.38-.87-3.35-1-6.2.45-1.15,8.92-.88,18.2-2.59,27.47H.65c-1-1.78-.61-3.56-.46-5.25a127.58,127.58,0,0,1,4-24.09,19.15,19.15,0,0,0,.63-4.71c.09-3.68-.16-7.37.08-11A86,86,0,0,1,6.4,189.8a89.69,89.69,0,0,0,2.13-16.12A13.86,13.86,0,0,1,10,166.87l3.51-1.29L11,161.05c1.58-1.86,3,.35,4.83-.21l.64-2.56c-1.52-1.5-2.51-.25-3.83.21-.73-2.06-1.45-4.12-2.27-6.46,2.07-2.65,2.23-5.95,2.3-9.34.1-4.13.54-8.25.74-12.38.06-1.24-.29-2.51-.28-3.76a11.4,11.4,0,0,1,.56-2.36l3.13.34.71-2.24c.83-1.25,3.39-.11,3.62-2.64l-5.87-3.38a4.57,4.57,0,0,1-.21-3.83,20.85,20.85,0,0,0,1-4.15c.71-6.68,1.59-13.35,1.87-20.05.16-4,1.05-7.85,1.59-11.77.13-.94.55-2.15.15-2.78C18.5,71.88,19.61,70.69,20.51,69.18Zm25.15,60.09c-5.68.66-5.82.79-6.22,5-.06.64-.06,1.28-.14,1.91-.94,7.77-1.68,15.56-2.9,23.28a65.48,65.48,0,0,0-.85,11.42c.08,5.25.71,10.52-1,15.68-.37,1.1-.39,2.85,1,3.37,1.91.71,2,2.72,3.11,4l6.13-1.78c0-1.37-.06-2.61,0-3.85.12-2,2.56-1,3-2,0-4.13-.09-7.8,0-11.46.09-2.72.23-5.36-1.52-7.73a4.16,4.16,0,0,1-.43-2.31,5,5,0,0,0-1.25-3.49c-1.07-1.2-.87-2.66-.18-4,.35-.71.79-1.38,1.28-2.21-1.5-1.89-2-4.36-.89-6.23,1.74-3,.76-5.53-.11-8.23-.44-1.37-1.11-2.65-1.59-4a4.54,4.54,0,0,1,.65-4.53C44.3,131.46,44.74,130.68,45.66,129.27ZM13.79,167.71c-.25,2.32-.81,4.26,1.41,5,1.64.53,3.08-.14,3.65-2.23Z"/>
        <path d="M679.46,247l-11.32,2.23a20.22,20.22,0,0,1-8.09-.1c-2.5-.53-5-1.12-7.64-1.71-1.8-3.34-1.45-7.1-2-10.67a.64.64,0,0,1,.11-.46c.84-1,1.58-2.24,1-3.49a16.3,16.3,0,0,0-2.52-3c.27-2.56.56-5.25.85-7.93a2.8,2.8,0,0,0-2-2.95,4.13,4.13,0,0,0-2.29-.08c-1.41.25-2.78.75-4.19,1-2.42.4-2.6.3-5.48-1.59l-4.23,1.67c-1.22,9.23-1,18.37-2.51,27.57-3,.09-5.64.23-8.32.23-2.4,0-4.79-.14-7.18-.22l-1,0c-1.61-.08-2.49-1.85-4.36-1.67-1.5.15-3.07-.44-5-.78-1,.25-1.14,2.3-2.67,2.45-.34-.34-.7-.53-.71-.75-.36-5.62.54-11.16,1.41-16.68.59-3.77,1.69-7.47,2.46-11.22a34,34,0,0,0,.75-5.66c.14-4.48.1-9,.17-13.43a47.84,47.84,0,0,1,1.72-11.84,39.2,39.2,0,0,0,1.41-9.45c.07-2.4.34-4.79.59-7.17.28-2.62.42-5.39,3.81-5.08,1.18-2.57-1.29-3.43-1.57-5.4a6,6,0,0,1,1.77-.26,24.26,24.26,0,0,1,2.89.85c.35-1.2.64-2.2.88-3-1.4-1.71-2.86-.28-4.17-.57l-2-5.46a4.47,4.47,0,0,1,4.54-3.91,13.16,13.16,0,0,0,2.87-.84c.3-2.12.64-4.14.84-6.18a27.2,27.2,0,0,1-.09-2.84,8.84,8.84,0,0,1,1.34-2.33c-2.25-1.28-5.11-.2-6.94-2.75a5.51,5.51,0,0,1,1.5-.8c1.9-.26,3.83-.32,5.39-1.67-.4-1.84-1.34-2.91-3.28-2.86a6.92,6.92,0,0,1-1.44-.06c-1.2-.21-2.19-1.31-1.91-2.28a1.59,1.59,0,0,1,2.23-1.16,4.2,4.2,0,0,0,1.16-.07c.57-1.54,1.31-3.07,3.46-3.11.45,0,.89-.76,1.47-1.31-1.91-2-4.51-2.56-6.59-4.26V112.4l4.42,1.15c.9-1.88,3.23-3,3.07-5.55a25.06,25.06,0,0,0-.95-5.13,37.34,37.34,0,0,0-1.75-4.11l4.44-2.87a5,5,0,0,0,.08-4.93,74.61,74.61,0,0,1-2.55-8.13,2.55,2.55,0,0,1,.64-.52c.88-.35,2-.5,1.75-1.83-.19-1.1-1.21-.71-1.9-.94s-1.14-1.45-.45-1.9c1.38-.9,2.15-1.87,1.31-3.84l-3.67-1c-.92-2,1.4-2.45,1.48-3.85-2-2.79-2.64-5.54-.6-8.74,1.05-1.65,2.08-3.7.23-5.73a2.05,2.05,0,0,1-.12-1.76,18,18,0,0,1,1.61-2.91c.69-1.09,1.48-2.09.49-3.46a1.49,1.49,0,0,1,.06-1.36c1.27-2,1-4.33,1.3-6.52.74-5,2.12-9.9,2-15a29.94,29.94,0,0,0,.11-3.27,12.19,12.19,0,0,1,.28-5.12c.57-2.09.32-4.41.44-6.81,4.29-2.69,8.68-4,13.55-2a1.94,1.94,0,0,0,1.68,0c3.15-1.17,5.92-.63,8.06,2.18.77,1,1.64,1.94,3,3.47a22.65,22.65,0,0,1,.13,5.8,48.63,48.63,0,0,0,.46,8.59c.44,4.46.74,9,1.61,13.32a57.46,57.46,0,0,1,1,11.38,1.52,1.52,0,0,0,0,.48,40.06,40.06,0,0,1,1.73,4.89c.38,1.65-.49,3.49.77,5.08a3.36,3.36,0,0,1,.46,1.81c.29,4.94.57,9.88.8,14.82.1,2.07-.2,4.19,1.09,6,.18.26.4.64.33.89-1.05,3.75,1.71,7,1.5,10.59a11.55,11.55,0,0,0,1.17,6,9.18,9.18,0,0,1,.45,3.74c.1,4.3.1,8.61.21,12.92,0,.94,0,2.19.53,2.73,1.47,1.47,1.32,3.2,1.24,4.91a37.22,37.22,0,0,0,1.15,10c.75,3.26,1.12,6.61,1.73,9.91a3.12,3.12,0,0,0,.94,2c1.26.77,1.47,2,.82,2.81-1.18,1.47-1,3-.82,4.54.79,8.12,1.51,16.24,2.37,24.34,1,9.86,2.17,19.7,3.33,29.55.4,3.45,1.84,6.73,1.7,10.27,2.14,3.13,1.54,6.7,1.63,10.16a5.91,5.91,0,0,0,.21,1.89C681.2,236.51,680.09,241.7,679.46,247ZM637.82,144c-.16,2.34-.27,3.56-.31,4.79-.11,3.35-.16,6.71-.3,10.06a4.51,4.51,0,0,1-1.59,3.8c-.59.45-.74,1.68-.79,2.58q-.26,5-.3,10.06-.07,8.85,0,17.72a17.56,17.56,0,0,0,.57,3.07c5.84,1,10.75.16,14.57-2.32a20.27,20.27,0,0,0-1.18-9.72,15.54,15.54,0,0,1-1.16-5q-.6-11.48-1.19-22.95C645.85,150.74,642.56,147.52,637.82,144Zm-24,23.84c-1.68,1.61-.61,3.14-.25,4.78,2.36.57,4.12.34,5.06-2.15Z"/>
        <path d="M712.29,77.07l-3.52,1.34c-1.62-3.57-1.17-7.09-1.07-10.52A5.62,5.62,0,0,1,710.05,63a7.61,7.61,0,0,1,1,1.91,33,33,0,0,0,.95,4.75c.07-1.92.2-3.83.21-5.75,0-6.88-.05-13.76,0-20.64.07-6.07.32-12.15.42-18.22,0-1.92-.09-3.84-.24-5.74a15.43,15.43,0,0,0-.64-2.48c-1.85.9-.58,2.94-2.11,3.89l-2.35-.55c-.19-.45-.45-.76-.4-1,.36-2,.79-4.08,1.26-6.41,3.39-.26,5.77-2.38,8-4.8a9,9,0,0,1,3.16-2.05C725.92,3.3,732.76,3,739.68,3.52c.47,0,1.12,0,1.39.29,2.14,2.26,5,1.55,7.6,2a4.7,4.7,0,0,1,2.23.63c2.36,2.1,5.31,2.72,7.52,3.28,1.9,2.14,3.16,4.05,4.86,5.39C767,18,768.68,22,769.68,26.4c.11.46,0,1.1.26,1.39,2.12,2.22,1.55,5,1.84,7.66a48.16,48.16,0,0,0,.79,5.21c.57,2.47,1.5,4.87.32,7.44a3.55,3.55,0,0,0,0,1.89c.2,1.25.93,2.58.67,3.7-1.44,6.27.16,12.82-1.86,19a7.31,7.31,0,0,1-.39.83,60.66,60.66,0,0,1-14.5,3.38c-.62.06-1.47.14-1.86-.2-2.25-1.95-5.08-1.6-7.69-2.15-.94-.19-1.85-.49-2.69-.72-1.11-1.35-.68-2.84-.67-4.23.06-7,.1-14.08.3-21.12a39.45,39.45,0,0,0-2.46-14.55c-.79-2.18-2.45-4-3.68-6-3.9-.59-7.43-.79-10.92,1a4.17,4.17,0,0,0-2.56,2.56C723.25,35.9,721.65,40.23,722,45c.25,3.67.08,7.36,0,11a14.34,14.34,0,0,1-1,6c-.79,1.75-.33,4.07-.41,6.14-.1,2.72-.11,5.43,1.51,7.8,1.22,1.77.92,3.73.62,5.58-1.12,6.84-.65,13.72-.73,20.59,0,3.79,0,3.79,2.12,7.36a35.06,35.06,0,0,0-1,5.18c-.14,3.83,0,7.68-.07,11.51,0,2.23-.46,4.45-.41,6.67s.63,4.44-.47,6.59a1.72,1.72,0,0,0,.15,1.37c1,2,.74,4.06.74,6.12q0,12.24,0,24.48a64.19,64.19,0,0,0,1.28,14.3,10.5,10.5,0,0,1,0,3.79A181.32,181.32,0,0,0,723,214a15.42,15.42,0,0,0,2.4,8.64c3.23,5.05,8.32,4.71,12,2.08a8.91,8.91,0,0,0,3.94-5.71,54.8,54.8,0,0,0,1.34-10.9c0-4.1-.74-8.29,1-12.3a7.54,7.54,0,0,0,.11-2.86c0-4.64,0-9.28,0-13.92,0-1.89-.17-3.76,1-5.55.53-.84.33-2.16.41-3.26s0-1.93.06-2.88c.16-1.79.94-2.48,2.81-2.54.8,0,1.6.07,2.4.1,5.31.14,10.42,1.45,15.58,2.57,5.81,1.27,8,6,7.6,10.61-.24,3.15-.91,6.32-.71,9.44a20.08,20.08,0,0,1-.94,7.4,16,16,0,0,0-.23,5.71c.29,4.46.81,8.92,1.11,13.38.12,1.86.6,3.87-1,5.46-.1.1-.11.3-.15.45-.6,2.39.32,5-1.65,7.26-1.47,1.72-2,4.28-2.87,6.47a9.19,9.19,0,0,0-.39,1.27c-2.12,1.75-3.86,3.11-5.53,4.57-1.37,1.21-2,3.35-4.27,3.47-.24,0-.55.36-.68.63-1.37,2.73-4,3.48-6.62,4.29a75,75,0,0,1-24.11,3.47c-4.68-.12-9.23-.84-12.94-4.18.1-.95.21-1.86.3-2.7-.37-.25-.61-.55-.86-.56-2.08-.09-4.16-.26-6.23-.16a5.47,5.47,0,0,1-5.23-2.66c-1.74-2.67-3.61-5.26-5.27-8a7,7,0,0,1-.49-2.76q-.37-3.08-.69-6.17c-.37-3.65-1-7.31-1-11-.1-6.4.13-12.8.19-19.2.09-8.47.31-16.95.18-25.43-.48-29.59-1.09-59.18-1.62-88.78,0-1.83-.32-3.72.28-5.44,2-.14,1.13,1.93,2.54,2.15a14.41,14.41,0,0,1,.72-2.43c.42-.85,1.17-1.53,1.58-2.38.93-1.89,2.48-2.32,4.71-2.08.11,3,.43,6,.27,9a16.41,16.41,0,0,0,.93,6.58,6,6,0,0,1-.31,5.51c-1.35,2.24-.39,4.68-.72,6.88,1.68.89,2.18-.61,3.13-.93a14.27,14.27,0,0,1,3.63-.59,31.44,31.44,0,0,1,3.51.2C713.11,90.09,711.92,83.74,712.29,77.07Zm.38,122.17c.34-.31.74-.49.76-.71a80.81,80.81,0,0,0,1-9c.09-16.6,0-33.2,0-49.8a13.06,13.06,0,0,0,0-2.87c-1.11-4.9-.42-9.85-.53-14.78-.12-5.58-.41-11.15-.66-16.73,0-.6-.13-1.29-1.16-1.12a3.5,3.5,0,0,0-.53,1.16c-.38,4.45-.78,8.9-1,13.35-.11,2.05-.13,4.16,1.31,6a2.32,2.32,0,0,1,.4,1.8c-.84,3.2-1.61,6.38-.33,9.65a6.54,6.54,0,0,0-.17,6c1.12,2.3-.69,4.35-.23,6.53.07.31.27.59.32.89a24.47,24.47,0,0,1,.45,3.27c.07,2.24,0,4.47,0,6.71s-.15,4.77-.24,7.16c-1.82,2.12.1,4.22,0,6.33,0,.47-.31.93-.33,1.39a5.22,5.22,0,0,0,.13,2.28c1.15,2.43,1,5,.88,7.51-.2,3.18-.47,6.37-.71,9.55C711.86,195.6,711.7,197.46,712.67,199.24Zm-4.36,22.83c1.71-1.92,2.54-2.92,1.64-4.55a6.81,6.81,0,0,1-.22-6.43,10.94,10.94,0,0,0,.86-5.55c0-1.88.42-3.83-.62-5.8l-3.09-1a56.25,56.25,0,0,0-.57,11.2,8.62,8.62,0,0,0,.4,3.31C707.85,215.72,708.23,218.35,708.31,222.07ZM707,154.42c-1.59,5.14-1.59,5.14.22,12.46a1.78,1.78,0,0,0,1.9-1.69,19.67,19.67,0,0,0-.92-9.41C708,155.37,707.56,155.08,707,154.42Zm-.35,79.13c0,1.55-.07,3,0,4.38.07,1.17,1,1.73,2.45,1.48a5.3,5.3,0,0,0,1.32-.72c.24-2,.61-4.05-.42-6.2ZM707,103.28c-1.9,2.1-2.36,4.15-1.5,6.43a1.66,1.66,0,0,0,2.47,1C708.35,108.31,709.68,105.75,707,103.28Z"/>
        <path d="M820.92,113.73l16.81-1.89c1.73-.19,3.47-.72,5.17.14.15.07.35.23.43.19,2.74-1.49,5.16.11,7.9.81,1,3.36.23,6.89.44,10.35a55.7,55.7,0,0,1-.31,10.74,16.5,16.5,0,0,1-2.85.4q-5.75-.24-11.49-.64a49.53,49.53,0,0,0-13.86.49,31.87,31.87,0,0,0-3.09,1,7.26,7.26,0,0,0-.41,1.56q-.06,9.82,0,19.67a6.2,6.2,0,0,0,.4,2.34c.47,1.12.07,2.1,0,3.18a48.58,48.58,0,0,0,.21,7.62,19,19,0,0,1-.18,4.19,38.46,38.46,0,0,0,.12,8.09c.14,1.89.44,3.66-.25,5.63-.55,1.56-.21,3.47-.11,5.22.15,2.87.42,5.74.65,8.61a6.82,6.82,0,0,1-.75,4.58,6.14,6.14,0,0,0-.44,3.69,45.78,45.78,0,0,0,1.09,5.65c.51,2.25.6,4.35-.73,6.45-.83,1.31-.13,2.48,1.33,2.83.78.19,1.74.68,2.32.4,2.17-1,4,.33,6,.49,1.63.13,3.2,1.34,4.89.05a1.81,1.81,0,0,1,1.4-.05,16.18,16.18,0,0,0,8.3.73c2,1,4.08.52,6.13.62a28.44,28.44,0,0,1,8.17,1.13,19.72,19.72,0,0,1-3.05,13.7c2.22,2.21,2.22,2.21,1.81,5.41a10.86,10.86,0,0,1-2.13.41q-21.59,0-43.18,0a7.12,7.12,0,0,1-2.82-.37,7.09,7.09,0,0,0-6,.06,8.53,8.53,0,0,1-8.7-.79c-.92-1.76.37-4.12-1.26-5.84a.94.94,0,0,1,0-.86c1.4-2,.81-4.34.83-6.53.06-7.2-.12-14.4.06-21.59.21-8.3-.18-16.58-.06-24.87s.22-16.63.09-24.95c-.08-5.75-.51-11.49-.87-17.23a34.67,34.67,0,0,1,.49-10.39,22.86,22.86,0,0,0-.25-11.37,4.88,4.88,0,0,1-.34-1.85c.84-6.16-.75-12.41.72-18.55a5.24,5.24,0,0,0,.09-2.85c-.79-2.1-.47-4.28-.8-6.36s.26-4.06,0-6.1,0-4.44,0-6.66c0-1.42-.25-2.84-.25-4.27q.06-26.63.18-53.26c0-4.15.33-8.33-1.31-12.3-.7-1.68-.05-3.12,1-4.74a24.76,24.76,0,0,1,3.08-.37c4.16-.05,8.32,0,12.48,0a9.93,9.93,0,0,0,3.33-.18c3.35-1.28,6.24-.19,9.3,1.47,1.69-.85,3.54-1.95,5.65-.68.39.23,1.08.49,1.34.31,2.29-1.59,5-.48,7.43-1.28a7.55,7.55,0,0,1,3.76-.31,14.55,14.55,0,0,0,5.18.08c1.81-.25,2.26.39,2.18,2.6,0,.3,0,.6,0,1.19l3.07,1.16c.22.94.45,2,.7,3.09l3-.15c.3.91.59,1.79.92,2.77l3.23,1.25v9.86c-1.33,1.22-2.84.87-4.23.88-9.44,0-18.87.06-28.31.08H820a24.74,24.74,0,0,0-.84,11c.14,1.26.33,2.52.37,3.79.13,5.73-.12,11.45.21,17.19s.06,11.51,0,17.27-.27,11.51-.31,17.27c0,4,0,8,.23,12C819.84,108.42,820.43,110.74,820.92,113.73ZM854.2,232.44l-7-1.92a2.36,2.36,0,0,0-3.09,1.47c1.29,5.26,1.61,6,3.7,8.55,1.21-1.27.08-3.19,1.24-4.39,1.74-.09,1.74-.09,3.18,1.51Zm-16-215.89c.8-.49,1.42-.67,1.67-1.08.51-.84-.3-2.24,1.25-2.87l4.34,2.47.78-1.44-5.81-4.69c-1.3.16-2.16.77-2.21,2.07C838.11,12.7,838.16,14.39,838.16,16.55ZM840.7,238v-6.61l-2.38.13a19.57,19.57,0,0,0,.11,6.83Z"/>
        <path d="M432.43,49.29a1.15,1.15,0,0,0,2,.27,7.93,7.93,0,0,0,1.11-2.1c-2.2-1.25-4.35-.24-6.64-.88a7.22,7.22,0,0,1-2.7-5.55C426,39,426,36.88,425.9,34.8c-.06-1.41-.12-2.82-.19-4.5a34.17,34.17,0,0,0-3.4-.39c-5.76,0-11.52,0-17.28,0-1.58,0-3.17-.05-4.66-.08-.95-3.61-1.05-17.06-.2-21.92a21.59,21.59,0,0,1,2.65-.32q34.55-.57,69.1-1.1c1.44,0,2.89,0,4.32,0A3.1,3.1,0,0,1,479.3,9c.46,6.53,1,13.08-1.24,19.43-.05.14-.21.24-.51.56-3.54,1-7.39.45-11.19.49s-7.34,0-11.17,0c-1.08,1.1-2.43,2.28-1.31,4.28-.81,1.88-.32,3.62.36,5.43a8.76,8.76,0,0,1,.1,2.86V116a9.35,9.35,0,0,1,0,1.91c-.29,1.37-1,2.73-1,4.07s.8,2.74,1.24,4.11c.05.15,0,.32.08.47.42,1.8-2.45,2.81-1.17,4.78s-.8,3.25-.61,5a7.52,7.52,0,0,1-1.27,5.28c-1.27.06-2.69.11-4.11.19-1.24.06-2.48.15-3.8.23a3.92,3.92,0,0,0,4.4,2.35,10.32,10.32,0,0,1,1.81-.53,2.7,2.7,0,0,1,3,2.45,2.78,2.78,0,0,1-2.82,3.1c-1.84.19-2.48-1-3.23-2.38-2.37.18-4.1,1.51-5.8,3s-1.8,1.51-4.88,2.34c.15-3.13.46-6.23-.79-9.31-1.39-.84-2.61-.46-3.64.82a2.4,2.4,0,0,0,.11,3.11,8.82,8.82,0,0,1,1.9,4.71c.41,3.68,1.69,4.64,5.6,5.28.46.08.91.23,1.61.4.31,2.62-1.62,4.75-1.71,7.6l3.95,2.55c.79-.76,1.62-1.46,2.32-2.26s1-1.79,1.72-2.28c1.84-1.23,2.37-2.85,2-5.12a15.18,15.18,0,0,1-2-.91,2.05,2.05,0,0,1-.68-2.57,2.51,2.51,0,0,1,1.57-1.51,10.15,10.15,0,0,1,3.76.29c1.65.45,2.23,1.49,2.2,3.23,0,.48-.06,1-.11,1.44a111.17,111.17,0,0,0,.19,27.28,76.81,76.81,0,0,1,.13,10.07,4.22,4.22,0,0,1-.42,2.3,2.92,2.92,0,0,0-.22,3.1c.92,2.43,1.31,4.88-.37,7.28a4.29,4.29,0,0,0,0,4.17c1.21,2.93,1,5.94.91,9-.18,5-.37,9.91-.4,14.87,0,3.67-.07,7.35,1.43,10.86a5.38,5.38,0,0,1-.75,5.19,37,37,0,0,1-10.27,1.38c-2.81,0-5.75.92-8.36-.93-3.25.12-6.62-1.06-9.72.89-.22.13-.62,0-1.18-.06a5.26,5.26,0,0,1-.81-5.23,17,17,0,0,0,1-7.06c-.08-4.64-.24-9.28-.35-13.91-.08-3.36-.2-6.72-.19-10.08q.07-25.92.22-51.84c0-1.91.23-3.83.35-5.74.16-2.52.81-5.07-.64-7.45.06-3.83,0-7.67.2-11.49.09-1.91.5-3.8.77-5.7.09-.64.44-1.33.28-1.89-1-3.5.08-6.92.22-10.37.1-2.53.18-5-1-7.47a4.2,4.2,0,0,1,.32-4.57c.89-1.11.71-2.41.75-3.67.21-7.84.48-15.67.59-23.51.05-3.67-.15-7.35-.39-11a39.88,39.88,0,0,1,0-7.87,17.4,17.4,0,0,1,7.55-.28c.89.11,1.64,1.27,2.72,2.18l3.24-3c0-1.13,0-2.39,0-3.65a6.43,6.43,0,0,0-4-6,3.84,3.84,0,0,0-.86-.43c-2.23-.47-2.4-2.16-2.38-4Zm14.34,80.61.18.7-.38,0c.11-.21.21-.42.32-.62a4.09,4.09,0,0,1-.69-1.18c-.2-1.06.09-2.39-1.11-3a8.72,8.72,0,0,0-3.14-.76,2.51,2.51,0,0,0-2.43,3.56,3.94,3.94,0,0,0,2.71,2.42Zm-14.7-10.75c.46-3,0-5.81,1-8.54.36-1-.3-2.47-.7-3.65a2.1,2.1,0,0,0-1.31-1.14c-.5-.14-1.13.18-1.61.28a6.13,6.13,0,0,0-.2,1.17c.11,1.8.83,3.36-.14,5.43C428,115.08,429.29,117.55,432.07,119.15ZM429.44,30c-1.19,5-1.19,5-.16,7.29,1.65-1.92,3.29-3.68,4.72-5.59.29-.38-.19-1.35-.33-2.15Zm4.66,53.27c-.39-.25-.92-.85-1.53-.93-1.43-.2-2.07.47-2.08,1.85s.52,2,1.45,2C433.24,86.27,434.07,85.29,434.1,83.28Zm1.79-5.92a7.66,7.66,0,0,0-4.11-3.29c-.52-.21-1.33.48-1.19,1.08a3.14,3.14,0,0,0,.7,1.65A4,4,0,0,0,435.89,77.36ZM433.38,91.6c-2.71-.35-4.09.22-4.1,1.92l2.88,1.32Zm8.82,98.19c-.6-1-.32-2.58-2.24-2.23-.14,1-.28,2.05-.5,3.68Zm-2.87-45.69c-.13,1.41.48,2,1.51,2.19a1,1,0,0,0,1.32-.92c.16-.69-.05-1.3-.77-1.4A9.44,9.44,0,0,0,439.33,144.1Zm6.88-23.37a3.64,3.64,0,0,0-1.1-.24c-.14,0-.24.48-.36.74a7.47,7.47,0,0,0,1.09.39A5,5,0,0,0,446.21,120.73Z"/>
        <path d="M541.86,89.82c.35-.23,1-.46,1-.7,0-2.5.77-5.06-.61-7.5a3.72,3.72,0,0,1-.06-2.25c.13-.77.62-1.48.76-2.24.47-2.67,0-4.64-1.84-7.67l.9-1,.68-.74q-.88-2.1-1.83-4.29c.27-.59.39-1.41.84-1.7,1.31-.85,1.33-2.06,1.33-3.36q0-14.16,0-28.31c0-1.89-.08-3.61-2.21-3.73-.64-2.55.34-5-1.72-6.73a1.07,1.07,0,0,1-.2-.89c.54-2.63-.18-5.48,1.53-8.11.82-.11,1.74-.23,2.66-.38a12.08,12.08,0,0,0,3.23-.6c2.93-1.37,5.53-1,7.82,1.2.35-.27.61-.44.84-.65,1.86-1.71,1.88-1.71,3.17.66.14.26.44.43.9.85l1.76-2.63,3.94,2c.37-.63.74-1.26,1.08-1.86,9.77.9,19.49.24,29.2.46,1.72,0,3.5-.29,5,.41,1.18,1.63.71,3.28.75,4.83s-.12,3.15-.2,4.83a3.56,3.56,0,0,1,2,3.32c-.09,2.53.54,5.08-.42,7.83a23.82,23.82,0,0,1-3.16.46c-6.56,0-13.12,0-19.68,0a6.81,6.81,0,0,1-4-1c-1.22-.78-3-.66-4.82-1L569,26c-.42,2.91-.29,5.07-2,6.54-.49,3-1,6-1.44,9a36.62,36.62,0,0,0,0,3.78c-.07,2.57-.08,2.57,1.67,5.39a9.47,9.47,0,0,0-1.66,6.66c.09.61.07,1.47.46,1.78,1.77,1.43,1.56,3.41,1.61,5.27.25,10.38.43,20.77.62,31.15,0,2.88,0,5.76,0,8.64a8.17,8.17,0,0,1-.27,3.31,4.09,4.09,0,0,0,.14,4,2.82,2.82,0,0,1,.12.94c.58,4.46.59,4.53,4.82,4.54,2.86,0,5.74.29,8.58-.57a7.27,7.27,0,0,1,2.77.13c1.25.15,2.49.42,3.74.56,1.53.16,3.13-.34,4.41,1.21.37.44,1.73.06,2.88.06.74,4.84,1.44,9.52,2.17,14.31a10.09,10.09,0,0,0,1.39.09c1.8-.12,1.8-.13,1.47,2.18h-2l-2.14,2.9a3.53,3.53,0,0,1-1,.38c-6.38-.22-12.77-.47-19.16-.69-1.75-.06-3.5,0-5.59,0-.85,1.49-1.82,3.08-2.69,4.73a2.78,2.78,0,0,0-.47,1.8c1.09,3.27-.63,6.61.35,9.87a6.39,6.39,0,0,1-.16,2.28c-.11,1.09-.69,2.43-.26,3.22,1,1.9.51,3.69.34,5.57-.19,2.23-.27,4.47-.34,6.7a4.35,4.35,0,0,0,.25,2.34c1.64,2.35.93,4.94,1,7.45,0,1.59,0,3.19-.1,4.78,0,.95.2,2.09-.25,2.8-1.45,2.32-.82,4.6-.32,7a26.66,26.66,0,0,1,.7,4.23q.53,9.81.9,19.63c.26,6.71.46,13.42.67,20.12,0,1.26,0,2.53,0,3.65-4.54,2.15-19.69,3.13-27.89,1.88a13,13,0,0,1-.5-2.61c0-16.32-.07-32.64,0-48.95,0-11.83.24-23.66.36-35.5,0-1.75,0-3.47-1-5.09a3.17,3.17,0,0,1-.38-2.71c1.48-2.29.81-4.63.49-6.93a11.76,11.76,0,0,1,.26-5.1,14.94,14.94,0,0,0,.44-6.17c-.58-4-.18-8-.22-11.94,0-1.73.14-3.44-.83-5.12-.48-.84-.23-2.18-.12-3.27.17-1.74.51-3.46.75-5.07l-2.53-3a19,19,0,0,0,2.59-3.5c1-2.41,2.36-4.84.34-7.57-.52-.7,0-2.17,0-3.28Zm31.32,39.83c1.57,1.39,2.1,3.38,4.44,3.95a22.41,22.41,0,0,0,.33-7.2c0-.26-.37-.47-.59-.73h-2.89C574.06,126.93,573.69,128.09,573.18,129.65ZM559.27,234.91c-1.57.77-1.56,2.08-2.84,2.47s-1.09,1.91-.64,2.9a2.93,2.93,0,0,0,1.87,1.18,1.33,1.33,0,0,0,1.57-1.38C559.34,238.51,559.27,236.92,559.27,234.91Zm8.1-9.3v15.18a121.25,121.25,0,0,0,.89-13.58C568.26,227,568,226.68,567.37,225.61Zm-12.24-89.54c2.37-.92,3-1.73,2.31-3.22a1.79,1.79,0,0,0-1.37-.9,1.58,1.58,0,0,0-1.19,1A16.91,16.91,0,0,0,555.13,136.07Z"/>
        <path d="M432.47,49.18a4.81,4.81,0,0,0-2.18,4,6,6,0,0,1-3.39,5.51,3,3,0,0,1-1.38-3.21,17.11,17.11,0,0,1,2-7.11,4,4,0,0,1,4.94.94S432.47,49.18,432.47,49.18Z"/>
        <path d="M310.07,5.1h6c.44,1.22.92,2.51,1.38,3.77-.36.23-.6.49-.87.53-1.25.2-2.52.27-3.76.49-2.43.44-3.53-.45-3.39-2.93A7.77,7.77,0,0,1,310.07,5.1Z"/>
        <path d="M708.2,36.4,710,39.61c-.6.49-1.4.85-1.6.06-.63-2.61-1-5.27-1.53-7.91-.06-.3-.1-.75.06-.92,1.88-2,.61-4.66,1.54-6.82.13-.29.75-.46,1.16-.52.2,0,.47.31.67.53a.65.65,0,0,1,.16.43c0,3,.25,6.06,0,9.06C710.37,34.49,709.05,35.36,708.2,36.4Z"/>
        <path d="M710.53,56.56c-.83-.55-1.43-.72-1.51-1a31.79,31.79,0,0,1-.69-11.29c0-.33.69-.92.86-.86.48.18,1.21.61,1.25,1A107,107,0,0,1,710.53,56.56Z"/>
        <path d="M852.72,9.35c-3.63-1.27-3.82-1.47-3.65-4.29a22.86,22.86,0,0,1,3.7,1.88A1.49,1.49,0,0,1,852.72,9.35Z"/>
        <path d="M704.88,82.7c2,0,3.18-2,5.33-1.22C707.25,84.64,707.25,84.64,704.88,82.7Z"/>
        <path d="M310.81,31.42l1,2.7-3.26,1.08C308.09,32.93,308.09,32.93,310.81,31.42Z"/>
        <path d="M340.09,251.48h-2.72c-.05-1.19-.1-2.24-.16-3.39a4.36,4.36,0,0,1,1.53,0C339.91,248.68,340.11,249.77,340.09,251.48Z"/>
        <path d="M709.56,90.31c-.5-.55-.86-.75-.87-1-.06-1,0-2.11,0-3.16C711.59,86.68,711.8,87.51,709.56,90.31Z"/>
        <path d="M541.11,34.74c.32.36,1,.8,1.19,1.39a1.52,1.52,0,0,1-1.65,2.08,1.77,1.77,0,0,1-1.26-1A1.84,1.84,0,0,1,541.11,34.74Z"/>
        <path d="M616.32,144.05c-2-.48-2.86-1.12-2.51-2.67.19-.81.78-1.44,1.65-1.18a1.86,1.86,0,0,1,1,1.25A12.07,12.07,0,0,1,616.32,144.05Z"/>
        <path d="M702.07,29.82a11.33,11.33,0,0,1-.28-2.16c0-.33.45-.7.79-.9.13-.08.72.24.73.39a10.49,10.49,0,0,1-.12,2.24C703.16,29.53,702.66,29.6,702.07,29.82Z"/>
        <path d="M691.62,49.29c.28.09.78.12.82.29a5.27,5.27,0,0,1,.2,1.72c0,.12-.55.37-.78.31-.73-.18-1-1.09-.55-2A1.79,1.79,0,0,1,691.62,49.29Z"/>
        <path d="M693.72,63.38a6,6,0,0,1-.83.47,7.27,7.27,0,0,1-.62-1c.22-.13.56-.41.65-.35A5.75,5.75,0,0,1,693.72,63.38Z"/>
        <path d="M619.16,83.66c-.29.33-.43.65-.66.72-.59.2-1.22-.62-.92-1.19.11-.21.58-.46.71-.39A4.72,4.72,0,0,1,619.16,83.66Z"/>
        <ellipse cx="686.85" cy="66.62" rx="0.41" ry="1.59"/>
        <path d="M630.08.32c-.13.25-.2.58-.4.7A.7.7,0,0,1,629,.76c0-.23.15-.5.24-.76Z"/>
        <path d="M542,89.74a2.86,2.86,0,0,1-.9.29c-.17,0-.34-.29-.51-.45.14,0,.3-.15.41-.11.3.09.58.25.89.37Z"/>
        <path d="M710,60.14l.11.36-.47.1a.92.92,0,0,1,.09-.37C709.79,60.17,709.93,60.17,710,60.14Z"/>
        <path d="M704.51,34.36l-.3.26a5,5,0,0,1-.34-.65,1.91,1.91,0,0,1,.32-.21C704.3,34,704.41,34.16,704.51,34.36Z"/>
        <path d="M311.89,22l-.35.64c-.09-.1-.27-.24-.25-.3a4,4,0,0,1,.34-.65Z"/>
        <path d="M30.52.58,30,1a4.82,4.82,0,0,1-.27-.72c0-.05.29-.24.32-.21A3.21,3.21,0,0,1,30.52.58Z"/>
        <path d="M128.7,118.91a16.3,16.3,0,0,1-2-8.33c-.06-5.91,0-11.82.08-17.73a38.6,38.6,0,0,0-.59-8.57,28.21,28.21,0,0,1-.27-7.63,207.43,207.43,0,0,0-.09-23c-.26-6.38-.16-12.78-.14-19.17a15.42,15.42,0,0,1,1.55-7.31,51.57,51.57,0,0,1,12.17-.05,7.7,7.7,0,0,1,6,4.17c1.68,2.92,2.59,5.67,1.78,9.07a12.11,12.11,0,0,0,.37,8c.58,1.29.12,3.11-.08,4.67s-.53,3,.27,4.63c.52,1.06.32,2.51.32,3.78,0,14.22,0,28.44,0,42.66,0,2.7-.4,5.41-.64,8.11a6,6,0,0,1-4.17,5.33,17.12,17.12,0,0,1-4,1.39A39.5,39.5,0,0,1,128.7,118.91Z" style="fill: #fff"/>
        <path d="M129.9,227.45c-.15-1.23-.34-2.3-.4-3.38-.26-4.46-.56-8.92-.68-13.39-.07-2.86.11-5.72.25-8.58.13-2.68.94-5.36-.19-8a2.4,2.4,0,0,1,.07-1.42c.88-3.5.17-6.93-.12-10.43-.52-6.35-.68-12.75-.7-19.13,0-6,.34-12.1.54-18.32,5.37-2,10.42-.2,15.79.61.9,1.8,1.68,3.68,2.73,5.4a9.09,9.09,0,0,1,.93,4.59c.29,5.72,1.07,11.41.8,17.15a2.83,2.83,0,0,0,.39,1.83c1.55,1.75,1.29,3.87,1.37,5.91a70,70,0,0,1-1.23,14.29,26.07,26.07,0,0,0-.53,5.2,123.25,123.25,0,0,1-.85,16.19,10.62,10.62,0,0,1-2.06,5.17c-.35.5-.88,1-.91,1.6-.12,2.17-1.65,2.95-3.31,3.64C138,227.93,134.1,228,129.9,227.45Z" style="fill: #fff"/>
        <path d="M162.64,223.17c1.55,2.26,1.46,2.63-1.19,6.72.26-1.68.4-2.67.57-3.66S162.43,224.19,162.64,223.17Z" style="fill: #fff"/>
        <path d="M236.63,225.36c-1.32-1.76-2.45-3.07-3.35-4.53a8.74,8.74,0,0,1-1.4-3.45c-.23-2.21-.3-4.34-1.37-6.44a11.92,11.92,0,0,1-.79-4.7c-.2-4-.94-8,0-11.93a2.24,2.24,0,0,0,0-1.35c-1-2.15-.56-4.42-.58-6.63,0-7.51,0-15,0-22.54a111.86,111.86,0,0,0-.82-16.24,75.61,75.61,0,0,1-.39-12.42c.13-7.19.45-14.38.7-21.56.14-3.83.41-7.65.46-11.47a42.56,42.56,0,0,0-.45-6.67,14.38,14.38,0,0,1,.13-6.62,12.21,12.21,0,0,0,.32-3.78c-.1-4.15-.28-8.29-.47-12.43-.07-1.56.36-3.19-.65-4.66a1.54,1.54,0,0,1,0-1.31c1.84-3.11.9-6.55,1.1-9.82a76.21,76.21,0,0,0-.46-9.53c-.12-1.86.53-3.87-1-5.5.22-1.56.5-3.11.64-4.67.38-4.2,4-5.43,6.71-7.54,4.41-.54,8.82-1.4,13.26-.32a2.61,2.61,0,0,1,1.48,1.1c1.48,2.64,3,5.3,4.22,8a8.79,8.79,0,0,1,.28,3.31q.53,29.73,1,59.46c.31,16.93.61,33.87,1,50.81a197.78,197.78,0,0,0,1.14,20.09,32,32,0,0,1-.29,11.79,14.29,14.29,0,0,0-.07,3.34c0,5.11,0,10.22,0,15.32,0,1.58,0,3.12-1.2,4.49a4.59,4.59,0,0,0-.57,2.72c-.07,2.87-.07,5.75,0,8.63,0,2.73-1.23,4.36-3.71,5.5C246.75,226.1,241.76,226.26,236.63,225.36Z" style="fill: #fff"/>
        <path d="M209,212.71c1-1.76,1.57-2.82,2.24-3.8.22-.32.77-.4,1.17-.59.22.51.7,1.05.63,1.53C212.77,211.77,211.27,212.06,209,212.71Z" style="fill: #fff"/>
        <path d="M205.74,218.19c1.71,1.23,1,2.35,0,4.39Z" style="fill: #fff"/>
        <path d="M273.91,223.18c.42-.46.7-.75,1-1.05a3.51,3.51,0,0,1,.7,1c.06.2-.34.76-.41.74A7.84,7.84,0,0,1,273.91,223.18Z" style="fill: #fff"/>
        <path d="M324,144.45c.51-1.61,1.91-1.4,3.15-1.62a1.27,1.27,0,0,0,1-1.78c-1.31-2.31-2.25-4.89-4.93-6.35.44-.9.74-1.61,1.11-2.27a15.33,15.33,0,0,1,2-3.19c1.1-1.15,2.34.65,3.57.17.12,0,.2-.24.49-.61-.54-.46-1.07-1-1.64-1.38-1.69-1.26-1.7-1.25-1.26-4.18l2.87-.35c.35.32.53.4.57.54,1.06,3.48,2.1,7,3.17,10.57l-2.78,2.85,2.51,2.28c.31,1.5-1.31,1.62-1.8,2.56a15.63,15.63,0,0,1-1.51,2.43,5.21,5.21,0,0,1-3.75,1.85c-1.36.15-1.94-.93-2.79-1.59Z" style="fill: #fff"/>
        <path d="M332.5,214.62c-3.33-1-3.33-1-6.84-.28.72-2.66,1.39-5.21,2.11-7.75a6.93,6.93,0,0,1,.86-1.35c2.23-.24,4.08,1.31,6.2,1.65.71.11,1.12,1.72.56,1.94-2.66,1-2.27,3.41-2.6,5.48C332.77,214.43,332.6,214.52,332.5,214.62Zm-1.41-5.06-.41-.78c-.16.24-.42.49-.43.74s.24.51.38.77Z" style="fill: #fff"/>
        <path d="M319.53,116.5l-2.08-.84a2.68,2.68,0,0,1,0-.8c.36-1,.83-2,1.13-3.06.54-1.91.5-1.92,3.5-2.18.38,3.6.75,7.2,1.14,11l-4.18-.92Z" style="fill: #fff"/>
        <path d="M331.44,105.06c-2.84,2.76-2.84,2.76-3.61,6.22-3,.28-3.2.11-3.68-3.58-.94-1-3.94.83-3.33-2.69a25.36,25.36,0,0,0,4.93-.07A12.67,12.67,0,0,1,331.44,105.06Z" style="fill: #fff"/>
        <path d="M326.18,60.3c.34-.89,0-1.33-.81-1.86-2.08-1.36-2-1.41-.75-3.58a27.24,27.24,0,0,0,1.24-2.94c.92-.37,1.45.16,1.89.88s.64,1.44,1.68,1.33,1.63.43,1.47,1.33c-.2,1.12-1.13,1.39-2.2,1.18-.29-.06-.59-.07-.9-.11-.94,1.21,1.19,1.36.95,1.76-.44,2.11-1.59,2-2.7,1.9Z" style="fill: #fff"/>
        <path d="M328.46,188.07c.11-4.84.54-5.31,4.43-5.33.12,1.68.29,3.39.35,5.11a17.26,17.26,0,0,1-.3,2.4C330.78,190.29,330.43,187.77,328.46,188.07Z" style="fill: #fff"/>
        <path d="M329.6,229.43c-.8,0-1.72.28-2.28-.05-1.32-.79-1.48-2.34-1.7-3.72a1.6,1.6,0,0,1,.43-1.27,3.11,3.11,0,0,1,3.62-.59A9.34,9.34,0,0,1,329.6,229.43Z" style="fill: #fff"/>
        <path d="M344.67,246.75a4.59,4.59,0,0,1,3.31-4.1,1.91,1.91,0,0,1,2.44.78,1.47,1.47,0,0,1-.44,2.35A9.29,9.29,0,0,0,348.2,248l-3.65-1.38Z" style="fill: #fff"/>
        <path d="M332.33,171.73c.72.46,1.47.67,1.57,1.05.5,2,.83,4,1.19,5.82-.15.29-.19.5-.28.52-.72.18-1.45.31-2.48.52Z" style="fill: #fff"/>
        <path d="M320.31,182.48a19.72,19.72,0,0,1,2.45-.83,10.86,10.86,0,0,1,2,0,3.14,3.14,0,0,1-2.64,3.49C320.61,185.42,320.48,184.06,320.31,182.48Z" style="fill: #fff"/>
        <path d="M383.85,190.57c.18,3.09-2.39,2.19-3.42,3.15-1.25-.95-.83-1.62-.38-2.27C381,190.05,382.35,190.22,383.85,190.57Z" style="fill: #fff"/>
        <path d="M318.82,169.42c.83-1.59,2-1.47,2.88-.85.46.32.57,1.3.66,2a10.17,10.17,0,0,1-.21,2.17C320.47,171.86,320.08,170.15,318.82,169.42Z" style="fill: #fff"/>
        <path d="M322,206a2.32,2.32,0,0,1-1.79-2.58,1.3,1.3,0,0,1,.78-.94,1.45,1.45,0,0,1,1.2.36C323.05,203.77,322.65,204.78,322,206Z" style="fill: #fff"/>
        <path d="M323.83,199.6c1.74-.75,3-.76,3.8.92a1,1,0,0,1-.07.85,1,1,0,0,1-.79.34A3.92,3.92,0,0,1,323.83,199.6Z" style="fill: #fff"/>
        <path d="M326.92,69.32c-.46.65-.64,1.17-1,1.31a1.36,1.36,0,0,1-1.94-.75c-.3-.63.1-1.51.73-1.41A11.06,11.06,0,0,1,326.92,69.32Z" style="fill: #fff"/>
        <path d="M321.11,175.35a24.29,24.29,0,0,1,1.38,2.91c.08.27-.35.91-.66,1a1.4,1.4,0,0,1-1.19-.42C319.75,177.78,320.39,176.89,321.11,175.35Z" style="fill: #fff"/>
        <path d="M326.17,115.83c-.48-.3-.82-.41-1-.63a15.29,15.29,0,0,1-.82-1.49c.59-.07,1.3-.37,1.72-.14s.4,1,.53,1.55C326.65,115.22,326.47,115.38,326.17,115.83Z" style="fill: #fff"/>
        <path d="M326,89.67a15.71,15.71,0,0,1,.81,2.61c.06.46-.34,1-.58,1.6-1.52-1.57-.25-2.9-.22-4.23Z" style="fill: #fff"/>
        <path d="M328.94,218.12a7.28,7.28,0,0,1-.36-2.07,1.21,1.21,0,0,1,.95-.75c.82.12.79.84.55,1.43C329.94,217.1,329.57,217.37,328.94,218.12Z" style="fill: #fff"/>
        <path d="M324,144.38c.2,1,.39,2.05.61,3.19-2.27-.58-2.47-1.11-1.2-2.51.2-.22.46-.39.68-.6Z" style="fill: #fff"/>
        <path d="M319.36,69.7c-.55,0-.74.12-.84,0-.49-.33-1-.69-1.43-1,.19-.19.45-.58.56-.54a10.29,10.29,0,0,1,1.54.81C319.28,69,319.26,69.25,319.36,69.7Z" style="fill: #fff"/>
        <path d="M326,89.65c-.86.35-1.71.71-2.57,1-.1,0-.25,0-.45-.09-.64-.92-.13-1.37.77-1.37a11.09,11.09,0,0,1,2.24.44A.1.1,0,0,1,326,89.65Z" style="fill: #fff"/>
        <path d="M322.32,93.24c-.42.22-.84.53-.9.47a6.09,6.09,0,0,1-.71-1c.26-.13.62-.43.75-.35A4.31,4.31,0,0,1,322.32,93.24Z" style="fill: #fff"/>
        <path d="M332.85,112.16l-.5.86a4.43,4.43,0,0,1-.92-.64c-.07-.07.29-.71.36-.69A6.14,6.14,0,0,1,332.85,112.16Z" style="fill: #fff"/>
        <path d="M325.07,27a6.13,6.13,0,0,1-1.24,0c-.07,0-.15-.63,0-.71a1,1,0,0,1,.82-.12C324.8,26.18,324.86,26.54,325.07,27Z" style="fill: #fff"/>
        <path d="M354,240.31l-.32.11a1.1,1.1,0,0,1-.09-.38s.18-.08.28-.12Z" style="fill: #fff"/>
        <polygon points="319.37 210.43 319.68 210.59 319.35 210.73 319.37 210.43" style="fill: #fff"/>
        <path d="M380.13,174c.12-.07.25-.2.38-.2s.21.16.32.24l-.6.34Z" style="fill: #fff"/>
        <path d="M45.66,129.27c-.92,1.41-1.36,2.19-1.91,2.9a4.54,4.54,0,0,0-.65,4.53c.48,1.35,1.15,2.63,1.59,4,.87,2.7,1.85,5.26.11,8.23-1.1,1.87-.61,4.34.89,6.23-.49.83-.93,1.5-1.28,2.21-.69,1.37-.89,2.83.18,4a5,5,0,0,1,1.25,3.49,4.16,4.16,0,0,0,.43,2.31c1.75,2.37,1.61,5,1.52,7.73-.12,3.66,0,7.33,0,11.46-.4.94-2.84,0-3,2-.07,1.24,0,2.48,0,3.85L38.66,194c-1.13-1.31-1.2-3.32-3.11-4-1.42-.52-1.4-2.27-1-3.37,1.74-5.16,1.11-10.43,1-15.68a65.48,65.48,0,0,1,.85-11.42c1.22-7.72,2-15.51,2.9-23.28.08-.63.08-1.27.14-1.91C39.84,130.06,40,129.93,45.66,129.27Zm-5,60.41c.13-.11.33-.19.33-.28,0-.56,0-1.12-.11-1.68,0,0-.2-.05-.31-.08-.07.57-.16,1.13-.2,1.7C40.37,189.45,40.57,189.57,40.67,189.68Z" style="fill: #fff"/>
        <path d="M13.79,167.71l5.06,2.75c-.57,2.09-2,2.76-3.65,2.23C13,172,13.54,170,13.79,167.71Z" style="fill: #fff"/>
        <path d="M637.82,144c4.74,3.56,8,6.78,8.3,12.09q.58,11.47,1.19,22.95a15.54,15.54,0,0,0,1.16,5,20.27,20.27,0,0,1,1.18,9.72c-3.82,2.48-8.73,3.27-14.57,2.32a17.56,17.56,0,0,1-.57-3.07q-.06-8.86,0-17.72,0-5,.3-10.06c0-.9.2-2.13.79-2.58a4.51,4.51,0,0,0,1.59-3.8c.14-3.35.19-6.71.3-10.06C637.55,147.52,637.66,146.3,637.82,144Z" style="fill: #fff"/>
        <path d="M613.86,167.8l4.81,2.63c-.94,2.49-2.7,2.72-5.06,2.15C613.25,170.94,612.18,169.41,613.86,167.8Z" style="fill: #fff"/>
        <path d="M712.67,199.24c-1-1.78-.81-3.64-.68-5.49.24-3.18.51-6.37.71-9.55.17-2.55.27-5.08-.88-7.51a5.22,5.22,0,0,1-.13-2.28c0-.46.32-.92.33-1.39.07-2.11-1.85-4.21,0-6.33.09-2.39.2-4.78.24-7.16s.06-4.47,0-6.71a24.47,24.47,0,0,0-.45-3.27c0-.3-.25-.58-.32-.89-.46-2.18,1.35-4.23.23-6.53a6.54,6.54,0,0,1,.17-6c-1.28-3.27-.51-6.45.33-9.65a2.32,2.32,0,0,0-.4-1.8c-1.44-1.79-1.42-3.9-1.31-6,.24-4.45.64-8.9,1-13.35a3.5,3.5,0,0,1,.53-1.16c1-.17,1.14.52,1.16,1.12.25,5.58.54,11.15.66,16.73.11,4.93-.58,9.88.53,14.78a13.06,13.06,0,0,1,0,2.87c0,16.6.05,33.2,0,49.8a80.81,80.81,0,0,1-1,9C713.41,198.75,713,198.93,712.67,199.24Z" style="fill: #fff"/>
        <path d="M708.31,222.07c-.08-3.72-.46-6.35-1.6-8.84a8.62,8.62,0,0,1-.4-3.31,56.25,56.25,0,0,1,.57-11.2l3.09,1c1,2,.61,3.92.62,5.8a10.94,10.94,0,0,1-.86,5.55,6.81,6.81,0,0,0,.22,6.43C710.85,219.15,710,220.15,708.31,222.07Z" style="fill: #fff"/>
        <path d="M707,154.42c.6.66,1,1,1.2,1.36a19.67,19.67,0,0,1,.92,9.41,1.78,1.78,0,0,1-1.9,1.69C705.37,159.56,705.37,159.56,707,154.42Z" style="fill: #fff"/>
        <path d="M706.61,233.55l3.37-1.06c1,2.15.66,4.18.42,6.2a5.3,5.3,0,0,1-1.32.72c-1.44.25-2.38-.31-2.45-1.48C706.54,236.52,706.61,235.1,706.61,233.55Z" style="fill: #fff"/>
        <path d="M707,103.28c2.69,2.47,1.36,5,1,7.45a1.66,1.66,0,0,1-2.47-1C704.63,107.43,705.09,105.38,707,103.28Z" style="fill: #fff"/>
        <path d="M854.2,232.44l-2,5.22c-1.44-1.6-1.44-1.6-3.18-1.51-1.16,1.2,0,3.12-1.24,4.39-2.09-2.54-2.41-3.29-3.7-8.55a2.36,2.36,0,0,1,3.09-1.47Z" style="fill: #fff"/>
        <path d="M838.16,16.55c0-2.16,0-3.85,0-5.54.05-1.3.91-1.91,2.21-2.07l5.81,4.69-.78,1.44-4.34-2.47c-1.55.63-.74,2-1.25,2.87C839.58,15.88,839,16.06,838.16,16.55Z" style="fill: #fff"/>
        <path d="M840.7,238l-2.27.35a19.57,19.57,0,0,1-.11-6.83l2.38-.13Z" style="fill: #fff"/>
        <path d="M432.07,119.15c-2.78-1.6-4.06-4.07-2.95-6.45,1-2.07.25-3.63.14-5.43a6.13,6.13,0,0,1,.2-1.17c.48-.1,1.11-.42,1.61-.28a2.1,2.1,0,0,1,1.31,1.14c.4,1.18,1.06,2.64.7,3.65C432.09,113.34,432.53,116.2,432.07,119.15Z" style="fill: #fff"/>
        <path d="M446.78,129.9,442.23,131a3.94,3.94,0,0,1-2.71-2.42,2.51,2.51,0,0,1,2.43-3.56,8.72,8.72,0,0,1,3.14.76c1.2.56.91,1.89,1.11,3a4.09,4.09,0,0,0,.69,1.18Z" style="fill: #fff"/>
        <path d="M429.44,30l4.23-.45c.14.8.62,1.77.33,2.15-1.43,1.91-3.07,3.67-4.72,5.59C428.25,35,428.25,35,429.44,30Z" style="fill: #fff"/>
        <path d="M434.1,83.28c0,2-.86,3-2.16,3-.93,0-1.45-.76-1.45-2s.65-2,2.08-1.85C433.18,82.43,433.71,83,434.1,83.28Z" style="fill: #fff"/>
        <path d="M435.89,77.36a4,4,0,0,1-4.6-.56,3.14,3.14,0,0,1-.7-1.65c-.14-.6.67-1.29,1.19-1.08A7.66,7.66,0,0,1,435.89,77.36Z" style="fill: #fff"/>
        <path d="M433.38,91.6l-1.22,3.24-2.88-1.32C429.29,91.82,430.67,91.25,433.38,91.6Z" style="fill: #fff"/>
        <path d="M442.2,189.79l-2.74,1.45c.22-1.63.36-2.67.5-3.68C441.88,187.21,441.6,188.76,442.2,189.79Z" style="fill: #fff"/>
        <path d="M439.33,144.1a9.44,9.44,0,0,1,2.06-.13c.72.1.93.71.77,1.4a1,1,0,0,1-1.32.92C439.81,146.1,439.2,145.51,439.33,144.1Z" style="fill: #fff"/>
        <path d="M446.21,120.73a5,5,0,0,1-.37.89,7.47,7.47,0,0,1-1.09-.39c.12-.26.22-.72.36-.74A3.64,3.64,0,0,1,446.21,120.73Z" style="fill: #fff"/>
        <path d="M446.89,130c-.11.2-.21.41-.32.62l.38,0c-.06-.24-.12-.47-.17-.7Z" style="fill: #fff"/>
        <path d="M573.18,129.65c.51-1.56.88-2.72,1.29-4h2.89c.22.26.55.47.59.73a22.41,22.41,0,0,1-.33,7.2C575.28,133,574.75,131,573.18,129.65Z" style="fill: #fff"/>
        <path d="M559.27,234.91c0,2,.07,3.6,0,5.17a1.33,1.33,0,0,1-1.57,1.38,2.93,2.93,0,0,1-1.87-1.18c-.45-1-.63-2.51.64-2.9S557.7,235.68,559.27,234.91Z" style="fill: #fff"/>
        <path d="M567.37,225.61c.6,1.07.89,1.34.89,1.6a121.25,121.25,0,0,1-.89,13.58Z" style="fill: #fff"/>
        <path d="M555.13,136.07a16.91,16.91,0,0,1-.25-3.11,1.58,1.58,0,0,1,1.19-1,1.79,1.79,0,0,1,1.37.9C558.09,134.34,557.5,135.15,555.13,136.07Z" style="fill: #fff"/>
        <path d="M331.09,209.56l-.46.73c-.14-.26-.39-.52-.38-.77s.27-.5.43-.74C330.82,209,331,209.3,331.09,209.56Z"/>
        <path d="M40.67,189.68c-.1-.11-.3-.23-.29-.34,0-.57.13-1.13.2-1.7.11,0,.31,0,.31.08.06.56.1,1.12.11,1.68C41,189.49,40.8,189.57,40.67,189.68Z"/>
      </g>
    </g>
  </g>
</svg>
