<svg xmlns="http://www.w3.org/2000/svg" viewBox="0 0 858.49 372.08"><title>Asset 1</title><g id="Layer_2" data-name="Layer 2"><g id="AF-bw-flat_Image" data-name="AF-bw-flat Image"><path d="M100.22,249.26a47.51,47.51,0,0,1-1.34-5.16c-.36-2.65.07-5.41-1.64-7.85-.47-.66-.23-1.87-.19-2.82.25-6.07.15-12.18.94-18.19a70,70,0,0,0,.2-12.28,117.13,117.13,0,0,1,.59-12c.23-4,.73-7.93,0-11.93-.25-1.32.64-2.88.33-4.18-.83-3.55-.39-7.17-.92-10.75s-.11-7-.12-10.54c0-3.67.08-7.35,0-11-.09-3.31.23-6.59-.74-9.94-.63-2.16.14-4.74.33-7.13.17-2.21.59-4.36-.37-6.59a5,5,0,0,1,.15-3.69,7.18,7.18,0,0,0,.17-5.58,18.15,18.15,0,0,1-.11-9.94,7,7,0,0,0-.23-5.09c-.52-1-.25-2.51-.25-3.79,0-9.43,0-18.86,0-28.29,0-1.72.33-3.49-.86-5.09a3.77,3.77,0,0,1-.23-2.3,41.46,41.46,0,0,1,.57-4.28,18.14,18.14,0,0,0-.3-7.5,128.63,128.63,0,0,1-1.81-14.72c-.23-2.38-.13-4.79-.26-7.18a9.6,9.6,0,0,0-.55-2.76c-.91-2.44-.85-3.12.72-4.52a11.31,11.31,0,0,1,1.2-.79c.39-.26.77-.54,1-.7,1.46-2-1-3.33-.51-5.1s.84-3.4,1.29-5.24a11.39,11.39,0,0,1,6.84-1c2.14.32,4.43-.23,6.64-.45,1.27-.13,2.52-.53,3.78-.55C121,.27,127.51.25,134.05.18c2.24,0,4.49.7,6.59.62,2.54-.09,5.08.18,7.61,0a27.44,27.44,0,0,1,3,.15c1.2,2.53,3.31,3.59,6.09,3.68,1.74.06,3.54.32,4.71,1.94a1,1,0,0,0,.36.32,23.89,23.89,0,0,1,4.63,2.24c1.34,1,2.2,2.68,3.38,4a23.29,23.29,0,0,1,6,10.62,64.33,64.33,0,0,1,1.08,7.58,44.18,44.18,0,0,1,.16,5.75c-.35,12.65.72,25.24,1.38,37.85.54,10.24.58,20.48-1.51,30.57a64.36,64.36,0,0,1-3.16,10,20.05,20.05,0,0,1-3,4.86c-1.17,1.49-2.63,2.75-4.05,4.22a36.15,36.15,0,0,1,4,3.87c1.16,1.49,1.82,3.37,2.89,5s1.15,3.32,1.87,4.84c1.87,4,1.52,8.07,1.61,12.19a11.59,11.59,0,0,0,1.31,6,5.73,5.73,0,0,1,.55,2.75c.06,3.52,0,7,0,10.55a4.53,4.53,0,0,1-.33,2.33,3.61,3.61,0,0,0-.22,3.18,14.81,14.81,0,0,1,.44,3.31c0,1.06-.4,2.15-.28,3.18a11.92,11.92,0,0,0,1.19,2.82c-1.76,1.15-2.24,2.8-2.25,4.86a40.37,40.37,0,0,1-.88,6.14,6.64,6.64,0,0,1-3.22,4.29,3.42,3.42,0,0,0,.2.7c1,0,2.11,0,3.34,0a15.75,15.75,0,0,1,.63,2.77c.87,16.17-4.83,29.38-17.86,39.22a17.13,17.13,0,0,1-11.1,3.82,19.63,19.63,0,0,0-6.12.82c-1.89.56-4.1.11-6.17.06-2.35-.06-4.77-.73-6.94.8-5.86.82-11.7,1.8-17.63.53a11.88,11.88,0,0,0-6.6.17C104.24,249.26,102.41,249.08,100.22,249.26ZM128.7,115.58a39.5,39.5,0,0,0,10.53,0,17.12,17.12,0,0,0,4-1.39,6,6,0,0,0,4.17-5.34c.24-2.7.62-5.4.64-8.11.06-14.22,0-28.44,0-42.66,0-1.27.2-2.72-.32-3.77-.8-1.62-.47-3.06-.27-4.64s.66-3.37.08-4.67a12.08,12.08,0,0,1-.37-8c.81-3.41-.1-6.16-1.78-9.08a7.68,7.68,0,0,0-6-4.16,51.57,51.57,0,0,0-12.17,0,15.44,15.44,0,0,0-1.55,7.32c0,6.39-.12,12.78.14,19.16a207.43,207.43,0,0,1,.09,23A28.26,28.26,0,0,0,126.2,81a38.55,38.55,0,0,1,.59,8.56c-.07,5.91-.14,11.82-.08,17.73A16.3,16.3,0,0,0,128.7,115.58Zm1.2,108.54c4.2.52,8.11.48,11.89-1.09,1.66-.69,3.19-1.46,3.31-3.63,0-.56.56-1.1.91-1.61a10.62,10.62,0,0,0,2.06-5.17,123.25,123.25,0,0,0,.85-16.19,26.22,26.22,0,0,1,.53-5.2A69.83,69.83,0,0,0,150.68,177c-.08-2,.18-4.16-1.37-5.92a2.82,2.82,0,0,1-.39-1.83c.27-5.74-.51-11.43-.8-17.14a9.09,9.09,0,0,0-.93-4.59c-1.05-1.72-1.83-3.6-2.73-5.41-5.37-.81-10.42-2.61-15.79-.6-.2,6.21-.56,12.26-.54,18.32,0,6.37.18,12.77.7,19.12.29,3.5,1,6.94.12,10.44a2.37,2.37,0,0,0-.07,1.41c1.13,2.66.32,5.34.19,8-.14,2.86-.32,5.73-.25,8.59.12,4.46.42,8.92.68,13.38C129.56,221.82,129.75,222.9,129.9,224.12Zm32.74-4.27c-.21,1-.43,2-.62,3.05s-.31,2-.57,3.67C164.1,222.47,164.19,222.11,162.64,219.85Z"/><path d="M287.2,137.34c-1.3,1.64-1.95,2.8-1.92,4.37q.15,6.71,0,13.42c0,1.67.89,3,1.07,4.5.16,1.31-.93,2.71-1,4.09-.14,4.16-.08,8.32,0,12.48a7.69,7.69,0,0,0,.55,2.27c.15.43.74.89.66,1.21-.81,2.88.59,5.62.44,8.48-.24,4.47-.05,9-.07,13.43,0,1.61,0,3.07,1.31,4.41.6.64.4,2,.57,3.17l-3,.2a17.68,17.68,0,0,1-.39,5.73c-.58,1.92-.23,4.13-.23,6.2a5.9,5.9,0,0,1-1.76,4.7c-1,.95-1.44,2.46-2.09,3.74s-1.4,2.85-2.15,4.38c-3.05.11-4.81,1.95-6.8,3.94a27.07,27.07,0,0,1-7.87,5c-2.56,1.17-5.16,2.66-8.2,2.36-1.28-.12-2,.82-2.83,1.52a8.59,8.59,0,0,1-7.16,1.9c-3.3-.52-6.57-1.16-9.71-1.72l-1.05-2.37c-.36-.16-.65-.39-.93-.38a8.31,8.31,0,0,0-2.84.26c-3.21,1.35-6.26-.23-9.38-.34-1.68-1.43-3.9-1.73-5.75-2.88-2.56-1.59-5.06-3-6.61-5.85-.49-.9-2.13-1.16-3.42-1.79-.33-1.47-.78-3-1-4.56-.18-1.17-.43-2.1-1.68-2.62a2,2,0,0,1-1-1.46,4.51,4.51,0,0,0-2-4c.66-1.59,1.21-2.89,1.82-4.35L200,213.93c-.18-2.18,1.54-3,2.34-4.59-.64-1.11-1.33-2.32-2.08-3.64a8,8,0,0,1,.94-1c1.3-.94,1.79-2,1.21-3.05-.45-.82-1.19-1.5-1.6-2.34a2.71,2.71,0,0,1,1.55-3.89c.84-.33,1.86-.21,2.69-.55a9.54,9.54,0,0,0,2-1.66c-1.26-.63-2.2-1.06-3.1-1.55s-1.9-1.1-2.86-1.66c-.45-2.06-1.08-4-.31-6.13a4.78,4.78,0,0,0,.12-2.38,34.88,34.88,0,0,1-.89-3.63,17.77,17.77,0,0,1,.54-3.71c.23-1.3-.77-1.95-1.64-2.59a25.46,25.46,0,0,0,1.86-4.52,17.69,17.69,0,0,0,0-4.3c-.29-7.66.17-15.36-1.24-23a8.92,8.92,0,0,0-.77-6.81c.59-1.63,1.17-3.1,1.64-4.6.17-.57.35-1.5,0-1.8-1.44-1.5-.68-3.15-.67-4.8,0-2.36.51-4.77-.56-7.09a3.94,3.94,0,0,1,0-2.26c.4-1.9.73-3.66-.45-5.51-.52-.83-.31-2.17-.31-3.28,0-8.31,0-16.62,0-24.93,0-4.94-.23-9.88-.36-14.82a13.61,13.61,0,0,1-.07-1.91c1-8.61.17-17.25.45-25.86a18,18,0,0,1,.18-4.3A76.62,76.62,0,0,1,201.74,23c.71-1.66,1.31-3.43,3.24-4.46.89-.48,1.14-2.16,1.71-3.38a11.14,11.14,0,0,0,2.21-.91,5.92,5.92,0,0,1,5.45-.76c1.05.33,2.19.7,3.08-.78-.51-.55-1.42-1.1-1.53-1.78a10.4,10.4,0,0,1,.34-3.09c4.86-3.22,10.21-4.61,15.48-6A37.21,37.21,0,0,1,241.64.59a102.79,102.79,0,0,1,11.42,1.27c1.42.18,2.82.6,4.24.74s2.78.15,3.91,1.37A6.23,6.23,0,0,0,263.84,5c2.1.67,4.56,2.66,6.79,3.9,2.82,1.58,4.34,4.59,7.28,5.93a4,4,0,0,1,1.6,1.69,33.84,33.84,0,0,1,2.3,4.73,7.44,7.44,0,0,1,.43,3.27c-.3,3-.56,5.9,1.34,8.6.48.68.24,1.86.34,2.8.18,1.73.39,3.45.54,5.18a4.78,4.78,0,0,1-.12,1.77,5.88,5.88,0,0,0,.3,5.08,2.93,2.93,0,0,1,.34,1.37c0,2.56.19,5.13,0,7.68s.35,5,.23,7.54c-.25,5.56-.75,11.17.33,16.73a2.28,2.28,0,0,1,.08.93c-1.2,4.89-.41,9.86-.56,14.79-.07,2.35.41,4.71.37,7.06s-.44,4.74-.68,7.11a1.25,1.25,0,0,0,0,.47c1.41,6.69.09,13.4.24,20.1C285,133.81,284.72,136,287.2,137.34ZM236.63,222c5.13.9,10.12.74,15-1.5,2.48-1.14,3.76-2.76,3.71-5.5s0-5.75,0-8.63a4.56,4.56,0,0,1,.57-2.71c1.19-1.37,1.19-2.92,1.2-4.49,0-5.11,0-10.22,0-15.33a14.29,14.29,0,0,1,.07-3.34,31.93,31.93,0,0,0,.29-11.78,198,198,0,0,1-1.14-20.1c-.43-16.93-.73-33.87-1-50.81q-.54-29.73-1-59.45a8.82,8.82,0,0,0-.28-3.32c-1.26-2.75-2.74-5.4-4.22-8a2.53,2.53,0,0,0-1.48-1.1c-4.44-1.09-8.85-.23-13.26.31-2.69,2.11-6.33,3.35-6.71,7.54-.14,1.57-.42,3.12-.64,4.67,1.49,1.63.84,3.64,1,5.51a76,76,0,0,1,.46,9.52c-.2,3.27.74,6.71-1.1,9.83a1.52,1.52,0,0,0,0,1.3c1,1.47.58,3.1.65,4.66.19,4.14.37,8.29.47,12.43a12.21,12.21,0,0,1-.32,3.78,14.43,14.43,0,0,0-.13,6.63,42.35,42.35,0,0,1,.45,6.66c0,3.82-.32,7.65-.46,11.47-.25,7.19-.57,14.37-.7,21.56a75.7,75.7,0,0,0,.39,12.43,111.71,111.71,0,0,1,.82,16.24c0,7.51,0,15,0,22.54,0,2.21-.41,4.47.58,6.62a2.27,2.27,0,0,1,0,1.36c-1,4-.22,7.95,0,11.93a11.9,11.9,0,0,0,.79,4.69c1.07,2.1,1.14,4.23,1.37,6.44a8.73,8.73,0,0,0,1.4,3.46C234.18,219,235.31,220.27,236.63,222ZM209,209.38c2.29-.64,3.79-.94,4-2.86.07-.47-.41-1-.63-1.53-.4.19-.95.28-1.17.59C210.55,206.56,210,207.62,209,209.38Zm-3.24,5.48v4.39C206.75,217.22,207.45,216.09,205.74,214.86Zm68.17,5a7.11,7.11,0,0,0,1.27.66c.07,0,.47-.54.41-.73a3.41,3.41,0,0,0-.7-1Z"/><path d="M344.67,243.43c-1.23-1.39-3-.76-4.54-1.24l-1.64-3.46c-2.78,1.9-2.14,5-3.14,7.73L332,245.28c-.71-2.78,2.32-2.89,2.88-4.91l-3.43-.33c.54-1.78,2.68-3.24,1-5.22l-3.51.69c-1-1.9.17-4.74-2.88-5.22a4.71,4.71,0,0,0-2.42,5.07c.77.63,1.75,1.41,2.69,2.25.59.51,1.36,1,1.58,1.7a4.39,4.39,0,0,1-.08,2.66c-.29.76-1.81.37-2.79-.65-1.4-1.45-1.4-1.45-4.07-2.15a23.72,23.72,0,0,0-2.05-3.1c-3.12-3.52-4.27-7.77-4.73-12.3-.29-2.86-.59-5.72-.84-8.59a9.85,9.85,0,0,1,0-2.87,33.77,33.77,0,0,0-.15-13.25,51.84,51.84,0,0,1-.57-7.16,7.58,7.58,0,0,1,.59-2.74c.55-1.58.81-3.06-.33-4.52-.25-.33-.48-1-.31-1.28,1.22-2,.18-4.07.17-6.09,0-1.56-.46-3.09.72-4.57.86-1.08.23-2.46-.14-3.68a6.29,6.29,0,0,1,.16-4.12c.6-1.72.36-3.73.49-5.72,1.37-.82,2.83-.16,4.19-.35s2.83-.29,4.24-.43a5.43,5.43,0,0,1,.75,1.37c.2,1,.51,1.85,1.74,1.86a1.84,1.84,0,0,1,2.07,1.55c.28,1.54,1.45,1.41,2.59,1.42s1.68-.83,2-1.75a4.2,4.2,0,0,0,.27-2.27c-.35-1.22.08-1.84.76-2.86.91-1.36,1-3.29,1.35-4.77l-1.67-3.64,1.81-3.37c-.26-.51-.3-.73-.41-.79-1.64-.8-3.36-1.22-5.06-.32-1.41.76-1.71,2-1.57,3.67.19,2.17-.3,4.34,0,6.55A3.43,3.43,0,0,1,324.9,159c-1.08-1.48.18-3-.11-4.73a19.06,19.06,0,0,1-3.06-.82c-1.13-.48-1-1.44-.52-2.57l3.67-.7c-.13-.39-.13-.79-.3-.89-2.06-1.18-4.15-2.32-6.52-3.63a3.16,3.16,0,0,0-1.3,3.94,5.67,5.67,0,0,1,.16,4.07c-.29,1.13.14,2.44.24,3.57-.81.69-1.38.32-1.61-.29a11.91,11.91,0,0,1-.62-2.78c-.32-2.67-.43-5.31-1.88-7.81-.68-1.18,0-3.09-.18-4.64s-2.09-2.44-1.9-4.25c.06-.64-.21-1.41.06-1.9,1.27-2.31.62-4.6.18-6.93a11.45,11.45,0,0,1,0-1.95,12.32,12.32,0,0,0,1.2-.74c1.56-1.19,1.64-2,.33-3.42-.22-.23-.57-.32-.79-.55-1.05-1.09-1-1.3.76-3.16a9.36,9.36,0,0,1-1.32-2.83c-.12-1,.48-2.13.63-3.22.35-2.37.72-4.74.87-7.12s.3-4.68-2.64-5.21a7.71,7.71,0,0,1,1.33-4.9c1.18-1.78,1.07-1.86-.6-3.43-1.4-1.32-1.49-2.31.13-3.25a3.17,3.17,0,0,0,1.63-2.68c.23-1.7.67-3.1,2.77-3.26,1.48-.11.88-1.92,1.83-2.53,1.7-.09.91,1.8,1.85,2.32.3.09.64.33.89.25a14.18,14.18,0,0,1,8.74-.18c.68.22,1.5-1.09,1.08-1.69-1-1.42-2-2.82-3.14-4.14a1.69,1.69,0,0,0-2.56-.19c-2.51,2.48-5.24,1.34-8,.7-1-1.91-3.2-1.84-4.78-2.6-.05-3.46,2.83-2.46,4.53-3.17.83-2.22-1.11-3.56-1.51-5.33,1.77-3.12,3.73-6,8.37-5.6a4.19,4.19,0,0,0,.9,1,1.38,1.38,0,0,0,1.26.13c1.6-1.38,2.22-3,1.07-5,1.11.06,2.26.21,2.7-1.91.24-.4-1.89-.54-.95-1.75.31,0,.61,0,.9.1,1.07.22,2-.06,2.2-1.18.16-.9-.53-1.43-1.47-1.33s-1.29-.68-1.68-1.33-1-1.24-1.89-.88a26.42,26.42,0,0,1-1.24,2.94c-1.24,2.17-1.33,2.22.75,3.58.8.53,1.15,1,.81,1.86l-3.55,1.16c-2.06-3.49-2.6-5.27-2.67-8.44,0-1.43-.08-2.87-.22-4.29-.06-.68-1.34-1.18-1.95-.76-.33.22-.74.93-.62,1.11,2.38,3.84,1.14,8.08,1.38,12.14a8.19,8.19,0,0,1-.27,1.67c-2.22.43-3.91,1.73-4.62,5-1-2-1.29-3.61-2.21-4.23a3.44,3.44,0,0,1-1.6-3.15c-.12-2.05-.39-4.11-.49-6.16a17,17,0,0,1,.3-2.34c.11-1.1.51-2.33.19-3.29-1.18-3.46.55-5.45,3.09-7.07l6.16.59c1-2.3.12-4.35.74-6.32l-2.61-.8c-1.3-1.56,1.16-2,1-3.23-1.24-1-2.41.49-3.9,0a7.39,7.39,0,0,1-1.31-5.3,12.12,12.12,0,0,1,1.81-.37,13.68,13.68,0,0,1,2,.26,12.43,12.43,0,0,0-.8,1.41c-.48,1.26-.18,1.89,1,2a16.71,16.71,0,0,0,2.48-.13,16.93,16.93,0,0,0,.22-7.34l-2.53.13c-.27-.67-.56-1.38-.95-2.36-4-.59-7.35-2-6-7.47,3.23-.88,6.3.65,9.43.64,3.42-2.34,7.23-4.35,7.22-9.31,3.88-1,6.86.33,9.79,2,.78,1.88.41,3.82.4,5.71,0,5.61-.1,11.19,1.43,16.67a14.62,14.62,0,0,1,.27,3.81c0,5-.05,9.92,0,14.87q.35,25.18.79,50.35c0,1.1.35,2.18.46,3.28a16.74,16.74,0,0,1,0,2.24,32.09,32.09,0,0,0-.23,3.78c.11,1.75.61,3.48.64,5.23,0,1.54-.53,3.09-.54,4.63,0,2.49.62,5-.22,7.47,2,5.11.62,10.42.92,15.63a38.16,38.16,0,0,1-.67,6.12c1.31,1.73,1.43,4.08,1.08,6.76-.43,3.26-1,6.68.58,9.88-.11,4.58,1,9.21-.71,13.73a2.91,2.91,0,0,0,0,2.23c.94,1.48.84,3,.85,4.63,0,3,0,6.08,0,9.12,0,2.7-.23,5.41.66,8.07a11.21,11.21,0,0,1,.14,3.34c0,4.8.08,9.6,0,14.39a14.63,14.63,0,0,0,1.46,6.86c1.13,2.36,2.68,3.8,5.48,3.74,7.88-.19,10.29-2.33,11.67-10.37a28.2,28.2,0,0,0,.16-4.78q-.13-26.4-.28-52.78a5.44,5.44,0,0,1,.06-1.9,9.58,9.58,0,0,0,.14-7,3.77,3.77,0,0,1,0-1.89c1.42-7,.82-14,.3-21-.7-9.41-1.5-18.8-1.18-28.26.19-5.59.25-11.19-1-16.72a4.89,4.89,0,0,1,.28-2.28c.85-2.82,1.08-5.59-.25-8.34-.21-.42-.46-1-.29-1.36,1.1-2.12.43-4.25.3-6.42a50.38,50.38,0,0,1,.37-6.12,3.16,3.16,0,0,0,.08-.95c-1.21-4.07-.61-8.24-.69-12.37,0-1.78-1.69-3.11-1.08-5a32.3,32.3,0,0,0,1-4.66,23.49,23.49,0,0,0,.12-3.36q0-12,.05-24V1.3c1.34-1.43,2.69-1,3.9-.92,7.51.35,15,.76,22.52,1.15.63,0,1.27.05,1.91.05,1.55,0,2.3.89,2.72,2.52l-2.58,2.79c.17,4.62.06,9.42,1.14,14.13a3.2,3.2,0,0,1,.2,1.37c-1.3,4.89-.31,9.86-.57,14.78a30.62,30.62,0,0,0,.33,3.8,15.46,15.46,0,0,1,.14,4.28c-1.09,4.94,0,9.86-.08,14.77,0,1.6.18,3.19.18,4.79,0,10.87,0,21.75,0,32.62,0,1.7-.31,3.43,1.06,5,.61.69.5,2.11.51,3.2,0,6.24,0,12.48,0,18.71,0,1.9-.25,3.82.8,5.62a5,5,0,0,1,.26,2.35c0,3.68,0,7.36,0,11a4.13,4.13,0,0,1-.38,2.31c-1.58,2.08-1.09,4.24-.51,6.41a8.7,8.7,0,0,1,.19,3.64c-.48,3.75-.85,7.54.35,11.35a10.35,10.35,0,0,1-.09,5.6c-.57,2-.91,3.67.07,5.5a2.58,2.58,0,0,1-.24,2.71,15.38,15.38,0,0,0-1.5,2.42c-.24.66-.34,1.83,0,2.16,1.28,1.14,1.19,2.56,1.2,4,0,5.76.12,11.53-1.19,17.19-.25,1.11-.5,2.09.44,3.11a3.4,3.4,0,0,1,.53,2.22c-.06,1.74-.42,3.47-.43,5.2a13.73,13.73,0,0,1-.72,4.45c-.84,2.51-.84,5.31-1.16,7.8-1.06,1.76-3.57,2.11-3.53,4.53,0,.47-3.73,3.46-4.45,3.94a8.13,8.13,0,0,0-2.18,1.73,15.33,15.33,0,0,1-10.05,6.6,8.71,8.71,0,0,0-2.41,1.33c-.68.39-1.34,1.11-2,1.14-3.36.13-6.46,1.36-9.68,2a16.4,16.4,0,0,1-12.61-3,17.55,17.55,0,0,1,2.21-1.89c1-.62,1-1.51,1-2.49l3.65,1.38a9.5,9.5,0,0,1,1.78-2.22c1.14-.72.95-1.54.44-2.35a1.91,1.91,0,0,0-2.44-.78A4.6,4.6,0,0,0,344.67,243.43ZM326,86.36a11.12,11.12,0,0,0-2.24-.45c-.9,0-1.41.45-.77,1.38.2,0,.35.13.45.09.86-.34,1.71-.7,2.57-1,0,1.33-1.3,2.65.22,4.23.24-.63.64-1.15.58-1.61A14.94,14.94,0,0,0,326,86.36Zm-2,54.69c.85.66,1.43,1.74,2.79,1.59a5.21,5.21,0,0,0,3.75-1.85,15.63,15.63,0,0,0,1.51-2.43c.49-.93,2.11-1.06,1.8-2.56l-2.51-2.28,2.78-2.85c-1.07-3.59-2.11-7.08-3.17-10.57,0-.13-.22-.22-.57-.54l-2.87.36c-.44,2.92-.43,2.91,1.26,4.18.57.43,1.1.92,1.64,1.37-.29.37-.37.56-.49.61-1.23.49-2.47-1.32-3.57-.16a15.26,15.26,0,0,0-2,3.18c-.37.67-.67,1.37-1.11,2.27,2.68,1.47,3.62,4,4.93,6.35a1.28,1.28,0,0,1-1,1.79c-1.24.22-2.64,0-3.13,1.64a6.42,6.42,0,0,0-.69.58c-1.27,1.41-1.07,1.93,1.2,2.52C324.35,143.1,324.16,142.08,324,141.05Zm8.54,70.25c.1-.1.27-.2.29-.31.33-2.07-.06-4.44,2.6-5.48.56-.23.15-1.83-.56-1.95-2.12-.34-4-1.89-6.2-1.65a6.68,6.68,0,0,0-.86,1.36c-.72,2.53-1.39,5.08-2.11,7.74C329.17,210.33,329.17,210.33,332.5,211.3Zm-13-98.13c-.18,1.21-.32,2.13-.48,3.19l4.18.92c-.39-3.79-.76-7.39-1.14-11-3,.25-3,.26-3.5,2.17-.3,1-.77,2-1.13,3.07a2.61,2.61,0,0,0,0,.79Zm11.91-11.44a12.66,12.66,0,0,0-5.69-.11,25.36,25.36,0,0,1-4.93.07c-.61,3.51,2.39,1.64,3.33,2.69.48,3.68.65,3.85,3.68,3.57C328.6,104.49,328.6,104.49,331.44,101.73Zm-3,83c2-.31,2.32,2.21,4.48,2.17a17.08,17.08,0,0,0,.3-2.4c-.06-1.71-.23-3.42-.35-5.11C329,179.44,328.57,179.91,328.46,184.75Zm1.14,41.36a9.37,9.37,0,0,0,.07-5.64,3.13,3.13,0,0,0-3.62.59,1.6,1.6,0,0,0-.43,1.27c.22,1.39.38,2.93,1.7,3.72C327.88,226.38,328.8,226.11,329.6,226.11Zm2.73-57.71v7.92c1-.21,1.76-.35,2.48-.52.09,0,.13-.24.28-.53-.36-1.85-.69-3.86-1.19-5.82C333.8,169.07,333.05,168.86,332.33,168.4Zm-12,10.75c.17,1.59.3,2.95,1.82,2.63a3.13,3.13,0,0,0,2.64-3.48,11,11,0,0,0-2,0A21.53,21.53,0,0,0,320.31,179.15Zm63.54,8.09c-1.5-.34-2.82-.52-3.8.89-.45.65-.87,1.31.38,2.26C381.46,189.43,384,190.33,383.85,187.24Zm-65-21.14c1.26.72,1.65,2.44,3.33,3.32a10.17,10.17,0,0,0,.21-2.17c-.09-.71-.2-1.68-.66-2C320.79,164.63,319.65,164.51,318.82,166.1ZM322,202.66c.67-1.2,1.07-2.21.19-3.16a1.42,1.42,0,0,0-1.2-.37,1.33,1.33,0,0,0-.78,1A2.34,2.34,0,0,0,322,202.66Zm1.85-6.38a4,4,0,0,0,2.94,2.11,1,1,0,0,0,.79-.35,1,1,0,0,0,.07-.84C326.84,195.52,325.57,195.52,323.83,196.28ZM326.92,66a12.46,12.46,0,0,0-2.19-.85c-.63-.1-1,.78-.73,1.42a1.36,1.36,0,0,0,1.94.75C326.28,67.16,326.46,66.64,326.92,66Zm-5.81,106c-.72,1.53-1.36,2.43-.47,3.5a1.39,1.39,0,0,0,1.19.41c.31-.09.74-.74.66-1A22.92,22.92,0,0,0,321.11,172Zm5.06-59.53c.3-.45.48-.6.45-.7-.13-.55-.17-1.36-.53-1.56s-1.13.07-1.72.14a15.29,15.29,0,0,0,.82,1.49C325.35,112.1,325.69,112.2,326.17,112.5Zm2.77,102.29c.63-.74,1-1,1.14-1.38.24-.6.27-1.32-.55-1.44a1.25,1.25,0,0,0-.95.75A7.22,7.22,0,0,0,328.94,214.79ZM319.36,66.38c-.1-.46-.08-.68-.17-.74a9.39,9.39,0,0,0-1.54-.8c-.11,0-.37.35-.56.54.47.35.94.72,1.43,1C318.62,66.49,318.81,66.42,319.36,66.38Zm3,23.54a4.13,4.13,0,0,0-.86-.9c-.13-.08-.49.22-.75.35a5.7,5.7,0,0,0,.71,1C321.48,90.45,321.9,90.14,322.32,89.92Zm10.53,18.92a5.52,5.52,0,0,0-1.06-.48c-.07,0-.43.62-.36.69a3.78,3.78,0,0,0,.92.64Zm-7.78-85.19c-.21-.43-.27-.8-.45-.87a1,1,0,0,0-.82.12c-.12.09,0,.7,0,.72A7,7,0,0,0,325.07,23.65ZM354,237l-.13-.4c-.1,0-.27.07-.28.12a1.1,1.1,0,0,0,.09.39ZM319.37,207.1l0,.31.33-.14Zm60.76-36.44.1.38.6-.33c-.11-.09-.21-.25-.32-.25S380.25,170.59,380.13,170.66Z"/><path d="M20.51,65.86c-1.65-3.37-2.13-6.32-.07-9.38.88-1.31,1.42-3,.38-4.53-1.16-1.65-.54-3,.32-4.4.58-.94,1.12-1.91,1.67-2.87-1.65-2.17.43-3.86.72-5.78s.15-4.19.57-6.21A90.58,90.58,0,0,0,25.8,20a19.33,19.33,0,0,0,.11-2.84,15.92,15.92,0,0,1,.4-5.65c.56-2.1.33-4.41.46-6.8C30.94,2.19,35.22.88,40,2.55a3.5,3.5,0,0,0,2.19,0,8.06,8.06,0,0,1,8.5,2.82C53,8.08,54.1,10.54,53.15,14a9,9,0,0,0,0,3.32c.64,6.2,1.11,12.43,2.11,18.58a87.44,87.44,0,0,1,1.28,11.39,4.84,4.84,0,0,0,.38,2.34A8.47,8.47,0,0,1,58,56a1.17,1.17,0,0,0,.15.91c1.77,1.86,1.13,4.2,1.26,6.37.28,4.46.48,8.92.74,13.38A5.37,5.37,0,0,0,60.54,79c1.22,1.92.93,4,1,6,0,.48-.14,1.1.1,1.41,1.93,2.5.88,5.64,1.77,8.25,1.76,5.18.61,10.45,1.25,15.63.36,3-.26,6.09,1.65,8.81a4.08,4.08,0,0,1,.22,2.34,35.45,35.45,0,0,0,1.36,10.88c.69,2.78.93,5.67,1.38,8.52a1.27,1.27,0,0,1,0,.47c-.69,2.61,4.77,4.25,1.16,7.32.18,2.7.27,5.4.54,8.09q1.61,16.23,3.3,32.45c.52,4.93,1,9.86,1.65,14.78.24,1.87.82,3.7,1.23,5.55a17.15,17.15,0,0,1,.49,2.3c.2,2.34-.22,4.72,1.64,6.76.59.65.27,2.16.29,3.27a38.52,38.52,0,0,0,.85,8.53c1.08,4.38.19,8.84-.17,13.28-4.58.89-8.76,1.91-13,2.47-5,.68-9.81-.76-14.68-2.19a35,35,0,0,1-1.74-9.86,3.11,3.11,0,0,1,.41-1.8c1.51-2.4.25-3.85-1.6-5.16a2.85,2.85,0,0,1-.38-.51c.27-2.39.65-4.91.79-7.44.17-2.85-1.44-4.16-4.16-3.58-1.25.27-2.46.76-3.72.91a10.48,10.48,0,0,1-3.79-.08c-3.38-.87-3.35-.95-6.2.46-1.15,8.91-.88,18.19-2.59,27.47H.65c-1-1.79-.61-3.56-.46-5.26a127.72,127.72,0,0,1,4-24.09,19.09,19.09,0,0,0,.63-4.71c.09-3.68-.16-7.37.08-11A85.73,85.73,0,0,1,6.4,186.48a89.8,89.8,0,0,0,2.13-16.13A13.88,13.88,0,0,1,10,163.54l3.51-1.28L11,157.72c1.58-1.86,3,.35,4.83-.21l.64-2.56c-1.52-1.5-2.51-.24-3.83.21-.73-2.06-1.45-4.12-2.27-6.45,2.07-2.66,2.23-6,2.3-9.35.1-4.13.54-8.25.74-12.37.06-1.25-.29-2.51-.28-3.77a11.4,11.4,0,0,1,.56-2.36l3.13.35.71-2.24c.83-1.26,3.39-.12,3.62-2.65l-5.87-3.38a4.57,4.57,0,0,1-.21-3.83,20.85,20.85,0,0,0,1-4.15c.71-6.67,1.59-13.35,1.87-20,.16-4,1.05-7.85,1.59-11.77.13-.93.55-2.14.15-2.78C18.5,68.56,19.61,67.36,20.51,65.86Zm25.15,60.08c-5.68.66-5.82.79-6.22,5.05-.06.64-.06,1.28-.14,1.91-.94,7.77-1.68,15.56-2.9,23.28a65.52,65.52,0,0,0-.85,11.43c.08,5.25.71,10.51-1,15.67-.37,1.1-.39,2.85,1,3.38,1.91.7,2,2.71,3.11,4l6.13-1.79c0-1.36-.06-2.61,0-3.85.12-2,2.56-1.05,3-2,0-4.13-.09-7.79,0-11.45.09-2.73.23-5.36-1.52-7.74a4.16,4.16,0,0,1-.43-2.31,4.91,4.91,0,0,0-1.25-3.48c-1.07-1.2-.87-2.67-.18-4,.35-.71.79-1.37,1.28-2.21-1.5-1.89-2-4.35-.89-6.23,1.74-3,.76-5.52-.11-8.23-.44-1.36-1.11-2.65-1.59-4a4.54,4.54,0,0,1,.65-4.53C44.3,128.14,44.74,127.35,45.66,125.94ZM13.79,164.38c-.25,2.33-.81,4.26,1.41,5,1.64.54,3.08-.14,3.65-2.23Z"/><path d="M679.46,243.67l-11.32,2.23a20.22,20.22,0,0,1-8.09-.11c-2.5-.53-5-1.11-7.64-1.71-1.8-3.33-1.45-7.09-2-10.66a.62.62,0,0,1,.11-.46c.84-1,1.58-2.24,1-3.5a16.64,16.64,0,0,0-2.52-3c.27-2.56.56-5.24.85-7.93a2.8,2.8,0,0,0-2-3,4.22,4.22,0,0,0-2.29-.08c-1.41.25-2.78.75-4.19,1-2.42.4-2.6.3-5.48-1.6l-4.23,1.67c-1.22,9.24-1,18.38-2.51,27.57-3,.09-5.64.23-8.32.24-2.4,0-4.79-.14-7.18-.22l-1,0c-1.61-.08-2.49-1.85-4.36-1.67-1.5.15-3.07-.44-5-.77-1,.24-1.14,2.3-2.67,2.44-.34-.34-.7-.53-.71-.74-.36-5.63.54-11.17,1.41-16.68.59-3.78,1.69-7.48,2.46-11.23a33.89,33.89,0,0,0,.75-5.66c.14-4.47.1-8.95.17-13.43a47.69,47.69,0,0,1,1.72-11.83,39.35,39.35,0,0,0,1.41-9.46c.07-2.39.34-4.78.59-7.17.28-2.61.42-5.38,3.81-5.07,1.18-2.58-1.29-3.44-1.57-5.41a6.31,6.31,0,0,1,1.77-.26,26.29,26.29,0,0,1,2.89.85l.88-3c-1.4-1.71-2.86-.29-4.17-.57-.66-1.8-1.31-3.57-2-5.46a4.45,4.45,0,0,1,4.54-3.91,13.22,13.22,0,0,0,2.87-.85c.3-2.12.64-4.14.84-6.17a27.48,27.48,0,0,1-.09-2.85,8.79,8.79,0,0,1,1.34-2.32c-2.25-1.28-5.11-.21-6.94-2.75a5.3,5.3,0,0,1,1.5-.81c1.9-.26,3.83-.31,5.39-1.67-.4-1.83-1.34-2.91-3.28-2.85a7.68,7.68,0,0,1-1.44-.07c-1.2-.2-2.19-1.31-1.91-2.28a1.6,1.6,0,0,1,2.23-1.16,3.84,3.84,0,0,0,1.16-.07c.57-1.53,1.31-3.06,3.46-3.1.45,0,.89-.77,1.47-1.31-1.91-2-4.51-2.56-6.59-4.27v-3.46l4.42,1.14c.9-1.87,3.23-3,3.07-5.55a25,25,0,0,0-.95-5.12,36.65,36.65,0,0,0-1.75-4.12l4.44-2.87a5,5,0,0,0,.08-4.92,75.48,75.48,0,0,1-2.55-8.14A2.79,2.79,0,0,1,622,79c.88-.35,2-.5,1.75-1.82-.19-1.1-1.21-.72-1.9-1s-1.14-1.45-.45-1.9c1.38-.9,2.15-1.87,1.31-3.84l-3.67-1c-.92-2,1.4-2.45,1.48-3.85-2-2.79-2.64-5.54-.6-8.73,1.05-1.65,2.08-3.71.23-5.74a2,2,0,0,1-.12-1.76,18,18,0,0,1,1.61-2.91c.69-1.09,1.48-2.09.49-3.46a1.49,1.49,0,0,1,.06-1.36c1.27-2,1-4.33,1.3-6.51.74-5,2.12-9.91,2-15a30,30,0,0,0,.11-3.27,12.18,12.18,0,0,1,.28-5.12c.57-2.1.32-4.41.44-6.81,4.29-2.7,8.68-4,13.55-2a1.91,1.91,0,0,0,1.68,0c3.15-1.17,5.92-.63,8.06,2.18.77,1,1.64,1.94,3,3.47a22.67,22.67,0,0,1,.13,5.8,48.74,48.74,0,0,0,.46,8.6c.44,4.45.74,8.94,1.61,13.31a57.49,57.49,0,0,1,1,11.39,1.46,1.46,0,0,0,0,.47A40.67,40.67,0,0,1,657.51,53c.38,1.65-.49,3.49.77,5.08a3.4,3.4,0,0,1,.46,1.82c.29,4.94.57,9.88.8,14.82.1,2.07-.2,4.18,1.09,6,.18.25.4.63.33.88-1.05,3.75,1.71,7,1.5,10.59a11.58,11.58,0,0,0,1.17,6,9.11,9.11,0,0,1,.45,3.73c.1,4.31.1,8.62.21,12.92,0,.94,0,2.19.53,2.74,1.47,1.47,1.32,3.19,1.24,4.91a37.1,37.1,0,0,0,1.15,10c.75,3.26,1.12,6.61,1.73,9.91a3.17,3.17,0,0,0,.94,2c1.26.77,1.47,2,.82,2.81-1.18,1.47-1,2.95-.82,4.53.79,8.12,1.51,16.24,2.37,24.35,1,9.85,2.17,19.7,3.33,29.54.4,3.45,1.84,6.73,1.7,10.28,2.14,3.13,1.54,6.69,1.63,10.15a5.91,5.91,0,0,0,.21,1.89C681.2,233.18,680.09,238.37,679.46,243.67Zm-41.64-103c-.16,2.33-.27,3.56-.31,4.78-.11,3.36-.16,6.71-.3,10.06a4.51,4.51,0,0,1-1.59,3.8c-.59.46-.74,1.69-.79,2.58-.17,3.35-.27,6.71-.3,10.06q-.07,8.87,0,17.72a17.67,17.67,0,0,0,.57,3.08c5.84.95,10.75.16,14.57-2.32a20.24,20.24,0,0,0-1.18-9.72,15.6,15.6,0,0,1-1.16-5q-.6-11.47-1.19-22.95C645.85,147.41,642.56,144.19,637.82,140.64Zm-24,23.83c-1.68,1.61-.61,3.14-.25,4.79,2.36.57,4.12.34,5.06-2.16Z"/><path d="M712.29,73.74l-3.52,1.34c-1.62-3.57-1.17-7.08-1.07-10.52a5.62,5.62,0,0,1,2.35-4.86,7.49,7.49,0,0,1,1,1.92,33.14,33.14,0,0,0,.95,4.74c.07-1.91.2-3.83.21-5.74,0-6.88-.05-13.76,0-20.64.07-6.08.32-12.15.42-18.23,0-1.91-.09-3.83-.24-5.74a15.7,15.7,0,0,0-.64-2.48c-1.85.9-.58,2.94-2.11,3.89l-2.35-.55c-.19-.45-.45-.76-.4-1,.36-2,.79-4.07,1.26-6.41,3.39-.25,5.77-2.38,8-4.8a9.17,9.17,0,0,1,3.16-2.05C725.92,0,732.76-.28,739.68.2c.47,0,1.12,0,1.39.28,2.14,2.27,5,1.56,7.6,2a4.59,4.59,0,0,1,2.23.63c2.36,2.09,5.31,2.71,7.52,3.27,1.9,2.15,3.16,4.05,4.86,5.39,3.74,2.94,5.4,6.91,6.4,11.32.11.47,0,1.11.26,1.39,2.12,2.22,1.55,5,1.84,7.66a47.78,47.78,0,0,0,.79,5.21c.57,2.47,1.5,4.88.32,7.44a3.55,3.55,0,0,0,0,1.89c.2,1.25.93,2.58.67,3.7-1.44,6.27.16,12.82-1.86,19a8.79,8.79,0,0,1-.39.82,60.67,60.67,0,0,1-14.5,3.39c-.62,0-1.47.14-1.86-.2-2.25-2-5.08-1.61-7.69-2.15-.94-.2-1.85-.5-2.69-.73-1.11-1.35-.68-2.84-.67-4.23.06-7,.1-14.08.3-21.11a39.47,39.47,0,0,0-2.46-14.56c-.79-2.18-2.45-4.05-3.68-6-3.9-.59-7.43-.79-10.92,1a4.18,4.18,0,0,0-2.56,2.57c-1.31,4.43-2.91,8.77-2.59,13.56.25,3.66.08,7.35,0,11a14.31,14.31,0,0,1-1,6c-.79,1.75-.33,4.07-.41,6.14-.1,2.72-.11,5.44,1.51,7.8,1.22,1.77.92,3.74.62,5.58-1.12,6.84-.65,13.72-.73,20.59,0,3.79,0,3.79,2.12,7.37a34.94,34.94,0,0,0-1,5.17c-.14,3.84,0,7.68-.07,11.52,0,2.22-.46,4.45-.41,6.67s.63,4.43-.47,6.58a1.72,1.72,0,0,0,.15,1.37c1,2,.74,4.06.74,6.12q0,12.24,0,24.48a64.28,64.28,0,0,0,1.28,14.31,10.5,10.5,0,0,1,0,3.79A181.08,181.08,0,0,0,723,210.66a15.4,15.4,0,0,0,2.4,8.64c3.23,5,8.32,4.71,12,2.09a9,9,0,0,0,3.94-5.71,55,55,0,0,0,1.34-10.91c0-4.1-.74-8.29,1-12.3a7.48,7.48,0,0,0,.11-2.85c0-4.64,0-9.28,0-13.92,0-1.9-.17-3.77,1-5.56.53-.84.33-2.16.41-3.26s0-1.92.06-2.88c.16-1.78.94-2.48,2.81-2.54.8,0,1.6.08,2.4.1,5.31.15,10.42,1.45,15.58,2.58,5.81,1.26,8,6,7.6,10.6-.24,3.15-.91,6.32-.71,9.44a20.14,20.14,0,0,1-.94,7.41,16,16,0,0,0-.23,5.7c.29,4.47.81,8.92,1.11,13.39.12,1.86.6,3.87-1,5.45-.1.1-.11.3-.15.46-.6,2.38.32,4.94-1.65,7.25-1.47,1.73-2,4.28-2.87,6.48a9.24,9.24,0,0,0-.39,1.26c-2.12,1.75-3.86,3.11-5.53,4.57-1.37,1.21-2,3.35-4.27,3.48-.24,0-.55.36-.68.62-1.37,2.74-4,3.49-6.62,4.29A74.73,74.73,0,0,1,725.6,248c-4.68-.11-9.23-.84-12.94-4.18.1-.94.21-1.86.3-2.7-.37-.25-.61-.54-.86-.55-2.08-.1-4.16-.27-6.23-.17a5.45,5.45,0,0,1-5.23-2.66c-1.74-2.67-3.61-5.26-5.27-8a7,7,0,0,1-.49-2.76q-.37-3.07-.69-6.16c-.37-3.66-1-7.31-1-11-.1-6.39.13-12.79.19-19.19.09-8.48.31-17,.18-25.43-.48-29.6-1.09-59.19-1.62-88.79,0-1.83-.32-3.72.28-5.43,2-.14,1.13,1.92,2.54,2.14a14.31,14.31,0,0,1,.72-2.42c.42-.85,1.17-1.54,1.58-2.38.93-1.89,2.48-2.33,4.71-2.09.11,3,.43,6,.27,9a16.38,16.38,0,0,0,.93,6.58,6.05,6.05,0,0,1-.31,5.52c-1.35,2.23-.39,4.67-.72,6.88,1.68.89,2.18-.62,3.13-.94a14.73,14.73,0,0,1,3.63-.59,31.44,31.44,0,0,1,3.51.2C713.11,86.76,711.92,80.42,712.29,73.74Z"/><path d="M820.92,110.4l16.81-1.88c1.73-.2,3.47-.73,5.17.13.15.08.35.24.43.19,2.74-1.49,5.16.12,7.9.82,1,3.35.23,6.89.44,10.34a55.7,55.7,0,0,1-.31,10.74,15.58,15.58,0,0,1-2.85.4q-5.75-.24-11.49-.64a49.91,49.91,0,0,0-13.86.49,31.89,31.89,0,0,0-3.09,1,7.19,7.19,0,0,0-.41,1.55q-.06,9.84,0,19.67a6.13,6.13,0,0,0,.4,2.34c.47,1.12.07,2.1,0,3.19a48.46,48.46,0,0,0,.21,7.61,19,19,0,0,1-.18,4.19,38.44,38.44,0,0,0,.12,8.09c.14,1.9.44,3.67-.25,5.63-.55,1.56-.21,3.47-.11,5.22.15,2.88.42,5.74.65,8.61a6.82,6.82,0,0,1-.75,4.58,6.17,6.17,0,0,0-.44,3.7,45.62,45.62,0,0,0,1.09,5.64c.51,2.25.6,4.35-.73,6.45-.83,1.31-.13,2.48,1.33,2.83.78.19,1.74.68,2.32.41,2.17-1,4,.33,6,.48,1.63.13,3.2,1.34,4.89.06a1.77,1.77,0,0,1,1.4-.06,16.07,16.07,0,0,0,8.3.73c2,1,4.08.53,6.13.62a28.81,28.81,0,0,1,8.17,1.14,19.7,19.7,0,0,1-3.05,13.69c2.22,2.21,2.22,2.21,1.81,5.41a10.86,10.86,0,0,1-2.13.42q-21.59,0-43.18,0a7.12,7.12,0,0,1-2.82-.36,7.09,7.09,0,0,0-6,0,8.53,8.53,0,0,1-8.7-.78c-.92-1.77.37-4.13-1.26-5.85a.94.94,0,0,1,0-.86c1.4-2,.81-4.34.83-6.53.06-7.19-.12-14.4.06-21.59.21-8.29-.18-16.58-.06-24.87s.22-16.63.09-25c-.08-5.74-.51-11.49-.87-17.23a34.69,34.69,0,0,1,.49-10.39,22.86,22.86,0,0,0-.25-11.37,4.83,4.83,0,0,1-.34-1.84c.84-6.17-.75-12.42.72-18.56a5.2,5.2,0,0,0,.09-2.84c-.79-2.11-.47-4.29-.8-6.36s.26-4.07,0-6.1c-.22-2.2,0-4.44,0-6.66,0-1.43-.25-2.85-.25-4.27q.06-26.64.18-53.27c0-4.15.33-8.33-1.31-12.3-.7-1.68-.05-3.12,1-4.74a26.91,26.91,0,0,1,3.08-.36c4.16-.05,8.32,0,12.48,0a9.92,9.92,0,0,0,3.33-.19c3.35-1.28,6.24-.19,9.3,1.47,1.69-.85,3.54-1.95,5.65-.68.39.23,1.08.49,1.34.31,2.29-1.59,5-.47,7.43-1.28a7.43,7.43,0,0,1,3.76-.3,14.32,14.32,0,0,0,5.18.07c1.81-.24,2.26.4,2.18,2.6,0,.3,0,.61,0,1.19l3.07,1.17c.22.93.45,2,.7,3.08l3-.14.92,2.77,3.23,1.25V23.3c-1.33,1.23-2.84.87-4.23.88-9.44.06-18.87.07-28.31.09H820a24.76,24.76,0,0,0-.84,11c.14,1.26.33,2.53.37,3.79.13,5.73-.12,11.46.21,17.2s.06,11.51,0,17.26-.27,11.52-.31,17.27c0,4,0,8,.23,12C819.84,105.09,820.43,107.41,820.92,110.4ZM854.2,229.12l-7-1.93a2.37,2.37,0,0,0-3.09,1.47c1.29,5.26,1.61,6,3.7,8.56,1.21-1.28.08-3.19,1.24-4.39,1.74-.1,1.74-.1,3.18,1.5C852.85,232.68,853.46,231.07,854.2,229.12Zm-16-215.89c.8-.5,1.42-.68,1.67-1.09.51-.84-.3-2.23,1.25-2.87l4.34,2.47.78-1.44-5.81-4.69c-1.3.17-2.16.77-2.21,2.08C838.11,9.37,838.16,11.06,838.16,13.23Zm2.54,221.43v-6.6l-2.38.12a19.64,19.64,0,0,0,.11,6.84Z"/><path d="M432.43,46a1.14,1.14,0,0,0,2,.27,7.78,7.78,0,0,0,1.11-2.1c-2.2-1.25-4.35-.24-6.64-.88a7.22,7.22,0,0,1-2.7-5.54c-.17-2.07-.18-4.16-.26-6.23-.06-1.41-.12-2.82-.19-4.51a31.24,31.24,0,0,0-3.4-.38c-5.76,0-11.52,0-17.28,0-1.58,0-3.17,0-4.66-.07-.95-3.61-1.05-17.07-.2-21.93a26.33,26.33,0,0,1,2.65-.32q34.55-.57,69.1-1.1c1.44,0,2.89-.05,4.32,0a3.11,3.11,0,0,1,3.06,2.54c.46,6.52,1,13.07-1.24,19.43-.05.13-.21.23-.51.55-3.54,1-7.39.45-11.19.49s-7.34,0-11.17,0c-1.08,1.1-2.43,2.28-1.31,4.28-.81,1.88-.32,3.62.36,5.43a8.76,8.76,0,0,1,.1,2.86v73.92a9.46,9.46,0,0,1,0,1.92c-.29,1.37-1,2.73-1,4.07s.8,2.73,1.24,4.1c.05.15,0,.32.08.47.42,1.8-2.45,2.81-1.17,4.78s-.8,3.26-.61,5a7.53,7.53,0,0,1-1.27,5.29l-4.11.18-3.8.24a3.92,3.92,0,0,0,4.4,2.34,12.37,12.37,0,0,1,1.81-.53,2.71,2.71,0,0,1,3,2.45,2.77,2.77,0,0,1-2.82,3.1c-1.84.19-2.48-1-3.23-2.37-2.37.17-4.1,1.5-5.8,3s-1.8,1.51-4.88,2.35c.15-3.14.46-6.24-.79-9.32-1.39-.84-2.61-.46-3.64.83a2.4,2.4,0,0,0,.11,3.11,8.76,8.76,0,0,1,1.9,4.71c.41,3.67,1.69,4.64,5.6,5.27.46.08.91.23,1.61.41.31,2.62-1.62,4.74-1.71,7.59l3.95,2.55c.79-.76,1.62-1.46,2.32-2.26s1-1.79,1.72-2.28c1.84-1.22,2.37-2.85,2-5.12a14,14,0,0,1-2-.91,2.05,2.05,0,0,1-.68-2.57,2.54,2.54,0,0,1,1.57-1.51,10,10,0,0,1,3.76.3c1.65.45,2.23,1.48,2.2,3.22,0,.48-.06,1-.11,1.44a111.17,111.17,0,0,0,.19,27.28,76.81,76.81,0,0,1,.13,10.07,4.28,4.28,0,0,1-.42,2.31,2.9,2.9,0,0,0-.22,3.09c.92,2.43,1.31,4.88-.37,7.28a4.3,4.3,0,0,0,0,4.17c1.21,2.94,1,5.94.91,9-.18,5-.37,9.92-.4,14.88,0,3.66-.07,7.35,1.43,10.85a5.38,5.38,0,0,1-.75,5.19A37.38,37.38,0,0,1,444.19,250c-2.81,0-5.75.91-8.36-.93-3.25.11-6.62-1.06-9.72.88-.22.14-.62,0-1.18-.06a5.24,5.24,0,0,1-.81-5.22,17.11,17.11,0,0,0,1-7.07c-.08-4.64-.24-9.27-.35-13.91-.08-3.36-.2-6.72-.19-10.08q.07-25.92.22-51.83c0-1.92.23-3.83.35-5.75.16-2.51.81-5.07-.64-7.45.06-3.83,0-7.66.2-11.49.09-1.91.5-3.8.77-5.7.09-.63.44-1.33.28-1.88-1-3.5.08-6.92.22-10.38.1-2.52.18-5-1-7.47a4.2,4.2,0,0,1,.32-4.57c.89-1.11.71-2.41.75-3.67.21-7.83.48-15.67.59-23.5.05-3.68-.15-7.36-.39-11a39.78,39.78,0,0,1,0-7.86,17.41,17.41,0,0,1,7.55-.29c.89.11,1.64,1.28,2.72,2.18l3.24-3c0-1.13,0-2.39,0-3.65a6.45,6.45,0,0,0-4-6,4.32,4.32,0,0,0-.86-.43c-2.23-.47-2.4-2.15-2.38-4Zm14.34,80.61.18.7-.38,0,.32-.63a4.18,4.18,0,0,1-.69-1.17c-.2-1.07.09-2.39-1.11-3a8.32,8.32,0,0,0-3.14-.76,2.51,2.51,0,0,0-2.43,3.56,3.93,3.93,0,0,0,2.71,2.41Zm-14.7-10.74c.46-3,0-5.82,1-8.55.36-1-.3-2.46-.7-3.65a2.09,2.09,0,0,0-1.31-1.13,3.75,3.75,0,0,0-1.61.27,6.33,6.33,0,0,0-.2,1.18c.11,1.79.83,3.36-.14,5.42C428,111.75,429.29,114.22,432.07,115.83Zm-2.63-89.14c-1.19,5-1.19,5-.16,7.28,1.65-1.92,3.29-3.67,4.72-5.58.29-.39-.19-1.35-.33-2.16ZM434.1,80c-.39-.24-.92-.85-1.53-.93-1.43-.19-2.07.48-2.08,1.85s.52,2,1.45,2C433.24,82.94,434.07,82,434.1,80ZM435.89,74a7.64,7.64,0,0,0-4.11-3.28c-.52-.22-1.33.47-1.19,1.07a3.21,3.21,0,0,0,.7,1.66A4,4,0,0,0,435.89,74Zm-2.51,14.25c-2.71-.35-4.09.21-4.1,1.92l2.88,1.32Zm8.82,98.18c-.6-1-.32-2.58-2.24-2.23-.14,1-.28,2.05-.5,3.68Zm-2.87-45.69c-.13,1.42.48,2,1.51,2.2a1.06,1.06,0,0,0,1.32-.93c.16-.68-.05-1.3-.77-1.4A10.1,10.1,0,0,0,439.33,140.77Zm6.88-23.37a3.61,3.61,0,0,0-1.1-.23c-.14,0-.24.47-.36.73a7.47,7.47,0,0,0,1.09.39A5,5,0,0,0,446.21,117.4Z"/><path d="M541.86,86.49c.35-.23,1-.46,1-.69,0-2.51.77-5.07-.61-7.5a3.75,3.75,0,0,1-.06-2.26c.13-.77.62-1.47.76-2.24.47-2.66,0-4.64-1.84-7.66l.9-1,.68-.73q-.88-2.1-1.83-4.3c.27-.59.39-1.41.84-1.7,1.31-.84,1.33-2,1.33-3.35q0-14.16,0-28.32c0-1.89-.08-3.6-2.21-3.73-.64-2.54.34-5-1.72-6.73a1.07,1.07,0,0,1-.2-.89c.54-2.62-.18-5.48,1.53-8.11.82-.11,1.74-.23,2.66-.37a12.49,12.49,0,0,0,3.23-.6c2.93-1.38,5.53-1,7.82,1.19.35-.27.61-.43.84-.64,1.86-1.72,1.88-1.71,3.17.65.14.26.44.43.9.85l1.76-2.63,3.94,2,1.08-1.85c9.77.89,19.49.23,29.2.45,1.72,0,3.5-.29,5,.41,1.18,1.63.71,3.29.75,4.84s-.12,3.14-.2,4.82a3.57,3.57,0,0,1,2,3.33c-.09,2.52.54,5.07-.42,7.82A22.28,22.28,0,0,1,599,28c-6.56,0-13.12,0-19.68,0a6.89,6.89,0,0,1-4-1c-1.22-.79-3-.67-4.82-1-.33-.7-.74-1.6-1.56-3.36-.42,2.91-.29,5.08-2,6.54-.49,3-1,6-1.44,9a36.62,36.62,0,0,0,0,3.78c-.07,2.56-.08,2.56,1.67,5.39A9.44,9.44,0,0,0,565.52,54c.09.62.07,1.47.46,1.78,1.77,1.43,1.56,3.42,1.61,5.28.25,10.38.43,20.76.62,31.15,0,2.88,0,5.76,0,8.64a8.14,8.14,0,0,1-.27,3.3,4.08,4.08,0,0,0,.14,4,2.85,2.85,0,0,1,.12.94c.58,4.47.59,4.53,4.82,4.54,2.86,0,5.74.29,8.58-.57a7.27,7.27,0,0,1,2.77.13c1.25.15,2.49.43,3.74.56,1.53.16,3.13-.34,4.41,1.21.37.45,1.73.07,2.88.07.74,4.83,1.44,9.52,2.17,14.3a10.09,10.09,0,0,0,1.39.09c1.8-.12,1.8-.13,1.47,2.18h-2l-2.14,2.9a3.26,3.26,0,0,1-1,.38c-6.38-.21-12.77-.47-19.16-.68-1.75-.06-3.5,0-5.59,0-.85,1.48-1.82,3.08-2.69,4.72a2.82,2.82,0,0,0-.47,1.81c1.09,3.26-.63,6.6.35,9.87a6.42,6.42,0,0,1-.16,2.28c-.11,1.09-.69,2.43-.26,3.21,1,1.91.51,3.7.34,5.57-.19,2.23-.27,4.47-.34,6.71a4.31,4.31,0,0,0,.25,2.33c1.64,2.36.93,4.95,1,7.45,0,1.6,0,3.19-.1,4.78,0,.95.2,2.1-.25,2.8-1.45,2.33-.82,4.61-.32,6.95a26.66,26.66,0,0,1,.7,4.23q.53,9.81.9,19.64c.26,6.7.46,13.41.67,20.12,0,1.26,0,2.52,0,3.64-4.54,2.15-19.69,3.13-27.89,1.88a12.83,12.83,0,0,1-.5-2.61c0-16.32-.07-32.63,0-49,0-11.83.24-23.66.36-35.49,0-1.76,0-3.47-1-5.1a3.15,3.15,0,0,1-.38-2.7c1.48-2.29.81-4.63.49-6.94a11.76,11.76,0,0,1,.26-5.1,14.94,14.94,0,0,0,.44-6.17c-.58-4-.18-8-.22-11.94,0-1.73.14-3.44-.83-5.12-.48-.84-.23-2.18-.12-3.27.17-1.74.51-3.46.75-5.07l-2.53-3a19.74,19.74,0,0,0,2.59-3.5c1-2.42,2.36-4.85.34-7.58-.52-.7,0-2.16,0-3.27Zm31.32,39.83c1.57,1.39,2.1,3.39,4.44,4a22.4,22.4,0,0,0,.33-7.2c0-.26-.37-.47-.59-.73h-2.89C574.06,123.61,573.69,124.76,573.18,126.32ZM559.27,231.59c-1.57.76-1.56,2.08-2.84,2.47s-1.09,1.9-.64,2.89a2.93,2.93,0,0,0,1.87,1.18,1.32,1.32,0,0,0,1.57-1.38C559.34,235.18,559.27,233.59,559.27,231.59Zm8.1-9.31v15.18a121.07,121.07,0,0,0,.89-13.57C568.26,223.62,568,223.35,567.37,222.28Zm-12.24-89.53c2.37-.93,3-1.74,2.31-3.23a1.79,1.79,0,0,0-1.37-.9,1.6,1.6,0,0,0-1.19,1A17,17,0,0,0,555.13,132.75Z"/><path d="M761.46,295.28c2.34,13.94,3.84,27.65,6.48,41.21,1.16-1.74.91-3.62,1.14-5.41.26-2.07.48-4.13.67-6.2.18-1.91.28-3.83.46-5.74s.41-3.81.6-5.72.37-3.82.54-5.73c.18-2.07.32-4.14.54-6.21.19-1.89.46-3.78.72-5.84,3.44-.82,6.71-.41,9.65-.31.44.38.6.46.67.59a.74.74,0,0,1,.09.46q-3.78,36-7.57,72a6.11,6.11,0,0,1-.33,1.39,5.93,5.93,0,0,1-.61,1,56.76,56.76,0,0,1-10.93.11c-1.36-5.14-1.72-10.23-2.46-15.25s-1.4-10.13-2.26-15.17-1-10.12-2.8-15c-2.74,15-4.52,30.09-7,45.23a55.08,55.08,0,0,1-11.33.2c-1.56-5-1.35-10.16-2.08-15.16s-1-9.86-1.53-14.78c-.53-5.09-1.11-10.17-1.67-15.25s-1.27-9.84-1.6-14.78-1.64-10-1.16-15.44a40.65,40.65,0,0,1,9.92,0c1.31,6.91,1.34,13.93,2,20.86s1.13,13.68,1.69,20.52c1.26-.06,1.31-.94,1.42-1.69q2.57-16.83,5.09-33.65c.29-1.9.66-3.78,1-5.77C754.2,294.7,757.52,295.32,761.46,295.28Z"/><path d="M463.53,295.49a43.11,43.11,0,0,1,10.35-.07l12.49,39.71c1.57-.25,1.11-1.24,1.11-1.87,0-10.71,0-21.43,0-32.15,0-1.74.06-3.48.09-5.38,3.5-1,6.75-.53,9.72-.34a4.8,4.8,0,0,1,.6.66,1,1,0,0,1,.13.45c.05,1.44.13,2.88.13,4.31q0,34.32-.09,68.63a5.19,5.19,0,0,1-.44,1.25c-3.11.64-6.4.31-10,.14-2.62-6.5-4.28-13.33-6.48-20s-4-13.3-6.43-20.23c-1.37,1.75-.94,3.22-.95,4.58,0,10.08,0,20.16,0,30.24,0,1.73.29,3.51-.6,5.32-1.09.09-2.18.23-3.28.24-2.06,0-4.13,0-6.12,0a5.58,5.58,0,0,1-.63-1.6q-.08-36-.07-72A8.71,8.71,0,0,1,463.53,295.49Z"/><path d="M237.77,370.89h-9.4c-1.33-1.11-1-2.48-1-3.7,0-8.15,0-16.3,0-24.45q0-20.87,0-41.72c0-1.73.09-3.46.13-5.23,1.88-1,3.66-.51,5.37-.59s3.18,0,4.9,0c.5,1.18,1,2.15,1.33,3.19q5.26,16.68,10.47,33.37a11,11,0,0,0,1.91,4.09c.32-4.13.16-7.44.19-10.73s0-6.39,0-9.59c0-3.36,0-6.71,0-10.07,0-3.17.06-6.34.09-9.77,3.52-.91,6.82-.3,9.92-.44,1.37,1.84.89,3.66.9,5.36q0,29.49,0,59c0,2.72,0,5.43,0,8.15,0,.93-.23,1.86-.36,2.94-3.46.65-6.75.33-10.25.21-.53-1.43-1.07-2.73-1.49-4.07q-5.25-16.68-10.48-33.37a9.7,9.7,0,0,0-1.48-2.92,40,40,0,0,0-.43,7.93c0,2.72,0,5.43,0,8.15v7.67c0,2.72,0,5.44,0,8.15S238.35,367.8,237.77,370.89Z"/><path d="M655.72,295.41a53,53,0,0,1,10.24,0c.12,1,.26,1.8.29,2.56.42,12.68.14,68.3-.38,72.58-3.18.91-6.44.39-10,.3-.13-1.47-.34-2.7-.34-3.92,0-7.67,0-15.34,0-23,0-1.58-.09-3.15-.15-4.93-3.44-1-6.7-.42-9.68-.43-1.42,1.54-1,3.05-1,4.43,0,7.67,0,15.34,0,23,0,1.56.35,3.21-.74,4.83-1.15.06-2.41.16-3.67.18-1.91,0-3.81,0-6,0a25.72,25.72,0,0,1-.5-3.46q0-34.51,0-69c0-.92.15-1.85.25-3a36.59,36.59,0,0,1,10,0c1,1.65.65,3.28.65,4.85,0,7.35,0,14.7,0,22.05,0,1.58-.3,3.2.48,4.69,3.4.85,5.75.88,10.08.06.1-1.15.28-2.38.29-3.62,0-7.67,0-15.34,0-23C655.53,298.93,655.65,297.36,655.72,295.41Z"/><path d="M851.3,335.82l2.49,1.76a10.41,10.41,0,0,1,4.67,9q0,6.46,0,12.94c0,2.88,0,5.75,0,8.63a24.57,24.57,0,0,1-.29,2.51,36.1,36.1,0,0,1-10.18.16c-.11-1.36-.26-2.43-.27-3.51,0-6.39,0-12.78,0-19.17,0-5.72-1.28-6.91-7.14-6.91-.95,0-1.9.11-3.13.18a22.63,22.63,0,0,0-.46,3.2c-.05,7,0,14.06,0,21.09,0,1.57-.12,3.13-.18,4.62-3.67.94-5.85,1-10.27.18a19.44,19.44,0,0,1-.36-2.18c-.4-7.78-.09-68.95.37-72.58a14.69,14.69,0,0,1,2.61-.49c4.8,0,9.59,0,14.38,0a19.74,19.74,0,0,1,3.34.29c6.75,1.27,10.74,5.45,11.39,12.32.35,3.65.22,7.34.27,11,0,2.24,0,4.48-.05,6.71a10,10,0,0,1-4.93,8.78C852.84,334.71,852.22,335.18,851.3,335.82Zm-13.55-29.9c-1.5,2.62-.64,5.37-.78,8a79.21,79.21,0,0,0,0,8.58c.14,2.62-.75,5.36.68,7.79a42.11,42.11,0,0,0,5.86,0c2.63-.39,4-1.9,4.11-4.48.13-5.08.14-10.17,0-15.25-.08-2.77-1.72-4.28-4.58-4.54C841.32,305.79,839.56,305.92,837.75,305.92Z"/><path d="M157.89,370.66a44.49,44.49,0,0,1-10,.21,33.76,33.76,0,0,1-.46-3.82c0-6.88,0-13.76,0-20.63q0-22.8,0-45.58c0-1.73-.23-3.49.49-5.29a11.75,11.75,0,0,1,1.89-.33c5.12,0,10.24-.07,15.36,0a18,18,0,0,1,4.25.62c5.87,1.52,9.29,5.38,10,11.43a56.24,56.24,0,0,1,.27,6.23c0,3.52-.06,7,0,10.55.12,4.72-1.44,8.45-5.79,10.72a3.29,3.29,0,0,0-.73.61,2.83,2.83,0,0,0-.32.63c1.07.8,2.23,1.57,3.27,2.48a8.75,8.75,0,0,1,3.41,6.63c0,8.31-.05,16.61-.11,24.92,0,.13-.16.25-.49.75a42.39,42.39,0,0,1-9.43,0,22.51,22.51,0,0,1-.48-3.2c0-6.23,0-12.47,0-18.71a24.34,24.34,0,0,0-.21-3.82,4.12,4.12,0,0,0-3.83-3.7c-2-.2-4.11-.05-6.47-.05a37.87,37.87,0,0,0-.39,3.84c0,6.88,0,13.76,0,20.64C158.11,367.35,158,368.91,157.89,370.66Z"/><path d="M809.26,371c-1.36-5.37-1.42-10.69-2.55-16a35.36,35.36,0,0,0-9.36-.15c-1.7,5.07-1.33,10.45-2.77,15.64-3.25,1-6.53.39-10.12.38-.16-5.45.88-10.43,1.39-15.46s1-9.85,1.6-14.78c.57-5.08,1.17-10.16,1.76-15.24.58-4.92,1.14-9.85,1.75-14.76s.83-10.16,1.92-15.05c5.08-.67,14.45-.57,17.86.14,1.06,4.65,8.62,70.46,8.57,74.82a8.5,8.5,0,0,1-1.76.4C814.85,371,812.15,371,809.26,371Z"/><path d="M210.37,370.82c-.79-5.41-1.52-10.45-2.28-15.62-3.24-.88-6.34-.63-9.75-.18-.8,5.29-1.57,10.46-2.35,15.68a31.94,31.94,0,0,1-10.55-.16Q189.63,333,194,295.86c3.61-.82,12.78-.95,18-.28a11.3,11.3,0,0,1,.65,2.16q4.08,35.73,8.09,71.47a5.77,5.77,0,0,1-.38,1.61A56.39,56.39,0,0,1,210.37,370.82ZM203,310.37c-1.76,10.62-3.43,29.6-2.87,33.42a14.61,14.61,0,0,0,6.31-.16C206.83,338.89,204.28,314.56,203,310.37Z"/><path d="M437.37,370.65a13.38,13.38,0,0,1-2.09.33c-2.54,0-5.09,0-7.73,0-1.53-2.63-1.09-5.44-1.67-8s-.4-5.4-1.36-8a36.32,36.32,0,0,0-9.31-.09c-1.59,5.22-1.21,10.61-2.81,15.79a30.44,30.44,0,0,1-10-.07,30.38,30.38,0,0,1,0-3.46c2.83-23.8,5.36-47.63,8.23-71.3,3.71-.84,12.95-.93,17.84-.26C429.62,299.38,437,360.93,437.37,370.65Z"/><path d="M335.11,295.19c5.42,0,10.2,0,15,0,.94,0,1.88.13,2.75.2,1.5,4.15,8.51,68.87,8.85,75-3.19,1.16-6.47.43-10,.46-1.6-5.17-1.37-10.52-2.62-15.51-3.51-.92-5.44-.94-9.73-.1-.76,5.05-1.53,10.21-2.32,15.43a32.21,32.21,0,0,1-10.55-.17C329.28,345.49,332.1,320.6,335.11,295.19Z"/><path d="M387.84,341.56l-4.87-.73a17.88,17.88,0,0,1-.39-2.48c0-2.38,0-4.76.07-7.05,3.47-1,10.43-1.09,15.63-.28a24.1,24.1,0,0,1,.3,2.65c0,7.51.1,15,0,22.54a26.42,26.42,0,0,1-1.13,7.05,11.34,11.34,0,0,1-7.88,7.73,23.57,23.57,0,0,1-13.24.27c-5.37-1.38-8.47-4.93-9.52-10.26a36.29,36.29,0,0,1-.6-6.67q-.07-21.33,0-42.68a40.61,40.61,0,0,1,.47-5.72c.88-6,4.24-9.93,10.22-11.26a24.66,24.66,0,0,1,11.86.18,12.12,12.12,0,0,1,9.08,9,18.31,18.31,0,0,1,.49,8.63c-3.35.95-6.64.36-10.09.37-.17-1.55-.22-2.81-.46-4-.54-2.71-2.63-4.13-5.69-4-2.83.14-4.57,1.63-4.88,4.29a28.71,28.71,0,0,0-.09,3.35V353.7a28.94,28.94,0,0,0,.09,3.36c.33,2.64,2.07,4.08,4.95,4.2,3,.13,5.18-1.39,5.64-4a3.91,3.91,0,0,0,.05-.48c0-1.12,0-2.24,0-3.36C387.85,349.58,387.84,345.76,387.84,341.56Z"/><path d="M28.7,370.86c-6.26.22-12,.27-18,0-1.23-6.45-1.62-12.8-2.36-19.09s-1.47-12.37-2.2-18.56S4.6,320.53,4,314.18c-.58-6.15-1.7-12.25-1.89-18.7a34.44,34.44,0,0,1,10.48.13q3.35,30.25,6.68,60.42c1.85-6.65,2.24-13.42,3-20.13s1.47-13.34,2.27-20,1.14-13.62,2.44-20.5h9.58c1,.89.75,1.88.65,2.78-1.41,12.22-2.86,24.43-4.26,36.64-1.11,9.68-2.17,19.36-3.27,29C29.43,366.08,29.07,368.28,28.7,370.86Z"/><path d="M514.79,352.3c.23,1.78.3,3.05.58,4.28.54,2.33,2.29,3.56,5,3.64s5.09-1.31,5.41-3.73c.68-5.15.65-10.29-3.14-14.48a79.81,79.81,0,0,0-5.87-5.61c-1.07-1-2.31-1.71-3.44-2.61a22.67,22.67,0,0,1-9-16.31,38.28,38.28,0,0,1,.53-11.45c1.16-5.33,4.28-8.8,9.63-10.15a24.11,24.11,0,0,1,12.31.07,12.21,12.21,0,0,1,9.08,9,18.88,18.88,0,0,1,.54,8.68c-3.29,1-6.57.51-10.07.3-.17-1.38-.25-2.63-.5-3.83-.57-2.84-2.46-4.23-5.55-4.15s-4.76,1.57-5.12,4.56c-.8,6.62.79,12.38,6.12,16.74,2,1.62,4,3.17,6,4.75,3.85,3,6.91,6.68,8.32,11.45a35,35,0,0,1,.4,17.07c-1.1,5.34-4.57,8.58-9.93,9.86a23.65,23.65,0,0,1-12.3-.3,11.64,11.64,0,0,1-7.59-6.16,18.57,18.57,0,0,1-1.72-11.29C507.86,351.63,511.13,352.1,514.79,352.3Z"/><path d="M300.86,313.88c-1.26.1-2.19.23-3.11.24-2.22,0-4.44,0-6.94,0-.27-1.66-.44-3.05-.74-4.4-.59-2.63-2.33-3.85-5.28-3.83s-4.92,1.43-5.23,4c-.7,5.72-.25,11.23,4.29,15.51,2,1.86,4.08,3.57,6.12,5.35,1.81,1.57,3.74,3,5.38,4.75a20.46,20.46,0,0,1,5.36,11,37.84,37.84,0,0,1-.18,13.34c-1.09,5.55-4.32,9.09-9.89,10.46a24,24,0,0,1-11.37,0,12.58,12.58,0,0,1-10-9.83c-.72-2.77-.73-4.54.08-8.21a50.29,50.29,0,0,1,9.6-.05c.2,1.38.31,2.61.55,3.8.58,2.82,2.54,4.28,5.54,4.18s4.79-1.63,5.14-4.6c.74-6.21-.48-11.78-5.45-16.05-1.69-1.46-3.44-2.84-5.14-4.29s-3.47-2.83-5-4.41a19,19,0,0,1-5.09-9.09,37.55,37.55,0,0,1-.15-16.14c1.08-5.36,4.53-8.67,9.89-9.88a24,24,0,0,1,12.77.43,11.67,11.67,0,0,1,7.9,7.75A20,20,0,0,1,300.86,313.88Z"/><path d="M701.5,360.64c0,2.38.1,4.43.08,6.48,0,1.09-.13,2.18-.22,3.51-3,.72-5.86.3-8.68.37s-5.75,0-8.63,0h-8.29c-1.46-1.52-1-3-1-4.4,0-10.07,0-20.15,0-30.22q0-18,0-36c0-1.56.13-3.12.22-4.9,3.07-.62,5.93-.26,8.76-.32s5.76,0,8.64,0l8.69,0c1.06,3.57.43,6.82.47,10.35-5.4.66-10.51-.07-15.67.5-.8,2.55-.37,4.95-.45,7.29s-.06,4.48,0,6.72-.32,4.75.4,7.3c4.16.79,8.33-.08,12.58.6.91,3.33.44,6.59.31,10.13-4.3.77-8.47,0-12.75.59-1.13,3.44-.4,6.95-.52,10.39s0,7,.06,10.64C690.73,360.94,695.89,359.65,701.5,360.64Z"/><path d="M71.69,360.59c.07,1.38.17,2.47.17,3.55,0,2.05,0,4.1-.07,6.35-4.65,1-9.1.42-13.5.5s-8.55.19-12.93-.16a13.68,13.68,0,0,1-.39-2.11q0-36.39,0-72.85c3-1.26,5.89-.54,8.7-.66,3-.12,6.07-.07,9.1,0,2.84.05,5.7-.27,8.84.3a45.66,45.66,0,0,1,.1,9.71c-2.64,1.22-5.37.46-8,.63s-5-.17-7.45.25c-.88,4.08-.89,17.24,0,21.34,1.91.5,4,.22,6,.28s4.11.05,6.06.07c1,3.6,1,5.64.24,10.35-1.9.57-4,.27-6,.31s-4.12,0-6.32,0c-1.22,3.68-.49,7.19-.61,10.63s0,7,0,10.65C60.94,360.91,66.08,359.7,71.69,360.59Z"/><path d="M141,360.32V370.6c-3,.78-5.84.33-8.66.4-3,.08-6.08,0-9.11,0a61.5,61.5,0,0,1-8.73-.26c-.12-1-.27-1.76-.3-2.52-.43-12.47-.14-68.32.4-72.62,2.68-.87,5.56-.32,8.37-.4,3-.1,6.07,0,9.1,0,2.85,0,5.69.07,8.45.1,1,1.79.63,3.42.69,5s0,3.18,0,5a16.77,16.77,0,0,1-2.85.58c-3.2.07-6.4,0-9.59.05-1.09,0-2.18.16-3.18.24-.93,3.61-1,16.69-.13,21.31,4,.74,8.13-.09,12.43.51,1.19,3.24.53,6.53.42,10-4.24,1.26-8.61,0-12.94.89-.88,2.36-.41,4.76-.49,7.1s-.07,4.48,0,6.71-.32,4.75.38,7.27c2.6.69,5.15.3,7.66.37S138,360.29,141,360.32Z"/><path d="M570.7,295.69a40.61,40.61,0,0,1,0,9.67c-3,1.06-5.93,0-8.84.82-.92,1.62-.59,3.41-.6,5.11,0,12.64,0,25.28,0,37.91,0,5.76,0,11.52,0,17.28,0,1.41.27,2.89-.75,4.35h-9.34c-1.24-1.72-.76-3.54-.76-5.25q-.06-26.86,0-53.75v-5.21c-3.15-1.49-6.31-.18-9.41-1.16-.82-3.12-.18-6.28-.41-9.53a7.1,7.1,0,0,1,1.9-.68c9,0,17.92,0,26.88,0A7.38,7.38,0,0,1,570.7,295.69Z"/><path d="M78.13,305.58c-.11-1-.26-1.79-.27-2.55,0-2.37,0-4.75,0-7.32,3.55-1,6.89-.41,10.18-.51s6.39-.05,9.59,0a91.76,91.76,0,0,1,10.16.23,38.5,38.5,0,0,1,.18,9.82c-2.93,1.32-6.1,0-9,1-.87,1.72-.56,3.5-.56,5.21q0,26.85,0,53.7c0,1.73-.1,3.46-.16,5.1a20.16,20.16,0,0,1-10.11.2c-.87-1.61-.49-3.4-.49-5.12q0-26.85,0-53.7c0-1.73-.09-3.45-.15-5.51Z"/><path d="M617.77,370.86h-9.43c-1.36-1.09-1-2.45-1-3.68,0-6.38,0-12.77,0-19.16q0-18.21,0-36.42c0-1.72.35-3.51-.58-5.34-2.68-1-5.63.09-8.62-.74-1.12-3.16-.52-6.41-.39-9.31a6.17,6.17,0,0,1,.58-.71.92.92,0,0,1,.46-.14q12.45-.11,24.9-.17c1.1,0,2.21.11,3.27.17,1.06,3.06,1.13,4.84.38,10.1-2.66.89-5.59,0-8.7.71a15.81,15.81,0,0,0-.55,3c0,6.38,0,12.77,0,19.16q0,18.69,0,37.38C618,367.24,617.86,368.81,617.77,370.86Z"/><path d="M454.61,371h-9.9a25.32,25.32,0,0,1-.56-3.39c0-5.12,0-10.24,0-15.36q0-25.66,0-51.33c0-1.73.1-3.45.16-5.41a39.6,39.6,0,0,1,9.63-.16c1.24,1.1.92,2.45.92,3.68,0,9.92,0,19.83,0,29.75q0,18.46,0,36.94C454.85,367.31,454.71,368.87,454.61,371Z"/></g></g></svg>