<svg xmlns="http://www.w3.org/2000/svg" viewBox="0 0 856.38 78.05"><defs><style>.cls-1{fill:#fff;}</style></defs><title>Asset 2</title><g id="Layer_2" data-name="Layer 2"><g id="AF-bw-flat_Image" data-name="AF-bw-flat Image"><path class="cls-1" d="M759.35,1.25c-3.94,0-7.26-.59-10.63.45-.35,2-.72,3.87-1,5.76q-2.55,16.83-5.09,33.66c-.11.75-.16,1.62-1.42,1.69-.56-6.84-1-13.7-1.69-20.52s-.74-13.95-2-20.86a40.16,40.16,0,0,0-9.92,0c-.48,5.39.83,10.39,1.16,15.44s1,9.85,1.6,14.77c.56,5.09,1.14,10.17,1.67,15.25.52,4.93.82,9.89,1.53,14.79s.52,10.14,2.08,15.16a56.52,56.52,0,0,0,11.33-.2c2.52-15.14,4.3-30.24,7-45.23,1.8,4.88,1.95,10,2.8,15s1.51,10.11,2.26,15.17,1.1,10.1,2.46,15.25a58.42,58.42,0,0,0,10.93-.11,5.93,5.93,0,0,0,.61-1,6.07,6.07,0,0,0,.33-1.4q3.79-36,7.57-72a.77.77,0,0,0-.09-.47c-.07-.13-.23-.21-.67-.58-2.94-.1-6.21-.52-9.65.3-.26,2.07-.53,4-.72,5.85-.22,2.07-.36,4.14-.54,6.21q-.25,2.86-.54,5.73c-.19,1.91-.42,3.81-.6,5.72s-.28,3.83-.46,5.74S767.23,35,767,37c-.23,1.79,0,3.68-1.14,5.42C763.19,28.89,761.69,15.19,759.35,1.25Zm-297.93.21A8.77,8.77,0,0,0,461,3.35q0,36,.07,72a5.58,5.58,0,0,0,.63,1.6c2,0,4.06.06,6.12,0,1.1,0,2.19-.16,3.28-.24.89-1.81.59-3.6.6-5.33,0-10.08,0-20.15,0-30.23,0-1.36-.42-2.84.95-4.59,2.39,6.93,4.25,13.64,6.43,20.23s3.86,13.49,6.48,20c3.59.16,6.88.5,10-.14a5.2,5.2,0,0,0,.45-1.25q.06-34.32.09-68.63c0-1.44-.08-2.87-.13-4.31a1,1,0,0,0-.13-.45,5.24,5.24,0,0,0-.6-.67c-3-.18-6.22-.61-9.72.35,0,1.9-.09,3.63-.09,5.37,0,10.72,0,21.44,0,32.16,0,.62.46,1.62-1.11,1.86L471.77,1.39A43.11,43.11,0,0,0,461.42,1.46ZM235.66,76.85c.58-3.09.28-5.79.33-8.47s0-5.43,0-8.15V52.56c0-2.72,0-5.44,0-8.15a40,40,0,0,1,.43-7.93,9.59,9.59,0,0,1,1.48,2.92q5.25,16.68,10.48,33.36c.42,1.34,1,2.64,1.49,4.08,3.5.11,6.79.44,10.25-.22.13-1.08.34-2,.36-2.93.05-2.72,0-5.44,0-8.16q0-29.47,0-59c0-1.71.47-3.53-.9-5.36-3.1.14-6.4-.47-9.92.44,0,3.42-.08,6.59-.09,9.77,0,3.35,0,6.71,0,10.07,0,3.19,0,6.39,0,9.59s.13,6.59-.2,10.72a11.05,11.05,0,0,1-1.9-4.09Q242.25,21,237,4.33c-.32-1-.83-2-1.33-3.18-1.73,0-3.32-.06-4.9,0s-3.49-.37-5.37.58c0,1.78-.13,3.51-.13,5.23q0,20.87,0,41.72c0,8.15,0,16.3,0,24.46,0,1.22-.36,2.59,1,3.69Zm418-75.48c-.07,2-.19,3.52-.19,5.09,0,7.67,0,15.34,0,23,0,1.23-.19,2.47-.29,3.61-4.33.83-6.68.8-10.08,0-.78-1.49-.48-3.12-.49-4.69,0-7.35,0-14.7,0-22,0-1.57.33-3.21-.65-4.86a37.4,37.4,0,0,0-10,0c-.1,1.18-.25,2.11-.25,3q0,34.52,0,69a25.22,25.22,0,0,0,.49,3.45c2.15,0,4.05,0,6,0,1.26,0,2.52-.11,3.67-.17,1.09-1.63.74-3.27.74-4.84,0-7.67,0-15.34,0-23,0-1.38-.4-2.89,1-4.42,3,0,6.24-.56,9.68.43.06,1.77.15,3.35.15,4.92,0,7.67,0,15.34,0,23,0,1.23.21,2.45.34,3.93,3.55.09,6.81.6,10-.3.52-4.29.8-59.9.38-72.58,0-.76-.17-1.52-.29-2.56A53.82,53.82,0,0,0,653.61,1.37ZM849.19,41.78c.92-.63,1.54-1.1,2.2-1.51a9.94,9.94,0,0,0,4.93-8.77c.06-2.24.07-4.47,0-6.71,0-3.67.08-7.37-.27-11-.65-6.87-4.64-11.06-11.39-12.32a18.76,18.76,0,0,0-3.34-.29c-4.79,0-9.58,0-14.38,0a14.69,14.69,0,0,0-2.61.49c-.46,3.63-.77,64.8-.37,72.58a18.88,18.88,0,0,0,.36,2.17c4.42.8,6.6.76,10.27-.18.06-1.48.18-3,.18-4.61,0-7,0-14.06,0-21.09a21.4,21.4,0,0,1,.46-3.21c1.23-.07,2.18-.17,3.13-.17,5.86,0,7.11,1.18,7.14,6.91,0,6.39,0,12.78,0,19.17,0,1.08.16,2.15.27,3.51a36.47,36.47,0,0,0,10.18-.16,25.06,25.06,0,0,0,.29-2.52c0-2.87,0-5.75,0-8.62q0-6.48,0-13a10.43,10.43,0,0,0-4.67-9ZM155.78,76.63c.09-1.76.22-3.32.23-4.88,0-6.87,0-13.75,0-20.63a37.87,37.87,0,0,1,.39-3.84c2.36,0,4.43-.15,6.47,0a4.13,4.13,0,0,1,3.83,3.7,24.46,24.46,0,0,1,.21,3.83c0,6.23,0,12.47,0,18.71a22.37,22.37,0,0,0,.48,3.19,41.83,41.83,0,0,0,9.43,0c.33-.5.49-.63.49-.75.06-8.31.14-16.62.11-24.92a8.79,8.79,0,0,0-3.41-6.64c-1-.9-2.2-1.67-3.27-2.48a2.68,2.68,0,0,1,.32-.62,2.83,2.83,0,0,1,.73-.61c4.35-2.27,5.91-6,5.79-10.72-.08-3.52,0-7,0-10.55a56.24,56.24,0,0,0-.27-6.23c-.75-6-4.17-9.91-10-11.43a18,18,0,0,0-4.26-.62c-5.11-.07-10.23,0-15.35,0a10.74,10.74,0,0,0-1.89.33c-.72,1.8-.49,3.56-.49,5.28q0,22.8,0,45.58c0,6.88,0,13.76,0,20.63a33.22,33.22,0,0,0,.46,3.82A43.91,43.91,0,0,0,155.78,76.63ZM807.15,77c2.89,0,5.59,0,8.29,0a8.5,8.5,0,0,0,1.76-.4c0-4.37-7.51-70.18-8.57-74.82-3.41-.71-12.78-.81-17.86-.15-1.09,4.9-1.3,10-1.92,15.05s-1.17,9.84-1.75,14.77-1.19,10.16-1.76,15.24q-.84,7.38-1.6,14.78c-.51,5-1.55,10-1.39,15.46,3.59,0,6.87.57,10.12-.39,1.44-5.19,1.07-10.57,2.77-15.63a35.36,35.36,0,0,1,9.36.14C805.73,66.27,805.79,71.58,807.15,77Zm-598.89-.18a55.51,55.51,0,0,0,10,0,5.85,5.85,0,0,0,.38-1.61q-4-35.75-8.09-71.47a11.62,11.62,0,0,0-.65-2.17c-5.24-.66-14.41-.54-18,.28q-4.4,37.16-8.54,74.69a31.94,31.94,0,0,0,10.55.16c.78-5.22,1.55-10.39,2.35-15.68,3.41-.46,6.51-.7,9.75.18C206.74,66.34,207.47,71.38,208.26,76.78Zm227-.16c-.41-9.72-7.75-71.27-8.91-75.06-4.89-.67-14.13-.57-17.84.26-2.87,23.67-5.4,47.51-8.23,71.3a30.57,30.57,0,0,0,0,3.47,30.71,30.71,0,0,0,10,.07c1.6-5.19,1.22-10.57,2.81-15.79a36.31,36.31,0,0,1,9.31.08c1,2.59.76,5.37,1.36,8s.14,5.4,1.67,8c2.64,0,5.19,0,7.73,0A16.28,16.28,0,0,0,435.26,76.62ZM333,1.15c-3,25.42-5.83,50.31-8.63,75.36,3.62.8,6.92.52,10.55.17.79-5.22,1.56-10.39,2.32-15.43,4.29-.85,6.22-.82,9.73.09,1.25,5,1,10.34,2.62,15.52,3.52,0,6.8.7,10-.46-.34-6.16-7.35-70.89-8.85-75-.87-.07-1.81-.2-2.75-.21C343.2,1.14,338.42,1.15,333,1.15Zm52.73,46.38c0,4.2,0,8,0,11.83,0,1.12,0,2.24,0,3.36a3.56,3.56,0,0,1-.05.47c-.46,2.65-2.6,4.17-5.64,4-2.88-.12-4.62-1.56-4.95-4.21a28.71,28.71,0,0,1-.09-3.35V18.43a28.94,28.94,0,0,1,.09-3.36c.31-2.66,2.05-4.14,4.88-4.29,3.06-.15,5.15,1.27,5.68,4,.25,1.22.3,2.48.47,4,3.45,0,6.74.58,10.09-.37a18.3,18.3,0,0,0-.49-8.63,12.1,12.1,0,0,0-9.08-9A24.54,24.54,0,0,0,374.74.64c-6,1.33-9.34,5.24-10.22,11.25a40.75,40.75,0,0,0-.47,5.73Q364,39,364.06,60.3a36.29,36.29,0,0,0,.6,6.67c1,5.32,4.15,8.88,9.52,10.26A23.57,23.57,0,0,0,387.42,77a11.33,11.33,0,0,0,7.88-7.74,26.29,26.29,0,0,0,1.13-7c.14-7.51.06-15,0-22.53a24.1,24.1,0,0,0-.3-2.65c-5.2-.81-12.16-.7-15.63.27,0,2.3-.09,4.68-.07,7.05a17.44,17.44,0,0,0,.39,2.48ZM26.59,76.83c.37-2.58.73-4.78,1-7,1.1-9.67,2.16-19.36,3.27-29,1.4-12.22,2.85-24.43,4.26-36.64.1-.91.37-1.9-.65-2.79H24.87c-1.3,6.89-1.63,13.73-2.44,20.5s-1.53,13.33-2.27,20S19,55.35,17.16,62Q13.83,31.8,10.48,1.58A34.12,34.12,0,0,0,0,1.45C.19,7.89,1.31,14,1.89,20.14c.6,6.36,1.42,12.7,2.16,19s1.48,12.37,2.2,18.55S7.38,70.38,8.61,76.82C14.62,77.09,20.33,77.05,26.59,76.83ZM512.68,58.27c-3.66-.2-6.93-.67-10.28.28a18.6,18.6,0,0,0,1.72,11.3A11.64,11.64,0,0,0,511.71,76a23.65,23.65,0,0,0,12.3.29c5.36-1.27,8.83-4.51,9.93-9.86a35,35,0,0,0-.4-17.06c-1.41-4.78-4.47-8.42-8.32-11.45-2-1.58-4-3.13-6-4.75-5.33-4.37-6.92-10.12-6.12-16.74.36-3,2-4.49,5.12-4.57s5,1.31,5.55,4.15c.25,1.21.33,2.45.5,3.84,3.5.21,6.78.7,10.07-.31a18.84,18.84,0,0,0-.54-8.67,12.21,12.21,0,0,0-9.08-9,24.22,24.22,0,0,0-12.31-.07c-5.35,1.36-8.47,4.83-9.63,10.16a38.26,38.26,0,0,0-.53,11.45,22.69,22.69,0,0,0,9,16.31c1.13.89,2.37,1.65,3.44,2.6A79.94,79.94,0,0,1,520.51,48c3.79,4.18,3.82,9.32,3.14,14.48-.32,2.41-2.65,3.81-5.41,3.73s-4.44-1.31-5-3.64C513,61.32,512.91,60,512.68,58.27ZM298.75,19.84a20,20,0,0,0-1-9.94,11.66,11.66,0,0,0-7.9-7.74,24,24,0,0,0-12.77-.43c-5.36,1.2-8.81,4.52-9.89,9.87a37.6,37.6,0,0,0,.15,16.15,19.07,19.07,0,0,0,5.09,9.09c1.56,1.58,3.33,3,5,4.41s3.45,2.83,5.14,4.29c5,4.27,6.19,9.84,5.45,16.05-.35,3-2.12,4.5-5.14,4.6s-5-1.36-5.54-4.18c-.24-1.2-.35-2.42-.55-3.8a50.32,50.32,0,0,0-9.6,0c-.81,3.68-.8,5.44-.08,8.22a12.58,12.58,0,0,0,10,9.83,24,24,0,0,0,11.37,0c5.57-1.36,8.8-4.9,9.89-10.45a37.89,37.89,0,0,0,.18-13.35,20.39,20.39,0,0,0-5.36-11c-1.64-1.73-3.57-3.18-5.38-4.75-2-1.78-4.14-3.5-6.12-5.35-4.54-4.29-5-9.79-4.29-15.52.31-2.52,2.39-3.91,5.23-3.94s4.69,1.19,5.28,3.82c.3,1.36.47,2.74.74,4.41,2.5,0,4.72,0,6.94,0C296.56,20.07,297.49,20,298.75,19.84ZM699.39,66.61c-5.61-1-10.77.3-16.06-.92,0-3.65-.18-7.14-.06-10.63s-.61-7,.52-10.39c4.28-.64,8.45.18,12.75-.59.13-3.54.6-6.8-.31-10.13-4.25-.68-8.42.19-12.58-.6-.72-2.55-.33-5-.4-7.31s-.07-4.47,0-6.71-.35-4.74.45-7.29c5.16-.57,10.27.16,15.67-.5,0-3.54.59-6.79-.47-10.35l-8.69,0c-2.88,0-5.76,0-8.64,0s-5.69-.29-8.76.33c-.09,1.78-.22,3.34-.22,4.9q0,18,0,36c0,10.07,0,20.14,0,30.22,0,1.37-.41,2.88,1,4.39h8.29c2.88,0,5.76.06,8.63,0s5.69.35,8.68-.37c.09-1.34.22-2.42.22-3.51C699.49,71,699.42,69,699.39,66.61Zm-629.81,0c-5.61-.89-10.75.32-16.07-.87,0-3.66-.14-7.16,0-10.65s-.61-6.94.61-10.62c2.2,0,4.26,0,6.32,0s4.1.26,6-.32c.78-4.7.74-6.75-.24-10.34-2,0-4,0-6.06-.08s-4.11.22-6-.27c-.87-4.11-.86-17.26,0-21.34,2.4-.42,4.94-.1,7.45-.26s5.37.59,8-.62a45.66,45.66,0,0,0-.1-9.71c-3.14-.57-6-.26-8.84-.31-3,0-6.07-.11-9.1,0-2.81.11-5.7-.6-8.7.66q0,36.48,0,72.85a13.68,13.68,0,0,0,.39,2.11c4.38.34,8.66.23,12.93.15s8.85.51,13.5-.49c0-2.25.08-4.3.07-6.35C69.75,69,69.65,67.94,69.58,66.56Zm69.34-.27c-3,0-5.54,0-8.07-.09s-5.07.31-7.66-.37c-.7-2.52-.32-4.92-.38-7.27s-.08-4.48,0-6.71-.39-4.75.49-7.11c4.33-.89,8.7.37,12.94-.88.11-3.44.77-6.73-.42-10-4.3-.6-8.46.22-12.43-.52-.88-4.61-.8-17.69.13-21.3,1-.08,2.09-.23,3.18-.24,3.19,0,6.39,0,9.58-.05a16.77,16.77,0,0,0,2.86-.59c0-1.8.05-3.39,0-5s.35-3.17-.69-5c-2.76,0-5.6-.09-8.45-.1-3,0-6.07-.08-9.1,0-2.81.09-5.69-.46-8.37.41-.54,4.29-.83,60.14-.4,72.62,0,.76.18,1.52.3,2.52a64.61,64.61,0,0,0,8.73.26c3,0,6.07.06,9.11,0,2.82-.08,5.69.37,8.66-.4ZM568.59,1.66a7,7,0,0,0-1.41-.44q-13.44,0-26.88,0a6.77,6.77,0,0,0-1.9.68c.23,3.24-.41,6.4.41,9.53,3.1,1,6.26-.34,9.41,1.15V17.8q0,26.88,0,53.75c0,1.7-.48,3.52.76,5.25h9.34c1-1.46.75-2.94.75-4.35,0-5.76,0-11.52,0-17.28,0-12.64,0-25.27,0-37.91,0-1.7-.33-3.49.6-5.11,2.91-.8,5.87.23,8.84-.83A40.52,40.52,0,0,0,568.59,1.66ZM76,11.55l9.36.57c.06,2.05.15,3.78.15,5.51q0,26.85,0,53.7c0,1.72-.38,3.51.49,5.12a20.28,20.28,0,0,0,10.11-.2c.06-1.64.16-3.37.16-5.1q0-26.85,0-53.7c0-1.72-.31-3.5.56-5.21,2.88-1.05,6,.29,9-1a38.59,38.59,0,0,0-.18-9.83,91.71,91.71,0,0,0-10.16-.22c-3.2,0-6.4-.08-9.59,0s-6.63-.45-10.18.5c0,2.58,0,5,0,7.33C75.76,9.76,75.91,10.52,76,11.55ZM615.66,76.83c.09-2,.22-3.62.22-5.18q0-18.69,0-37.38c0-6.39,0-12.78,0-19.17a15.7,15.7,0,0,1,.55-3c3.11-.72,6,.18,8.7-.71.75-5.26.68-7-.38-10.1-1.06-.06-2.17-.17-3.27-.17q-12.45.06-24.91.16a.83.83,0,0,0-.45.15,4.62,4.62,0,0,0-.58.71c-.13,2.89-.73,6.15.39,9.3,3,.84,5.94-.24,8.62.75.93,1.82.57,3.61.58,5.34q0,18.2,0,36.41c0,6.39,0,12.78,0,19.17,0,1.22-.34,2.59,1,3.68ZM452.5,77c.1-2.14.24-3.71.24-5.27q0-18.48,0-36.95c0-9.91,0-19.83,0-29.74,0-1.23.32-2.58-.92-3.68a39.11,39.11,0,0,0-9.63.16c-.06,2-.16,3.68-.16,5.4q0,25.68,0,51.34c0,5.12,0,10.24,0,15.35A25.07,25.07,0,0,0,442.6,77h9.9Z"/><path d="M759.35,1.25c2.34,13.94,3.84,27.64,6.48,41.21,1.16-1.74.91-3.63,1.14-5.42.26-2.06.48-4.13.67-6.19s.28-3.83.46-5.74.41-3.81.6-5.72.37-3.82.54-5.73c.18-2.07.32-4.14.54-6.21.19-1.9.46-3.78.72-5.85,3.44-.82,6.71-.4,9.65-.3.44.37.6.45.67.58a.77.77,0,0,1,.09.47q-3.78,36-7.57,72a6.07,6.07,0,0,1-.33,1.4,5.93,5.93,0,0,1-.61,1,58.42,58.42,0,0,1-10.93.11c-1.36-5.15-1.72-10.23-2.46-15.25s-1.4-10.13-2.26-15.17-1-10.12-2.8-15c-2.74,15-4.52,30.09-7,45.23a56.52,56.52,0,0,1-11.33.2c-1.56-5-1.35-10.17-2.08-15.16s-1-9.86-1.53-14.79c-.53-5.08-1.11-10.16-1.67-15.25-.55-4.92-1.27-9.83-1.6-14.77s-1.64-10-1.16-15.44a40.16,40.16,0,0,1,9.92,0c1.31,6.91,1.34,13.92,2,20.86S740.64,36,741.2,42.81c1.26-.07,1.31-.94,1.42-1.69q2.57-16.83,5.09-33.66c.29-1.89.66-3.77,1-5.76C752.09.66,755.41,1.29,759.35,1.25Z"/><path d="M461.42,1.46a43.11,43.11,0,0,1,10.35-.07l12.49,39.7c1.57-.24,1.11-1.24,1.11-1.86,0-10.72,0-21.44,0-32.16,0-1.74.06-3.47.09-5.37,3.5-1,6.75-.53,9.72-.35a5.24,5.24,0,0,1,.6.67,1,1,0,0,1,.13.45c.05,1.44.13,2.87.13,4.31q0,34.32-.09,68.63a5.2,5.2,0,0,1-.45,1.25c-3.1.64-6.39.3-10,.14-2.62-6.5-4.28-13.34-6.48-20s-4-13.3-6.43-20.23c-1.37,1.75-.94,3.23-.95,4.59,0,10.08,0,20.15,0,30.23,0,1.73.29,3.52-.6,5.33-1.09.08-2.18.23-3.28.24-2.06,0-4.13,0-6.12,0a5.58,5.58,0,0,1-.63-1.6q-.07-36-.07-72A8.77,8.77,0,0,1,461.42,1.46Z"/><path d="M235.66,76.85h-9.4c-1.33-1.1-1-2.47-1-3.69,0-8.16,0-16.31,0-24.46q0-20.85,0-41.72c0-1.72.09-3.45.13-5.23,1.88-.95,3.66-.5,5.37-.58s3.17,0,4.9,0c.5,1.18,1,2.15,1.33,3.18Q242.28,21,247.48,37.7a11.05,11.05,0,0,0,1.9,4.09c.33-4.13.17-7.43.2-10.72s0-6.4,0-9.59c0-3.36,0-6.72,0-10.07,0-3.18.06-6.35.09-9.77,3.52-.91,6.82-.3,9.92-.44,1.37,1.83.89,3.65.9,5.36q0,29.49,0,59c0,2.72,0,5.44,0,8.16,0,.93-.23,1.85-.36,2.93-3.46.66-6.75.33-10.25.22-.53-1.44-1.07-2.74-1.49-4.08q-5.25-16.68-10.48-33.36a9.59,9.59,0,0,0-1.48-2.92,40,40,0,0,0-.43,7.93c0,2.71,0,5.43,0,8.15v7.67c0,2.72,0,5.43,0,8.15S236.24,73.76,235.66,76.85Z"/><path d="M653.61,1.37a53.82,53.82,0,0,1,10.24,0c.12,1,.26,1.8.29,2.56.42,12.68.14,68.29-.38,72.58-3.18.9-6.44.39-10,.3-.13-1.48-.34-2.7-.34-3.93,0-7.67,0-15.34,0-23,0-1.57-.09-3.15-.15-4.92-3.44-1-6.7-.42-9.68-.43-1.42,1.53-1,3-1,4.42,0,7.67,0,15.34,0,23,0,1.57.35,3.21-.74,4.84-1.15.06-2.41.15-3.67.17-1.91,0-3.81,0-6,0a25.22,25.22,0,0,1-.49-3.45q0-34.53,0-69c0-.93.15-1.86.25-3a37.4,37.4,0,0,1,10,0c1,1.65.65,3.29.65,4.86,0,7.35,0,14.7,0,22.05,0,1.57-.29,3.2.49,4.69,3.4.85,5.75.88,10.08,0,.1-1.14.28-2.38.29-3.61,0-7.67,0-15.34,0-23C653.42,4.89,653.54,3.33,653.61,1.37Z"/><path d="M849.19,41.78l2.49,1.76a10.43,10.43,0,0,1,4.67,9q0,6.48,0,13c0,2.87,0,5.75,0,8.62a25.06,25.06,0,0,1-.29,2.52,36.47,36.47,0,0,1-10.18.16c-.11-1.36-.26-2.43-.27-3.51,0-6.39,0-12.78,0-19.17,0-5.73-1.28-6.92-7.14-6.91-1,0-1.9.1-3.13.17a21.4,21.4,0,0,0-.46,3.21c-.05,7,0,14.06,0,21.09,0,1.56-.12,3.13-.18,4.61-3.67.94-5.85,1-10.27.18a18.88,18.88,0,0,1-.36-2.17c-.4-7.78-.09-68.95.37-72.58A14.69,14.69,0,0,1,827,1.18c4.8-.05,9.59,0,14.38,0a18.76,18.76,0,0,1,3.34.29c6.75,1.26,10.74,5.45,11.39,12.32.35,3.64.22,7.34.27,11,0,2.24,0,4.47,0,6.71a9.94,9.94,0,0,1-4.93,8.77C850.73,40.68,850.11,41.15,849.19,41.78ZM835.64,11.89c-1.5,2.61-.64,5.36-.78,8a79.22,79.22,0,0,0,0,8.58c.14,2.61-.75,5.36.68,7.79a42.05,42.05,0,0,0,5.86-.06c2.63-.38,4-1.89,4.11-4.47.13-5.09.14-10.18,0-15.26-.08-2.76-1.72-4.27-4.58-4.53C839.21,11.76,837.45,11.89,835.64,11.89Z"/><path d="M155.78,76.63a43.91,43.91,0,0,1-10,.2,33.22,33.22,0,0,1-.46-3.82c0-6.87,0-13.75,0-20.63q0-22.79,0-45.58c0-1.72-.23-3.48.49-5.28a10.74,10.74,0,0,1,1.89-.33c5.12,0,10.24-.07,15.35,0a18,18,0,0,1,4.26.62c5.87,1.52,9.29,5.38,10,11.43a56.24,56.24,0,0,1,.27,6.23c0,3.51-.06,7,0,10.55.12,4.71-1.44,8.45-5.79,10.72a2.83,2.83,0,0,0-.73.61,2.68,2.68,0,0,0-.32.62c1.07.81,2.23,1.58,3.27,2.48a8.79,8.79,0,0,1,3.41,6.64c0,8.3,0,16.61-.11,24.92,0,.12-.16.25-.49.75a41.83,41.83,0,0,1-9.43,0,22.37,22.37,0,0,1-.48-3.19c0-6.24,0-12.48,0-18.71a24.46,24.46,0,0,0-.21-3.83,4.13,4.13,0,0,0-3.83-3.7c-2-.19-4.11,0-6.47,0a37.87,37.87,0,0,0-.39,3.84c0,6.88,0,13.76,0,20.63C156,73.31,155.87,74.87,155.78,76.63Zm.85-64.57a6,6,0,0,0-.53,1.52q0,10.51,0,21a5.12,5.12,0,0,0,.63,1.65,44,44,0,0,0,5.88,0c2.68-.38,4.1-1.79,4.19-4.42.18-5.09.19-10.2,0-15.29-.09-2.82-1.73-4.29-4.57-4.58A18.83,18.83,0,0,0,156.63,12.06Z"/><path d="M807.15,77c-1.36-5.38-1.42-10.69-2.55-16a35.36,35.36,0,0,0-9.36-.14c-1.7,5.06-1.33,10.44-2.77,15.63-3.25,1-6.53.4-10.12.39-.16-5.45.88-10.44,1.39-15.46s1-9.86,1.6-14.78c.57-5.08,1.17-10.16,1.76-15.24s1.14-9.85,1.75-14.77.83-10.15,1.92-15c5.08-.66,14.45-.56,17.86.15,1.06,4.64,8.62,70.45,8.57,74.82a8.5,8.5,0,0,1-1.76.4C812.74,77,810,77,807.15,77Zm-3.57-27c-1.11-11.48-2.1-22.28-3.72-33a15.34,15.34,0,0,0-1.06,4.16q-1.34,13.35-2.59,26.72a10.28,10.28,0,0,0,.23,1.95c1,.08,1.75.19,2.52.2C800.21,50,801.47,50,803.58,50Z"/><path d="M208.26,76.78c-.79-5.4-1.52-10.44-2.28-15.61-3.24-.88-6.34-.64-9.75-.18-.8,5.29-1.57,10.46-2.35,15.68a31.94,31.94,0,0,1-10.55-.16q4.18-37.56,8.54-74.69c3.61-.82,12.78-.94,18-.28a11.62,11.62,0,0,1,.65,2.17q4.08,35.73,8.09,71.47a5.85,5.85,0,0,1-.38,1.61A55.51,55.51,0,0,1,208.26,76.78Zm-7.39-60.45C199.11,27,197.44,45.94,198,49.76a14.65,14.65,0,0,0,6.32-.16C204.72,44.85,202.17,20.53,200.87,16.33Z"/><path d="M435.26,76.62a16.28,16.28,0,0,1-2.09.33c-2.54,0-5.09,0-7.73,0-1.53-2.63-1.09-5.45-1.67-8s-.4-5.4-1.36-8a36.31,36.31,0,0,0-9.31-.08c-1.59,5.22-1.21,10.6-2.81,15.79a30.71,30.71,0,0,1-10-.07,30.57,30.57,0,0,1,0-3.47c2.83-23.79,5.36-47.63,8.23-71.3,3.71-.83,12.95-.93,17.84-.26C427.51,5.35,434.85,66.9,435.26,76.62ZM418.09,16c-1.58,5.14-4,29.3-3.54,33.69a16,16,0,0,0,6.69-.13,29,29,0,0,0,0-3C420.22,36.69,419.19,26.76,418.09,16Z"/><path d="M333,1.15c5.42,0,10.2,0,15,0,.94,0,1.88.14,2.75.21,1.5,4.14,8.51,68.87,8.85,75-3.19,1.16-6.47.42-10,.46-1.6-5.18-1.37-10.52-2.62-15.52-3.51-.91-5.44-.94-9.73-.09-.76,5-1.53,10.21-2.32,15.43-3.63.35-6.93.63-10.55-.17C327.17,51.46,330,26.57,333,1.15Zm9,15.19a2.31,2.31,0,0,0-.35.73q-1.05,9.76-2.05,19.53c-.36,3.49-.72,7-1,10.49a12.67,12.67,0,0,0,.36,2.69,21.66,21.66,0,0,0,6.29,0C345.73,45.36,343.39,21.71,342,16.34Z"/><path d="M385.73,47.53l-4.87-.74a17.44,17.44,0,0,1-.39-2.48c0-2.37,0-4.75.07-7.05,3.47-1,10.43-1.08,15.63-.27a24.1,24.1,0,0,1,.3,2.65c0,7.51.1,15,0,22.53a26.29,26.29,0,0,1-1.13,7A11.33,11.33,0,0,1,387.42,77a23.57,23.57,0,0,1-13.24.27c-5.37-1.38-8.47-4.94-9.52-10.26a36.29,36.29,0,0,1-.6-6.67q-.07-21.34,0-42.68a40.75,40.75,0,0,1,.47-5.73c.88-6,4.24-9.92,10.22-11.25A24.54,24.54,0,0,1,386.6.82a12.1,12.1,0,0,1,9.08,9,18.3,18.3,0,0,1,.49,8.63c-3.35.95-6.64.36-10.09.37-.17-1.55-.22-2.81-.47-4-.53-2.71-2.62-4.13-5.68-4-2.83.15-4.57,1.63-4.88,4.29a28.94,28.94,0,0,0-.09,3.36V59.67a28.71,28.71,0,0,0,.09,3.35c.33,2.65,2.07,4.09,4.95,4.21,3,.13,5.18-1.39,5.64-4a3.56,3.56,0,0,0,.05-.47c0-1.12,0-2.24,0-3.36C385.74,55.54,385.73,51.73,385.73,47.53Z"/><path d="M26.59,76.83c-6.26.22-12,.26-18,0C7.38,70.38,7,64,6.25,57.73S4.78,45.37,4.05,39.18s-1.56-12.68-2.16-19C1.31,14,.19,7.89,0,1.45a34.12,34.12,0,0,1,10.48.13Q13.83,31.84,17.16,62c1.85-6.65,2.24-13.42,3-20.14s1.47-13.33,2.27-20,1.14-13.61,2.44-20.5h9.58c1,.89.75,1.88.65,2.79-1.41,12.21-2.86,24.42-4.26,36.64-1.11,9.67-2.17,19.36-3.27,29C27.32,72.05,27,74.25,26.59,76.83Z"/><path d="M512.68,58.27c.23,1.77.3,3,.58,4.28.54,2.33,2.29,3.56,5,3.64s5.09-1.32,5.41-3.73c.68-5.16.65-10.3-3.14-14.48a79.94,79.94,0,0,0-5.87-5.62c-1.07-1-2.31-1.71-3.44-2.6a22.69,22.69,0,0,1-9-16.31A38.26,38.26,0,0,1,502.77,12c1.16-5.33,4.28-8.8,9.63-10.16a24.22,24.22,0,0,1,12.31.07,12.21,12.21,0,0,1,9.08,9,18.84,18.84,0,0,1,.54,8.67c-3.29,1-6.57.52-10.07.31-.17-1.39-.25-2.63-.5-3.84-.57-2.84-2.46-4.22-5.55-4.15s-4.76,1.58-5.12,4.57c-.8,6.62.79,12.37,6.12,16.74,2,1.62,4,3.17,6,4.75,3.85,3,6.91,6.67,8.32,11.45a35,35,0,0,1,.4,17.06c-1.1,5.35-4.57,8.59-9.93,9.86a23.65,23.65,0,0,1-12.3-.29,11.64,11.64,0,0,1-7.59-6.16,18.6,18.6,0,0,1-1.72-11.3C505.75,57.6,509,58.07,512.68,58.27Z"/><path d="M298.75,19.84c-1.26.11-2.19.23-3.11.25-2.22,0-4.44,0-6.94,0-.27-1.67-.44-3.05-.74-4.41-.59-2.63-2.33-3.85-5.28-3.82s-4.92,1.42-5.23,3.94c-.7,5.73-.25,11.23,4.29,15.52,2,1.85,4.08,3.57,6.12,5.35,1.81,1.57,3.74,3,5.38,4.75a20.39,20.39,0,0,1,5.36,11,37.89,37.89,0,0,1-.18,13.35c-1.09,5.55-4.32,9.09-9.89,10.45a24,24,0,0,1-11.37,0,12.58,12.58,0,0,1-10-9.83c-.72-2.78-.73-4.54.08-8.22a50.32,50.32,0,0,1,9.6,0c.2,1.38.31,2.6.55,3.8.58,2.82,2.54,4.27,5.54,4.18s4.79-1.64,5.14-4.6c.74-6.21-.48-11.78-5.45-16.05-1.69-1.46-3.44-2.84-5.14-4.29s-3.47-2.83-5-4.41a19.07,19.07,0,0,1-5.09-9.09,37.6,37.6,0,0,1-.15-16.15c1.08-5.35,4.53-8.67,9.89-9.87a24,24,0,0,1,12.77.43,11.66,11.66,0,0,1,7.9,7.74A20,20,0,0,1,298.75,19.84Z"/><path d="M699.39,66.61c0,2.38.1,4.43.08,6.48,0,1.09-.13,2.17-.22,3.51-3,.72-5.86.3-8.68.37s-5.75,0-8.63,0h-8.29c-1.46-1.51-1-3-1-4.39,0-10.08,0-20.15,0-30.22q0-18,0-36c0-1.56.13-3.12.22-4.9,3.07-.62,5.93-.27,8.76-.33s5.76,0,8.64,0l8.69,0c1.06,3.56.43,6.81.47,10.35-5.4.66-10.51-.07-15.67.5-.8,2.55-.37,4.94-.45,7.29s-.06,4.48,0,6.71-.32,4.76.4,7.31c4.16.79,8.33-.08,12.58.6.91,3.33.44,6.59.31,10.13-4.3.77-8.47,0-12.75.59-1.13,3.43-.4,6.95-.52,10.39s0,7,.06,10.63C688.62,66.91,693.78,65.62,699.39,66.61Z"/><path d="M69.58,66.56c.07,1.38.17,2.46.17,3.55,0,2,0,4.1-.07,6.35-4.65,1-9.1.41-13.5.49s-8.55.19-12.93-.15a13.68,13.68,0,0,1-.39-2.11q0-36.39,0-72.85c3-1.26,5.89-.55,8.7-.66,3-.13,6.07-.07,9.1,0,2.84.05,5.7-.26,8.84.31a45.66,45.66,0,0,1,.1,9.71c-2.64,1.21-5.37.46-8,.62s-5-.16-7.45.26c-.88,4.08-.89,17.23,0,21.34,1.91.49,4,.22,6,.27s4.11.06,6.06.08c1,3.59,1,5.64.24,10.34-1.9.58-4,.27-6,.32s-4.12,0-6.32,0c-1.22,3.68-.49,7.19-.61,10.62s0,7,0,10.65C58.83,66.88,64,65.67,69.58,66.56Z"/><path d="M138.92,66.29V76.57c-3,.77-5.84.32-8.66.4-3,.07-6.08,0-9.11,0a64.61,64.61,0,0,1-8.73-.26c-.12-1-.27-1.76-.3-2.52-.43-12.48-.14-68.33.4-72.62,2.68-.87,5.56-.32,8.37-.41,3-.09,6.07,0,9.1,0,2.85,0,5.69.06,8.45.1,1,1.79.63,3.41.69,5s0,3.18,0,5a16.77,16.77,0,0,1-2.86.59c-3.19.07-6.39,0-9.58.05-1.09,0-2.18.16-3.18.24-.93,3.61-1,16.69-.13,21.3,4,.74,8.13-.08,12.43.52,1.19,3.23.53,6.52.42,10-4.24,1.25-8.61,0-12.94.88-.88,2.36-.41,4.77-.49,7.11s-.07,4.47,0,6.71-.32,4.75.38,7.27c2.59.68,5.15.3,7.66.37S135.92,66.26,138.92,66.29Z"/><path d="M568.59,1.66a40.52,40.52,0,0,1,0,9.66c-3,1.06-5.93,0-8.84.83-.93,1.62-.59,3.41-.6,5.11,0,12.64,0,25.27,0,37.91,0,5.76,0,11.52,0,17.28,0,1.41.27,2.89-.75,4.35H549c-1.24-1.73-.76-3.55-.76-5.25q-.06-26.88,0-53.75V12.58c-3.15-1.49-6.31-.17-9.41-1.15-.82-3.13-.18-6.29-.41-9.53a6.77,6.77,0,0,1,1.9-.68q13.44,0,26.88,0A7,7,0,0,1,568.59,1.66Z"/><path d="M76,11.55c-.11-1-.26-1.79-.27-2.55,0-2.38,0-4.75,0-7.33,3.55-.95,6.89-.4,10.18-.5s6.39,0,9.59,0a91.71,91.71,0,0,1,10.16.22,38.59,38.59,0,0,1,.18,9.83c-2.93,1.32-6.1,0-9,1-.87,1.71-.56,3.49-.56,5.21q0,26.85,0,53.7c0,1.73-.1,3.46-.16,5.1a20.28,20.28,0,0,1-10.11.2c-.87-1.61-.49-3.4-.49-5.12q0-26.85,0-53.7c0-1.73-.09-3.46-.15-5.51Z"/><path d="M615.66,76.83h-9.43c-1.36-1.09-1-2.46-1-3.68,0-6.39,0-12.78,0-19.17q0-18.21,0-36.41c0-1.73.35-3.52-.58-5.34-2.68-1-5.63.09-8.62-.75-1.12-3.15-.52-6.41-.39-9.3a4.62,4.62,0,0,1,.58-.71.83.83,0,0,1,.45-.15q12.46-.09,24.91-.16c1.1,0,2.21.11,3.27.17,1.06,3.06,1.13,4.84.38,10.1-2.66.89-5.59,0-8.7.71a15.7,15.7,0,0,0-.55,3c0,6.39,0,12.78,0,19.17q0,18.69,0,37.38C615.88,73.21,615.75,74.78,615.66,76.83Z"/><path d="M452.5,77h-9.9a25.07,25.07,0,0,1-.56-3.39c-.05-5.11,0-10.23,0-15.35q0-25.66,0-51.34c0-1.72.1-3.44.16-5.4a39.11,39.11,0,0,1,9.63-.16c1.24,1.1.92,2.45.92,3.68,0,9.91,0,19.83,0,29.74q0,18.48,0,36.95C452.74,73.27,452.6,74.84,452.5,77Z"/><path class="cls-1" d="M835.64,11.89c1.81,0,3.57-.13,5.29,0,2.86.26,4.5,1.77,4.58,4.53.15,5.08.14,10.17,0,15.26-.07,2.58-1.48,4.09-4.11,4.47a42.05,42.05,0,0,1-5.86.06c-1.43-2.43-.54-5.18-.68-7.79a79.22,79.22,0,0,1,0-8.58C835,17.25,834.14,14.5,835.64,11.89Z"/><path class="cls-1" d="M156.63,12.06a18.83,18.83,0,0,1,5.61-.14c2.84.29,4.48,1.76,4.57,4.58.18,5.09.17,10.2,0,15.29-.09,2.63-1.51,4-4.19,4.42a44,44,0,0,1-5.88,0,5.12,5.12,0,0,1-.63-1.65q-.06-10.51,0-21A6,6,0,0,1,156.63,12.06Z"/><path class="cls-1" d="M803.58,50c-2.11,0-3.37,0-4.62,0-.77,0-1.54-.12-2.52-.2a10.28,10.28,0,0,1-.23-1.95q1.26-13.37,2.59-26.72a15.34,15.34,0,0,1,1.06-4.16C801.48,27.69,802.47,38.49,803.58,50Z"/><path class="cls-1" d="M200.87,16.33c1.3,4.2,3.85,28.52,3.44,33.27a14.65,14.65,0,0,1-6.32.16C197.44,45.94,199.11,27,200.87,16.33Z"/><path class="cls-1" d="M418.09,16c1.1,10.73,2.13,20.66,3.13,30.59a29,29,0,0,1,0,3,16,16,0,0,1-6.69.13C414.06,45.33,416.51,21.17,418.09,16Z"/><path class="cls-1" d="M342,16.34c1.37,5.37,3.71,29,3.26,33.42a21.66,21.66,0,0,1-6.29,0,12.67,12.67,0,0,1-.36-2.69c.27-3.5.63-7,1-10.49q1-9.76,2.05-19.53A2.31,2.31,0,0,1,342,16.34Z"/></g></g></svg>