<svg viewBox="0 0 1439 688" version="1.1" xmlns="http://www.w3.org/2000/svg" xmlns:xlink="http://www.w3.org/1999/xlink">
  <defs>
    <linearGradient x1="0%" y1="0%" x2="103.848687%" y2="74.916818%" id="linearGradient-1">
      <stop stop-color="#C6F2FF" offset="0%"></stop>
      <stop stop-color="#5593C8" offset="100%"></stop>
    </linearGradient>
    <rect id="path-2" x="0" y="0" width="1439" height="688"></rect>
  </defs>
  <g id="bench-scene" stroke="none" stroke-width="1" fill="none" fill-rule="evenodd">
    <g class="background scene-background">
      <use id="sky-mask" fill="url(#linearGradient-1)" xlink:href="#path-2"></use>
      <circle class="sun" fill="url(#linearGradient-4)" mask="url(#mask-3)" cx="-13" cy="-136" r="354"></circle>
      <path d="M1,440.65074 C1,440.65074 90.2444934,391.77117 210.401061,402.553428 C330.557629,413.335686 384.474037,450.919557 541.601857,440.65074 C698.729676,430.381923 780.374523,396.186762 915.935779,421.756116 C1051.49703,447.325471 1090.00876,458.62117 1159.32985,457.594288 C1228.65095,456.567407 1438.7709,429.355041 1438.7709,429.355041 L1438.7709,685.380612 C1438.7709,685.380612 1,692.466095 1,685.380612 C1,678.295128 1,440.65074 1,440.65074 Z" id="hills" fill="#7ED321" opacity="0.530552455" mask="url(#mask-3)"></path>
      <path d="M1438.95232,388.294494 C1438.95232,388.294494 1410.505,395.379978 1391.60858,388.294494 C1372.71216,381.20901 1330.91411,360.671376 1297.33189,366.421913 C1263.74967,372.172451 1243.21008,370.632128 1230.06475,365.395032 C1216.91942,360.157935 1203.0552,348.759548 1184.15878,349.272989 C1165.26236,349.786429 1129.21539,348.759548 1133.32331,343.522451 C1137.43122,338.285354 1150.57656,334.793956 1176.76453,334.691268 C1202.9525,334.485892 1213.63308,327.913849 1239.10217,322.676752 C1264.46855,317.439655 1254.71225,316.823526 1293.22397,319.288042 C1331.73569,321.752558 1339.12994,320.314924 1352.27528,314.564386 C1365.42061,308.813849 1381.74958,301.831053 1394.07333,303.165999 C1406.39708,304.500945 1438.95232,303.165999 1438.95232,303.165999 L1438.95232,388.294494 Z" class="cloud cloud-1" fill="#FFFFFF" opacity="0.423293341" mask="url(#mask-3)"></path>
      <path d="M705.342554,9.6804459 C705.342554,9.6804459 747.551399,-2.23138205 780.312036,-2.33407022 C813.175371,-2.4367584 823.137069,10.3992631 878.799342,3.72453193 C934.461616,-3.05288743 981.599961,-15.8889089 1024.42499,-14.4512745 C1067.25003,-13.0136401 1115.82614,3.62184375 1164.29956,-5.62009173 C1212.87568,-14.8620272 1218.52407,-26.9792315 1265.66241,-26.8765433 C1312.80076,-26.671167 1355.62579,-30.5733175 1371.33857,-24.9254681 C1387.05135,-19.2776186 1398.45082,1.2600158 1408.41252,3.10840289 C1418.37422,4.95678999 1455.55087,4.95678999 1461.19925,7.42130612 C1466.95034,9.88582225 1510.08346,14.1987255 1510.08346,14.1987255 L1510.08346,57.8411986 C1510.08346,57.8411986 1412.62314,77.1465749 1359.73371,73.3471126 C1306.94698,69.6503384 1312.59536,60.3057147 1251.182,61.5379728 C1189.76865,62.7702309 1126.91752,69.0342093 1085.53026,62.1541018 C1044.143,55.2739943 1066.94193,44.5944244 988.480722,39.3573276 C909.916813,34.1202309 912.792354,40.4868975 860.005623,42.6433491 C807.218891,44.7998007 764.393858,45.8266825 742.929993,39.3573276 C721.466127,32.8879728 708.628887,26.0078653 681.516636,28.5750696 C654.815177,31.1422739 674.635875,9.37238139 705.342554,9.6804459 Z" class="cloud cloud-2" fill="#FFFFFF" opacity="0.665899368" mask="url(#mask-3)"></path>
      <path d="M36.3908229,254.855787 C36.3908229,254.855787 77.6963721,242.943912 109.7559,242.841188 C141.915929,242.738463 151.664423,255.574473 206.135478,248.89968 C260.606534,242.122199 306.736088,229.286126 348.644623,230.723712 C390.553158,232.161299 438.089682,248.796729 485.525734,239.55474 C533.062286,230.31275 538.589804,218.19554 584.719344,218.298176 C630.848884,218.5035 672.757425,214.601302 688.133933,220.249134 C703.51044,225.896965 714.665927,246.434587 724.414434,248.282963 C734.162941,250.131339 770.543972,250.131297 776.071475,252.595807 C781.699477,255.060317 823.909509,259.373172 823.909509,259.373172 L823.909462,303.015644 C823.909462,303.015644 728.534857,322.321129 676.777316,318.521725 C625.120274,314.82501 630.647789,305.48038 570.548735,306.712706 C510.449681,307.945033 448.94362,314.209081 408.442092,307.329019 C367.940564,300.448958 390.251596,289.769363 313.469534,284.532354 C236.586972,279.295344 239.400968,285.662008 187.74392,287.818518 C136.086872,289.975028 94.1783343,291.001957 73.1738229,284.532626 C52.1693115,278.063296 39.606808,271.183202 13.0747819,273.750437 C-13.0552438,276.317671 6.34129689,254.547757 36.3908229,254.855787 Z" class="cloud cloud-3" fill="#FFFFFF" opacity="0.662248884" mask="url(#mask-3)" transform="translate(412.367763, 268.095840) rotate(179.000000) translate(-412.367763, -268.095840) "></path>
    </g>
    <g class="foreground" transform="translate(0.000000, 249.000000)">
      <g class="subject" transform="translate(367.000000, 219.500000) scale(-1, 1) translate(-367.000000, -219.500000) ">
        <rect id="Rectangle-path" fill="#B3B3B3" fill-rule="nonzero" x="0" y="311" width="734" height="53"></rect>
        <polygon id="Path" fill="#8C8B8B" points="186.270014 365 369.023529 365 371.172166 355.58 438.018651 324.02 527.962984 333.2 555 315.98 553.925681 311 139 311 198.982783 320"></polygon>
        <path d="M263,374.590484 C263,374.590484 282.361702,408.252336 286.412766,417.411215 C291,427.700085 295.170213,439 295.170213,439 L319,439 C319,439 311.434043,420.028037 306.846809,403.137638 C302.259574,386.247239 293.26383,369 293.26383,369 L263,374.590484 Z" id="Path" fill="#8B572A"></path>
        <path d="M266.828228,373.646809 L264,377.161702 C265.745077,380.2 268.814004,385.502128 272.123632,391.340426 C272.123632,391.340426 290.657549,398.489362 297.276805,409.510638 C301.007659,415.765957 305.039387,428.87234 307.987965,439 L319,439 C319,439 311.357768,419.995745 306.724289,403.076596 C302.873085,389.017021 296.013129,374.838298 293.726477,370.370213 C293.365427,369.893617 293.004376,369.417021 292.703501,369 L266.828228,373.646809 Z" id="Path" fill="#473B3B"></path>
        <path d="M218,348.074627 C218,348.074627 201.98,370.761194 191.6,382.283582 C181.22,393.80597 159.2,439 159.2,439 L134,439 L188.78,319 L218,348.074627 Z" id="Path" fill="#8B572A"></path>
        <path d="M148,439 L160.207245,439 C160.207245,439 181.850042,393.685195 192.052233,382.132015 C202.254423,370.578835 218,347.831641 218,347.831641 L199.659646,329.214858 L190.165122,327 C190.165122,327 192.818871,346.574559 183.973041,368.54356 C177.309183,385.125067 157.37658,421.939604 148,439 Z" id="Path" fill="#473B3B"></path>
        <path d="M257.103647,166 L245.479707,221.238192 L234.928746,231.78529 L183.485362,298.047285 L160.833582,298.047285 C160.833582,298.047285 143.844747,306.866328 135.022475,307.879326 C135.022475,307.879326 134.426376,309.845734 139.374001,310.858732 C144.321627,311.87173 163.39681,307.10468 163.81408,307.10468 C164.231349,307.10468 171.444153,310.679968 171.444153,310.679968 L192.784514,310.203263 L198.745509,301.562984 L252.871341,244.477561 L259.428435,233.274993 L261.693613,230.116823 L264.078011,221.893661 L276,184.353143 L257.103647,166 Z" id="Path" fill="#8B572A"></path>
        <g id="Group" transform="translate(138.000000, 179.000000)" fill="#3F2B37">
            <path d="M117.284456,3.73808037 L116.031035,9.67154128 C119.552553,12.9942794 126.714962,20.1737671 127.192456,24.0898513 C127.789324,29.3112969 118.836312,53.2231444 118.836312,53.2231444 L68.9978787,115.465149 L116.389155,65.7427469 L122.954697,54.5878404 L125.222794,51.4431061 L127.610263,43.25493 L139.547613,5.8741263 L137.100456,3.50074194 L119.612239,0.534011482 L117.284456,3.73808037 Z" id="Path"></path>
            <path d="M34.4392526,126.79806 L26.0831081,125.018021 L0,130.832813 C0.656554209,131.188821 1.5518554,131.485494 2.80527707,131.722832 C7.75927701,132.790855 26.8590358,127.984752 27.276843,127.984752 C27.6946503,127.984752 34.9167466,131.544828 34.9167466,131.544828 L56.2846017,131.070151 L62.2532763,122.466633 L69.0575654,115.34648 L34.4392526,126.79806 Z" id="Path"></path>
        </g>
        <path d="M291.184808,103.277327 C291.184808,103.277327 283.183587,110.420073 274.226997,116.669977 C265.270406,122.91988 258.105133,126.193639 257.209474,133.634 C256.313815,141.074361 252.731179,179.169009 245.267354,186.014141 C245.267354,186.014141 265.867512,191.96643 278.406739,192.561659 C278.406739,192.561659 288.557542,211.013754 311.546124,214.882742 C311.546124,214.882742 318.412844,225.894476 317.517185,235.120524 C316.621526,244.346572 314.531655,243.751343 314.531655,243.751343 C314.531655,243.751343 252.432626,250.894089 233.623786,251.786933 C214.814945,252.679776 207.948226,255.65592 197.797423,262.203438 C187.64662,268.750956 156,293.15534 156,293.15534 C156,293.15534 195.050735,340.892696 221.383112,361.606661 C269.151595,399.106081 319.607056,383.987267 319.607056,383.987267 C319.607056,383.987267 306.888697,360.416204 302.529823,342.261723 C302.529823,342.261723 359.254897,342.856952 377.168079,336.904663 C395.08126,330.952374 416.87563,304.762303 422.249585,292.262497 C427.623539,279.76269 425.115694,262.977236 414.785759,247.025102 C404.814088,231.608674 396.932289,210.656617 396.932289,210.656617 C396.932289,210.656617 408.396725,208.930453 424.279745,199.704406 C424.279745,199.704406 411.501676,173.514335 405.530616,159.526456 C399.559555,145.538577 396.574025,131.253084 383.139139,122.324651 C369.704253,113.396218 353.880943,103.872556 338.953292,101.49164 C324.025641,99.1107247 302.290981,94.1703249 291.184808,103.277327 Z" id="Path" fill="#EFEFEF"></path>
        <path d="M285,83.2593462 C285,83.2593462 291.420224,100.55905 291.23852,108.234687 C291.056815,115.910323 288.210112,124.353524 296.689654,127.541865 C305.169196,130.671163 324.127028,129.136036 330.183843,119.275795 C336.240659,109.415554 331.576911,101.562787 325.156687,94.4775843 C318.736462,87.3923813 303.352151,61 303.352151,61 L285,83.2593462" id="Path" fill="#8B572A"></path>
        <path d="M325.181818,95.0745192 C318.69697,87.8629808 303.363636,61 303.363636,61 L285,83.65625 C285,83.65625 286.272727,87.0817308 287.606061,91.5288462 C289.121212,90.0264423 297.060606,82.5144231 302.939394,85.0384615 C309.484848,87.8629808 315.060606,95.0745192 315.060606,95.0745192 L301.484848,106.3125 C301.484848,106.3125 321,102.887019 325.969697,106.3125 C328.272727,107.935096 330.878788,109.617788 333,111 C333,105.110577 329.484848,99.9423077 325.181818,95.0745192 Z" id="Path" fill="#473B3B"></path>
        <path d="M259.085317,27.5143148 C256.924991,30.245367 255.424764,37.7854458 255.604791,41.4070584 C255.72481,45.028671 258.185181,52.9843447 256.204882,57.1996643 C254.164574,61.4743546 249.30384,63.7304412 250.083957,65.3928207 C250.924084,67.1739417 255.124719,67.3520538 256.804973,67.5895366 C256.804973,67.5895366 255.604791,71.2111492 254.764665,71.6267441 C254.764665,71.6267441 255.904837,72.7547874 256.924991,73.229753 L259.805426,75.010874 C259.805426,75.010874 256.504927,76.0201759 256.444918,76.7919949 C256.3249,77.6231847 257.285045,79.2855643 258.065163,79.4636764 C258.845281,79.6417885 256.3249,90.387885 260.285499,94.1876097 C264.246097,98.0467051 288.249723,87.2412379 295.930883,81.0073146 C303.612043,74.7733912 312.013312,58.5058197 307.932696,44.5537054 C303.79207,30.6015912 276.067883,5.90338044 259.085317,27.5143148 Z" id="Path" fill="#8B572A"></path>
        <path d="M262,44.0148725 C262,44.0148725 264.691489,40.1519217 271.114362,41.1713115 C277.537234,42.1370492 285,46 285,46 C285,46 273.683511,41.8151366 269.829787,42.4053097 C265.914894,43.0491348 262,44.0148725 262,44.0148725 Z" id="Path" fill="#210C37"></path>
        <path d="M396,209.674917 L417.118899,202 L419.863162,205.926702 L436.388402,226.690624 L475.404673,298.382675 C475.404673,298.382675 487.634543,305.641123 500.043388,306.831033 C505.054652,307.306997 520.20776,305.938601 520.20776,305.938601 L539,320.871966 C539,320.871966 534.764289,320.931461 532.139341,320.15802 C529.514393,319.384579 529.454735,319.384579 529.454735,319.384579 L533.034209,323.608758 C533.034209,323.608758 531.065499,324.144217 528.142261,322.835317 C525.875261,321.823893 520.088444,317.897192 520.088444,317.897192 L502.787651,319.801047 C502.787651,319.801047 508.51481,321.34793 511.617021,323.549262 C513.227785,324.679676 513.347101,327 513.347101,327 C513.347101,327 506.844389,325.81009 502.012098,325.631604 C497.179808,325.453118 479.998331,322.716326 475.345015,319.027606 C468.484355,313.613517 465.203171,305.343646 465.203171,305.343646 L419.743846,250.191337 L410.616187,233.71109 L396,209.674917 Z" id="Path" fill="#8B572A"></path>
        <path d="M250.032439,21.2425638 C249.99329,21.224238 249.325964,21.5955419 249.132932,22.0606441 C248.9399,22.5257464 248.949014,23.8882907 249.213585,24.3001766 C249.478156,24.7120625 250.251646,25.4971042 250.474712,25.7086317 C251.552607,26.7307719 252.301897,26.8393235 253.231341,27.1218958 C258.255246,28.6492787 268.565039,31.1446272 276.661864,29.3373525 C287.592576,26.8975321 287.592576,26.8975321 287.592576,26.8975321 C287.592576,26.8975321 284.562868,40.4058059 289.850005,43.262181 C299.295566,48.3203452 304.879734,59.924369 301.909432,65.8156427 C298.404475,72.7780569 319.553134,92.766679 328.114636,81.757215 C336.676137,70.7477509 342,51.3552438 342,51.3552438 C342,51.3552438 341.258122,40.2995268 337.804574,30.2204495 C334.351027,20.1413722 329.111406,14.0140611 326.384721,12.496641 C321.038177,9.52125029 299.23616,0 292.523277,0 C286.398201,0 266.506129,10.8218028 256.729458,23.2172699 C256.277025,23.7908925 253.799243,24.4243262 253.139628,24.4243262 C252.480012,24.4243262 251.092062,24.0382488 250.724628,23.6277594 C250.357195,23.2172699 250.063837,22.8323961 249.959107,22.4668372 C249.854377,22.1012784 250.078786,21.2642595 250.032439,21.2425638 Z" id="Path" fill="#151515"></path>
        <path d="M256,71 C256,71 263.751196,72.5969644 268,72.1711073 C268,72.1711073 264.325359,74.9924111 261.569378,75.6311969 C258.813397,76.2699826 257.435407,75.9505897 257.607656,75.6311969 C257.779904,75.311804 258.009569,74.1939289 258.813397,73.8213038 C258.755981,73.8213038 256.344498,73.4486788 256,71 Z" id="Path" fill="#AD6385"></path>
        <path d="M289.134389,94.6233024 C289.134389,94.6233024 292.292528,98.0558179 300.634782,95.665316 C308.977037,93.2135192 318.093929,85 318.093929,85 C318.093929,85 321.788356,85 322.682169,86.3484882 C323.575982,87.6969765 330.309373,94.194238 324.946495,97.2589839 C319.583617,100.32373 305.580547,106.637107 299.740969,106.943581 C293.901391,107.250056 291.577478,106.208042 291.577478,106.208042 C291.577478,106.208042 285.559137,100.507615 289.134389,94.6233024 Z" id="Path" fill="#E2E2E2"></path>
        <path d="M277.550797,192 C277.550797,192 278.637757,173.762376 277.430024,160.514851 C276.222291,147.267327 265.171532,132 265.171532,132 C265.171532,132 265.171532,145.841584 263.782639,156.950495 C262.695679,165.445545 257.80436,178.693069 254,188.019802 C261.125626,189.742574 270.606331,191.643564 277.550797,192 Z" id="Path" fill="#D9D6D6"></path>
        <path d="M396.102888,209.629818 C386.666607,209.570274 382.690313,208.498481 382.690313,208.498481 L366.963179,143 C366.963179,143 369.040347,183.78769 350.345829,193.017021 C344.589105,195.875137 335.627606,197.899635 327.022193,196.113313 C318.41678,194.326991 311.176363,199.030973 303.164427,200.221854 C295.152491,201.412736 284.173171,199.209605 284.173171,199.209605 L292.422498,206.235806 C297.289007,209.570274 303.520513,212.487933 311.176363,213.797903 C311.176363,213.797903 312.719403,216.23921 314.203095,219.811854 L332.838265,215.286505 C332.838265,215.286505 366.072964,225.706718 373.788161,235.233769 C381.503359,244.760821 399.663748,254.585593 396.102888,276.6169 C392.542027,298.648207 375.271853,315.320548 375.271853,315.320548 L385.06422,327.169818 L335.805649,302.518572 L364.88601,331.397448 C364.88601,331.397448 307.022026,337.054135 304.054642,334.970092 C301.087258,332.886049 286.843816,322.465837 286.843816,322.465837 L290.285981,331.099727 C286.606425,329.908846 262.926703,321.572676 262.926703,321.572676 C262.926703,321.572676 260.730839,324.252159 261.027577,327.169818 C261.324315,330.087478 270.819944,333.779211 276.754711,344.497144 C282.689479,355.215077 284.766647,357.001399 284.469909,365.63529 C284.291866,371.530153 281.621221,380.223588 280.018833,385.165746 C302.867689,387.904773 319.188299,383.022159 319.188299,383.022159 C319.188299,383.022159 306.606592,359.442706 302.274212,341.281764 C302.274212,341.281764 358.654504,341.877204 376.458807,335.922797 C394.26311,329.96839 415.925011,303.768998 421.266302,291.264742 C426.607593,278.760487 424.114991,261.969058 413.847843,246.011247 C403.936781,230.589332 396.102888,209.629818 396.102888,209.629818 Z" id="Path" fill="#D9D6D6"></path>
        <path d="M305.5,81 C300.804196,81 297,77.1958042 297,72.5 C297,67.8041958 300.804196,64 305.5,64 C310.195804,64 314,67.8041958 314,72.5 C314,77.1958042 310.195804,81 305.5,81 Z M305.5,65.9615385 C301.874126,65.9615385 298.902098,68.9335664 298.902098,72.5594406 C298.902098,76.1853147 301.874126,79.1573427 305.5,79.1573427 C309.125874,79.1573427 312.097902,76.1853147 312.097902,72.5594406 C312.097902,68.8741259 309.125874,65.9615385 305.5,65.9615385 Z" id="Shape" fill="#E2E2E2" fill-rule="nonzero"></path>
        <path d="M436.693989,226.715314 L420.043716,205.930628 L417.278689,202 L396,209.682592 L400.628415,217.246073 L420.163934,226.655759 L424.251366,229.216623 C424.251366,229.216623 434.590164,235.52945 436.63388,237.732984 C438.617486,239.936518 473,292.940445 473,293 L436.693989,226.715314 Z" id="Path" fill="#8B572A"></path>
        <rect id="Rectangle-path" fill="#B3B3B3" fill-rule="nonzero" x="0" y="364" width="36" height="75"></rect>
        <polygon id="Rectangle-path" fill="#8C8B8B" fill-rule="nonzero" transform="translate(40.500000, 401.500000) rotate(-180.000000) translate(-40.500000, -401.500000) " points="22 364 59 364 59 439 22 439"></polygon>
        <ellipse id="Oval" fill="#210C37" cx="265" cy="51.5" rx="2" ry="2.5"></ellipse>
      </g>
    </g>
    <g id="logo" transform="translate(1045.000000, 96.000000)">
      <g id="majority" transform="translate(0.000000, 175.000000)">
        <polygon class="majority-background background" fill="#FF6900" points="1.70530257e-13 23.1571225 393.352433 0 393.352433 120.842877 1.70530257e-13 113.585572"></polygon>
        <path d="M19,98.0258544 L19,36.4753621 C19,34.5242719 19.9949995,33.5487414 21.9850283,33.5487414 C23.7338415,33.5487414 25.331871,34.9510665 26.7791647,37.7557587 L42.337494,68.1194488 L57.8958234,37.7557587 C59.343117,34.9510665 60.9411465,33.5487414 62.6899597,33.5487414 C64.6799885,33.5487414 65.674988,34.5242719 65.674988,36.4753621 L65.674988,98.0258544 C65.674988,98.7575133 65.3885488,99.3367345 64.8156617,99.7635355 C64.2427746,100.190336 63.5342144,100.403734 62.6899597,100.403734 C61.906009,100.403734 61.2125245,100.190336 60.6094855,99.7635355 C60.0064464,99.3367345 59.7049314,98.7575133 59.7049314,98.0258544 L59.7049314,46.6270778 L44.6893345,75.3445437 C44.0259916,76.6249467 43.2119011,77.2651386 42.2470386,77.2651386 C41.3424801,77.2651386 40.5585411,76.6249467 39.8951981,75.3445437 L24.9700566,46.3527071 L24.9700566,98.0258544 C24.9700566,98.7575133 24.6685416,99.3367345 24.0655026,99.7635355 C23.4624635,100.190336 22.7689791,100.403734 21.9850283,100.403734 C21.1407737,100.403734 20.4322134,100.190336 19.8593263,99.7635355 C19.2864392,99.3367345 19,98.7575133 19,98.0258544 Z M74.4491621,97.8429406 C74.4491621,97.5380828 74.4793136,97.3246855 74.5396175,97.2027423 L93.4447968,35.1035087 C93.8669241,33.7011625 95.0428326,33 96.9725575,33 C98.9022824,33 100.108342,33.7011625 100.590774,35.1035087 L119.405498,97.2027423 C119.405498,97.2637139 119.420573,97.3551699 119.450725,97.477113 C119.480877,97.5990562 119.495953,97.6905121 119.495953,97.7514837 C119.495953,98.4831426 119.103983,99.1080918 118.320033,99.6263501 C117.536082,100.144608 116.721991,100.403734 115.877737,100.403734 C114.731963,100.403734 113.978175,99.8854832 113.616352,98.8489665 L109.455403,84.7646042 L84.3992565,84.7646042 L80.2383079,98.8489665 C79.9970923,99.8854832 79.2131533,100.403734 77.8864675,100.403734 C77.0422128,100.403734 76.2582738,100.159851 75.534627,99.6720786 C74.8109801,99.184306 74.4491621,98.5745995 74.4491621,97.8429406 Z M85.9369983,79.551561 L107.917661,79.551561 L96.9725575,42.6944312 L85.9369983,79.551561 Z M123.475991,84.8560611 C123.475991,82.7830277 124.440839,81.7465266 126.370564,81.7465266 C128.420896,81.7465266 129.446047,82.5391451 129.446047,84.1244059 C129.446047,87.5997854 130.60688,90.3434649 132.92858,92.3555267 C135.250281,94.3675886 138.370961,95.3736044 142.290715,95.3736044 C146.39138,95.3736044 149.557287,94.2151619 151.788532,91.8982423 C154.019776,89.5813226 155.135382,86.0755099 155.135382,81.380699 L155.135382,39.1276122 L142.38117,39.1276122 C141.657523,39.1276122 141.09972,38.8380015 140.707745,38.2587716 C140.31577,37.6795417 140.119785,36.9936218 140.119785,36.2009914 C140.119785,35.4693326 140.31577,34.8443834 140.707745,34.326125 C141.09972,33.8078667 141.657523,33.5487414 142.38117,33.5487414 L158.301321,33.5487414 C160.170742,33.5487414 161.105438,34.3108746 161.105438,35.8351638 L161.105438,81.380699 C161.105438,88.1485433 159.401879,93.102409 155.994708,96.2424449 C152.587538,99.3824808 148.079888,100.952475 142.471625,100.952475 C136.742754,100.952475 132.144651,99.4434514 128.677176,96.4253587 C125.209702,93.407266 123.475991,89.550872 123.475991,84.8560611 Z M173.85965,81.380699 L173.85965,53.0290606 C173.85965,46.3221879 175.56321,41.3988075 178.97038,38.2587716 C182.377551,35.1187358 186.945503,33.5487414 192.674374,33.5487414 C198.403245,33.5487414 202.971197,35.1187358 206.378368,38.2587716 C209.785538,41.3988075 211.489098,46.3221879 211.489098,53.0290606 L211.489098,81.380699 C211.489098,88.1485433 209.785538,93.102409 206.378368,96.2424449 C202.971197,99.3824808 198.403245,100.952475 192.674374,100.952475 C186.945503,100.952475 182.377551,99.3824808 178.97038,96.2424449 C175.56321,93.102409 173.85965,88.1485433 173.85965,81.380699 Z M179.829707,81.380699 C179.829707,90.7093492 184.11122,95.3736044 192.674374,95.3736044 C201.237528,95.3736044 205.519041,90.7093492 205.519041,81.380699 L205.519041,53.0290606 C205.519041,43.761382 201.237528,39.1276122 192.674374,39.1276122 C184.11122,39.1276122 179.829707,43.761382 179.829707,53.0290606 L179.829707,81.380699 Z M224.514676,98.0258544 L224.514676,35.7437069 C224.514676,34.4023324 225.268463,33.6706845 226.776061,33.5487414 L242.786667,33.5487414 C248.636146,33.5487414 253.354856,34.9510665 256.942938,37.7557587 C260.53102,40.5604509 262.325034,45.1637354 262.325034,51.5657503 C262.325034,61.6870309 257.621401,67.5706992 248.213992,69.2169316 L262.144124,96.2881734 C262.385339,96.5930312 262.505945,96.9893405 262.505945,97.477113 C262.505945,98.2697434 262.144127,98.9861486 261.42048,99.6263501 C260.696834,100.266552 259.912895,100.586648 259.06864,100.586648 C257.98317,100.586648 256.927867,99.5196611 255.902701,97.3856561 L241.972569,69.9485868 L230.484733,69.9485868 L230.484733,98.0258544 C230.484733,98.7575133 230.183218,99.3367345 229.580179,99.7635355 C228.97714,100.190336 228.283655,100.403734 227.499704,100.403734 C226.65545,100.403734 225.946889,100.190336 225.374002,99.7635355 C224.801115,99.3367345 224.514676,98.7575133 224.514676,98.0258544 Z M230.484733,64.7355436 L242.786667,64.7355436 C251.832253,64.7355436 256.354978,60.4371124 256.354978,51.840121 C256.354978,43.3650727 251.832253,39.1276122 242.786667,39.1276122 L230.484733,39.1276122 L230.484733,64.7355436 Z M272.365584,98.0258544 L272.365584,35.7437069 C272.365584,34.2803893 273.360584,33.5487414 275.350613,33.5487414 C277.340641,33.5487414 278.335641,34.2803893 278.335641,35.7437069 L278.335641,98.0258544 C278.335641,98.7575133 278.034126,99.3367345 277.431087,99.7635355 C276.828048,100.190336 276.134563,100.403734 275.350613,100.403734 C274.506358,100.403734 273.797798,100.190336 273.224911,99.7635355 C272.652023,99.3367345 272.365584,98.7575133 272.365584,98.0258544 Z M286.567083,36.3839052 C286.567083,35.6522464 286.763067,34.9968118 287.155043,34.4175819 C287.547018,33.838352 288.104821,33.5487414 288.828468,33.5487414 L325.101084,33.5487414 C325.824731,33.5487414 326.382534,33.8231093 326.774509,34.3718535 C327.166485,34.9205976 327.362469,35.5607895 327.362469,36.2924483 C327.362469,37.0850787 327.166485,37.7709986 326.774509,38.3502285 C326.382534,38.9294584 325.824731,39.2190691 325.101084,39.2190691 L309.995032,39.2190691 L309.995032,98.0258544 C309.995032,98.7575133 309.693517,99.3367345 309.090478,99.7635355 C308.487439,100.190336 307.793954,100.403734 307.010004,100.403734 C306.165749,100.403734 305.457189,100.190336 304.884302,99.7635355 C304.311415,99.3367345 304.024975,98.7575133 304.024975,98.0258544 L304.024975,39.2190691 L288.828468,39.2190691 C288.165125,39.2190691 287.622398,38.9447011 287.20027,38.395957 C286.778143,37.8472128 286.567083,37.1765356 286.567083,36.3839052 Z M330.437953,36.1095345 C330.437953,35.3778757 330.784695,34.7681691 331.47819,34.2803966 C332.171685,33.792624 332.910397,33.5487414 333.694348,33.5487414 C334.65921,33.5487414 335.443149,34.1584479 336.046188,35.3778793 L352.689982,68.7596471 L369.424232,35.3778793 C370.027271,34.1584479 370.81121,33.5487414 371.776072,33.5487414 C372.560023,33.5487414 373.298735,33.792624 373.99223,34.2803966 C374.685725,34.7681691 375.032467,35.3778757 375.032467,36.1095345 C375.032467,36.6582787 374.911861,37.2070146 374.670645,37.7557587 L355.855921,74.0641472 C355.735314,74.4299766 355.675011,74.6738592 355.675011,74.7958023 L355.675011,98.0258544 C355.675011,98.7575133 355.388571,99.3367345 354.815684,99.7635355 C354.242797,100.190336 353.534237,100.403734 352.689982,100.403734 C351.906031,100.403734 351.212547,100.190336 350.609508,99.7635355 C350.006469,99.3367345 349.704954,98.7575133 349.704954,98.0258544 L349.704954,74.7958023 C349.704954,74.4909445 349.674802,74.2470619 349.614499,74.0641472 L330.89023,37.7557587 C330.588711,37.2070146 330.437953,36.6582787 330.437953,36.1095345 Z" id="text" fill="#FFFFFF"></path>
      </g>
      <g id="florida" transform="translate(26.000000, 68.000000)">
        <polygon class="florida-background background" fill="#FF6900" points="0 22.0064964 367.494583 0 367.494583 102.453415 0 124.459912"></polygon>
        <path d="M53,92.1837082 L53,31.7509761 C53,31.0410432 53.2714858,30.4938115 53.8144656,30.1092645 C54.3574453,29.7247176 54.9909122,29.532447 55.7148852,29.532447 L87.7505306,29.532447 C88.4745036,29.532447 89.0325578,29.7838778 89.4247098,30.2867469 C89.8168619,30.789616 90.0129349,31.3960079 90.0129349,32.1059407 C90.0129349,32.8750346 89.8168619,33.5405867 89.4247098,34.1026169 C89.0325578,34.6646471 88.4745036,34.9456579 87.7505306,34.9456579 L58.9727474,34.9456579 L58.9727474,59.3494778 L73.2711429,59.3494778 C73.9347848,59.3494778 74.4626738,59.6009086 74.8548259,60.1037777 C75.2469779,60.6066468 75.443051,61.2426188 75.443051,62.0117127 C75.443051,63.6090616 74.7190889,64.4077241 73.2711429,64.4077241 L58.9727474,64.4077241 L58.9727474,92.1837082 C58.9727474,92.8936411 58.6710966,93.4408728 58.0677857,93.8254197 C57.4644749,94.2099667 56.7706778,94.4022373 55.9863737,94.4022373 C53.995448,94.4022373 53,93.662735 53,92.1837082 Z M97.7051097,92.0949671 L97.7051097,31.6622349 C97.7051097,30.2423692 98.7005576,29.532447 100.691483,29.532447 C102.682409,29.532447 103.677857,30.2423692 103.677857,31.6622349 L103.677857,88.9890263 L129.469267,88.9890263 C130.79655,88.9890263 131.460182,89.8764291 131.460182,91.6512612 C131.460182,93.4852545 130.79655,94.4022373 129.469267,94.4022373 L100.419995,94.4022373 C99.6960219,94.4022373 99.062555,94.1951767 98.5195752,93.7810492 C97.9765955,93.3669217 97.7051097,92.8048999 97.7051097,92.0949671 Z M138.880869,75.9440753 L138.880869,48.4343147 C138.880869,41.9265969 140.585196,37.1494121 143.993902,34.1026169 C147.402609,31.0558217 151.97262,29.532447 157.704073,29.532447 C163.435526,29.532447 168.005537,31.0558217 171.414243,34.1026169 C174.822949,37.1494121 176.527277,41.9265969 176.527277,48.4343147 L176.527277,75.9440753 C176.527277,82.5109543 174.822949,87.3177192 171.414243,90.3645144 C168.005537,93.4113095 163.435526,94.9346843 157.704073,94.9346843 C151.97262,94.9346843 147.402609,93.4113095 143.993902,90.3645144 C140.585196,87.3177192 138.880869,82.5109543 138.880869,75.9440753 Z M144.853616,75.9440753 C144.853616,84.9957193 149.137059,89.5214733 157.704073,89.5214733 C166.271087,89.5214733 170.554529,84.9957193 170.554529,75.9440753 L170.554529,48.4343147 C170.554529,39.4418319 166.271087,34.9456579 157.704073,34.9456579 C149.137059,34.9456579 144.853616,39.4418319 144.853616,48.4343147 L144.853616,75.9440753 Z M189.558726,92.0949671 L189.558726,31.6622349 C189.558726,30.3606913 190.312853,29.6507691 191.82113,29.532447 L207.838953,29.532447 C213.691068,29.532447 218.411904,30.8931312 222.001604,33.6145405 C225.591303,36.3359498 227.386126,40.8025437 227.386126,47.0144561 C227.386126,56.835194 222.680372,62.5441517 213.268723,64.1415006 L227.205134,90.408885 C227.446458,90.7046903 227.567119,91.0892315 227.567119,91.5625201 C227.567119,92.331614 227.205138,93.0267462 226.481165,93.6479374 C225.757192,94.2691287 224.972899,94.5797196 224.128264,94.5797196 C223.042304,94.5797196 221.986526,93.5444164 220.960898,91.4737789 L207.024487,64.8514299 L195.531473,64.8514299 L195.531473,92.0949671 C195.531473,92.8048999 195.229822,93.3669217 194.626511,93.7810492 C194.023201,94.1951767 193.329404,94.4022373 192.545099,94.4022373 C191.700464,94.4022373 190.991585,94.1951767 190.418439,93.7810492 C189.845294,93.3669217 189.558726,92.8048999 189.558726,92.0949671 Z M195.531473,59.7931836 L207.838953,59.7931836 C216.888615,59.7931836 221.413379,55.6223907 221.413379,47.2806796 C221.413379,39.0572907 216.888615,34.9456579 207.838953,34.9456579 L195.531473,34.9456579 L195.531473,59.7931836 Z M237.431202,92.0949671 L237.431202,31.6622349 C237.431202,30.2423692 238.426649,29.532447 240.417575,29.532447 C242.408501,29.532447 243.403949,30.2423692 243.403949,31.6622349 L243.403949,92.0949671 C243.403949,92.8048999 243.102298,93.3669217 242.498987,93.7810492 C241.895676,94.1951767 241.201879,94.4022373 240.417575,94.4022373 C239.57294,94.4022373 238.86406,94.1951767 238.290915,93.7810492 C237.71777,93.3669217 237.431202,92.8048999 237.431202,92.0949671 Z M257.159367,92.1837082 L257.159367,31.6622349 C257.159367,31.0706242 257.415771,30.5677626 257.928585,30.1536351 C258.441399,29.7395076 259.089948,29.532447 259.874253,29.532447 L275.892075,29.532447 C281.623528,29.532447 286.208622,31.0558217 289.647494,34.1026169 C293.086365,37.1494121 294.805775,41.9265969 294.805775,48.4343147 L294.805775,75.4116284 C294.805775,81.9785073 293.086365,86.7852722 289.647494,89.8320674 C286.208622,92.8788626 281.623528,94.4022373 275.892075,94.4022373 L259.874253,94.4022373 C259.089948,94.4022373 258.441399,94.1803866 257.928585,93.7366786 C257.415771,93.2929705 257.159367,92.7753189 257.159367,92.1837082 Z M263.132115,88.9890263 L275.892075,88.9890263 C279.994589,88.9890263 283.177006,87.8501928 285.439422,85.5724916 C287.701837,83.2947903 288.833028,79.9078698 288.833028,75.4116284 L288.833028,48.4343147 C288.833028,43.9380733 287.701837,40.5659428 285.439422,38.3178221 C283.177006,36.0697014 279.994589,34.9456579 275.892075,34.9456579 L263.132115,34.9456579 L263.132115,88.9890263 Z M302.859935,91.9174847 C302.859935,91.6216794 302.8901,91.4146187 302.950431,91.2962966 L321.864131,31.0410468 C322.286449,29.6803421 323.462887,29 325.393482,29 C327.324077,29 328.53068,29.6803421 329.013329,31.0410468 L347.836533,91.2962966 C347.836533,91.3554577 347.851616,91.4441979 347.881781,91.5625201 C347.911947,91.6808422 347.927029,91.7695825 347.927029,91.8287436 C347.927029,92.5386764 347.534883,93.1450683 346.750579,93.6479374 C345.966275,94.1508065 345.151818,94.4022373 344.307182,94.4022373 C343.160892,94.4022373 342.406765,93.8993757 342.044778,92.8936375 L337.881954,79.2274984 L312.814514,79.2274984 L308.65169,92.8936375 C308.410366,93.8993757 307.626073,94.4022373 306.29879,94.4022373 C305.454154,94.4022373 304.669862,94.1655966 303.945889,93.692308 C303.221916,93.2190194 302.859935,92.6274176 302.859935,91.9174847 Z M314.352949,74.1692521 L336.343519,74.1692521 L325.393482,38.4065633 L314.352949,74.1692521 Z" id="text" fill="#FFFFFF"></path>
      </g>
      <g id="new">
        <polygon class="background new-background" fill="#FF6900" points="0 15.3829868 176 0 176 76.0073119 0 87"></polygon>
        <path d="M40,67.0027137 L40,24.5603799 C40,23.5201214 40.6960382,23 42.0881356,23 C43.2693091,23 44.3660966,23.9570234 45.3785311,25.8710991 L62.4632768,59.0759837 L62.4632768,24.4979647 C62.4632768,23.4993166 63.1593151,23 64.5514124,23 C65.9435098,23 66.639548,23.4993166 66.639548,24.4979647 L66.639548,67.0027137 C66.639548,67.5020378 66.4286273,67.8973301 66.0067797,68.1886024 C65.584932,68.4798748 65.0998144,68.6255088 64.5514124,68.6255088 C63.4967932,68.6255088 62.5687422,67.8349242 61.7672316,66.2537313 L44.1762712,32.4871099 L44.1762712,67.0027137 C44.1762712,67.5020378 43.9653505,67.8973301 43.5435028,68.1886024 C43.1216551,68.4798748 42.6365376,68.6255088 42.0881356,68.6255088 C41.4975488,68.6255088 41.0018852,68.4798748 40.6011299,68.1886024 C40.2003746,67.8973301 40,67.5020378 40,67.0027137 Z M76.2576271,67.0027137 L76.2576271,24.5603799 C76.2576271,24.0610558 76.4474557,23.676166 76.8271186,23.4056988 C77.2067816,23.1352316 77.649715,23 78.1559322,23 L100.682486,23 C101.737105,23 102.264407,23.6033409 102.264407,24.8100407 C102.264407,25.3509751 102.127308,25.8190844 101.853107,26.2143826 C101.578906,26.6096809 101.188703,26.807327 100.682486,26.807327 L80.4338983,26.807327 L80.4338983,43.9715061 L90.3683616,43.9715061 C90.8745788,43.9715061 91.2647821,44.1483474 91.5389831,44.5020353 C91.813184,44.8557232 91.9502825,45.3030276 91.9502825,45.843962 C91.9502825,46.9674412 91.4229808,47.5291723 90.3683616,47.5291723 L80.4338983,47.5291723 L80.4338983,64.8181818 L100.682486,64.8181818 C101.146518,64.8181818 101.526176,65.0054255 101.821469,65.3799186 C102.116762,65.7544116 102.264407,66.2121185 102.264407,66.7530529 C102.264407,68.0013631 101.737105,68.6255088 100.682486,68.6255088 L78.1559322,68.6255088 C77.649715,68.6255088 77.2067816,68.4798748 76.8271186,68.1886024 C76.4474557,67.8973301 76.2576271,67.5020378 76.2576271,67.0027137 Z M104.985311,24.6852103 C104.985311,24.2274966 105.238416,23.8322043 105.744633,23.4993216 C106.25085,23.1664389 106.799244,23 107.389831,23 C108.275711,23 108.824104,23.3536826 109.035028,24.0610583 L119.981921,62.3839891 L126.309605,39.1031208 C126.520528,38.146083 127.258751,37.6675712 128.524294,37.6675712 C129.663283,37.6675712 130.380413,38.146083 130.675706,39.1031208 L137.00339,62.3839891 L147.950282,24.0610583 C148.161206,23.3536826 148.7096,23 149.59548,23 C150.186067,23 150.734461,23.1664389 151.240678,23.4993216 C151.746895,23.8322043 152,24.2274966 152,24.6852103 C152,24.893262 151.978908,25.0597009 151.936723,25.1845319 L139.534463,67.5020353 C139.196985,68.5006834 138.353302,69 137.00339,69 C135.611292,69 134.788702,68.5006834 134.535593,67.5020353 L128.524294,45.4694708 L122.512994,67.5020353 C122.259886,68.5006834 121.437295,69 120.045198,69 C118.6531,69 117.809418,68.5006834 117.514124,67.5020353 L105.048588,25.1845319 C105.006403,25.0597009 104.985311,24.893262 104.985311,24.6852103 Z" id="text" fill="#FFFFFF"></path>
      </g>
    </g>
  </g>
</svg>