<?xml version="1.0" encoding="UTF-8"?>
<svg viewBox="0 0 394 296" version="1.1" xmlns="http://www.w3.org/2000/svg" xmlns:xlink="http://www.w3.org/1999/xlink">
    <g id="Page-1" stroke="none" stroke-width="1" fill="none" fill-rule="evenodd">
        <g id="bench-scene" transform="translate(-1236.000000, -42.000000)">
            <g id="logo" transform="translate(1236.000000, 42.000000)">
                <g id="majority" transform="translate(0.000000, 175.000000)">
                    <polygon id="Path" fill="#FFFFFF" points="1.70530257e-13 23.1571225 393.352433 0 393.352433 120.842877 1.70530257e-13 113.585572"></polygon>
                    <path d="M19,98.0258544 L19,36.4753621 C19,34.5242719 19.9949995,33.5487414 21.9850283,33.5487414 C23.7338415,33.5487414 25.331871,34.9510665 26.7791647,37.7557587 L42.337494,68.1194488 L57.8958234,37.7557587 C59.343117,34.9510665 60.9411465,33.5487414 62.6899597,33.5487414 C64.6799885,33.5487414 65.674988,34.5242719 65.674988,36.4753621 L65.674988,98.0258544 C65.674988,98.7575133 65.3885488,99.3367345 64.8156617,99.7635355 C64.2427746,100.190336 63.5342144,100.403734 62.6899597,100.403734 C61.906009,100.403734 61.2125245,100.190336 60.6094855,99.7635355 C60.0064464,99.3367345 59.7049314,98.7575133 59.7049314,98.0258544 L59.7049314,46.6270778 L44.6893345,75.3445437 C44.0259916,76.6249467 43.2119011,77.2651386 42.2470386,77.2651386 C41.3424801,77.2651386 40.5585411,76.6249467 39.8951981,75.3445437 L24.9700566,46.3527071 L24.9700566,98.0258544 C24.9700566,98.7575133 24.6685416,99.3367345 24.0655026,99.7635355 C23.4624635,100.190336 22.7689791,100.403734 21.9850283,100.403734 C21.1407737,100.403734 20.4322134,100.190336 19.8593263,99.7635355 C19.2864392,99.3367345 19,98.7575133 19,98.0258544 Z M74.4491621,97.8429406 C74.4491621,97.5380828 74.4793136,97.3246855 74.5396175,97.2027423 L93.4447968,35.1035087 C93.8669241,33.7011625 95.0428326,33 96.9725575,33 C98.9022824,33 100.108342,33.7011625 100.590774,35.1035087 L119.405498,97.2027423 C119.405498,97.2637139 119.420573,97.3551699 119.450725,97.477113 C119.480877,97.5990562 119.495953,97.6905121 119.495953,97.7514837 C119.495953,98.4831426 119.103983,99.1080918 118.320033,99.6263501 C117.536082,100.144608 116.721991,100.403734 115.877737,100.403734 C114.731963,100.403734 113.978175,99.8854832 113.616352,98.8489665 L109.455403,84.7646042 L84.3992565,84.7646042 L80.2383079,98.8489665 C79.9970923,99.8854832 79.2131533,100.403734 77.8864675,100.403734 C77.0422128,100.403734 76.2582738,100.159851 75.534627,99.6720786 C74.8109801,99.184306 74.4491621,98.5745995 74.4491621,97.8429406 Z M85.9369983,79.551561 L107.917661,79.551561 L96.9725575,42.6944312 L85.9369983,79.551561 Z M123.475991,84.8560611 C123.475991,82.7830277 124.440839,81.7465266 126.370564,81.7465266 C128.420896,81.7465266 129.446047,82.5391451 129.446047,84.1244059 C129.446047,87.5997854 130.60688,90.3434649 132.92858,92.3555267 C135.250281,94.3675886 138.370961,95.3736044 142.290715,95.3736044 C146.39138,95.3736044 149.557287,94.2151619 151.788532,91.8982423 C154.019776,89.5813226 155.135382,86.0755099 155.135382,81.380699 L155.135382,39.1276122 L142.38117,39.1276122 C141.657523,39.1276122 141.09972,38.8380015 140.707745,38.2587716 C140.31577,37.6795417 140.119785,36.9936218 140.119785,36.2009914 C140.119785,35.4693326 140.31577,34.8443834 140.707745,34.326125 C141.09972,33.8078667 141.657523,33.5487414 142.38117,33.5487414 L158.301321,33.5487414 C160.170742,33.5487414 161.105438,34.3108746 161.105438,35.8351638 L161.105438,81.380699 C161.105438,88.1485433 159.401879,93.102409 155.994708,96.2424449 C152.587538,99.3824808 148.079888,100.952475 142.471625,100.952475 C136.742754,100.952475 132.144651,99.4434514 128.677176,96.4253587 C125.209702,93.407266 123.475991,89.550872 123.475991,84.8560611 Z M173.85965,81.380699 L173.85965,53.0290606 C173.85965,46.3221879 175.56321,41.3988075 178.97038,38.2587716 C182.377551,35.1187358 186.945503,33.5487414 192.674374,33.5487414 C198.403245,33.5487414 202.971197,35.1187358 206.378368,38.2587716 C209.785538,41.3988075 211.489098,46.3221879 211.489098,53.0290606 L211.489098,81.380699 C211.489098,88.1485433 209.785538,93.102409 206.378368,96.2424449 C202.971197,99.3824808 198.403245,100.952475 192.674374,100.952475 C186.945503,100.952475 182.377551,99.3824808 178.97038,96.2424449 C175.56321,93.102409 173.85965,88.1485433 173.85965,81.380699 Z M179.829707,81.380699 C179.829707,90.7093492 184.11122,95.3736044 192.674374,95.3736044 C201.237528,95.3736044 205.519041,90.7093492 205.519041,81.380699 L205.519041,53.0290606 C205.519041,43.761382 201.237528,39.1276122 192.674374,39.1276122 C184.11122,39.1276122 179.829707,43.761382 179.829707,53.0290606 L179.829707,81.380699 Z M224.514676,98.0258544 L224.514676,35.7437069 C224.514676,34.4023324 225.268463,33.6706845 226.776061,33.5487414 L242.786667,33.5487414 C248.636146,33.5487414 253.354856,34.9510665 256.942938,37.7557587 C260.53102,40.5604509 262.325034,45.1637354 262.325034,51.5657503 C262.325034,61.6870309 257.621401,67.5706992 248.213992,69.2169316 L262.144124,96.2881734 C262.385339,96.5930312 262.505945,96.9893405 262.505945,97.477113 C262.505945,98.2697434 262.144127,98.9861486 261.42048,99.6263501 C260.696834,100.266552 259.912895,100.586648 259.06864,100.586648 C257.98317,100.586648 256.927867,99.5196611 255.902701,97.3856561 L241.972569,69.9485868 L230.484733,69.9485868 L230.484733,98.0258544 C230.484733,98.7575133 230.183218,99.3367345 229.580179,99.7635355 C228.97714,100.190336 228.283655,100.403734 227.499704,100.403734 C226.65545,100.403734 225.946889,100.190336 225.374002,99.7635355 C224.801115,99.3367345 224.514676,98.7575133 224.514676,98.0258544 Z M230.484733,64.7355436 L242.786667,64.7355436 C251.832253,64.7355436 256.354978,60.4371124 256.354978,51.840121 C256.354978,43.3650727 251.832253,39.1276122 242.786667,39.1276122 L230.484733,39.1276122 L230.484733,64.7355436 Z M272.365584,98.0258544 L272.365584,35.7437069 C272.365584,34.2803893 273.360584,33.5487414 275.350613,33.5487414 C277.340641,33.5487414 278.335641,34.2803893 278.335641,35.7437069 L278.335641,98.0258544 C278.335641,98.7575133 278.034126,99.3367345 277.431087,99.7635355 C276.828048,100.190336 276.134563,100.403734 275.350613,100.403734 C274.506358,100.403734 273.797798,100.190336 273.224911,99.7635355 C272.652023,99.3367345 272.365584,98.7575133 272.365584,98.0258544 Z M286.567083,36.3839052 C286.567083,35.6522464 286.763067,34.9968118 287.155043,34.4175819 C287.547018,33.838352 288.104821,33.5487414 288.828468,33.5487414 L325.101084,33.5487414 C325.824731,33.5487414 326.382534,33.8231093 326.774509,34.3718535 C327.166485,34.9205976 327.362469,35.5607895 327.362469,36.2924483 C327.362469,37.0850787 327.166485,37.7709986 326.774509,38.3502285 C326.382534,38.9294584 325.824731,39.2190691 325.101084,39.2190691 L309.995032,39.2190691 L309.995032,98.0258544 C309.995032,98.7575133 309.693517,99.3367345 309.090478,99.7635355 C308.487439,100.190336 307.793954,100.403734 307.010004,100.403734 C306.165749,100.403734 305.457189,100.190336 304.884302,99.7635355 C304.311415,99.3367345 304.024975,98.7575133 304.024975,98.0258544 L304.024975,39.2190691 L288.828468,39.2190691 C288.165125,39.2190691 287.622398,38.9447011 287.20027,38.395957 C286.778143,37.8472128 286.567083,37.1765356 286.567083,36.3839052 Z M330.437953,36.1095345 C330.437953,35.3778757 330.784695,34.7681691 331.47819,34.2803966 C332.171685,33.792624 332.910397,33.5487414 333.694348,33.5487414 C334.65921,33.5487414 335.443149,34.1584479 336.046188,35.3778793 L352.689982,68.7596471 L369.424232,35.3778793 C370.027271,34.1584479 370.81121,33.5487414 371.776072,33.5487414 C372.560023,33.5487414 373.298735,33.792624 373.99223,34.2803966 C374.685725,34.7681691 375.032467,35.3778757 375.032467,36.1095345 C375.032467,36.6582787 374.911861,37.2070146 374.670645,37.7557587 L355.855921,74.0641472 C355.735314,74.4299766 355.675011,74.6738592 355.675011,74.7958023 L355.675011,98.0258544 C355.675011,98.7575133 355.388571,99.3367345 354.815684,99.7635355 C354.242797,100.190336 353.534237,100.403734 352.689982,100.403734 C351.906031,100.403734 351.212547,100.190336 350.609508,99.7635355 C350.006469,99.3367345 349.704954,98.7575133 349.704954,98.0258544 L349.704954,74.7958023 C349.704954,74.4909445 349.674802,74.2470619 349.614499,74.0641472 L330.89023,37.7557587 C330.588711,37.2070146 330.437953,36.6582787 330.437953,36.1095345 Z" id="text" fill="#3273DC" fill-rule="nonzero"></path>
                </g>
                <g id="florida" transform="translate(26.000000, 68.000000)">
                    <polygon id="Path" fill="#FFFFFF" points="0 22.0064964 367.494583 0 367.494583 102.453415 0 124.459912"></polygon>
                    <path d="M53,92.1837082 L53,31.7509761 C53,31.0410432 53.2714858,30.4938115 53.8144656,30.1092645 C54.3574453,29.7247176 54.9909122,29.532447 55.7148852,29.532447 L87.7505306,29.532447 C88.4745036,29.532447 89.0325578,29.7838778 89.4247098,30.2867469 C89.8168619,30.789616 90.0129349,31.3960079 90.0129349,32.1059407 C90.0129349,32.8750346 89.8168619,33.5405867 89.4247098,34.1026169 C89.0325578,34.6646471 88.4745036,34.9456579 87.7505306,34.9456579 L58.9727474,34.9456579 L58.9727474,59.3494778 L73.2711429,59.3494778 C73.9347848,59.3494778 74.4626738,59.6009086 74.8548259,60.1037777 C75.2469779,60.6066468 75.443051,61.2426188 75.443051,62.0117127 C75.443051,63.6090616 74.7190889,64.4077241 73.2711429,64.4077241 L58.9727474,64.4077241 L58.9727474,92.1837082 C58.9727474,92.8936411 58.6710966,93.4408728 58.0677857,93.8254197 C57.4644749,94.2099667 56.7706778,94.4022373 55.9863737,94.4022373 C53.995448,94.4022373 53,93.662735 53,92.1837082 Z M97.7051097,92.0949671 L97.7051097,31.6622349 C97.7051097,30.2423692 98.7005576,29.532447 100.691483,29.532447 C102.682409,29.532447 103.677857,30.2423692 103.677857,31.6622349 L103.677857,88.9890263 L129.469267,88.9890263 C130.79655,88.9890263 131.460182,89.8764291 131.460182,91.6512612 C131.460182,93.4852545 130.79655,94.4022373 129.469267,94.4022373 L100.419995,94.4022373 C99.6960219,94.4022373 99.062555,94.1951767 98.5195752,93.7810492 C97.9765955,93.3669217 97.7051097,92.8048999 97.7051097,92.0949671 Z M138.880869,75.9440753 L138.880869,48.4343147 C138.880869,41.9265969 140.585196,37.1494121 143.993902,34.1026169 C147.402609,31.0558217 151.97262,29.532447 157.704073,29.532447 C163.435526,29.532447 168.005537,31.0558217 171.414243,34.1026169 C174.822949,37.1494121 176.527277,41.9265969 176.527277,48.4343147 L176.527277,75.9440753 C176.527277,82.5109543 174.822949,87.3177192 171.414243,90.3645144 C168.005537,93.4113095 163.435526,94.9346843 157.704073,94.9346843 C151.97262,94.9346843 147.402609,93.4113095 143.993902,90.3645144 C140.585196,87.3177192 138.880869,82.5109543 138.880869,75.9440753 Z M144.853616,75.9440753 C144.853616,84.9957193 149.137059,89.5214733 157.704073,89.5214733 C166.271087,89.5214733 170.554529,84.9957193 170.554529,75.9440753 L170.554529,48.4343147 C170.554529,39.4418319 166.271087,34.9456579 157.704073,34.9456579 C149.137059,34.9456579 144.853616,39.4418319 144.853616,48.4343147 L144.853616,75.9440753 Z M189.558726,92.0949671 L189.558726,31.6622349 C189.558726,30.3606913 190.312853,29.6507691 191.82113,29.532447 L207.838953,29.532447 C213.691068,29.532447 218.411904,30.8931312 222.001604,33.6145405 C225.591303,36.3359498 227.386126,40.8025437 227.386126,47.0144561 C227.386126,56.835194 222.680372,62.5441517 213.268723,64.1415006 L227.205134,90.408885 C227.446458,90.7046903 227.567119,91.0892315 227.567119,91.5625201 C227.567119,92.331614 227.205138,93.0267462 226.481165,93.6479374 C225.757192,94.2691287 224.972899,94.5797196 224.128264,94.5797196 C223.042304,94.5797196 221.986526,93.5444164 220.960898,91.4737789 L207.024487,64.8514299 L195.531473,64.8514299 L195.531473,92.0949671 C195.531473,92.8048999 195.229822,93.3669217 194.626511,93.7810492 C194.023201,94.1951767 193.329404,94.4022373 192.545099,94.4022373 C191.700464,94.4022373 190.991585,94.1951767 190.418439,93.7810492 C189.845294,93.3669217 189.558726,92.8048999 189.558726,92.0949671 Z M195.531473,59.7931836 L207.838953,59.7931836 C216.888615,59.7931836 221.413379,55.6223907 221.413379,47.2806796 C221.413379,39.0572907 216.888615,34.9456579 207.838953,34.9456579 L195.531473,34.9456579 L195.531473,59.7931836 Z M237.431202,92.0949671 L237.431202,31.6622349 C237.431202,30.2423692 238.426649,29.532447 240.417575,29.532447 C242.408501,29.532447 243.403949,30.2423692 243.403949,31.6622349 L243.403949,92.0949671 C243.403949,92.8048999 243.102298,93.3669217 242.498987,93.7810492 C241.895676,94.1951767 241.201879,94.4022373 240.417575,94.4022373 C239.57294,94.4022373 238.86406,94.1951767 238.290915,93.7810492 C237.71777,93.3669217 237.431202,92.8048999 237.431202,92.0949671 Z M257.159367,92.1837082 L257.159367,31.6622349 C257.159367,31.0706242 257.415771,30.5677626 257.928585,30.1536351 C258.441399,29.7395076 259.089948,29.532447 259.874253,29.532447 L275.892075,29.532447 C281.623528,29.532447 286.208622,31.0558217 289.647494,34.1026169 C293.086365,37.1494121 294.805775,41.9265969 294.805775,48.4343147 L294.805775,75.4116284 C294.805775,81.9785073 293.086365,86.7852722 289.647494,89.8320674 C286.208622,92.8788626 281.623528,94.4022373 275.892075,94.4022373 L259.874253,94.4022373 C259.089948,94.4022373 258.441399,94.1803866 257.928585,93.7366786 C257.415771,93.2929705 257.159367,92.7753189 257.159367,92.1837082 Z M263.132115,88.9890263 L275.892075,88.9890263 C279.994589,88.9890263 283.177006,87.8501928 285.439422,85.5724916 C287.701837,83.2947903 288.833028,79.9078698 288.833028,75.4116284 L288.833028,48.4343147 C288.833028,43.9380733 287.701837,40.5659428 285.439422,38.3178221 C283.177006,36.0697014 279.994589,34.9456579 275.892075,34.9456579 L263.132115,34.9456579 L263.132115,88.9890263 Z M302.859935,91.9174847 C302.859935,91.6216794 302.8901,91.4146187 302.950431,91.2962966 L321.864131,31.0410468 C322.286449,29.6803421 323.462887,29 325.393482,29 C327.324077,29 328.53068,29.6803421 329.013329,31.0410468 L347.836533,91.2962966 C347.836533,91.3554577 347.851616,91.4441979 347.881781,91.5625201 C347.911947,91.6808422 347.927029,91.7695825 347.927029,91.8287436 C347.927029,92.5386764 347.534883,93.1450683 346.750579,93.6479374 C345.966275,94.1508065 345.151818,94.4022373 344.307182,94.4022373 C343.160892,94.4022373 342.406765,93.8993757 342.044778,92.8936375 L337.881954,79.2274984 L312.814514,79.2274984 L308.65169,92.8936375 C308.410366,93.8993757 307.626073,94.4022373 306.29879,94.4022373 C305.454154,94.4022373 304.669862,94.1655966 303.945889,93.692308 C303.221916,93.2190194 302.859935,92.6274176 302.859935,91.9174847 Z M314.352949,74.1692521 L336.343519,74.1692521 L325.393482,38.4065633 L314.352949,74.1692521 Z" id="text" fill="#3273DC" fill-rule="nonzero"></path>
                </g>
                <g id="new">
                    <polygon id="Path" fill="#FFFFFF" points="0 15.3829868 176 0 176 76.0073119 0 87"></polygon>
                    <path d="M40,67.0027137 L40,24.5603799 C40,23.5201214 40.6960382,23 42.0881356,23 C43.2693091,23 44.3660966,23.9570234 45.3785311,25.8710991 L62.4632768,59.0759837 L62.4632768,24.4979647 C62.4632768,23.4993166 63.1593151,23 64.5514124,23 C65.9435098,23 66.639548,23.4993166 66.639548,24.4979647 L66.639548,67.0027137 C66.639548,67.5020378 66.4286273,67.8973301 66.0067797,68.1886024 C65.584932,68.4798748 65.0998144,68.6255088 64.5514124,68.6255088 C63.4967932,68.6255088 62.5687422,67.8349242 61.7672316,66.2537313 L44.1762712,32.4871099 L44.1762712,67.0027137 C44.1762712,67.5020378 43.9653505,67.8973301 43.5435028,68.1886024 C43.1216551,68.4798748 42.6365376,68.6255088 42.0881356,68.6255088 C41.4975488,68.6255088 41.0018852,68.4798748 40.6011299,68.1886024 C40.2003746,67.8973301 40,67.5020378 40,67.0027137 Z M76.2576271,67.0027137 L76.2576271,24.5603799 C76.2576271,24.0610558 76.4474557,23.676166 76.8271186,23.4056988 C77.2067816,23.1352316 77.649715,23 78.1559322,23 L100.682486,23 C101.737105,23 102.264407,23.6033409 102.264407,24.8100407 C102.264407,25.3509751 102.127308,25.8190844 101.853107,26.2143826 C101.578906,26.6096809 101.188703,26.807327 100.682486,26.807327 L80.4338983,26.807327 L80.4338983,43.9715061 L90.3683616,43.9715061 C90.8745788,43.9715061 91.2647821,44.1483474 91.5389831,44.5020353 C91.813184,44.8557232 91.9502825,45.3030276 91.9502825,45.843962 C91.9502825,46.9674412 91.4229808,47.5291723 90.3683616,47.5291723 L80.4338983,47.5291723 L80.4338983,64.8181818 L100.682486,64.8181818 C101.146518,64.8181818 101.526176,65.0054255 101.821469,65.3799186 C102.116762,65.7544116 102.264407,66.2121185 102.264407,66.7530529 C102.264407,68.0013631 101.737105,68.6255088 100.682486,68.6255088 L78.1559322,68.6255088 C77.649715,68.6255088 77.2067816,68.4798748 76.8271186,68.1886024 C76.4474557,67.8973301 76.2576271,67.5020378 76.2576271,67.0027137 Z M104.985311,24.6852103 C104.985311,24.2274966 105.238416,23.8322043 105.744633,23.4993216 C106.25085,23.1664389 106.799244,23 107.389831,23 C108.275711,23 108.824104,23.3536826 109.035028,24.0610583 L119.981921,62.3839891 L126.309605,39.1031208 C126.520528,38.146083 127.258751,37.6675712 128.524294,37.6675712 C129.663283,37.6675712 130.380413,38.146083 130.675706,39.1031208 L137.00339,62.3839891 L147.950282,24.0610583 C148.161206,23.3536826 148.7096,23 149.59548,23 C150.186067,23 150.734461,23.1664389 151.240678,23.4993216 C151.746895,23.8322043 152,24.2274966 152,24.6852103 C152,24.893262 151.978908,25.0597009 151.936723,25.1845319 L139.534463,67.5020353 C139.196985,68.5006834 138.353302,69 137.00339,69 C135.611292,69 134.788702,68.5006834 134.535593,67.5020353 L128.524294,45.4694708 L122.512994,67.5020353 C122.259886,68.5006834 121.437295,69 120.045198,69 C118.6531,69 117.809418,68.5006834 117.514124,67.5020353 L105.048588,25.1845319 C105.006403,25.0597009 104.985311,24.893262 104.985311,24.6852103 Z" id="text" fill="#3273DC" fill-rule="nonzero"></path>
                </g>
            </g>
        </g>
    </g>
</svg>