<?xml version="1.0" encoding="UTF-8"?>
<svg viewBox="0 0 542 228" version="1.1" xmlns="http://www.w3.org/2000/svg" xmlns:xlink="http://www.w3.org/1999/xlink">
    <g id="Page-1" stroke="none" stroke-width="1" fill="white" fill-rule="evenodd">
        <path d="M74.5009766,173.1875 C74.9111349,172.542966 75.1455075,172.191407 75.2041016,172.132812 L75.3798828,172.308594 L75.4677734,172.484375 L75.0283203,176.439453 L74.5009766,180.394531 C74.3251944,181.6836 74.0615252,182.621091 73.7099609,183.207031 C73.2412086,184.144536 72.4794975,184.642578 71.4248047,184.701172 L70.1064453,184.789062 L68.8759766,184.964844 C67.8212838,185.082032 66.9423863,184.964846 66.2392578,184.613281 L65.6240234,184.525391 L64.8330078,184.525391 L64.4814453,183.998047 L64.1298828,183.294922 C63.6025364,183.880862 63.6611296,184.496091 64.3056641,185.140625 L64.9208984,185.84375 C65.0966806,186.195314 65.1259771,186.517577 65.0087891,186.810547 L57.0107422,183.910156 C54.7841686,183.031246 53.4365258,181.039078 52.9677734,177.933594 C52.381833,173.597635 51.0341902,169.26174 48.9248047,164.925781 C45.7021323,158.304654 43.6513716,152.005889 42.7724609,146.029297 L41.5419922,136.625 L40.2236328,127.132813 L38.5537109,118.871094 L36.6201172,110.697266 C34.0419793,99.9159617 32.518557,91.1855803 32.0498047,84.5058594 L31.6982422,82.484375 L31.2587891,80.375 L30.8193359,80.375 L30.2041016,83.6269531 L29.5888672,86.7910156 L26.2490234,100.0625 L23.0849609,113.333984 C22.5576146,115.853528 22.0009795,119.105449 21.4150391,123.089844 L19.9208984,132.845703 L17.7236328,144.095703 L16.1416016,151.390625 L14.2958984,158.509766 C12.8896414,163.490259 10.8974738,166.917959 8.31933594,168.792969 C5.74119805,170.609384 3.6904373,169.964859 2.16699219,166.859375 C0.23338877,163.109356 -0.235356543,158.27542 0.760742187,152.357422 C2.40137539,142.455029 4.07128057,133.402385 5.77050781,125.199219 L8.40722656,114.300781 L11.2197266,103.578125 L19.7451172,71.0585938 L22.2939453,61.390625 L24.9306641,51.7226562 C25.9267628,47.9726375 25.9267628,44.925793 24.9306641,42.5820312 C24.5205058,41.6445266 24.5790989,40.7070359 25.1064453,39.7695312 L25.8974609,38.6269531 L26.7763672,37.5722656 L28.0947266,36.1660156 L29.5009766,34.8476562 C31.7275502,32.0937362 34.6279118,31.4199148 38.2021484,32.8261719 L39.4326172,33.3535156 L40.6630859,33.96875 C44.0029464,36.0195415 45.4677755,38.6855305 45.0576172,41.9667969 L44.7939453,44.3398438 L44.7939453,45.3945312 L44.7060547,46.1855469 L46.6396484,50.84375 L48.5732422,55.3261719 L52.2646484,63.8515625 L52.7919922,64.9941406 L53.3193359,66.0488281 C54.8427811,69.5644707 55.7216785,72.5234255 55.9560547,74.9257812 C56.0732428,76.0976621 56.3955052,77.6796775 56.9228516,79.671875 L57.6259766,82.0449219 L58.2412109,84.4179688 L59.1201172,89.515625 L59.8232422,94.7011719 L60.3505859,99.0078125 L60.9658203,103.402344 L62.3720703,110.785156 C62.8408227,113.59767 63.1044919,116.058583 63.1630859,118.167969 C63.1630859,119.281256 63.3388654,120.658195 63.6904297,122.298828 L64.4814453,126.429688 L65.0966797,126.517578 L65.9755859,120.101562 L69.2275391,91.8007812 L70.1943359,82.3964844 L71.1611328,73.0800781 C71.9814494,66.8691096 73.0361264,60.0723025 74.3251953,52.6894531 C76.3759868,41.0878326 78.045892,32.3574512 79.3349609,26.4980469 C80.3310597,21.9277115 81.7665922,17.5039276 83.6416016,13.2265625 C84.3447301,11.5273353 85.399407,9.47657451 86.8056641,7.07421875 L88.6513672,3.91015625 L90.4091797,0.74609375 L89.8818359,4.70117188 L89.2666016,8.65625 L89.3544922,8.83203125 L89.6181641,9.09570312 C91.7861437,10.267584 92.7529309,12.3476413 92.5185547,15.3359375 L91.8154297,21.7519531 L91.1123047,28.0800781 L91.0244141,31.7714844 L90.9365234,35.5507812 L90.4091797,40.2089844 L89.7939453,44.8671875 L87.7724609,59.28125 L86.0146484,68.9492188 L84.6083984,77.8261719 L83.0263672,86.703125 L81.0927734,95.7558594 L79.1591797,104.896484 L78.3681641,109.203125 L77.6650391,113.509766 C77.1376927,116.849626 76.90332,119.808581 76.9619141,122.386719 L76.6982422,132.669922 L76.2587891,142.865234 L75.9951172,149.632812 L75.7314453,156.3125 L75.0283203,164.046875 L74.3251953,171.693359 C74.3251953,171.751953 74.3837885,172.249995 74.5009766,173.1875 Z M141.176758,114.740234 L141.967773,114.125 C151.518602,103.636666 160.014611,92.2695925 167.456055,80.0234375 C167.866213,79.378903 168.276365,78.4121158 168.686523,77.1230469 L169.213867,75.453125 L169.829102,73.6074219 L168.774414,73.6953125 L167.807617,73.6953125 C167.104489,73.6953125 166.57715,73.7832022 166.225586,73.9589844 C163.881824,75.1894593 161.977546,76.4199157 160.512695,77.6503906 C155.825172,81.5175975 152.250989,85.9999745 149.790039,91.0976562 L146.274414,98.2167969 L142.84668,105.423828 C142.377927,106.595709 141.938479,108.089835 141.52832,109.90625 L140.473633,114.564453 L141.176758,114.740234 Z M177.299805,66.9277344 C178.295903,68.0996152 179.057615,69.1249956 179.584961,70.0039062 C180.463872,71.4687573 181.225583,73.5781112 181.870117,76.3320312 C182.63184,79.4375155 182.45606,82.6894361 181.342773,86.0878906 C180.932615,87.4355536 180.317387,88.9296793 179.49707,90.5703125 L177.211914,94.9648438 C175.102529,98.9492387 172.817395,102.845684 170.356445,106.654297 C167.075179,111.634791 163.881851,116.175761 160.776367,120.277344 C158.608388,123.089858 156.293958,124.935542 153.833008,125.814453 C153.305661,125.990235 152.661137,126.429684 151.899414,127.132812 L150.141602,128.890625 L145.043945,132.757812 L141.52832,135.833984 L137.924805,138.998047 C138.276369,147.376995 138.540038,153.998023 138.71582,158.861328 C141.645522,157.337883 144.780257,155.169936 148.120117,152.357422 L152.338867,148.753906 L156.469727,145.150391 L173.432617,131.175781 L174.135742,131.878906 L179.145508,128.363281 C179.848636,129.593756 179.760747,130.941399 178.881836,132.40625 C178.002925,133.929695 176.625986,135.541007 174.750977,137.240234 L172.37793,139.349609 L170.004883,141.546875 C168.36425,143.187508 167.0752,145.267566 166.137695,147.787109 C165.903319,148.607426 165.375981,149.544917 164.555664,150.599609 L162.62207,153.148438 L161.567383,157.894531 L160.249023,162.464844 C159.135737,165.74611 156.499044,168.675768 152.338867,171.253906 C150.522452,172.367193 147.768573,173.539056 144.077148,174.769531 C140.502912,176.000006 136.547873,176.322269 132.211914,175.736328 C131.333003,175.61914 130.24903,175.648437 128.959961,175.824219 C125.737289,176.292971 122.89552,175.208998 120.43457,172.572266 C113.461879,164.95504 109.741213,157.250039 109.272461,149.457031 L109.008789,148.138672 L108.745117,146.996094 C107.573236,146.878906 106.020517,146.761719 104.086914,146.644531 L104.086914,146.292969 L101.098633,147.083984 L100.131836,149.457031 L96.0888672,147.962891 C94.506828,147.435544 93.247075,146.908206 92.3095703,146.380859 C89.5556503,144.857414 87.7392622,142.718764 86.8603516,139.964844 C87.8564503,139.261715 88.3837888,138.88086 88.4423828,138.822266 L89.8486328,138.207031 L93.1005859,138.734375 L101.538086,133.988281 L110.063477,129.066406 L111.381836,124.408203 L112.700195,119.662109 C115.922868,108.9394 122.07515,98.6270026 131.157227,88.7246094 C136.606473,82.8652051 141.323222,78.1484554 145.307617,74.5742188 C152.045932,68.5390323 159.428671,64.7011801 167.456055,63.0605469 C168.334965,62.8261707 169.506829,62.8554673 170.97168,63.1484375 L172.817383,63.5878906 L174.663086,63.9394531 L177.299805,66.9277344 Z M222.00293,164.486328 L219.805664,173.363281 L215.586914,175.736328 L211.192383,178.197266 C209.727532,177.904295 208.174813,177.61133 206.53418,177.318359 L206.358398,178.900391 C196.866163,178.900391 191.270516,174.798869 189.571289,166.595703 C188.106438,159.564418 187.286134,151.332078 187.110352,141.898438 L186.670898,128.978516 C186.436522,123.763646 186.348633,119.486345 186.407227,116.146484 C186.524415,113.041 186.81738,109.027368 187.286133,104.105469 L188.428711,92.0644531 C189.014651,84.9745739 190.47948,78.9980712 192.823242,74.1347656 L195.37207,69.3007812 L196.075195,69.0371094 L196.69043,68.5976562 C197.803717,66.7812409 199.942367,65.8730469 203.106445,65.8730469 C206.387712,65.8730469 209.024404,66.4589785 211.016602,67.6308594 C216.817412,71.0293139 219.102545,76.419885 217.87207,83.8027344 C216.172843,93.8223157 215.557615,101.556613 216.026367,107.005859 L216.641602,113.685547 L217.168945,120.365234 L217.256836,124.056641 L217.168945,128.275391 L218.399414,127.132812 L219.366211,126.253906 C227.276407,116.468701 232.549792,108.587921 235.186523,102.611328 C235.948246,100.912101 237.090813,98.9785265 238.614258,96.8105469 L242.569336,91.1855469 C243.096682,90.4824184 243.97558,89.8964867 245.206055,89.4277344 C247.256846,88.7246059 249.922835,88.6074195 253.204102,89.0761719 L253.467773,90.1308594 L253.467773,91.0097656 C252.881833,92.7089929 252.82324,94.6425673 253.291992,96.8105469 L253.995117,99.6230469 L254.786133,102.435547 L258.125977,116.322266 L260.147461,123.441406 L261.993164,130.648438 L263.047852,136.712891 L263.926758,142.865234 L263.926758,145.150391 L283.96582,110.785156 L284.405273,110.785156 L283.790039,118.695312 L283.790039,122.650391 L284.405273,122.738281 L278.25293,138.207031 L275.000977,147.523438 L274.825195,148.841797 L274.737305,150.248047 C275.381839,150.423829 275.909178,150.570312 276.319336,150.6875 L276.143555,151.302734 L274.737305,157.103516 L273.418945,162.904297 C273.360351,163.431643 273.448241,164.134761 273.682617,165.013672 L274.209961,167.298828 C274.502931,168.939461 274.590821,170.960925 274.473633,173.363281 L274.12207,179.339844 L274.03418,183.558594 L274.12207,187.777344 L274.209961,189.359375 L274.297852,191.292969 C272.774406,190.238276 270.987315,190.501945 268.936523,192.083984 C268.291989,191.73242 267.500981,191.322268 266.563477,190.853516 L264.717773,195.423828 L264.366211,195.160156 L261.026367,199.818359 C258.682605,197.708974 256.016617,197.123042 253.02832,198.060547 L251.709961,197.533203 C248.838853,196.771481 246.788092,194.72072 245.557617,191.380859 C244.15136,187.513653 243.03809,181.947302 242.217773,174.681641 C240.87011,161.849545 240.254882,147.611406 240.37207,131.966797 L240.899414,119.134766 L241.69043,106.390625 C241.69043,106.332031 241.661133,105.804692 241.602539,104.808594 C238.790025,109.906275 236.534188,113.949204 234.834961,116.9375 L235.010742,117.113281 L233.077148,120.716797 L231.231445,124.408203 L229.825195,127.660156 L228.506836,130.912109 C227.510737,133.490247 226.924806,135.804677 226.749023,137.855469 L226.133789,141.107422 L225.342773,144.359375 L224.375977,148.050781 L223.672852,151.830078 L223.760742,153.675781 L224.112305,155.697266 L222.00293,164.486328 Z M321.198242,173.275391 L320.143555,173.714844 L319.000977,174.154297 C318.883788,174.154297 318.737306,174.037111 318.561523,173.802734 L317.946289,173.099609 C317.594725,173.626956 317.125979,174.35937 316.540039,175.296875 L315.661133,176.703125 L314.694336,178.285156 L314.782227,174.945312 L314.782227,171.869141 C313.200187,174.857437 311.911138,177.259757 310.915039,179.076172 L310.827148,175.296875 L310.651367,171.957031 C310.592773,169.554675 310.680663,167.650398 310.915039,166.244141 L317.594727,131.791016 L324.274414,97.4257812 C324.391602,96.8984349 324.245119,96.1367237 323.834961,95.140625 L322.780273,92.6796875 L319.44043,82.3964844 C319.381836,82.2792963 319.557615,82.0742202 319.967773,81.78125 C320.436526,81.4296857 320.758788,81.3124994 320.93457,81.4296875 C324.567401,83.1875088 326.530272,82.1035353 326.823242,78.1777344 C327.174806,74.4863097 327.819331,69.76956 328.756836,64.0273438 L329.987305,56.9960938 L331.129883,49.9648438 C331.188477,49.3203093 331.012697,48.500005 330.602539,47.5039062 C330.133787,46.4492135 329.635745,45.7460955 329.108398,45.3945312 C320.612262,39.652315 315.104505,31.4785687 312.584961,20.8730469 C312.467773,20.4628886 312.819332,19.8769569 313.639648,19.1152344 C314.401371,18.4121059 315.016599,18.11914 315.485352,18.2363281 C324.918992,21.2246243 336.344659,21.8691491 349.762695,20.1699219 L375.77832,17.0058594 C385.504931,15.8925726 394.235313,15.1015648 401.969727,14.6328125 C404.782241,14.4570304 408.38572,14.8671825 412.780273,15.8632813 L418.405273,17.1816406 L423.942383,18.4121094 L424.733398,18.7636719 L425.524414,19.203125 L424.99707,19.9941406 C424.821288,20.2871108 424.645509,20.4628903 424.469727,20.5214844 C423.35644,20.6972665 422.741212,21.2831981 422.624023,22.2792969 L422.536133,23.7734375 L422.536133,25.2675781 C422.536133,25.6777364 422.30176,26.1171852 421.833008,26.5859375 L421.129883,27.2011719 L420.514648,27.7285156 C416.647442,31.4785344 410.377973,33.0312532 401.706055,32.3867188 C399.362293,32.2695307 396.754897,32.6210896 393.883789,33.4414062 L390.104492,34.671875 L386.413086,36.1660156 C384.069324,37.0449263 381.344742,38.2753827 378.239258,39.8574219 L370.241211,43.9003906 L366.374023,46.1855469 L362.506836,48.6464844 C359.401352,50.5214937 356.706066,51.5468741 354.420898,51.7226562 C351.081038,51.9570324 348.825201,52.7187436 347.65332,54.0078125 C346.481439,55.3554755 346.012694,57.7870918 346.24707,61.3027344 C346.364258,63.4121199 346.247072,65.9609226 345.895508,68.9492188 L345.280273,72.640625 L344.75293,76.4199219 C344.518554,78.4707134 345.309561,79.4960938 347.125977,79.4960938 L359.166992,79.4960938 C363.678733,79.6132818 367.692365,79.7890613 371.208008,80.0234375 C372.848641,80.1406256 374.928698,80.5800743 377.448242,81.3417969 L380.612305,82.3085938 L383.688477,83.1875 L383.249023,85.5605469 L382.897461,88.0214844 C382.370115,94.0566708 379.821312,98.3632684 375.250977,100.941406 C373.610343,101.878911 371.442396,102.728512 368.74707,103.490234 L365.143555,104.369141 L361.62793,105.248047 C359.577138,105.775393 356.823259,105.980469 353.366211,105.863281 L349.05957,105.6875 L344.84082,105.6875 C344.372068,105.6875 343.874026,105.892576 343.34668,106.302734 C342.877927,106.771487 342.584962,107.240232 342.467773,107.708984 L340.446289,119.75 L338.512695,131.878906 C336.930656,141.546923 335.348641,149.486297 333.766602,155.697266 C332.887691,158.978532 331.159193,162.640605 328.581055,166.683594 L325.15332,171.693359 L321.813477,176.791016 L320.670898,175.912109 L321.198242,173.275391 Z M469.700195,151.566406 L466.799805,151.654297 L464.514648,152.884766 L462.141602,154.115234 L459.768555,151.830078 L457.571289,149.896484 C456.399408,149.017574 455.69629,147.816414 455.461914,146.292969 L453.44043,130.208984 C452.737301,124.115204 452.268556,118.695336 452.03418,113.949219 C451.741209,105.921835 452.268548,94.1446089 453.616211,78.6171875 C453.850587,75.8632675 453.879884,73.6074307 453.704102,71.8496094 L453.176758,72.5527344 L452.825195,73.34375 C451.653314,76.8593926 449.983409,80.8437277 447.81543,85.296875 L444.915039,91.0976562 L441.926758,96.8984375 C437.473611,105.746138 433.254903,114.535113 429.270508,123.265625 C427.336904,127.425802 426.252931,131.46873 426.018555,135.394531 C425.959961,136.09766 425.725588,137.005854 425.31543,138.119141 L424.700195,139.525391 L424.172852,141.019531 C422.825189,140.199215 421.506842,139.085945 420.217773,137.679688 L418.635742,135.921875 L417.141602,134.076172 L415.911133,132.40625 C414.739252,130.707023 414.358396,129.007821 414.768555,127.308594 L415.647461,121.595703 L416.262695,115.794922 L416.790039,113.509766 C417.610356,111.224598 418.166991,108.587906 418.459961,105.599609 L418.811523,101.556641 L419.075195,97.5136719 L419.77832,85.7363281 C420.129885,81.4003689 420.59863,77.5039235 421.18457,74.046875 C421.477541,72.1718656 421.711913,69.623063 421.887695,66.4003906 L422.50293,58.578125 L423.469727,52.953125 L424.612305,47.328125 C425.315433,43.6367003 425.608399,40.2675934 425.491211,37.2207031 L425.754883,32.4746094 L426.370117,27.7285156 C426.83887,23.7441207 426.252938,19.9062685 424.612305,16.2148437 C423.616206,13.871082 423.528316,11.9668042 424.348633,10.5019531 C425.403326,8.80272588 426.897451,7.92382842 428.831055,7.86523437 C430.764658,7.80664033 432.28808,8.59764805 433.401367,10.2382812 C436.91701,15.7461213 438.147466,20.7851334 437.092773,25.3554687 C436.682615,27.1718841 436.653319,29.1347551 437.004883,31.2441406 C437.356447,33.2949321 437.385744,35.6972519 437.092773,38.4511719 L436.65332,41.9667969 L436.125977,45.4824219 L434.280273,59.1054687 L434.983398,59.4570312 L436.916992,56.2929687 L438.674805,53.0410156 C442.131853,46.2441066 446.760713,39.3008167 452.561523,32.2109375 L458.713867,24.3007812 C459.065431,23.7734349 459.270508,23.1875032 459.329102,22.5429687 C459.563478,20.0820189 461.028307,18.3828172 463.723633,17.4453125 L467.063477,16.390625 L470.666992,15.3359375 C471.07715,16.8007886 472.102531,18.0605416 473.743164,19.1152344 L475.94043,20.4335937 L478.137695,21.6640625 C484.641634,26.0000217 487.600589,32.5917526 487.014648,41.4394531 L487.014648,43.4609375 L487.102539,45.4824219 C486.985351,56.1465377 485.784191,65.9901893 483.499023,75.0136719 L481.65332,81.6054688 L479.807617,88.2851562 C479.221677,90.3945418 478.635745,93.0898273 478.049805,96.3710938 L474.446289,116.585938 C474.270507,117.757818 474.270507,118.929682 474.446289,120.101562 L474.797852,119.662109 L475.061523,119.222656 C476.46778,114.945291 478.459948,110.111355 481.038086,104.720703 L484.553711,97.7773438 L488.157227,90.8339844 L492.112305,83.0996094 L493.782227,80.4628906 C494.602543,79.4081979 495.159178,78.558597 495.452148,77.9140625 L498.088867,71.6738281 L500.637695,65.5214844 L502.043945,63.1484375 L503.713867,60.8632812 L502.571289,60.6875 L503.098633,58.6660156 C503.333009,59.134768 503.625975,59.691403 503.977539,60.3359375 L505.47168,57.6113281 L506.790039,55.0625 C509.075207,49.3788778 511.887679,44.251976 515.227539,39.6816406 L516.370117,38.0996094 L517.688477,36.5175781 C518.625981,35.3456973 519.651362,34.4960964 520.764648,33.96875 C521.116213,33.7929679 521.497068,33.4414089 521.907227,32.9140625 L522.874023,31.5957031 L523.049805,29.6621094 L525.422852,27.0253906 L527.795898,24.4765625 L529.993164,24.0371094 L532.19043,23.3339844 C534.006845,22.865232 535.559564,23.0410115 536.848633,23.8613281 C538.137702,24.7402388 539.163082,25.9121021 539.924805,27.3769531 C540.393557,28.3730519 540.803709,29.691398 541.155273,31.3320312 L539.836914,33.8808594 C539.368162,34.8183641 539.075196,35.6093718 538.958008,36.2539062 C538.313473,39.5937667 538.020508,43.8710677 538.079102,49.0859375 C538.079102,55.8242524 537.698246,62.8847287 536.936523,70.2675781 C536.350583,75.8926062 535.325203,82.1620748 533.860352,89.0761719 L528.586914,109.818359 L528.05957,111.488281 L527.532227,113.246094 C527.180662,114.652351 527.209959,115.882807 527.620117,116.9375 L527.795898,117.992188 L527.620117,119.134766 L525.774414,133.285156 L525.334961,134.955078 L524.543945,137.064453 L522.522461,137.503906 L519.973633,138.207031 C518.91894,143.597683 517.834967,150.042931 516.72168,157.542969 L513.821289,177.230469 C513.118161,181.917992 512.561525,188.53902 512.151367,197.09375 L511.624023,207.113281 L510.745117,217.220703 C509.280266,218.158208 508.723631,219.652333 509.075195,221.703125 L507.053711,224.339844 L505.032227,226.888672 L503.889648,225.21875 L502.74707,223.636719 L502.483398,224.955078 L502.395508,226.009766 C501.750973,226.478518 501.165042,226.917967 500.637695,227.328125 L499.583008,225.921875 C499.17285,225.394529 498.90918,224.896487 498.791992,224.427734 L494.573242,208.607422 C493.108391,202.513641 492.112307,197.181663 491.584961,192.611328 L491.057617,186.898438 C490.237301,174.007748 490.58886,161.996149 492.112305,150.863281 C492.698245,146.527322 493.577143,141.459013 494.749023,135.658203 L497.825195,120.628906 L500.901367,107.357422 L504.06543,94.1738281 C504.768558,91.0683438 505.237304,88.1679822 505.47168,85.4726562 L504.329102,87.5820312 L503.362305,89.6914062 L501.165039,95.2285156 L499.055664,100.677734 L497.03418,105.072266 L495.012695,109.378906 L490.618164,119.134766 L485.959961,128.802734 C485.198238,130.326179 484.055672,132.259754 482.532227,134.603516 L478.84082,140.316406 L476.907227,144.095703 L475.061523,147.875 L473.831055,149.632812 L472.336914,151.390625 L469.700195,151.566406 Z" id="NewFM" fill="#FFFFFF"></path>
    </g>
</svg>