<?xml version="1.0" encoding="UTF-8"?>
<svg width="832px" height="68px" viewBox="0 0 832 68" version="1.1" xmlns="http://www.w3.org/2000/svg" xmlns:xlink="http://www.w3.org/1999/xlink">
    <!-- Generator: Sketch Beta 52.3 (67297) - http://www.bohemiancoding.com/sketch -->
    <title>Group 2</title>
    <desc>Created with Sketch Beta.</desc>
    <g id="Page-1" stroke="none" stroke-width="1" fill="none" fill-rule="evenodd">
        <g id="Group-2">
            <path d="M0.927029,64.6880985 L0.927029,4.22298219 C0.927029,2.74098661 1.91989313,2 3.90565134,2 C5.59053702,2 7.15505024,3.36341539 8.59923807,6.09028735 L32.9697843,53.3953488 L32.9697843,4.1340629 C32.9697843,2.71134722 33.9626486,2 35.9484067,2 C37.9341649,2 38.927029,2.71134722 38.927029,4.1340629 L38.927029,64.6880985 C38.927029,65.3994564 38.626161,65.9626063 38.0244163,66.3775649 C37.4226713,66.7925237 36.730675,67 35.9484067,67 C34.4440444,67 33.1202255,65.8737003 31.9769102,63.621067 L6.88427368,15.5157319 L6.88427368,64.6880985 C6.88427368,65.3994564 6.58340571,65.9626063 5.9816608,66.3775649 C5.37991588,66.7925237 4.68791972,67 3.90565134,67 C3.06320843,67 2.35616877,66.7925237 1.78451112,66.3775649 C1.21285347,65.9626063 0.927029,65.3994564 0.927029,64.6880985 Z M52.927029,64.6880985 L52.927029,4.22298219 C52.927029,3.51162428 53.1970993,2.96329424 53.7372479,2.57797541 C54.2773967,2.19265657 54.9075607,2 55.6277589,2 L87.6764206,2 C89.1768333,2 89.927029,2.85954457 89.927029,4.57865936 C89.927029,5.34929704 89.7319774,6.01618504 89.3418701,6.57934332 C88.9517627,7.14250174 88.3966185,7.42407661 87.6764206,7.42407661 L58.8686348,7.42407661 L58.8686348,31.876881 L73.0024547,31.876881 C73.7226529,31.876881 74.2777974,32.1288165 74.6679048,32.632695 C75.0580121,33.1365735 75.2530629,33.773822 75.2530629,34.5444596 C75.2530629,36.1450149 74.5028676,36.9452804 73.0024547,36.9452804 L58.8686348,36.9452804 L58.8686348,61.5759234 L87.6764206,61.5759234 C88.3366017,61.5759234 88.8767434,61.8426786 89.2968585,62.376197 C89.7169736,62.9097154 89.927029,63.5617837 89.927029,64.3324213 C89.927029,66.110816 89.1768333,67 87.6764206,67 L55.6277589,67 C54.9075607,67 54.2773967,66.7925237 53.7372479,66.3775649 C53.1970993,65.9626063 52.927029,65.3994564 52.927029,64.6880985 Z M93.927029,4.41791043 C93.927029,3.76119077 94.2931091,3.19403226 95.0252793,2.71641795 C95.7574495,2.23880364 96.5506227,2 97.4048221,2 C98.6861204,2 99.4792921,2.50745764 99.7843634,3.522388 L115.617473,58.5074626 L124.76956,25.1044777 C125.07463,23.7313365 126.142363,23.0447761 127.97279,23.0447761 C129.620174,23.0447761 130.657399,23.7313365 131.084498,25.1044777 L140.236585,58.5074626 L156.069693,3.522388 C156.374764,2.50745764 157.167938,2 158.449236,2 C159.303435,2 160.096608,2.23880364 160.828779,2.71641795 C161.560949,3.19403226 161.927029,3.76119077 161.927029,4.41791043 C161.927029,4.71641939 161.896522,4.95522303 161.835508,5.13432838 L143.897419,65.8507463 C143.409305,67.2835892 142.189039,68 140.236585,68 C138.223115,68 137.033357,67.2835892 136.667271,65.8507463 L127.97279,34.2388059 L119.278307,65.8507463 C118.912222,67.2835892 117.722463,68 115.708994,68 C113.695524,68 112.475259,67.2835892 112.048159,65.8507463 L94.0185501,5.13432838 C93.9575356,4.95522303 93.927029,4.71641939 93.927029,4.41791043 Z" id="text" fill="#3273DC" fill-rule="nonzero"></path>
            <path d="M171,65.1837082 L171,4.7509761 C171,4.0410432 171.271486,3.4938115 171.814466,3.1092645 C172.357445,2.7247176 172.990912,2.532447 173.714885,2.532447 L205.750531,2.532447 C206.474504,2.532447 207.032558,2.7838778 207.42471,3.2867469 C207.816862,3.789616 208.012935,4.3960079 208.012935,5.1059407 C208.012935,5.8750346 207.816862,6.5405867 207.42471,7.1026169 C207.032558,7.6646471 206.474504,7.9456579 205.750531,7.9456579 L176.972747,7.9456579 L176.972747,32.3494778 L191.271143,32.3494778 C191.934785,32.3494778 192.462674,32.6009086 192.854826,33.1037777 C193.246978,33.6066468 193.443051,34.2426188 193.443051,35.0117127 C193.443051,36.6090616 192.719089,37.4077241 191.271143,37.4077241 L176.972747,37.4077241 L176.972747,65.1837082 C176.972747,65.8936411 176.671097,66.4408728 176.067786,66.8254197 C175.464475,67.2099667 174.770678,67.4022373 173.986374,67.4022373 C171.995448,67.4022373 171,66.662735 171,65.1837082 Z M215.70511,65.0949671 L215.70511,4.6622349 C215.70511,3.2423692 216.700558,2.532447 218.691483,2.532447 C220.682409,2.532447 221.677857,3.2423692 221.677857,4.6622349 L221.677857,61.9890263 L247.469267,61.9890263 C248.79655,61.9890263 249.460182,62.8764291 249.460182,64.6512612 C249.460182,66.4852545 248.79655,67.4022373 247.469267,67.4022373 L218.419995,67.4022373 C217.696022,67.4022373 217.062555,67.1951767 216.519575,66.7810492 C215.976596,66.3669217 215.70511,65.8048999 215.70511,65.0949671 Z M256.880869,48.9440753 L256.880869,21.4343147 C256.880869,14.9265969 258.585196,10.1494121 261.993902,7.1026169 C265.402609,4.0558217 269.97262,2.532447 275.704073,2.532447 C281.435526,2.532447 286.005537,4.0558217 289.414243,7.1026169 C292.822949,10.1494121 294.527277,14.9265969 294.527277,21.4343147 L294.527277,48.9440753 C294.527277,55.5109543 292.822949,60.3177192 289.414243,63.3645144 C286.005537,66.4113095 281.435526,67.9346843 275.704073,67.9346843 C269.97262,67.9346843 265.402609,66.4113095 261.993902,63.3645144 C258.585196,60.3177192 256.880869,55.5109543 256.880869,48.9440753 Z M262.853616,48.9440753 C262.853616,57.9957193 267.137059,62.5214733 275.704073,62.5214733 C284.271087,62.5214733 288.554529,57.9957193 288.554529,48.9440753 L288.554529,21.4343147 C288.554529,12.4418319 284.271087,7.9456579 275.704073,7.9456579 C267.137059,7.9456579 262.853616,12.4418319 262.853616,21.4343147 L262.853616,48.9440753 Z M307.558726,65.0949671 L307.558726,4.6622349 C307.558726,3.3606913 308.312853,2.6507691 309.82113,2.532447 L325.838953,2.532447 C331.691068,2.532447 336.411904,3.8931312 340.001604,6.6145405 C343.591303,9.3359498 345.386126,13.8025437 345.386126,20.0144561 C345.386126,29.835194 340.680372,35.5441517 331.268723,37.1415006 L345.205134,63.408885 C345.446458,63.7046903 345.567119,64.0892315 345.567119,64.5625201 C345.567119,65.331614 345.205138,66.0267462 344.481165,66.6479374 C343.757192,67.2691287 342.972899,67.5797196 342.128264,67.5797196 C341.042304,67.5797196 339.986526,66.5444164 338.960898,64.4737789 L325.024487,37.8514299 L313.531473,37.8514299 L313.531473,65.0949671 C313.531473,65.8048999 313.229822,66.3669217 312.626511,66.7810492 C312.023201,67.1951767 311.329404,67.4022373 310.545099,67.4022373 C309.700464,67.4022373 308.991585,67.1951767 308.418439,66.7810492 C307.845294,66.3669217 307.558726,65.8048999 307.558726,65.0949671 Z M313.531473,32.7931836 L325.838953,32.7931836 C334.888615,32.7931836 339.413379,28.6223907 339.413379,20.2806796 C339.413379,12.0572907 334.888615,7.9456579 325.838953,7.9456579 L313.531473,7.9456579 L313.531473,32.7931836 Z M355.431202,65.0949671 L355.431202,4.6622349 C355.431202,3.2423692 356.426649,2.532447 358.417575,2.532447 C360.408501,2.532447 361.403949,3.2423692 361.403949,4.6622349 L361.403949,65.0949671 C361.403949,65.8048999 361.102298,66.3669217 360.498987,66.7810492 C359.895676,67.1951767 359.201879,67.4022373 358.417575,67.4022373 C357.57294,67.4022373 356.86406,67.1951767 356.290915,66.7810492 C355.71777,66.3669217 355.431202,65.8048999 355.431202,65.0949671 Z M375.159367,65.1837082 L375.159367,4.6622349 C375.159367,4.0706242 375.415771,3.5677626 375.928585,3.1536351 C376.441399,2.7395076 377.089948,2.532447 377.874253,2.532447 L393.892075,2.532447 C399.623528,2.532447 404.208622,4.0558217 407.647494,7.1026169 C411.086365,10.1494121 412.805775,14.9265969 412.805775,21.4343147 L412.805775,48.4116284 C412.805775,54.9785073 411.086365,59.7852722 407.647494,62.8320674 C404.208622,65.8788626 399.623528,67.4022373 393.892075,67.4022373 L377.874253,67.4022373 C377.089948,67.4022373 376.441399,67.1803866 375.928585,66.7366786 C375.415771,66.2929705 375.159367,65.7753189 375.159367,65.1837082 Z M381.132115,61.9890263 L393.892075,61.9890263 C397.994589,61.9890263 401.177006,60.8501928 403.439422,58.5724916 C405.701837,56.2947903 406.833028,52.9078698 406.833028,48.4116284 L406.833028,21.4343147 C406.833028,16.9380733 405.701837,13.5659428 403.439422,11.3178221 C401.177006,9.0697014 397.994589,7.9456579 393.892075,7.9456579 L381.132115,7.9456579 L381.132115,61.9890263 Z M420.859935,64.9174847 C420.859935,64.6216794 420.8901,64.4146187 420.950431,64.2962966 L439.864131,4.0410468 C440.286449,2.6803421 441.462887,2 443.393482,2 C445.324077,2 446.53068,2.6803421 447.013329,4.0410468 L465.836533,64.2962966 C465.836533,64.3554577 465.851616,64.4441979 465.881781,64.5625201 C465.911947,64.6808422 465.927029,64.7695825 465.927029,64.8287436 C465.927029,65.5386764 465.534883,66.1450683 464.750579,66.6479374 C463.966275,67.1508065 463.151818,67.4022373 462.307182,67.4022373 C461.160892,67.4022373 460.406765,66.8993757 460.044778,65.8936375 L455.881954,52.2274984 L430.814514,52.2274984 L426.65169,65.8936375 C426.410366,66.8993757 425.626073,67.4022373 424.29879,67.4022373 C423.454154,67.4022373 422.669862,67.1655966 421.945889,66.692308 C421.221916,66.2190194 420.859935,65.6274176 420.859935,64.9174847 Z M432.352949,47.1692521 L454.343519,47.1692521 L443.393482,11.4065633 L432.352949,47.1692521 Z" id="text" fill="#FF6900" fill-rule="nonzero"></path>
            <path d="M465.644149,64.0489625 L466.564474,64.6553138 L822,62 L822,68.0000214 L466,68 C463.634893,67.9519856 462.104544,67.7527314 461.408952,67.4022373 C460.178198,66.7820854 459.571177,64.2309008 459.442857,63.4905099 C459.27004,62.4933696 459.506572,60.4231164 461.408952,59.644066 C461.676954,59.5343159 463.088686,61.0026147 465.644149,64.0489625 Z" id="Rectangle" fill="#FF6900"></path>
            <path d="M475,65.0258544 L475,3.4753621 C475,1.5242719 475.995,0.5487414 477.985028,0.5487414 C479.733842,0.5487414 481.331871,1.9510665 482.779165,4.7557587 L498.337494,35.1194488 L513.895823,4.7557587 C515.343117,1.9510665 516.941147,0.5487414 518.68996,0.5487414 C520.679989,0.5487414 521.674988,1.5242719 521.674988,3.4753621 L521.674988,65.0258544 C521.674988,65.7575133 521.388549,66.3367345 520.815662,66.7635355 C520.242775,67.190336 519.534214,67.403734 518.68996,67.403734 C517.906009,67.403734 517.212525,67.190336 516.609486,66.7635355 C516.006446,66.3367345 515.704931,65.7575133 515.704931,65.0258544 L515.704931,13.6270778 L500.689335,42.3445437 C500.025992,43.6249467 499.211901,44.2651386 498.247039,44.2651386 C497.34248,44.2651386 496.558541,43.6249467 495.895198,42.3445437 L480.970057,13.3527071 L480.970057,65.0258544 C480.970057,65.7575133 480.668542,66.3367345 480.065503,66.7635355 C479.462464,67.190336 478.768979,67.403734 477.985028,67.403734 C477.140774,67.403734 476.432213,67.190336 475.859326,66.7635355 C475.286439,66.3367345 475,65.7575133 475,65.0258544 Z M530.449162,64.8429406 C530.449162,64.5380828 530.479314,64.3246855 530.539618,64.2027423 L549.444797,2.1035087 C549.866924,0.7011625 551.042833,1.42108547e-14 552.972557,1.42108547e-14 C554.902282,1.42108547e-14 556.108342,0.7011625 556.590774,2.1035087 L575.405498,64.2027423 C575.405498,64.2637139 575.420573,64.3551699 575.450725,64.477113 C575.480877,64.5990562 575.495953,64.6905121 575.495953,64.7514837 C575.495953,65.4831426 575.103983,66.1080918 574.320033,66.6263501 C573.536082,67.144608 572.721991,67.403734 571.877737,67.403734 C570.731963,67.403734 569.978175,66.8854832 569.616352,65.8489665 L565.455403,51.7646042 L540.399257,51.7646042 L536.238308,65.8489665 C535.997092,66.8854832 535.213153,67.403734 533.886467,67.403734 C533.042213,67.403734 532.258274,67.159851 531.534627,66.6720786 C530.81098,66.184306 530.449162,65.5745995 530.449162,64.8429406 Z M541.936998,46.551561 L563.917661,46.551561 L552.972557,9.6944312 L541.936998,46.551561 Z M579.475991,51.8560611 C579.475991,49.7830277 580.440839,48.7465266 582.370564,48.7465266 C584.420896,48.7465266 585.446047,49.5391451 585.446047,51.1244059 C585.446047,54.5997854 586.60688,57.3434649 588.92858,59.3555267 C591.250281,61.3675886 594.370961,62.3736044 598.290715,62.3736044 C602.39138,62.3736044 605.557287,61.2151619 607.788532,58.8982423 C610.019776,56.5813226 611.135382,53.0755099 611.135382,48.380699 L611.135382,6.1276122 L598.38117,6.1276122 C597.657523,6.1276122 597.09972,5.8380015 596.707745,5.2587716 C596.31577,4.6795417 596.119785,3.9936218 596.119785,3.2009914 C596.119785,2.4693326 596.31577,1.8443834 596.707745,1.326125 C597.09972,0.8078667 597.657523,0.5487414 598.38117,0.5487414 L614.301321,0.5487414 C616.170742,0.5487414 617.105438,1.3108746 617.105438,2.8351638 L617.105438,48.380699 C617.105438,55.1485433 615.401879,60.102409 611.994708,63.2424449 C608.587538,66.3824808 604.079888,67.952475 598.471625,67.952475 C592.742754,67.952475 588.144651,66.4434514 584.677176,63.4253587 C581.209702,60.407266 579.475991,56.550872 579.475991,51.8560611 Z M629.85965,48.380699 L629.85965,20.0290606 C629.85965,13.3221879 631.56321,8.3988075 634.97038,5.2587716 C638.377551,2.1187358 642.945503,0.5487414 648.674374,0.5487414 C654.403245,0.5487414 658.971197,2.1187358 662.378368,5.2587716 C665.785538,8.3988075 667.489098,13.3221879 667.489098,20.0290606 L667.489098,48.380699 C667.489098,55.1485433 665.785538,60.102409 662.378368,63.2424449 C658.971197,66.3824808 654.403245,67.952475 648.674374,67.952475 C642.945503,67.952475 638.377551,66.3824808 634.97038,63.2424449 C631.56321,60.102409 629.85965,55.1485433 629.85965,48.380699 Z M635.829707,48.380699 C635.829707,57.7093492 640.11122,62.3736044 648.674374,62.3736044 C657.237528,62.3736044 661.519041,57.7093492 661.519041,48.380699 L661.519041,20.0290606 C661.519041,10.761382 657.237528,6.1276122 648.674374,6.1276122 C640.11122,6.1276122 635.829707,10.761382 635.829707,20.0290606 L635.829707,48.380699 Z M680.514676,65.0258544 L680.514676,2.7437069 C680.514676,1.4023324 681.268463,0.6706845 682.776061,0.5487414 L698.786667,0.5487414 C704.636146,0.5487414 709.354856,1.9510665 712.942938,4.7557587 C716.53102,7.5604509 718.325034,12.1637354 718.325034,18.5657503 C718.325034,28.6870309 713.621401,34.5706992 704.213992,36.2169316 L718.144124,63.2881734 C718.385339,63.5930312 718.505945,63.9893405 718.505945,64.477113 C718.505945,65.2697434 718.144127,65.9861486 717.42048,66.6263501 C716.696834,67.266552 715.912895,67.586648 715.06864,67.586648 C713.98317,67.586648 712.927867,66.5196611 711.902701,64.3856561 L697.972569,36.9485868 L686.484733,36.9485868 L686.484733,65.0258544 C686.484733,65.7575133 686.183218,66.3367345 685.580179,66.7635355 C684.97714,67.190336 684.283655,67.403734 683.499704,67.403734 C682.65545,67.403734 681.946889,67.190336 681.374002,66.7635355 C680.801115,66.3367345 680.514676,65.7575133 680.514676,65.0258544 Z M686.484733,31.7355436 L698.786667,31.7355436 C707.832253,31.7355436 712.354978,27.4371124 712.354978,18.840121 C712.354978,10.3650727 707.832253,6.1276122 698.786667,6.1276122 L686.484733,6.1276122 L686.484733,31.7355436 Z M728.365584,65.0258544 L728.365584,2.7437069 C728.365584,1.2803893 729.360584,0.5487414 731.350613,0.5487414 C733.340641,0.5487414 734.335641,1.2803893 734.335641,2.7437069 L734.335641,65.0258544 C734.335641,65.7575133 734.034126,66.3367345 733.431087,66.7635355 C732.828048,67.190336 732.134563,67.403734 731.350613,67.403734 C730.506358,67.403734 729.797798,67.190336 729.224911,66.7635355 C728.652023,66.3367345 728.365584,65.7575133 728.365584,65.0258544 Z M742.567083,3.3839052 C742.567083,2.6522464 742.763067,1.9968118 743.155043,1.4175819 C743.547018,0.838352 744.104821,0.5487414 744.828468,0.5487414 L781.101084,0.5487414 C781.824731,0.5487414 782.382534,0.8231093 782.774509,1.3718535 C783.166485,1.9205976 783.362469,2.5607895 783.362469,3.2924483 C783.362469,4.0850787 783.166485,4.7709986 782.774509,5.3502285 C782.382534,5.9294584 781.824731,6.2190691 781.101084,6.2190691 L765.995032,6.2190691 L765.995032,65.0258544 C765.995032,65.7575133 765.693517,66.3367345 765.090478,66.7635355 C764.487439,67.190336 763.793954,67.403734 763.010004,67.403734 C762.165749,67.403734 761.457189,67.190336 760.884302,66.7635355 C760.311415,66.3367345 760.024975,65.7575133 760.024975,65.0258544 L760.024975,6.2190691 L744.828468,6.2190691 C744.165125,6.2190691 743.622398,5.9447011 743.20027,5.395957 C742.778143,4.8472128 742.567083,4.1765356 742.567083,3.3839052 Z M786.437953,3.1095345 C786.437953,2.3778757 786.784695,1.7681691 787.47819,1.2803966 C788.171685,0.792624 788.910397,0.5487414 789.694348,0.5487414 C790.65921,0.5487414 791.443149,1.1584479 792.046188,2.3778793 L808.689982,35.7596471 L825.424232,2.3778793 C826.027271,1.1584479 826.81121,0.5487414 827.776072,0.5487414 C828.560023,0.5487414 829.298735,0.792624 829.99223,1.2803966 C830.685725,1.7681691 831.032467,2.3778757 831.032467,3.1095345 C831.032467,3.6582787 830.911861,4.2070146 830.670645,4.7557587 L811.855921,41.0641472 C811.735314,41.4299766 811.675011,41.6738592 811.675011,41.7958023 L811.675011,65.0258544 C811.675011,65.7575133 811.388571,66.3367345 810.815684,66.7635355 C810.242797,67.190336 809.534237,67.403734 808.689982,67.403734 C807.906031,67.403734 807.212547,67.190336 806.609508,66.7635355 C806.006469,66.3367345 805.704954,65.7575133 805.704954,65.0258544 L805.704954,41.7958023 C805.704954,41.4909445 805.674802,41.2470619 805.614499,41.0641472 L786.89023,4.7557587 C786.588711,4.2070146 786.437953,3.6582787 786.437953,3.1095345 Z" id="text" fill="#3273DC" fill-rule="nonzero"></path>
        </g>
    </g>
</svg>