<svg viewBox="0 0 216 52" version="1.1" xmlns="http://www.w3.org/2000/svg" xmlns:xlink="http://www.w3.org/1999/xlink"><defs><path id="path-1" d="M.696.181h19.597V29H.696z"/><path id="path-3" d="M0 49h215.163V.994H0z"/></defs><g id="Page-1" stroke="none" stroke-width=".5" fill="#fff" fill-rule="evenodd"><g id="tiny-pixel-logo" transform="translate(-532 -336)"><g id="tiny-pixel-letters" transform="translate(532 335)"><path class="letter t" id="Fill-1" fill="#fff" d="M0 12.613v4.364h8.11V41.43h4.405V16.977h8.111v-4.364z"/><path class="letter i" d="M28.569 17.966h5.352v-5.353h-5.352v5.353zm-4.817 2.222h9.757v17.085h7.493v4.158H21.693v-4.158h7.493V24.346h-5.434v-4.158z" id="Fill-2" fill="#fff"/><g id="Group-16" transform="translate(0 .006)"><path class="letter n" d="M49.314 41.425h-4.323V20.182h4.323v1.852c.617-1.235 2.717-2.428 4.94-2.428 3.664 0 8.44 2.264 8.44 8.809v13.01H58.37V28.498c0-3.211-1.853-4.693-4.529-4.693-2.675 0-4.528 1.482-4.528 4.693v12.927z" id="Fill-3" fill="#fff"/><g id="Group-7" transform="translate(65 20)"><path class="letter y" d="M10.865 26.323C10.248 28.094 8.725 29 6.172 29H3.29v-4.158h1.523c2.1 0 2.182-.372 2.882-2.14l.576-1.566L.696.181h4.487l5.312 15.11L15.805.18h4.488l-9.428 26.142z" id="Fill-5" fill="#fff" mask="url(#mask-2)"/></g><path class="letter p" d="M102.504 16.889v10.209h6.546c3.705 0 5.227-2.347 5.227-5.105 0-2.757-1.522-5.104-5.227-5.104h-6.546zm0 24.536h-4.405V12.607h10.95c6.67 0 9.716 4.323 9.716 9.428s-3.046 9.427-9.715 9.427h-6.546v9.963z" id="Fill-8" fill="#fff"/><mask id="mask-4" fill="#fff"><use xlink:href="#path-3"/></mask><path class="letter i" d="M126.544 17.96h5.352v-5.353h-5.352v5.353zm-4.817 2.222h9.756v17.085h7.494v4.158h-19.309v-4.158h7.493V24.34h-5.434v-4.158z" id="Fill-10" fill="#fff" mask="url(#mask-4)"/><path class="letter x" id="Fill-12" fill="#fff" mask="url(#mask-4)" d="M150.911 33.809l-4.98 7.616h-4.777l7.205-10.91-6.875-10.333h4.776l4.651 7.08 4.652-7.08h4.776l-6.875 10.333 7.205 10.91h-4.777z"/><path class="letter e" d="M168.158 28.374v.041h9.058v-.04c-.04-3.088-1.894-4.61-4.529-4.61-2.676 0-4.529 1.48-4.529 4.61m8.852 6.298h4.405c-.74 5.64-5.31 7.163-8.728 7.163-3.705 0-8.85-1.812-8.85-8.81v-4.61c0-6.999 5.145-8.81 8.85-8.81s8.851 1.811 8.851 8.81v3.828h-13.38v.7c0 3.211 1.853 4.735 4.53 4.735 2.14 0 3.745-.989 4.322-3.006" id="Fill-13" fill="#fff" mask="url(#mask-4)"/><path class="letter l" id="Fill-14" fill="#fff" mask="url(#mask-4)" d="M185.981 12.607h9.757v24.66h7.492v4.157h-19.308v-4.157h7.493V16.764h-5.434z"/><path class="letter pixel" id="Fill-15" fill="#fff" mask="url(#mask-4)" d="M209.811 6.347h5.352V.994h-5.352z"/></g></g></g></g></svg>