<svg id="tiny-circle-logo" viewBox="0 0 65 65" version="1.1" xmlns="http://www.w3.org/2000/svg"><g id="Page-1" fill="none" stroke="none" stroke-width="1" fill-rule="evenodd"><g id="LOGO" fill="#fff" transform="translate(-1166 -44)"><g id="Group-37" fill="#fff" transform="translate(1166 44)"><path fill="#fff" id="Fill-1" d="M30 35h4v-4h-4z"/><path fill="#fff" id="Fill-2" d="M13.811 58.26l-.6.74L9 55.278l.601-.741 1.746 1.543L16.281 50l.719.636-4.934 6.08z"/><path fill="#fff" id="Fill-3" d="M5.88 48.967l5.72-3.747-1.087-1.7.793-.52L14 47.214l-.793.52-1.087-1.7L6.4 49.78l1.089 1.7-.794.52L4 47.786l.793-.52z"/><path fill="#fff" id="Fill-4" d="M9.43 36l.267.942-5.6 5.59 6.636-1.944.267.942L2.57 44l-.267-.942 5.6-5.59-6.635 1.945L1 38.47z"/><path fill="#fff" id="Fill-5" d="M.059 30.091l4.315 2.447-4.363 2.371L0 36l5.419-2.945 3.57.037.011-1-3.559-.036L.07 29z"/><g id="Group-36" transform="translate(3)"><path d="M2.542 16.708L1.63 18.31l2.955 1.697.912-1.603c.661-1.161.236-1.962-.578-2.43-.814-.467-1.716-.429-2.377.733m3.769 2.165l-.913 1.603 2.912 1.673-.47.828-7.496-4.305 1.384-2.432c.992-1.742 2.347-1.877 3.675-1.114 1.327.762 1.9 2.005.908 3.747" id="Fill-6"/><path fill="#fff" id="Fill-8" d="M8.363 9.434l4.656 4.923 1.439-1.374.646.682-3.568 3.405-.645-.682 1.44-1.374-4.656-4.923-1.44 1.374-.645-.682 3.567-3.405.646.682z"/><path fill="#fff" id="Fill-10" d="M16.864 2.743l.936-.473-.3 4.838 4.341 2.829-.97.489-3.622-2.387-.257 4.345-.97.49.332-5.188-4.042-2.646.937-.473 3.374 2.221z"/><path fill="#fff" id="Fill-12" d="M23.935 8.553l3.898-.688.163.927-4.834.854-1.494-8.541L26.5.25l.162.927-3.898.689.495 2.83 3.049-.538.162.927-3.049.539z"/><path fill="#fff" id="Fill-14" d="M31.116.168l.942.113-.914 7.677 3.93.472-.11.935-4.874-.586z"/><path d="M48.985 9.925l-.774-.552c.584-.997.304-1.927-.48-2.486-.835-.596-1.891-.514-2.649.557l-1.757 2.485c-.757 1.07-.486 2.1.35 2.695.783.56 1.75.52 2.494-.362l.774.552c-1.045 1.307-2.525 1.496-3.812.578-1.347-.962-1.63-2.53-.58-4.016l1.757-2.485c1.05-1.485 2.618-1.734 3.965-.772 1.287.919 1.596 2.385.712 3.806" id="Fill-16"/><path d="M54.016 16.134c1.04-.796 1.086-1.86.466-2.677-.62-.819-1.653-1.056-2.693-.26l-2.414 1.846c-1.04.797-1.086 1.86-.466 2.678.62.819 1.653 1.056 2.693.26l2.414-1.847zm-1.838 2.606c-1.443 1.104-3.013.873-4.015-.448-1-1.32-.805-2.904.637-4.008l2.413-1.847c1.443-1.103 3.014-.872 4.015.45 1.001 1.32.806 2.903-.636 4.006l-2.414 1.847z" id="Fill-18"/><path fill="#fff" id="Fill-20" d="M59.007 19.398l.323.897-7.238 2.63 1.347 3.74-.881.32-1.67-4.637z"/><path fill="#fff" id="Fill-22" d="M61.56 28.796l.044.953-7.688.363.185 3.973-.936.044-.23-4.926z"/><path fill="#fff" id="Fill-24" d="M53.601 37.204l-.97 3.856-.908-.23 1.202-4.782 8.37 2.124-1.202 4.782-.909-.231.97-3.856-2.774-.704-.759 3.015-.908-.23.758-3.016z"/><path d="M53.479 50.272l.488-.819c1.034.508 1.935.154 2.43-.675.526-.882.362-1.934-.76-2.609l-2.602-1.566c-1.121-.676-2.121-.324-2.647.558-.494.83-.38 1.793.553 2.471l-.488.818c-1.377-.944-1.68-2.412-.869-3.773.85-1.424 2.384-1.829 3.94-.893l2.602 1.567c1.555.936 1.924 2.487 1.075 3.911-.812 1.36-2.243 1.785-3.722 1.01" id="Fill-26"/><path fill="#fff" id="Fill-28" d="M52.612 53.863l.632.696-4.11 3.764-.631-.696 1.704-1.56-5.185-5.713.702-.643 5.184 5.712z"/><path fill="#fff" id="Fill-30" d="M42.556 61.073l-2.91-6.13-1.792.86-.404-.851 4.442-2.128.404.85-1.792.859 2.91 6.129 1.791-.859.404.85-4.442 2.128-.403-.85z"/><path fill="#fff" id="Fill-32" d="M32.098 64.852l-.95.148 1.42-8.997 1.073-.167 4.063 8.143-.95.148-3.448-6.898z"/><path fill="#fff" id="Fill-34" d="M27.481 57.098l-3.92-.553.13-.932 4.86.685-1.2 8.59-4.86-.686.13-.933 3.92.553.398-2.847-3.066-.432.13-.933 3.066.433z"/></g></g></g></g></svg>