<?xml version="1.0" encoding="UTF-8"?>
<svg width="440px" height="6px" viewBox="0 0 440 6" version="1.1" xmlns="http://www.w3.org/2000/svg" xmlns:xlink="http://www.w3.org/1999/xlink">
    <!-- Generator: Sketch Beta 52 (66463) - http://www.bohemiancoding.com/sketch -->
    <title>Group 10</title>
    <desc>Created with Sketch Beta.</desc>
    <g id="Page-1" stroke="none" stroke-width="1" fill="none" fill-rule="evenodd">
        <g id="Group-10" fill="#000000">
            <polygon id="Fill-1" points="0 5.77652 5.776 5.77652 5.776 0.00052 0 0.00052"></polygon>
            <polygon id="Fill-2" points="54.158 5.77652 59.935 5.77652 59.935 0.00052 54.158 0.00052"></polygon>
            <polygon id="Fill-3" points="108.316 5.77652 114.092 5.77652 114.092 0.00052 108.316 0.00052"></polygon>
            <polygon id="Fill-4" points="162.474 5.77652 168.25 5.77652 168.25 0.00052 162.474 0.00052"></polygon>
            <polygon id="Fill-5" points="216.633 5.77652 222.409 5.77652 222.409 0.00052 216.633 0.00052"></polygon>
            <polygon id="Fill-6" points="270.79 5.77652 276.567 5.77652 276.567 0.00052 270.79 0.00052"></polygon>
            <polygon id="Fill-7" points="324.949 5.77652 330.725 5.77652 330.725 0.00052 324.949 0.00052"></polygon>
            <polygon id="Fill-8" points="379.107 5.77652 384.883 5.77652 384.883 0.00052 379.107 0.00052"></polygon>
            <polygon id="Fill-9" points="433.264 5.77652 439.04 5.77652 439.04 0.00052 433.264 0.00052"></polygon>
        </g>
    </g>
</svg>