<?xml version="1.0" encoding="UTF-8"?>
<svg  viewBox="0 0 144 144" version="1.1" xmlns="http://www.w3.org/2000/svg" xmlns:xlink="http://www.w3.org/1999/xlink">
    <g id="Page-1" stroke="none" stroke-width="1" fill="none" fill-rule="evenodd">
        <g id="LOGO-VARIATIONS" transform="translate(-568.000000, -289.000000)" fill="#FFFFFF">
            <g id="Group" transform="translate(568.000000, 288.000000)">
                <g id="Group-37">
                    <polygon id="Fill-2" points="31.4548 129.7574 30.1058 131.3494 20.6598 123.3484 22.0088 121.7564 25.9258 125.0734 36.9958 112.0044 38.6088 113.3704 27.5378 126.4404"></polygon>
                    <polygon id="Fill-3" points="12.7361 109.6138 25.3651 101.4378 22.9641 97.7278 24.7151 96.5938 30.6681 105.7898 28.9161 106.9238 26.5151 103.2128 13.8841 111.3878 16.2871 115.0988 14.5351 116.2328 8.5821 107.0368 10.3341 105.9038"></polygon>
                    <polygon id="Fill-4" points="19.6428 81.3326 20.2288 83.3636 7.9638 95.4156 22.4968 91.2236 23.0818 93.2536 4.6198 98.5796 4.0338 96.5486 16.2988 84.4976 1.7668 88.6896 1.1808 86.6586"></polygon>
                    <polygon id="Fill-5" points="0.126 66.8437 9.38 72.0147 0.023 77.0267 0 79.3317 11.62 73.1087 19.278 73.1857 19.3 71.0727 11.668 70.9957 0.15 64.5377"></polygon>
                    <g id="Group-36" transform="translate(6.000000, 0.628000)">
                        <path d="M5.6575,37.0141 L3.6275,40.5651 L10.2045,44.3261 L12.2345,40.7751 C13.7065,38.2011 12.7605,36.4271 10.9495,35.3911 C9.1375,34.3561 7.1295,34.4411 5.6575,37.0141 M14.0465,41.8101 L12.0155,45.3621 L18.4975,49.0681 L17.4485,50.9021 L0.7665,41.3651 L3.8465,35.9781 C6.0545,32.1181 9.0705,31.8191 12.0265,33.5091 C14.9805,35.1991 16.2535,37.9511 14.0465,41.8101" id="Fill-6"></path>
                        <polygon id="Fill-8" points="18.6155 20.9004 28.9775 31.8054 32.1805 28.7614 33.6185 30.2734 25.6775 37.8174 24.2405 36.3054 27.4445 33.2614 17.0835 22.3564 13.8795 25.4004 12.4425 23.8884 20.3825 16.3444 21.8195 17.8564"></polygon>
                        <polygon id="Fill-10" points="37.5349 6.0762 39.6189 5.0282 38.9529 15.7462 48.6139 22.0132 46.4549 23.0972 38.3919 17.8092 37.8219 27.4352 35.6629 28.5192 36.4019 17.0282 27.4049 11.1652 29.4889 10.1182 36.9989 15.0382"></polygon>
                        <polygon id="Fill-12" points="53.2747 18.9492 61.9517 17.4242 62.3137 19.4782 51.5537 21.3692 48.2277 2.4472 58.9857 0.5552 59.3477 2.6102 50.6707 4.1352 51.7727 10.4062 58.5577 9.2142 58.9187 11.2682 52.1337 12.4612"></polygon>
                        <polygon id="Fill-14" points="69.2576 0.3721 71.3556 0.6231 69.3206 17.6301 78.0696 18.6761 77.8216 20.7471 66.9746 19.4491"></polygon>
                        <path d="M109.032,21.9878 L107.309,20.7648 C108.608,18.5558 107.984,16.4958 106.239,15.2568 C104.381,13.9368 102.03,14.1178 100.344,16.4908 L96.434,21.9958 C94.749,24.3678 95.352,26.6478 97.21,27.9668 C98.955,29.2078 101.106,29.1188 102.763,27.1648 L104.486,28.3878 C102.161,31.2828 98.866,31.7028 96.002,29.6678 C93.003,27.5378 92.375,24.0618 94.711,20.7718 L98.621,15.2668 C100.958,11.9768 104.448,11.4248 107.447,13.5558 C110.311,15.5908 110.999,18.8398 109.032,21.9878" id="Fill-16"></path>
                        <path d="M120.2293,35.7436 C122.5443,33.9806 122.6473,31.6236 121.2673,29.8116 C119.8873,27.9986 117.5873,27.4726 115.2723,29.2356 L109.9003,33.3266 C107.5843,35.0906 107.4813,37.4466 108.8623,39.2596 C110.2433,41.0726 112.5423,41.5986 114.8563,39.8356 L120.2293,35.7436 Z M116.1373,41.5166 C112.9273,43.9626 109.4323,43.4506 107.2023,40.5236 C104.9743,37.5976 105.4093,34.0906 108.6193,31.6456 L113.9913,27.5536 C117.2023,25.1086 120.6983,25.6206 122.9273,28.5476 C125.1553,31.4736 124.7203,34.9806 121.5103,37.4256 L116.1373,41.5166 Z" id="Fill-18"></path>
                        <polygon id="Fill-20" points="131.3377 42.9741 132.0567 44.9611 115.9477 50.7861 118.9447 59.0741 116.9837 59.7831 113.2677 49.5091"></polygon>
                        <polygon id="Fill-22" points="137.0198 63.7939 137.1188 65.9049 120.0058 66.7089 120.4188 75.5119 118.3348 75.6099 117.8228 64.6949"></polygon>
                        <polygon id="Fill-24" points="119.3054 82.4209 117.1474 90.9639 115.1244 90.4529 117.8014 79.8599 136.4304 84.5659 133.7554 95.1589 131.7324 94.6479 133.8894 86.1049 127.7164 84.5449 126.0284 91.2249 124.0054 90.7139 125.6934 84.0339"></polygon>
                        <path d="M119.0335,111.3711 L120.1195,109.5581 C122.4225,110.6821 124.4275,109.8991 125.5285,108.0621 C126.6985,106.1081 126.3345,103.7781 123.8385,102.2831 L118.0465,98.8121 C115.5505,97.3161 113.3245,98.0941 112.1535,100.0491 C111.0535,101.8861 111.3085,104.0221 113.3855,105.5231 L112.2995,107.3361 C109.2335,105.2431 108.5585,101.9911 110.3645,98.9771 C112.2545,95.8211 115.6715,94.9251 119.1325,96.9981 L124.9255,100.4701 C128.3875,102.5431 129.2075,105.9801 127.3175,109.1351 C125.5115,112.1491 122.3255,113.0881 119.0335,111.3711" id="Fill-26"></path>
                        <polygon id="Fill-28" points="117.1043 119.3262 118.5103 120.8682 109.3633 129.2082 107.9583 127.6662 111.7503 124.2082 100.2113 111.5532 101.7733 110.1292 113.3123 122.7842"></polygon>
                        <polygon id="Fill-30" points="94.7215 135.2998 88.2455 121.7208 84.2555 123.6238 83.3575 121.7398 93.2435 117.0248 94.1425 118.9078 90.1535 120.8108 96.6295 134.3888 100.6185 132.4868 101.5165 134.3698 91.6305 139.0848 90.7325 137.2018"></polygon>
                        <polygon id="Fill-32" points="71.4446 143.6719 69.3296 143.9999 72.4906 124.0679 74.8776 123.6989 83.9216 141.7389 81.8056 142.0669 74.1336 126.7849"></polygon>
                        <polygon id="Fill-34" points="61.1677 126.4941 52.4407 125.2691 52.7307 123.2031 63.5507 124.7221 60.8797 143.7511 50.0597 142.2321 50.3497 140.1661 59.0767 141.3911 59.9617 135.0841 53.1377 134.1261 53.4277 132.0601 60.2507 133.0181"></polygon>
                    </g>
                </g>
                <path d="M56.0660981,62.4638298 L46.0362473,76.1148936 L53.9509595,76.1148936 L53.9509595,70.7361702 L56.5095949,70.7361702 L56.5095949,76.1148936 L59,76.1148936 L59,78.5659574 L56.5095949,78.5659574 L56.5095949,85 L53.9509595,85 L53.9509595,78.5659574 L43,78.5659574 L43,76.1148936 L54.08742,61 L56.0660981,62.4638298 Z M80,68.0138889 L80,78.9861111 C80,82.8402778 76.8465347,86 73,86 C69.1534653,86 66,82.8402778 66,78.9861111 L66,68.0138889 C66,64.1597222 69.1534653,61 73,61 C76.8465347,61 80,64.1597222 80,68.0138889 Z M77,78.5989583 L77,70 L68,78.6328125 C68,81.0026042 69.984252,83 72.5,83 C75.015748,83 77,80.96875 77,78.5989583 Z M68,67.4125326 L68,76 L77,67.3446475 C76.9645669,65.002611 74.980315,63 72.5,63 C69.984252,63 68,65.0365535 68,67.4125326 Z M98.0660981,62.4638298 L88.0362473,76.1148936 L95.9509595,76.1148936 L95.9509595,70.7361702 L98.5095949,70.7361702 L98.5095949,76.1148936 L101,76.1148936 L101,78.5659574 L98.5095949,78.5659574 L98.5095949,85 L95.9509595,85 L95.9509595,78.5659574 L85,78.5659574 L85,76.1148936 L96.08742,61 L98.0660981,62.4638298 Z" id="404"></path>
            </g>
        </g>
    </g>
</svg>