<svg id="tiny-stacked-logo" viewBox="0 0 142 101" version="1.1" xmlns="http://www.w3.org/2000/svg" xmlns:xlink="http://www.w3.org/1999/xlink">
    <g id="Page-1" stroke="none" stroke-width="1" fill="none" fill-rule="evenodd">
        <g id="LOGO" transform="translate(-569.000000, -310.000000)">
            <g id="Group-16" transform="translate(569.000000, 309.000000)">
                <polygon id="Fill-1"  points="23.9228 17.5592 23.9228 49.1592 18.2308 49.1592 18.2308 17.5592 7.7508 17.5592 7.7508 11.9202 34.4028 11.9202 34.4028 17.5592"></polygon>
                <path d="M44.667,18.837 L51.582,18.837 L51.582,11.92 L44.667,11.92 L44.667,18.837 Z M38.442,21.709 L51.05,21.709 L51.05,43.785 L60.733,43.785 L60.733,49.159 L35.782,49.159 L35.782,43.785 L45.465,43.785 L45.465,27.082 L38.442,27.082 L38.442,21.709 Z" id="Fill-2" ></path>
                <g id="Group-15" transform="translate(0.000000, 0.349000)">
                    <path d="M70.4731,48.8098 L64.8871,48.8098 L64.8871,21.3598 L70.4731,21.3598 L70.4731,23.7528 C71.2711,22.1568 73.9841,20.6148 76.8561,20.6148 C81.5911,20.6148 87.7611,23.5408 87.7611,31.9988 L87.7611,48.8098 L82.1761,48.8098 L82.1761,32.1058 C82.1761,27.9568 79.7821,26.0408 76.3251,26.0408 C72.8671,26.0408 70.4731,27.9568 70.4731,32.1058 L70.4731,48.8098 Z" id="Fill-3" ></path>
                    <path d="M104.7822,55.1394 C103.9842,57.4274 102.0162,58.5984 98.7172,58.5984 L94.9932,58.5984 L94.9932,53.2244 L96.9622,53.2244 C99.6752,53.2244 99.7812,52.7454 100.6862,50.4584 L101.4302,48.4374 L91.6412,21.3594 L97.4402,21.3594 L104.3032,40.8824 L111.1662,21.3594 L116.9642,21.3594 L104.7822,55.1394 Z" id="Fill-5" ></path>
                    <path d="M5.6923,68.7634 L5.6923,81.9554 L14.1503,81.9554 C18.9383,81.9554 20.9063,78.9234 20.9063,75.3594 C20.9063,71.7954 18.9383,68.7634 14.1503,68.7634 L5.6923,68.7634 Z M5.6923,100.4694 L0.0003,100.4694 L0.0003,63.2304 L14.1503,63.2304 C22.7683,63.2304 26.7043,68.8164 26.7043,75.4124 C26.7043,82.0094 22.7683,87.5954 14.1503,87.5954 L5.6923,87.5954 L5.6923,100.4694 Z" id="Fill-7" ></path>
                    <path d="M36.757,70.147 L43.672,70.147 L43.672,63.23 L36.757,63.23 L36.757,70.147 Z M30.532,73.019 L43.14,73.019 L43.14,95.095 L52.822,95.095 L52.822,100.469 L27.872,100.469 L27.872,95.095 L37.554,95.095 L37.554,78.392 L30.532,78.392 L30.532,73.019 Z" id="Fill-9"  mask="url(#mask-2)"></path>
                    <polygon points="68.2436 90.6272 61.8076 100.4692 55.6366 100.4692 64.9466 86.3712 56.0626 73.0192 62.2336 73.0192 68.2436 82.1682 74.2556 73.0192 80.4266 73.0192 71.5426 86.3712 80.8526 100.4692 74.6806 100.4692"></polygon>
                    <path d="M90.5302,83.6047 L90.5302,83.6577 L102.2342,83.6577 L102.2342,83.6047 C102.1812,79.6157 99.7872,77.6467 96.3832,77.6467 C92.9242,77.6467 90.5302,79.5617 90.5302,83.6047 M101.9682,91.7437 L107.6602,91.7437 C106.7022,99.0327 100.7982,101.0007 96.3832,101.0007 C91.5952,101.0007 84.9452,98.6597 84.9452,89.6167 L84.9452,83.6577 C84.9452,74.6147 91.5952,72.2737 96.3832,72.2737 C101.1712,72.2737 107.8202,74.6147 107.8202,83.6577 L107.8202,88.6057 L90.5302,88.6057 L90.5302,89.5107 C90.5302,93.6597 92.9242,95.6277 96.3832,95.6277 C99.1492,95.6277 101.2232,94.3507 101.9682,91.7437" id="Fill-12"  mask="url(#mask-2)"></path>
                    <polygon points="114.8544 63.2302 127.4624 63.2302 127.4624 95.0952 137.1434 95.0952 137.1434 100.4692 112.1944 100.4692 112.1944 95.0952 121.8754 95.0952 121.8754 68.6032 114.8544 68.6032"></polygon>
                    <polygon points="134.141 7.568 141.056 7.568 141.056 0.651 134.141 0.651"></polygon>
                </g>
            </g>
        </g>
    </g>
</svg>