<?xml version="1.0" encoding="UTF-8"?>
<svg width="1163px" height="235px" viewBox="0 0 1163 235" version="1.1" xmlns="http://www.w3.org/2000/svg" xmlns:xlink="http://www.w3.org/1999/xlink">
    <!-- Generator: Sketch 52.1 (67048) - http://www.bohemiancoding.com/sketch -->
    <title>DREAM DEFENDERS WATE</title>
    <desc>Created with Sketch.</desc>
    <g id="Page-1" stroke="none" stroke-width="1" fill="none" fill-rule="evenodd" opacity="0.169270833">
        <path d="M2.28,1 L11.32,1 C16.68,1 20.36,4.6 20.36,10.48 L20.36,19.52 C20.36,25.4 16.68,29 11.32,29 L2.28,29 L2.28,1 Z M11.32,4.04 L5.36,4.04 L5.36,25.96 L11.32,25.96 C14.64,25.96 17.28,23.76 17.28,19.52 L17.28,10.48 C17.28,6.24 14.64,4.08 11.32,4.04 Z M33.76,16.32 L29.32,16.32 L29.32,29 L26.24,29 L26.24,1 L35.76,1 C41.72,1 43.84,4.96 43.84,8.68 C43.84,12.08 42.08,15.6 37.28,16.24 L44.76,29 L41.2,29 L33.76,16.32 Z M40.72,8.68 C40.72,6 38.92,4.04 35.76,4.04 L29.32,4.04 L29.32,13.36 L35.76,13.36 C38.92,13.36 40.72,11.36 40.72,8.68 Z M53.32,16.36 L53.32,25.96 L66.16,25.96 L66.16,29 L50.24,29 L50.24,1 L66.16,1 L66.16,4.04 L53.32,4.04 L53.32,13.32 L63.36,13.32 L63.36,16.36 L53.32,16.36 Z M88.76,29 L86.2,21.12 L76.04,21.12 L73.48,29 L70.36,29 L79.36,1 L82.88,1 L91.88,29 L88.76,29 Z M85.28,18.28 L81.12,5.28 L76.96,18.28 L85.28,18.28 Z M104.44,18.04 L110.32,1 L113.48,1 L113.48,29 L110.52,29 L110.52,8.16 L106,21.48 L102.88,21.48 L98.36,8.16 L98.36,29 L95.4,29 L95.4,1 L98.56,1 L104.44,18.04 Z M142.2,1 L151.24,1 C156.6,1 160.28,4.6 160.28,10.48 L160.28,19.52 C160.28,25.4 156.6,29 151.24,29 L142.2,29 L142.2,1 Z M151.24,4.04 L145.28,4.04 L145.28,25.96 L151.24,25.96 C154.56,25.96 157.2,23.76 157.2,19.52 L157.2,10.48 C157.2,6.24 154.56,4.08 151.24,4.04 Z M169.92,16.36 L169.92,25.96 L182.76,25.96 L182.76,29 L166.84,29 L166.84,1 L182.76,1 L182.76,4.04 L169.92,4.04 L169.92,13.32 L179.96,13.32 L179.96,16.36 L169.92,16.36 Z M193.96,16.36 L193.96,29 L190.88,29 L190.88,1 L206.8,1 L206.8,4.04 L193.96,4.04 L193.96,13.32 L204,13.32 L204,16.36 L193.96,16.36 Z M216.56,16.36 L216.56,25.96 L229.4,25.96 L229.4,29 L213.48,29 L213.48,1 L229.4,1 L229.4,4.04 L216.56,4.04 L216.56,13.32 L226.6,13.32 L226.6,16.36 L216.56,16.36 Z M253.4,1 L253.4,29 L250.32,29 L238.4,6.96 L238.4,29 L235.32,29 L235.32,1 L238.4,1 L250.32,23.04 L250.32,1 L253.4,1 Z M258.8,1 L267.84,1 C273.2,1 276.88,4.6 276.88,10.48 L276.88,19.52 C276.88,25.4 273.2,29 267.84,29 L258.8,29 L258.8,1 Z M267.84,4.04 L261.88,4.04 L261.88,25.96 L267.84,25.96 C271.16,25.96 273.8,23.76 273.8,19.52 L273.8,10.48 C273.8,6.24 271.16,4.08 267.84,4.04 Z M286.52,16.36 L286.52,25.96 L299.36,25.96 L299.36,29 L283.44,29 L283.44,1 L299.36,1 L299.36,4.04 L286.52,4.04 L286.52,13.32 L296.56,13.32 L296.56,16.36 L286.52,16.36 Z M313.6,16.32 L309.16,16.32 L309.16,29 L306.08,29 L306.08,1 L315.6,1 C321.56,1 323.68,4.96 323.68,8.68 C323.68,12.08 321.92,15.6 317.12,16.24 L324.6,29 L321.04,29 L313.6,16.32 Z M320.56,8.68 C320.56,6 318.76,4.04 315.6,4.04 L309.16,4.04 L309.16,13.36 L315.6,13.36 C318.76,13.36 320.56,11.36 320.56,8.68 Z M337.68,29.4 C332.6,29.4 329,26.08 328.6,20.72 L331.76,20.72 C332.24,24.32 334.68,26.36 337.68,26.36 C340.84,26.36 343.04,24.88 343.04,21.92 C343.04,19.4 341.68,17.88 338.52,17 L334.96,16 C330.8,14.84 329.08,11.44 329.08,8.04 C329.08,3.24 332.88,0.6 337.36,0.6 C342.2,0.6 345.2,3.32 345.8,8.08 L342.64,8.08 C342.04,5.4 340.36,3.64 337.36,3.64 C334,3.64 332.2,5.6 332.2,8.04 C332.2,10.6 333.48,12.2 336.36,13 L339.64,13.92 C343.6,15.04 346.16,17.48 346.16,21.92 C346.16,26.4 343.28,29.4 337.68,29.4 Z M385.52,5 L389.44,22.44 L392.24,1 L395.24,1 L391.24,29 L388.48,29 L384.28,10.92 L380.08,29 L377.32,29 L373.32,1 L376.32,1 L379.12,22.44 L383.04,5 L385.52,5 Z M415.24,29 L412.68,21.12 L402.52,21.12 L399.96,29 L396.84,29 L405.84,1 L409.36,1 L418.36,29 L415.24,29 Z M411.76,18.28 L407.6,5.28 L403.44,18.28 L411.76,18.28 Z M429.36,4.04 L421.88,4.04 L421.88,1 L439.92,1 L439.92,4.04 L432.44,4.04 L432.44,29 L429.36,29 L429.36,4.04 Z M449.76,16.36 L449.76,25.96 L462.6,25.96 L462.6,29 L446.68,29 L446.68,1 L462.6,1 L462.6,4.04 L449.76,4.04 L449.76,13.32 L459.8,13.32 L459.8,16.36 L449.76,16.36 Z M476.84,16.32 L472.4,16.32 L472.4,29 L469.32,29 L469.32,1 L478.84,1 C484.8,1 486.92,4.96 486.92,8.68 C486.92,12.08 485.16,15.6 480.36,16.24 L487.84,29 L484.28,29 L476.84,16.32 Z M483.8,8.68 C483.8,6 482,4.04 478.84,4.04 L472.4,4.04 L472.4,13.36 L478.84,13.36 C482,13.36 483.8,11.36 483.8,8.68 Z M534.2,9.56 C534.2,14.52 531.64,18.12 525.16,18.12 L519.2,18.12 L519.2,29 L516.12,29 L516.12,1 L525.16,1 C531.64,1 534.2,4.6 534.2,9.56 Z M531.04,9.56 C531.04,6.52 529.48,4.04 525.16,4.04 L519.2,4.04 L519.2,15.08 L525.16,15.08 C529.48,15.08 531.04,12.6 531.04,9.56 Z M546.8,16.32 L542.36,16.32 L542.36,29 L539.28,29 L539.28,1 L548.8,1 C554.76,1 556.88,4.96 556.88,8.68 C556.88,12.08 555.12,15.6 550.32,16.24 L557.8,29 L554.24,29 L546.8,16.32 Z M553.76,8.68 C553.76,6 551.96,4.04 548.8,4.04 L542.36,4.04 L542.36,13.36 L548.8,13.36 C551.96,13.36 553.76,11.36 553.76,8.68 Z M576.8,19.92 L576.8,10.08 C576.8,5.84 574.16,3.64 570.84,3.64 C567.52,3.64 564.88,5.84 564.88,10.08 L564.88,19.92 C564.88,24.16 567.52,26.36 570.84,26.36 C574.16,26.36 576.8,24.16 576.8,19.92 Z M579.88,10.08 L579.88,19.92 C579.88,25.8 576.2,29.4 570.84,29.4 C565.48,29.4 561.8,25.8 561.8,19.92 L561.8,10.08 C561.8,4.2 565.48,0.6 570.84,0.6 C576.2,0.6 579.88,4.2 579.88,10.08 Z M592.6,4.04 L585.12,4.04 L585.12,1 L603.16,1 L603.16,4.04 L595.68,4.04 L595.68,29 L592.6,29 L592.6,4.04 Z M613,16.36 L613,25.96 L625.84,25.96 L625.84,29 L609.92,29 L609.92,1 L625.84,1 L625.84,4.04 L613,4.04 L613,13.32 L623.04,13.32 L623.04,16.36 L613,16.36 Z M640.96,0.6 C646.08,0.6 649.64,3.88 649.96,9.28 L646.88,9.28 C646.56,5.56 644.08,3.64 640.96,3.64 C637.64,3.64 635,5.84 635,10.08 L635,19.92 C635,24.16 637.64,26.36 640.96,26.36 C644.08,26.36 646.56,24.44 646.88,20.72 L649.96,20.72 C649.64,26.12 646.08,29.4 640.96,29.4 C635.6,29.4 631.92,25.8 631.92,19.92 L631.92,10.08 C631.92,4.2 635.6,0.6 640.96,0.6 Z M662.56,4.04 L655.08,4.04 L655.08,1 L673.12,1 L673.12,4.04 L665.64,4.04 L665.64,29 L662.56,29 L662.56,4.04 Z M693.4,19.92 L693.4,10.08 C693.4,5.84 690.76,3.64 687.44,3.64 C684.12,3.64 681.48,5.84 681.48,10.08 L681.48,19.92 C681.48,24.16 684.12,26.36 687.44,26.36 C690.76,26.36 693.4,24.16 693.4,19.92 Z M696.48,10.08 L696.48,19.92 C696.48,25.8 692.8,29.4 687.44,29.4 C682.08,29.4 678.4,25.8 678.4,19.92 L678.4,10.08 C678.4,4.2 682.08,0.6 687.44,0.6 C692.8,0.6 696.48,4.2 696.48,10.08 Z M710.04,16.32 L705.6,16.32 L705.6,29 L702.52,29 L702.52,1 L712.04,1 C718,1 720.12,4.96 720.12,8.68 C720.12,12.08 718.36,15.6 713.56,16.24 L721.04,29 L717.48,29 L710.04,16.32 Z M717,8.68 C717,6 715.2,4.04 712.04,4.04 L705.6,4.04 L705.6,13.36 L712.04,13.36 C715.2,13.36 717,11.36 717,8.68 Z M750.12,29 L750.12,1 L753.2,1 L753.2,25.96 L766.04,25.96 L766.04,29 L750.12,29 Z M776.24,16.36 L776.24,25.96 L789.08,25.96 L789.08,29 L773.16,29 L773.16,1 L789.08,1 L789.08,4.04 L776.24,4.04 L776.24,13.32 L786.28,13.32 L786.28,16.36 L776.24,16.36 Z M804.12,0.6 C809.24,0.6 812.8,3.88 813.12,9.28 L810.04,9.28 C809.72,5.56 807.24,3.64 804.12,3.64 C800.8,3.64 798.16,5.84 798.16,10.08 L798.16,19.92 C798.16,24.16 800.8,26.36 804.12,26.36 C807.44,26.36 810.08,24.16 810.08,19.92 L810.08,17.16 L804.12,17.16 L804.12,14.12 L813.16,14.12 L813.16,19.92 C813.16,25.8 809.48,29.4 804.12,29.4 C798.76,29.4 795.08,25.8 795.08,19.92 L795.08,10.08 C795.08,4.2 798.76,0.6 804.12,0.6 Z M835,29 L832.44,21.12 L822.28,21.12 L819.72,29 L816.6,29 L825.6,1 L829.12,1 L838.12,29 L835,29 Z M831.52,18.28 L827.36,5.28 L823.2,18.28 L831.52,18.28 Z M843.4,29 L843.4,1 L846.48,1 L846.48,25.96 L859.32,25.96 L859.32,29 L843.4,29 Z M897.48,0.6 C902.6,0.6 906.16,3.88 906.48,9.28 L903.4,9.28 C903.08,5.56 900.6,3.64 897.48,3.64 C894.16,3.64 891.52,5.84 891.52,10.08 L891.52,19.92 C891.52,24.16 894.16,26.36 897.48,26.36 C900.6,26.36 903.08,24.44 903.4,20.72 L906.48,20.72 C906.16,26.12 902.6,29.4 897.48,29.4 C892.12,29.4 888.44,25.8 888.44,19.92 L888.44,10.08 C888.44,4.2 892.12,0.6 897.48,0.6 Z M926.6,19.92 L926.6,10.08 C926.6,5.84 923.96,3.64 920.64,3.64 C917.32,3.64 914.68,5.84 914.68,10.08 L914.68,19.92 C914.68,24.16 917.32,26.36 920.64,26.36 C923.96,26.36 926.6,24.16 926.6,19.92 Z M929.68,10.08 L929.68,19.92 C929.68,25.8 926,29.4 920.64,29.4 C915.28,29.4 911.6,25.8 911.6,19.92 L911.6,10.08 C911.6,4.2 915.28,0.6 920.64,0.6 C926,0.6 929.68,4.2 929.68,10.08 Z M936.68,29 L936.68,1 L939.76,1 L939.76,25.96 L952.6,25.96 L952.6,29 L936.68,29 Z M960,29 L960,1 L963.08,1 L963.08,25.96 L975.92,25.96 L975.92,29 L960,29 Z M986.12,16.36 L986.12,25.96 L998.96,25.96 L998.96,29 L983.04,29 L983.04,1 L998.96,1 L998.96,4.04 L986.12,4.04 L986.12,13.32 L996.16,13.32 L996.16,16.36 L986.12,16.36 Z M1014.08,0.6 C1019.2,0.6 1022.76,3.88 1023.08,9.28 L1020,9.28 C1019.68,5.56 1017.2,3.64 1014.08,3.64 C1010.76,3.64 1008.12,5.84 1008.12,10.08 L1008.12,19.92 C1008.12,24.16 1010.76,26.36 1014.08,26.36 C1017.2,26.36 1019.68,24.44 1020,20.72 L1023.08,20.72 C1022.76,26.12 1019.2,29.4 1014.08,29.4 C1008.72,29.4 1005.04,25.8 1005.04,19.92 L1005.04,10.08 C1005.04,4.2 1008.72,0.6 1014.08,0.6 Z M1035.68,4.04 L1028.2,4.04 L1028.2,1 L1046.24,1 L1046.24,4.04 L1038.76,4.04 L1038.76,29 L1035.68,29 L1035.68,4.04 Z M1068.56,4.04 L1062.12,4.04 L1062.12,25.96 L1068.56,25.96 L1068.56,29 L1052.6,29 L1052.6,25.96 L1059.04,25.96 L1059.04,4.04 L1052.6,4.04 L1052.6,1 L1068.56,1 L1068.56,4.04 Z M1083.88,24.72 L1091.52,1 L1094.64,1 L1085.64,29 L1082.12,29 L1073.12,1 L1076.24,1 L1083.88,24.72 Z M1102.72,16.36 L1102.72,25.96 L1115.56,25.96 L1115.56,29 L1099.64,29 L1099.64,1 L1115.56,1 L1115.56,4.04 L1102.72,4.04 L1102.72,13.32 L1112.76,13.32 L1112.76,16.36 L1102.72,16.36 Z M9.6,45.04 L2.12,45.04 L2.12,42 L20.16,42 L20.16,45.04 L12.68,45.04 L12.68,70 L9.6,70 L9.6,45.04 Z M40.44,54.32 L40.44,42 L43.52,42 L43.52,70 L40.44,70 L40.44,57.36 L28.52,57.36 L28.52,70 L25.44,70 L25.44,42 L28.52,42 L28.52,54.32 L40.44,54.32 Z M53.32,57.36 L53.32,66.96 L66.16,66.96 L66.16,70 L50.24,70 L50.24,42 L66.16,42 L66.16,45.04 L53.32,45.04 L53.32,54.32 L63.36,54.32 L63.36,57.36 L53.32,57.36 Z M110.4,60.92 L110.4,51.08 C110.4,46.84 107.76,44.64 104.44,44.64 C101.12,44.64 98.48,46.84 98.48,51.08 L98.48,60.92 C98.48,65.16 101.12,67.36 104.44,67.36 C107.76,67.36 110.4,65.16 110.4,60.92 Z M113.48,51.08 L113.48,60.92 C113.48,66.8 109.8,70.4 104.44,70.4 C99.08,70.4 95.4,66.8 95.4,60.92 L95.4,51.08 C95.4,45.2 99.08,41.6 104.44,41.6 C109.8,41.6 113.48,45.2 113.48,51.08 Z M126.2,45.04 L118.72,45.04 L118.72,42 L136.76,42 L136.76,45.04 L129.28,45.04 L129.28,70 L126.2,70 L126.2,45.04 Z M157.04,54.32 L157.04,42 L160.12,42 L160.12,70 L157.04,70 L157.04,57.36 L145.12,57.36 L145.12,70 L142.04,70 L142.04,42 L145.12,42 L145.12,54.32 L157.04,54.32 Z M169.92,57.36 L169.92,66.96 L182.76,66.96 L182.76,70 L166.84,70 L166.84,42 L182.76,42 L182.76,45.04 L169.92,45.04 L169.92,54.32 L179.96,54.32 L179.96,57.36 L169.92,57.36 Z M197,57.32 L192.56,57.32 L192.56,70 L189.48,70 L189.48,42 L199,42 C204.96,42 207.08,45.96 207.08,49.68 C207.08,53.08 205.32,56.6 200.52,57.24 L208,70 L204.44,70 L197,57.32 Z M203.96,49.68 C203.96,47 202.16,45.04 199,45.04 L192.56,45.04 L192.56,54.36 L199,54.36 C202.16,54.36 203.96,52.36 203.96,49.68 Z M236.8,51.68 L236.8,49.68 C236.8,45.24 240.44,41.6 244.88,41.6 C249.32,41.6 252.96,45.24 252.96,49.68 L252.96,51.68 C252.96,53.48 252.36,55.16 251.36,56.52 L241.32,70.2 L239,68.48 L245.4,59.72 C245.24,59.76 245.08,59.76 244.88,59.76 C240.44,59.76 236.8,56.12 236.8,51.68 Z M239.8,49.68 L239.8,51.68 C239.8,54.48 242.04,56.88 244.88,56.88 C247.72,56.88 249.96,54.48 249.96,51.68 L249.96,49.68 C249.96,46.88 247.72,44.48 244.88,44.48 C242.04,44.48 239.8,46.88 239.8,49.68 Z M259.92,49.4 C259.92,45.08 263.36,41.6 267.68,41.6 C272,41.6 275.48,45.08 275.48,49.4 C275.48,52.04 274.2,54.32 272.2,55.72 C274.32,57.16 275.76,59.56 275.76,62.32 C275.76,66.76 272.12,70.4 267.68,70.4 C263.24,70.4 259.6,66.76 259.6,62.32 C259.6,59.56 261,57.12 263.12,55.68 C261.16,54.28 259.92,52.04 259.92,49.4 Z M262.6,62.32 C262.6,65.12 264.84,67.52 267.68,67.52 C270.52,67.52 272.76,65.12 272.76,62.32 C272.76,59.52 270.52,57.12 267.68,57.12 C264.84,57.12 262.6,59.52 262.6,62.32 Z M272.48,49.4 C272.48,46.76 270.36,44.48 267.68,44.48 C265,44.48 262.92,46.76 262.92,49.4 C262.92,52.04 265,54.28 267.68,54.28 C270.36,54.28 272.48,52.04 272.48,49.4 Z M281,47.32 C281,44.28 283.44,41.8 286.48,41.8 C289.52,41.8 292,44.28 292,47.32 C292,50.36 289.52,52.8 286.48,52.8 C283.44,52.8 281,50.36 281,47.32 Z M283.48,47.32 C283.48,49 284.76,50.36 286.48,50.36 C288.2,50.36 289.52,49 289.52,47.32 C289.52,45.64 288.2,44.24 286.48,44.24 C284.76,44.24 283.48,45.64 283.48,47.32 Z M290,64.72 C290,61.68 292.44,59.2 295.48,59.2 C298.52,59.2 301,61.68 301,64.72 C301,67.76 298.52,70.2 295.48,70.2 C292.44,70.2 290,67.76 290,64.72 Z M292.48,64.72 C292.48,66.4 293.76,67.76 295.48,67.76 C297.2,67.76 298.52,66.4 298.52,64.72 C298.52,63.04 297.2,61.64 295.48,61.64 C293.76,61.64 292.48,63.04 292.48,64.72 Z M281.68,64 L299.04,46.6 L300.32,47.88 L282.96,65.28 L281.68,64 Z M345.28,70 L342.72,62.12 L332.56,62.12 L330,70 L326.88,70 L335.88,42 L339.4,42 L348.4,70 L345.28,70 Z M341.8,59.28 L337.64,46.28 L333.48,59.28 L341.8,59.28 Z M361.12,41.6 C366.24,41.6 369.8,44.88 370.12,50.28 L367.04,50.28 C366.72,46.56 364.24,44.64 361.12,44.64 C357.8,44.64 355.16,46.84 355.16,51.08 L355.16,60.92 C355.16,65.16 357.8,67.36 361.12,67.36 C364.24,67.36 366.72,65.44 367.04,61.72 L370.12,61.72 C369.8,67.12 366.24,70.4 361.12,70.4 C355.76,70.4 352.08,66.8 352.08,60.92 L352.08,51.08 C352.08,45.2 355.76,41.6 361.12,41.6 Z M382.72,45.04 L375.24,45.04 L375.24,42 L393.28,42 L393.28,45.04 L385.8,45.04 L385.8,70 L382.72,70 L382.72,45.04 Z M415.6,45.04 L409.16,45.04 L409.16,66.96 L415.6,66.96 L415.6,70 L399.64,70 L399.64,66.96 L406.08,66.96 L406.08,45.04 L399.64,45.04 L399.64,42 L415.6,42 L415.6,45.04 Z M436.88,60.92 L436.88,51.08 C436.88,46.84 434.24,44.64 430.92,44.64 C427.6,44.64 424.96,46.84 424.96,51.08 L424.96,60.92 C424.96,65.16 427.6,67.36 430.92,67.36 C434.24,67.36 436.88,65.16 436.88,60.92 Z M439.96,51.08 L439.96,60.92 C439.96,66.8 436.28,70.4 430.92,70.4 C425.56,70.4 421.88,66.8 421.88,60.92 L421.88,51.08 C421.88,45.2 425.56,41.6 430.92,41.6 C436.28,41.6 439.96,45.2 439.96,51.08 Z M463.28,42 L463.28,70 L460.2,70 L448.28,47.96 L448.28,70 L445.2,70 L445.2,42 L448.28,42 L460.2,64.04 L460.2,42 L463.28,42 Z M500.92,70.4 C495.84,70.4 492.24,67.08 491.84,61.72 L495,61.72 C495.48,65.32 497.92,67.36 500.92,67.36 C504.08,67.36 506.28,65.88 506.28,62.92 C506.28,60.4 504.92,58.88 501.76,58 L498.2,57 C494.04,55.84 492.32,52.44 492.32,49.04 C492.32,44.24 496.12,41.6 500.6,41.6 C505.44,41.6 508.44,44.32 509.04,49.08 L505.88,49.08 C505.28,46.4 503.6,44.64 500.6,44.64 C497.24,44.64 495.44,46.6 495.44,49.04 C495.44,51.6 496.72,53.2 499.6,54 L502.88,54.92 C506.84,56.04 509.4,58.48 509.4,62.92 C509.4,67.4 506.52,70.4 500.92,70.4 Z M522.64,45.04 L515.16,45.04 L515.16,42 L533.2,42 L533.2,45.04 L525.72,45.04 L525.72,70 L522.64,70 L522.64,45.04 Z M555.16,70 L552.6,62.12 L542.44,62.12 L539.88,70 L536.76,70 L545.76,42 L549.28,42 L558.28,70 L555.16,70 Z M551.68,59.28 L547.52,46.28 L543.36,59.28 L551.68,59.28 Z M579.88,42 L579.88,70 L576.8,70 L564.88,47.96 L564.88,70 L561.8,70 L561.8,42 L564.88,42 L576.8,64.04 L576.8,42 L579.88,42 Z M585.28,42 L594.32,42 C599.68,42 603.36,45.6 603.36,51.48 L603.36,60.52 C603.36,66.4 599.68,70 594.32,70 L585.28,70 L585.28,42 Z M594.32,45.04 L588.36,45.04 L588.36,66.96 L594.32,66.96 C597.64,66.96 600.28,64.76 600.28,60.52 L600.28,51.48 C600.28,47.24 597.64,45.08 594.32,45.04 Z M625.48,45.04 L619.04,45.04 L619.04,66.96 L625.48,66.96 L625.48,70 L609.52,70 L609.52,66.96 L615.96,66.96 L615.96,45.04 L609.52,45.04 L609.52,42 L625.48,42 L625.48,45.04 Z M649.84,42 L649.84,70 L646.76,70 L634.84,47.96 L634.84,70 L631.76,70 L631.76,42 L634.84,42 L646.76,64.04 L646.76,42 L649.84,42 Z M664.2,41.6 C669.32,41.6 672.88,44.88 673.2,50.28 L670.12,50.28 C669.8,46.56 667.32,44.64 664.2,44.64 C660.88,44.64 658.24,46.84 658.24,51.08 L658.24,60.92 C658.24,65.16 660.88,67.36 664.2,67.36 C667.52,67.36 670.16,65.16 670.16,60.92 L670.16,58.16 L664.2,58.16 L664.2,55.12 L673.24,55.12 L673.24,60.92 C673.24,66.8 669.56,70.4 664.2,70.4 C658.84,70.4 655.16,66.8 655.16,60.92 L655.16,51.08 C655.16,45.2 658.84,41.6 664.2,41.6 Z M710.04,57.32 L705.6,57.32 L705.6,70 L702.52,70 L702.52,42 L712.04,42 C718,42 720.12,45.96 720.12,49.68 C720.12,53.08 718.36,56.6 713.56,57.24 L721.04,70 L717.48,70 L710.04,57.32 Z M717,49.68 C717,47 715.2,45.04 712.04,45.04 L705.6,45.04 L705.6,54.36 L712.04,54.36 C715.2,54.36 717,52.36 717,49.68 Z M740.04,60.92 L740.04,51.08 C740.04,46.84 737.4,44.64 734.08,44.64 C730.76,44.64 728.12,46.84 728.12,51.08 L728.12,60.92 C728.12,65.16 730.76,67.36 734.08,67.36 C737.4,67.36 740.04,65.16 740.04,60.92 Z M743.12,51.08 L743.12,60.92 C743.12,66.8 739.44,70.4 734.08,70.4 C728.72,70.4 725.04,66.8 725.04,60.92 L725.04,51.08 C725.04,45.2 728.72,41.6 734.08,41.6 C739.44,41.6 743.12,45.2 743.12,51.08 Z M757.56,41.6 C762.68,41.6 766.24,44.88 766.56,50.28 L763.48,50.28 C763.16,46.56 760.68,44.64 757.56,44.64 C754.24,44.64 751.6,46.84 751.6,51.08 L751.6,60.92 C751.6,65.16 754.24,67.36 757.56,67.36 C760.68,67.36 763.16,65.44 763.48,61.72 L766.56,61.72 C766.24,67.12 762.68,70.4 757.56,70.4 C752.2,70.4 748.52,66.8 748.52,60.92 L748.52,51.08 C748.52,45.2 752.2,41.6 757.56,41.6 Z M774.52,61.76 L774.52,70 L771.44,70 L771.44,42 L774.52,42 L774.52,57.2 L787.44,42 L791.36,42 L781.52,53.52 L792.4,70 L788.76,70 L779.48,55.92 L774.52,61.76 Z M827.4,70.4 C822.32,70.4 818.72,67.08 818.32,61.72 L821.48,61.72 C821.96,65.32 824.4,67.36 827.4,67.36 C830.56,67.36 832.76,65.88 832.76,62.92 C832.76,60.4 831.4,58.88 828.24,58 L824.68,57 C820.52,55.84 818.8,52.44 818.8,49.04 C818.8,44.24 822.6,41.6 827.08,41.6 C831.92,41.6 834.92,44.32 835.52,49.08 L832.36,49.08 C831.76,46.4 830.08,44.64 827.08,44.64 C823.72,44.64 821.92,46.6 821.92,49.04 C821.92,51.6 823.2,53.2 826.08,54 L829.36,54.92 C833.32,56.04 835.88,58.48 835.88,62.92 C835.88,67.4 833,70.4 827.4,70.4 Z M858.68,45.04 L852.24,45.04 L852.24,66.96 L858.68,66.96 L858.68,70 L842.72,70 L842.72,66.96 L849.16,66.96 L849.16,45.04 L842.72,45.04 L842.72,42 L858.68,42 L858.68,45.04 Z M879.96,60.92 L879.96,51.08 C879.96,46.84 877.32,44.64 874,44.64 C870.68,44.64 868.04,46.84 868.04,51.08 L868.04,60.92 C868.04,65.16 870.68,67.36 874,67.36 C877.32,67.36 879.96,65.16 879.96,60.92 Z M883.04,51.08 L883.04,60.92 C883.04,66.8 879.36,70.4 874,70.4 C868.64,70.4 864.96,66.8 864.96,60.92 L864.96,51.08 C864.96,45.2 868.64,41.6 874,41.6 C879.36,41.6 883.04,45.2 883.04,51.08 Z M888.28,60.92 L888.28,42 L891.36,42 L891.36,60.92 C891.36,65.16 894,67.36 897.32,67.36 C900.64,67.36 903.28,65.16 903.28,60.92 L903.28,42 L906.36,42 L906.36,60.92 C906.36,66.8 902.68,70.4 897.32,70.4 C891.96,70.4 888.28,66.8 888.28,60.92 Z M920.64,53.32 L927.2,42 L930.6,42 L922.72,55.52 L931.2,70 L927.68,70 L920.64,57.84 L913.6,70 L910.08,70 L918.56,55.52 L910.68,42 L914.08,42 L920.64,53.32 Z M965.72,45.04 L958.24,45.04 L958.24,42 L976.28,42 L976.28,45.04 L968.8,45.04 L968.8,70 L965.72,70 L965.72,45.04 Z M989.88,57.32 L985.44,57.32 L985.44,70 L982.36,70 L982.36,42 L991.88,42 C997.84,42 999.96,45.96 999.96,49.68 C999.96,53.08 998.2,56.6 993.4,57.24 L1000.88,70 L997.32,70 L989.88,57.32 Z M996.84,49.68 C996.84,47 995.04,45.04 991.88,45.04 L985.44,45.04 L985.44,54.36 L991.88,54.36 C995.04,54.36 996.84,52.36 996.84,49.68 Z M1021.92,45.04 L1015.48,45.04 L1015.48,66.96 L1021.92,66.96 L1021.92,70 L1005.96,70 L1005.96,66.96 L1012.4,66.96 L1012.4,45.04 L1005.96,45.04 L1005.96,42 L1021.92,42 L1021.92,45.04 Z M1028.68,70 L1028.68,42 L1038,42 C1043.96,42 1046.08,45.96 1046.08,49.68 C1046.08,52.4 1044.8,54.56 1043,55.68 C1045.56,56.96 1046.76,59.6 1046.76,62.16 C1046.76,66.04 1044.68,70 1038.68,70 L1028.68,70 Z M1038.68,57.36 L1031.76,57.36 L1031.76,66.96 L1038.68,66.96 C1041.72,66.96 1043.64,65.16 1043.64,62.16 C1043.64,59.16 1041.72,57.36 1038.68,57.36 Z M1042.96,49.68 C1042.96,47 1041.16,45.04 1038,45.04 L1031.76,45.04 L1031.76,54.32 L1038,54.32 C1041.16,54.32 1042.96,52.36 1042.96,49.68 Z M1056.08,57.36 L1056.08,66.96 L1068.92,66.96 L1068.92,70 L1053,70 L1053,42 L1068.92,42 L1068.92,45.04 L1056.08,45.04 L1056.08,54.32 L1066.12,54.32 L1066.12,57.36 L1056.08,57.36 Z M11.16,100.04 L17.04,83 L20.2,83 L20.2,111 L17.24,111 L17.24,90.16 L12.72,103.48 L9.6,103.48 L5.08,90.16 L5.08,111 L2.12,111 L2.12,83 L5.28,83 L11.16,100.04 Z M25.44,101.92 L25.44,83 L28.52,83 L28.52,101.92 C28.52,106.16 31.16,108.36 34.48,108.36 C37.8,108.36 40.44,106.16 40.44,101.92 L40.44,83 L43.52,83 L43.52,101.92 C43.52,107.8 39.84,111.4 34.48,111.4 C29.12,111.4 25.44,107.8 25.44,101.92 Z M57.84,111.4 C52.76,111.4 49.16,108.08 48.76,102.72 L51.92,102.72 C52.4,106.32 54.84,108.36 57.84,108.36 C61,108.36 63.2,106.88 63.2,103.92 C63.2,101.4 61.84,99.88 58.68,99 L55.12,98 C50.96,96.84 49.24,93.44 49.24,90.04 C49.24,85.24 53.04,82.6 57.52,82.6 C62.36,82.6 65.36,85.32 65.96,90.08 L62.8,90.08 C62.2,87.4 60.52,85.64 57.52,85.64 C54.16,85.64 52.36,87.6 52.36,90.04 C52.36,92.6 53.64,94.2 56.52,95 L59.8,95.92 C63.76,97.04 66.32,99.48 66.32,103.92 C66.32,108.4 63.44,111.4 57.84,111.4 Z M73.84,111 L73.84,83 L76.92,83 L76.92,107.96 L89.76,107.96 L89.76,111 L73.84,111 Z M112.44,86.04 L106,86.04 L106,107.96 L112.44,107.96 L112.44,111 L96.48,111 L96.48,107.96 L102.92,107.96 L102.92,86.04 L96.48,86.04 L96.48,83 L112.44,83 L112.44,86.04 Z M127.76,100.04 L133.64,83 L136.8,83 L136.8,111 L133.84,111 L133.84,90.16 L129.32,103.48 L126.2,103.48 L121.68,90.16 L121.68,111 L118.72,111 L118.72,83 L121.88,83 L127.76,100.04 Z M184.4,91.56 C184.4,96.52 181.84,100.12 175.36,100.12 L169.4,100.12 L169.4,111 L166.32,111 L166.32,83 L175.36,83 C181.84,83 184.4,86.6 184.4,91.56 Z M181.24,91.56 C181.24,88.52 179.68,86.04 175.36,86.04 L169.4,86.04 L169.4,97.08 L175.36,97.08 C179.68,97.08 181.24,94.6 181.24,91.56 Z M203.68,101.92 L203.68,92.08 C203.68,87.84 201.04,85.64 197.72,85.64 C194.4,85.64 191.76,87.84 191.76,92.08 L191.76,101.92 C191.76,106.16 194.4,108.36 197.72,108.36 C201.04,108.36 203.68,106.16 203.68,101.92 Z M206.76,92.08 L206.76,101.92 C206.76,107.8 203.08,111.4 197.72,111.4 C192.36,111.4 188.68,107.8 188.68,101.92 L188.68,92.08 C188.68,86.2 192.36,82.6 197.72,82.6 C203.08,82.6 206.76,86.2 206.76,92.08 Z M222.28,87 L226.2,104.44 L229,83 L232,83 L228,111 L225.24,111 L221.04,92.92 L216.84,111 L214.08,111 L210.08,83 L213.08,83 L215.88,104.44 L219.8,87 L222.28,87 Z M239.88,98.36 L239.88,107.96 L252.72,107.96 L252.72,111 L236.8,111 L236.8,83 L252.72,83 L252.72,86.04 L239.88,86.04 L239.88,95.32 L249.92,95.32 L249.92,98.36 L239.88,98.36 Z M266.96,98.32 L262.52,98.32 L262.52,111 L259.44,111 L259.44,83 L268.96,83 C274.92,83 277.04,86.96 277.04,90.68 C277.04,94.08 275.28,97.6 270.48,98.24 L277.96,111 L274.4,111 L266.96,98.32 Z M273.92,90.68 C273.92,88 272.12,86.04 268.96,86.04 L262.52,86.04 L262.52,95.36 L268.96,95.36 C272.12,95.36 273.92,93.36 273.92,90.68 Z M314.48,82.6 C319.6,82.6 323.16,85.88 323.48,91.28 L320.4,91.28 C320.08,87.56 317.6,85.64 314.48,85.64 C311.16,85.64 308.52,87.84 308.52,92.08 L308.52,101.92 C308.52,106.16 311.16,108.36 314.48,108.36 C317.6,108.36 320.08,106.44 320.4,102.72 L323.48,102.72 C323.16,108.12 319.6,111.4 314.48,111.4 C309.12,111.4 305.44,107.8 305.44,101.92 L305.44,92.08 C305.44,86.2 309.12,82.6 314.48,82.6 Z M343.6,95.32 L343.6,83 L346.68,83 L346.68,111 L343.6,111 L343.6,98.36 L331.68,98.36 L331.68,111 L328.6,111 L328.6,83 L331.68,83 L331.68,95.32 L343.6,95.32 Z M368.6,111 L366.04,103.12 L355.88,103.12 L353.32,111 L350.2,111 L359.2,83 L362.72,83 L371.72,111 L368.6,111 Z M365.12,100.28 L360.96,87.28 L356.8,100.28 L365.12,100.28 Z M393.32,83 L393.32,111 L390.24,111 L378.32,88.96 L378.32,111 L375.24,111 L375.24,83 L378.32,83 L390.24,105.04 L390.24,83 L393.32,83 Z M407.68,82.6 C412.8,82.6 416.36,85.88 416.68,91.28 L413.6,91.28 C413.28,87.56 410.8,85.64 407.68,85.64 C404.36,85.64 401.72,87.84 401.72,92.08 L401.72,101.92 C401.72,106.16 404.36,108.36 407.68,108.36 C411,108.36 413.64,106.16 413.64,101.92 L413.64,99.16 L407.68,99.16 L407.68,96.12 L416.72,96.12 L416.72,101.92 C416.72,107.8 413.04,111.4 407.68,111.4 C402.32,111.4 398.64,107.8 398.64,101.92 L398.64,92.08 C398.64,86.2 402.32,82.6 407.68,82.6 Z M426.44,98.36 L426.44,107.96 L439.28,107.96 L439.28,111 L423.36,111 L423.36,83 L439.28,83 L439.28,86.04 L426.44,86.04 L426.44,95.32 L436.48,95.32 L436.48,98.36 L426.44,98.36 Z M486.6,83 L486.6,111 L483.52,111 L471.6,88.96 L471.6,111 L468.52,111 L468.52,83 L471.6,83 L483.52,105.04 L483.52,83 L486.6,83 Z M496.4,98.36 L496.4,107.96 L509.24,107.96 L509.24,111 L493.32,111 L493.32,83 L509.24,83 L509.24,86.04 L496.4,86.04 L496.4,95.32 L506.44,95.32 L506.44,98.36 L496.4,98.36 Z M525.44,87 L529.36,104.44 L532.16,83 L535.16,83 L531.16,111 L528.4,111 L524.2,92.92 L520,111 L517.24,111 L513.24,83 L516.24,83 L519.04,104.44 L522.96,87 L525.44,87 Z M567.08,98.36 L567.08,111 L564,111 L564,83 L579.92,83 L579.92,86.04 L567.08,86.04 L567.08,95.32 L577.12,95.32 L577.12,98.36 L567.08,98.36 Z M586.88,111 L586.88,83 L589.96,83 L589.96,107.96 L602.8,107.96 L602.8,111 L586.88,111 Z M623.44,101.92 L623.44,92.08 C623.44,87.84 620.8,85.64 617.48,85.64 C614.16,85.64 611.52,87.84 611.52,92.08 L611.52,101.92 C611.52,106.16 614.16,108.36 617.48,108.36 C620.8,108.36 623.44,106.16 623.44,101.92 Z M626.52,92.08 L626.52,101.92 C626.52,107.8 622.84,111.4 617.48,111.4 C612.12,111.4 608.44,107.8 608.44,101.92 L608.44,92.08 C608.44,86.2 612.12,82.6 617.48,82.6 C622.84,82.6 626.52,86.2 626.52,92.08 Z M640.08,98.32 L635.64,98.32 L635.64,111 L632.56,111 L632.56,83 L642.08,83 C648.04,83 650.16,86.96 650.16,90.68 C650.16,94.08 648.4,97.6 643.6,98.24 L651.08,111 L647.52,111 L640.08,98.32 Z M647.04,90.68 C647.04,88 645.24,86.04 642.08,86.04 L635.64,86.04 L635.64,95.36 L642.08,95.36 C645.24,95.36 647.04,93.36 647.04,90.68 Z M672.12,86.04 L665.68,86.04 L665.68,107.96 L672.12,107.96 L672.12,111 L656.16,111 L656.16,107.96 L662.6,107.96 L662.6,86.04 L656.16,86.04 L656.16,83 L672.12,83 L672.12,86.04 Z M678.56,83 L687.6,83 C692.96,83 696.64,86.6 696.64,92.48 L696.64,101.52 C696.64,107.4 692.96,111 687.6,111 L678.56,111 L678.56,83 Z M687.6,86.04 L681.64,86.04 L681.64,107.96 L687.6,107.96 C690.92,107.96 693.56,105.76 693.56,101.52 L693.56,92.48 C693.56,88.24 690.92,86.08 687.6,86.04 Z M718.4,111 L715.84,103.12 L705.68,103.12 L703.12,111 L700,111 L709,83 L712.52,83 L721.52,111 L718.4,111 Z M714.92,100.28 L710.76,87.28 L706.6,100.28 L714.92,100.28 Z M757.4,100.04 L763.28,83 L766.44,83 L766.44,111 L763.48,111 L763.48,90.16 L758.96,103.48 L755.84,103.48 L751.32,90.16 L751.32,111 L748.36,111 L748.36,83 L751.52,83 L757.4,100.04 Z M788.36,111 L785.8,103.12 L775.64,103.12 L773.08,111 L769.96,111 L778.96,83 L782.48,83 L791.48,111 L788.36,111 Z M784.88,100.28 L780.72,87.28 L776.56,100.28 L784.88,100.28 Z M794.6,103 L797.72,103 C798.12,106.52 800.56,108.36 803.6,108.36 C806.92,108.36 809.56,106.16 809.56,101.92 L809.56,86.04 L796.68,86.04 L796.68,83 L812.64,83 L812.64,101.92 C812.64,107.8 808.96,111.4 803.6,111.4 C798.56,111.4 795.04,108.24 794.6,103 Z M833.32,101.92 L833.32,92.08 C833.32,87.84 830.68,85.64 827.36,85.64 C824.04,85.64 821.4,87.84 821.4,92.08 L821.4,101.92 C821.4,106.16 824.04,108.36 827.36,108.36 C830.68,108.36 833.32,106.16 833.32,101.92 Z M836.4,92.08 L836.4,101.92 C836.4,107.8 832.72,111.4 827.36,111.4 C822,111.4 818.32,107.8 818.32,101.92 L818.32,92.08 C818.32,86.2 822,82.6 827.36,82.6 C832.72,82.6 836.4,86.2 836.4,92.08 Z M849.96,98.32 L845.52,98.32 L845.52,111 L842.44,111 L842.44,83 L851.96,83 C857.92,83 860.04,86.96 860.04,90.68 C860.04,94.08 858.28,97.6 853.48,98.24 L860.96,111 L857.4,111 L849.96,98.32 Z M856.92,90.68 C856.92,88 855.12,86.04 851.96,86.04 L845.52,86.04 L845.52,95.36 L851.96,95.36 C855.12,95.36 856.92,93.36 856.92,90.68 Z M882,86.04 L875.56,86.04 L875.56,107.96 L882,107.96 L882,111 L866.04,111 L866.04,107.96 L872.48,107.96 L872.48,86.04 L866.04,86.04 L866.04,83 L882,83 L882,86.04 Z M895.76,86.04 L888.28,86.04 L888.28,83 L906.32,83 L906.32,86.04 L898.84,86.04 L898.84,111 L895.76,111 L895.76,86.04 Z M922.2,99.88 L922.2,111 L919.12,111 L919.12,99.84 L909.88,83 L913.24,83 L920.68,96.56 L928.08,83 L931.44,83 L922.2,99.88 Z M11.2,152.4 C6.12,152.4 2.52,149.08 2.12,143.72 L5.28,143.72 C5.76,147.32 8.2,149.36 11.2,149.36 C14.36,149.36 16.56,147.88 16.56,144.92 C16.56,142.4 15.2,140.88 12.04,140 L8.48,139 C4.32,137.84 2.6,134.44 2.6,131.04 C2.6,126.24 6.4,123.6 10.88,123.6 C15.72,123.6 18.72,126.32 19.32,131.08 L16.16,131.08 C15.56,128.4 13.88,126.64 10.88,126.64 C7.52,126.64 5.72,128.6 5.72,131.04 C5.72,133.6 7,135.2 9.88,136 L13.16,136.92 C17.12,138.04 19.68,140.48 19.68,144.92 C19.68,149.4 16.8,152.4 11.2,152.4 Z M32.92,127.04 L25.44,127.04 L25.44,124 L43.48,124 L43.48,127.04 L36,127.04 L36,152 L32.92,152 L32.92,127.04 Z M63.76,142.92 L63.76,133.08 C63.76,128.84 61.12,126.64 57.8,126.64 C54.48,126.64 51.84,128.84 51.84,133.08 L51.84,142.92 C51.84,147.16 54.48,149.36 57.8,149.36 C61.12,149.36 63.76,147.16 63.76,142.92 Z M66.84,133.08 L66.84,142.92 C66.84,148.8 63.16,152.4 57.8,152.4 C52.44,152.4 48.76,148.8 48.76,142.92 L48.76,133.08 C48.76,127.2 52.44,123.6 57.8,123.6 C63.16,123.6 66.84,127.2 66.84,133.08 Z M91.12,132.56 C91.12,137.52 88.56,141.12 82.08,141.12 L76.12,141.12 L76.12,152 L73.04,152 L73.04,124 L82.08,124 C88.56,124 91.12,127.6 91.12,132.56 Z M87.96,132.56 C87.96,129.52 86.4,127.04 82.08,127.04 L76.12,127.04 L76.12,138.08 L82.08,138.08 C86.4,138.08 87.96,135.6 87.96,132.56 Z M121.56,143.76 L121.56,152 L118.48,152 L118.48,124 L121.56,124 L121.56,139.2 L134.48,124 L138.4,124 L128.56,135.52 L139.44,152 L135.8,152 L126.52,137.92 L121.56,143.76 Z M151.08,141.04 L156.96,124 L160.12,124 L160.12,152 L157.16,152 L157.16,131.16 L152.64,144.48 L149.52,144.48 L145,131.16 L145,152 L142.04,152 L142.04,124 L145.2,124 L151.08,141.04 Z M190.44,152 L190.44,124 L193.52,124 L193.52,148.96 L206.36,148.96 L206.36,152 L190.44,152 Z M216.56,139.36 L216.56,148.96 L229.4,148.96 L229.4,152 L213.48,152 L213.48,124 L229.4,124 L229.4,127.04 L216.56,127.04 L216.56,136.32 L226.6,136.32 L226.6,139.36 L216.56,139.36 Z M244.44,123.6 C249.56,123.6 253.12,126.88 253.44,132.28 L250.36,132.28 C250.04,128.56 247.56,126.64 244.44,126.64 C241.12,126.64 238.48,128.84 238.48,133.08 L238.48,142.92 C238.48,147.16 241.12,149.36 244.44,149.36 C247.76,149.36 250.4,147.16 250.4,142.92 L250.4,140.16 L244.44,140.16 L244.44,137.12 L253.48,137.12 L253.48,142.92 C253.48,148.8 249.8,152.4 244.44,152.4 C239.08,152.4 235.4,148.8 235.4,142.92 L235.4,133.08 C235.4,127.2 239.08,123.6 244.44,123.6 Z M275.32,152 L272.76,144.12 L262.6,144.12 L260.04,152 L256.92,152 L265.92,124 L269.44,124 L278.44,152 L275.32,152 Z M271.84,141.28 L267.68,128.28 L263.52,141.28 L271.84,141.28 Z M283.72,152 L283.72,124 L286.8,124 L286.8,148.96 L299.64,148.96 L299.64,152 L283.72,152 Z M333.88,139.36 L333.88,152 L330.8,152 L330.8,124 L346.72,124 L346.72,127.04 L333.88,127.04 L333.88,136.32 L343.92,136.32 L343.92,139.36 L333.88,139.36 Z M351.92,142.92 L351.92,124 L355,124 L355,142.92 C355,147.16 357.64,149.36 360.96,149.36 C364.28,149.36 366.92,147.16 366.92,142.92 L366.92,124 L370,124 L370,142.92 C370,148.8 366.32,152.4 360.96,152.4 C355.6,152.4 351.92,148.8 351.92,142.92 Z M393.32,124 L393.32,152 L390.24,152 L378.32,129.96 L378.32,152 L375.24,152 L375.24,124 L378.32,124 L390.24,146.04 L390.24,124 L393.32,124 Z M398.72,124 L407.76,124 C413.12,124 416.8,127.6 416.8,133.48 L416.8,142.52 C416.8,148.4 413.12,152 407.76,152 L398.72,152 L398.72,124 Z M407.76,127.04 L401.8,127.04 L401.8,148.96 L407.76,148.96 C411.08,148.96 413.72,146.76 413.72,142.52 L413.72,133.48 C413.72,129.24 411.08,127.08 407.76,127.04 Z M454.28,152.4 C449.2,152.4 445.6,149.08 445.2,143.72 L448.36,143.72 C448.84,147.32 451.28,149.36 454.28,149.36 C457.44,149.36 459.64,147.88 459.64,144.92 C459.64,142.4 458.28,140.88 455.12,140 L451.56,139 C447.4,137.84 445.68,134.44 445.68,131.04 C445.68,126.24 449.48,123.6 453.96,123.6 C458.8,123.6 461.8,126.32 462.4,131.08 L459.24,131.08 C458.64,128.4 456.96,126.64 453.96,126.64 C450.6,126.64 448.8,128.6 448.8,131.04 C448.8,133.6 450.08,135.2 452.96,136 L456.24,136.92 C460.2,138.04 462.76,140.48 462.76,144.92 C462.76,149.4 459.88,152.4 454.28,152.4 Z M476,127.04 L468.52,127.04 L468.52,124 L486.56,124 L486.56,127.04 L479.08,127.04 L479.08,152 L476,152 L476,127.04 Z M508.52,152 L505.96,144.12 L495.8,144.12 L493.24,152 L490.12,152 L499.12,124 L502.64,124 L511.64,152 L508.52,152 Z M505.04,141.28 L500.88,128.28 L496.72,141.28 L505.04,141.28 Z M533.24,124 L533.24,152 L530.16,152 L518.24,129.96 L518.24,152 L515.16,152 L515.16,124 L518.24,124 L530.16,146.04 L530.16,124 L533.24,124 Z M538.64,124 L547.68,124 C553.04,124 556.72,127.6 556.72,133.48 L556.72,142.52 C556.72,148.4 553.04,152 547.68,152 L538.64,152 L538.64,124 Z M547.68,127.04 L541.72,127.04 L541.72,148.96 L547.68,148.96 C551,148.96 553.64,146.76 553.64,142.52 L553.64,133.48 C553.64,129.24 551,127.08 547.68,127.04 Z M568.76,152 L568.76,147.8 L572.96,147.8 L572.96,152 L568.76,152 Z M589.68,139.36 L589.68,148.96 L602.52,148.96 L602.52,152 L586.6,152 L586.6,124 L602.52,124 L602.52,127.04 L589.68,127.04 L589.68,136.32 L599.72,136.32 L599.72,139.36 L589.68,139.36 Z M625.12,152 L622.56,144.12 L612.4,144.12 L609.84,152 L606.72,152 L615.72,124 L619.24,124 L628.24,152 L625.12,152 Z M621.64,141.28 L617.48,128.28 L613.32,141.28 L621.64,141.28 Z M640.08,139.32 L635.64,139.32 L635.64,152 L632.56,152 L632.56,124 L642.08,124 C648.04,124 650.16,127.96 650.16,131.68 C650.16,135.08 648.4,138.6 643.6,139.24 L651.08,152 L647.52,152 L640.08,139.32 Z M647.04,131.68 C647.04,129 645.24,127.04 642.08,127.04 L635.64,127.04 L635.64,136.36 L642.08,136.36 C645.24,136.36 647.04,134.36 647.04,131.68 Z M662.56,127.04 L655.08,127.04 L655.08,124 L673.12,124 L673.12,127.04 L665.64,127.04 L665.64,152 L662.56,152 L662.56,127.04 Z M693.4,136.32 L693.4,124 L696.48,124 L696.48,152 L693.4,152 L693.4,139.36 L681.48,139.36 L681.48,152 L678.4,152 L678.4,124 L681.48,124 L681.48,136.32 L693.4,136.32 Z M734.16,123.6 C739.28,123.6 742.84,126.88 743.16,132.28 L740.08,132.28 C739.76,128.56 737.28,126.64 734.16,126.64 C730.84,126.64 728.2,128.84 728.2,133.08 L728.2,142.92 C728.2,147.16 730.84,149.36 734.16,149.36 C737.48,149.36 740.12,147.16 740.12,142.92 L740.12,140.16 L734.16,140.16 L734.16,137.12 L743.2,137.12 L743.2,142.92 C743.2,148.8 739.52,152.4 734.16,152.4 C728.8,152.4 725.12,148.8 725.12,142.92 L725.12,133.08 C725.12,127.2 728.8,123.6 734.16,123.6 Z M756.68,139.32 L752.24,139.32 L752.24,152 L749.16,152 L749.16,124 L758.68,124 C764.64,124 766.76,127.96 766.76,131.68 C766.76,135.08 765,138.6 760.2,139.24 L767.68,152 L764.12,152 L756.68,139.32 Z M763.64,131.68 C763.64,129 761.84,127.04 758.68,127.04 L752.24,127.04 L752.24,136.36 L758.68,136.36 C761.84,136.36 763.64,134.36 763.64,131.68 Z M776.24,139.36 L776.24,148.96 L789.08,148.96 L789.08,152 L773.16,152 L773.16,124 L789.08,124 L789.08,127.04 L776.24,127.04 L776.24,136.32 L786.28,136.32 L786.28,139.36 L776.24,139.36 Z M799.56,139.36 L799.56,148.96 L812.4,148.96 L812.4,152 L796.48,152 L796.48,124 L812.4,124 L812.4,127.04 L799.56,127.04 L799.56,136.32 L809.6,136.32 L809.6,139.36 L799.56,139.36 Z M836.4,124 L836.4,152 L833.32,152 L821.4,129.96 L821.4,152 L818.32,152 L818.32,124 L821.4,124 L833.32,146.04 L833.32,124 L836.4,124 Z M860.68,132.56 C860.68,137.52 858.12,141.12 851.64,141.12 L845.68,141.12 L845.68,152 L842.6,152 L842.6,124 L851.64,124 C858.12,124 860.68,127.6 860.68,132.56 Z M857.52,132.56 C857.52,129.52 855.96,127.04 851.64,127.04 L845.68,127.04 L845.68,138.08 L851.64,138.08 C855.96,138.08 857.52,135.6 857.52,132.56 Z M869.52,139.36 L869.52,148.96 L882.36,148.96 L882.36,152 L866.44,152 L866.44,124 L882.36,124 L882.36,127.04 L869.52,127.04 L869.52,136.32 L879.56,136.32 L879.56,139.36 L869.52,139.36 Z M904.96,152 L902.4,144.12 L892.24,144.12 L889.68,152 L886.56,152 L895.56,124 L899.08,124 L908.08,152 L904.96,152 Z M901.48,141.28 L897.32,128.28 L893.16,141.28 L901.48,141.28 Z M920.8,123.6 C925.92,123.6 929.48,126.88 929.8,132.28 L926.72,132.28 C926.4,128.56 923.92,126.64 920.8,126.64 C917.48,126.64 914.84,128.84 914.84,133.08 L914.84,142.92 C914.84,147.16 917.48,149.36 920.8,149.36 C923.92,149.36 926.4,147.44 926.72,143.72 L929.8,143.72 C929.48,149.12 925.92,152.4 920.8,152.4 C915.44,152.4 911.76,148.8 911.76,142.92 L911.76,133.08 C911.76,127.2 915.44,123.6 920.8,123.6 Z M939.48,139.36 L939.48,148.96 L952.32,148.96 L952.32,152 L936.4,152 L936.4,124 L952.32,124 L952.32,127.04 L939.48,127.04 L939.48,136.32 L949.52,136.32 L949.52,139.36 L939.48,139.36 Z M981.56,142.92 L981.56,124 L984.64,124 L984.64,142.92 C984.64,147.16 987.28,149.36 990.6,149.36 C993.92,149.36 996.56,147.16 996.56,142.92 L996.56,124 L999.64,124 L999.64,142.92 C999.64,148.8 995.96,152.4 990.6,152.4 C985.24,152.4 981.56,148.8 981.56,142.92 Z M1011.84,152 L1011.84,147.8 L1016.04,147.8 L1016.04,152 L1011.84,152 Z M1037.28,152.4 C1032.2,152.4 1028.6,149.08 1028.2,143.72 L1031.36,143.72 C1031.84,147.32 1034.28,149.36 1037.28,149.36 C1040.44,149.36 1042.64,147.88 1042.64,144.92 C1042.64,142.4 1041.28,140.88 1038.12,140 L1034.56,139 C1030.4,137.84 1028.68,134.44 1028.68,131.04 C1028.68,126.24 1032.48,123.6 1036.96,123.6 C1041.8,123.6 1044.8,126.32 1045.4,131.08 L1042.24,131.08 C1041.64,128.4 1039.96,126.64 1036.96,126.64 C1033.6,126.64 1031.8,128.6 1031.8,131.04 C1031.8,133.6 1033.08,135.2 1035.96,136 L1039.24,136.92 C1043.2,138.04 1045.76,140.48 1045.76,144.92 C1045.76,149.4 1042.88,152.4 1037.28,152.4 Z M1058.48,152 L1058.48,147.8 L1062.68,147.8 L1062.68,152 L1058.48,152 Z M1091.52,152 L1088.96,144.12 L1078.8,144.12 L1076.24,152 L1073.12,152 L1082.12,124 L1085.64,124 L1094.64,152 L1091.52,152 Z M1088.04,141.28 L1083.88,128.28 L1079.72,141.28 L1088.04,141.28 Z M1105.12,152 L1105.12,147.8 L1109.32,147.8 L1109.32,152 L1105.12,152 Z M9.6,168.04 L2.12,168.04 L2.12,165 L20.16,165 L20.16,168.04 L12.68,168.04 L12.68,193 L9.6,193 L9.6,168.04 Z M40.44,177.32 L40.44,165 L43.52,165 L43.52,193 L40.44,193 L40.44,180.36 L28.52,180.36 L28.52,193 L25.44,193 L25.44,165 L28.52,165 L28.52,177.32 L40.44,177.32 Z M53.32,180.36 L53.32,189.96 L66.16,189.96 L66.16,193 L50.24,193 L50.24,165 L66.16,165 L66.16,168.04 L53.32,168.04 L53.32,177.32 L63.36,177.32 L63.36,180.36 L53.32,180.36 Z M103.72,180.32 L99.28,180.32 L99.28,193 L96.2,193 L96.2,165 L105.72,165 C111.68,165 113.8,168.96 113.8,172.68 C113.8,176.08 112.04,179.6 107.24,180.24 L114.72,193 L111.16,193 L103.72,180.32 Z M110.68,172.68 C110.68,170 108.88,168.04 105.72,168.04 L99.28,168.04 L99.28,177.36 L105.72,177.36 C108.88,177.36 110.68,175.36 110.68,172.68 Z M118.72,183.92 L118.72,165 L121.8,165 L121.8,183.92 C121.8,188.16 124.44,190.36 127.76,190.36 C131.08,190.36 133.72,188.16 133.72,183.92 L133.72,165 L136.8,165 L136.8,183.92 C136.8,189.8 133.12,193.4 127.76,193.4 C122.4,193.4 118.72,189.8 118.72,183.92 Z M151.24,164.6 C156.36,164.6 159.92,167.88 160.24,173.28 L157.16,173.28 C156.84,169.56 154.36,167.64 151.24,167.64 C147.92,167.64 145.28,169.84 145.28,174.08 L145.28,183.92 C145.28,188.16 147.92,190.36 151.24,190.36 C154.36,190.36 156.84,188.44 157.16,184.72 L160.24,184.72 C159.92,190.12 156.36,193.4 151.24,193.4 C145.88,193.4 142.2,189.8 142.2,183.92 L142.2,174.08 C142.2,168.2 145.88,164.6 151.24,164.6 Z M168.2,184.76 L168.2,193 L165.12,193 L165.12,165 L168.2,165 L168.2,180.2 L181.12,165 L185.04,165 L175.2,176.52 L186.08,193 L182.44,193 L173.16,178.92 L168.2,184.76 Z M188.68,183.92 L188.68,165 L191.76,165 L191.76,183.92 C191.76,188.16 194.4,190.36 197.72,190.36 C201.04,190.36 203.68,188.16 203.68,183.92 L203.68,165 L206.76,165 L206.76,183.92 C206.76,189.8 203.08,193.4 197.72,193.4 C192.36,193.4 188.68,189.8 188.68,183.92 Z M221.08,193.4 C216,193.4 212.4,190.08 212,184.72 L215.16,184.72 C215.64,188.32 218.08,190.36 221.08,190.36 C224.24,190.36 226.44,188.88 226.44,185.92 C226.44,183.4 225.08,181.88 221.92,181 L218.36,180 C214.2,178.84 212.48,175.44 212.48,172.04 C212.48,167.24 216.28,164.6 220.76,164.6 C225.6,164.6 228.6,167.32 229.2,172.08 L226.04,172.08 C225.44,169.4 223.76,167.64 220.76,167.64 C217.4,167.64 215.6,169.6 215.6,172.04 C215.6,174.6 216.88,176.2 219.76,177 L223.04,177.92 C227,179.04 229.56,181.48 229.56,185.92 C229.56,190.4 226.68,193.4 221.08,193.4 Z M267.72,193.4 C262.64,193.4 259.04,190.08 258.64,184.72 L261.8,184.72 C262.28,188.32 264.72,190.36 267.72,190.36 C270.88,190.36 273.08,188.88 273.08,185.92 C273.08,183.4 271.72,181.88 268.56,181 L265,180 C260.84,178.84 259.12,175.44 259.12,172.04 C259.12,167.24 262.92,164.6 267.4,164.6 C272.24,164.6 275.24,167.32 275.84,172.08 L272.68,172.08 C272.08,169.4 270.4,167.64 267.4,167.64 C264.04,167.64 262.24,169.6 262.24,172.04 C262.24,174.6 263.52,176.2 266.4,177 L269.68,177.92 C273.64,179.04 276.2,181.48 276.2,185.92 C276.2,190.4 273.32,193.4 267.72,193.4 Z M296.96,183.92 L296.96,174.08 C296.96,169.84 294.32,167.64 291,167.64 C287.68,167.64 285.04,169.84 285.04,174.08 L285.04,183.92 C285.04,188.16 287.68,190.36 291,190.36 C294.32,190.36 296.96,188.16 296.96,183.92 Z M300.04,174.08 L300.04,183.92 C300.04,189.8 296.36,193.4 291,193.4 C285.64,193.4 281.96,189.8 281.96,183.92 L281.96,174.08 C281.96,168.2 285.64,164.6 291,164.6 C296.36,164.6 300.04,168.2 300.04,174.08 Z M314.48,164.6 C319.6,164.6 323.16,167.88 323.48,173.28 L320.4,173.28 C320.08,169.56 317.6,167.64 314.48,167.64 C311.16,167.64 308.52,169.84 308.52,174.08 L308.52,183.92 C308.52,188.16 311.16,190.36 314.48,190.36 C317.6,190.36 320.08,188.44 320.4,184.72 L323.48,184.72 C323.16,190.12 319.6,193.4 314.48,193.4 C309.12,193.4 305.44,189.8 305.44,183.92 L305.44,174.08 C305.44,168.2 309.12,164.6 314.48,164.6 Z M345.64,168.04 L339.2,168.04 L339.2,189.96 L345.64,189.96 L345.64,193 L329.68,193 L329.68,189.96 L336.12,189.96 L336.12,168.04 L329.68,168.04 L329.68,165 L345.64,165 L345.64,168.04 Z M356.48,180.36 L356.48,189.96 L369.32,189.96 L369.32,193 L353.4,193 L353.4,165 L369.32,165 L369.32,168.04 L356.48,168.04 L356.48,177.32 L366.52,177.32 L366.52,180.36 L356.48,180.36 Z M382.72,168.04 L375.24,168.04 L375.24,165 L393.28,165 L393.28,168.04 L385.8,168.04 L385.8,193 L382.72,193 L382.72,168.04 Z M409.16,181.88 L409.16,193 L406.08,193 L406.08,181.84 L396.84,165 L400.2,165 L407.64,178.56 L415.04,165 L418.4,165 L409.16,181.88 Z M454.28,193.4 C449.2,193.4 445.6,190.08 445.2,184.72 L448.36,184.72 C448.84,188.32 451.28,190.36 454.28,190.36 C457.44,190.36 459.64,188.88 459.64,185.92 C459.64,183.4 458.28,181.88 455.12,181 L451.56,180 C447.4,178.84 445.68,175.44 445.68,172.04 C445.68,167.24 449.48,164.6 453.96,164.6 C458.8,164.6 461.8,167.32 462.4,172.08 L459.24,172.08 C458.64,169.4 456.96,167.64 453.96,167.64 C450.6,167.64 448.8,169.6 448.8,172.04 C448.8,174.6 450.08,176.2 452.96,177 L456.24,177.92 C460.2,179.04 462.76,181.48 462.76,185.92 C462.76,190.4 459.88,193.4 454.28,193.4 Z M476,168.04 L468.52,168.04 L468.52,165 L486.56,165 L486.56,168.04 L479.08,168.04 L479.08,193 L476,193 L476,168.04 Z M508.52,193 L505.96,185.12 L495.8,185.12 L493.24,193 L490.12,193 L499.12,165 L502.64,165 L511.64,193 L508.52,193 Z M505.04,182.28 L500.88,169.28 L496.72,182.28 L505.04,182.28 Z M533.24,165 L533.24,193 L530.16,193 L518.24,170.96 L518.24,193 L515.16,193 L515.16,165 L518.24,165 L530.16,187.04 L530.16,165 L533.24,165 Z M538.64,165 L547.68,165 C553.04,165 556.72,168.6 556.72,174.48 L556.72,183.52 C556.72,189.4 553.04,193 547.68,193 L538.64,193 L538.64,165 Z M547.68,168.04 L541.72,168.04 L541.72,189.96 L547.68,189.96 C551,189.96 553.64,187.76 553.64,183.52 L553.64,174.48 C553.64,170.24 551,168.08 547.68,168.04 Z M578.84,168.04 L572.4,168.04 L572.4,189.96 L578.84,189.96 L578.84,193 L562.88,193 L562.88,189.96 L569.32,189.96 L569.32,168.04 L562.88,168.04 L562.88,165 L578.84,165 L578.84,168.04 Z M603.2,165 L603.2,193 L600.12,193 L588.2,170.96 L588.2,193 L585.12,193 L585.12,165 L588.2,165 L600.12,187.04 L600.12,165 L603.2,165 Z M617.56,164.6 C622.68,164.6 626.24,167.88 626.56,173.28 L623.48,173.28 C623.16,169.56 620.68,167.64 617.56,167.64 C614.24,167.64 611.6,169.84 611.6,174.08 L611.6,183.92 C611.6,188.16 614.24,190.36 617.56,190.36 C620.88,190.36 623.52,188.16 623.52,183.92 L623.52,181.16 L617.56,181.16 L617.56,178.12 L626.6,178.12 L626.6,183.92 C626.6,189.8 622.92,193.4 617.56,193.4 C612.2,193.4 608.52,189.8 608.52,183.92 L608.52,174.08 C608.52,168.2 612.2,164.6 617.56,164.6 Z M663.4,180.32 L658.96,180.32 L658.96,193 L655.88,193 L655.88,165 L665.4,165 C671.36,165 673.48,168.96 673.48,172.68 C673.48,176.08 671.72,179.6 666.92,180.24 L674.4,193 L670.84,193 L663.4,180.32 Z M670.36,172.68 C670.36,170 668.56,168.04 665.4,168.04 L658.96,168.04 L658.96,177.36 L665.4,177.36 C668.56,177.36 670.36,175.36 670.36,172.68 Z M693.4,183.92 L693.4,174.08 C693.4,169.84 690.76,167.64 687.44,167.64 C684.12,167.64 681.48,169.84 681.48,174.08 L681.48,183.92 C681.48,188.16 684.12,190.36 687.44,190.36 C690.76,190.36 693.4,188.16 693.4,183.92 Z M696.48,174.08 L696.48,183.92 C696.48,189.8 692.8,193.4 687.44,193.4 C682.08,193.4 678.4,189.8 678.4,183.92 L678.4,174.08 C678.4,168.2 682.08,164.6 687.44,164.6 C692.8,164.6 696.48,168.2 696.48,174.08 Z M710.92,164.6 C716.04,164.6 719.6,167.88 719.92,173.28 L716.84,173.28 C716.52,169.56 714.04,167.64 710.92,167.64 C707.6,167.64 704.96,169.84 704.96,174.08 L704.96,183.92 C704.96,188.16 707.6,190.36 710.92,190.36 C714.04,190.36 716.52,188.44 716.84,184.72 L719.92,184.72 C719.6,190.12 716.04,193.4 710.92,193.4 C705.56,193.4 701.88,189.8 701.88,183.92 L701.88,174.08 C701.88,168.2 705.56,164.6 710.92,164.6 Z M727.88,184.76 L727.88,193 L724.8,193 L724.8,165 L727.88,165 L727.88,180.2 L740.8,165 L744.72,165 L734.88,176.52 L745.76,193 L742.12,193 L732.84,178.92 L727.88,184.76 Z M780.88,164.6 C786,164.6 789.56,167.88 789.88,173.28 L786.8,173.28 C786.48,169.56 784,167.64 780.88,167.64 C777.56,167.64 774.92,169.84 774.92,174.08 L774.92,183.92 C774.92,188.16 777.56,190.36 780.88,190.36 C784,190.36 786.48,188.44 786.8,184.72 L789.88,184.72 C789.56,190.12 786,193.4 780.88,193.4 C775.52,193.4 771.84,189.8 771.84,183.92 L771.84,174.08 C771.84,168.2 775.52,164.6 780.88,164.6 Z M795.16,165 L804.2,165 C809.56,165 813.24,168.6 813.24,174.48 L813.24,183.52 C813.24,189.4 809.56,193 804.2,193 L795.16,193 L795.16,165 Z M804.2,168.04 L798.24,168.04 L798.24,189.96 L804.2,189.96 C807.52,189.96 810.16,187.76 810.16,183.52 L810.16,174.48 C810.16,170.24 807.52,168.08 804.2,168.04 Z M827.52,164.6 C832.64,164.6 836.2,167.88 836.52,173.28 L833.44,173.28 C833.12,169.56 830.64,167.64 827.52,167.64 C824.2,167.64 821.56,169.84 821.56,174.08 L821.56,183.92 C821.56,188.16 824.2,190.36 827.52,190.36 C830.64,190.36 833.12,188.44 833.44,184.72 L836.52,184.72 C836.2,190.12 832.64,193.4 827.52,193.4 C822.16,193.4 818.48,189.8 818.48,183.92 L818.48,174.08 C818.48,168.2 822.16,164.6 827.52,164.6 Z M874,182.04 L879.88,165 L883.04,165 L883.04,193 L880.08,193 L880.08,172.16 L875.56,185.48 L872.44,185.48 L867.92,172.16 L867.92,193 L864.96,193 L864.96,165 L868.12,165 L874,182.04 Z M905.32,168.04 L898.88,168.04 L898.88,189.96 L905.32,189.96 L905.32,193 L889.36,193 L889.36,189.96 L895.8,189.96 L895.8,168.04 L889.36,168.04 L889.36,165 L905.32,165 L905.32,168.04 Z M928.28,193 L925.72,185.12 L915.56,185.12 L913,193 L909.88,193 L918.88,165 L922.4,165 L931.4,193 L928.28,193 Z M924.8,182.28 L920.64,169.28 L916.48,182.28 L924.8,182.28 Z M943.96,182.04 L949.84,165 L953,165 L953,193 L950.04,193 L950.04,172.16 L945.52,185.48 L942.4,185.48 L937.88,172.16 L937.88,193 L934.92,193 L934.92,165 L938.08,165 L943.96,182.04 Z M975.28,168.04 L968.84,168.04 L968.84,189.96 L975.28,189.96 L975.28,193 L959.32,193 L959.32,189.96 L965.76,189.96 L965.76,168.04 L959.32,168.04 L959.32,165 L975.28,165 L975.28,168.04 Z M1014.08,164.6 C1019.2,164.6 1022.76,167.88 1023.08,173.28 L1020,173.28 C1019.68,169.56 1017.2,167.64 1014.08,167.64 C1010.76,167.64 1008.12,169.84 1008.12,174.08 L1008.12,183.92 C1008.12,188.16 1010.76,190.36 1014.08,190.36 C1017.2,190.36 1019.68,188.44 1020,184.72 L1023.08,184.72 C1022.76,190.12 1019.2,193.4 1014.08,193.4 C1008.72,193.4 1005.04,189.8 1005.04,183.92 L1005.04,174.08 C1005.04,168.2 1008.72,164.6 1014.08,164.6 Z M1029.96,193 L1029.96,165 L1033.04,165 L1033.04,189.96 L1045.88,189.96 L1045.88,193 L1029.96,193 Z M1068.56,168.04 L1062.12,168.04 L1062.12,189.96 L1068.56,189.96 L1068.56,193 L1052.6,193 L1052.6,189.96 L1059.04,189.96 L1059.04,168.04 L1052.6,168.04 L1052.6,165 L1068.56,165 L1068.56,168.04 Z M1083.88,182.04 L1089.76,165 L1092.92,165 L1092.92,193 L1089.96,193 L1089.96,172.16 L1085.44,185.48 L1082.32,185.48 L1077.8,172.16 L1077.8,193 L1074.84,193 L1074.84,165 L1078,165 L1083.88,182.04 Z M1114.84,193 L1112.28,185.12 L1102.12,185.12 L1099.56,193 L1096.44,193 L1105.44,165 L1108.96,165 L1117.96,193 L1114.84,193 Z M1111.36,182.28 L1107.2,169.28 L1103.04,182.28 L1111.36,182.28 Z M1128.96,168.04 L1121.48,168.04 L1121.48,165 L1139.52,165 L1139.52,168.04 L1132.04,168.04 L1132.04,193 L1128.96,193 L1128.96,168.04 Z M1149.36,180.36 L1149.36,189.96 L1162.2,189.96 L1162.2,193 L1146.28,193 L1146.28,165 L1162.2,165 L1162.2,168.04 L1149.36,168.04 L1149.36,177.32 L1159.4,177.32 L1159.4,180.36 L1149.36,180.36 Z M18.8,234 L16.24,226.12 L6.08,226.12 L3.52,234 L0.4,234 L9.4,206 L12.92,206 L21.92,234 L18.8,234 Z M15.32,223.28 L11.16,210.28 L7,223.28 L15.32,223.28 Z M27.2,234 L27.2,206 L30.28,206 L30.28,230.96 L43.12,230.96 L43.12,234 L27.2,234 Z M50.52,234 L50.52,206 L53.6,206 L53.6,230.96 L66.44,230.96 L66.44,234 L50.52,234 Z M89.12,209.04 L82.68,209.04 L82.68,230.96 L89.12,230.96 L89.12,234 L73.16,234 L73.16,230.96 L79.6,230.96 L79.6,209.04 L73.16,209.04 L73.16,206 L89.12,206 L89.12,209.04 Z M112.08,234 L109.52,226.12 L99.36,226.12 L96.8,234 L93.68,234 L102.68,206 L106.2,206 L115.2,234 L112.08,234 Z M108.6,223.28 L104.44,210.28 L100.28,223.28 L108.6,223.28 Z M136.8,206 L136.8,234 L133.72,234 L121.8,211.96 L121.8,234 L118.72,234 L118.72,206 L121.8,206 L133.72,228.04 L133.72,206 L136.8,206 Z M151.24,205.6 C156.36,205.6 159.92,208.88 160.24,214.28 L157.16,214.28 C156.84,210.56 154.36,208.64 151.24,208.64 C147.92,208.64 145.28,210.84 145.28,215.08 L145.28,224.92 C145.28,229.16 147.92,231.36 151.24,231.36 C154.36,231.36 156.84,229.44 157.16,225.72 L160.24,225.72 C159.92,231.12 156.36,234.4 151.24,234.4 C145.88,234.4 142.2,230.8 142.2,224.92 L142.2,215.08 C142.2,209.2 145.88,205.6 151.24,205.6 Z M169.92,221.36 L169.92,230.96 L182.76,230.96 L182.76,234 L166.84,234 L166.84,206 L182.76,206 L182.76,209.04 L169.92,209.04 L169.92,218.32 L179.96,218.32 L179.96,221.36 L169.92,221.36 Z M221.08,234.4 C216,234.4 212.4,231.08 212,225.72 L215.16,225.72 C215.64,229.32 218.08,231.36 221.08,231.36 C224.24,231.36 226.44,229.88 226.44,226.92 C226.44,224.4 225.08,222.88 221.92,222 L218.36,221 C214.2,219.84 212.48,216.44 212.48,213.04 C212.48,208.24 216.28,205.6 220.76,205.6 C225.6,205.6 228.6,208.32 229.2,213.08 L226.04,213.08 C225.44,210.4 223.76,208.64 220.76,208.64 C217.4,208.64 215.6,210.6 215.6,213.04 C215.6,215.6 216.88,217.2 219.76,218 L223.04,218.92 C227,220.04 229.56,222.48 229.56,226.92 C229.56,231.4 226.68,234.4 221.08,234.4 Z M250.32,224.92 L250.32,215.08 C250.32,210.84 247.68,208.64 244.36,208.64 C241.04,208.64 238.4,210.84 238.4,215.08 L238.4,224.92 C238.4,229.16 241.04,231.36 244.36,231.36 C247.68,231.36 250.32,229.16 250.32,224.92 Z M253.4,215.08 L253.4,224.92 C253.4,230.8 249.72,234.4 244.36,234.4 C239,234.4 235.32,230.8 235.32,224.92 L235.32,215.08 C235.32,209.2 239,205.6 244.36,205.6 C249.72,205.6 253.4,209.2 253.4,215.08 Z M267.84,205.6 C272.96,205.6 276.52,208.88 276.84,214.28 L273.76,214.28 C273.44,210.56 270.96,208.64 267.84,208.64 C264.52,208.64 261.88,210.84 261.88,215.08 L261.88,224.92 C261.88,229.16 264.52,231.36 267.84,231.36 C270.96,231.36 273.44,229.44 273.76,225.72 L276.84,225.72 C276.52,231.12 272.96,234.4 267.84,234.4 C262.48,234.4 258.8,230.8 258.8,224.92 L258.8,215.08 C258.8,209.2 262.48,205.6 267.84,205.6 Z M299,209.04 L292.56,209.04 L292.56,230.96 L299,230.96 L299,234 L283.04,234 L283.04,230.96 L289.48,230.96 L289.48,209.04 L283.04,209.04 L283.04,206 L299,206 L299,209.04 Z M321.96,234 L319.4,226.12 L309.24,226.12 L306.68,234 L303.56,234 L312.56,206 L316.08,206 L325.08,234 L321.96,234 Z M318.48,223.28 L314.32,210.28 L310.16,223.28 L318.48,223.28 Z M330.36,234 L330.36,206 L333.44,206 L333.44,230.96 L346.28,230.96 L346.28,234 L330.36,234 Z M384.32,234.4 C379.24,234.4 375.64,231.08 375.24,225.72 L378.4,225.72 C378.88,229.32 381.32,231.36 384.32,231.36 C387.48,231.36 389.68,229.88 389.68,226.92 C389.68,224.4 388.32,222.88 385.16,222 L381.6,221 C377.44,219.84 375.72,216.44 375.72,213.04 C375.72,208.24 379.52,205.6 384,205.6 C388.84,205.6 391.84,208.32 392.44,213.08 L389.28,213.08 C388.68,210.4 387,208.64 384,208.64 C380.64,208.64 378.84,210.6 378.84,213.04 C378.84,215.6 380.12,217.2 383,218 L386.28,218.92 C390.24,220.04 392.8,222.48 392.8,226.92 C392.8,231.4 389.92,234.4 384.32,234.4 Z M403.12,221.36 L403.12,230.96 L415.96,230.96 L415.96,234 L400.04,234 L400.04,206 L415.96,206 L415.96,209.04 L403.12,209.04 L403.12,218.32 L413.16,218.32 L413.16,221.36 L403.12,221.36 Z M431.08,205.6 C436.2,205.6 439.76,208.88 440.08,214.28 L437,214.28 C436.68,210.56 434.2,208.64 431.08,208.64 C427.76,208.64 425.12,210.84 425.12,215.08 L425.12,224.92 C425.12,229.16 427.76,231.36 431.08,231.36 C434.2,231.36 436.68,229.44 437,225.72 L440.08,225.72 C439.76,231.12 436.2,234.4 431.08,234.4 C425.72,234.4 422.04,230.8 422.04,224.92 L422.04,215.08 C422.04,209.2 425.72,205.6 431.08,205.6 Z M445.2,224.92 L445.2,206 L448.28,206 L448.28,224.92 C448.28,229.16 450.92,231.36 454.24,231.36 C457.56,231.36 460.2,229.16 460.2,224.92 L460.2,206 L463.28,206 L463.28,224.92 C463.28,230.8 459.6,234.4 454.24,234.4 C448.88,234.4 445.2,230.8 445.2,224.92 Z M476.84,221.32 L472.4,221.32 L472.4,234 L469.32,234 L469.32,206 L478.84,206 C484.8,206 486.92,209.96 486.92,213.68 C486.92,217.08 485.16,220.6 480.36,221.24 L487.84,234 L484.28,234 L476.84,221.32 Z M483.8,213.68 C483.8,211 482,209.04 478.84,209.04 L472.4,209.04 L472.4,218.36 L478.84,218.36 C482,218.36 483.8,216.36 483.8,213.68 Z M508.88,209.04 L502.44,209.04 L502.44,230.96 L508.88,230.96 L508.88,234 L492.92,234 L492.92,230.96 L499.36,230.96 L499.36,209.04 L492.92,209.04 L492.92,206 L508.88,206 L508.88,209.04 Z M522.64,209.04 L515.16,209.04 L515.16,206 L533.2,206 L533.2,209.04 L525.72,209.04 L525.72,234 L522.64,234 L522.64,209.04 Z M549.08,222.88 L549.08,234 L546,234 L546,222.84 L536.76,206 L540.12,206 L547.56,219.56 L554.96,206 L558.32,206 L549.08,222.88 Z M595.4,210 L599.32,227.44 L602.12,206 L605.12,206 L601.12,234 L598.36,234 L594.16,215.92 L589.96,234 L587.2,234 L583.2,206 L586.2,206 L589,227.44 L592.92,210 L595.4,210 Z M623.44,224.92 L623.44,215.08 C623.44,210.84 620.8,208.64 617.48,208.64 C614.16,208.64 611.52,210.84 611.52,215.08 L611.52,224.92 C611.52,229.16 614.16,231.36 617.48,231.36 C620.8,231.36 623.44,229.16 623.44,224.92 Z M626.52,215.08 L626.52,224.92 C626.52,230.8 622.84,234.4 617.48,234.4 C612.12,234.4 608.44,230.8 608.44,224.92 L608.44,215.08 C608.44,209.2 612.12,205.6 617.48,205.6 C622.84,205.6 626.52,209.2 626.52,215.08 Z M640.08,221.32 L635.64,221.32 L635.64,234 L632.56,234 L632.56,206 L642.08,206 C648.04,206 650.16,209.96 650.16,213.68 C650.16,217.08 648.4,220.6 643.6,221.24 L651.08,234 L647.52,234 L640.08,221.32 Z M647.04,213.68 C647.04,211 645.24,209.04 642.08,209.04 L635.64,209.04 L635.64,218.36 L642.08,218.36 C645.24,218.36 647.04,216.36 647.04,213.68 Z M657.92,225.76 L657.92,234 L654.84,234 L654.84,206 L657.92,206 L657.92,221.2 L670.84,206 L674.76,206 L664.92,217.52 L675.8,234 L672.16,234 L662.88,219.92 L657.92,225.76 Z M687.48,234.4 C682.4,234.4 678.8,231.08 678.4,225.72 L681.56,225.72 C682.04,229.32 684.48,231.36 687.48,231.36 C690.64,231.36 692.84,229.88 692.84,226.92 C692.84,224.4 691.48,222.88 688.32,222 L684.76,221 C680.6,219.84 678.88,216.44 678.88,213.04 C678.88,208.24 682.68,205.6 687.16,205.6 C692,205.6 695,208.32 695.6,213.08 L692.44,213.08 C691.84,210.4 690.16,208.64 687.16,208.64 C683.8,208.64 682,210.6 682,213.04 C682,215.6 683.28,217.2 686.16,218 L689.44,218.92 C693.4,220.04 695.96,222.48 695.96,226.92 C695.96,231.4 693.08,234.4 687.48,234.4 Z M741.72,234 L739.16,226.12 L729,226.12 L726.44,234 L723.32,234 L732.32,206 L735.84,206 L744.84,234 L741.72,234 Z M738.24,223.28 L734.08,210.28 L729.92,223.28 L738.24,223.28 Z M748.84,234 L748.84,206 L758.16,206 C764.12,206 766.24,209.96 766.24,213.68 C766.24,216.4 764.96,218.56 763.16,219.68 C765.72,220.96 766.92,223.6 766.92,226.16 C766.92,230.04 764.84,234 758.84,234 L748.84,234 Z M758.84,221.36 L751.92,221.36 L751.92,230.96 L758.84,230.96 C761.88,230.96 763.8,229.16 763.8,226.16 C763.8,223.16 761.88,221.36 758.84,221.36 Z M763.12,213.68 C763.12,211 761.32,209.04 758.16,209.04 L751.92,209.04 L751.92,218.32 L758.16,218.32 C761.32,218.32 763.12,216.36 763.12,213.68 Z M786.68,224.92 L786.68,215.08 C786.68,210.84 784.04,208.64 780.72,208.64 C777.4,208.64 774.76,210.84 774.76,215.08 L774.76,224.92 C774.76,229.16 777.4,231.36 780.72,231.36 C784.04,231.36 786.68,229.16 786.68,224.92 Z M789.76,215.08 L789.76,224.92 C789.76,230.8 786.08,234.4 780.72,234.4 C775.36,234.4 771.68,230.8 771.68,224.92 L771.68,215.08 C771.68,209.2 775.36,205.6 780.72,205.6 C786.08,205.6 789.76,209.2 789.76,215.08 Z M795,224.92 L795,206 L798.08,206 L798.08,224.92 C798.08,229.16 800.72,231.36 804.04,231.36 C807.36,231.36 810,229.16 810,224.92 L810,206 L813.08,206 L813.08,224.92 C813.08,230.8 809.4,234.4 804.04,234.4 C798.68,234.4 795,230.8 795,224.92 Z M825.8,209.04 L818.32,209.04 L818.32,206 L836.36,206 L836.36,209.04 L828.88,209.04 L828.88,234 L825.8,234 L825.8,209.04 Z M870.24,221.36 L870.24,234 L867.16,234 L867.16,206 L883.08,206 L883.08,209.04 L870.24,209.04 L870.24,218.32 L880.28,218.32 L880.28,221.36 L870.24,221.36 Z M904.96,234 L902.4,226.12 L892.24,226.12 L889.68,234 L886.56,234 L895.56,206 L899.08,206 L908.08,234 L904.96,234 Z M901.48,223.28 L897.32,210.28 L893.16,223.28 L901.48,223.28 Z M920.8,205.6 C925.92,205.6 929.48,208.88 929.8,214.28 L926.72,214.28 C926.4,210.56 923.92,208.64 920.8,208.64 C917.48,208.64 914.84,210.84 914.84,215.08 L914.84,224.92 C914.84,229.16 917.48,231.36 920.8,231.36 C923.92,231.36 926.4,229.44 926.72,225.72 L929.8,225.72 C929.48,231.12 925.92,234.4 920.8,234.4 C915.44,234.4 911.76,230.8 911.76,224.92 L911.76,215.08 C911.76,209.2 915.44,205.6 920.8,205.6 Z M939.48,221.36 L939.48,230.96 L952.32,230.96 L952.32,234 L936.4,234 L936.4,206 L952.32,206 L952.32,209.04 L939.48,209.04 L939.48,218.32 L949.52,218.32 L949.52,221.36 L939.48,221.36 Z M990.6,229.72 L998.24,206 L1001.36,206 L992.36,234 L988.84,234 L979.84,206 L982.96,206 L990.6,229.72 Z M1009.44,221.36 L1009.44,230.96 L1022.28,230.96 L1022.28,234 L1006.36,234 L1006.36,206 L1022.28,206 L1022.28,209.04 L1009.44,209.04 L1009.44,218.32 L1019.48,218.32 L1019.48,221.36 L1009.44,221.36 Z M1035.68,209.04 L1028.2,209.04 L1028.2,206 L1046.24,206 L1046.24,209.04 L1038.76,209.04 L1038.76,234 L1035.68,234 L1035.68,209.04 Z M1056.08,221.36 L1056.08,230.96 L1068.92,230.96 L1068.92,234 L1053,234 L1053,206 L1068.92,206 L1068.92,209.04 L1056.08,209.04 L1056.08,218.32 L1066.12,218.32 L1066.12,221.36 L1056.08,221.36 Z M1083.16,221.32 L1078.72,221.32 L1078.72,234 L1075.64,234 L1075.64,206 L1085.16,206 C1091.12,206 1093.24,209.96 1093.24,213.68 C1093.24,217.08 1091.48,220.6 1086.68,221.24 L1094.16,234 L1090.6,234 L1083.16,221.32 Z M1090.12,213.68 C1090.12,211 1088.32,209.04 1085.16,209.04 L1078.72,209.04 L1078.72,218.36 L1085.16,218.36 C1088.32,218.36 1090.12,216.36 1090.12,213.68 Z M1114.84,234 L1112.28,226.12 L1102.12,226.12 L1099.56,234 L1096.44,234 L1105.44,206 L1108.96,206 L1117.96,234 L1114.84,234 Z M1111.36,223.28 L1107.2,210.28 L1103.04,223.28 L1111.36,223.28 Z M1139.56,206 L1139.56,234 L1136.48,234 L1124.56,211.96 L1124.56,234 L1121.48,234 L1121.48,206 L1124.56,206 L1136.48,228.04 L1136.48,206 L1139.56,206 Z M1153.88,234.4 C1148.8,234.4 1145.2,231.08 1144.8,225.72 L1147.96,225.72 C1148.44,229.32 1150.88,231.36 1153.88,231.36 C1157.04,231.36 1159.24,229.88 1159.24,226.92 C1159.24,224.4 1157.88,222.88 1154.72,222 L1151.16,221 C1147,219.84 1145.28,216.44 1145.28,213.04 C1145.28,208.24 1149.08,205.6 1153.56,205.6 C1158.4,205.6 1161.4,208.32 1162,213.08 L1158.84,213.08 C1158.24,210.4 1156.56,208.64 1153.56,208.64 C1150.2,208.64 1148.4,210.6 1148.4,213.04 C1148.4,215.6 1149.68,217.2 1152.56,218 L1155.84,218.92 C1159.8,220.04 1162.36,222.48 1162.36,226.92 C1162.36,231.4 1159.48,234.4 1153.88,234.4 Z" id="DREAM-DEFENDERS-WATE" fill="#43FFB0"></path>
    </g>
</svg>