<?xml version="1.0" encoding="UTF-8"?>
<svg width="410px" height="140px" viewBox="0 0 410 140" version="1.1" xmlns="http://www.w3.org/2000/svg" xmlns:xlink="http://www.w3.org/1999/xlink">
    <!-- Generator: Sketch Beta 52 (66463) - http://www.bohemiancoding.com/sketch -->
    <title>Clipped</title>
    <desc>Created with Sketch Beta.</desc>
    <g id="Page-1" stroke="none" stroke-width="1" fill="none" fill-rule="evenodd">
        <g id="3-03" transform="translate(-828.000000, -91.000000)" fill="#A0A0A0">
            <g id="Clipped" transform="translate(796.000000, 0.000000)">
                <g id="Group" transform="translate(236.500000, 167.000000) rotate(-15.000000) translate(-236.500000, -167.000000) translate(23.000000, 52.000000)">
                    <g transform="translate(0.000000, 98.000000)" id="Path">
                        <path d="M54.5,19.5 C67.1,22.9 72.4,28.8 77.5,34.4 C82.6,40.1 87.5,45.4 99.5,48.7 C111.5,52 118.4,49.8 125.7,47.5 C132.9,45.2 140.4,42.9 153,46.3 C165.6,49.7 170.9,55.6 176,61.2 C181.1,66.9 186,72.2 198,75.5 C210,78.8 216.9,76.6 224.2,74.3 C231.4,72 238.9,69.7 251.5,73.1 C264.1,76.5 269.4,82.4 274.5,88 C279.6,93.7 284.5,99 296.5,102.3 C308.5,105.6 315.4,103.4 322.7,101.1 C329.9,98.8 337.4,96.5 350,99.9 C362.6,103.3 367.9,109.2 373,114.8 C378.1,120.5 383,125.8 395,129.1 L394.5,131.1 C381.9,127.7 376.6,121.8 371.5,116.2 C366.4,110.5 361.5,105.2 349.5,101.9 C337.5,98.6 330.6,100.8 323.3,103.1 C316.1,105.4 308.6,107.7 296,104.3 C283.4,100.9 278.1,95 273,89.4 C267.9,83.7 263,78.4 251,75.1 C239,71.8 232.1,74 224.8,76.3 C217.6,78.6 210.1,80.9 197.5,77.5 C184.9,74.1 179.6,68.2 174.5,62.6 C169.4,56.9 164.5,51.6 152.5,48.3 C140.5,45 133.6,47.2 126.3,49.5 C119.1,51.8 111.6,54.1 99,50.7 C86.4,47.3 81.1,41.4 76,35.8 C70.9,30.1 66,24.8 54,21.5 C42,18.2 35.1,20.4 27.8,22.7 C20.5,25 13.1,27.3 0.5,23.9 L1,21.9 C13,25.2 19.9,23 27.2,20.7 C34.4,18.5 41.9,16.1 54.5,19.5 Z"></path>
                        <path d="M59.3,1.8 C71.9,5.2 77.2,11.1 82.3,16.7 C87.4,22.4 92.3,27.7 104.3,31 C116.3,34.3 123.2,32.1 130.5,29.8 C137.7,27.5 145.2,25.2 157.8,28.6 C170.4,32 175.7,37.9 180.8,43.5 C185.9,49.2 190.8,54.5 202.8,57.8 C214.8,61.1 221.7,58.9 229,56.6 C236.2,54.3 243.7,52 256.3,55.4 C268.9,58.8 274.2,64.7 279.3,70.3 C284.4,76 289.3,81.3 301.3,84.6 C313.3,87.9 320.2,85.7 327.5,83.4 C334.7,81.1 342.2,78.8 354.8,82.2 C367.4,85.6 372.7,91.5 377.8,97.1 C382.9,102.8 387.8,108.1 399.8,111.4 L399.3,113.4 C386.7,110 381.4,104.1 376.3,98.5 C371.2,92.8 366.3,87.5 354.3,84.2 C342.3,80.9 335.4,83.1 328.1,85.4 C320.9,87.7 313.4,90 300.8,86.6 C288.2,83.2 282.9,77.3 277.8,71.7 C272.7,66 267.8,60.7 255.8,57.4 C243.8,54.1 236.9,56.3 229.6,58.6 C222.4,60.9 214.9,63.2 202.3,59.8 C189.7,56.4 184.4,50.5 179.3,44.9 C174.2,39.2 169.3,33.9 157.3,30.6 C145.3,27.3 138.4,29.5 131.1,31.8 C123.9,34.1 116.4,36.4 103.8,33 C91.2,29.6 85.9,23.7 80.8,18.1 C75.7,12.4 70.8,7.1 58.8,3.8 C46.8,0.5 39.9,2.7 32.6,5 C25.3,7.3 17.9,9.6 5.3,6.2 L5.8,4.2 C17.8,7.5 24.7,5.3 32,3 C39.2,0.7 46.7,-1.7 59.3,1.8 Z"></path>
                    </g>
                    <g transform="translate(9.000000, 65.000000)" id="Path">
                        <path d="M54.3,20 C66.9,23.4 72.2,29.3 77.3,34.9 C82.4,40.6 87.3,45.9 99.3,49.2 C111.3,52.5 118.2,50.3 125.5,48 C132.7,45.7 140.2,43.4 152.8,46.8 C165.4,50.2 170.7,56.1 175.8,61.7 C180.9,67.4 185.8,72.7 197.8,76 C209.8,79.3 216.7,77.1 224,74.8 C231.2,72.5 238.7,70.2 251.3,73.6 C263.9,77 269.2,82.9 274.3,88.5 C279.4,94.2 284.3,99.5 296.3,102.8 C308.3,106.1 315.2,103.9 322.5,101.6 C329.7,99.3 337.2,97 349.8,100.4 C362.4,103.8 367.7,109.7 372.8,115.3 C377.9,121 382.8,126.3 394.8,129.6 L394.3,131.6 C381.7,128.2 376.4,122.3 371.3,116.7 C366.2,111 361.3,105.7 349.3,102.4 C337.3,99.1 330.4,101.3 323.1,103.6 C315.9,105.9 308.4,108.2 295.8,104.8 C283.2,101.4 277.9,95.5 272.8,89.9 C267.7,84.2 262.8,78.9 250.8,75.6 C238.8,72.3 231.9,74.5 224.6,76.8 C217.4,79.1 209.9,81.4 197.3,78 C184.7,74.6 179.4,68.7 174.3,63.1 C169.2,57.4 164.3,52.1 152.3,48.8 C140.3,45.5 133.4,47.7 126.1,50 C118.9,52.3 111.4,54.6 98.8,51.2 C86.2,47.8 80.9,41.9 75.8,36.3 C70.7,30.6 65.8,25.3 53.8,22 C41.8,18.7 34.9,20.9 27.6,23.2 C20.3,25.5 12.9,27.8 0.3,24.4 L0.8,22.4 C12.8,25.7 19.7,23.5 27,21.2 C34.2,18.9 41.7,16.6 54.3,20 Z"></path>
                        <path d="M59.2,2.2 C71.8,5.6 77.1,11.5 82.2,17.1 C87.3,22.8 92.2,28.1 104.2,31.4 C116.2,34.7 123.1,32.5 130.4,30.2 C137.6,27.9 145.1,25.6 157.7,29 C170.3,32.4 175.6,38.3 180.7,43.9 C185.8,49.6 190.7,54.9 202.7,58.2 C214.7,61.5 221.6,59.3 228.9,57 C236.1,54.7 243.6,52.4 256.2,55.8 C268.8,59.2 274.1,65.1 279.2,70.7 C284.3,76.4 289.2,81.7 301.2,85 C313.2,88.3 320.1,86.1 327.4,83.8 C334.6,81.5 342.1,79.2 354.7,82.6 C367.3,86 372.6,91.9 377.7,97.5 C382.8,103.2 387.7,108.5 399.7,111.8 L399.2,113.8 C386.6,110.4 381.3,104.5 376.2,98.9 C371.1,93.2 366.2,87.9 354.2,84.6 C342.2,81.3 335.3,83.5 328,85.8 C320.8,88.1 313.3,90.4 300.7,87 C288.1,83.6 282.8,77.7 277.7,72.1 C272.6,66.4 267.7,61.1 255.7,57.8 C243.7,54.5 236.8,56.7 229.5,59 C222.3,61.3 214.8,63.6 202.2,60.2 C189.6,56.8 184.3,50.9 179.2,45.3 C174.1,39.6 169.2,34.3 157.2,31 C145.2,27.7 138.3,29.9 131,32.2 C123.8,34.5 116.3,36.8 103.7,33.4 C91.1,30 85.8,24.1 80.7,18.5 C75.6,12.8 70.7,7.5 58.7,4.2 C46.7,0.9 39.8,3.1 32.5,5.4 C25.2,7.7 17.8,10 5.2,6.6 L5.7,4.6 C17.7,7.9 24.6,5.7 31.9,3.4 C39.1,1.2 46.6,-1.2 59.2,2.2 Z"></path>
                    </g>
                    <g transform="translate(18.000000, 33.000000)" id="Path">
                        <path d="M54.1,19.7 C66.7,23.1 72,29 77.1,34.6 C82.2,40.3 87.1,45.6 99.1,48.9 C111.1,52.2 118,50 125.3,47.7 C132.5,45.4 140,43.1 152.6,46.5 C165.2,49.9 170.5,55.8 175.6,61.4 C180.7,67.1 185.6,72.4 197.6,75.7 C209.6,79 216.5,76.8 223.8,74.5 C231,72.2 238.5,69.9 251.1,73.3 C263.7,76.7 269,82.6 274.1,88.2 C279.2,93.9 284.1,99.2 296.1,102.5 C308.1,105.8 315,103.6 322.3,101.3 C329.5,99 337,96.7 349.6,100.1 C362.2,103.5 367.5,109.4 372.6,115 C377.7,120.7 382.6,126 394.6,129.3 L394.1,131.3 C381.5,127.9 376.2,122 371.1,116.4 C366,110.7 361.1,105.4 349.1,102.1 C337.1,98.8 330.2,101 322.9,103.3 C315.7,105.6 308.2,107.9 295.6,104.5 C283,101.1 277.7,95.2 272.6,89.6 C267.5,83.9 262.6,78.6 250.6,75.3 C238.6,72 231.7,74.2 224.4,76.5 C217.2,78.8 209.7,81.1 197.1,77.7 C184.5,74.3 179.2,68.4 174.1,62.8 C169,57.1 164.1,51.8 152.1,48.5 C140.1,45.2 133.2,47.4 125.9,49.7 C118.7,52 111.2,54.3 98.6,50.9 C86,47.5 80.7,41.6 75.6,36 C70.5,30.3 65.6,25 53.6,21.7 C41.6,18.4 34.7,20.6 27.4,22.9 C20.1,25.2 12.7,27.5 0.1,24.1 L0.6,22.1 C12.6,25.4 19.5,23.2 26.8,20.9 C34,18.6 41.5,16.3 54.1,19.7 Z"></path>
                        <path d="M59,1.9 C71.6,5.3 76.9,11.2 82,16.8 C87.1,22.5 92,27.8 104,31.1 C116,34.4 122.9,32.2 130.2,29.9 C137.4,27.6 144.9,25.3 157.5,28.7 C170.1,32.1 175.4,38 180.5,43.6 C185.6,49.3 190.5,54.6 202.5,57.9 C214.5,61.2 221.4,59 228.7,56.7 C235.9,54.4 243.4,52.1 256,55.5 C268.6,58.9 273.9,64.8 279,70.4 C284.1,76.1 289,81.4 301,84.7 C313,88 319.9,85.8 327.2,83.5 C334.4,81.2 341.9,78.9 354.5,82.3 C367.1,85.7 372.4,91.6 377.5,97.2 C382.6,102.9 387.5,108.2 399.5,111.5 L399,113.5 C386.4,110.1 381.1,104.2 376,98.6 C370.9,92.9 366,87.6 354,84.3 C342,81 335.1,83.2 327.8,85.5 C320.6,87.8 313.1,90.1 300.5,86.7 C287.9,83.3 282.6,77.4 277.5,71.8 C272.4,66.1 267.5,60.8 255.5,57.5 C243.5,54.2 236.6,56.4 229.3,58.7 C222.1,61 214.6,63.3 202,59.9 C189.4,56.5 184.1,50.6 179,45 C173.9,39.3 169,34 157,30.7 C145,27.4 138.1,29.6 130.8,31.9 C123.6,34.2 116.1,36.5 103.5,33.1 C90.9,29.7 85.6,23.8 80.5,18.2 C75.4,12.5 70.5,7.2 58.5,3.9 C46.5,0.6 39.6,2.8 32.3,5.1 C25,7.4 17.6,9.7 5,6.3 L5.5,4.3 C17.5,7.6 24.4,5.4 31.7,3.1 C38.9,0.9 46.4,-1.5 59,1.9 Z"></path>
                    </g>
                    <g transform="translate(27.000000, 0.000000)" id="Path">
                        <path d="M54,20.2 C66.6,23.6 71.9,29.5 77,35.1 C82.1,40.8 87,46.1 99,49.4 C111,52.7 117.9,50.5 125.2,48.2 C132.4,45.9 139.9,43.6 152.5,47 C165.1,50.4 170.4,56.3 175.5,61.9 C180.6,67.6 185.5,72.9 197.5,76.2 C209.5,79.5 216.4,77.3 223.7,75 C230.9,72.7 238.4,70.4 251,73.8 C263.6,77.2 268.9,83.1 274,88.7 C279.1,94.4 284,99.7 296,103 C308,106.3 314.9,104.1 322.2,101.8 C329.4,99.5 336.9,97.2 349.5,100.6 C362.1,104 367.4,109.9 372.5,115.5 C377.6,121.2 382.5,126.5 394.5,129.8 L394,131.8 C381.4,128.4 376.1,122.5 371,116.9 C365.9,111.2 361,105.9 349,102.6 C337,99.3 330.1,101.5 322.8,103.8 C315.6,106.1 308.1,108.4 295.5,105 C282.9,101.6 277.6,95.7 272.5,90.1 C267.4,84.4 262.5,79.1 250.5,75.8 C238.5,72.5 231.6,74.7 224.3,77 C217.1,79.3 209.6,81.6 197,78.2 C184.4,74.8 179.1,68.9 174,63.3 C168.9,57.6 164,52.3 152,49 C140,45.7 133.1,47.9 125.8,50.2 C118.6,52.5 111.1,54.8 98.5,51.4 C85.9,48 80.6,42.1 75.5,36.5 C70.4,30.8 65.5,25.5 53.5,22.2 C41.5,18.9 34.6,21.1 27.3,23.4 C20,25.7 12.6,28 0,24.6 L0.5,22.6 C12.5,25.9 19.4,23.7 26.7,21.4 C33.9,19.1 41.4,16.7 54,20.2 Z"></path>
                        <path d="M58.8,2.4 C71.4,5.8 76.7,11.7 81.8,17.3 C86.9,23 91.8,28.3 103.8,31.6 C115.8,34.9 122.7,32.7 130,30.4 C137.2,28.1 144.7,25.8 157.3,29.2 C169.9,32.6 175.2,38.5 180.3,44.1 C185.4,49.8 190.3,55.1 202.3,58.4 C214.3,61.7 221.2,59.5 228.5,57.2 C235.7,54.9 243.2,52.6 255.8,56 C268.4,59.4 273.7,65.3 278.8,70.9 C283.9,76.6 288.8,81.9 300.8,85.2 C312.8,88.5 319.7,86.3 327,84 C334.2,81.7 341.7,79.4 354.3,82.8 C366.9,86.2 372.2,92.1 377.3,97.7 C382.4,103.4 387.3,108.7 399.3,112 L398.8,114 C386.2,110.6 380.9,104.7 375.8,99.1 C370.7,93.4 365.8,88.1 353.8,84.8 C341.8,81.5 334.9,83.7 327.6,86 C320.4,88.3 312.9,90.6 300.3,87.2 C287.7,83.8 282.4,77.9 277.3,72.3 C272.2,66.6 267.3,61.3 255.3,58 C243.3,54.7 236.4,56.9 229.1,59.2 C221.9,61.5 214.4,63.8 201.8,60.4 C189.2,57 183.9,51.1 178.8,45.5 C173.7,39.8 168.8,34.5 156.8,31.2 C144.8,27.9 137.9,30.1 130.6,32.4 C123.4,34.7 115.9,37 103.3,33.6 C90.7,30.2 85.4,24.3 80.3,18.7 C75.2,13 70.3,7.7 58.3,4.4 C46.3,1.1 39.4,3.3 32.1,5.6 C24.8,7.9 17.4,10.2 4.8,6.8 L5.3,4.8 C17.3,8.1 24.2,5.9 31.5,3.6 C38.7,1.3 46.2,-1 58.8,2.4 Z"></path>
                    </g>
                </g>
            </g>
        </g>
    </g>
</svg>