<svg viewBox="0 0 1439 688" version="1.1" xmlns="http://www.w3.org/2000/svg" xmlns:xlink="http://www.w3.org/1999/xlink"><defs><linearGradient x1="0%" y1="0%" x2="103.849%" y2="74.917%" id="linearGradient-1"><stop stop-color="#C6F2FF" offset="0%"/><stop stop-color="#5593C8" offset="100%"/></linearGradient><path id="path-2" d="M0 0h1439v688H0z"/></defs><g id="bench-scene" stroke="none" stroke-width="1" fill="none" fill-rule="evenodd"><g class="background scene-background"><use id="sky-mask" fill="url(#linearGradient-1)" xlink:href="#path-2"/><circle class="sun" fill="url(#linearGradient-4)" mask="url(#mask-3)" cx="-13" cy="-136" r="354"/><path d="M1 440.65s89.244-48.879 209.401-38.097c120.157 10.783 174.073 48.367 331.2 38.098 157.129-10.27 238.774-44.464 374.335-18.895 135.561 25.57 174.073 36.865 243.394 35.838 69.321-1.027 279.44-28.239 279.44-28.239v256.026S1 692.466 1 685.38V440.65z" id="hills" fill="#7ED321" opacity=".531" mask="url(#mask-3)"/><path d="M1438.952 388.294s-28.447 7.086-47.343 0c-18.897-7.085-60.695-27.623-94.277-21.872-33.582 5.75-54.122 4.21-67.267-1.027-13.146-5.237-27.01-16.635-45.906-16.122-18.897.513-54.944-.513-50.836-5.75 4.108-5.238 17.254-8.729 43.442-8.832 26.188-.205 36.868-6.777 62.337-12.014 25.367-5.237 15.61-5.853 54.122-3.389 38.512 2.465 45.906 1.027 59.051-4.724 13.146-5.75 29.475-12.733 41.798-11.398 12.324 1.335 44.88 0 44.88 0v85.128z" class="cloud cloud-1" fill="#FFF" opacity=".423" mask="url(#mask-3)"/><path d="M705.343 9.68S747.55-2.23 780.312-2.334c32.863-.103 42.825 12.733 98.487 6.059C934.462-3.053 981.6-15.89 1024.425-14.451c42.825 1.437 91.401 18.073 139.875 8.83 48.576-9.241 54.224-21.358 101.362-21.256 47.139.206 89.964-3.696 105.677 1.952 15.712 5.647 27.112 26.185 37.074 28.033 9.961 1.849 47.138 1.849 52.786 4.313 5.751 2.465 48.884 6.778 48.884 6.778V57.84s-97.46 19.306-150.35 15.506c-52.786-3.697-47.138-13.041-108.551-11.809-61.413 1.232-124.264 7.496-165.652.616-41.387-6.88-18.588-17.56-97.05-22.797-78.563-5.237-75.688 1.13-128.474 3.286-52.787 2.157-95.612 3.184-117.076-3.286-21.464-6.469-34.301-13.35-61.413-10.782-26.702 2.567-6.881-19.203 23.826-18.895z" class="cloud cloud-2" fill="#FFF" opacity=".666" mask="url(#mask-3)"/><path d="M36.39 254.856s41.306-11.912 73.366-12.015c32.16-.103 41.908 12.733 96.38 6.059 54.47-6.778 100.6-19.614 142.509-18.176 41.908 1.437 89.445 18.073 136.88 8.83 47.537-9.241 53.065-21.358 99.194-21.256 46.13.206 88.038-3.697 103.415 1.951 15.376 5.648 26.532 26.186 36.28 28.034 9.749 1.848 46.13 1.848 51.657 4.313 5.628 2.464 47.839 6.777 47.839 6.777v43.643s-95.375 19.305-147.133 15.506c-51.657-3.697-46.13-13.042-106.228-11.81-60.1 1.233-121.605 7.497-162.107.617-40.501-6.88-18.19-17.56-94.972-22.797-76.883-5.237-74.069 1.13-125.726 3.287-51.657 2.156-93.566 3.183-114.57-3.286-21.005-6.47-33.567-13.35-60.1-10.783-26.13 2.568-6.733-19.202 23.317-18.894z" class="cloud cloud-3" fill="#FFF" opacity=".662" mask="url(#mask-3)" transform="rotate(179 412.368 268.096)"/></g><g class="foreground"><g class="subject" transform="matrix(-1 0 0 1 734 249)"><path id="Rectangle-path" fill="#B3B3B3" fill-rule="nonzero" d="M0 311h734v53H0z"/><path id="Path" fill="#8C8B8B" d="M186.27 365h182.754l2.148-9.42 66.847-31.56 89.944 9.18L555 315.98l-1.074-4.98H139l59.983 9z"/><path d="M263 374.59s19.362 33.662 23.413 42.821C291 427.701 295.17 439 295.17 439H319s-7.566-18.972-12.153-35.862C302.26 386.248 293.264 369 293.264 369L263 374.59z" id="Path" fill="#8B572A"/><path d="M266.828 373.647L264 377.162c1.745 3.038 4.814 8.34 8.124 14.178 0 0 18.534 7.15 25.153 18.17 3.73 6.256 7.762 19.362 10.711 29.49H319s-7.642-19.004-12.276-35.923c-3.85-14.06-10.71-28.239-12.998-32.707-.36-.476-.722-.953-1.022-1.37l-25.876 4.647z" id="Path" fill="#473B3B"/><path d="M218 348.075s-16.02 22.686-26.4 34.209C181.22 393.806 159.2 439 159.2 439H134l54.78-120L218 348.075z" id="Path" fill="#8B572A"/><path d="M148 439h12.207s21.643-45.315 31.845-56.868c10.202-11.553 25.948-34.3 25.948-34.3l-18.34-18.617-9.495-2.215s2.654 19.575-6.192 41.544C177.309 385.125 157.377 421.94 148 439z" id="Path" fill="#473B3B"/><path d="M257.104 166l-11.624 55.238-10.551 10.547-51.444 66.262h-22.651s-16.99 8.82-25.812 9.832c0 0-.596 1.967 4.352 2.98s24.023-3.754 24.44-3.754c.417 0 7.63 3.575 7.63 3.575l21.34-.477 5.962-8.64 54.125-57.085 6.557-11.203 2.266-3.158 2.384-8.223L276 184.354 257.104 166z" id="Path" fill="#8B572A"/><g id="Group" transform="translate(138 179)" fill="#3F2B37"><path d="M117.284 3.738l-1.253 5.934c3.522 3.322 10.684 10.502 11.161 14.418.597 5.221-8.356 29.133-8.356 29.133l-49.838 62.242 47.391-49.722 6.566-11.155 2.268-3.145 2.387-8.188 11.938-37.38L137.1 3.5 119.612.534l-2.328 3.204z" id="Path"/><path d="M34.44 126.798l-8.357-1.78L0 130.833c.657.356 1.552.652 2.805.89 4.954 1.068 24.054-3.738 24.472-3.738.418 0 7.64 3.56 7.64 3.56l21.368-.475 5.968-8.603 6.805-7.12-34.619 11.451z" id="Path"/></g><path d="M291.185 103.277s-8.001 7.143-16.958 13.393c-8.957 6.25-16.122 9.524-17.018 16.964-.895 7.44-4.478 45.535-11.942 52.38 0 0 20.6 5.952 33.14 6.548 0 0 10.15 18.452 33.14 22.32 0 0 6.866 11.012 5.97 20.239-.895 9.226-2.985 8.63-2.985 8.63s-62.1 7.143-80.908 8.036c-18.81.893-25.676 3.869-35.827 10.416-10.15 6.548-41.797 30.952-41.797 30.952s39.05 47.738 65.383 68.452c47.769 37.5 98.224 22.38 98.224 22.38s-12.718-23.57-17.077-41.725c0 0 56.725.595 74.638-5.357 17.913-5.953 39.708-32.143 45.082-44.643 5.374-12.5 2.866-29.285-7.464-45.237-9.972-15.416-17.854-36.368-17.854-36.368s11.465-1.727 27.348-10.953c0 0-12.778-26.19-18.75-40.178-5.97-13.987-8.956-28.273-22.39-37.201-13.436-8.929-29.26-18.452-44.187-20.833-14.927-2.381-36.662-7.322-47.768 1.785z" id="Path" fill="#EFEFEF"/><path d="M285 83.26s6.42 17.299 6.239 24.975c-.182 7.675-3.029 16.119 5.45 19.307 8.48 3.13 27.438 1.594 33.495-8.266 6.057-9.86 1.393-17.713-5.027-24.798C318.737 87.392 303.352 61 303.352 61L285 83.26" id="Path" fill="#8B572A"/><path d="M325.182 95.075C318.697 87.863 303.364 61 303.364 61L285 83.656s1.273 3.426 2.606 7.873c1.515-1.503 9.455-9.015 15.333-6.49 6.546 2.824 12.122 10.036 12.122 10.036l-13.576 11.237s19.515-3.425 24.485 0c2.303 1.623 4.909 3.306 7.03 4.688 0-5.89-3.515-11.058-7.818-15.925z" id="Path" fill="#473B3B"/><path d="M259.085 27.514c-2.16 2.731-3.66 10.271-3.48 13.893.12 3.622 2.58 11.577.6 15.793-2.04 4.274-6.901 6.53-6.121 8.193.84 1.78 5.04 1.96 6.721 2.197 0 0-1.2 3.621-2.04 4.037 0 0 1.14 1.128 2.16 1.603l2.88 1.78s-3.3 1.01-3.36 1.782c-.12.831.84 2.494 1.62 2.672.78.178-1.74 10.924 2.22 14.724 3.961 3.859 27.965-6.947 35.646-13.18 7.681-6.235 16.082-22.502 12.002-36.454-4.14-13.952-31.865-38.65-48.848-17.04z" id="Path" fill="#8B572A"/><path d="M262 44.015s2.691-3.863 9.114-2.844C277.537 42.137 285 46 285 46s-11.316-4.185-15.17-3.595c-3.915.644-7.83 1.61-7.83 1.61z" id="Path" fill="#210C37"/><path d="M396 209.675L417.119 202l2.744 3.927 16.525 20.764 39.017 71.692s12.23 7.258 24.638 8.448c5.012.476 20.165-.892 20.165-.892L539 320.872s-4.236.06-6.86-.714c-2.626-.773-2.685-.773-2.685-.773l3.58 4.224s-1.97.535-4.893-.774c-2.267-1.011-8.054-4.938-8.054-4.938l-17.3 1.904s5.727 1.547 8.829 3.748c1.61 1.13 1.73 3.451 1.73 3.451s-6.503-1.19-11.335-1.368c-4.832-.179-22.014-2.916-26.667-6.604-6.86-5.414-10.142-13.684-10.142-13.684l-45.46-55.153-9.127-16.48L396 209.675z" id="Path" fill="#8B572A"/><path d="M250.032 21.243c-.039-.019-.706.353-.9.818-.192.465-.183 1.827.082 2.24.264.411 1.038 1.196 1.26 1.408 1.079 1.022 1.828 1.13 2.757 1.413 5.024 1.527 15.334 4.023 23.43 2.215l10.932-2.44s-3.03 13.509 2.257 16.365c9.446 5.058 15.03 16.662 12.06 22.554-3.506 6.962 17.643 26.95 26.205 15.941C336.676 70.747 342 51.355 342 51.355s-.742-11.055-4.195-21.135c-3.454-10.079-8.694-16.206-11.42-17.723C321.038 9.52 299.236 0 292.523 0c-6.125 0-26.017 10.822-35.794 23.217-.452.574-2.93 1.207-3.59 1.207-.659 0-2.047-.386-2.414-.796-.368-.41-.661-.796-.766-1.161-.105-.366.12-1.203.073-1.224z" id="Path" fill="#151515"/><path d="M256 71s7.751 1.597 12 1.171c0 0-3.675 2.821-6.43 3.46-2.757.639-4.135.32-3.962 0 .172-.32.402-1.437 1.205-1.81-.057 0-2.469-.372-2.813-2.821z" id="Path" fill="#AD6385"/><path d="M289.134 94.623s3.159 3.433 11.5 1.042C308.978 93.214 318.095 85 318.095 85s3.694 0 4.588 1.348c.894 1.349 7.627 7.846 2.264 10.911-5.362 3.065-19.365 9.378-25.205 9.685-5.84.306-8.164-.736-8.164-.736s-6.018-5.7-2.443-11.585z" id="Path" fill="#E2E2E2"/><path d="M277.55 192s1.088-18.238-.12-31.485C276.222 147.267 265.172 132 265.172 132s0 13.842-1.39 24.95c-1.086 8.496-5.978 21.743-9.782 31.07 7.126 1.723 16.606 3.624 23.55 3.98zm118.553 17.63c-9.436-.06-13.413-1.132-13.413-1.132L366.963 143s2.077 40.788-16.617 50.017c-5.757 2.858-14.718 4.883-23.324 3.096-8.605-1.786-15.846 2.918-23.858 4.109-8.012 1.19-18.99-1.012-18.99-1.012l8.248 7.026c4.867 3.334 11.099 6.252 18.754 7.562 0 0 1.543 2.441 3.027 6.014l18.635-4.525s33.235 10.42 40.95 19.947c7.715 9.527 25.876 19.352 22.315 41.383-3.561 22.031-20.831 38.704-20.831 38.704l9.792 11.849-49.258-24.651 29.08 28.878s-57.864 5.657-60.831 3.573c-2.968-2.084-17.211-12.504-17.211-12.504l3.442 8.634c-3.68-1.191-27.36-9.527-27.36-9.527s-2.195 2.68-1.898 5.597c.296 2.917 9.792 6.61 15.727 17.327 5.934 10.718 8.012 12.504 7.715 21.138-.178 5.895-2.849 14.589-4.451 19.53 22.849 2.74 39.17-2.143 39.17-2.143s-12.582-23.58-16.915-41.74c0 0 56.38.595 74.185-5.36 17.804-5.954 39.466-32.153 44.807-44.657 5.342-12.505 2.849-29.296-7.418-45.254-9.911-15.422-17.745-36.381-17.745-36.381z" id="Path" fill="#D9D6D6"/><path d="M305.5 81a8.498 8.498 0 0 1-8.5-8.5c0-4.696 3.804-8.5 8.5-8.5s8.5 3.804 8.5 8.5-3.804 8.5-8.5 8.5zm0-15.038c-3.626 0-6.598 2.972-6.598 6.597 0 3.626 2.972 6.598 6.598 6.598s6.598-2.972 6.598-6.598a6.583 6.583 0 0 0-6.598-6.597z" id="Shape" fill="#E2E2E2" fill-rule="nonzero"/><path d="M436.694 226.715l-16.65-20.784-2.765-3.931L396 209.683l4.628 7.563 19.536 9.41 4.087 2.56s10.34 6.313 12.383 8.517C438.617 239.937 473 292.94 473 293l-36.306-66.285z" id="Path" fill="#8B572A"/><path id="Rectangle-path" fill="#B3B3B3" fill-rule="nonzero" d="M0 364h36v75H0z"/><path id="Rectangle-path" fill="#8C8B8B" fill-rule="nonzero" transform="rotate(-180 40.5 401.5)" d="M22 364h37v75H22z"/><ellipse id="Oval" fill="#210C37" cx="265" cy="51.5" rx="2" ry="2.5"/></g></g><g id="logo" transform="translate(1045 96)"><g id="majority" transform="translate(0 175)"><path class="majority-background background" fill="#FF6900" d="M0 23.157L393.352 0v120.843L0 113.586z"/><path d="M19 98.026v-61.55c0-1.952.995-2.927 2.985-2.927 1.749 0 3.347 1.402 4.794 4.207l15.558 30.363 15.559-30.363c1.447-2.805 3.045-4.207 4.794-4.207 1.99 0 2.985.975 2.985 2.926v61.55c0 .733-.286 1.312-.86 1.739-.572.426-1.28.64-2.125.64-.784 0-1.477-.214-2.08-.64-.604-.427-.905-1.006-.905-1.738V46.627L44.689 75.345c-.663 1.28-1.477 1.92-2.442 1.92-.905 0-1.688-.64-2.352-1.92L24.97 46.353v51.673c0 .732-.301 1.31-.904 1.738-.604.426-1.297.64-2.081.64-.844 0-1.553-.214-2.126-.64-.573-.427-.859-1.006-.859-1.738zm55.45-.183c0-.305.03-.518.09-.64l18.905-62.1C93.867 33.702 95.043 33 96.973 33s3.135.701 3.618 2.104l18.814 62.099c0 .06.016.152.046.274.03.122.045.214.045.274 0 .732-.392 1.357-1.176 1.875-.784.519-1.598.778-2.442.778-1.146 0-1.9-.519-2.262-1.555l-4.16-14.084H84.398l-4.16 14.084c-.242 1.036-1.026 1.555-2.353 1.555a4.125 4.125 0 0 1-2.351-.732c-.724-.488-1.086-1.097-1.086-1.83zm11.487-18.291h21.98L96.974 42.694 85.937 79.552zm37.539 5.304c0-2.073.965-3.11 2.895-3.11 2.05 0 3.075.793 3.075 2.378 0 3.476 1.16 6.22 3.483 8.232 2.321 2.012 5.442 3.018 9.362 3.018 4.1 0 7.266-1.159 9.498-3.476 2.23-2.317 3.346-5.822 3.346-10.517V39.128h-12.754c-.723 0-1.281-.29-1.673-.87-.392-.578-.588-1.264-.588-2.057 0-.732.196-1.357.588-1.875.392-.518.95-.777 1.673-.777h15.92c1.87 0 2.804.762 2.804 2.286v45.546c0 6.768-1.703 11.721-5.11 14.861-3.407 3.14-7.915 4.71-13.523 4.71-5.73 0-10.327-1.509-13.795-4.527-3.467-3.018-5.201-6.874-5.201-11.569zm50.384-3.475V53.029c0-6.707 1.703-11.63 5.11-14.77 3.408-3.14 7.976-4.71 13.704-4.71 5.73 0 10.297 1.57 13.704 4.71 3.408 3.14 5.111 8.063 5.111 14.77v28.352c0 6.768-1.703 11.721-5.11 14.861-3.408 3.14-7.976 4.71-13.705 4.71-5.728 0-10.296-1.57-13.704-4.71-3.407-3.14-5.11-8.093-5.11-14.861zm5.97 0c0 9.328 4.281 13.993 12.844 13.993 8.564 0 12.845-4.665 12.845-13.993V53.029c0-9.268-4.281-13.901-12.845-13.901-8.563 0-12.844 4.633-12.844 13.901v28.352zm44.685 16.645V35.744c0-1.342.753-2.073 2.261-2.195h16.01c5.85 0 10.569 1.402 14.157 4.207 3.588 2.804 5.382 7.408 5.382 13.81 0 10.121-4.704 16.005-14.111 17.65l13.93 27.072c.241.305.362.701.362 1.19 0 .792-.362 1.508-1.086 2.148-.723.64-1.507.96-2.351.96-1.086 0-2.141-1.066-3.166-3.2l-13.93-27.437h-11.488v28.077c0 .732-.302 1.31-.905 1.738-.603.426-1.296.64-2.08.64-.845 0-1.553-.214-2.126-.64-.573-.427-.86-1.006-.86-1.738zm5.97-33.29h12.302c9.045 0 13.568-4.299 13.568-12.896 0-8.475-4.523-12.712-13.568-12.712h-12.302v25.608zm41.88 33.29V35.744c0-1.464.996-2.195 2.986-2.195 1.99 0 2.985.731 2.985 2.195v62.282c0 .732-.302 1.31-.905 1.738-.603.426-1.296.64-2.08.64-.845 0-1.553-.214-2.126-.64-.573-.427-.86-1.006-.86-1.738zm14.202-61.642c0-.732.196-1.387.588-1.966.392-.58.95-.87 1.673-.87h36.273c.724 0 1.282.275 1.674.824.391.549.587 1.189.587 1.92 0 .793-.196 1.479-.587 2.058-.392.58-.95.87-1.674.87h-15.106v58.806c0 .732-.301 1.31-.905 1.738-.603.426-1.296.64-2.08.64-.844 0-1.553-.214-2.126-.64-.573-.427-.859-1.006-.859-1.738V39.219h-15.197c-.663 0-1.206-.274-1.628-.823-.422-.549-.633-1.22-.633-2.012zm43.871-.274c0-.732.347-1.342 1.04-1.83.694-.487 1.432-.731 2.216-.731.965 0 1.75.61 2.352 1.829L352.69 68.76l16.734-33.382c.603-1.22 1.387-1.83 2.352-1.83.784 0 1.523.245 2.216.732.694.488 1.04 1.098 1.04 1.83 0 .548-.12 1.097-.361 1.646l-18.815 36.308c-.12.366-.181.61-.181.732v23.23c0 .732-.286 1.31-.86 1.738-.572.426-1.28.64-2.125.64-.784 0-1.477-.214-2.08-.64-.604-.427-.905-1.006-.905-1.738v-23.23c0-.305-.03-.549-.09-.732L330.89 37.756c-.301-.549-.452-1.098-.452-1.646z" id="text" fill="#FFF"/></g><g id="florida" transform="translate(26 68)"><path class="florida-background background" fill="#FF6900" d="M0 22.006L367.495 0v102.453L0 124.46z"/><path d="M53 92.184V31.75c0-.71.271-1.257.814-1.642.543-.384 1.177-.577 1.9-.577h32.037c.724 0 1.282.252 1.674.755.392.503.588 1.109.588 1.819 0 .769-.196 1.435-.588 1.997-.392.562-.95.843-1.674.843H58.973v24.403H73.27c.664 0 1.192.252 1.584.755.392.503.588 1.139.588 1.908 0 1.597-.724 2.396-2.172 2.396H58.973v27.776c0 .71-.302 1.257-.905 1.641-.604.385-1.297.577-2.082.577-1.99 0-2.986-.74-2.986-2.218zm44.705-.089V31.662c0-1.42.996-2.13 2.986-2.13 1.991 0 2.987.71 2.987 2.13V88.99h25.791c1.328 0 1.991.887 1.991 2.662 0 1.834-.663 2.751-1.99 2.751h-29.05c-.724 0-1.357-.207-1.9-.621-.543-.414-.815-.976-.815-1.686zm41.176-16.15v-27.51c0-6.508 1.704-11.286 5.113-14.332 3.409-3.047 7.979-4.57 13.71-4.57 5.732 0 10.302 1.523 13.71 4.57 3.409 3.046 5.113 7.824 5.113 14.331v27.51c0 6.567-1.704 11.374-5.113 14.42-3.408 3.047-7.978 4.57-13.71 4.57-5.731 0-10.301-1.523-13.71-4.57-3.409-3.046-5.113-7.853-5.113-14.42zm5.973 0c0 9.05 4.283 13.576 12.85 13.576s12.85-4.525 12.85-13.577v-27.51c0-8.992-4.283-13.488-12.85-13.488s-12.85 4.496-12.85 13.488v27.51zm44.705 16.15V31.662c0-1.301.754-2.011 2.262-2.13h16.018c5.852 0 10.573 1.361 14.163 4.083 3.59 2.72 5.384 7.188 5.384 13.4 0 9.82-4.706 15.53-14.117 17.127l13.936 26.267c.241.296.362.68.362 1.154 0 .769-.362 1.464-1.086 2.085-.724.621-1.508.932-2.353.932-1.086 0-2.141-1.036-3.167-3.106L207.024 64.85h-11.493v27.244c0 .71-.301 1.272-.904 1.686-.604.414-1.298.621-2.082.621-.845 0-1.553-.207-2.127-.621-.573-.414-.86-.976-.86-1.686zm5.972-32.302h12.308c9.05 0 13.574-4.17 13.574-12.512 0-8.224-4.524-12.335-13.574-12.335h-12.308v24.847zm41.9 32.302V31.662c0-1.42.996-2.13 2.987-2.13 1.99 0 2.986.71 2.986 2.13v60.433c0 .71-.302 1.272-.905 1.686-.603.414-1.297.621-2.081.621-.845 0-1.554-.207-2.127-.621-.573-.414-.86-.976-.86-1.686zm19.728.089V31.662c0-.591.257-1.094.77-1.508.512-.414 1.16-.622 1.945-.622h16.018c5.732 0 10.317 1.524 13.755 4.57 3.44 3.047 5.159 7.825 5.159 14.332v26.978c0 6.567-1.72 11.373-5.159 14.42-3.438 3.047-8.023 4.57-13.755 4.57h-16.018c-.784 0-1.433-.222-1.945-.665-.513-.444-.77-.962-.77-1.553zm5.973-3.195h12.76c4.103 0 7.285-1.139 9.547-3.417 2.263-2.277 3.394-5.664 3.394-10.16V48.434c0-4.496-1.131-7.868-3.394-10.116-2.262-2.248-5.444-3.372-9.547-3.372h-12.76v54.043zm39.728 2.928c0-.295.03-.502.09-.62l18.914-60.256c.422-1.36 1.599-2.041 3.53-2.041 1.93 0 3.137.68 3.62 2.041l18.823 60.255c0 .06.015.148.045.267.03.118.045.207.045.266 0 .71-.392 1.316-1.176 1.819-.785.503-1.6.754-2.444.754-1.146 0-1.9-.503-2.262-1.508l-4.163-13.667h-25.067l-4.163 13.667c-.242 1.005-1.026 1.508-2.353 1.508a4.217 4.217 0 0 1-2.353-.71c-.724-.473-1.086-1.065-1.086-1.775zm11.493-17.748h21.99l-10.95-35.762-11.04 35.762z" id="text" fill="#FFF"/></g><g id="new"><path class="background new-background" fill="#FF6900" d="M0 15.383L176 0v76.007L0 87z"/><path d="M40 67.003V24.56c0-1.04.696-1.56 2.088-1.56 1.181 0 2.278.957 3.29 2.871l17.085 33.205V24.498c0-.999.696-1.498 2.088-1.498 1.393 0 2.089.5 2.089 1.498v42.505c0 .499-.211.894-.633 1.186a2.499 2.499 0 0 1-1.456.437c-1.054 0-1.982-.791-2.784-2.372l-17.59-33.767v34.516c0 .499-.212.894-.633 1.186a2.499 2.499 0 0 1-1.456.437c-.59 0-1.086-.146-1.487-.437A1.39 1.39 0 0 1 40 67.003zm36.258 0V24.56c0-.499.19-.884.57-1.154A2.23 2.23 0 0 1 78.155 23h22.526c1.055 0 1.582.603 1.582 1.81 0 .541-.137 1.01-.41 1.404-.275.396-.665.593-1.172.593H80.434v17.165h9.934c.507 0 .897.176 1.171.53.274.354.411.801.411 1.342 0 1.123-.527 1.685-1.582 1.685h-9.934v17.29h20.248c.465 0 .844.186 1.14.56.295.375.442.833.442 1.374 0 1.248-.527 1.873-1.582 1.873H78.156c-.506 0-.95-.146-1.329-.437-.38-.292-.57-.687-.57-1.186zm28.727-42.318c0-.458.253-.853.76-1.186A2.937 2.937 0 0 1 107.39 23c.886 0 1.434.354 1.645 1.061l10.947 38.323 6.328-23.28c.21-.958.949-1.436 2.214-1.436 1.14 0 1.856.478 2.152 1.435l6.327 23.281 10.947-38.323c.211-.707.76-1.061 1.645-1.061.591 0 1.14.166 1.646.5.506.332.759.727.759 1.185 0 .208-.021.375-.063.5l-12.403 42.317c-.337.999-1.18 1.498-2.53 1.498-1.393 0-2.215-.5-2.468-1.498l-6.012-22.033-6.011 22.033c-.253.999-1.076 1.498-2.468 1.498s-2.236-.5-2.53-1.498l-12.466-42.317a1.603 1.603 0 0 1-.064-.5z" id="text" fill="#FFF"/></g></g></g></svg>