<svg viewBox="0 0 601 315" version="1.1" xmlns="http://www.w3.org/2000/svg"><defs><radialGradient cx="50%" cy="50%" fx="50%" fy="50%" r="50%" id="radialGradient-1"><stop stop-color="#0FF" offset="0%"/><stop stop-color="#00E3E3" offset="7.44%"/><stop stop-color="#009F9F" offset="27.19%"/><stop stop-color="#066" offset="45.93%"/><stop stop-color="#003A3A" offset="63.09%"/><stop stop-color="#001A1A" offset="78.36%"/><stop stop-color="#000707" offset="91.18%"/><stop stop-color="#000" offset="100%"/></radialGradient><linearGradient x1="-.001%" y1="49.998%" x2="99.999%" y2="49.998%" id="linearGradient-2"><stop stop-color="#7BE4BC" offset="0%"/><stop stop-color="#78E2BE" offset="27.73%"/><stop stop-color="#6FDDC4" offset="46.86%"/><stop stop-color="#60D5CE" offset="63.39%"/><stop stop-color="#4AC8DC" offset="78.45%"/><stop stop-color="#2EB9EF" offset="92.38%"/><stop stop-color="#1DAFFA" offset="99.46%"/></linearGradient><radialGradient cx="41.215%" cy="36.332%" fx="41.215%" fy="36.332%" r="38.636%" gradientTransform="scale(1 .99954)" id="radialGradient-3"><stop stop-color="#4C1DD7" offset="0%"/><stop stop-color="#320A5F" offset="99.46%"/></radialGradient><linearGradient x1="62.422%" y1="7.033%" x2="54.665%" y2="44.149%" id="linearGradient-4"><stop stop-color="#FFF" offset="0%"/><stop stop-color="#DBFEFE" offset="61.98%"/><stop stop-color="#CBFEFD" offset="99.46%"/></linearGradient><linearGradient x1=".004%" y1="50.004%" x2="100.002%" y2="50.004%" id="linearGradient-5"><stop stop-color="#7BE4BC" offset="0%"/><stop stop-color="#78E2BE" offset="27.73%"/><stop stop-color="#6FDDC4" offset="46.86%"/><stop stop-color="#60D5CE" offset="63.39%"/><stop stop-color="#4AC8DC" offset="78.45%"/><stop stop-color="#2EB9EF" offset="92.38%"/><stop stop-color="#1DAFFA" offset="99.46%"/></linearGradient><linearGradient x1="103.456%" y1="50.001%" x2="4.383%" y2="50.001%" id="linearGradient-6"><stop stop-color="#7BE4BC" offset="0%"/><stop stop-color="#78E2BE" offset="27.73%"/><stop stop-color="#6FDDC4" offset="46.86%"/><stop stop-color="#60D5CE" offset="63.39%"/><stop stop-color="#4AC8DC" offset="78.45%"/><stop stop-color="#2EB9EF" offset="92.38%"/><stop stop-color="#1DAFFA" offset="99.46%"/></linearGradient><linearGradient x1="50%" y1="103.456%" x2="50%" y2="4.383%" id="linearGradient-7"><stop stop-color="#FFF" offset="0%"/><stop stop-color="#FCFFFF" offset="34.39%"/><stop stop-color="#F3FFFF" offset="58.11%"/><stop stop-color="#E4FEFE" offset="78.61%"/><stop stop-color="#CEFEFD" offset="97.17%"/><stop stop-color="#CBFEFD" offset="99.46%"/></linearGradient><linearGradient x1="50%" y1="103.458%" x2="50%" y2="4.383%" id="linearGradient-8"><stop stop-color="#FBFEFF" offset=".54%"/><stop stop-color="#FDFFFE" offset="100%"/></linearGradient><linearGradient x1="50%" y1="103.456%" x2="50%" y2="4.383%" id="linearGradient-9"><stop stop-color="#F7FCFF" offset=".54%"/><stop stop-color="#FAFEFD" offset="100%"/></linearGradient><linearGradient x1="50%" y1="103.459%" x2="50%" y2="4.385%" id="linearGradient-10"><stop stop-color="#F3FBFF" offset=".54%"/><stop stop-color="#F8FEFB" offset="100%"/></linearGradient><linearGradient x1="50%" y1="103.457%" x2="50%" y2="4.383%" id="linearGradient-11"><stop stop-color="#EFF9FF" offset=".54%"/><stop stop-color="#F6FDFA" offset="100%"/></linearGradient><linearGradient x1="50%" y1="103.454%" x2="50%" y2="4.381%" id="linearGradient-12"><stop stop-color="#EBF8FF" offset=".54%"/><stop stop-color="#F3FDF9" offset="100%"/></linearGradient><linearGradient x1="50%" y1="103.456%" x2="50%" y2="4.381%" id="linearGradient-13"><stop stop-color="#E7F6FE" offset=".54%"/><stop stop-color="#F1FCF8" offset="100%"/></linearGradient><linearGradient x1="50%" y1="103.457%" x2="50%" y2="4.384%" id="linearGradient-14"><stop stop-color="#E3F5FE" offset=".54%"/><stop stop-color="#EEFCF7" offset="100%"/></linearGradient><linearGradient x1="50%" y1="103.454%" x2="50%" y2="4.382%" id="linearGradient-15"><stop stop-color="#DFF4FE" offset=".54%"/><stop stop-color="#ECFBF5" offset="100%"/></linearGradient><linearGradient x1="50%" y1="103.456%" x2="50%" y2="4.382%" id="linearGradient-16"><stop stop-color="#DBF2FE" offset=".54%"/><stop stop-color="#EAFBF4" offset="100%"/></linearGradient><linearGradient x1="50%" y1="103.457%" x2="50%" y2="4.384%" id="linearGradient-17"><stop stop-color="#D7F1FE" offset=".54%"/><stop stop-color="#E7FAF3" offset="100%"/></linearGradient><linearGradient x1="50%" y1="103.454%" x2="50%" y2="4.382%" id="linearGradient-18"><stop stop-color="#D3EFFE" offset=".54%"/><stop stop-color="#E5FAF2" offset="100%"/></linearGradient><linearGradient x1="50%" y1="103.456%" x2="50%" y2="4.382%" id="linearGradient-19"><stop stop-color="#CFEEFE" offset=".54%"/><stop stop-color="#E3F9F1" offset="100%"/></linearGradient><linearGradient x1="50%" y1="103.455%" x2="50%" y2="4.382%" id="linearGradient-20"><stop stop-color="#CBECFE" offset=".54%"/><stop stop-color="#E0F9EF" offset="100%"/></linearGradient><linearGradient x1="50%" y1="103.455%" x2="50%" y2="4.383%" id="linearGradient-21"><stop stop-color="#C6EBFE" offset=".54%"/><stop stop-color="#DEF8EE" offset="100%"/></linearGradient><linearGradient x1="50%" y1="103.456%" x2="50%" y2="4.383%" id="linearGradient-22"><stop stop-color="#C2EAFE" offset=".54%"/><stop stop-color="#DCF8ED" offset="100%"/></linearGradient><linearGradient x1="50%" y1="103.455%" x2="50%" y2="4.383%" id="linearGradient-23"><stop stop-color="#BEE8FE" offset=".54%"/><stop stop-color="#D9F7EC" offset="100%"/></linearGradient><linearGradient x1="50%" y1="103.456%" x2="50%" y2="4.383%" id="linearGradient-24"><stop stop-color="#BAE7FD" offset=".54%"/><stop stop-color="#D7F7EB" offset="100%"/></linearGradient><linearGradient x1="50%" y1="103.456%" x2="50%" y2="4.383%" id="linearGradient-25"><stop stop-color="#B6E5FD" offset=".54%"/><stop stop-color="#D5F6E9" offset="100%"/></linearGradient><linearGradient x1="50%" y1="103.456%" x2="50%" y2="4.383%" id="linearGradient-26"><stop stop-color="#B2E4FD" offset=".54%"/><stop stop-color="#D2F6E8" offset="100%"/></linearGradient><linearGradient x1="50%" y1="103.454%" x2="50%" y2="4.381%" id="linearGradient-27"><stop stop-color="#AEE2FD" offset=".54%"/><stop stop-color="#D0F5E7" offset="100%"/></linearGradient><linearGradient x1="50%" y1="103.458%" x2="50%" y2="4.384%" id="linearGradient-28"><stop stop-color="#AAE1FD" offset=".54%"/><stop stop-color="#CDF5E6" offset="100%"/></linearGradient><linearGradient x1="50%" y1="103.455%" x2="50%" y2="4.382%" id="linearGradient-29"><stop stop-color="#A6E0FD" offset=".54%"/><stop stop-color="#CBF4E5" offset="100%"/></linearGradient><linearGradient x1="50%" y1="103.457%" x2="50%" y2="4.382%" id="linearGradient-30"><stop stop-color="#A2DEFD" offset=".54%"/><stop stop-color="#C9F4E3" offset="100%"/></linearGradient><linearGradient x1="50%" y1="103.456%" x2="50%" y2="4.382%" id="linearGradient-31"><stop stop-color="#9EDDFD" offset=".54%"/><stop stop-color="#C6F3E2" offset="100%"/></linearGradient><linearGradient x1="50%" y1="103.456%" x2="50%" y2="4.384%" id="linearGradient-32"><stop stop-color="#9ADBFD" offset=".54%"/><stop stop-color="#C4F3E1" offset="100%"/></linearGradient><linearGradient x1="50%" y1="103.456%" x2="50%" y2="4.383%" id="linearGradient-33"><stop stop-color="#96DAFD" offset=".54%"/><stop stop-color="#C2F2E0" offset="100%"/></linearGradient><linearGradient x1="50%" y1="103.454%" x2="50%" y2="4.382%" id="linearGradient-34"><stop stop-color="#92D8FD" offset=".54%"/><stop stop-color="#BFF2DF" offset="100%"/></linearGradient><linearGradient x1="50%" y1="103.457%" x2="50%" y2="4.382%" id="linearGradient-35"><stop stop-color="#8ED7FD" offset=".54%"/><stop stop-color="#BDF2DD" offset="100%"/></linearGradient><linearGradient x1="50%" y1="103.458%" x2="50%" y2="4.385%" id="linearGradient-36"><stop stop-color="#8AD6FC" offset=".54%"/><stop stop-color="#BBF1DC" offset="100%"/></linearGradient><linearGradient x1="50%" y1="103.453%" x2="50%" y2="4.382%" id="linearGradient-37"><stop stop-color="#86D4FC" offset=".54%"/><stop stop-color="#B8F1DB" offset="100%"/></linearGradient><linearGradient x1="50%" y1="103.454%" x2="50%" y2="4.383%" id="linearGradient-38"><stop stop-color="#82D3FC" offset=".54%"/><stop stop-color="#B6F0DA" offset="100%"/></linearGradient><linearGradient x1="50%" y1="103.456%" x2="50%" y2="4.383%" id="linearGradient-39"><stop stop-color="#7ED1FC" offset=".54%"/><stop stop-color="#B4F0D9" offset="100%"/></linearGradient><linearGradient x1="50%" y1="103.454%" x2="50%" y2="4.382%" id="linearGradient-40"><stop stop-color="#7AD0FC" offset=".54%"/><stop stop-color="#B1EFD8" offset="100%"/></linearGradient><linearGradient x1="50%" y1="103.456%" x2="50%" y2="4.383%" id="linearGradient-41"><stop stop-color="#76CEFC" offset=".54%"/><stop stop-color="#AFEFD6" offset="100%"/></linearGradient><linearGradient x1="50%" y1="103.457%" x2="50%" y2="4.382%" id="linearGradient-42"><stop stop-color="#72CDFC" offset=".54%"/><stop stop-color="#ACEED5" offset="99.3%"/><stop stop-color="#ACEED5" offset="100%"/></linearGradient><linearGradient x1="50%" y1="103.456%" x2="50%" y2="4.383%" id="linearGradient-43"><stop stop-color="#6ECCFC" offset=".54%"/><stop stop-color="#A8EDD6" offset="96.15%"/><stop stop-color="#AAEED4" offset="100%"/></linearGradient><linearGradient x1="50%" y1="103.456%" x2="50%" y2="4.384%" id="linearGradient-44"><stop stop-color="#6ACAFC" offset=".54%"/><stop stop-color="#A4EAD6" offset="93.21%"/><stop stop-color="#A8EDD3" offset="100%"/></linearGradient><linearGradient x1="50%" y1="103.455%" x2="50%" y2="4.381%" id="linearGradient-45"><stop stop-color="#66C9FC" offset=".54%"/><stop stop-color="#A0EAD6" offset="91.8%"/><stop stop-color="#A5EDD2" offset="100%"/></linearGradient><linearGradient x1="50%" y1="103.456%" x2="50%" y2="4.384%" id="linearGradient-46"><stop stop-color="#62C7FC" offset=".54%"/><stop stop-color="#9CE8D5" offset="89.11%"/><stop stop-color="#A3ECD0" offset="100%"/></linearGradient><linearGradient x1="50%" y1="103.457%" x2="50%" y2="4.383%" id="linearGradient-47"><stop stop-color="#5EC6FB" offset=".54%"/><stop stop-color="#98E7D5" offset="86.58%"/><stop stop-color="#A1ECCF" offset="100%"/></linearGradient><linearGradient x1="50%" y1="103.453%" x2="50%" y2="4.379%" id="linearGradient-48"><stop stop-color="#5AC4FB" offset=".54%"/><stop stop-color="#94E5D5" offset="85.37%"/><stop stop-color="#9EEBCE" offset="100%"/></linearGradient><linearGradient x1="50%" y1="103.454%" x2="50%" y2="4.382%" id="linearGradient-49"><stop stop-color="#55C3FB" offset=".54%"/><stop stop-color="#8FE3D6" offset="81.94%"/><stop stop-color="#9CEBCD" offset="100%"/></linearGradient><linearGradient x1="50%" y1="103.457%" x2="50%" y2="4.383%" id="linearGradient-50"><stop stop-color="#51C2FB" offset=".54%"/><stop stop-color="#8BE2D6" offset="79.81%"/><stop stop-color="#9AEACC" offset="100%"/></linearGradient><linearGradient x1="50%" y1="103.454%" x2="50%" y2="4.381%" id="linearGradient-51"><stop stop-color="#4DC0FB" offset=".54%"/><stop stop-color="#87E1D5" offset="78.78%"/><stop stop-color="#97EACA" offset="100%"/></linearGradient><linearGradient x1="50%" y1="103.456%" x2="50%" y2="4.382%" id="linearGradient-52"><stop stop-color="#49BFFB" offset=".54%"/><stop stop-color="#83DFD5" offset="76.81%"/><stop stop-color="#95E9C9" offset="100%"/></linearGradient><linearGradient x1="50%" y1="103.456%" x2="50%" y2="4.385%" id="linearGradient-53"><stop stop-color="#45BDFB" offset=".54%"/><stop stop-color="#7FDDD5" offset="74.94%"/><stop stop-color="#93E9C8" offset="100%"/></linearGradient><linearGradient x1="50%" y1="103.454%" x2="50%" y2="4.382%" id="linearGradient-54"><stop stop-color="#41BCFB" offset=".54%"/><stop stop-color="#7BDCD5" offset="74.03%"/><stop stop-color="#90E8C7" offset="100%"/></linearGradient><linearGradient x1="50%" y1="103.455%" x2="50%" y2="4.383%" id="linearGradient-55"><stop stop-color="#3DBAFB" offset=".54%"/><stop stop-color="#77DBD5" offset="72.3%"/><stop stop-color="#8EE8C6" offset="100%"/></linearGradient><linearGradient x1="50%" y1="103.456%" x2="50%" y2="4.381%" id="linearGradient-56"><stop stop-color="#39B9FB" offset=".54%"/><stop stop-color="#73D9D5" offset="70.64%"/><stop stop-color="#8CE7C4" offset="100%"/></linearGradient><linearGradient x1="50%" y1="103.456%" x2="50%" y2="4.382%" id="linearGradient-57"><stop stop-color="#35B8FB" offset=".54%"/><stop stop-color="#6FD8D5" offset="69.84%"/><stop stop-color="#89E7C3" offset="100%"/></linearGradient><linearGradient x1="50%" y1="103.453%" x2="50%" y2="4.381%" id="linearGradient-58"><stop stop-color="#31B6FA" offset=".54%"/><stop stop-color="#6BD6D5" offset="68.3%"/><stop stop-color="#87E6C2" offset="100%"/></linearGradient><linearGradient x1="50%" y1="103.455%" x2="50%" y2="4.381%" id="linearGradient-59"><stop stop-color="#2DB5FA" offset=".54%"/><stop stop-color="#67D5D4" offset="67.56%"/><stop stop-color="#84E6C1" offset="100%"/></linearGradient><linearGradient x1="50%" y1="103.456%" x2="50%" y2="4.383%" id="linearGradient-60"><stop stop-color="#29B3FA" offset=".54%"/><stop stop-color="#63D3D5" offset="66.12%"/><stop stop-color="#82E5C0" offset="100%"/></linearGradient><linearGradient x1="50%" y1="103.457%" x2="50%" y2="4.383%" id="linearGradient-61"><stop stop-color="#25B2FA" offset=".54%"/><stop stop-color="#5FD2D4" offset="64.74%"/><stop stop-color="#80E5BE" offset="100%"/></linearGradient><linearGradient x1="50%" y1="103.456%" x2="50%" y2="4.384%" id="linearGradient-62"><stop stop-color="#21B0FA" offset=".54%"/><stop stop-color="#5BD1D4" offset="64.07%"/><stop stop-color="#7DE4BD" offset="100%"/></linearGradient><linearGradient x1="50%" y1="103.456%" x2="50%" y2="4.383%" id="linearGradient-63"><stop stop-color="#1DAFFA" offset=".54%"/><stop stop-color="#57CFD4" offset="62.78%"/><stop stop-color="#7BE4BC" offset="100%"/></linearGradient><linearGradient x1="50.749%" y1="57.213%" x2="118.084%" y2="27.274%" id="linearGradient-64"><stop stop-color="#FFF" offset="0%"/><stop stop-color="#FCFFFF" offset="34.39%"/><stop stop-color="#F3FFFF" offset="58.11%"/><stop stop-color="#E4FEFE" offset="78.61%"/><stop stop-color="#CEFEFD" offset="97.17%"/><stop stop-color="#CBFEFD" offset="99.46%"/></linearGradient><linearGradient x1="49.999%" y1="100.001%" x2="49.999%" y2=".001%" id="linearGradient-65"><stop stop-color="#FFF" offset="0%"/><stop stop-color="#EAFFFE" offset="45.2%"/><stop stop-color="#CBFEFD" offset="99.46%"/></linearGradient><linearGradient x1="50.747%" y1="57.213%" x2="118.081%" y2="27.274%" id="linearGradient-66"><stop stop-color="#FFF" offset="0%"/><stop stop-color="#FCFFFF" offset="34.39%"/><stop stop-color="#F3FFFF" offset="58.11%"/><stop stop-color="#E4FEFE" offset="78.61%"/><stop stop-color="#CEFEFD" offset="97.17%"/><stop stop-color="#CBFEFD" offset="99.46%"/></linearGradient><linearGradient x1=".002%" y1="50.007%" x2="100.002%" y2="50.007%" id="linearGradient-67"><stop stop-color="#FFF" offset="0%"/><stop stop-color="#EAFFFE" offset="45.2%"/><stop stop-color="#CBFEFD" offset="99.46%"/></linearGradient><linearGradient x1=".002%" y1="50.001%" x2="100.002%" y2="50.001%" id="linearGradient-68"><stop stop-color="#FFF" offset="0%"/><stop stop-color="#EAFFFE" offset="45.2%"/><stop stop-color="#CBFEFD" offset="99.46%"/></linearGradient><linearGradient x1=".003%" y1="50.007%" x2="100.003%" y2="50.007%" id="linearGradient-69"><stop stop-color="#FFF" offset="0%"/><stop stop-color="#EAFFFE" offset="45.2%"/><stop stop-color="#CBFEFD" offset="99.46%"/></linearGradient><linearGradient x1=".003%" y1="50.001%" x2="100.003%" y2="50.001%" id="linearGradient-70"><stop stop-color="#FFF" offset="0%"/><stop stop-color="#EAFFFE" offset="45.2%"/><stop stop-color="#CBFEFD" offset="99.46%"/></linearGradient><linearGradient x1="-.002%" y1="50.002%" x2="100%" y2="50.002%" id="linearGradient-71"><stop stop-color="#7BE4BC" offset="0%"/><stop stop-color="#78E2BE" offset="27.73%"/><stop stop-color="#6FDDC4" offset="46.86%"/><stop stop-color="#60D5CE" offset="63.39%"/><stop stop-color="#4AC8DC" offset="78.45%"/><stop stop-color="#2EB9EF" offset="92.38%"/><stop stop-color="#1DAFFA" offset="99.46%"/></linearGradient><linearGradient x1=".002%" y1="49.95%" x2="100.002%" y2="49.95%" id="linearGradient-72"><stop stop-color="#7BE4BC" offset="0%"/><stop stop-color="#78E2BE" offset="27.73%"/><stop stop-color="#6FDDC4" offset="46.86%"/><stop stop-color="#60D5CE" offset="63.39%"/><stop stop-color="#4AC8DC" offset="78.45%"/><stop stop-color="#2EB9EF" offset="92.38%"/><stop stop-color="#1DAFFA" offset="99.46%"/></linearGradient><linearGradient x1="-.001%" y1="50.002%" x2="100%" y2="50.002%" id="linearGradient-73"><stop stop-color="#7BE4BC" offset="0%"/><stop stop-color="#78E2BE" offset="27.73%"/><stop stop-color="#6FDDC4" offset="46.86%"/><stop stop-color="#60D5CE" offset="63.39%"/><stop stop-color="#4AC8DC" offset="78.45%"/><stop stop-color="#2EB9EF" offset="92.38%"/><stop stop-color="#1DAFFA" offset="99.46%"/></linearGradient><linearGradient x1="0%" y1="49.95%" x2="100.001%" y2="49.95%" id="linearGradient-74"><stop stop-color="#7BE4BC" offset="0%"/><stop stop-color="#78E2BE" offset="27.73%"/><stop stop-color="#6FDDC4" offset="46.86%"/><stop stop-color="#60D5CE" offset="63.39%"/><stop stop-color="#4AC8DC" offset="78.45%"/><stop stop-color="#2EB9EF" offset="92.38%"/><stop stop-color="#1DAFFA" offset="99.46%"/></linearGradient><linearGradient x1="49.999%" y1="100.001%" x2="49.999%" y2=".001%" id="linearGradient-75"><stop stop-color="#FFF" offset="0%"/><stop stop-color="#EAFFFE" offset="45.2%"/><stop stop-color="#CBFEFD" offset="99.46%"/></linearGradient><linearGradient x1="-13.651%" y1="49.998%" x2="175.519%" y2="49.998%" id="linearGradient-76"><stop stop-color="#320A5F" offset=".54%"/><stop stop-color="#4C1DD7" offset="100%"/></linearGradient><linearGradient x1="-13.651%" y1="49.997%" x2="175.519%" y2="49.997%" id="linearGradient-77"><stop stop-color="#320A5F" offset=".54%"/><stop stop-color="#4C1DD7" offset="100%"/></linearGradient></defs><g id="Page-1" stroke="none" stroke-width="1" fill="none" fill-rule="evenodd"><g id="1"><g id="Clipped"><g id="Group"><circle id="Oval" fill="url(#radialGradient-1)" cx="439.703" cy="132.497" r="118.465"/><g transform="translate(254)"><g id="Oval"><circle fill="#FFF" opacity=".15" cx="14.921" cy="14.68" r="13.923"/><circle fill="url(#linearGradient-2)" cx="14.921" cy="14.68" r="7.667"/></g><g transform="translate(242 32)" fill="#FFF"><path d="M4.884.901A4.456 4.456 0 0 0 .42 5.365a4.458 4.458 0 0 0 4.464 4.466 4.456 4.456 0 0 0 4.463-4.466A4.455 4.455 0 0 0 4.884.901z" id="Path" opacity=".1"/><circle id="Oval" cx="4.884" cy="5.365" r="1.05"/></g><g transform="translate(130 24)" fill="#FFF"><path d="M7.468.34A6.502 6.502 0 0 0 .956 6.851a6.505 6.505 0 0 0 6.512 6.516 6.503 6.503 0 0 0 6.512-6.516A6.5 6.5 0 0 0 7.468.34z" id="Path" opacity=".1"/><circle id="Oval" cx="7.468" cy="6.851" r="1.533"/></g><g transform="translate(23 98)" fill="#FFF"><path d="M7.664.013A6.756 6.756 0 0 0 .898 6.78a6.759 6.759 0 0 0 6.766 6.77 6.756 6.756 0 0 0 6.767-6.77A6.753 6.753 0 0 0 7.664.013z" id="Path" opacity=".1"/><circle id="Oval" cx="7.664" cy="6.78" r="1.592"/></g><g id="Path"><path d="M13.08.671A12.587 12.587 0 0 0 .473 13.28 12.592 12.592 0 0 0 13.08 25.893 12.588 12.588 0 0 0 25.688 13.28C25.688 6.3 20.066.671 13.08.671z" fill="#FFF" opacity=".1" transform="translate(64 30)"/><path d="M13.079 10.024a3.249 3.249 0 0 0-3.254 3.256 3.251 3.251 0 0 0 3.254 3.255 3.25 3.25 0 0 0 3.254-3.255 3.248 3.248 0 0 0-3.254-3.256z" fill="url(#radialGradient-3)" transform="translate(64 30)"/></g><g fill="#FFF" id="Path"><path d="M2.885.878a.374.374 0 0 0-.375.375v4.125a.374.374 0 1 0 .75 0V1.253a.376.376 0 0 0-.375-.375z" transform="translate(279 18)"/><path d="M4.947 2.94H.822a.374.374 0 1 0 0 .75h4.125a.376.376 0 0 0 0-.75z" transform="translate(279 18)"/></g><g fill="#FFF" id="Path"><path d="M4.808.684a.682.682 0 0 0-.681.681v7.489a.681.681 0 0 0 1.362 0V1.365a.682.682 0 0 0-.681-.681z" transform="translate(100 80)"/><path d="M8.552 4.429H1.063a.682.682 0 0 0 0 1.362h7.489a.681.681 0 0 0 0-1.362z" transform="translate(100 80)"/></g><g fill="#FFF" id="Path"><path d="M2.679.035a.375.375 0 0 0-.375.375v4.125a.375.375 0 0 0 .75 0V.41a.375.375 0 0 0-.375-.375z" transform="translate(297 103)"/><path d="M4.741 2.098H.616a.375.375 0 0 0 0 .75h4.125a.375.375 0 0 0 0-.75z" transform="translate(297 103)"/></g><g fill="#FFF" id="Path"><path d="M1.741.86a.241.241 0 0 0-.241.242v2.65c0 .133.107.242.241.242.133 0 .24-.109.24-.242v-2.65a.242.242 0 0 0-.24-.242z" transform="translate(270 111)"/><path d="M3.066 2.187H.415a.24.24 0 1 0 0 .482h2.651a.24.24 0 0 0 .241-.24.24.24 0 0 0-.241-.242z" transform="translate(270 111)"/></g><g id="Path"><path d="M33.859 11.576C9.413 27.155-2.479 54.994 1.066 81.96c50.884 9.555 101.101-2.443 140.932-29.791a72.17 72.17 0 0 0-8.396-18.492C112.163.032 67.503-9.863 33.859 11.576z" fill="#FFF" opacity=".15" transform="translate(4 108)"/><path d="M51.304 38.95C35.553 48.988 29.265 68.265 34.989 85.203c27.11.124 53.392-5.647 77.301-16.352a39.602 39.602 0 0 0-6.062-17.73C94.421 32.595 69.834 27.142 51.304 38.95z" fill="url(#linearGradient-4)" transform="translate(4 108)"/></g><g transform="translate(272 44)" id="Oval"><circle fill="#FFF" opacity=".15" cx="20.825" cy="21.337" r="20.707"/><circle fill="url(#linearGradient-5)" cx="20.825" cy="21.337" r="11.402"/></g></g><path d="M405.497 160.609c-130.843-38.404-156.357 85.859-238.201 43.251C74.688 155.647 42.098 191.942.179 153.851v160.523h600V138.942c-61.45 0-59.295 61.405-194.682 21.667z" id="Path" fill="url(#linearGradient-6)"/><path d="M406.552 254.986c-50.388 33.217-89.388-37.544-153.388-4.024-63.294 33.15-63.702-64.135-160-31.436-40.012 13.586-66.5 14.416-92.984 7.916v86.933h600V211.942c-17.516 0-33.516 11.167-59.35 28-44.578 29.049-75.122-23.952-134.278 15.044z" id="Path" fill="url(#linearGradient-7)"/><g id="Path"><path d="M408.667 36.87c-59.52 12.925-75.289-15.52-143.503 8.4-67.463 23.655-92.718-49.279-181-34.805C47.482 16.48 26.664 7.442.18.942v4.667c26.484 6.5 47.303 12.938 83.984 6.923 88.282-14.475 113.537 59.724 181 36.068 68.214-23.92 83.983 3.011 143.503-9.914 69.876-15.175 81.585 19.111 126.163-3.921 25.834-13.348 47.834-21.99 65.35-21.99v-2.193c-17.516 0-39.516 7.136-65.35 20.483-44.578 23.032-56.287-9.369-126.163 5.805z" fill="#FFF" transform="translate(0 192)"/><path d="M408.634 37.3c-59.356 13.287-75.544-15.928-143.683 8.163-67.388 23.825-92.204-49.532-180.629-34.732C47.581 16.88 26.664 7.976.18 1.476v4.667c26.484 6.5 47.404 12.808 84.145 6.657C172.75-2 197.562 72.61 264.95 48.785c68.139-24.091 84.323 3.622 143.68-9.665 69.685-15.6 81.729 19.021 126.308-4.119 25.834-13.41 47.727-22.098 65.243-22.098v-2.198c-17.516 0-39.379 7.169-65.207 20.605-44.571 23.186-56.655-9.609-126.34 5.99z" fill="url(#linearGradient-8)" transform="translate(0 192)"/><path d="M408.602 37.729c-59.193 13.649-75.8-16.336-143.863 7.927C197.425 69.65 173.049-4.131 84.48 10.995 47.68 17.28 26.665 8.508.18 2.008v4.667c26.484 6.5 47.505 12.678 84.306 6.393 88.569-15.125 112.936 59.897 180.25 35.903 68.063-24.263 84.663 4.233 143.856-9.416 69.493-16.025 81.875 18.929 126.453-4.318 25.834-13.473 47.62-22.205 65.135-22.205v-2.203c-17.516 0-39.242 7.201-65.065 20.728-44.56 23.338-57.02-9.852-126.513 6.172z" fill="url(#linearGradient-9)" transform="translate(0 192)"/><path d="M408.569 38.16c-59.03 14.012-76.055-16.745-144.043 7.688-67.24 24.164-91.177-50.04-179.889-34.59C47.777 17.679 26.664 9.04.179 2.54v4.667c26.484 6.5 47.606 12.548 84.466 6.128C173.357-2.116 197.281 73.318 264.52 49.154c67.988-24.434 85.002 4.845 144.033-9.167 69.302-16.451 82.02 18.838 126.598-4.517 25.834-13.534 47.513-22.313 65.028-22.313v-2.208c-17.516 0-39.105 7.234-64.922 20.85-44.55 23.495-57.386-10.089-126.688 6.361z" fill="url(#linearGradient-10)" transform="translate(0 192)"/><path d="M408.536 38.59c-58.867 14.374-76.31-17.153-144.223 7.452C197.148 70.375 173.65-4.253 84.795 11.523c-36.92 6.556-58.131-1.95-84.616-8.45V7.74c26.484 6.5 47.708 12.419 84.627 5.863 88.854-15.776 112.334 60.07 179.5 35.737 67.913-24.605 85.341 5.456 144.209-8.919 69.11-16.876 82.165 18.747 126.743-4.715 25.834-13.597 47.405-22.42 64.921-22.42v-2.213c-17.516 0-38.968 7.267-64.78 20.972-44.541 23.648-57.753-10.331-126.863 6.545z" fill="url(#linearGradient-11)" transform="translate(0 192)"/><path d="M408.503 39.02c-58.705 14.736-76.565-17.563-144.403 7.215-67.09 24.503-90.149-50.548-179.147-34.446C47.974 18.479 26.664 10.107.18 3.607v4.667c26.484 6.5 47.809 12.288 84.788 5.598C173.966-2.23 197.002 74.029 264.093 49.526c67.837-24.776 85.681 6.067 144.385-8.669 68.919-17.302 82.31 18.655 126.888-4.914 25.834-13.659 47.298-22.527 64.814-22.527v-2.218c-17.516 0-38.831 7.3-64.638 21.094-44.532 23.8-58.12-10.573-127.039 6.728z" fill="url(#linearGradient-12)" transform="translate(0 192)"/><path d="M408.471 39.449c-58.542 15.099-76.821-17.971-144.583 6.979C196.871 71.1 174.252-4.375 85.111 12.053 48.072 18.879 26.664 10.639.18 4.139v4.667c26.484 6.5 47.91 12.159 84.949 5.333 89.141-16.427 111.734 60.245 178.75 35.572 67.762-24.948 86.021 6.678 144.562-8.421 68.728-17.727 82.455 18.564 127.033-5.112 25.834-13.722 47.191-22.635 64.707-22.635V11.32c-17.516 0-38.694 7.332-64.496 21.215-44.524 23.956-58.487-10.812-127.214 6.914z" fill="url(#linearGradient-13)" transform="translate(0 192)"/><path d="M408.438 39.879C350.06 55.341 331.362 21.5 263.675 46.62 196.733 71.462 174.553-4.436 85.269 12.317 48.171 19.278 26.665 11.171.18 4.671v4.667c26.484 6.5 48.012 12.028 85.109 5.067 89.284-16.753 111.433 60.332 178.375 35.489 67.687-25.119 86.36 7.29 144.738-8.172 68.536-18.152 82.6 18.474 127.178-5.311 25.834-13.783 47.084-22.742 64.6-22.742v-2.228c-17.516 0-38.557 7.365-64.353 21.337-44.514 24.113-58.853-11.05-127.389 7.101z" fill="url(#linearGradient-14)" transform="translate(0 192)"/><path d="M408.405 40.309c-58.215 15.824-77.331-18.787-144.943 6.504-66.867 25.012-88.608-51.309-178.036-34.231-37.157 7.097-58.762-.877-85.247-7.377v4.667c26.484 6.5 48.113 11.899 85.27 4.803 89.427-17.078 111.133 60.419 178 35.407 67.612-25.292 86.7 7.9 144.915-7.923 68.345-18.578 82.744 18.382 127.322-5.51 25.834-13.846 46.977-22.85 64.493-22.85v-2.232c-17.516 0-38.42 7.397-64.211 21.459-44.504 24.263-59.218-11.294-127.563 7.283z" fill="url(#linearGradient-15)" transform="translate(0 192)"/><path d="M408.372 40.739c-58.052 16.186-77.586-19.196-145.123 6.267-66.793 25.181-88.095-51.563-177.666-34.16-37.217 7.231-58.92-.608-85.404-7.108v4.667c26.484 6.5 48.214 11.77 85.431 4.538 89.571-17.404 110.832 60.505 177.625 35.323 67.537-25.463 87.04 8.513 145.092-7.674 68.153-19.003 82.889 18.291 127.467-5.708 25.834-13.908 46.87-22.957 64.385-22.957V11.69c-17.516 0-38.283 7.431-64.068 21.581-44.495 24.417-59.586-11.535-127.739 7.468z" fill="url(#linearGradient-16)" transform="translate(0 192)"/><path d="M408.339 41.169c-57.889 16.548-77.841-19.604-145.303 6.029C196.317 72.55 175.455-4.618 85.741 13.11 48.465 20.477 26.663 12.769.179 6.269v4.667c26.484 6.5 48.315 11.64 85.591 4.273C175.484-2.52 196.302 75.801 263.02 50.45c67.461-25.635 87.379 9.123 145.268-7.426 67.962-19.428 83.034 18.2 127.612-5.907 25.834-13.97 46.763-23.063 64.278-23.063V11.81c-17.516 0-38.146 7.464-63.926 21.704-44.484 24.573-59.951-11.773-127.913 7.655z" fill="url(#linearGradient-17)" transform="translate(0 192)"/><path d="M408.307 41.599c-57.726 16.911-78.097-20.013-145.483 5.793C196.18 72.913 175.757-4.679 85.9 13.375 48.564 20.877 26.664 13.303.18 6.803v4.667c26.484 6.5 48.417 11.51 85.752 4.008 89.856-18.055 110.231 60.679 176.875 35.158 67.386-25.806 87.719 9.734 145.444-7.176 67.771-19.854 83.179 18.108 127.757-6.106 25.834-14.032 46.655-23.17 64.171-23.17v-2.249c-17.516 0-38.009 7.497-63.784 21.826-44.476 24.725-60.318-12.016-128.088 7.838z" fill="url(#linearGradient-18)" transform="translate(0 192)"/><path d="M408.274 42.028c-57.563 17.273-78.352-20.421-145.663 5.556C196.042 73.274 176.057-4.74 86.058 13.64 48.662 21.277 26.664 13.835.18 7.335v4.667c26.484 6.5 48.518 11.381 85.913 3.743 90-18.38 109.93 60.766 176.5 35.076 67.311-25.978 88.058 10.346 145.621-6.928 67.579-20.279 83.324 18.018 127.902-6.305 25.834-14.094 46.548-23.277 64.064-23.277v-2.254c-17.516 0-37.872 7.529-63.642 21.948-44.467 24.881-60.685-12.255-128.264 8.023z" fill="url(#linearGradient-19)" transform="translate(0 192)"/><path d="M408.241 42.458c-57.399 17.636-78.607-20.829-145.843 5.319-66.495 25.859-86.04-52.579-176.183-33.874-37.455 7.772-59.551.465-86.036-6.035v4.667c26.484 6.5 48.619 11.25 86.074 3.478 90.143-18.705 109.63 60.853 176.125 34.993 67.235-26.148 88.398 10.957 145.797-6.679 67.388-20.704 83.469 17.927 128.047-6.503 25.834-14.156 46.441-23.385 63.957-23.385V12.18c-17.516 0-37.735 7.563-63.499 22.07-44.458 25.034-61.051-12.496-128.439 8.208z" fill="url(#linearGradient-20)" transform="translate(0 192)"/><path d="M408.208 42.889c-57.236 17.997-78.863-21.238-146.023 5.081-66.421 26.029-85.526-52.832-175.813-33.802C48.858 22.076 26.663 14.9.179 8.4v4.667c26.484 6.5 48.72 11.121 86.234 3.214 90.286-19.031 109.329 60.938 175.75 34.91 67.16-26.32 88.738 11.568 145.974-6.43 67.196-21.13 83.614 17.835 128.192-6.702 25.834-14.219 46.334-23.492 63.85-23.492v-2.264c-17.516 0-37.598 7.596-63.357 22.192-44.448 25.189-61.418-12.736-128.614 8.394z" fill="url(#linearGradient-21)" transform="translate(0 192)"/><path d="M408.176 43.318c-57.074 18.359-79.118-21.647-146.203 4.844C195.627 74.361 176.96-4.923 86.531 14.433 48.957 22.476 26.664 15.434.18 8.934v4.667c26.484 6.5 48.821 10.99 86.395 2.948C177.004-2.807 195.604 77.574 261.95 51.376c67.085-26.491 89.077 12.18 146.151-6.181 67.004-21.556 83.758 17.743 128.336-6.9 25.834-14.281 46.227-23.6 63.743-23.6v-2.269c-17.516 0-37.461 7.628-63.214 22.314-44.441 25.343-61.786-12.976-128.79 8.578z" fill="url(#linearGradient-22)" transform="translate(0 192)"/><path d="M408.143 43.748c-56.911 18.723-79.373-22.056-146.383 4.607-66.272 26.368-84.499-53.34-175.072-33.658C49.055 22.875 26.664 15.966.179 9.466v4.667c26.484 6.5 48.923 10.861 86.556 2.684 90.573-19.682 108.729 61.112 175 34.744 67.01-26.662 89.417 12.791 146.327-5.932 66.813-21.98 83.904 17.652 128.482-7.099 25.834-14.344 46.12-23.707 63.635-23.707V12.55c-17.516 0-37.325 7.661-63.072 22.437-44.43 25.494-62.151-13.219-128.964 8.761z" fill="url(#linearGradient-23)" transform="translate(0 192)"/><path d="M408.11 44.178c-56.748 19.085-79.628-22.464-146.563 4.37C195.35 75.086 177.562-5.045 86.846 14.962 49.154 23.275 26.664 16.499.179 9.999v4.667c26.484 6.5 49.024 10.731 86.716 2.418 90.716-20.007 108.428 61.2 174.625 34.662 66.935-26.834 89.756 13.402 146.504-5.683 66.622-22.406 84.048 17.561 128.626-7.298 25.834-14.405 46.013-23.814 63.528-23.814v-2.278c-17.516 0-37.188 7.693-62.93 22.558-44.419 25.65-62.516-13.459-129.138 8.947z" fill="url(#linearGradient-24)" transform="translate(0 192)"/><path d="M408.078 44.607c-56.584 19.447-79.884-22.872-146.743 4.134-66.123 26.707-83.472-53.848-174.33-33.516-37.752 8.449-60.34 1.806-86.825-4.694v4.667c26.484 6.5 49.125 10.602 86.877 2.153 90.858-20.332 108.127 61.287 174.25 34.579 66.859-27.005 90.096 14.014 146.68-5.434 66.43-22.831 84.193 17.47 128.771-7.496 25.834-14.468 45.905-23.922 63.421-23.922v-2.283c-17.516 0-37.051 7.727-62.788 22.68-44.411 25.805-62.883-13.699-129.313 9.132z" fill="url(#linearGradient-25)" transform="translate(0 192)"/><path d="M408.045 45.037c-56.421 19.81-80.139-23.28-146.923 3.896C195.074 75.81 178.164-5.168 87.163 15.49 49.351 24.074 26.665 17.564.181 11.064v4.667c26.484 6.5 49.227 10.472 87.038 1.888C178.22-3.038 195.046 78.993 261.094 52.116 327.878 24.939 351.53 66.74 407.95 46.93c66.239-23.257 84.338 17.379 128.917-7.694 25.834-14.53 45.798-24.029 63.314-24.029v-2.288c-17.516 0-36.914 7.759-62.645 22.802-44.405 25.958-63.252-13.94-129.491 9.316z" fill="url(#linearGradient-26)" transform="translate(0 192)"/><path d="M408.012 45.468c-56.258 20.172-80.394-23.689-147.103 3.659C194.935 76.173 178.465-5.228 87.32 15.755 49.449 24.474 26.664 18.097.18 11.597v4.667c26.484 6.5 49.328 10.343 87.199 1.624 91.145-20.983 107.526 61.46 173.5 34.413 66.709-27.348 90.775 15.236 147.033-4.936 66.047-23.683 84.483 17.287 129.062-7.894 25.834-14.593 45.691-24.137 63.207-24.137v-2.293c-17.516 0-36.777 7.792-62.503 22.924-44.395 26.113-63.618-14.18-129.666 9.503z" fill="url(#linearGradient-27)" transform="translate(0 192)"/><path d="M407.979 45.897c-56.095 20.534-80.649-24.098-147.283 3.422-65.899 27.216-81.931-54.608-173.219-33.3-37.93 8.854-60.813 2.61-87.298-3.89v4.667c26.484 6.5 49.429 10.212 87.359 1.358 91.288-21.31 107.226 61.547 173.125 34.331 66.634-27.52 91.115 15.847 147.209-4.688 65.856-24.107 84.628 17.196 129.207-8.092 25.834-14.654 45.584-24.244 63.1-24.244v-2.298c-17.516 0-36.64 7.824-62.36 23.046-44.384 26.269-63.984-14.419-129.84 9.688z" fill="url(#linearGradient-28)" transform="translate(0 192)"/><path d="M407.946 46.327c-55.932 20.896-80.904-24.506-147.463 3.185-65.825 27.386-81.417-54.861-172.848-33.228-37.99 8.989-60.971 2.878-87.456-3.622v4.667c26.484 6.5 49.53 10.083 87.52 1.094 91.431-21.635 106.925 61.634 172.75 34.248 66.559-27.691 91.454 16.459 147.386-4.438 65.665-24.532 84.773 17.105 129.351-8.29 25.834-14.717 45.477-24.352 62.993-24.352v-2.303c-17.516 0-36.503 7.857-62.218 23.168-44.375 26.42-64.35-14.661-130.015 9.871z" fill="url(#linearGradient-29)" transform="translate(0 192)"/><path d="M407.914 46.757c-55.769 21.259-81.16-24.914-147.643 2.948C194.52 77.26 179.368-5.411 87.793 16.548 49.744 25.673 26.664 19.695.18 13.195v4.667c26.484 6.5 49.631 9.952 87.681.828 91.575-21.96 106.625 61.721 172.375 34.166 66.483-27.863 91.794 17.069 147.563-4.189 65.473-24.959 84.918 17.014 129.496-8.489 25.834-14.779 45.37-24.459 62.885-24.459v-2.308c-17.516 0-36.366 7.89-62.076 23.29-44.366 26.574-64.717-14.902-130.19 10.056z" fill="url(#linearGradient-30)" transform="translate(0 192)"/><path d="M407.881 47.187c-55.606 21.622-81.415-25.323-147.823 2.711-65.676 27.725-80.39-55.369-172.107-33.085-38.108 9.26-61.287 3.415-87.771-3.085v4.667c26.484 6.5 49.733 9.823 87.841.563 91.718-22.285 106.324 61.808 172 34.083 66.408-28.034 92.134 17.681 147.739-3.94 65.282-25.384 85.063 16.923 129.641-8.688 25.834-14.842 45.263-24.566 62.778-24.566v-2.313c-17.516 0-36.229 7.923-61.934 23.412-44.356 26.728-65.082-15.142-130.364 10.241z" fill="url(#linearGradient-31)" transform="translate(0 192)"/><path d="M407.848 47.616c-55.443 21.984-81.67-25.731-148.003 2.475-65.602 27.894-79.876-55.624-171.736-33.014C49.941 26.473 26.664 20.761.18 14.261v4.667c26.484 6.5 49.834 9.693 88.002.298 91.86-22.61 106.023 61.895 171.625 34.001 66.333-28.206 92.473 18.292 147.916-3.692 65.09-25.809 85.208 16.832 129.786-8.886 25.834-14.904 45.155-24.674 62.671-24.674v-2.317c-17.516 0-36.092 7.955-61.791 23.534-44.348 26.881-65.451-15.384-130.541 10.424z" fill="url(#linearGradient-32)" transform="translate(0 192)"/><path d="M407.815 48.047c-55.28 22.346-81.925-26.141-148.183 2.236C194.105 78.346 180.27-5.594 88.266 17.342c-38.228 9.53-61.603 3.951-88.087-2.549v4.667c26.484 6.5 49.935 9.563 88.163.034 92.003-22.937 105.723 61.98 171.25 33.917 66.257-28.377 92.813 18.903 148.092-3.442 64.899-26.234 85.353 16.74 129.931-9.085 25.834-14.966 45.048-24.781 62.564-24.781v-2.322c-17.516 0-35.955 7.988-61.649 23.656-44.338 27.036-65.816-15.624-130.715 10.61z" fill="url(#linearGradient-33)" transform="translate(0 192)"/><path d="M407.783 48.477c-55.117 22.708-82.181-26.549-148.363 2-65.453 28.232-78.849-56.132-170.996-32.87-38.287 9.665-61.76 4.22-88.245-2.28v4.667c26.484 6.5 50.037 9.434 88.324-.231C180.65-3.499 193.925 81.83 259.378 53.598c66.182-28.549 93.152 19.515 148.269-3.194 64.708-26.66 85.498 16.649 130.076-9.283 25.834-15.028 44.941-24.889 62.457-24.889v-2.327c-17.516 0-35.818 8.021-61.506 23.778-44.33 27.188-66.184-15.867-130.891 10.794z" fill="url(#linearGradient-34)" transform="translate(0 192)"/><path d="M407.75 48.906c-54.954 23.071-82.436-26.957-148.543 1.763-65.378 28.403-78.335-56.385-170.625-32.798C50.235 27.672 26.664 22.359.18 15.859v4.667c26.484 6.5 50.138 9.304 88.484-.497 92.29-23.587 105.122 62.155 170.5 33.752 66.107-28.72 93.492 20.126 148.445-2.944 64.516-27.086 85.643 16.558 130.221-9.482 25.834-15.091 44.834-24.995 62.35-24.995v-2.333c-17.516 0-35.681 8.054-61.364 23.9-44.32 27.344-66.55-16.106-131.066 10.979z" fill="url(#linearGradient-35)" transform="translate(0 192)"/><path d="M407.717 49.336c-54.791 23.434-82.691-27.365-148.723 1.525C193.69 79.434 181.173-5.777 88.74 18.134 50.334 28.071 26.664 22.891.18 16.391v4.667c26.484 6.5 50.239 9.174 88.645-.762C181.258-3.616 193.646 82.538 258.95 53.965c66.032-28.891 93.832 20.737 148.622-2.695 64.325-27.511 85.787 16.467 130.365-9.682 25.834-15.152 44.727-25.102 62.243-25.102v-2.339c-17.516 0-35.544 8.088-61.222 24.022-44.311 27.501-66.916-16.343-131.241 11.167z" fill="url(#linearGradient-36)" transform="translate(0 192)"/><path d="M407.685 49.766c-54.627 23.796-82.947-27.773-148.903 1.289C193.552 79.797 181.474-5.838 88.898 18.4 50.433 28.471 26.665 23.425.18 16.925v4.667c26.484 6.5 50.34 9.044 88.806-1.027 92.577-24.237 104.521 62.329 169.75 33.587 65.957-29.063 94.171 21.349 148.798-2.447 64.133-27.936 85.933 16.376 130.511-9.88 25.834-15.215 44.62-25.209 62.135-25.209v-2.344c-17.516 0-35.407 8.12-61.08 24.145-44.301 27.651-67.282-16.587-131.415 11.349z" fill="url(#linearGradient-37)" transform="translate(0 192)"/><path d="M407.652 50.196c-54.464 24.157-83.202-28.183-149.083 1.051-65.155 28.912-76.794-57.146-169.514-32.583C50.53 28.87 26.664 23.957.18 17.457v4.667c26.484 6.5 50.441 8.914 88.966-1.291 92.72-24.563 104.22 62.415 169.375 33.503 65.881-29.233 94.511 21.96 148.975-2.197 63.942-28.362 86.077 16.284 130.655-10.079 25.834-15.276 44.513-25.316 62.028-25.316v-2.349c-17.516 0-35.271 8.153-60.937 24.267-44.292 27.806-67.648-16.827-131.59 11.534z" fill="url(#linearGradient-38)" transform="translate(0 192)"/><path d="M407.619 50.626c-54.301 24.52-83.457-28.591-149.263.814-65.081 29.081-76.28-57.4-169.143-32.512C50.628 29.27 26.664 24.49.179 17.99v4.667c26.484 6.5 50.542 8.784 89.127-1.557 92.862-24.889 103.919 62.502 169 33.421 65.806-29.405 94.85 22.571 149.151-1.949 63.75-28.787 86.222 16.193 130.8-10.277 25.834-15.339 44.405-25.424 61.921-25.424v-2.354c-17.516 0-35.133 8.186-60.795 24.389-44.281 27.961-68.013-17.067-131.764 11.72z" fill="url(#linearGradient-39)" transform="translate(0 192)"/><path d="M407.586 51.056c-54.139 24.883-83.712-29-149.443.577C193.137 80.884 182.376-6.02 89.371 19.194 50.727 29.671 26.664 25.023.18 18.523v4.667c26.484 6.5 50.644 8.655 89.288-1.821 93.005-25.214 103.619 62.589 168.625 33.338 65.73-29.576 95.189 23.183 149.328-1.7 63.559-29.212 86.367 16.103 130.945-10.476C564.2 27.13 582.664 17 600.18 17v-2.358c-17.516 0-34.997 8.219-60.652 24.511-44.275 28.113-68.383-17.309-131.942 11.903z" fill="url(#linearGradient-40)" transform="translate(0 192)"/><path d="M407.554 51.485c-53.976 25.245-83.968-29.408-149.623.341-64.932 29.42-75.253-57.908-168.402-32.369C50.825 30.069 26.664 25.556.18 19.056v4.667c26.484 6.5 50.745 8.524 89.449-2.087 93.149-25.539 103.318 62.676 168.25 33.256 65.655-29.748 95.529 23.793 149.504-1.451 63.368-29.638 86.512 16.011 131.09-10.675 25.834-15.464 44.191-25.639 61.707-25.639v-2.363c-17.516 0-34.859 8.251-60.51 24.633-44.265 28.268-68.749-17.549-132.116 12.088z" fill="url(#linearGradient-41)" transform="translate(0 192)"/><path d="M407.521 51.915c-53.812 25.607-84.223-29.816-149.803.104-64.857 29.59-74.739-58.161-168.031-32.297C50.924 30.469 26.665 26.088.18 19.588v4.667c26.484 6.5 50.847 8.396 89.609-2.352 93.292-25.865 103.018 62.763 167.875 33.173 65.58-29.919 95.869 24.405 149.681-1.202 63.176-30.063 86.657 15.92 131.235-10.873 25.834-15.525 44.084-25.746 61.6-25.746v-2.368c-17.516 0-34.723 8.284-60.368 24.755-44.255 28.422-69.115-17.789-132.291 12.273z" fill="url(#linearGradient-42)" transform="translate(0 192)"/><path d="M407.488 52.345c-53.649 25.97-84.478-30.225-149.983-.134-64.783 29.76-74.226-58.414-167.661-32.225-38.822 10.883-63.18 6.635-89.665.135v4.667c26.484 6.5 50.948 8.266 89.77-2.617 93.435-26.19 102.717 62.85 167.5 33.091 65.505-30.092 96.208 25.016 149.857-.954 62.985-30.488 86.802 15.829 131.38-11.071 25.834-15.588 43.977-25.854 61.493-25.854V15.01c-17.516 0-34.585 8.316-60.226 24.877-44.245 28.576-69.48-18.03-132.465 12.458z" fill="url(#linearGradient-43)" transform="translate(0 192)"/><path d="M407.455 52.775c-53.486 26.332-84.733-30.634-150.163-.371C192.584 82.333 183.58-6.265 90.001 20.251c-38.882 11.018-63.338 6.902-89.822.402v4.667c26.484 6.5 51.049 8.136 89.931-2.881 93.579-26.517 102.417 62.936 167.125 33.007 65.43-30.263 96.548 25.628 150.034-.704 62.793-30.914 86.947 15.737 131.525-11.271 25.834-15.65 43.87-25.961 61.385-25.961v-2.378c-17.516 0-34.449 8.35-60.083 24.999-44.236 28.731-69.847-18.27-132.641 12.644z" fill="url(#linearGradient-44)" transform="translate(0 192)"/><path d="M407.422 53.205c-53.323 26.694-84.988-31.042-150.343-.608-64.634 30.099-73.198-58.922-166.92-32.081-38.941 11.152-63.496 7.171-89.98.671v4.667c26.484 6.5 51.15 8.006 90.091-3.146C183.992-4.134 192.386 85.73 257.02 55.633c65.354-30.435 96.888 26.238 150.21-.456 62.602-31.339 87.092 15.646 131.67-11.469 25.834-15.713 43.763-26.068 61.278-26.068v-2.383c-17.516 0-34.312 8.382-59.941 25.121-44.226 28.883-70.213-18.512-132.815 12.827z" fill="url(#linearGradient-45)" transform="translate(0 192)"/><path d="M407.39 53.635c-53.16 27.057-85.244-31.45-150.523-.845-64.56 30.268-72.685-59.177-166.549-32.011-39.001 11.288-63.654 7.439-90.138.939v4.667c26.484 6.5 51.251 7.876 90.252-3.411 93.864-27.167 101.815 63.109 166.375 32.842 65.279-30.605 97.227 26.85 150.387-.207 62.411-31.765 87.237 15.556 131.815-11.667 25.834-15.775 43.655-26.176 61.171-26.176v-2.388c-17.516 0-34.175 8.415-59.798 25.243C496.163 69.66 469.8 21.87 407.39 53.635z" fill="url(#linearGradient-46)" transform="translate(0 192)"/><path d="M407.357 54.064c-52.997 27.419-85.499-31.858-150.703-1.082-64.485 30.438-72.171-59.43-166.178-31.938C51.415 32.468 26.664 28.752.18 22.252v4.667c26.484 6.5 51.353 7.746 90.413-3.677 94.007-27.492 101.515 63.197 166 32.76 65.204-30.777 97.566 27.461 150.563.042 62.219-32.19 87.381 15.464 131.959-11.866 25.834-15.837 43.548-26.283 61.064-26.283v-2.393c-17.516 0-34.038 8.447-59.656 25.364-44.209 29.194-70.947-18.991-133.166 13.198z" fill="url(#linearGradient-47)" transform="translate(0 192)"/><path d="M407.324 54.494c-52.833 27.782-85.754-32.267-150.883-1.318C192.03 83.782 184.784-6.509 90.633 21.309 51.513 32.868 26.664 29.285.179 22.785v4.667c26.484 6.5 51.454 7.617 90.574-3.941 94.151-27.817 101.214 63.284 165.625 32.677 65.128-30.948 97.906 28.072 150.74.291 62.028-32.615 87.527 15.373 132.105-12.064 25.834-15.899 43.441-26.391 60.957-26.391v-2.397c-17.516 0-33.901 8.48-59.514 25.486-44.2 29.345-71.314-19.234-133.342 13.381z" fill="url(#linearGradient-48)" transform="translate(0 192)"/><path d="M407.292 54.925c-52.67 28.144-86.01-32.676-151.063-1.557C191.893 84.144 185.085-6.57 90.791 21.573 51.612 33.266 26.664 29.817.18 23.317v4.667c26.484 6.5 51.555 7.486 90.734-4.206 94.294-28.144 100.914 63.37 165.25 32.594 65.053-31.12 98.246 28.684 150.917.539 61.836-33.04 87.671 15.282 132.25-12.263 25.834-15.962 43.334-26.498 60.85-26.498v-2.402c-17.516 0-33.764 8.514-59.372 25.608-44.191 29.501-71.682-19.472-133.517 13.569z" fill="url(#linearGradient-49)" transform="translate(0 192)"/><path d="M407.259 55.354c-52.508 28.506-86.265-33.085-151.243-1.794-64.262 30.946-70.63-60.19-165.067-31.723C51.71 33.666 26.664 30.349.18 23.849v4.667c26.484 6.5 51.656 7.357 90.895-4.471C185.512-4.424 191.688 87.502 255.95 56.556c64.979-31.291 98.585 29.295 151.093.789 61.645-33.467 87.816 15.189 132.394-12.462 25.834-16.024 43.227-26.605 60.743-26.605v-2.407c-17.516 0-33.627 8.546-59.229 25.73-44.182 29.656-72.048-19.712-133.692 13.753z" fill="url(#linearGradient-50)" transform="translate(0 192)"/><path d="M407.226 55.784c-52.345 28.868-86.52-33.493-151.423-2.03-64.188 31.115-70.116-60.445-164.697-31.652C51.808 34.067 26.664 30.883.179 24.383v4.667c26.484 6.5 51.758 7.228 91.056-4.736 94.581-28.794 100.313 63.544 164.5 32.428 64.903-31.462 98.925 29.906 151.27 1.038 61.454-33.892 87.961 15.099 132.54-12.66 25.834-16.087 43.12-26.713 60.635-26.713v-2.412c-17.516 0-33.49 8.579-59.087 25.853-44.173 29.807-72.414-19.955-133.867 13.936z" fill="url(#linearGradient-51)" transform="translate(0 192)"/><path d="M407.193 56.214c-52.182 29.23-86.775-33.901-151.603-2.268-64.113 31.285-69.603-60.698-164.326-31.58-39.357 12.1-64.6 9.049-91.084 2.549v4.667c26.484 6.5 51.859 7.098 91.216-5.001C186.12-4.538 191.408 88.212 255.521 56.927c64.828-31.634 99.265 30.518 151.446 1.286 61.262-34.316 88.106 15.008 132.684-12.858 25.834-16.148 43.013-26.82 60.528-26.82v-2.417c-17.516 0-33.353 8.611-58.944 25.975-44.163 29.962-72.78-20.196-134.042 14.121z" fill="url(#linearGradient-52)" transform="translate(0 192)"/><path d="M407.161 56.644c-52.019 29.594-87.031-34.31-151.783-2.504-64.039 31.454-69.089-60.953-163.955-31.509C52.006 34.865 26.665 31.948.18 25.448v4.667c26.484 6.5 51.96 6.968 91.377-5.267 94.866-29.444 99.711 63.718 163.75 32.263 64.752-31.805 99.604 31.129 151.623 1.536C468 23.905 495.181 73.563 539.759 45.589c25.834-16.211 42.905-26.928 60.421-26.928v-2.422c-17.516 0-33.216 8.645-58.802 26.097-44.154 30.118-73.147-20.435-134.217 14.308z" fill="url(#linearGradient-53)" transform="translate(0 192)"/><path d="M407.128 57.073c-51.855 29.956-87.286-34.718-151.963-2.741C191.201 85.957 186.59-6.874 91.581 22.895 52.104 35.265 26.665 32.48.181 25.98v4.667c26.484 6.5 52.062 6.838 91.538-5.531 95.009-29.77 99.411 63.805 163.375 32.181 64.677-31.977 99.944 31.739 151.799 1.784 60.879-35.168 88.396 14.825 132.974-13.257 25.834-16.272 42.798-27.033 60.314-27.033v-2.429c-17.516 0-33.079 8.678-58.66 26.22-44.146 30.271-73.514-20.676-134.393 14.491z" fill="url(#linearGradient-54)" transform="translate(0 192)"/><path d="M407.095 57.504c-51.692 30.317-87.541-35.127-152.143-2.979C191.062 86.319 186.89-6.936 91.738 23.16 52.202 35.665 26.664 33.014.18 26.514v4.667c26.484 6.5 52.163 6.708 91.699-5.796 95.153-30.096 99.11 63.891 163 32.097 64.602-32.147 100.283 32.352 151.976 2.033 60.688-35.593 88.541 14.734 133.119-13.455 25.834-16.335 42.691-27.141 60.207-27.141v-2.434c-17.516 0-32.942 8.711-58.518 26.342-44.136 30.425-73.88-20.917-134.568 14.677z" fill="url(#linearGradient-55)" transform="translate(0 192)"/><path d="M407.062 57.934c-51.529 30.68-87.796-35.535-152.323-3.216-63.815 31.964-67.548-61.714-162.844-31.294C52.3 36.065 26.664 33.546.179 27.046v4.667c26.484 6.5 52.264 6.579 91.859-6.061 95.296-30.422 98.81 63.978 162.625 32.015 64.527-32.319 100.623 32.962 152.152 2.282 60.497-36.019 88.686 14.643 133.264-13.654 25.834-16.396 42.584-27.248 60.1-27.248v-2.438c-17.516 0-32.805 8.743-58.375 26.464-44.126 30.578-74.245-21.158-134.742 14.861z" fill="url(#linearGradient-56)" transform="translate(0 192)"/><path d="M407.029 58.363c-51.366 31.043-88.051-35.943-152.503-3.453-63.741 32.134-67.034-61.967-162.473-31.222C52.398 36.463 26.664 34.079.179 27.579v4.667c26.484 6.5 52.365 6.448 92.02-6.326 95.439-30.747 98.509 64.064 162.25 31.932 64.452-32.491 100.962 33.574 152.329 2.531 60.305-36.443 88.831 14.552 133.409-13.853 25.834-16.459 42.477-27.355 59.993-27.355v-2.443c-17.516 0-32.668 8.776-58.233 26.586C497.83 74.05 467.334 21.92 407.029 58.363z" fill="url(#linearGradient-57)" transform="translate(0 192)"/><path d="M406.997 58.793c-51.203 31.405-88.307-36.352-152.683-3.689-63.667 32.303-66.521-62.222-162.103-31.15C52.497 36.865 26.664 34.612.18 28.112v4.667c26.484 6.5 52.466 6.319 92.181-6.591 95.583-31.072 98.209 64.152 161.875 31.85 64.376-32.663 101.302 34.185 152.505 2.779 60.113-36.869 88.976 14.461 133.554-14.051 25.834-16.521 42.37-27.463 59.885-27.463v-2.448c-17.516 0-32.531 8.809-58.09 26.707-44.109 30.887-74.98-21.638-135.093 15.231z" fill="url(#linearGradient-58)" transform="translate(0 192)"/><path d="M406.964 59.223c-51.04 31.768-88.562-36.761-152.863-3.927-63.592 32.473-66.007-62.475-161.732-31.078C52.596 37.264 26.664 35.145.18 28.645v4.667c26.484 6.5 52.568 6.189 92.341-6.856 95.726-31.397 97.909 64.239 161.5 31.767 64.301-32.834 101.642 34.796 152.682 3.029 59.922-37.295 89.121 14.369 133.699-14.25 25.834-16.584 42.263-27.57 59.778-27.57v-2.453c-17.516 0-32.395 8.842-57.948 26.829-44.099 31.04-75.346-21.879-135.268 15.415z" fill="url(#linearGradient-59)" transform="translate(0 192)"/><path d="M406.931 59.652c-50.877 32.13-88.817-37.169-153.043-4.163C190.371 88.131 188.395-7.24 92.527 24.482 52.694 37.663 26.664 35.676.18 29.176v4.667c26.484 6.5 52.669 6.06 92.502-7.121C188.55-5 190.29 91.049 253.807 58.407c64.226-33.006 101.981 35.407 152.858 3.277 59.73-37.72 89.266 14.278 133.844-14.448 25.834-16.646 42.155-27.678 59.671-27.678V17.1c-17.516 0-32.257 8.874-57.806 26.951-44.089 31.196-75.712-22.118-135.443 15.601z" fill="url(#linearGradient-60)" transform="translate(0 192)"/><path d="M406.898 60.083c-50.714 32.492-89.072-37.578-153.223-4.401C190.232 88.494 188.696-7.3 92.684 24.746 52.791 38.062 26.663 36.21.179 29.71v4.667c26.484 6.5 52.77 5.93 92.663-7.386 96.011-32.049 97.307 64.412 160.75 31.601 64.15-33.177 102.321 36.019 153.035 3.526 59.539-38.145 89.41 14.188 133.988-14.646 25.834-16.708 42.048-27.785 59.564-27.785v-2.463c-17.516 0-32.121 8.907-57.664 27.073-44.079 31.349-76.077-22.359-135.617 15.786z" fill="url(#linearGradient-61)" transform="translate(0 192)"/><path d="M406.866 60.513c-50.551 32.854-89.328-37.986-153.403-4.638-63.369 32.98-64.466-63.237-160.621-30.864C52.89 38.463 26.664 36.742.179 30.242v4.667c26.484 6.5 52.872 5.8 92.824-7.65 96.155-32.374 97.006 64.499 160.375 31.519 64.075-33.349 102.66 36.63 153.211 3.775 59.348-38.571 89.556 14.096 134.134-14.846 25.834-16.771 41.941-27.893 59.457-27.893v-2.468c-17.516 0-31.983 8.939-57.521 27.195-44.071 31.504-76.446-22.6-135.793 15.972z" fill="url(#linearGradient-62)" transform="translate(0 192)"/><path d="M406.833 60.942c-50.388 33.217-89.583-38.395-153.583-4.875C189.956 89.217 189.298-7.423 93 25.275c-40.012 13.587-66.336 12-92.82 5.5v4.667c26.484 6.5 52.973 5.67 92.984-7.916 96.298-32.699 96.706 64.586 160 31.436 64-33.52 103 37.241 153.388 4.024 59.156-38.996 89.7 14.005 134.278-15.044 25.834-16.833 41.834-28 59.35-28v-2.473c-17.516 0-31.847 8.973-57.379 27.317-44.062 31.658-76.812-22.84-135.968 16.156z" fill="url(#linearGradient-63)" transform="translate(0 192)"/></g><g transform="translate(287 119)"><g id="Path"><path d="M4.339 2.653c-.244-.039-.638.973-.599 1.216.271.554.595.393.774.948-.086-.506-.067-1.058.006-1.568.059-.279.203-.566-.181-.596z" fill="#FCD2C5" transform="translate(240 30)"/><path d="M2.724 1.409C2.532 1.136 2.137.391 1.93.229c-.132-.104-.607-.234-.808-.181C.857.119.843.423.843.423c-.355.022-.127.889-.215.875-.36-.056-.546.421.16 1.492.042.064 1.256 3.038 1.723 3.957.589-.241 2.157-1.479 2.149-1.512-.18-.556-.42-1.13-.691-1.684-.315-.655-1.184-2.045-1.245-2.142zm13.224 17.105c-5.253-1.765-4.607 2.53-3.189 3.577 3.734 2.76 15.753 6.427 17.384 4.64.707-.775 2.401-4.22 1.922-4.421-2.649-1.112-11.835-2.358-16.117-3.796z" fill="#FCD2C5" transform="translate(240 30)"/><path d="M15.5 19.25C13.819 16.639 5.919 8.056 4.6 5.056c-.864.624-1.626 1.085-2.263 1.32 2.268 4.89 9.287 16.427 11.417 16.107 1.951-.291 2.212-1.743 1.973-2.688a1.894 1.894 0 0 0-.227-.545z" fill="#FCD2C5" transform="translate(240 30)"/><path d="M31.78 20.683c-4.259-.17-16.026-2.623-16.358-2.69-.813-1.02-6.873-8.302-9.84-12.341 0 0-.36.742-1.492 1.41-1.083.64-1.84.445-1.84.445 2.005 4.164 7.701 13.415 10.621 15.434 3 2.138 14.638 5.928 17.787 5.33 2.969-.563 3.899-7.477 1.122-7.588z" fill="#9EC400" transform="translate(240 30)"/></g><path d="M270.147 40.767c-.721 1.923.363 6.139-.812 9.056-.423 1.051 5.611-.631 5.543-1.084-.304-2.007-.357-4.75-.793-6.251-.018-.065-2.857-3.276-3.938-1.721z" id="Path" fill="#ED9800"/><path d="M299.817 150.987c-.707-.563-3.676 1.164-3.733 1.928-.232 3.051-4.804 4.304-3.673 5.435.571.571 3.679.738 4.806-.069 1.431-1.024 1.673-1.966 1.98-2.77.753-1.971 1.764-1.811 1.849-2.919.076-1.005-.863-1.313-1.229-1.605z" id="Path" fill="#336291"/><path d="M298.906 149.782l-3.202 1.523s.347.8.38 1.609c0 0 .179.888 2.271-.049 1.227-.55 1.463-1.878 1.463-1.878-.733-.617-.912-1.205-.912-1.205z" id="Path" fill="#FCD2C5"/><path d="M287.569 89.427l-13.837-1.055c1.094 10.039 4.035 23.762 4.035 23.762.945 9.494 13.445 25.65 17.996 39.167 0 0 2.078-.068 3.195-1.39-8.315-32.127-11.868-35.082-11.76-38.255.23-6.708.011-13.284.371-22.229z" id="Path" fill="#FCD2C5"/><path d="M263.245 94.816c1.075 10.154 2.446 14.09 3.011 20.661 1.555 18.072 2.197 37.376 2.197 37.376s1.796-.302 3.456-.599c0 0 3.565-24.94 2.522-36.051-.676-7.204 2.676-8.431 3.27-25.734l-14.456 4.347zm10.284-50.319c.506.874 1.62 4.119.168 5.637.368 1.72 5.154 1.623 6.408-1.333-.568-.821-.557-5.631-.929-6.838-.391.302-4.465 2.685-5.647 2.534z" id="Path" fill="#FCD2C5"/><path d="M286.626 55.96c-.078-4.051-3.507-6.017-6.521-7.159 0 0-3.562 2.732-5.318 2.181-1.118-.352-1.09-.848-1.09-.848s-3.769-.171-4.377 1.784c-1.519 4.879-4.304 6.597-4.688 9.368-.439 3.17 2.897 4.345 2.855 5.541-.705 19.927-5.503 27.589-7.663 39.667 5.358 2.964 21.403 6.393 33.103 1.078-1.26-11.966-5.463-22.857-6.825-31.966-1.088-7.278.592-16.084.524-19.646z" id="Path" fill="#FF5931"/><path d="M274.359 35.966c-2.173-.099-3.903.816-4.337 2.877-.155.737.311 7.352 3.866 8.274 1.504.39 4.316-2.229 4.396-3.973 0 0 .434-2.583.435-2.607.104-2.31-2.027-4.465-4.36-4.571z" id="Path" fill="#FCD2C5"/><path d="M273.275 33.81s-1.063-.258-2.236.361c-2.538 1.339-2.428 7.039-.463 8.828-.832-4.876 1.103-6.501 1.103-6.501s2.633-.679 4.793 1.259c2.235 2.004 2.315 10.515 1.558 13.396-.39 1.477 5.255-.294 6.221-2.533 2.991-6.937.735-12.234-1.627-14.646-2.456-2.506-7.912-3.379-9.349-.164z" id="Path" fill="#ED9800"/><path d="M278.427 39.839c-.226-.045-.623-.063-.954.252.033.816.258 2.16.367 2.824.583-.042.993-.588 1.237-1.103.364-.769-.059-1.857-.65-1.973z" id="Path" fill="#FCD2C5"/><path d="M300.199 156.57c.008.072.261.087.297.022.146-.254.562-4.16.562-4.16l-.594-.046c0 .001-.319 3.685-.265 4.184zm-32.035-2.674c-1.53 3.445-5.703 3.333-5.054 4.795.328.738 2.456.881 3.843.881 1.471 0 3.139-1.465 3.731-2.089 1.111-1.169 2.699-.537 2.699-2.105 0-1.007-.807-1.532-1.043-1.937-.455-.781-3.865-.245-4.176.455z" id="Path" fill="#336291"/><path d="M272 151.602l-3.589.368s.071 1.334-.247 1.926c-.133.246-.493.845.824.758.688-.045 3.353-1.213 3.353-1.213-.432-.631-.341-1.839-.341-1.839z" id="Path" fill="#FCD2C5"/><path d="M271.921 159.519c.021.07.284.073.298 0 .297-1.676.902-3.319.902-3.319l-.596-.871c0-.001-.715 3.83-.604 4.19z" id="Path" fill="#336291"/><g id="Path"><path d="M26.281.396a.522.522 0 0 0-.502-.381H.602A.52.52 0 0 0 .1.674L5.08 18.65a2.57 2.57 0 0 0 2.477 1.885h23.618a.52.52 0 0 0 .502-.66L26.281.396z" fill="#336291" transform="translate(230 62)"/><path fill="#9EC400" d="M.036 4.562l1.382 4.947h1.619L1.654 4.562z" transform="translate(241 66)"/><path fill="#184767" d="M1.888 2.914L3.73 9.509h1.619L3.507 2.914z" transform="translate(241 66)"/><path fill="#FFCE40" d="M3.582 1.528l2.23 7.981H7.43L5.201 1.528z" transform="translate(241 66)"/><path fill="#FFF" d="M5.592.444l2.532 9.065h1.618L7.21.444z" transform="translate(241 66)"/><path d="M30.943 18.694H5.532a.942.942 0 0 0-.939.939c0 .516.423.939.939.939h25.411a.942.942 0 0 0 .939-.939.942.942 0 0 0-.939-.939z" fill="#D5F1FF" transform="translate(230 62)"/><path d="M17.963.694H1.805a.942.942 0 0 0-.939.939c0 .516.423.939.939.939h16.158a.942.942 0 0 0 .939-.939.942.942 0 0 0-.939-.939z" fill="#AEBDDC" transform="translate(259 80)"/><path d="M4.235.302H2.987a.268.268 0 0 0 0 .536h1.248a.268.268 0 0 0 0-.536zm-2.317 0h-.757a.269.269 0 0 0 0 .536h.757a.268.268 0 0 0 0-.536z" transform="translate(269 81)" fill="#336291"/><path fill="#336291" opacity=".55" d="M3.269.015l12.902 18.633h.986L4.254.015zm2.108 0L18.28 18.648h3.373L8.75.015z" transform="translate(230 62)"/></g><g id="Path"><path d="M3.663 27.729c0 .267 1.261 1.391 1.518 1.327.644-.159.856-.26 1.291-.537-.548.056-1.699-.659-2.157-.941-.261-.16-.652-.277-.652.151z" fill="#FCD2C5" transform="translate(251 52)"/><path d="M1.273 29.519c-.463.336-.575.794-.375 1.073.172.239.398.25.41.62.023.705.953.203.924.294-.398 1.204 3.447.487 6.166-.701-.217-.647-1.432-2.417-1.468-2.411-.607.153-5.114.728-5.657 1.125zM29.524 1.687c-1.379 2.76-3.37 12.516-5.217 17.004-2.266 5.504 2.384 5.119 3.607 3.674 3.224-3.807 8.011-16.428 6.211-18.303-.779-.813-4.351-2.875-4.601-2.375z" fill="#FCD2C5" transform="translate(251 52)"/><path d="M25.665 19.02c-.233.043-.44.115-.601.203-2.919 1.615-15.022 8.022-18.331 9.223.606.972 1.047 1.82 1.253 2.52 5.403-2.082 20.61-7.334 20.42-9.64-.173-2.112-1.711-2.496-2.741-2.306z" fill="#FCD2C5" transform="translate(251 52)"/><path d="M28.936 1.452c-1.126 1.094-4.916 16.57-5.013 16.921-1.15.799-11.939 6.169-16.481 9.062 0 0 .77.439 1.406 1.701.607 1.205.346 2.002.346 2.002 4.605-1.852 17.268-5.848 19.64-8.833 2.505-3.063 7.017-14.479 6.601-17.897-.393-3.222-4.358-5.034-6.499-2.956z" fill="#9EC400" transform="translate(251 52)"/></g><path d="M241.356 33.76L231.463.466c-.048-.161-.192-.26-.324-.221-.129.039-.196.199-.151.358l9.396 33.438c.094.331.387.54.656.465.27-.074.412-.403.319-.735l-.003-.011z" id="Path" fill="#2C7EEB"/><g transform="translate(0 62)"><g transform="translate(14 24)"><path d="M61.648.676H32.721a.666.666 0 0 0-.642.487l-6.897 24.893a.666.666 0 0 0 .642.844H52.76a3.282 3.282 0 0 0 3.165-2.407L62.29 1.52a.665.665 0 0 0-.642-.844z" id="Path" fill="#1A4667"/><path id="Path" fill="#2C7EEB" d="M27.096 22.772h28.302l5.856-21.13H32.95z"/><path id="Path" fill="#2CA0F5" d="M27.096 22.772h4.566l5.855-21.13H32.95z"/><g id="XMLID_234_" transform="translate(30 4)" fill="#1A4667"><g id="XMLID_237_" transform="translate(0 1)"><path d="M26.361.792a.4.4 0 0 0-.268.105l-5.652 5.149-5.532 1.843c-.116.038-.19.128-.24.188l-.022.026-4.166 4.343L4.96 9.511a.322.322 0 0 0-.14-.035c-.159-.001-.269.117-.329.209L.08 13.899l.571.582c1.771-1.709 3.9-3.703 4.238-4.092l5.496 2.922a.394.394 0 0 0 .455-.073l4.437-4.625c.293-.089 5.457-1.812 5.457-1.812.182-.061 5.895-5.296 5.895-5.296a.4.4 0 0 0 .106-.445.412.412 0 0 0-.374-.268z" id="Path"/></g><path id="Path" d="M26.058 2.462l.209 1.98L27.764.865l-3.797 1.464z"/></g><path id="Path" fill="#9EC400" opacity=".55" d="M31.544 8.89h3.363l.527-1.901H32.07zm-.773 2.722h3.363l.526-1.9h-3.362zm-.773 2.723h3.362l.527-1.9h-3.363zm-.773 2.723h3.363l.526-1.901h-3.362z"/><path d="M29.538 23.077L1.492 19.786A1.205 1.205 0 0 0 .16 20.839a1.204 1.204 0 0 0 1.053 1.331l28.046 3.291a1.205 1.205 0 0 0 1.332-1.053 1.204 1.204 0 0 0-1.053-1.331z" id="Path" fill="#AEBFDD"/><path id="Path" fill="#9EC400" opacity=".55" d="M31.034 24.489h11.094L58.617.676H47.524z"/><g transform="translate(26 22)"><path d="M27.891 3.874L2.075.845A1.234 1.234 0 0 0 .71 1.923a1.234 1.234 0 0 0 1.078 1.365l25.817 3.028a1.233 1.233 0 0 0 1.364-1.078 1.232 1.232 0 0 0-1.078-1.364z" id="Path" fill="#B2C0DE"/><g fill="#1A4667" id="Rectangle"><path transform="rotate(-173.299 12.333 2.193)" d="M2.578.841h2.334v1H2.578z"/><path transform="rotate(-173.304 9.687 1.843)" d="M.253.49h1.692v1H.253z"/></g></g><path d="M34.542 2.428c-.703 0-1.293.586-1.318 1.308-.025.723.523 1.309 1.227 1.309.704 0 1.293-.586 1.318-1.309.024-.722-.525-1.308-1.227-1.308z" id="Path" fill="#9EC400" opacity=".55"/></g><g id="Path"><path d="M23.719 32.066c-.516.009-1.066-.042-1.558-.19.53.248.33.548.846.887.235.069 1.289-.194 1.28-.442.019-.384-.284-.278-.568-.255z" fill="#FCD2C5" transform="translate(19 20)"/><path d="M25.32 34.078c-.089-.072-1.358-1.108-1.972-1.503a13.118 13.118 0 0 0-1.584-.896c-.031-.012-1.456 1.391-1.769 1.944.854.577 3.653 2.153 3.712 2.203.975.834 1.47.709 1.46.345-.003-.089.828.245.896-.104 0 0 .302.023.406-.23.078-.191.007-.68-.079-.823-.133-.226-.823-.71-1.07-.936z" fill="#FCD2C5" transform="translate(19 20)"/><path d="M9.211 19.176a1.905 1.905 0 0 0-.513-.292c-.907-.355-2.381-.277-2.914 1.622-.582 2.073 9.991 10.478 14.56 13.337.313-.602.865-1.301 1.592-2.081-2.812-1.683-10.343-10.593-12.725-12.586z" fill="#FCD2C5" transform="translate(19 20)"/><path d="M8.241 2.358c-.14-.501-5.385 1.088-6.242 1.691C.022 5.445 3.778 17.491 6.05 21.541c.863 1.537 5.044 2.713 3.948-2.719-.894-4.427-.985-13.697-1.757-16.464z" fill="#FCD2C5" transform="translate(19 20)"/><path d="M14.272 23.421c-1.299-1.389-2.53-2.705-3.479-3.651a9.795 9.795 0 0 0-.159-1.074c-.438-2.177.469-14.389-1.438-16.699C7.512-.042 3.265-.274 1.087 4.166c-1.45 2.955 2.529 14.345 4.374 17.655 1.722 3.196 10.516 10.056 14.538 12.573l2.27-3.189c-1.629-.976-5.16-4.751-7.997-7.784z" fill="#FEC130" transform="translate(19 20)"/><path d="M47.1 58.221c-9.263-4.823-29.104-6.588-33.3-6.321-2.239.143-4.766 10.094 1.285 13.059 7.873 3.858 27.733 2.971 32.935 2.305 1.945-.251 4.634-6.151-.92-9.043z" fill="#299BF1" transform="translate(14)"/><path d="M31.861 92.425c-.191 1.502.056 2.602.056 2.602.033.072 1.622.041 2.468-.813 0 0-.031-.686.266-1.642-1.096-1.012-2.636-.134-2.79-.147z" fill="#FCD2C5" transform="translate(14)"/><path d="M40.196 65.816C35.936 78.319 31.67 92.6 31.67 92.6c1.148-.329 2.593.246 3.053 1.091 0 0 7.276-13.6 14.559-26.729 2.97-5.356-6.277-9.39-9.086-1.146z" fill="#299BF1" transform="translate(14)"/><path d="M34.898 94.104c-.396-.382-.471-.537-.471-.537s-1.937-.48-2.511.887c0 0-.247 1.415.435 2.188.275.312 1.676 1.839 2.377 2.16.562.257 1.436.222 2.421.08.986-.143 2.146-.787 2.086-1.365-.119-1.143-3.573-2.678-4.337-3.413z" fill="#1A71EA" transform="translate(14)"/><path d="M34.428 94.974c-.964-.673-2.622.486-1.499 2.042.205.284 1.41 1.549 2.001 1.819.473.216 1.209.188 2.039.066.83-.119 1.807-.662 1.756-1.148-.101-.962-3.303-2.087-4.297-2.779z" fill="#1A71EA" transform="translate(14)"/><path d="M13.069 92.276a24.313 24.313 0 0 1-1.119 1.937c.846.854 2.966 1.615 2.999 1.544 0 0 .43-1.44.697-2.913-.153.012-1.481-1.579-2.577-.568z" fill="#FCD2C5" transform="translate(14)"/><path d="M20.625 69.706c-4.26 12.503-7.836 22.895-7.836 22.895 1.147-.329 2.525.293 2.985 1.138 0 0 5.4-9.054 12.683-22.183 2.971-5.356-5.023-10.094-7.832-1.85z" fill="#299BF1" transform="translate(14)"/><path d="M14.213 93.619l-.028-.012c-.714-.273-1.525-.055-2.077.476l-.021.021c-.764.734-4.217 2.27-4.336 3.412-.061.578 1.1 1.223 2.085 1.365.986.142 1.859.177 2.422-.08.7-.321 2.128-1.827 2.376-2.16.267-.357.37-1.106.41-1.628.044-.593-.278-1.172-.831-1.394z" fill="#1A71EA" transform="translate(14)"/><path d="M12.557 94.974c-.993.692-4.196 1.817-4.297 2.779-.05.486.927 1.029 1.757 1.148.83.121 1.565.149 2.039-.066.59-.271 1.796-1.535 2.001-1.819 1.123-1.556-.536-2.715-1.5-2.042z" fill="#1A71EA" transform="translate(14)"/><path d="M27.721 47.07c-2.587.748-5.355 1.07-8.269 1.004-4.708-.106-9.344-.788-14.007-1.401-1.076-.142-2.131-.283-3.153-.479-.454 4.054-.768 8.112-.787 11.719.447.035 10.313 7.339 22.508 2.802 2.37-.883 5.152-2.201 6.531-7.188-1.95-1.225-2.837-1.918-2.823-6.457z" fill="#9EC400" transform="translate(14)"/><path d="M14.465 11.755c.194 1.357-.205 5.135-.676 5.846 1.118 2.498 5.201 2.5 5.485 1.027-.646-1.586.04-4.529.048-4.809-1.005.15-4.518-1.814-4.857-2.064z" fill="#FCD2C5" transform="translate(14)"/><path d="M19.512 4.747c-2.446.16-3.925 2.285-3.767 4.709l.164 2.517c.119 1.827 2.028 4.751 4.695 4.077 3.74-.943 4.064-7.993 3.886-8.764-.498-2.153-2.7-2.687-4.978-2.539z" fill="#FCD2C5" transform="translate(14)"/><path d="M23.634 20.595c-.642-.393-4.359-1.967-4.359-1.967s-1.294.586-2.99.225c-1.887-.402-2.495-1.252-2.495-1.252s-3.1.843-4.144 1.09c-3.134.743-4.169 5.578-4.896 8.292-.171.64-4.156 14.306-4.237 28.38.466.034.999.092 1.588.165l1.754-8.884.585 9.215c6.098.932 11.911 3.934 19.499 2.305l.721-7.345.794 7.021c3.238-.856 4.653-4.244 4.784-4.473-3.923-5.708-3.521-22.813-3.598-24.429-.165-3.466.845-5.988-3.006-8.343z" fill="#FEC130" transform="translate(14)"/><path d="M23.956 4.724c-1.575-3.652-7.136-5.522-10.698-2.73-3.146 2.466-2.729 6.902-.815 9.861.985 1.524-.885 1.214-.885 1.214s1.493 1.677 3.209 2.24c5.771 1.899 9.51-5.85 9.51-5.85s-2.361-.729-1.626-.675c3.499.264 4.264-1.305 3.909-3.115.112.723-1.429 1.779-2.604-.945z" fill="#FF5931" transform="translate(14)"/><path d="M30.607 25.406c-.465.226-1.337.622-1.845.695-.041.462.359.685.976.684.246 0 1.604-1.167 1.491-1.388-.144-.356-.375-.131-.622.009z" fill="#FCD2C5" transform="translate(31 24)"/><path d="M33.626 27.141c-.217-.147-3.064-.828-3.787-.927-.61-.09-1.23-.143-1.814-.145-.033.003-.733 1.875-.783 2.509 1.61.355 3.186.472 4.206.626 1.269.191 1.805-.007 1.553-.369-.051-.073 1.024.001.773-.601 0 0 .472-.2.485-.475.019-.41-.494-.525-.633-.618z" fill="#FCD2C5" transform="translate(31 24)"/><path d="M12.36 19.29c-.957-.188-2.603.601-2.787 2.565-.201 2.144 13.132 5.72 17.696 6.727.2-.648.707-1.447 1.281-2.345-3.067-1.152-12.935-5.216-15.634-6.752a1.903 1.903 0 0 0-.556-.195z" fill="#FCD2C5" transform="translate(31 24)"/><path d="M8.62 1.976c-.199-.481-5.779 1.652-6.558 2.355C.268 5.955 6.016 17.537 8.76 21.283c1.042 1.422 5.334 2.084 3.591-3.176-1.42-4.288-2.63-13.479-3.731-16.131z" fill="#FCD2C5" transform="translate(31 24)"/><path d="M11.001 9.292c-.62-3.178-1.037-5.865-1.453-8.771-.033-.23-6.741.609-8.518 3.36C-.754 6.646 5.979 18.567 8.211 21.63c2.095 2.965 12.83 5.607 17.243 6.993l1.29-3.604c-1.736-.771-12.432-5.244-13.487-6.067-.072-.337-1.632-6.463-2.256-9.66z" fill="#FEC130" transform="translate(31 24)"/></g><g id="Path"><path fill="#1A4667" d="M1.589 68.995h1.067l9.53-27.739h-1.068zm16.108 0h1.068l9.529-27.739h-1.067z" transform="translate(0 30)"/><path d="M46.349 36.487h-8.7c-3.995 0-8.299-2.847-9.034-6.773l-4.183-17.371C23.18 5.66 16.748.243 10.066.243 3.384.243-1.018 5.66.234 12.343l6.825 26.112a3.47 3.47 0 0 0 3.413 2.816l35.88-.037a2.373 2.373 0 0 0-.003-4.747z" fill="#1A4667" transform="translate(0 30)"/><path d="M46.349 36.521h-8.7c-3.995 0-8.299-2.863-9.034-6.79l-4.183-17.389C23.18 5.66 16.748.243 10.066.243c-3.893 0-7.001 1.845-8.68 4.701 1.518-.888 3.338-1.397 5.374-1.397 6.682 0 13.113 5.414 14.365 12.096l4.183 17.365c.735 3.927 5.039 6.761 9.034 6.761h8.701c.979 0 1.82.61 2.183 1.459l1.126.016a2.366 2.366 0 0 0 2.371-2.365 2.36 2.36 0 0 0-2.374-2.358zm-7.715 4.735l9.528 27.739h1.067l-9.528-27.739zm-16.109 0l9.529 27.739h1.067l-9.529-27.739z" fill="#336291" transform="translate(0 30)"/></g></g></g><g id="Path"><path d="M61.696 163.093c-8.931 0-16.168 7.238-16.168 16.168.001 8.928 16.168 43.378 16.168 43.378s16.166-34.449 16.166-43.378c0-8.93-7.237-16.168-16.166-16.168z" fill="#FF5931" transform="translate(383 17)"/><path d="M61.695 163.093a9.24 9.24 0 0 0-9.24 9.24c.001 5.103 9.24 24.792 9.24 24.792s9.24-19.688 9.24-24.792a9.239 9.239 0 0 0-9.24-9.24z" fill="#FEC130" transform="translate(383 17)"/><path fill="url(#linearGradient-64)" d="M83.982 162.347L68.164 267.176h46.608L98.953 162.347z" transform="translate(383 17)"/><path d="M96.343 41.122L83.532 53.713a6.993 6.993 0 0 0-2.093 4.989v103.645h19.469c5.848 0 10.588-4.74 10.588-10.588V58.738c0-1.897-.77-3.713-2.134-5.031L96.343 41.122z" fill="#C0DEFB" transform="translate(383 17)"/><path d="M82.291 88.982c-.845-.875-1.536-.596-1.536.621l.001 61.376a2.217 2.217 0 0 0 2.211 2.213l34.08-.001c5.122 0 8.071-5.821 5.042-9.951L82.291 88.982z" fill="url(#linearGradient-65)" transform="translate(383 17)"/><path fill="url(#linearGradient-66)" d="M24.438 162.347L8.619 267.176h46.609l-15.82-104.829z" transform="translate(383 17)"/><path d="M27.049 41.122l-13.02 12.584a6.997 6.997 0 0 0-2.135 5.031v93.021c0 5.848 4.741 10.588 10.589 10.588h19.468V58.702a6.996 6.996 0 0 0-2.092-4.989l-12.81-12.591z" fill="#C0DEFB" transform="translate(383 17)"/><path d="M96.655 61.442a6.675 6.675 0 0 0-6.667 6.667 6.674 6.674 0 0 0 6.667 6.666 6.674 6.674 0 0 0 6.667-6.666 6.675 6.675 0 0 0-6.667-6.667z" fill="url(#linearGradient-67)" transform="translate(383 17)"/><path d="M96.655 77.14a6.674 6.674 0 0 0-6.667 6.666 6.675 6.675 0 0 0 6.667 6.667 6.675 6.675 0 0 0 6.667-6.667 6.674 6.674 0 0 0-6.667-6.666z" fill="url(#linearGradient-68)" transform="translate(383 17)"/><path d="M26.024 61.442a6.674 6.674 0 0 0-6.666 6.667 6.673 6.673 0 0 0 6.666 6.666 6.674 6.674 0 0 0 6.667-6.666 6.675 6.675 0 0 0-6.667-6.667z" fill="url(#linearGradient-69)" transform="translate(383 17)"/><path d="M26.024 77.14a6.673 6.673 0 0 0-6.666 6.666 6.674 6.674 0 0 0 6.666 6.667 6.675 6.675 0 0 0 6.667-6.667 6.674 6.674 0 0 0-6.667-6.666z" fill="url(#linearGradient-70)" transform="translate(383 17)"/><path fill="url(#linearGradient-71)" d="M83.808 53.442h25.281l-12.746-12.32z" transform="translate(383 17)"/><path d="M81.439 162.347h19.469c.594 0 1.172-.061 1.738-.154H81.439v.154z" fill="url(#linearGradient-72)" transform="translate(383 17)"/><path fill="url(#linearGradient-73)" d="M14.302 53.442h25.282l-12.535-12.32z" transform="translate(383 17)"/><path d="M22.483 162.347h19.468v-.154H20.744a10.73 10.73 0 0 0 1.739.154z" fill="url(#linearGradient-74)" transform="translate(383 17)"/><path d="M41.101 88.982L1.303 143.24c-3.03 4.13-.08 9.951 5.042 9.951l34.08.001a2.217 2.217 0 0 0 2.211-2.213l.001-61.376c0-1.216-.692-1.496-1.536-.621z" fill="url(#linearGradient-75)" transform="translate(383 17)"/><path d="M38.905 68.367v82.173c0 12.588 10.203 22.791 22.79 22.791s22.791-10.203 22.791-22.791V68.367c0-24.442-8.005-48.212-22.791-67.675a111.878 111.878 0 0 0-22.79 67.675z" fill="#2A9AF3" transform="translate(383 17)"/><path d="M44.511 33.442s5.351-3.167 17.185-3.167c11.835 0 17.186 3.167 17.186 3.167A111.826 111.826 0 0 0 61.696.692a111.848 111.848 0 0 0-17.185 32.75z" fill="#FEC130" transform="translate(383 17)"/><path d="M61.476.995a54.399 54.399 0 0 1 5.357 21.28c.119 2.666-.106 5.414-.594 8.171 8.66.652 12.642 2.996 12.642 2.996A111.826 111.826 0 0 0 61.695.692c-.075.1-.146.203-.219.303z" fill="#FFA602" transform="translate(383 17)"/><path d="M61.695 61.562a6.136 6.136 0 0 0-6.137 6.137v21.025a6.136 6.136 0 0 0 6.137 6.137 6.137 6.137 0 0 0 6.138-6.137V67.699a6.137 6.137 0 0 0-6.138-6.137z" fill="url(#linearGradient-76)" transform="translate(383 17)"/><path d="M61.695 100.429a6.137 6.137 0 0 0-6.137 6.138v21.024a6.137 6.137 0 1 0 12.275 0v-21.024a6.138 6.138 0 0 0-6.138-6.138z" fill="url(#linearGradient-77)" transform="translate(383 17)"/><path d="M96.655 64.442a3.671 3.671 0 0 0-3.667 3.667 3.67 3.67 0 0 0 3.667 3.666 3.67 3.67 0 0 0 3.667-3.666 3.67 3.67 0 0 0-3.667-3.667z" fill="#2C99F2" transform="translate(383 17)"/><path d="M96.655 80.14a3.67 3.67 0 0 0-3.667 3.666 3.671 3.671 0 0 0 3.667 3.667 3.671 3.671 0 0 0 3.667-3.667 3.67 3.67 0 0 0-3.667-3.666z" fill="#F46D9E" transform="translate(383 17)"/><path d="M26.024 64.442a3.67 3.67 0 0 0-3.666 3.667 3.67 3.67 0 0 0 3.666 3.666 3.67 3.67 0 0 0 3.667-3.666 3.67 3.67 0 0 0-3.667-3.667z" fill="#8095F1" transform="translate(383 17)"/><path d="M26.024 80.14a3.67 3.67 0 0 0-3.666 3.666 3.67 3.67 0 0 0 3.666 3.667 3.671 3.671 0 0 0 3.667-3.667 3.67 3.67 0 0 0-3.667-3.666z" fill="#2C99F2" transform="translate(383 17)"/></g></g></g></g></g></svg>