<svg viewBox="0 0 542 228" version="1.1" xmlns="http://www.w3.org/2000/svg"><g id="Page-1" stroke="none" stroke-width="1" fill="#fff" fill-rule="evenodd"><path d="M74.501 173.188c.41-.645.645-.997.703-1.055l.176.176.088.175-.44 3.955-.527 3.956c-.176 1.289-.44 2.226-.791 2.812-.469.938-1.23 1.436-2.285 1.494l-1.319.088-1.23.176c-1.055.117-1.934 0-2.637-.352l-.615-.088h-.791l-.352-.527-.351-.703c-.527.586-.469 1.201.176 1.846l.615.703c.176.351.205.674.088.967l-7.998-2.9c-2.227-.88-3.574-2.872-4.043-5.977-.586-4.336-1.934-8.672-4.043-13.008-3.223-6.621-5.274-12.92-6.153-18.897l-1.23-9.404-1.318-9.492-1.67-8.262-1.934-8.174c-2.578-10.781-4.101-19.511-4.57-26.191l-.352-2.022-.44-2.109h-.439l-.615 3.252-.615 3.164-3.34 13.272-3.164 13.271c-.527 2.52-1.084 5.771-1.67 9.756l-1.494 9.756-2.197 11.25-1.582 7.295-1.846 7.119c-1.406 4.98-3.399 8.408-5.977 10.283-2.578 1.816-4.629 1.172-6.152-1.934-1.934-3.75-2.402-8.584-1.406-14.502 1.64-9.902 3.31-18.955 5.01-27.158l2.636-10.898 2.813-10.723 8.525-32.52 2.549-9.667 2.637-9.668c.996-3.75.996-6.797 0-9.141-.41-.937-.352-1.875.175-2.812l.791-1.143.88-1.055 1.318-1.406 1.406-1.318c2.227-2.754 5.127-3.428 8.701-2.022l1.23.528 1.231.615c3.34 2.05 4.805 4.717 4.395 7.998l-.264 2.373v1.055l-.088.79 1.934 4.659 1.933 4.482 3.692 8.526.527 1.142.527 1.055c1.524 3.515 2.403 6.474 2.637 8.877.117 1.172.44 2.754.967 4.746l.703 2.373.615 2.373.88 5.098.702 5.185.528 4.307.615 4.394 1.406 7.383c.469 2.813.732 5.274.791 7.383 0 1.113.176 2.49.527 4.13l.791 4.132.616.088.879-6.416L69.228 91.8l.966-9.405.967-9.316c.82-6.21 1.875-13.008 3.164-20.39 2.051-11.602 3.72-20.333 5.01-26.192a70.22 70.22 0 0 1 4.307-13.271c.703-1.7 1.757-3.75 3.164-6.153L88.65 3.91 90.41.746l-.527 3.955-.615 3.955.087.176.264.264c2.168 1.172 3.135 3.252 2.9 6.24l-.703 6.416-.703 6.328-.088 3.691-.087 3.78-.528 4.658-.615 4.658-2.022 14.414-1.757 9.668-1.407 8.877-1.582 8.877-1.933 9.053-1.934 9.14-.79 4.307-.704 4.307c-.527 3.34-.762 6.299-.703 8.877l-.264 10.283-.44 10.195-.263 6.768-.264 6.68-.703 7.734-.703 7.646c0 .059.059.557.176 1.494zm66.676-58.448l.79-.615a220.862 220.862 0 0 0 25.49-34.102c.41-.644.82-1.61 1.23-2.9l.527-1.67.615-1.846-1.055.088h-.966c-.704 0-1.23.088-1.582.264-2.344 1.23-4.248 2.46-5.713 3.691-4.688 3.868-8.262 8.35-10.723 13.448l-3.516 7.119-3.427 7.207c-.47 1.172-.909 2.666-1.319 4.482l-1.054 4.658.703.176zM177.3 66.928c.996 1.172 1.758 2.197 2.285 3.076.879 1.465 1.64 3.574 2.285 6.328.762 3.106.586 6.357-.527 9.756-.41 1.348-1.026 2.842-1.846 4.482l-2.285 4.395a156.156 156.156 0 0 1-6.856 11.69c-3.28 4.98-6.474 9.52-9.58 13.622-2.168 2.813-4.482 4.659-6.943 5.537-.527.176-1.172.616-1.934 1.319l-1.757 1.758-5.098 3.867-3.516 3.076-3.603 3.164c.351 8.379.615 15 .79 19.863 2.93-1.523 6.065-3.691 9.405-6.504l4.219-3.603 4.13-3.604 16.964-13.974.703.703 5.01-3.516c.703 1.23.615 2.578-.264 4.043-.88 1.524-2.256 3.135-4.131 4.834l-2.373 2.11-2.373 2.197c-1.64 1.64-2.93 3.72-3.867 6.24-.235.82-.762 1.758-1.582 2.813l-1.934 2.548-1.055 4.747-1.318 4.57c-1.113 3.281-3.75 6.21-7.91 8.789-1.817 1.113-4.57 2.285-8.262 3.516-3.574 1.23-7.53 1.552-11.865.966-.879-.117-1.963-.088-3.252.088-3.223.469-6.064-.615-8.525-3.252-6.973-7.617-10.694-15.322-11.163-23.115l-.263-1.318-.264-1.143a125.016 125.016 0 0 0-4.658-.351v-.352l-2.988.791-.967 2.373-4.043-1.494c-1.582-.527-2.842-1.055-3.78-1.582-2.753-1.524-4.57-3.662-5.449-6.416.996-.703 1.524-1.084 1.582-1.143l1.407-.615 3.252.527 8.437-4.746 8.525-4.922 1.319-4.658 1.318-4.746c3.223-10.723 9.375-21.035 18.457-30.937 5.45-5.86 10.166-10.577 14.15-14.15 6.739-6.036 14.122-9.874 22.15-11.514.878-.235 2.05-.206 3.515.087l1.845.44 1.846.351 2.637 2.989zm44.703 97.558l-2.197 8.877-4.22 2.373-4.394 2.461a229.663 229.663 0 0 0-4.658-.879l-.176 1.582c-9.492 0-15.087-4.101-16.787-12.304-1.465-7.032-2.285-15.264-2.46-24.698l-.44-12.92c-.234-5.214-.322-9.492-.264-12.832.117-3.105.41-7.119.88-12.04l1.142-12.042c.586-7.09 2.05-13.066 4.394-17.93l2.55-4.833.702-.264.615-.44c1.114-1.816 3.252-2.724 6.416-2.724 3.282 0 5.918.586 7.91 1.758 5.801 3.398 8.087 8.789 6.856 16.172-1.7 10.02-2.314 17.754-1.846 23.203l.616 6.68.527 6.68.088 3.69-.088 4.22 1.23-1.143.967-.88c7.91-9.784 13.184-17.665 15.82-23.642.762-1.699 1.905-3.632 3.428-5.8l3.955-5.625c.528-.704 1.407-1.29 2.637-1.758 2.05-.703 4.717-.82 7.998-.352l.264 1.055v.879c-.586 1.699-.645 3.633-.176 5.8l.703 2.813.791 2.813 3.34 13.886 2.021 7.12 1.846 7.206 1.055 6.065.879 6.152v2.285l20.039-34.365h.44l-.616 7.91v3.955l.615.088-6.152 15.469-3.252 9.316-.176 1.319-.088 1.406a125.2 125.2 0 0 1 1.582.44l-.175.615-1.407 5.8-1.318 5.801c-.059.528.03 1.23.264 2.11l.527 2.285c.293 1.64.38 3.662.264 6.064l-.352 5.977-.088 4.219.088 4.218.088 1.582.088 1.934c-1.524-1.055-3.31-.791-5.361.791a76.675 76.675 0 0 0-2.374-1.23l-1.845 4.57-.352-.264-3.34 4.658c-2.343-2.109-5.01-2.695-7.998-1.757l-1.318-.528c-2.871-.762-4.922-2.812-6.152-6.152-1.407-3.867-2.52-9.434-3.34-16.7-1.348-12.831-1.963-27.07-1.846-42.714l.527-12.832.791-12.744c0-.059-.029-.586-.087-1.582a1137.03 1137.03 0 0 1-6.768 12.129l.176.175-1.934 3.604-1.846 3.691-1.406 3.252-1.318 3.252c-.996 2.578-1.582 4.893-1.758 6.943l-.615 3.252-.791 3.252-.967 3.692-.703 3.78.088 1.845.351 2.021-2.11 8.79zm99.195 8.79l-1.054.439-1.143.44c-.117 0-.264-.118-.44-.352l-.615-.703c-.351.527-.82 1.26-1.406 2.197l-.879 1.406-.967 1.582.088-3.34v-3.076a581.75 581.75 0 0 1-3.867 7.207l-.088-3.78-.176-3.339c-.058-2.402.03-4.307.264-5.713l6.68-34.453 6.68-34.365c.117-.528-.03-1.29-.44-2.285l-1.055-2.461-3.34-10.284c-.058-.117.118-.322.528-.615.469-.351.79-.469.967-.351 3.632 1.758 5.595.674 5.888-3.252.352-3.692.996-8.408 1.934-14.15l1.23-7.032 1.143-7.031c.058-.645-.117-1.465-.527-2.461-.47-1.055-.967-1.758-1.495-2.11-8.496-5.742-14.003-13.915-16.523-24.521-.117-.41.234-.996 1.055-1.758.761-.703 1.377-.996 1.845-.879 9.434 2.989 20.86 3.633 34.278 1.934l26.015-3.164c9.727-1.113 18.457-1.904 26.192-2.373 2.812-.176 6.416.234 10.81 1.23l5.625 1.319 5.537 1.23.791.352.791.44-.527.79c-.176.293-.351.469-.527.527-1.114.176-1.729.762-1.846 1.758l-.088 1.494v1.495c0 .41-.234.85-.703 1.318l-.703.615-.615.528c-3.868 3.75-10.137 5.302-18.809 4.658-2.344-.117-4.951.234-7.822 1.054l-3.78 1.23-3.69 1.495c-2.345.879-5.07 2.11-8.175 3.691l-7.998 4.043-3.867 2.286-3.867 2.46c-3.106 1.875-5.8 2.9-8.086 3.077-3.34.234-5.596.996-6.768 2.285-1.172 1.347-1.64 3.78-1.406 7.295.117 2.11 0 4.658-.351 7.646l-.616 3.692-.527 3.779c-.234 2.05.557 3.076 2.373 3.076h12.041c4.512.117 8.525.293 12.041.527 1.64.118 3.72.557 6.24 1.319l3.164.967 3.076.879-.439 2.373-.352 2.46c-.527 6.036-3.076 10.342-7.646 12.92-1.64.938-3.809 1.788-6.504 2.55l-3.603.878-3.516.879c-2.05.527-4.805.732-8.262.615l-4.306-.175h-4.22c-.468 0-.966.205-1.493.615-.47.468-.762.937-.88 1.406l-2.02 12.041-1.934 12.129c-1.582 9.668-3.164 17.607-4.746 23.818-.88 3.282-2.608 6.944-5.186 10.987l-3.428 5.01-3.34 5.097-1.142-.879.527-2.637zm148.502-21.71l-2.9.088-2.285 1.23-2.373 1.231-2.373-2.285-2.198-1.934c-1.172-.878-1.875-2.08-2.11-3.603l-2.02-16.084c-.704-6.094-1.172-11.514-1.407-16.26-.293-8.027.235-19.804 1.582-35.332.235-2.754.264-5.01.088-6.767l-.527.703-.352.79c-1.172 3.516-2.842 7.5-5.01 11.954l-2.9 5.8-2.988 5.801a766.766 766.766 0 0 0-12.656 26.368c-1.934 4.16-3.018 8.203-3.252 12.129-.059.703-.293 1.61-.704 2.724l-.615 1.406-.527 1.495c-1.348-.82-2.666-1.934-3.955-3.34l-1.582-1.758-1.494-1.846-1.23-1.67c-1.173-1.699-1.554-3.398-1.143-5.097l.878-5.713.616-5.801.527-2.285c.82-2.285 1.377-4.922 1.67-7.91l.352-4.043.263-4.043.703-11.778c.352-4.336.82-8.232 1.407-11.69.293-1.874.527-4.423.703-7.646l.615-7.822.967-5.625 1.142-5.625c.703-3.691.996-7.06.88-10.107l.263-4.746.615-4.746c.469-3.985-.117-7.823-1.758-11.514-.996-2.344-1.084-4.248-.263-5.713 1.054-1.7 2.548-2.578 4.482-2.637 1.934-.058 3.457.733 4.57 2.373 3.516 5.508 4.746 10.547 3.692 15.117-.41 1.817-.44 3.78-.088 5.89.351 2.05.38 4.452.088 7.206l-.44 3.516-.527 3.515-1.846 13.623.703.352 1.934-3.164 1.758-3.252c3.457-6.797 8.086-13.74 13.887-20.83l6.152-7.91a3.727 3.727 0 0 0 .615-1.758c.234-2.461 1.7-4.16 4.395-5.098l3.34-1.054 3.603-1.055c.41 1.465 1.436 2.725 3.076 3.78l2.197 1.318 2.198 1.23c6.504 4.336 9.463 10.928 8.877 19.775v2.022l.088 2.021c-.118 10.665-1.319 20.508-3.604 29.532l-1.846 6.591-1.845 6.68c-.586 2.11-1.172 4.805-1.758 8.086l-3.604 20.215a11.785 11.785 0 0 0 0 3.516l.352-.44.264-.44c1.406-4.277 3.398-9.11 5.976-14.501l3.516-6.944 3.603-6.943 3.955-7.734 1.67-2.637c.82-1.055 1.377-1.904 1.67-2.549l2.637-6.24 2.549-6.153 1.406-2.373 1.67-2.285-1.143-.175.528-2.022c.234.469.527 1.025.879 1.67l1.494-2.725 1.318-2.548c2.285-5.684 5.098-10.811 8.438-15.381l1.142-1.582 1.318-1.582c.938-1.172 1.963-2.022 3.077-2.55.351-.175.732-.527 1.142-1.054l.967-1.318.176-1.934 2.373-2.637 2.373-2.548 2.197-.44 2.197-.703c1.817-.469 3.37-.293 4.659.527 1.289.88 2.314 2.051 3.076 3.516.469.996.879 2.314 1.23 3.955l-1.318 2.549c-.469.937-.762 1.728-.879 2.373-.645 3.34-.937 7.617-.879 12.832 0 6.738-.38 13.799-1.142 21.182-.586 5.625-1.612 11.894-3.077 18.808l-5.273 20.742-.527 1.67-.528 1.758c-.351 1.406-.322 2.637.088 3.692l.176 1.054-.176 1.143-1.846 14.15-.439 1.67-.791 2.11-2.022.439-2.548.703c-1.055 5.39-2.139 11.836-3.252 19.336l-2.9 19.687c-.704 4.688-1.26 11.309-1.67 19.864l-.528 10.02-.879 10.107c-1.465.937-2.021 2.431-1.67 4.482l-2.021 2.637-2.022 2.549-1.142-1.67-1.143-1.582-.264 1.318-.087 1.055c-.645.469-1.231.908-1.758 1.318l-1.055-1.406c-.41-.527-.674-1.026-.791-1.494l-4.219-15.82c-1.465-6.094-2.46-11.426-2.988-15.997l-.527-5.713c-.82-12.89-.47-24.902 1.054-36.035.586-4.336 1.465-9.404 2.637-15.205l3.076-15.03 3.076-13.27 3.164-13.184c.704-3.106 1.172-6.006 1.407-8.701l-1.143 2.109-.967 2.11-2.197 5.537-2.11 5.449-2.02 4.394-2.022 4.307-4.395 9.756-4.658 9.668c-.762 1.523-1.904 3.457-3.428 5.8l-3.691 5.713-1.934 3.78-1.845 3.779-1.23 1.758-1.495 1.758-2.637.175z" id="NewFM" fill="#FFF"/></g></svg>