<svg width="832" height="68" viewBox="0 0 832 68" version="1.1" xmlns="http://www.w3.org/2000/svg"><g id="Page-1" stroke="none" stroke-width="1" fill="none" fill-rule="evenodd"><g id="Group-2"><path d="M.927 64.688V4.223C.927 2.741 1.92 2 3.906 2c1.685 0 3.25 1.363 4.693 4.09l24.37 47.305V4.135C32.97 2.71 33.964 2 35.95 2c1.985 0 2.978.711 2.978 2.134v60.554c0 .711-.3 1.275-.903 1.69-.601.415-1.293.622-2.076.622-1.504 0-2.828-1.126-3.971-3.379L6.884 15.516v49.172c0 .711-.3 1.275-.902 1.69-.602.415-1.294.622-2.076.622-.843 0-1.55-.207-2.121-.622-.572-.415-.858-.979-.858-1.69zm52 0V4.223c0-.711.27-1.26.81-1.645S54.907 2 55.627 2h32.05c1.5 0 2.25.86 2.25 2.579 0 .77-.195 1.437-.585 2-.39.564-.945.845-1.666.845H58.87v24.453h14.133c.72 0 1.276.252 1.666.756.39.504.585 1.14.585 1.911 0 1.601-.75 2.401-2.25 2.401H58.868v24.63h28.807c.66 0 1.2.268 1.62.801.421.534.631 1.186.631 1.956 0 1.779-.75 2.668-2.25 2.668h-32.05c-.72 0-1.35-.207-1.89-.622-.54-.415-.81-.979-.81-1.69zm41-60.27c0-.657.366-1.224 1.098-1.702A4.272 4.272 0 0 1 97.405 2c1.281 0 2.074.507 2.38 1.522l15.832 54.985 9.153-33.403c.305-1.373 1.372-2.06 3.203-2.06 1.647 0 2.684.687 3.111 2.06l9.153 33.403L156.07 3.522C156.375 2.507 157.168 2 158.45 2c.853 0 1.647.239 2.379.716.732.478 1.098 1.045 1.098 1.702 0 .298-.03.537-.091.716l-17.939 60.717c-.488 1.433-1.708 2.149-3.66 2.149-2.014 0-3.204-.716-3.57-2.15l-8.694-31.611-8.695 31.612c-.366 1.433-1.556 2.149-3.569 2.149s-3.234-.716-3.66-2.15L94.018 5.135c-.061-.179-.092-.418-.092-.716z" id="text" fill="#3273DC" fill-rule="nonzero"/><path d="M171 65.184V4.75c0-.71.271-1.257.814-1.642.543-.384 1.177-.577 1.9-.577h32.037c.724 0 1.282.252 1.674.755.392.503.588 1.109.588 1.819 0 .769-.196 1.435-.588 1.997-.392.562-.95.843-1.674.843h-28.778v24.403h14.298c.664 0 1.192.252 1.584.755.392.503.588 1.139.588 1.908 0 1.597-.724 2.396-2.172 2.396h-14.298v27.776c0 .71-.302 1.257-.905 1.641-.604.385-1.297.577-2.082.577-1.99 0-2.986-.74-2.986-2.218zm44.705-.089V4.662c0-1.42.996-2.13 2.986-2.13 1.991 0 2.987.71 2.987 2.13V61.99h25.791c1.328 0 1.991.887 1.991 2.662 0 1.834-.663 2.751-1.99 2.751h-29.05c-.724 0-1.357-.207-1.9-.621-.543-.414-.815-.976-.815-1.686zm41.176-16.15v-27.51c0-6.508 1.704-11.286 5.113-14.332 3.409-3.047 7.979-4.57 13.71-4.57 5.732 0 10.302 1.523 13.71 4.57 3.409 3.046 5.113 7.824 5.113 14.331v27.51c0 6.567-1.704 11.374-5.113 14.42-3.408 3.047-7.978 4.57-13.71 4.57-5.731 0-10.301-1.523-13.71-4.57-3.409-3.046-5.113-7.853-5.113-14.42zm5.973 0c0 9.05 4.283 13.576 12.85 13.576s12.85-4.525 12.85-13.577v-27.51c0-8.992-4.283-13.488-12.85-13.488s-12.85 4.496-12.85 13.488v27.51zm44.705 16.15V4.662c0-1.301.754-2.011 2.262-2.13h16.018c5.852 0 10.573 1.361 14.163 4.083 3.59 2.72 5.384 7.188 5.384 13.4 0 9.82-4.706 15.53-14.117 17.127l13.936 26.267c.241.296.362.68.362 1.154 0 .769-.362 1.464-1.086 2.085-.724.621-1.508.932-2.353.932-1.086 0-2.141-1.036-3.167-3.106L325.024 37.85h-11.493v27.244c0 .71-.301 1.272-.904 1.686-.604.414-1.298.621-2.082.621-.845 0-1.553-.207-2.127-.621-.573-.414-.86-.976-.86-1.686zm5.972-32.302h12.308c9.05 0 13.574-4.17 13.574-12.512 0-8.224-4.524-12.335-13.574-12.335h-12.308v24.847zm41.9 32.302V4.662c0-1.42.996-2.13 2.987-2.13 1.99 0 2.986.71 2.986 2.13v60.433c0 .71-.302 1.272-.905 1.686-.603.414-1.297.621-2.081.621-.845 0-1.554-.207-2.127-.621-.573-.414-.86-.976-.86-1.686zm19.728.089V4.662c0-.591.257-1.094.77-1.508.512-.414 1.16-.622 1.945-.622h16.018c5.732 0 10.317 1.524 13.755 4.57 3.44 3.047 5.159 7.825 5.159 14.332v26.978c0 6.567-1.72 11.373-5.159 14.42-3.438 3.047-8.023 4.57-13.755 4.57h-16.018c-.784 0-1.433-.222-1.945-.665-.513-.444-.77-.962-.77-1.553zm5.973-3.195h12.76c4.103 0 7.285-1.139 9.547-3.417 2.263-2.277 3.394-5.664 3.394-10.16V21.434c0-4.496-1.131-7.868-3.394-10.116-2.262-2.248-5.444-3.372-9.547-3.372h-12.76v54.043zm39.728 2.928c0-.295.03-.502.09-.62L439.864 4.04c.422-1.36 1.599-2.041 3.53-2.041 1.93 0 3.137.68 3.62 2.041l18.823 60.255c0 .06.015.148.045.267.03.118.045.207.045.266 0 .71-.392 1.316-1.176 1.819-.785.503-1.6.754-2.444.754-1.146 0-1.9-.503-2.262-1.508l-4.163-13.667h-25.067l-4.163 13.667c-.242 1.005-1.026 1.508-2.353 1.508a4.217 4.217 0 0 1-2.353-.71c-.724-.473-1.086-1.065-1.086-1.775zm11.493-17.748h21.99l-10.95-35.762-11.04 35.762z" id="text" fill="#FF6900" fill-rule="nonzero"/><path d="M465.644 64.049l.92.606L822 62v6H466c-2.365-.048-3.895-.247-4.591-.598-1.23-.62-1.838-3.171-1.966-3.911-.173-.998.064-3.068 1.966-3.847.268-.11 1.68 1.359 4.235 4.405z" id="Rectangle" fill="#FF6900"/><path d="M475 65.026V3.476c0-1.952.995-2.927 2.985-2.927 1.749 0 3.347 1.402 4.794 4.207l15.558 30.363 15.559-30.363C515.343 1.95 516.94.549 518.69.549c1.99 0 2.985.975 2.985 2.926v61.55c0 .733-.286 1.312-.86 1.739-.572.426-1.28.64-2.125.64-.784 0-1.477-.214-2.08-.64-.604-.427-.905-1.006-.905-1.738V13.627l-15.016 28.718c-.663 1.28-1.477 1.92-2.442 1.92-.905 0-1.688-.64-2.352-1.92L480.97 13.353v51.673c0 .732-.301 1.31-.904 1.738-.604.426-1.297.64-2.081.64-.844 0-1.553-.214-2.126-.64-.573-.427-.859-1.006-.859-1.738zm55.45-.183c0-.305.03-.518.09-.64l18.905-62.1C549.867.702 551.043 0 552.973 0s3.135.701 3.618 2.104l18.814 62.099c0 .06.016.152.046.274.03.122.045.214.045.274 0 .732-.392 1.357-1.176 1.875-.784.519-1.598.778-2.442.778-1.146 0-1.9-.519-2.262-1.555l-4.16-14.084h-25.057l-4.16 14.084c-.242 1.036-1.026 1.555-2.353 1.555a4.125 4.125 0 0 1-2.351-.732c-.724-.488-1.086-1.097-1.086-1.83zm11.487-18.291h21.98L552.974 9.694l-11.036 36.858zm37.539 5.304c0-2.073.965-3.11 2.895-3.11 2.05 0 3.075.793 3.075 2.378 0 3.476 1.16 6.22 3.483 8.232 2.321 2.012 5.442 3.018 9.362 3.018 4.1 0 7.266-1.159 9.498-3.476 2.23-2.317 3.346-5.822 3.346-10.517V6.128h-12.754c-.723 0-1.281-.29-1.673-.87-.392-.578-.588-1.264-.588-2.057 0-.732.196-1.357.588-1.875.392-.518.95-.777 1.673-.777h15.92c1.87 0 2.804.762 2.804 2.286v45.546c0 6.768-1.703 11.721-5.11 14.861-3.407 3.14-7.915 4.71-13.523 4.71-5.73 0-10.327-1.509-13.795-4.527-3.467-3.018-5.201-6.874-5.201-11.569zm50.384-3.475V20.029c0-6.707 1.703-11.63 5.11-14.77 3.408-3.14 7.976-4.71 13.704-4.71 5.73 0 10.297 1.57 13.704 4.71 3.408 3.14 5.111 8.063 5.111 14.77v28.352c0 6.768-1.703 11.721-5.11 14.861-3.408 3.14-7.976 4.71-13.705 4.71-5.728 0-10.296-1.57-13.704-4.71-3.407-3.14-5.11-8.093-5.11-14.861zm5.97 0c0 9.328 4.281 13.993 12.844 13.993 8.564 0 12.845-4.665 12.845-13.993V20.029c0-9.268-4.281-13.901-12.845-13.901-8.563 0-12.844 4.633-12.844 13.901v28.352zm44.685 16.645V2.744c0-1.342.753-2.073 2.261-2.195h16.01c5.85 0 10.569 1.402 14.157 4.207 3.588 2.804 5.382 7.408 5.382 13.81 0 10.121-4.704 16.005-14.111 17.65l13.93 27.072c.241.305.362.701.362 1.19 0 .792-.362 1.508-1.086 2.148-.723.64-1.507.96-2.351.96-1.086 0-2.141-1.066-3.166-3.2l-13.93-27.437h-11.488v28.077c0 .732-.302 1.31-.905 1.738-.603.426-1.296.64-2.08.64-.845 0-1.553-.214-2.126-.64-.573-.427-.86-1.006-.86-1.738zm5.97-33.29h12.302c9.045 0 13.568-4.299 13.568-12.896 0-8.475-4.523-12.712-13.568-12.712h-12.302v25.608zm41.88 33.29V2.744c0-1.464.996-2.195 2.986-2.195 1.99 0 2.985.731 2.985 2.195v62.282c0 .732-.302 1.31-.905 1.738-.603.426-1.296.64-2.08.64-.845 0-1.553-.214-2.126-.64-.573-.427-.86-1.006-.86-1.738zm14.202-61.642c0-.732.196-1.387.588-1.966.392-.58.95-.87 1.673-.87h36.273c.724 0 1.282.275 1.674.824.391.549.587 1.189.587 1.92 0 .793-.196 1.479-.587 2.058-.392.58-.95.87-1.674.87h-15.106v58.806c0 .732-.301 1.31-.905 1.738-.603.426-1.296.64-2.08.64-.844 0-1.553-.214-2.126-.64-.573-.427-.859-1.006-.859-1.738V6.219h-15.197c-.663 0-1.206-.274-1.628-.823-.422-.549-.633-1.22-.633-2.012zm43.871-.274c0-.732.347-1.342 1.04-1.83.694-.487 1.432-.731 2.216-.731.965 0 1.75.61 2.352 1.829L808.69 35.76l16.734-33.382c.603-1.22 1.387-1.83 2.352-1.83.784 0 1.523.245 2.216.732.694.488 1.04 1.098 1.04 1.83 0 .548-.12 1.097-.361 1.646l-18.815 36.308c-.12.366-.181.61-.181.732v23.23c0 .732-.286 1.31-.86 1.738-.572.426-1.28.64-2.125.64-.784 0-1.477-.214-2.08-.64-.604-.427-.905-1.006-.905-1.738v-23.23c0-.305-.03-.549-.09-.732L786.89 4.756c-.301-.549-.452-1.098-.452-1.646z" id="text" fill="#3273DC" fill-rule="nonzero"/></g></g></svg>