<svg viewBox="0 0 601 315" version="1.1" xmlns="http://www.w3.org/2000/svg" xmlns:xlink="http://www.w3.org/1999/xlink">
    <defs>
        <radialGradient cx="50.0000422%" cy="50.0000422%" fx="50.0000422%" fy="50.0000422%" r="49.9999156%" id="radialGradient-1">
            <stop stop-color="#00FFFF" offset="0%"></stop>
            <stop stop-color="#00E3E3" offset="7.44%"></stop>
            <stop stop-color="#009F9F" offset="27.19%"></stop>
            <stop stop-color="#006666" offset="45.93%"></stop>
            <stop stop-color="#003A3A" offset="63.09%"></stop>
            <stop stop-color="#001A1A" offset="78.36%"></stop>
            <stop stop-color="#000707" offset="91.18%"></stop>
            <stop stop-color="#000000" offset="100%"></stop>
        </radialGradient>
        <linearGradient x1="-0.000652145559%" y1="49.9980436%" x2="99.9993479%" y2="49.9980436%" id="linearGradient-2">
            <stop stop-color="#7BE4BC" offset="0%"></stop>
            <stop stop-color="#78E2BE" offset="27.73%"></stop>
            <stop stop-color="#6FDDC4" offset="46.86%"></stop>
            <stop stop-color="#60D5CE" offset="63.39%"></stop>
            <stop stop-color="#4AC8DC" offset="78.45%"></stop>
            <stop stop-color="#2EB9EF" offset="92.38%"></stop>
            <stop stop-color="#1DAFFA" offset="99.46%"></stop>
        </linearGradient>
        <radialGradient cx="41.2154272%" cy="36.3323606%" fx="41.2154272%" fy="36.3323606%" r="38.6355255%" gradientTransform="translate(0.412154,0.363324),scale(1.000000,0.999539),translate(-0.412154,-0.363324)" id="radialGradient-3">
            <stop stop-color="#4C1DD7" offset="0%"></stop>
            <stop stop-color="#320A5F" offset="99.46%"></stop>
        </radialGradient>
        <linearGradient x1="62.4224815%" y1="7.03255328%" x2="54.6652371%" y2="44.1489254%" id="linearGradient-4">
            <stop stop-color="#FFFFFF" offset="0%"></stop>
            <stop stop-color="#DBFEFE" offset="61.98%"></stop>
            <stop stop-color="#CBFEFD" offset="99.46%"></stop>
        </linearGradient>
        <linearGradient x1="0.00350815646%" y1="50.0039467%" x2="100.002193%" y2="50.0039467%" id="linearGradient-5">
            <stop stop-color="#7BE4BC" offset="0%"></stop>
            <stop stop-color="#78E2BE" offset="27.73%"></stop>
            <stop stop-color="#6FDDC4" offset="46.86%"></stop>
            <stop stop-color="#60D5CE" offset="63.39%"></stop>
            <stop stop-color="#4AC8DC" offset="78.45%"></stop>
            <stop stop-color="#2EB9EF" offset="92.38%"></stop>
            <stop stop-color="#1DAFFA" offset="99.46%"></stop>
        </linearGradient>
        <linearGradient x1="103.455683%" y1="50.000684%" x2="4.38258333%" y2="50.000684%" id="linearGradient-6">
            <stop stop-color="#7BE4BC" offset="0%"></stop>
            <stop stop-color="#78E2BE" offset="27.73%"></stop>
            <stop stop-color="#6FDDC4" offset="46.86%"></stop>
            <stop stop-color="#60D5CE" offset="63.39%"></stop>
            <stop stop-color="#4AC8DC" offset="78.45%"></stop>
            <stop stop-color="#2EB9EF" offset="92.38%"></stop>
            <stop stop-color="#1DAFFA" offset="99.46%"></stop>
        </linearGradient>
        <linearGradient x1="49.99995%" y1="103.455918%" x2="49.99995%" y2="4.3832554%" id="linearGradient-7">
            <stop stop-color="#FFFFFF" offset="0%"></stop>
            <stop stop-color="#FCFFFF" offset="34.39%"></stop>
            <stop stop-color="#F3FFFF" offset="58.11%"></stop>
            <stop stop-color="#E4FEFE" offset="78.61%"></stop>
            <stop stop-color="#CEFEFD" offset="97.17%"></stop>
            <stop stop-color="#CBFEFD" offset="99.46%"></stop>
        </linearGradient>
        <linearGradient x1="49.9998667%" y1="103.457525%" x2="49.9998667%" y2="4.38252982%" id="linearGradient-8">
            <stop stop-color="#FBFEFF" offset="0.54%"></stop>
            <stop stop-color="#FDFFFE" offset="100%"></stop>
        </linearGradient>
        <linearGradient x1="49.99995%" y1="103.455512%" x2="49.99995%" y2="4.38270894%" id="linearGradient-9">
            <stop stop-color="#F7FCFF" offset="0.54%"></stop>
            <stop stop-color="#FAFEFD" offset="100%"></stop>
        </linearGradient>
        <linearGradient x1="50.0001167%" y1="103.458727%" x2="50.0001167%" y2="4.38466829%" id="linearGradient-10">
            <stop stop-color="#F3FBFF" offset="0.54%"></stop>
            <stop stop-color="#F8FEFB" offset="100%"></stop>
        </linearGradient>
        <linearGradient x1="50.0001167%" y1="103.456873%" x2="50.0001167%" y2="4.38298833%" id="linearGradient-11">
            <stop stop-color="#EFF9FF" offset="0.54%"></stop>
            <stop stop-color="#F6FDFA" offset="100%"></stop>
        </linearGradient>
        <linearGradient x1="49.99995%" y1="103.454184%" x2="49.99995%" y2="4.38114864%" id="linearGradient-12">
            <stop stop-color="#EBF8FF" offset="0.54%"></stop>
            <stop stop-color="#F3FDF9" offset="100%"></stop>
        </linearGradient>
        <linearGradient x1="49.9998667%" y1="103.455515%" x2="49.9998667%" y2="4.38137609%" id="linearGradient-13">
            <stop stop-color="#E7F6FE" offset="0.54%"></stop>
            <stop stop-color="#F1FCF8" offset="100%"></stop>
        </linearGradient>
        <linearGradient x1="49.99995%" y1="103.456752%" x2="49.99995%" y2="4.38357161%" id="linearGradient-14">
            <stop stop-color="#E3F5FE" offset="0.54%"></stop>
            <stop stop-color="#EEFCF7" offset="100%"></stop>
        </linearGradient>
        <linearGradient x1="50.0001167%" y1="103.454399%" x2="50.0001167%" y2="4.38154807%" id="linearGradient-15">
            <stop stop-color="#DFF4FE" offset="0.54%"></stop>
            <stop stop-color="#ECFBF5" offset="100%"></stop>
        </linearGradient>
        <linearGradient x1="50.0001167%" y1="103.455648%" x2="50.0001167%" y2="4.3817468%" id="linearGradient-16">
            <stop stop-color="#DBF2FE" offset="0.54%"></stop>
            <stop stop-color="#EAFBF4" offset="100%"></stop>
        </linearGradient>
        <linearGradient x1="50.0002%" y1="103.457304%" x2="50.0002%" y2="4.38383049%" id="linearGradient-17">
            <stop stop-color="#D7F1FE" offset="0.54%"></stop>
            <stop stop-color="#E7FAF3" offset="100%"></stop>
        </linearGradient>
        <linearGradient x1="50.0000333%" y1="103.454464%" x2="50.0000333%" y2="4.38191599%" id="linearGradient-18">
            <stop stop-color="#D3EFFE" offset="0.54%"></stop>
            <stop stop-color="#E5FAF2" offset="100%"></stop>
        </linearGradient>
        <linearGradient x1="49.99995%" y1="103.456052%" x2="49.99995%" y2="4.3821743%" id="linearGradient-19">
            <stop stop-color="#CFEEFE" offset="0.54%"></stop>
            <stop stop-color="#E3F9F1" offset="100%"></stop>
        </linearGradient>
        <linearGradient x1="50.0001167%" y1="103.454837%" x2="50.0001167%" y2="4.38228463%" id="linearGradient-20">
            <stop stop-color="#CBECFE" offset="0.54%"></stop>
            <stop stop-color="#E0F9EF" offset="100%"></stop>
        </linearGradient>
        <linearGradient x1="50.0001167%" y1="103.455166%" x2="50.0001167%" y2="4.3825736%" id="linearGradient-21">
            <stop stop-color="#C6EBFE" offset="0.54%"></stop>
            <stop stop-color="#DEF8EE" offset="100%"></stop>
        </linearGradient>
        <linearGradient x1="49.99995%" y1="103.456015%" x2="49.99995%" y2="4.38277631%" id="linearGradient-22">
            <stop stop-color="#C2EAFE" offset="0.54%"></stop>
            <stop stop-color="#DCF8ED" offset="100%"></stop>
        </linearGradient>
        <linearGradient x1="50.0001167%" y1="103.454696%" x2="50.0001167%" y2="4.3828%" id="linearGradient-23">
            <stop stop-color="#BEE8FE" offset="0.54%"></stop>
            <stop stop-color="#D9F7EC" offset="100%"></stop>
        </linearGradient>
        <linearGradient x1="50.0002%" y1="103.455521%" x2="50.0002%" y2="4.38291559%" id="linearGradient-24">
            <stop stop-color="#BAE7FD" offset="0.54%"></stop>
            <stop stop-color="#D7F7EB" offset="100%"></stop>
        </linearGradient>
        <linearGradient x1="50.0000333%" y1="103.456409%" x2="50.0000333%" y2="4.38302583%" id="linearGradient-25">
            <stop stop-color="#B6E5FD" offset="0.54%"></stop>
            <stop stop-color="#D5F6E9" offset="100%"></stop>
        </linearGradient>
        <linearGradient x1="49.9997833%" y1="103.455656%" x2="49.9997833%" y2="4.3832916%" id="linearGradient-26">
            <stop stop-color="#B2E4FD" offset="0.54%"></stop>
            <stop stop-color="#D2F6E8" offset="100%"></stop>
        </linearGradient>
        <linearGradient x1="49.9998667%" y1="103.454308%" x2="49.9998667%" y2="4.38123833%" id="linearGradient-27">
            <stop stop-color="#AEE2FD" offset="0.54%"></stop>
            <stop stop-color="#D0F5E7" offset="100%"></stop>
        </linearGradient>
        <linearGradient x1="50.0001167%" y1="103.458127%" x2="50.0001167%" y2="4.38377648%" id="linearGradient-28">
            <stop stop-color="#AAE1FD" offset="0.54%"></stop>
            <stop stop-color="#CDF5E6" offset="100%"></stop>
        </linearGradient>
        <linearGradient x1="50.0001167%" y1="103.454993%" x2="50.0001167%" y2="4.38182616%" id="linearGradient-29">
            <stop stop-color="#A6E0FD" offset="0.54%"></stop>
            <stop stop-color="#CBF4E5" offset="100%"></stop>
        </linearGradient>
        <linearGradient x1="49.99995%" y1="103.457221%" x2="49.99995%" y2="4.38161447%" id="linearGradient-30">
            <stop stop-color="#A2DEFD" offset="0.54%"></stop>
            <stop stop-color="#C9F4E3" offset="100%"></stop>
        </linearGradient>
        <linearGradient x1="50.0000333%" y1="103.456435%" x2="50.0000333%" y2="4.38175345%" id="linearGradient-31">
            <stop stop-color="#9EDDFD" offset="0.54%"></stop>
            <stop stop-color="#C6F3E2" offset="100%"></stop>
        </linearGradient>
        <linearGradient x1="49.99995%" y1="103.456248%" x2="49.99995%" y2="4.38360012%" id="linearGradient-32">
            <stop stop-color="#9ADBFD" offset="0.54%"></stop>
            <stop stop-color="#C4F3E1" offset="100%"></stop>
        </linearGradient>
        <linearGradient x1="50.0001167%" y1="103.456414%" x2="50.0001167%" y2="4.38258595%" id="linearGradient-33">
            <stop stop-color="#96DAFD" offset="0.54%"></stop>
            <stop stop-color="#C2F2E0" offset="100%"></stop>
        </linearGradient>
        <linearGradient x1="50.0000333%" y1="103.453905%" x2="50.0000333%" y2="4.38214334%" id="linearGradient-34">
            <stop stop-color="#92D8FD" offset="0.54%"></stop>
            <stop stop-color="#BFF2DF" offset="100%"></stop>
        </linearGradient>
        <linearGradient x1="49.99995%" y1="103.456769%" x2="49.99995%" y2="4.38224911%" id="linearGradient-35">
            <stop stop-color="#8ED7FD" offset="0.54%"></stop>
            <stop stop-color="#BDF2DD" offset="100%"></stop>
        </linearGradient>
        <linearGradient x1="49.99995%" y1="103.457751%" x2="49.99995%" y2="4.38474091%" id="linearGradient-36">
            <stop stop-color="#8AD6FC" offset="0.54%"></stop>
            <stop stop-color="#BBF1DC" offset="100%"></stop>
        </linearGradient>
        <linearGradient x1="49.99995%" y1="103.452921%" x2="49.99995%" y2="4.38172756%" id="linearGradient-37">
            <stop stop-color="#86D4FC" offset="0.54%"></stop>
            <stop stop-color="#B8F1DB" offset="100%"></stop>
        </linearGradient>
        <linearGradient x1="50.0000333%" y1="103.45403%" x2="50.0000333%" y2="4.38277682%" id="linearGradient-38">
            <stop stop-color="#82D3FC" offset="0.54%"></stop>
            <stop stop-color="#B6F0DA" offset="100%"></stop>
        </linearGradient>
        <linearGradient x1="50.0002%" y1="103.455751%" x2="50.0002%" y2="4.38252058%" id="linearGradient-39">
            <stop stop-color="#7ED1FC" offset="0.54%"></stop>
            <stop stop-color="#B4F0D9" offset="100%"></stop>
        </linearGradient>
        <linearGradient x1="49.99995%" y1="103.454325%" x2="49.99995%" y2="4.38155086%" id="linearGradient-40">
            <stop stop-color="#7AD0FC" offset="0.54%"></stop>
            <stop stop-color="#B1EFD8" offset="100%"></stop>
        </linearGradient>
        <linearGradient x1="49.99995%" y1="103.455722%" x2="49.99995%" y2="4.38289367%" id="linearGradient-41">
            <stop stop-color="#76CEFC" offset="0.54%"></stop>
            <stop stop-color="#AFEFD6" offset="100%"></stop>
        </linearGradient>
        <linearGradient x1="49.99995%" y1="103.456737%" x2="49.99995%" y2="4.38227422%" id="linearGradient-42">
            <stop stop-color="#72CDFC" offset="0.54%"></stop>
            <stop stop-color="#ACEED5" offset="99.3%"></stop>
            <stop stop-color="#ACEED5" offset="100%"></stop>
        </linearGradient>
        <linearGradient x1="50.0001167%" y1="103.455722%" x2="50.0001167%" y2="4.38261034%" id="linearGradient-43">
            <stop stop-color="#6ECCFC" offset="0.54%"></stop>
            <stop stop-color="#A8EDD6" offset="96.15%"></stop>
            <stop stop-color="#AAEED4" offset="100%"></stop>
        </linearGradient>
        <linearGradient x1="50.0001167%" y1="103.456293%" x2="50.0001167%" y2="4.38388222%" id="linearGradient-44">
            <stop stop-color="#6ACAFC" offset="0.54%"></stop>
            <stop stop-color="#A4EAD6" offset="93.21%"></stop>
            <stop stop-color="#A8EDD3" offset="100%"></stop>
        </linearGradient>
        <linearGradient x1="50.0002%" y1="103.454623%" x2="50.0002%" y2="4.38086632%" id="linearGradient-45">
            <stop stop-color="#66C9FC" offset="0.54%"></stop>
            <stop stop-color="#A0EAD6" offset="91.8%"></stop>
            <stop stop-color="#A5EDD2" offset="100%"></stop>
        </linearGradient>
        <linearGradient x1="49.99995%" y1="103.456059%" x2="49.99995%" y2="4.38426426%" id="linearGradient-46">
            <stop stop-color="#62C7FC" offset="0.54%"></stop>
            <stop stop-color="#9CE8D5" offset="89.11%"></stop>
            <stop stop-color="#A3ECD0" offset="100%"></stop>
        </linearGradient>
        <linearGradient x1="50.0000333%" y1="103.456627%" x2="50.0000333%" y2="4.38349999%" id="linearGradient-47">
            <stop stop-color="#5EC6FB" offset="0.54%"></stop>
            <stop stop-color="#98E7D5" offset="86.58%"></stop>
            <stop stop-color="#A1ECCF" offset="100%"></stop>
        </linearGradient>
        <linearGradient x1="50.0000333%" y1="103.453122%" x2="50.0000333%" y2="4.37870748%" id="linearGradient-48">
            <stop stop-color="#5AC4FB" offset="0.54%"></stop>
            <stop stop-color="#94E5D5" offset="85.37%"></stop>
            <stop stop-color="#9EEBCE" offset="100%"></stop>
        </linearGradient>
        <linearGradient x1="49.9998667%" y1="103.453874%" x2="49.9998667%" y2="4.38201057%" id="linearGradient-49">
            <stop stop-color="#55C3FB" offset="0.54%"></stop>
            <stop stop-color="#8FE3D6" offset="81.94%"></stop>
            <stop stop-color="#9CEBCD" offset="100%"></stop>
        </linearGradient>
        <linearGradient x1="49.99995%" y1="103.457263%" x2="49.99995%" y2="4.38314159%" id="linearGradient-50">
            <stop stop-color="#51C2FB" offset="0.54%"></stop>
            <stop stop-color="#8BE2D6" offset="79.81%"></stop>
            <stop stop-color="#9AEACC" offset="100%"></stop>
        </linearGradient>
        <linearGradient x1="50.0000333%" y1="103.453736%" x2="50.0000333%" y2="4.38059179%" id="linearGradient-51">
            <stop stop-color="#4DC0FB" offset="0.54%"></stop>
            <stop stop-color="#87E1D5" offset="78.78%"></stop>
            <stop stop-color="#97EACA" offset="100%"></stop>
        </linearGradient>
        <linearGradient x1="50.0000333%" y1="103.456499%" x2="50.0000333%" y2="4.38169171%" id="linearGradient-52">
            <stop stop-color="#49BFFB" offset="0.54%"></stop>
            <stop stop-color="#83DFD5" offset="76.81%"></stop>
            <stop stop-color="#95E9C9" offset="100%"></stop>
        </linearGradient>
        <linearGradient x1="49.99995%" y1="103.455662%" x2="49.99995%" y2="4.38479897%" id="linearGradient-53">
            <stop stop-color="#45BDFB" offset="0.54%"></stop>
            <stop stop-color="#7FDDD5" offset="74.94%"></stop>
            <stop stop-color="#93E9C8" offset="100%"></stop>
        </linearGradient>
        <linearGradient x1="49.9997833%" y1="103.454151%" x2="49.9997833%" y2="4.38229529%" id="linearGradient-54">
            <stop stop-color="#41BCFB" offset="0.54%"></stop>
            <stop stop-color="#7BDCD5" offset="74.03%"></stop>
            <stop stop-color="#90E8C7" offset="100%"></stop>
        </linearGradient>
        <linearGradient x1="49.9998667%" y1="103.454627%" x2="49.9998667%" y2="4.38326156%" id="linearGradient-55">
            <stop stop-color="#3DBAFB" offset="0.54%"></stop>
            <stop stop-color="#77DBD5" offset="72.3%"></stop>
            <stop stop-color="#8EE8C6" offset="100%"></stop>
        </linearGradient>
        <linearGradient x1="50.0001167%" y1="103.455914%" x2="50.0001167%" y2="4.3807416%" id="linearGradient-56">
            <stop stop-color="#39B9FB" offset="0.54%"></stop>
            <stop stop-color="#73D9D5" offset="70.64%"></stop>
            <stop stop-color="#8CE7C4" offset="100%"></stop>
        </linearGradient>
        <linearGradient x1="50.0000333%" y1="103.455582%" x2="50.0000333%" y2="4.38194437%" id="linearGradient-57">
            <stop stop-color="#35B8FB" offset="0.54%"></stop>
            <stop stop-color="#6FD8D5" offset="69.84%"></stop>
            <stop stop-color="#89E7C3" offset="100%"></stop>
        </linearGradient>
        <linearGradient x1="49.99995%" y1="103.453331%" x2="49.99995%" y2="4.38121824%" id="linearGradient-58">
            <stop stop-color="#31B6FA" offset="0.54%"></stop>
            <stop stop-color="#6BD6D5" offset="68.3%"></stop>
            <stop stop-color="#87E6C2" offset="100%"></stop>
        </linearGradient>
        <linearGradient x1="49.99995%" y1="103.454525%" x2="49.99995%" y2="4.38057575%" id="linearGradient-59">
            <stop stop-color="#2DB5FA" offset="0.54%"></stop>
            <stop stop-color="#67D5D4" offset="67.56%"></stop>
            <stop stop-color="#84E6C1" offset="100%"></stop>
        </linearGradient>
        <linearGradient x1="49.99995%" y1="103.455861%" x2="49.99995%" y2="4.38342781%" id="linearGradient-60">
            <stop stop-color="#29B3FA" offset="0.54%"></stop>
            <stop stop-color="#63D3D5" offset="66.12%"></stop>
            <stop stop-color="#82E5C0" offset="100%"></stop>
        </linearGradient>
        <linearGradient x1="50.0001167%" y1="103.45725%" x2="50.0001167%" y2="4.3827882%" id="linearGradient-61">
            <stop stop-color="#25B2FA" offset="0.54%"></stop>
            <stop stop-color="#5FD2D4" offset="64.74%"></stop>
            <stop stop-color="#80E5BE" offset="100%"></stop>
        </linearGradient>
        <linearGradient x1="50.0000333%" y1="103.455648%" x2="50.0000333%" y2="4.3837983%" id="linearGradient-62">
            <stop stop-color="#21B0FA" offset="0.54%"></stop>
            <stop stop-color="#5BD1D4" offset="64.07%"></stop>
            <stop stop-color="#7DE4BD" offset="100%"></stop>
        </linearGradient>
        <linearGradient x1="49.99995%" y1="103.456086%" x2="49.99995%" y2="4.38319578%" id="linearGradient-63">
            <stop stop-color="#1DAFFA" offset="0.54%"></stop>
            <stop stop-color="#57CFD4" offset="62.78%"></stop>
            <stop stop-color="#7BE4BC" offset="100%"></stop>
        </linearGradient>
        <linearGradient x1="50.7485839%" y1="57.212508%" x2="118.084449%" y2="27.2742276%" id="linearGradient-64">
            <stop stop-color="#FFFFFF" offset="0%"></stop>
            <stop stop-color="#FCFFFF" offset="34.39%"></stop>
            <stop stop-color="#F3FFFF" offset="58.11%"></stop>
            <stop stop-color="#E4FEFE" offset="78.61%"></stop>
            <stop stop-color="#CEFEFD" offset="97.17%"></stop>
            <stop stop-color="#CBFEFD" offset="99.46%"></stop>
        </linearGradient>
        <linearGradient x1="49.9993831%" y1="100.000618%" x2="49.9993831%" y2="0.00113511297%" id="linearGradient-65">
            <stop stop-color="#FFFFFF" offset="0%"></stop>
            <stop stop-color="#EAFFFE" offset="45.2%"></stop>
            <stop stop-color="#CBFEFD" offset="99.46%"></stop>
        </linearGradient>
        <linearGradient x1="50.7466369%" y1="57.212508%" x2="118.081057%" y2="27.2742276%" id="linearGradient-66">
            <stop stop-color="#FFFFFF" offset="0%"></stop>
            <stop stop-color="#FCFFFF" offset="34.39%"></stop>
            <stop stop-color="#F3FFFF" offset="58.11%"></stop>
            <stop stop-color="#E4FEFE" offset="78.61%"></stop>
            <stop stop-color="#CEFEFD" offset="97.17%"></stop>
            <stop stop-color="#CBFEFD" offset="99.46%"></stop>
        </linearGradient>
        <linearGradient x1="0.00224988751%" y1="50.0067502%" x2="100.00225%" y2="50.0067502%" id="linearGradient-67">
            <stop stop-color="#FFFFFF" offset="0%"></stop>
            <stop stop-color="#EAFFFE" offset="45.2%"></stop>
            <stop stop-color="#CBFEFD" offset="99.46%"></stop>
        </linearGradient>
        <linearGradient x1="0.00224988751%" y1="50.00075%" x2="100.00225%" y2="50.00075%" id="linearGradient-68">
            <stop stop-color="#FFFFFF" offset="0%"></stop>
            <stop stop-color="#EAFFFE" offset="45.2%"></stop>
            <stop stop-color="#CBFEFD" offset="99.46%"></stop>
        </linearGradient>
        <linearGradient x1="0.003000075%" y1="50.0067502%" x2="100.003%" y2="50.0067502%" id="linearGradient-69">
            <stop stop-color="#FFFFFF" offset="0%"></stop>
            <stop stop-color="#EAFFFE" offset="45.2%"></stop>
            <stop stop-color="#CBFEFD" offset="99.46%"></stop>
        </linearGradient>
        <linearGradient x1="0.003000075%" y1="50.00075%" x2="100.003%" y2="50.00075%" id="linearGradient-70">
            <stop stop-color="#FFFFFF" offset="0%"></stop>
            <stop stop-color="#EAFFFE" offset="45.2%"></stop>
            <stop stop-color="#CBFEFD" offset="99.46%"></stop>
        </linearGradient>
        <linearGradient x1="-0.00158221589%" y1="50.0016234%" x2="99.9996044%" y2="50.0016234%" id="linearGradient-71">
            <stop stop-color="#7BE4BC" offset="0%"></stop>
            <stop stop-color="#78E2BE" offset="27.73%"></stop>
            <stop stop-color="#6FDDC4" offset="46.86%"></stop>
            <stop stop-color="#60D5CE" offset="63.39%"></stop>
            <stop stop-color="#4AC8DC" offset="78.45%"></stop>
            <stop stop-color="#2EB9EF" offset="92.38%"></stop>
            <stop stop-color="#1DAFFA" offset="99.46%"></stop>
        </linearGradient>
        <linearGradient x1="0.00235771208%" y1="49.95%" x2="100.002358%" y2="49.95%" id="linearGradient-72">
            <stop stop-color="#7BE4BC" offset="0%"></stop>
            <stop stop-color="#78E2BE" offset="27.73%"></stop>
            <stop stop-color="#6FDDC4" offset="46.86%"></stop>
            <stop stop-color="#60D5CE" offset="63.39%"></stop>
            <stop stop-color="#4AC8DC" offset="78.45%"></stop>
            <stop stop-color="#2EB9EF" offset="92.38%"></stop>
            <stop stop-color="#1DAFFA" offset="99.46%"></stop>
        </linearGradient>
        <linearGradient x1="-0.000791076655%" y1="50.0016234%" x2="100%" y2="50.0016234%" id="linearGradient-73">
            <stop stop-color="#7BE4BC" offset="0%"></stop>
            <stop stop-color="#78E2BE" offset="27.73%"></stop>
            <stop stop-color="#6FDDC4" offset="46.86%"></stop>
            <stop stop-color="#60D5CE" offset="63.39%"></stop>
            <stop stop-color="#4AC8DC" offset="78.45%"></stop>
            <stop stop-color="#2EB9EF" offset="92.38%"></stop>
            <stop stop-color="#1DAFFA" offset="99.46%"></stop>
        </linearGradient>
        <linearGradient x1="0.000471542415%" y1="49.95%" x2="100.000943%" y2="49.95%" id="linearGradient-74">
            <stop stop-color="#7BE4BC" offset="0%"></stop>
            <stop stop-color="#78E2BE" offset="27.73%"></stop>
            <stop stop-color="#6FDDC4" offset="46.86%"></stop>
            <stop stop-color="#60D5CE" offset="63.39%"></stop>
            <stop stop-color="#4AC8DC" offset="78.45%"></stop>
            <stop stop-color="#2EB9EF" offset="92.38%"></stop>
            <stop stop-color="#1DAFFA" offset="99.46%"></stop>
        </linearGradient>
        <linearGradient x1="49.9990128%" y1="100.000618%" x2="49.9990128%" y2="0.000699741248%" id="linearGradient-75">
            <stop stop-color="#FFFFFF" offset="0%"></stop>
            <stop stop-color="#EAFFFE" offset="45.2%"></stop>
            <stop stop-color="#CBFEFD" offset="99.46%"></stop>
        </linearGradient>
        <linearGradient x1="-13.6513238%" y1="49.9981981%" x2="175.519348%" y2="49.9981981%" id="linearGradient-76">
            <stop stop-color="#320A5F" offset="0.54%"></stop>
            <stop stop-color="#4C1DD7" offset="100%"></stop>
        </linearGradient>
        <linearGradient x1="-13.6513238%" y1="49.9972973%" x2="175.519348%" y2="49.9972973%" id="linearGradient-77">
            <stop stop-color="#320A5F" offset="0.54%"></stop>
            <stop stop-color="#4C1DD7" offset="100%"></stop>
        </linearGradient>
    </defs>
    <g id="Page-1" stroke="none" stroke-width="1" fill="none" fill-rule="evenodd">
        <g id="1">
            <g id="Clipped">
                <g id="Group">
                    <circle id="Oval" fill="url(#radialGradient-1)" cx="439.703" cy="132.497" r="118.465"></circle>
                    <g transform="translate(254.000000, 0.000000)">
                        <g id="Oval">
                            <circle fill="#FFFFFF" opacity="0.15" cx="14.921" cy="14.68" r="13.923"></circle>
                            <circle fill="url(#linearGradient-2)" cx="14.921" cy="14.68" r="7.667"></circle>
                        </g>
                        <g transform="translate(242.000000, 32.000000)" fill="#FFFFFF">
                            <path d="M4.884,0.901 C2.412,0.901 0.42,2.894 0.42,5.365 C0.42,7.836 2.412,9.831 4.884,9.831 C7.357,9.831 9.347,7.836 9.347,5.365 C9.347,2.894 7.356,0.901 4.884,0.901 Z" id="Path" opacity="0.1"></path>
                            <circle id="Oval" cx="4.884" cy="5.365" r="1.05"></circle>
                        </g>
                        <g transform="translate(130.000000, 24.000000)" fill="#FFFFFF">
                            <path d="M7.468,0.34 C3.864,0.34 0.956,3.247 0.956,6.851 C0.956,10.456 3.863,13.367 7.468,13.367 C11.075,13.367 13.98,10.457 13.98,6.851 C13.979,3.247 11.075,0.34 7.468,0.34 Z" id="Path" opacity="0.1"></path>
                            <circle id="Oval" cx="7.468" cy="6.851" r="1.533"></circle>
                        </g>
                        <g transform="translate(23.000000, 98.000000)" fill="#FFFFFF">
                            <path d="M7.664,0.013 C3.919,0.013 0.898,3.034 0.898,6.78 C0.898,10.525 3.919,13.55 7.664,13.55 C11.414,13.55 14.431,10.526 14.431,6.78 C14.431,3.033 11.414,0.013 7.664,0.013 Z" id="Path" opacity="0.1"></path>
                            <circle id="Oval" cx="7.664" cy="6.78" r="1.592"></circle>
                        </g>
                        <g transform="translate(64.000000, 30.000000)" id="Path">
                            <path d="M13.08,0.671 C6.101,0.671 0.473,6.3 0.473,13.28 C0.473,20.259 6.102,25.893 13.08,25.893 C20.066,25.893 25.688,20.258 25.688,13.28 C25.688,6.3 20.066,0.671 13.08,0.671 Z" fill="#FFFFFF" opacity="0.1"></path>
                            <path d="M13.079,10.024 C11.278,10.024 9.825,11.476 9.825,13.28 C9.825,15.079 11.278,16.535 13.079,16.535 C14.882,16.535 16.333,15.079 16.333,13.28 C16.333,11.477 14.882,10.024 13.079,10.024 Z" fill="url(#radialGradient-3)"></path>
                        </g>
                        <g transform="translate(279.000000, 18.000000)" fill="#FFFFFF" id="Path">
                            <path d="M2.885,0.878 C2.677,0.878 2.51,1.046 2.51,1.253 L2.51,5.378 C2.51,5.585 2.677,5.753 2.885,5.753 C3.091,5.753 3.26,5.585 3.26,5.378 L3.26,1.253 C3.26,1.046 3.091,0.878 2.885,0.878 Z"></path>
                            <path d="M4.947,2.94 L0.822,2.94 C0.614,2.94 0.447,3.108 0.447,3.315 C0.447,3.522 0.614,3.69 0.822,3.69 L4.947,3.69 C5.153,3.69 5.322,3.522 5.322,3.315 C5.322,3.108 5.153,2.94 4.947,2.94 Z"></path>
                        </g>
                        <g transform="translate(100.000000, 80.000000)" fill="#FFFFFF" id="Path">
                            <path d="M4.808,0.684 C4.432,0.684 4.127,0.99 4.127,1.365 L4.127,8.854 C4.127,9.23 4.432,9.535 4.808,9.535 C5.184,9.535 5.489,9.23 5.489,8.854 L5.489,1.365 C5.488,0.989 5.184,0.684 4.808,0.684 Z"></path>
                            <path d="M8.552,4.429 L1.063,4.429 C0.688,4.429 0.382,4.734 0.382,5.11 C0.382,5.486 0.688,5.791 1.063,5.791 L8.552,5.791 C8.928,5.791 9.233,5.486 9.233,5.11 C9.233,4.734 8.928,4.429 8.552,4.429 Z"></path>
                        </g>
                        <g transform="translate(297.000000, 103.000000)" fill="#FFFFFF" id="Path">
                            <path d="M2.679,0.035 C2.472,0.035 2.304,0.203 2.304,0.41 L2.304,4.535 C2.304,4.742 2.472,4.91 2.679,4.91 C2.886,4.91 3.054,4.742 3.054,4.535 L3.054,0.41 C3.054,0.203 2.886,0.035 2.679,0.035 Z"></path>
                            <path d="M4.741,2.098 L0.616,2.098 C0.409,2.098 0.241,2.266 0.241,2.473 C0.241,2.68 0.409,2.848 0.616,2.848 L4.741,2.848 C4.948,2.848 5.116,2.68 5.116,2.473 C5.116,2.266 4.948,2.098 4.741,2.098 Z"></path>
                        </g>
                        <g transform="translate(270.000000, 111.000000)" fill="#FFFFFF" id="Path">
                            <path d="M1.741,0.86 C1.607,0.86 1.5,0.969 1.5,1.102 L1.5,3.752 C1.5,3.885 1.607,3.994 1.741,3.994 C1.874,3.994 1.981,3.885 1.981,3.752 L1.981,1.102 C1.981,0.97 1.874,0.86 1.741,0.86 Z"></path>
                            <path d="M3.066,2.187 L0.415,2.187 C0.282,2.187 0.174,2.294 0.174,2.429 C0.174,2.562 0.282,2.669 0.415,2.669 L3.066,2.669 C3.2,2.669 3.307,2.562 3.307,2.429 C3.308,2.294 3.2,2.187 3.066,2.187 Z"></path>
                        </g>
                        <g transform="translate(4.000000, 108.000000)" id="Path">
                            <path d="M33.859,11.576 C9.413,27.155 -2.479,54.994 1.066,81.96 C51.95,91.515 102.167,79.517 141.998,52.169 C140.125,45.789 137.353,39.563 133.602,33.677 C112.163,0.032 67.503,-9.863 33.859,11.576 Z" fill="#FFFFFF" opacity="0.15"></path>
                            <path d="M51.304,38.95 C35.553,48.988 29.265,68.265 34.989,85.203 C62.099,85.327 88.381,79.556 112.29,68.851 C111.731,62.735 109.756,56.657 106.228,51.121 C94.421,32.595 69.834,27.142 51.304,38.95 Z" fill="url(#linearGradient-4)"></path>
                        </g>
                        <g transform="translate(272.000000, 44.000000)" id="Oval">
                            <circle fill="#FFFFFF" opacity="0.15" cx="20.825" cy="21.337" r="20.707"></circle>
                            <circle fill="url(#linearGradient-5)" cx="20.825" cy="21.337" r="11.402"></circle>
                        </g>
                    </g>
                    <path d="M405.497,160.609 C274.654,122.205 249.14,246.468 167.296,203.86 C74.688,155.647 42.098,191.942 0.179,153.851 L0.179,314.374 L600.179,314.374 L600.179,138.942 C538.729,138.942 540.884,200.347 405.497,160.609 Z" id="Path" fill="url(#linearGradient-6)"></path>
                    <path d="M406.552,254.986 C356.164,288.203 317.164,217.442 253.164,250.962 C189.87,284.112 189.462,186.827 93.164,219.526 C53.152,233.112 26.664,233.942 0.18,227.442 L0.18,314.375 L600.18,314.375 L600.18,211.942 C582.664,211.942 566.664,223.109 540.83,239.942 C496.252,268.991 465.708,215.99 406.552,254.986 Z" id="Path" fill="url(#linearGradient-7)"></path>
                    <g transform="translate(0.000000, 192.000000)" id="Path">
                        <path d="M408.667,36.87 C349.147,49.795 333.378,21.35 265.164,45.27 C197.701,68.925 172.446,-4.009 84.164,10.465 C47.482,16.48 26.664,7.442 0.18,0.942 L0.18,5.609 C26.664,12.109 47.483,18.547 84.164,12.532 C172.446,-1.943 197.701,72.256 265.164,48.6 C333.378,24.68 349.147,51.611 408.667,38.686 C478.543,23.511 490.252,57.797 534.83,34.765 C560.664,21.417 582.664,12.775 600.18,12.775 L600.18,10.582 C582.664,10.582 560.664,17.718 534.83,31.065 C490.252,54.097 478.543,21.696 408.667,36.87 Z" fill="#FFFFFF"></path>
                        <path d="M408.634,37.3 C349.278,50.587 333.09,21.372 264.951,45.463 C197.563,69.288 172.747,-4.069 84.322,10.731 C47.581,16.88 26.664,7.976 0.18,1.476 L0.18,6.143 C26.664,12.643 47.584,18.951 84.325,12.8 C172.75,-2 197.562,72.61 264.95,48.785 C333.089,24.694 349.273,52.407 408.63,39.12 C478.315,23.52 490.359,58.141 534.938,35.001 C560.772,21.591 582.665,12.903 600.181,12.903 L600.181,10.705 C582.665,10.705 560.802,17.874 534.974,31.31 C490.403,54.496 478.319,21.701 408.634,37.3 Z" fill="url(#linearGradient-8)"></path>
                        <path d="M408.602,37.729 C349.409,51.378 332.802,21.393 264.739,45.656 C197.425,69.65 173.049,-4.131 84.48,10.995 C47.68,17.28 26.665,8.508 0.18,2.008 L0.18,6.675 C26.664,13.175 47.685,19.353 84.486,13.068 C173.055,-2.057 197.422,72.965 264.736,48.971 C332.799,24.708 349.399,53.204 408.592,39.555 C478.085,23.53 490.467,58.484 535.045,35.237 C560.879,21.764 582.665,13.032 600.18,13.032 L600.18,10.829 C582.664,10.829 560.938,18.03 535.115,31.557 C490.555,54.895 478.095,21.705 408.602,37.729 Z" fill="url(#linearGradient-9)"></path>
                        <path d="M408.569,38.16 C349.539,52.172 332.514,21.415 264.526,45.848 C197.286,70.012 173.349,-4.192 84.637,11.258 C47.777,17.679 26.664,9.04 0.179,2.54 L0.179,7.207 C26.663,13.707 47.785,19.755 84.645,13.335 C173.357,-2.116 197.281,73.318 264.52,49.154 C332.508,24.72 349.522,53.999 408.553,39.987 C477.855,23.536 490.573,58.825 535.151,35.47 C560.985,21.936 582.664,13.157 600.179,13.157 L600.179,10.949 C582.663,10.949 561.074,18.183 535.257,31.799 C490.707,55.294 477.871,21.71 408.569,38.16 Z" fill="url(#linearGradient-10)"></path>
                        <path d="M408.536,38.59 C349.669,52.964 332.226,21.437 264.313,46.042 C197.148,70.375 173.65,-4.253 84.795,11.523 C47.875,18.079 26.664,9.573 0.179,3.073 L0.179,7.74 C26.663,14.24 47.887,20.159 84.806,13.603 C173.66,-2.173 197.14,73.673 264.306,49.34 C332.219,24.735 349.647,54.796 408.515,40.421 C477.625,23.545 490.68,59.168 535.258,35.706 C561.092,22.109 582.663,13.286 600.179,13.286 L600.179,11.073 C582.663,11.073 561.211,18.34 535.399,32.045 C490.858,55.693 477.646,21.714 408.536,38.59 Z" fill="url(#linearGradient-11)"></path>
                        <path d="M408.503,39.02 C349.798,53.756 331.938,21.457 264.1,46.235 C197.01,70.738 173.951,-4.313 84.953,11.789 C47.974,18.479 26.664,10.107 0.18,3.607 L0.18,8.274 C26.664,14.774 47.989,20.562 84.968,13.872 C173.966,-2.23 197.002,74.029 264.093,49.526 C331.93,24.75 349.774,55.593 408.478,40.857 C477.397,23.555 490.788,59.512 535.366,35.943 C561.2,22.284 582.664,13.416 600.18,13.416 L600.18,11.198 C582.664,11.198 561.349,18.498 535.542,32.292 C491.01,56.092 477.422,21.719 408.503,39.02 Z" fill="url(#linearGradient-12)"></path>
                        <path d="M408.471,39.449 C349.929,54.548 331.65,21.478 263.888,46.428 C196.871,71.1 174.252,-4.375 85.111,12.053 C48.072,18.879 26.664,10.639 0.18,4.139 L0.18,8.806 C26.664,15.306 48.09,20.965 85.129,14.139 C174.27,-2.288 196.863,74.384 263.879,49.711 C331.641,24.763 349.9,56.389 408.441,41.29 C477.169,23.563 490.896,59.854 535.474,36.178 C561.308,22.456 582.665,13.543 600.181,13.543 L600.181,11.32 C582.665,11.32 561.487,18.652 535.685,32.535 C491.161,56.491 477.198,21.723 408.471,39.449 Z" fill="url(#linearGradient-13)"></path>
                        <path d="M408.438,39.879 C350.06,55.341 331.362,21.5 263.675,46.62 C196.733,71.462 174.553,-4.436 85.269,12.317 C48.171,19.278 26.665,11.171 0.18,4.671 L0.18,9.338 C26.664,15.838 48.192,21.366 85.289,14.405 C174.573,-2.348 196.722,74.737 263.664,49.894 C331.351,24.775 350.024,57.184 408.402,41.722 C476.938,23.57 491.002,60.196 535.58,36.411 C561.414,22.628 582.664,13.669 600.18,13.669 L600.18,11.441 C582.664,11.441 561.623,18.806 535.827,32.778 C491.313,56.891 476.974,21.728 408.438,39.879 Z" fill="url(#linearGradient-14)"></path>
                        <path d="M408.405,40.309 C350.19,56.133 331.074,21.522 263.462,46.813 C196.595,71.825 174.854,-4.496 85.426,12.582 C48.269,19.679 26.664,11.705 0.179,5.205 L0.179,9.872 C26.663,16.372 48.292,21.771 85.449,14.675 C174.876,-2.403 196.582,75.094 263.449,50.082 C331.061,24.79 350.149,57.982 408.364,42.159 C476.709,23.581 491.108,60.541 535.686,36.649 C561.52,22.803 582.663,13.799 600.179,13.799 L600.179,11.567 C582.663,11.567 561.759,18.964 535.968,33.026 C491.464,57.289 476.75,21.732 408.405,40.309 Z" fill="url(#linearGradient-15)"></path>
                        <path d="M408.372,40.739 C350.32,56.925 330.786,21.543 263.249,47.006 C196.456,72.187 175.154,-4.557 85.583,12.846 C48.366,20.077 26.663,12.238 0.179,5.738 L0.179,10.405 C26.663,16.905 48.393,22.175 85.61,14.943 C175.181,-2.461 196.442,75.448 263.235,50.266 C330.772,24.803 350.275,58.779 408.327,42.592 C476.48,23.589 491.216,60.883 535.794,36.884 C561.628,22.976 582.664,13.927 600.179,13.927 L600.179,11.69 C582.663,11.69 561.896,19.121 536.111,33.271 C491.616,57.688 476.525,21.736 408.372,40.739 Z" fill="url(#linearGradient-16)"></path>
                        <path d="M408.339,41.169 C350.45,57.717 330.498,21.565 263.036,47.198 C196.317,72.55 175.455,-4.618 85.741,13.11 C48.465,20.477 26.663,12.769 0.179,6.269 L0.179,10.936 C26.663,17.436 48.494,22.576 85.77,15.209 C175.484,-2.52 196.302,75.801 263.02,50.45 C330.481,24.815 350.399,59.573 408.288,43.024 C476.25,23.596 491.322,61.224 535.9,37.117 C561.734,23.147 582.663,14.054 600.178,14.054 L600.178,11.81 C582.662,11.81 562.032,19.274 536.252,33.514 C491.768,58.087 476.301,21.741 408.339,41.169 Z" fill="url(#linearGradient-17)"></path>
                        <path d="M408.307,41.599 C350.581,58.51 330.21,21.586 262.824,47.392 C196.18,72.913 175.757,-4.679 85.9,13.375 C48.564,20.877 26.664,13.303 0.18,6.803 L0.18,11.47 C26.664,17.97 48.597,22.98 85.932,15.478 C175.788,-2.577 196.163,76.157 262.807,50.636 C330.193,24.83 350.526,60.37 408.251,43.46 C476.022,23.606 491.43,61.568 536.008,37.354 C561.842,23.322 582.663,14.184 600.179,14.184 L600.179,11.935 C582.663,11.935 562.17,19.432 536.395,33.761 C491.919,58.486 476.077,21.745 408.307,41.599 Z" fill="url(#linearGradient-18)"></path>
                        <path d="M408.274,42.028 C350.711,59.301 329.922,21.607 262.611,47.584 C196.042,73.274 176.057,-4.74 86.058,13.64 C48.662,21.277 26.664,13.835 0.18,7.335 L0.18,12.002 C26.664,18.502 48.698,23.383 86.093,15.745 C176.093,-2.635 196.023,76.511 262.593,50.821 C329.904,24.843 350.651,61.167 408.214,43.893 C475.793,23.614 491.538,61.911 536.116,37.588 C561.95,23.494 582.664,14.311 600.18,14.311 L600.18,12.057 C582.664,12.057 562.308,19.586 536.538,34.005 C492.071,58.886 475.853,21.75 408.274,42.028 Z" fill="url(#linearGradient-19)"></path>
                        <path d="M408.241,42.458 C350.842,60.094 329.634,21.629 262.398,47.777 C195.903,73.636 176.358,-4.802 86.215,13.903 C48.76,21.675 26.664,14.368 0.179,7.868 L0.179,12.535 C26.663,19.035 48.798,23.785 86.253,16.013 C176.396,-2.692 195.883,76.866 262.378,51.006 C329.613,24.858 350.776,61.963 408.175,44.327 C475.563,23.623 491.644,62.254 536.222,37.824 C562.056,23.668 582.663,14.439 600.179,14.439 L600.179,12.18 C582.663,12.18 562.444,19.743 536.68,34.25 C492.222,59.284 475.629,21.754 408.241,42.458 Z" fill="url(#linearGradient-20)"></path>
                        <path d="M408.208,42.889 C350.972,60.886 329.345,21.651 262.185,47.97 C195.764,73.999 176.659,-4.862 86.372,14.168 C48.858,22.076 26.663,14.9 0.179,8.4 L0.179,13.067 C26.663,19.567 48.899,24.188 86.413,16.281 C176.699,-2.75 195.742,77.219 262.163,51.191 C329.323,24.871 350.901,62.759 408.137,44.761 C475.333,23.631 491.751,62.596 536.329,38.059 C562.163,23.84 582.663,14.567 600.179,14.567 L600.179,12.303 C582.663,12.303 562.581,19.899 536.822,34.495 C492.374,59.684 475.404,21.759 408.208,42.889 Z" fill="url(#linearGradient-21)"></path>
                        <path d="M408.176,43.318 C351.102,61.677 329.058,21.671 261.973,48.162 C195.627,74.361 176.96,-4.923 86.531,14.433 C48.957,22.476 26.664,15.434 0.18,8.934 L0.18,13.601 C26.664,20.101 49.001,24.591 86.575,16.549 C177.004,-2.807 195.604,77.574 261.95,51.376 C329.035,24.885 351.027,63.556 408.101,45.195 C475.105,23.639 491.859,62.938 536.437,38.295 C562.271,24.014 582.664,14.695 600.18,14.695 L600.18,12.426 C582.664,12.426 562.719,20.054 536.966,34.74 C492.525,60.083 475.18,21.764 408.176,43.318 Z" fill="url(#linearGradient-22)"></path>
                        <path d="M408.143,43.748 C351.232,62.471 328.77,21.692 261.76,48.355 C195.488,74.723 177.261,-4.985 86.688,14.697 C49.055,22.875 26.664,15.966 0.179,9.466 L0.179,14.133 C26.663,20.633 49.102,24.994 86.735,16.817 C177.308,-2.865 195.464,77.929 261.735,51.561 C328.745,24.899 351.152,64.352 408.062,45.629 C474.875,23.649 491.966,63.281 536.544,38.53 C562.378,24.186 582.664,14.823 600.179,14.823 L600.179,12.55 C582.663,12.55 562.854,20.211 537.107,34.987 C492.677,60.481 474.956,21.768 408.143,43.748 Z" fill="url(#linearGradient-23)"></path>
                        <path d="M408.11,44.178 C351.362,63.263 328.482,21.714 261.547,48.548 C195.35,75.086 177.562,-5.045 86.846,14.962 C49.154,23.275 26.664,16.499 0.179,9.999 L0.179,14.666 C26.663,21.166 49.203,25.397 86.895,17.084 C177.611,-2.923 195.323,78.284 261.52,51.746 C328.455,24.912 351.276,65.148 408.024,46.063 C474.646,23.657 492.072,63.624 536.65,38.765 C562.484,24.36 582.663,14.951 600.178,14.951 L600.178,12.673 C582.662,12.673 562.99,20.366 537.248,35.231 C492.829,60.881 474.732,21.772 408.11,44.178 Z" fill="url(#linearGradient-24)"></path>
                        <path d="M408.078,44.607 C351.494,64.054 328.194,21.735 261.335,48.741 C195.212,75.448 177.863,-5.107 87.005,15.225 C49.253,23.674 26.665,17.031 0.18,10.531 L0.18,15.198 C26.664,21.698 49.305,25.8 87.057,17.351 C177.915,-2.981 195.184,78.638 261.307,51.93 C328.166,24.925 351.403,65.944 407.987,46.496 C474.417,23.665 492.18,63.966 536.758,39 C562.592,24.532 582.663,15.078 600.179,15.078 L600.179,12.795 C582.663,12.795 563.128,20.522 537.391,35.475 C492.98,61.28 474.508,21.776 408.078,44.607 Z" fill="url(#linearGradient-25)"></path>
                        <path d="M408.045,45.037 C351.624,64.847 327.906,21.757 261.122,48.933 C195.074,75.81 178.164,-5.168 87.163,15.49 C49.351,24.074 26.665,17.564 0.181,11.064 L0.181,15.731 C26.665,22.231 49.408,26.203 87.219,17.619 C178.22,-3.038 195.046,78.993 261.094,52.116 C327.878,24.939 351.53,66.74 407.95,46.93 C474.189,23.673 492.288,64.309 536.867,39.236 C562.701,24.706 582.665,15.207 600.181,15.207 L600.181,12.919 C582.665,12.919 563.267,20.678 537.536,35.721 C493.131,61.679 474.284,21.781 408.045,45.037 Z" fill="url(#linearGradient-26)"></path>
                        <path d="M408.012,45.468 C351.754,65.64 327.618,21.779 260.909,49.127 C194.935,76.173 178.465,-5.228 87.32,15.755 C49.449,24.474 26.664,18.097 0.18,11.597 L0.18,16.264 C26.664,22.764 49.508,26.607 87.379,17.888 C178.524,-3.095 194.905,79.348 260.879,52.301 C327.588,24.953 351.654,67.537 407.912,47.365 C473.959,23.682 492.395,64.652 536.974,39.471 C562.808,24.878 582.665,15.334 600.181,15.334 L600.181,13.041 C582.665,13.041 563.404,20.833 537.678,35.965 C493.283,62.078 474.06,21.785 408.012,45.468 Z" fill="url(#linearGradient-27)"></path>
                        <path d="M407.979,45.897 C351.884,66.431 327.33,21.799 260.696,49.319 C194.797,76.535 178.765,-5.289 87.477,16.019 C49.547,24.873 26.664,18.629 0.179,12.129 L0.179,16.796 C26.663,23.296 49.608,27.008 87.538,18.154 C178.826,-3.156 194.764,79.701 260.663,52.485 C327.297,24.965 351.778,68.332 407.872,47.797 C473.728,23.69 492.5,64.993 537.079,39.705 C562.913,25.051 582.663,15.461 600.179,15.461 L600.179,13.163 C582.663,13.163 563.539,20.987 537.819,36.209 C493.435,62.478 473.835,21.79 407.979,45.897 Z" fill="url(#linearGradient-28)"></path>
                        <path d="M407.946,46.327 C352.014,67.223 327.042,21.821 260.483,49.512 C194.658,76.898 179.066,-5.349 87.635,16.284 C49.645,25.273 26.664,19.162 0.179,12.662 L0.179,17.329 C26.663,23.829 49.709,27.412 87.699,18.423 C179.13,-3.212 194.624,80.057 260.449,52.671 C327.008,24.98 351.903,69.13 407.835,48.233 C473.5,23.701 492.608,65.338 537.186,39.943 C563.02,25.226 582.663,15.591 600.179,15.591 L600.179,13.288 C582.663,13.288 563.676,21.145 537.961,36.456 C493.586,62.876 473.611,21.795 407.946,46.327 Z" fill="url(#linearGradient-29)"></path>
                        <path d="M407.914,46.757 C352.145,68.016 326.754,21.843 260.271,49.705 C194.52,77.26 179.368,-5.411 87.793,16.548 C49.744,25.673 26.664,19.695 0.18,13.195 L0.18,17.862 C26.664,24.362 49.811,27.814 87.861,18.69 C179.436,-3.27 194.486,80.411 260.236,52.856 C326.719,24.993 352.03,69.925 407.799,48.667 C473.272,23.708 492.717,65.681 537.295,40.178 C563.129,25.399 582.665,15.719 600.18,15.719 L600.18,13.411 C582.664,13.411 563.814,21.301 538.104,36.701 C493.738,63.275 473.387,21.799 407.914,46.757 Z" fill="url(#linearGradient-30)"></path>
                        <path d="M407.881,47.187 C352.275,68.809 326.466,21.864 260.058,49.898 C194.382,77.623 179.668,-5.471 87.951,16.813 C49.843,26.073 26.664,20.228 0.18,13.728 L0.18,18.395 C26.664,24.895 49.913,28.218 88.021,18.958 C179.739,-3.327 194.345,80.766 260.021,53.041 C326.429,25.007 352.155,70.722 407.76,49.101 C473.042,23.717 492.823,66.024 537.401,40.413 C563.235,25.571 582.664,15.847 600.179,15.847 L600.179,13.534 C582.663,13.534 563.95,21.457 538.245,36.946 C493.889,63.674 473.163,21.804 407.881,47.187 Z" fill="url(#linearGradient-31)"></path>
                        <path d="M407.848,47.616 C352.405,69.6 326.178,21.885 259.845,50.091 C194.243,77.985 179.969,-5.533 88.109,17.077 C49.941,26.473 26.664,20.761 0.18,14.261 L0.18,18.928 C26.664,25.428 50.014,28.621 88.182,19.226 C180.042,-3.384 194.205,81.121 259.807,53.227 C326.14,25.021 352.28,71.519 407.723,49.535 C472.813,23.726 492.931,66.367 537.509,40.649 C563.343,25.745 582.664,15.975 600.18,15.975 L600.18,13.658 C582.664,13.658 564.088,21.613 538.389,37.192 C494.041,64.073 472.938,21.808 407.848,47.616 Z" fill="url(#linearGradient-32)"></path>
                        <path d="M407.815,48.047 C352.535,70.393 325.89,21.906 259.632,50.283 C194.105,78.346 180.27,-5.594 88.266,17.342 C50.038,26.872 26.663,21.293 0.179,14.793 L0.179,19.46 C26.663,25.96 50.114,29.023 88.342,19.494 C180.345,-3.443 194.065,81.474 259.592,53.411 C325.849,25.034 352.405,72.314 407.684,49.969 C472.583,23.735 493.037,66.709 537.615,40.884 C563.449,25.918 582.663,16.103 600.179,16.103 L600.179,13.781 C582.663,13.781 564.224,21.769 538.53,37.437 C494.192,64.473 472.714,21.813 407.815,48.047 Z" fill="url(#linearGradient-33)"></path>
                        <path d="M407.783,48.477 C352.666,71.185 325.602,21.928 259.42,50.477 C193.967,78.709 180.571,-5.655 88.424,17.607 C50.137,27.272 26.664,21.827 0.179,15.327 L0.179,19.994 C26.663,26.494 50.216,29.428 88.503,19.763 C180.65,-3.499 193.925,81.83 259.378,53.598 C325.56,25.049 352.53,73.113 407.647,50.404 C472.355,23.744 493.145,67.053 537.723,41.121 C563.557,26.093 582.664,16.232 600.18,16.232 L600.18,13.905 C582.664,13.905 564.362,21.926 538.674,37.683 C494.344,64.871 472.49,21.816 407.783,48.477 Z" fill="url(#linearGradient-34)"></path>
                        <path d="M407.75,48.906 C352.796,71.977 325.314,21.949 259.207,50.669 C193.829,79.072 180.872,-5.716 88.582,17.871 C50.235,27.672 26.664,22.359 0.18,15.859 L0.18,20.526 C26.664,27.026 50.318,29.83 88.664,20.029 C180.954,-3.558 193.786,82.184 259.164,53.781 C325.271,25.061 352.656,73.907 407.609,50.837 C472.125,23.751 493.252,67.395 537.83,41.355 C563.664,26.264 582.664,16.36 600.18,16.36 L600.18,14.027 C582.664,14.027 564.499,22.081 538.816,37.927 C494.496,65.271 472.266,21.821 407.75,48.906 Z" fill="url(#linearGradient-35)"></path>
                        <path d="M407.717,49.336 C352.926,72.77 325.026,21.971 258.994,50.861 C193.69,79.434 181.173,-5.777 88.74,18.134 C50.334,28.071 26.664,22.891 0.18,16.391 L0.18,21.058 C26.664,27.558 50.419,30.232 88.825,20.296 C181.258,-3.616 193.646,82.538 258.95,53.965 C324.982,25.074 352.782,74.702 407.572,51.27 C471.897,23.759 493.359,67.737 537.937,41.588 C563.771,26.436 582.664,16.486 600.18,16.486 L600.18,14.147 C582.664,14.147 564.636,22.235 538.958,38.169 C494.647,65.67 472.042,21.826 407.717,49.336 Z" fill="url(#linearGradient-36)"></path>
                        <path d="M407.685,49.766 C353.058,73.562 324.738,21.993 258.782,51.055 C193.552,79.797 181.474,-5.838 88.898,18.4 C50.433,28.471 26.665,23.425 0.18,16.925 L0.18,21.592 C26.664,28.092 50.52,30.636 88.986,20.565 C181.563,-3.672 193.507,82.894 258.736,54.152 C324.693,25.089 352.907,75.501 407.534,51.705 C471.667,23.769 493.467,68.081 538.045,41.825 C563.879,26.61 582.665,16.616 600.18,16.616 L600.18,14.272 C582.664,14.272 564.773,22.392 539.1,38.417 C494.799,66.068 471.818,21.83 407.685,49.766 Z" fill="url(#linearGradient-37)"></path>
                        <path d="M407.652,50.196 C353.188,74.353 324.45,22.013 258.569,51.247 C193.414,80.159 181.775,-5.899 89.055,18.664 C50.53,28.87 26.664,23.957 0.18,17.457 L0.18,22.124 C26.664,28.624 50.621,31.038 89.146,20.833 C181.866,-3.73 193.366,83.248 258.521,54.336 C324.402,25.103 353.032,76.296 407.496,52.139 C471.438,23.777 493.573,68.423 538.151,42.06 C563.985,26.784 582.664,16.744 600.179,16.744 L600.179,14.395 C582.663,14.395 564.908,22.548 539.242,38.662 C494.95,66.468 471.594,21.835 407.652,50.196 Z" fill="url(#linearGradient-38)"></path>
                        <path d="M407.619,50.626 C353.318,75.146 324.162,22.035 258.356,51.44 C193.275,80.521 182.076,-5.96 89.213,18.928 C50.628,29.27 26.664,24.49 0.179,17.99 L0.179,22.657 C26.663,29.157 50.721,31.441 89.306,21.1 C182.168,-3.789 193.225,83.602 258.306,54.521 C324.112,25.116 353.156,77.092 407.457,52.572 C471.207,23.785 493.679,68.765 538.257,42.295 C564.091,26.956 582.662,16.871 600.178,16.871 L600.178,14.517 C582.662,14.517 565.045,22.703 539.383,38.906 C495.102,66.867 471.37,21.839 407.619,50.626 Z" fill="url(#linearGradient-39)"></path>
                        <path d="M407.586,51.056 C353.447,75.939 323.874,22.056 258.143,51.633 C193.137,80.884 182.376,-6.02 89.371,19.194 C50.727,29.671 26.664,25.023 0.18,18.523 L0.18,23.19 C26.664,29.69 50.824,31.845 89.468,21.369 C182.473,-3.845 193.087,83.958 258.093,54.707 C323.823,25.131 353.282,77.89 407.421,53.007 C470.98,23.795 493.788,69.11 538.366,42.531 C564.2,27.13 582.664,17 600.18,17 L600.18,14.642 C582.664,14.642 565.183,22.861 539.528,39.153 C495.253,67.266 471.145,21.844 407.586,51.056 Z" fill="url(#linearGradient-40)"></path>
                        <path d="M407.554,51.485 C353.578,76.73 323.586,22.077 257.931,51.826 C192.999,81.246 182.678,-6.082 89.529,19.457 C50.825,30.069 26.664,25.556 0.18,19.056 L0.18,23.723 C26.664,30.223 50.925,32.247 89.629,21.636 C182.778,-3.903 192.947,84.312 257.879,54.892 C323.534,25.144 353.408,78.685 407.383,53.441 C470.751,23.803 493.895,69.452 538.473,42.766 C564.307,27.302 582.664,17.127 600.18,17.127 L600.18,14.764 C582.664,14.764 565.321,23.015 539.67,39.397 C495.405,67.665 470.921,21.848 407.554,51.485 Z" fill="url(#linearGradient-41)"></path>
                        <path d="M407.521,51.915 C353.709,77.522 323.298,22.099 257.718,52.019 C192.861,81.609 182.979,-6.142 89.687,19.722 C50.924,30.469 26.665,26.088 0.18,19.588 L0.18,24.255 C26.664,30.755 51.027,32.651 89.789,21.903 C183.081,-3.962 192.807,84.666 257.664,55.076 C323.244,25.157 353.533,79.481 407.345,53.874 C470.521,23.811 494.002,69.794 538.58,43.001 C564.414,27.476 582.664,17.255 600.18,17.255 L600.18,14.887 C582.664,14.887 565.457,23.171 539.812,39.642 C495.557,68.064 470.697,21.853 407.521,51.915 Z" fill="url(#linearGradient-42)"></path>
                        <path d="M407.488,52.345 C353.839,78.315 323.01,22.12 257.505,52.211 C192.722,81.971 183.279,-6.203 89.844,19.986 C51.022,30.869 26.664,26.621 0.179,20.121 L0.179,24.788 C26.663,31.288 51.127,33.054 89.949,22.171 C183.384,-4.019 192.666,85.021 257.449,55.262 C322.954,25.17 353.657,80.278 407.306,54.308 C470.291,23.82 494.108,70.137 538.686,43.237 C564.52,27.649 582.663,17.383 600.179,17.383 L600.179,15.01 C582.663,15.01 565.594,23.326 539.953,39.887 C495.708,68.463 470.473,21.857 407.488,52.345 Z" fill="url(#linearGradient-43)"></path>
                        <path d="M407.455,52.775 C353.969,79.107 322.722,22.141 257.292,52.404 C192.584,82.333 183.58,-6.265 90.001,20.251 C51.119,31.269 26.663,27.153 0.179,20.653 L0.179,25.32 C26.663,31.82 51.228,33.456 90.11,22.439 C183.689,-4.078 192.527,85.375 257.235,55.446 C322.665,25.183 353.783,81.074 407.269,54.742 C470.062,23.828 494.216,70.479 538.794,43.471 C564.628,27.821 582.664,17.51 600.179,17.51 L600.179,15.132 C582.663,15.132 565.73,23.482 540.096,40.131 C495.86,68.862 470.249,21.861 407.455,52.775 Z" fill="url(#linearGradient-44)"></path>
                        <path d="M407.422,53.205 C354.099,79.899 322.434,22.163 257.079,52.597 C192.445,82.696 183.881,-6.325 90.159,20.516 C51.218,31.668 26.663,27.687 0.179,21.187 L0.179,25.854 C26.663,32.354 51.329,33.86 90.27,22.708 C183.992,-4.134 192.386,85.73 257.02,55.633 C322.374,25.198 353.908,81.871 407.23,55.177 C469.832,23.838 494.322,70.823 538.9,43.708 C564.734,27.995 582.663,17.64 600.178,17.64 L600.178,15.257 C582.662,15.257 565.866,23.639 540.237,40.378 C496.011,69.261 470.024,21.866 407.422,53.205 Z" fill="url(#linearGradient-45)"></path>
                        <path d="M407.39,53.635 C354.23,80.692 322.146,22.185 256.867,52.79 C192.307,83.058 184.182,-6.387 90.318,20.779 C51.317,32.067 26.664,28.218 0.18,21.718 L0.18,26.385 C26.664,32.885 51.431,34.261 90.432,22.974 C184.296,-4.193 192.247,86.083 256.807,55.816 C322.086,25.211 354.034,82.666 407.194,55.609 C469.605,23.844 494.431,71.165 539.009,43.942 C564.843,28.167 582.664,17.766 600.18,17.766 L600.18,15.378 C582.664,15.378 566.005,23.793 540.382,40.621 C496.163,69.66 469.8,21.87 407.39,53.635 Z" fill="url(#linearGradient-46)"></path>
                        <path d="M407.357,54.064 C354.36,81.483 321.858,22.206 256.654,52.982 C192.169,83.42 184.483,-6.448 90.476,21.044 C51.415,32.468 26.664,28.752 0.18,22.252 L0.18,26.919 C26.664,33.419 51.533,34.665 90.593,23.242 C184.6,-4.25 192.108,86.439 256.593,56.002 C321.797,25.225 354.159,83.463 407.156,56.044 C469.375,23.854 494.537,71.508 539.115,44.178 C564.949,28.341 582.663,17.895 600.179,17.895 L600.179,15.502 C582.663,15.502 566.141,23.949 540.523,40.866 C496.314,70.06 469.576,21.875 407.357,54.064 Z" fill="url(#linearGradient-47)"></path>
                        <path d="M407.324,54.494 C354.491,82.276 321.57,22.227 256.441,53.176 C192.03,83.782 184.784,-6.509 90.633,21.309 C51.513,32.868 26.664,29.285 0.179,22.785 L0.179,27.452 C26.663,33.952 51.633,35.069 90.753,23.511 C184.904,-4.306 191.967,86.795 256.378,56.188 C321.506,25.24 354.284,84.26 407.118,56.479 C469.146,23.864 494.645,71.852 539.223,44.415 C565.057,28.516 582.664,18.024 600.18,18.024 L600.18,15.627 C582.664,15.627 566.279,24.107 540.666,41.113 C496.466,70.458 469.352,21.879 407.324,54.494 Z" fill="url(#linearGradient-48)"></path>
                        <path d="M407.292,54.925 C354.622,83.069 321.282,22.249 256.229,53.368 C191.893,84.144 185.085,-6.57 90.791,21.573 C51.612,33.266 26.664,29.817 0.18,23.317 L0.18,27.984 C26.664,34.484 51.735,35.47 90.914,23.778 C185.208,-4.366 191.828,87.148 256.164,56.372 C321.217,25.252 354.41,85.056 407.081,56.911 C468.917,23.871 494.752,72.193 539.331,44.648 C565.165,28.686 582.665,18.15 600.181,18.15 L600.181,15.748 C582.665,15.748 566.417,24.262 540.809,41.356 C496.618,70.857 469.127,21.884 407.292,54.925 Z" fill="url(#linearGradient-49)"></path>
                        <path d="M407.259,55.354 C354.751,83.86 320.994,22.269 256.016,53.56 C191.754,84.506 185.386,-6.63 90.949,21.837 C51.71,33.666 26.664,30.349 0.18,23.849 L0.18,28.516 C26.664,35.016 51.836,35.873 91.075,24.045 C185.512,-4.424 191.688,87.502 255.95,56.556 C320.929,25.265 354.535,85.851 407.043,57.345 C468.688,23.878 494.859,72.534 539.437,44.883 C565.271,28.859 582.664,18.278 600.18,18.278 L600.18,15.871 C582.664,15.871 566.553,24.417 540.951,41.601 C496.769,71.257 468.903,21.889 407.259,55.354 Z" fill="url(#linearGradient-50)"></path>
                        <path d="M407.226,55.784 C354.881,84.652 320.706,22.291 255.803,53.754 C191.615,84.869 185.687,-6.691 91.106,22.102 C51.808,34.067 26.664,30.883 0.179,24.383 L0.179,29.05 C26.663,35.55 51.937,36.278 91.235,24.314 C185.816,-4.48 191.548,87.858 255.735,56.742 C320.638,25.28 354.66,86.648 407.005,57.78 C468.459,23.888 494.966,72.879 539.545,45.12 C565.379,29.033 582.665,18.407 600.18,18.407 L600.18,15.995 C582.664,15.995 566.69,24.574 541.093,41.848 C496.92,71.655 468.679,21.893 407.226,55.784 Z" fill="url(#linearGradient-51)"></path>
                        <path d="M407.193,56.214 C355.011,85.444 320.418,22.313 255.59,53.946 C191.477,85.231 185.987,-6.752 91.264,22.366 C51.907,34.466 26.664,31.415 0.18,24.915 L0.18,29.582 C26.664,36.082 52.039,36.68 91.396,24.581 C186.12,-4.538 191.408,88.212 255.521,56.927 C320.349,25.293 354.786,87.445 406.967,58.213 C468.229,23.897 495.073,73.221 539.651,45.355 C565.485,29.207 582.664,18.535 600.179,18.535 L600.179,16.118 C582.663,16.118 566.826,24.729 541.235,42.093 C497.072,72.055 468.455,21.897 407.193,56.214 Z" fill="url(#linearGradient-52)"></path>
                        <path d="M407.161,56.644 C355.142,86.238 320.13,22.334 255.378,54.14 C191.339,85.594 186.289,-6.813 91.423,22.631 C52.006,34.865 26.665,31.948 0.18,25.448 L0.18,30.115 C26.664,36.615 52.14,37.083 91.557,24.848 C186.423,-4.596 191.268,88.566 255.307,57.111 C320.059,25.306 354.911,88.24 406.93,58.647 C468,23.905 495.181,73.563 539.759,45.589 C565.593,29.378 582.664,18.661 600.18,18.661 L600.18,16.239 C582.664,16.239 566.964,24.884 541.378,42.336 C497.224,72.454 468.231,21.901 407.161,56.644 Z" fill="url(#linearGradient-53)"></path>
                        <path d="M407.128,57.073 C355.273,87.029 319.842,22.355 255.165,54.332 C191.201,85.957 186.59,-6.874 91.581,22.895 C52.104,35.265 26.665,32.48 0.181,25.98 L0.181,30.647 C26.665,37.147 52.243,37.485 91.719,25.116 C186.728,-4.654 191.13,88.921 255.094,57.297 C319.771,25.32 355.038,89.036 406.893,59.081 C467.772,23.913 495.289,73.906 539.867,45.824 C565.701,29.552 582.665,18.791 600.181,18.791 L600.181,16.362 C582.665,16.362 567.102,25.04 541.521,42.582 C497.375,72.853 468.007,21.906 407.128,57.073 Z" fill="url(#linearGradient-54)"></path>
                        <path d="M407.095,57.504 C355.403,87.821 319.554,22.377 254.952,54.525 C191.062,86.319 186.89,-6.936 91.738,23.16 C52.202,35.665 26.664,33.014 0.18,26.514 L0.18,31.181 C26.664,37.681 52.343,37.889 91.879,25.385 C187.032,-4.711 190.989,89.276 254.879,57.482 C319.481,25.335 355.162,89.834 406.855,59.515 C467.543,23.922 495.396,74.249 539.974,46.06 C565.808,29.725 582.665,18.919 600.181,18.919 L600.181,16.485 C582.665,16.485 567.239,25.196 541.663,42.827 C497.527,73.252 467.783,21.91 407.095,57.504 Z" fill="url(#linearGradient-55)"></path>
                        <path d="M407.062,57.934 C355.533,88.614 319.266,22.399 254.739,54.718 C190.924,86.682 187.191,-6.996 91.895,23.424 C52.3,36.065 26.664,33.546 0.179,27.046 L0.179,31.713 C26.663,38.213 52.443,38.292 92.038,25.652 C187.334,-4.77 190.848,89.63 254.663,57.667 C319.19,25.348 355.286,90.629 406.815,59.949 C467.312,23.93 495.501,74.592 540.079,46.295 C565.913,29.899 582.663,19.047 600.179,19.047 L600.179,16.609 C582.663,16.609 567.374,25.352 541.804,43.073 C497.678,73.651 467.559,21.915 407.062,57.934 Z" fill="url(#linearGradient-56)"></path>
                        <path d="M407.029,58.363 C355.663,89.406 318.978,22.42 254.526,54.91 C190.785,87.044 187.492,-7.057 92.053,23.688 C52.398,36.463 26.664,34.079 0.179,27.579 L0.179,32.246 C26.663,38.746 52.544,38.694 92.199,25.92 C187.638,-4.827 190.708,89.984 254.449,57.852 C318.901,25.361 355.411,91.426 406.778,60.383 C467.083,23.94 495.609,74.935 540.187,46.53 C566.021,30.071 582.664,19.175 600.18,19.175 L600.18,16.732 C582.664,16.732 567.512,25.508 541.947,43.318 C497.83,74.05 467.334,21.92 407.029,58.363 Z" fill="url(#linearGradient-57)"></path>
                        <path d="M406.997,58.793 C355.794,90.198 318.69,22.441 254.314,55.104 C190.647,87.407 187.793,-7.118 92.211,23.954 C52.497,36.865 26.664,34.612 0.18,28.112 L0.18,32.779 C26.664,39.279 52.646,39.098 92.361,26.188 C187.944,-4.884 190.57,90.34 254.236,58.038 C318.612,25.375 355.538,92.223 406.741,60.817 C466.854,23.948 495.717,75.278 540.295,46.766 C566.129,30.245 582.665,19.303 600.18,19.303 L600.18,16.855 C582.664,16.855 567.649,25.664 542.09,43.562 C497.981,74.449 467.11,21.924 406.997,58.793 Z" fill="url(#linearGradient-58)"></path>
                        <path d="M406.964,59.223 C355.924,90.991 318.402,22.462 254.101,55.296 C190.509,87.769 188.094,-7.179 92.369,24.218 C52.596,37.264 26.664,35.145 0.18,28.645 L0.18,33.312 C26.664,39.812 52.748,39.501 92.521,26.456 C188.247,-4.941 190.43,90.695 254.021,58.223 C318.322,25.389 355.663,93.019 406.703,61.252 C466.625,23.957 495.824,75.621 540.402,47.002 C566.236,30.418 582.665,19.432 600.18,19.432 L600.18,16.979 C582.664,16.979 567.785,25.821 542.232,43.808 C498.133,74.848 466.886,21.929 406.964,59.223 Z" fill="url(#linearGradient-59)"></path>
                        <path d="M406.931,59.652 C356.054,91.782 318.114,22.483 253.888,55.489 C190.371,88.131 188.395,-7.24 92.527,24.482 C52.694,37.663 26.664,35.676 0.18,29.176 L0.18,33.843 C26.664,40.343 52.849,39.903 92.682,26.722 C188.55,-5 190.29,91.049 253.807,58.407 C318.033,25.401 355.788,93.814 406.665,61.684 C466.395,23.964 495.931,75.962 540.509,47.236 C566.343,30.59 582.664,19.558 600.18,19.558 L600.18,17.1 C582.664,17.1 567.923,25.974 542.374,44.051 C498.285,75.247 466.662,21.933 406.931,59.652 Z" fill="url(#linearGradient-60)"></path>
                        <path d="M406.898,60.083 C356.184,92.575 317.826,22.505 253.675,55.682 C190.232,88.494 188.696,-7.3 92.684,24.746 C52.791,38.062 26.663,36.21 0.179,29.71 L0.179,34.377 C26.663,40.877 52.949,40.307 92.842,26.991 C188.853,-5.058 190.149,91.403 253.592,58.592 C317.742,25.415 355.913,94.611 406.627,62.118 C466.166,23.973 496.037,76.306 540.615,47.472 C566.449,30.764 582.663,19.687 600.179,19.687 L600.179,17.224 C582.663,17.224 568.058,26.131 542.515,44.297 C498.436,75.646 466.438,21.938 406.898,60.083 Z" fill="url(#linearGradient-61)"></path>
                        <path d="M406.866,60.513 C356.315,93.367 317.538,22.527 253.463,55.875 C190.094,88.855 188.997,-7.362 92.842,25.011 C52.89,38.463 26.664,36.742 0.179,30.242 L0.179,34.909 C26.663,41.409 53.051,40.709 93.003,27.259 C189.158,-5.115 190.009,91.758 253.378,58.778 C317.453,25.429 356.038,95.408 406.589,62.553 C465.937,23.982 496.145,76.649 540.723,47.707 C566.557,30.936 582.664,19.814 600.18,19.814 L600.18,17.346 C582.664,17.346 568.197,26.285 542.659,44.541 C498.588,76.045 466.213,21.941 406.866,60.513 Z" fill="url(#linearGradient-62)"></path>
                        <path d="M406.833,60.942 C356.445,94.159 317.25,22.547 253.25,56.067 C189.956,89.217 189.298,-7.423 93,25.275 C52.988,38.862 26.664,37.275 0.18,30.775 L0.18,35.442 C26.664,41.942 53.153,41.112 93.164,27.526 C189.462,-5.173 189.87,92.112 253.164,58.962 C317.164,25.442 356.164,96.203 406.552,62.986 C465.708,23.99 496.252,76.991 540.83,47.942 C566.664,31.109 582.664,19.942 600.18,19.942 L600.18,17.469 C582.664,17.469 568.333,26.442 542.801,44.786 C498.739,76.444 465.989,21.946 406.833,60.942 Z" fill="url(#linearGradient-63)"></path>
                    </g>
                    <g transform="translate(287.000000, 119.000000)">
                        <g transform="translate(240.000000, 30.000000)" id="Path">
                            <path d="M4.339,2.653 C4.095,2.614 3.701,3.626 3.74,3.869 C4.011,4.423 4.335,4.262 4.514,4.817 C4.428,4.311 4.447,3.759 4.52,3.249 C4.579,2.97 4.723,2.683 4.339,2.653 Z" fill="#FCD2C5"></path>
                            <path d="M2.724,1.409 C2.532,1.136 2.137,0.391 1.93,0.229 C1.798,0.125 1.323,-0.005 1.122,0.048 C0.857,0.119 0.843,0.423 0.843,0.423 C0.488,0.445 0.716,1.312 0.628,1.298 C0.268,1.242 0.082,1.719 0.788,2.79 C0.83,2.854 2.044,5.828 2.511,6.747 C3.1,6.506 4.668,5.268 4.66,5.235 C4.48,4.679 4.24,4.105 3.969,3.551 C3.654,2.896 2.785,1.506 2.724,1.409 Z" fill="#FCD2C5"></path>
                            <path d="M15.948,18.514 C10.695,16.749 11.341,21.044 12.759,22.091 C16.493,24.851 28.512,28.518 30.143,26.731 C30.85,25.956 32.544,22.511 32.065,22.31 C29.416,21.198 20.23,19.952 15.948,18.514 Z" fill="#FCD2C5"></path>
                            <path d="M15.5,19.25 C13.819,16.639 5.919,8.056 4.6,5.056 C3.736,5.68 2.974,6.141 2.337,6.376 C4.605,11.266 11.624,22.803 13.754,22.483 C15.705,22.192 15.966,20.74 15.727,19.795 C15.672,19.581 15.592,19.393 15.5,19.25 Z" fill="#FCD2C5"></path>
                            <path d="M31.78,20.683 C27.521,20.513 15.754,18.06 15.422,17.993 C14.609,16.973 8.549,9.691 5.582,5.652 C5.582,5.652 5.222,6.394 4.09,7.062 C3.007,7.702 2.25,7.507 2.25,7.507 C4.255,11.671 9.951,20.922 12.871,22.941 C15.871,25.079 27.509,28.869 30.658,28.271 C33.627,27.708 34.557,20.794 31.78,20.683 Z" fill="#9EC400"></path>
                        </g>
                        <path d="M270.147,40.767 C269.426,42.69 270.51,46.906 269.335,49.823 C268.912,50.874 274.946,49.192 274.878,48.739 C274.574,46.732 274.521,43.989 274.085,42.488 C274.067,42.423 271.228,39.212 270.147,40.767 Z" id="Path" fill="#ED9800"></path>
                        <path d="M299.817,150.987 C299.11,150.424 296.141,152.151 296.084,152.915 C295.852,155.966 291.28,157.219 292.411,158.35 C292.982,158.921 296.09,159.088 297.217,158.281 C298.648,157.257 298.89,156.315 299.197,155.511 C299.95,153.54 300.961,153.7 301.046,152.592 C301.122,151.587 300.183,151.279 299.817,150.987 Z" id="Path" fill="#336291"></path>
                        <path d="M298.906,149.782 L295.704,151.305 C295.704,151.305 296.051,152.105 296.084,152.914 C296.084,152.914 296.263,153.802 298.355,152.865 C299.582,152.315 299.818,150.987 299.818,150.987 C299.085,150.37 298.906,149.782 298.906,149.782 Z" id="Path" fill="#FCD2C5"></path>
                        <path d="M287.569,89.427 L273.732,88.372 C274.826,98.411 277.767,112.134 277.767,112.134 C278.712,121.628 291.212,137.784 295.763,151.301 C295.763,151.301 297.841,151.233 298.958,149.911 C290.643,117.784 287.09,114.829 287.198,111.656 C287.428,104.948 287.209,98.372 287.569,89.427 Z" id="Path" fill="#FCD2C5"></path>
                        <path d="M263.245,94.816 C264.32,104.97 265.691,108.906 266.256,115.477 C267.811,133.549 268.453,152.853 268.453,152.853 C268.453,152.853 270.249,152.551 271.909,152.254 C271.909,152.254 275.474,127.314 274.431,116.203 C273.755,108.999 277.107,107.772 277.701,90.469 L263.245,94.816 Z" id="Path" fill="#FCD2C5"></path>
                        <path d="M273.529,44.497 C274.035,45.371 275.149,48.616 273.697,50.134 C274.065,51.854 278.851,51.757 280.105,48.801 C279.537,47.98 279.548,43.17 279.176,41.963 C278.785,42.265 274.711,44.648 273.529,44.497 Z" id="Path" fill="#FCD2C5"></path>
                        <path d="M286.626,55.96 C286.548,51.909 283.119,49.943 280.105,48.801 C280.105,48.801 276.543,51.533 274.787,50.982 C273.669,50.63 273.697,50.134 273.697,50.134 C273.697,50.134 269.928,49.963 269.32,51.918 C267.801,56.797 265.016,58.515 264.632,61.286 C264.193,64.456 267.529,65.631 267.487,66.827 C266.782,86.754 261.984,94.416 259.824,106.494 C265.182,109.458 281.227,112.887 292.927,107.572 C291.667,95.606 287.464,84.715 286.102,75.606 C285.014,68.328 286.694,59.522 286.626,55.96 Z" id="Path" fill="#FF5931"></path>
                        <path d="M274.359,35.966 C272.186,35.867 270.456,36.782 270.022,38.843 C269.867,39.58 270.333,46.195 273.888,47.117 C275.392,47.507 278.204,44.888 278.284,43.144 C278.284,43.144 278.718,40.561 278.719,40.537 C278.823,38.227 276.692,36.072 274.359,35.966 Z" id="Path" fill="#FCD2C5"></path>
                        <path d="M273.275,33.81 C273.275,33.81 272.212,33.552 271.039,34.171 C268.501,35.51 268.611,41.21 270.576,42.999 C269.744,38.123 271.679,36.498 271.679,36.498 C271.679,36.498 274.312,35.819 276.472,37.757 C278.707,39.761 278.787,48.272 278.03,51.153 C277.64,52.63 283.285,50.859 284.251,48.62 C287.242,41.683 284.986,36.386 282.624,33.974 C280.168,31.468 274.712,30.595 273.275,33.81 Z" id="Path" fill="#ED9800"></path>
                        <path d="M278.427,39.839 C278.201,39.794 277.804,39.776 277.473,40.091 C277.506,40.907 277.731,42.251 277.84,42.915 C278.423,42.873 278.833,42.327 279.077,41.812 C279.441,41.043 279.018,39.955 278.427,39.839 Z" id="Path" fill="#FCD2C5"></path>
                        <path d="M300.199,156.57 C300.207,156.642 300.46,156.657 300.496,156.592 C300.642,156.338 301.058,152.432 301.058,152.432 L300.464,152.386 C300.464,152.387 300.145,156.071 300.199,156.57 Z" id="Path" fill="#336291"></path>
                        <path d="M268.164,153.896 C266.634,157.341 262.461,157.229 263.11,158.691 C263.438,159.429 265.566,159.572 266.953,159.572 C268.424,159.572 270.092,158.107 270.684,157.483 C271.795,156.314 273.383,156.946 273.383,155.378 C273.383,154.371 272.576,153.846 272.34,153.441 C271.885,152.66 268.475,153.196 268.164,153.896 Z" id="Path" fill="#336291"></path>
                        <path d="M272,151.602 L268.411,151.97 C268.411,151.97 268.482,153.304 268.164,153.896 C268.031,154.142 267.671,154.741 268.988,154.654 C269.676,154.609 272.341,153.441 272.341,153.441 C271.909,152.81 272,151.602 272,151.602 Z" id="Path" fill="#FCD2C5"></path>
                        <path d="M271.921,159.519 C271.942,159.589 272.205,159.592 272.219,159.519 C272.516,157.843 273.121,156.2 273.121,156.2 L272.525,155.329 C272.525,155.328 271.81,159.159 271.921,159.519 Z" id="Path" fill="#336291"></path>
                        <g transform="translate(230.000000, 62.000000)" id="Path">
                            <path d="M26.281,0.396 C26.218,0.171 26.012,0.015 25.779,0.015 L0.602,0.015 C0.257,0.015 0.007,0.343 0.1,0.674 L5.08,18.65 C5.388,19.763 6.401,20.535 7.557,20.535 L31.175,20.535 C31.52,20.535 31.769,20.207 31.677,19.875 L26.281,0.396 Z" fill="#336291"></path>
                            <g transform="translate(11.000000, 4.000000)">
                                <polygon fill="#9EC400" points="0.036 4.562 1.418 9.509 3.037 9.509 1.654 4.562"></polygon>
                                <polygon fill="#184767" points="1.888 2.914 3.73 9.509 5.349 9.509 3.507 2.914"></polygon>
                                <polygon fill="#FFCE40" points="3.582 1.528 5.812 9.509 7.43 9.509 5.201 1.528"></polygon>
                                <polygon fill="#FFFFFF" points="5.592 0.444 8.124 9.509 9.742 9.509 7.21 0.444"></polygon>
                            </g>
                            <path d="M30.943,18.694 L5.532,18.694 C5.015,18.694 4.593,19.117 4.593,19.633 C4.593,20.149 5.016,20.572 5.532,20.572 L30.943,20.572 C31.46,20.572 31.882,20.149 31.882,19.633 C31.882,19.117 31.46,18.694 30.943,18.694 Z" fill="#D5F1FF"></path>
                            <g transform="translate(29.000000, 18.000000)">
                                <path d="M17.963,0.694 L1.805,0.694 C1.288,0.694 0.866,1.117 0.866,1.633 C0.866,2.149 1.289,2.572 1.805,2.572 L17.963,2.572 C18.48,2.572 18.902,2.149 18.902,1.633 C18.902,1.117 18.479,0.694 17.963,0.694 Z" fill="#AEBDDC"></path>
                                <g transform="translate(10.000000, 1.000000)" fill="#336291">
                                    <path d="M4.235,0.302 L2.987,0.302 C2.84,0.302 2.72,0.422 2.72,0.57 C2.72,0.718 2.839,0.838 2.987,0.838 L4.235,0.838 C4.382,0.838 4.502,0.718 4.502,0.57 C4.502,0.422 4.383,0.302 4.235,0.302 Z"></path>
                                    <path d="M1.918,0.302 L1.161,0.302 C1.014,0.302 0.893,0.422 0.893,0.57 C0.893,0.718 1.013,0.838 1.161,0.838 L1.918,0.838 C2.066,0.838 2.186,0.718 2.186,0.57 C2.186,0.422 2.066,0.302 1.918,0.302 Z"></path>
                                </g>
                            </g>
                            <polygon fill="#336291" opacity="0.55" points="3.269 0.015 16.171 18.648 17.157 18.648 4.254 0.015"></polygon>
                            <polygon fill="#336291" opacity="0.55" points="5.377 0.015 18.28 18.648 21.653 18.648 8.75 0.015"></polygon>
                        </g>
                        <g transform="translate(251.000000, 52.000000)" id="Path">
                            <path d="M3.663,27.729 C3.663,27.996 4.924,29.12 5.181,29.056 C5.825,28.897 6.037,28.796 6.472,28.519 C5.924,28.575 4.773,27.86 4.315,27.578 C4.054,27.418 3.663,27.301 3.663,27.729 Z" fill="#FCD2C5"></path>
                            <path d="M1.273,29.519 C0.81,29.855 0.698,30.313 0.898,30.592 C1.07,30.831 1.296,30.842 1.308,31.212 C1.331,31.917 2.261,31.415 2.232,31.506 C1.834,32.71 5.679,31.993 8.398,30.805 C8.181,30.158 6.966,28.388 6.93,28.394 C6.323,28.547 1.816,29.122 1.273,29.519 Z" fill="#FCD2C5"></path>
                            <path d="M29.524,1.687 C28.145,4.447 26.154,14.203 24.307,18.691 C22.041,24.195 26.691,23.81 27.914,22.365 C31.138,18.558 35.925,5.937 34.125,4.062 C33.346,3.249 29.774,1.187 29.524,1.687 Z" fill="#FCD2C5"></path>
                            <path d="M25.665,19.02 C25.432,19.063 25.225,19.135 25.064,19.223 C22.145,20.838 10.042,27.245 6.733,28.446 C7.339,29.418 7.78,30.266 7.986,30.966 C13.389,28.884 28.596,23.632 28.406,21.326 C28.233,19.214 26.695,18.83 25.665,19.02 Z" fill="#FCD2C5"></path>
                            <path d="M28.936,1.452 C27.81,2.546 24.02,18.022 23.923,18.373 C22.773,19.172 11.984,24.542 7.442,27.435 C7.442,27.435 8.212,27.874 8.848,29.136 C9.455,30.341 9.194,31.138 9.194,31.138 C13.799,29.286 26.462,25.29 28.834,22.305 C31.339,19.242 35.851,7.826 35.435,4.408 C35.042,1.186 31.077,-0.626 28.936,1.452 Z" fill="#9EC400"></path>
                        </g>
                        <path d="M241.356,33.76 L231.463,0.466 C231.415,0.305 231.271,0.206 231.139,0.245 C231.01,0.284 230.943,0.444 230.988,0.603 L240.384,34.041 C240.478,34.372 240.771,34.581 241.04,34.506 C241.31,34.432 241.452,34.103 241.359,33.771 C241.359,33.769 241.357,33.763 241.356,33.76 Z" id="Path" fill="#2C7EEB"></path>
                        <g transform="translate(0.000000, 62.000000)">
                            <g transform="translate(14.000000, 24.000000)">
                                <path d="M61.648,0.676 L32.721,0.676 C32.422,0.676 32.159,0.875 32.079,1.163 L25.182,26.056 C25.065,26.481 25.384,26.9 25.824,26.9 L52.76,26.9 C54.237,26.9 55.531,25.916 55.925,24.493 L62.29,1.52 C62.408,1.095 62.089,0.676 61.648,0.676 Z" id="Path" fill="#1A4667"></path>
                                <polygon id="Path" fill="#2C7EEB" points="27.096 22.772 55.398 22.772 61.254 1.642 32.95 1.642"></polygon>
                                <polygon id="Path" fill="#2CA0F5" points="27.096 22.772 31.662 22.772 37.517 1.642 32.95 1.642"></polygon>
                                <g id="XMLID_234_" transform="translate(30.000000, 4.000000)" fill="#1A4667">
                                    <g id="XMLID_237_" transform="translate(0.000000, 1.000000)">
                                        <path d="M26.361,0.792 C26.263,0.792 26.169,0.829 26.093,0.897 L20.441,6.046 L14.909,7.889 C14.793,7.927 14.719,8.017 14.669,8.077 C14.661,8.086 14.654,8.095 14.647,8.103 L10.481,12.446 L4.96,9.511 C4.917,9.489 4.869,9.477 4.82,9.476 C4.661,9.475 4.551,9.593 4.491,9.685 L0.08,13.899 L0.651,14.481 C2.422,12.772 4.551,10.778 4.889,10.389 L10.385,13.311 C10.435,13.338 10.493,13.352 10.554,13.353 C10.663,13.354 10.771,13.311 10.84,13.238 L15.277,8.613 C15.57,8.524 20.734,6.801 20.734,6.801 C20.916,6.74 26.629,1.505 26.629,1.505 C26.755,1.39 26.796,1.219 26.735,1.06 C26.674,0.901 26.524,0.794 26.361,0.792 Z" id="Path"></path>
                                    </g>
                                    <polygon id="Path" points="26.058 2.462 26.267 4.442 27.764 0.865 23.967 2.329"></polygon>
                                </g>
                                <polygon id="Path" fill="#9EC400" opacity="0.55" points="31.544 8.89 34.907 8.89 35.434 6.989 32.07 6.989"></polygon>
                                <polygon id="Path" fill="#9EC400" opacity="0.55" points="30.771 11.612 34.134 11.612 34.66 9.712 31.298 9.712"></polygon>
                                <polygon id="Path" fill="#9EC400" opacity="0.55" points="29.998 14.335 33.36 14.335 33.887 12.435 30.524 12.435"></polygon>
                                <polygon id="Path" fill="#9EC400" opacity="0.55" points="29.225 17.058 32.588 17.058 33.114 15.157 29.752 15.157"></polygon>
                                <path d="M29.538,23.077 L1.492,19.786 C0.837,19.71 0.237,20.182 0.16,20.839 C0.084,21.494 0.556,22.093 1.213,22.17 L29.259,25.461 C29.914,25.537 30.514,25.064 30.591,24.408 C30.667,23.753 30.193,23.153 29.538,23.077 Z" id="Path" fill="#AEBFDD"></path>
                                <polygon id="Path" fill="#9EC400" opacity="0.55" points="31.034 24.489 42.128 24.489 58.617 0.676 47.524 0.676"></polygon>
                                <g transform="translate(26.000000, 22.000000)">
                                    <path d="M27.891,3.874 L2.075,0.845 C1.403,0.767 0.789,1.251 0.71,1.923 C0.632,2.595 1.116,3.209 1.788,3.288 L27.605,6.316 C28.276,6.395 28.89,5.91 28.969,5.238 C29.048,4.566 28.563,3.952 27.891,3.874 Z" id="Path" fill="#B2C0DE"></path>
                                    <g transform="translate(17.000000, 3.000000)" fill="#1A4667" id="Rectangle">
                                        <rect transform="translate(3.744756, 1.191066) rotate(-173.298531) translate(-3.744756, -1.191066) " x="2.5777177" y="0.841054802" width="2.33407601" height="1"></rect>
                                        <rect transform="translate(1.098965, 0.839834) rotate(-173.304221) translate(-1.098965, -0.839834) " x="0.252946919" y="0.489826485" width="1.69203536" height="1"></rect>
                                    </g>
                                </g>
                                <path d="M34.542,2.428 C33.839,2.428 33.249,3.014 33.224,3.736 C33.199,4.459 33.747,5.045 34.451,5.045 C35.155,5.045 35.744,4.459 35.769,3.736 C35.793,3.014 35.244,2.428 34.542,2.428 Z" id="Path" fill="#9EC400" opacity="0.55"></path>
                            </g>
                            <g transform="translate(14.000000, 0.000000)" id="Path">
                                <g transform="translate(5.000000, 20.000000)">
                                    <path d="M23.719,32.066 C23.203,32.075 22.653,32.024 22.161,31.876 C22.691,32.124 22.491,32.424 23.007,32.763 C23.242,32.832 24.296,32.569 24.287,32.321 C24.306,31.937 24.003,32.043 23.719,32.066 Z" fill="#FCD2C5"></path>
                                    <path d="M25.32,34.078 C25.231,34.006 23.962,32.97 23.348,32.575 C22.832,32.237 22.292,31.927 21.764,31.679 C21.733,31.667 20.308,33.07 19.995,33.623 C20.849,34.2 23.648,35.776 23.707,35.826 C24.682,36.66 25.177,36.535 25.167,36.171 C25.164,36.082 25.995,36.416 26.063,36.067 C26.063,36.067 26.365,36.09 26.469,35.837 C26.547,35.646 26.476,35.157 26.39,35.014 C26.257,34.788 25.567,34.304 25.32,34.078 Z" fill="#FCD2C5"></path>
                                    <path d="M9.211,19.176 C9.081,19.068 8.904,18.965 8.698,18.884 C7.791,18.529 6.317,18.607 5.784,20.506 C5.202,22.579 15.775,30.984 20.344,33.843 C20.657,33.241 21.209,32.542 21.936,31.762 C19.124,30.079 11.593,21.169 9.211,19.176 Z" fill="#FCD2C5"></path>
                                    <path d="M8.241,2.358 C8.101,1.857 2.856,3.446 1.999,4.049 C0.022,5.445 3.778,17.491 6.05,21.541 C6.913,23.078 11.094,24.254 9.998,18.822 C9.104,14.395 9.013,5.125 8.241,2.358 Z" fill="#FCD2C5"></path>
                                    <path d="M14.272,23.421 C12.973,22.032 11.742,20.716 10.793,19.77 C10.763,19.428 10.709,19.068 10.634,18.696 C10.196,16.519 11.103,4.307 9.196,1.997 C7.512,-0.042 3.265,-0.274 1.087,4.166 C-0.363,7.121 3.616,18.511 5.461,21.821 C7.183,25.017 15.977,31.877 19.999,34.394 L22.269,31.205 C20.64,30.229 17.109,26.454 14.272,23.421 Z" fill="#FEC130"></path>
                                </g>
                                <path d="M47.1,58.221 C37.837,53.398 17.996,51.633 13.8,51.9 C11.561,52.043 9.034,61.994 15.085,64.959 C22.958,68.817 42.818,67.93 48.02,67.264 C49.965,67.013 52.654,61.113 47.1,58.221 Z" fill="#299BF1"></path>
                                <path d="M31.861,92.425 C31.67,93.927 31.917,95.027 31.917,95.027 C31.95,95.099 33.539,95.068 34.385,94.214 C34.385,94.214 34.354,93.528 34.651,92.572 C33.555,91.56 32.015,92.438 31.861,92.425 Z" fill="#FCD2C5"></path>
                                <path d="M40.196,65.816 C35.936,78.319 31.67,92.6 31.67,92.6 C32.818,92.271 34.263,92.846 34.723,93.691 C34.723,93.691 41.999,80.091 49.282,66.962 C52.252,61.606 43.005,57.572 40.196,65.816 Z" fill="#299BF1"></path>
                                <path d="M34.898,94.104 C34.502,93.722 34.427,93.567 34.427,93.567 C34.427,93.567 32.49,93.087 31.916,94.454 C31.916,94.454 31.669,95.869 32.351,96.642 C32.626,96.954 34.027,98.481 34.728,98.802 C35.29,99.059 36.164,99.024 37.149,98.882 C38.135,98.739 39.295,98.095 39.235,97.517 C39.116,96.374 35.662,94.839 34.898,94.104 Z" fill="#1A71EA"></path>
                                <path d="M34.428,94.974 C33.464,94.301 31.806,95.46 32.929,97.016 C33.134,97.3 34.339,98.565 34.93,98.835 C35.403,99.051 36.139,99.023 36.969,98.901 C37.799,98.782 38.776,98.239 38.725,97.753 C38.624,96.791 35.422,95.666 34.428,94.974 Z" fill="#1A71EA"></path>
                                <path d="M13.069,92.276 C12.599,93.21 11.95,94.213 11.95,94.213 C12.796,95.067 14.916,95.828 14.949,95.757 C14.949,95.757 15.379,94.317 15.646,92.844 C15.493,92.856 14.165,91.265 13.069,92.276 Z" fill="#FCD2C5"></path>
                                <path d="M20.625,69.706 C16.365,82.209 12.789,92.601 12.789,92.601 C13.936,92.272 15.314,92.894 15.774,93.739 C15.774,93.739 21.174,84.685 28.457,71.556 C31.428,66.2 23.434,61.462 20.625,69.706 Z" fill="#299BF1"></path>
                                <path d="M14.213,93.619 C14.204,93.615 14.194,93.611 14.185,93.607 C13.471,93.334 12.66,93.552 12.108,94.083 L12.087,94.104 C11.323,94.838 7.87,96.374 7.751,97.516 C7.69,98.094 8.851,98.739 9.836,98.881 C10.822,99.023 11.695,99.058 12.258,98.801 C12.958,98.48 14.386,96.974 14.634,96.641 C14.901,96.284 15.004,95.535 15.044,95.013 C15.088,94.42 14.766,93.841 14.213,93.619 Z" fill="#1A71EA"></path>
                                <path d="M12.557,94.974 C11.564,95.666 8.361,96.791 8.26,97.753 C8.21,98.239 9.187,98.782 10.017,98.901 C10.847,99.022 11.582,99.05 12.056,98.835 C12.646,98.564 13.852,97.3 14.057,97.016 C15.18,95.46 13.521,94.301 12.557,94.974 Z" fill="#1A71EA"></path>
                                <path d="M27.721,47.07 C25.134,47.818 22.366,48.14 19.452,48.074 C14.744,47.968 10.108,47.286 5.445,46.673 C4.369,46.531 3.314,46.39 2.292,46.194 C1.838,50.248 1.524,54.306 1.505,57.913 C1.952,57.948 11.818,65.252 24.013,60.715 C26.383,59.832 29.165,58.514 30.544,53.527 C28.594,52.302 27.707,51.609 27.721,47.07 Z" fill="#9EC400"></path>
                                <path d="M14.465,11.755 C14.659,13.112 14.26,16.89 13.789,17.601 C14.907,20.099 18.99,20.101 19.274,18.628 C18.628,17.042 19.314,14.099 19.322,13.819 C18.317,13.969 14.804,12.005 14.465,11.755 Z" fill="#FCD2C5"></path>
                                <path d="M19.512,4.747 C17.066,4.907 15.587,7.032 15.745,9.456 C15.746,9.481 15.909,11.973 15.909,11.973 C16.028,13.8 17.937,16.724 20.604,16.05 C24.344,15.107 24.668,8.057 24.49,7.286 C23.992,5.133 21.79,4.599 19.512,4.747 Z" fill="#FCD2C5"></path>
                                <path d="M23.634,20.595 C22.992,20.202 19.275,18.628 19.275,18.628 C19.275,18.628 17.981,19.214 16.285,18.853 C14.398,18.451 13.79,17.601 13.79,17.601 C13.79,17.601 10.69,18.444 9.646,18.691 C6.512,19.434 5.477,24.269 4.75,26.983 C4.579,27.623 0.594,41.289 0.513,55.363 C0.979,55.397 1.512,55.455 2.101,55.528 L3.855,46.644 L4.44,55.859 C10.538,56.791 16.351,59.793 23.939,58.164 L24.66,50.819 L25.454,57.84 C28.692,56.984 30.107,53.596 30.238,53.367 C26.315,47.659 26.717,30.554 26.64,28.938 C26.475,25.472 27.485,22.95 23.634,20.595 Z" fill="#FEC130"></path>
                                <path d="M23.956,4.724 C22.381,1.072 16.82,-0.798 13.258,1.994 C10.112,4.46 10.529,8.896 12.443,11.855 C13.428,13.379 11.558,13.069 11.558,13.069 C11.558,13.069 13.051,14.746 14.767,15.309 C20.538,17.208 24.277,9.459 24.277,9.459 C24.277,9.459 21.916,8.73 22.651,8.784 C26.15,9.048 26.915,7.479 26.56,5.669 C26.672,6.392 25.131,7.448 23.956,4.724 Z" fill="#FF5931"></path>
                                <g transform="translate(17.000000, 24.000000)">
                                    <path d="M30.607,25.406 C30.142,25.632 29.27,26.028 28.762,26.101 C28.721,26.563 29.121,26.786 29.738,26.785 C29.984,26.785 31.342,25.618 31.229,25.397 C31.085,25.041 30.854,25.266 30.607,25.406 Z" fill="#FCD2C5"></path>
                                    <path d="M33.626,27.141 C33.409,26.994 30.562,26.313 29.839,26.214 C29.229,26.124 28.609,26.071 28.025,26.069 C27.992,26.072 27.292,27.944 27.242,28.578 C28.852,28.933 30.428,29.05 31.448,29.204 C32.717,29.395 33.253,29.197 33.001,28.835 C32.95,28.762 34.025,28.836 33.774,28.234 C33.774,28.234 34.246,28.034 34.259,27.759 C34.278,27.349 33.765,27.234 33.626,27.141 Z" fill="#FCD2C5"></path>
                                    <path d="M12.36,19.29 C11.403,19.102 9.757,19.891 9.573,21.855 C9.372,23.999 22.705,27.575 27.269,28.582 C27.469,27.934 27.976,27.135 28.55,26.237 C25.483,25.085 15.615,21.021 12.916,19.485 C12.769,19.402 12.577,19.333 12.36,19.29 Z" fill="#FCD2C5"></path>
                                    <path d="M8.62,1.976 C8.421,1.495 2.841,3.628 2.062,4.331 C0.268,5.955 6.016,17.537 8.76,21.283 C9.802,22.705 14.094,23.367 12.351,18.107 C10.931,13.819 9.721,4.628 8.62,1.976 Z" fill="#FCD2C5"></path>
                                    <path d="M11.001,9.292 C10.381,6.114 9.964,3.427 9.548,0.521 C9.515,0.291 2.807,1.13 1.03,3.881 C-0.754,6.646 5.979,18.567 8.211,21.63 C10.306,24.595 21.041,27.237 25.454,28.623 L26.744,25.019 C25.008,24.248 14.312,19.775 13.257,18.952 C13.185,18.615 11.625,12.489 11.001,9.292 Z" fill="#FEC130"></path>
                                </g>
                            </g>
                            <g transform="translate(0.000000, 30.000000)" id="Path">
                                <polygon fill="#1A4667" points="1.589 68.995 2.656 68.995 12.186 41.256 11.118 41.256"></polygon>
                                <polygon fill="#1A4667" points="17.697 68.995 18.765 68.995 28.294 41.256 27.227 41.256"></polygon>
                                <path d="M46.349,36.487 L37.649,36.487 C33.654,36.487 29.35,33.64 28.615,29.714 L24.432,12.343 C23.18,5.66 16.748,0.243 10.066,0.243 C3.384,0.243 -1.018,5.66 0.234,12.343 L7.059,38.455 C7.373,40.092 8.806,41.273 10.472,41.271 L46.352,41.234 C47.663,41.232 48.723,40.171 48.723,38.86 C48.723,37.549 47.66,36.487 46.349,36.487 Z" fill="#1A4667"></path>
                                <path d="M46.349,36.521 L37.649,36.521 C33.654,36.521 29.35,33.658 28.615,29.731 L24.432,12.342 C23.18,5.66 16.748,0.243 10.066,0.243 C6.173,0.243 3.065,2.088 1.386,4.944 C2.904,4.056 4.724,3.547 6.76,3.547 C13.442,3.547 19.873,8.961 21.125,15.643 L25.308,33.008 C26.043,36.935 30.347,39.769 34.342,39.769 L43.043,39.769 C44.022,39.769 44.863,40.379 45.226,41.228 L46.352,41.244 C47.663,41.242 48.723,40.188 48.723,38.879 C48.723,37.566 47.66,36.521 46.349,36.521 Z" fill="#336291"></path>
                                <polygon fill="#336291" points="38.634 41.256 48.162 68.995 49.229 68.995 39.701 41.256"></polygon>
                                <polygon fill="#336291" points="22.525 41.256 32.054 68.995 33.121 68.995 23.592 41.256"></polygon>
                            </g>
                        </g>
                    </g>
                    <g transform="translate(383.000000, 17.000000)" id="Path">
                        <path d="M61.696,163.093 C52.765,163.093 45.528,170.331 45.528,179.261 C45.529,188.189 61.696,222.639 61.696,222.639 C61.696,222.639 77.862,188.19 77.862,179.261 C77.862,170.331 70.625,163.093 61.696,163.093 Z" fill="#FF5931"></path>
                        <path d="M61.695,163.093 C56.591,163.093 52.455,167.23 52.455,172.333 C52.456,177.436 61.695,197.125 61.695,197.125 C61.695,197.125 70.935,177.437 70.935,172.333 C70.935,167.229 66.799,163.093 61.695,163.093 Z" fill="#FEC130"></path>
                        <polygon fill="url(#linearGradient-64)" points="83.982 162.347 68.164 267.176 114.772 267.176 98.953 162.347"></polygon>
                        <path d="M96.343,41.122 L83.532,53.713 C82.193,55.028 81.439,56.826 81.439,58.702 L81.439,162.347 L100.908,162.347 C106.756,162.347 111.496,157.607 111.496,151.759 L111.496,58.738 C111.496,56.841 110.726,55.025 109.362,53.707 L96.343,41.122 Z" fill="#C0DEFB"></path>
                        <path d="M82.291,88.982 C81.446,88.107 80.755,88.386 80.755,89.603 L80.756,150.979 C80.755,152.196 81.749,153.191 82.967,153.192 L117.047,153.191 C122.169,153.191 125.118,147.37 122.089,143.24 L82.291,88.982 Z" fill="url(#linearGradient-65)"></path>
                        <polygon fill="url(#linearGradient-66)" points="24.438 162.347 8.619 267.176 55.228 267.176 39.408 162.347"></polygon>
                        <path d="M27.049,41.122 L14.029,53.706 C12.665,55.024 11.894,56.84 11.894,58.737 L11.894,151.758 C11.894,157.606 16.635,162.346 22.483,162.346 L41.951,162.346 L41.951,58.702 C41.951,56.826 41.197,55.028 39.859,53.713 L27.049,41.122 Z" fill="#C0DEFB"></path>
                        <path d="M96.655,61.442 C92.979,61.442 89.988,64.433 89.988,68.109 C89.988,71.785 92.979,74.775 96.655,74.775 C100.331,74.775 103.322,71.785 103.322,68.109 C103.322,64.433 100.331,61.442 96.655,61.442 Z" fill="url(#linearGradient-67)"></path>
                        <path d="M96.655,77.14 C92.979,77.14 89.988,80.13 89.988,83.806 C89.988,87.482 92.979,90.473 96.655,90.473 C100.331,90.473 103.322,87.482 103.322,83.806 C103.322,80.13 100.331,77.14 96.655,77.14 Z" fill="url(#linearGradient-68)"></path>
                        <path d="M26.024,61.442 C22.348,61.442 19.358,64.433 19.358,68.109 C19.358,71.785 22.348,74.775 26.024,74.775 C29.7,74.775 32.691,71.785 32.691,68.109 C32.691,64.433 29.7,61.442 26.024,61.442 Z" fill="url(#linearGradient-69)"></path>
                        <path d="M26.024,77.14 C22.348,77.14 19.358,80.13 19.358,83.806 C19.358,87.482 22.348,90.473 26.024,90.473 C29.7,90.473 32.691,87.482 32.691,83.806 C32.691,80.13 29.7,77.14 26.024,77.14 Z" fill="url(#linearGradient-70)"></path>
                        <polygon fill="url(#linearGradient-71)" points="83.808 53.442 109.089 53.442 96.343 41.122"></polygon>
                        <path d="M81.439,162.347 L100.908,162.347 C101.502,162.347 102.08,162.286 102.646,162.193 L81.439,162.193 L81.439,162.347 Z" fill="url(#linearGradient-72)"></path>
                        <polygon fill="url(#linearGradient-73)" points="14.302 53.442 39.584 53.442 27.049 41.122"></polygon>
                        <path d="M22.483,162.347 L41.951,162.347 L41.951,162.193 L20.744,162.193 C21.312,162.286 21.89,162.347 22.483,162.347 Z" fill="url(#linearGradient-74)"></path>
                        <path d="M41.101,88.982 L1.303,143.24 C-1.727,147.37 1.223,153.191 6.345,153.191 L40.425,153.192 C41.643,153.191 42.637,152.196 42.636,150.979 L42.637,89.603 C42.637,88.387 41.945,88.107 41.101,88.982 Z" fill="url(#linearGradient-75)"></path>
                        <path d="M38.905,68.367 L38.905,150.54 C38.905,163.128 49.108,173.331 61.695,173.331 C74.282,173.331 84.486,163.128 84.486,150.54 L84.486,68.367 C84.486,43.925 76.481,20.155 61.695,0.692 C46.91,20.155 38.905,43.925 38.905,68.367 Z" fill="#2A9AF3"></path>
                        <path d="M44.511,33.442 C44.511,33.442 49.862,30.275 61.696,30.275 C73.531,30.275 78.882,33.442 78.882,33.442 C75.031,21.725 69.257,10.643 61.696,0.692 C54.136,10.644 48.361,21.726 44.511,33.442 Z" fill="#FEC130"></path>
                        <path d="M61.476,0.995 C64.618,7.483 66.495,14.715 66.833,22.275 C66.952,24.941 66.727,27.689 66.239,30.446 C74.899,31.098 78.881,33.442 78.881,33.442 C75.03,21.725 69.256,10.643 61.695,0.692 C61.62,0.792 61.549,0.895 61.476,0.995 Z" fill="#FFA602"></path>
                        <path d="M61.695,61.562 C58.305,61.562 55.558,64.309 55.558,67.699 L55.558,88.724 C55.558,92.114 58.305,94.861 61.695,94.861 C65.085,94.861 67.833,92.114 67.833,88.724 L67.833,67.699 C67.833,64.309 65.085,61.562 61.695,61.562 Z" fill="url(#linearGradient-76)"></path>
                        <path d="M61.695,100.429 C58.305,100.429 55.558,103.177 55.558,106.567 L55.558,127.591 C55.558,130.982 58.305,133.729 61.695,133.729 C65.085,133.729 67.833,130.982 67.833,127.591 L67.833,106.567 C67.833,103.177 65.085,100.429 61.695,100.429 Z" fill="url(#linearGradient-77)"></path>
                        <path d="M96.655,64.442 C94.633,64.442 92.988,66.087 92.988,68.109 C92.988,70.13 94.633,71.775 96.655,71.775 C98.677,71.775 100.322,70.13 100.322,68.109 C100.322,66.087 98.678,64.442 96.655,64.442 Z" fill="#2C99F2"></path>
                        <path d="M96.655,80.14 C94.633,80.14 92.988,81.785 92.988,83.806 C92.988,85.828 94.633,87.473 96.655,87.473 C98.677,87.473 100.322,85.828 100.322,83.806 C100.322,81.784 98.678,80.14 96.655,80.14 Z" fill="#F46D9E"></path>
                        <path d="M26.024,64.442 C24.003,64.442 22.358,66.087 22.358,68.109 C22.358,70.13 24.003,71.775 26.024,71.775 C28.046,71.775 29.691,70.13 29.691,68.109 C29.691,66.087 28.047,64.442 26.024,64.442 Z" fill="#8095F1"></path>
                        <path d="M26.024,80.14 C24.003,80.14 22.358,81.785 22.358,83.806 C22.358,85.828 24.003,87.473 26.024,87.473 C28.046,87.473 29.691,85.828 29.691,83.806 C29.691,81.784 28.047,80.14 26.024,80.14 Z" fill="#2C99F2"></path>
                    </g>
                </g>
            </g>
        </g>
    </g>
</svg>