<?xml version="1.0" encoding="UTF-8"?>
<svg width="900px" height="323px" viewBox="0 0 900 323" version="1.1" xmlns="http://www.w3.org/2000/svg" xmlns:xlink="http://www.w3.org/1999/xlink">
    <!-- Generator: Sketch Beta 52.4 (67378) - http://www.bohemiancoding.com/sketch -->
    <title>1</title>
    <desc>Created with Sketch Beta.</desc>
    <defs>
        <rect id="path-1" x="0" y="0" width="900" height="674.999"></rect>
        <rect id="path-3" x="0" y="0" width="900" height="674.999"></rect>
        <linearGradient x1="0.000100969848%" y1="50.0001922%" x2="78.2020864%" y2="50.0001922%" id="linearGradient-5">
            <stop stop-color="#C66FD7" offset="0%"></stop>
            <stop stop-color="#5937E5" offset="100%"></stop>
        </linearGradient>
        <linearGradient x1="16.1628674%" y1="50.0001134%" x2="94.3649591%" y2="50.0001134%" id="linearGradient-6">
            <stop stop-color="#52C5F1" offset="0%"></stop>
            <stop stop-color="#5457E2" offset="100%"></stop>
        </linearGradient>
        <linearGradient x1="-2.73270709e-05%" y1="49.9997545%" x2="99.9999727%" y2="49.9997545%" id="linearGradient-7">
            <stop stop-color="#63D4FF" offset="0%"></stop>
            <stop stop-color="#546BE5" offset="100%"></stop>
        </linearGradient>
        <linearGradient x1="0.000988925744%" y1="50.0006303%" x2="100.001334%" y2="50.0006303%" id="linearGradient-8">
            <stop stop-color="#9E90F2" offset="0%"></stop>
            <stop stop-color="#A1D8F6" offset="100%"></stop>
        </linearGradient>
        <linearGradient x1="-0.00487234457%" y1="49.9987606%" x2="99.9922042%" y2="49.9987606%" id="linearGradient-9">
            <stop stop-color="#C66FD7" offset="0%"></stop>
            <stop stop-color="#5937E5" offset="100%"></stop>
        </linearGradient>
        <linearGradient x1="-0.00584681349%" y1="50.0015149%" x2="99.9922042%" y2="50.0015149%" id="linearGradient-10">
            <stop stop-color="#C66FD7" offset="0%"></stop>
            <stop stop-color="#5937E5" offset="100%"></stop>
        </linearGradient>
        <linearGradient x1="0%" y1="50.0023554%" x2="100.001876%" y2="50.0023554%" id="linearGradient-11">
            <stop stop-color="#9E90F2" offset="0%"></stop>
            <stop stop-color="#A1D8F6" offset="100%"></stop>
        </linearGradient>
        <linearGradient x1="-0.000120202421%" y1="50.0002367%" x2="100.000361%" y2="50.0002367%" id="linearGradient-12">
            <stop stop-color="#9E90F2" offset="0%"></stop>
            <stop stop-color="#A1D8F6" offset="100%"></stop>
        </linearGradient>
        <linearGradient x1="-0.000966183575%" y1="50.000473%" x2="99.9951691%" y2="50.000473%" id="linearGradient-13">
            <stop stop-color="#9E90F2" offset="0%"></stop>
            <stop stop-color="#A1D8F6" offset="100%"></stop>
        </linearGradient>
        <linearGradient x1="0.00726744186%" y1="50.000473%" x2="100.005451%" y2="50.000473%" id="linearGradient-14">
            <stop stop-color="#9E90F2" offset="0%"></stop>
            <stop stop-color="#A1D8F6" offset="100%"></stop>
        </linearGradient>
        <linearGradient x1="0%" y1="50.0002459%" x2="100.000353%" y2="50.0002459%" id="linearGradient-15">
            <stop stop-color="#9E90F2" offset="0%"></stop>
            <stop stop-color="#A1D8F6" offset="100%"></stop>
        </linearGradient>
        <linearGradient x1="0.000241384582%" y1="49.9976795%" x2="100.000402%" y2="49.9976795%" id="linearGradient-16">
            <stop stop-color="#9E90F2" offset="0%"></stop>
            <stop stop-color="#A1D8F6" offset="100%"></stop>
        </linearGradient>
        <linearGradient x1="8.04602326e-05%" y1="49.9976795%" x2="100.000161%" y2="49.9976795%" id="linearGradient-17">
            <stop stop-color="#9E90F2" offset="0%"></stop>
            <stop stop-color="#A1D8F6" offset="100%"></stop>
        </linearGradient>
        <linearGradient x1="-0.00106048287%" y1="50.0002415%" x2="99.999293%" y2="50.0002415%" id="linearGradient-18">
            <stop stop-color="#9E90F2" offset="0%"></stop>
            <stop stop-color="#A1D8F6" offset="100%"></stop>
        </linearGradient>
        <linearGradient x1="0.0122017354%" y1="49.9810195%" x2="99.9986443%" y2="49.9810195%" id="linearGradient-19">
            <stop stop-color="#9E90F2" offset="0%"></stop>
            <stop stop-color="#A1D8F6" offset="100%"></stop>
        </linearGradient>
        <linearGradient x1="0%" y1="49.9980408%" x2="99.9997104%" y2="49.9980408%" id="linearGradient-20">
            <stop stop-color="#C66FD7" offset="0%"></stop>
            <stop stop-color="#5937E5" offset="100%"></stop>
        </linearGradient>
        <linearGradient x1="0.00174809894%" y1="50.0006801%" x2="100.005244%" y2="50.0006801%" id="linearGradient-21">
            <stop stop-color="#C66FD7" offset="0%"></stop>
            <stop stop-color="#5937E5" offset="100%"></stop>
        </linearGradient>
        <linearGradient x1="62.0789526%" y1="88.385621%" x2="35.7282249%" y2="24.3089176%" id="linearGradient-22">
            <stop stop-color="#5937E5" offset="0%"></stop>
            <stop stop-color="#7F4BE0" offset="27.02%"></stop>
            <stop stop-color="#A65EDB" offset="58.76%"></stop>
            <stop stop-color="#BD6BD8" offset="84.21%"></stop>
            <stop stop-color="#C66FD7" offset="100%"></stop>
        </linearGradient>
        <linearGradient x1="-0.00186703987%" y1="50.0006303%" x2="99.9991889%" y2="50.0006303%" id="linearGradient-23">
            <stop stop-color="#9E90F2" offset="0%"></stop>
            <stop stop-color="#A1D8F6" offset="100%"></stop>
        </linearGradient>
        <linearGradient x1="-0.00135611608%" y1="49.9810144%" x2="100%" y2="49.9810144%" id="linearGradient-24">
            <stop stop-color="#9E90F2" offset="0%"></stop>
            <stop stop-color="#A1D8F6" offset="100%"></stop>
        </linearGradient>
        <linearGradient x1="-7.68458212%" y1="11.215846%" x2="118.499473%" y2="86.7751957%" id="linearGradient-25">
            <stop stop-color="#C66FD7" offset="0%"></stop>
            <stop stop-color="#B868D9" offset="18.54%"></stop>
            <stop stop-color="#9355DE" offset="53.67%"></stop>
            <stop stop-color="#5937E5" offset="100%"></stop>
        </linearGradient>
        <linearGradient x1="-6.03868136%" y1="10.9229034%" x2="117.359382%" y2="86.7324368%" id="linearGradient-26">
            <stop stop-color="#C66FD7" offset="0%"></stop>
            <stop stop-color="#B868D9" offset="18.54%"></stop>
            <stop stop-color="#9355DE" offset="53.67%"></stop>
            <stop stop-color="#5937E5" offset="100%"></stop>
        </linearGradient>
        <linearGradient x1="0.000894048439%" y1="50.0021542%" x2="100.000282%" y2="50.0021542%" id="linearGradient-27">
            <stop stop-color="#C66FD7" offset="0%"></stop>
            <stop stop-color="#5937E5" offset="100%"></stop>
        </linearGradient>
        <linearGradient x1="-0.001867039%" y1="50.0006303%" x2="99.9991424%" y2="50.0006303%" id="linearGradient-28">
            <stop stop-color="#9E90F2" offset="0%"></stop>
            <stop stop-color="#A1D8F6" offset="100%"></stop>
        </linearGradient>
    </defs>
    <g id="Page-1" stroke="none" stroke-width="1" fill="none" fill-rule="evenodd">
        <g id="1" transform="translate(0.000000, -352.000000)">
            <g id="Clipped">
                <mask id="mask-2" fill="white">
                    <use xlink:href="#path-1"></use>
                </mask>
                <g id="SVGID_1_"></g>
                <g id="Group" opacity="0.4" mask="url(#mask-2)">
                    <g id="Clipped">
                        <mask id="mask-4" fill="white">
                            <use xlink:href="#path-3"></use>
                        </mask>
                        <g id="SVGID_4_"></g>
                        <g id="Group" mask="url(#mask-4)">
                            <g transform="translate(-62.000000, 352.000000)" id="Path">
                                <path d="M173.506,158.847 C81.855,153.752 2.765,235.841 0.222,281.592 C-2.321,327.344 69.914,368.564 161.565,373.658 C253.215,378.753 329.574,345.794 332.118,300.042 C334.662,254.29 265.157,163.941 173.506,158.847 Z" fill="url(#linearGradient-5)"></path>
                                <path d="M725.961,11.374 C560.274,58.892 470.659,253.28 494.379,335.991 C518.099,418.702 671.646,447.232 837.334,399.714 C1003.022,352.196 1118.109,246.625 1094.389,163.914 C1070.669,81.203 891.65,-36.144 725.961,11.374 Z" fill="url(#linearGradient-6)"></path>
                            </g>
                        </g>
                    </g>
                </g>
            </g>
            <g id="Clipped" transform="translate(57.000000, 406.000000)">
                <g id="Group">
                    <g>
                        <path d="M0.988,268.464 C13,267.464 30.649,256.61 39.041,241.317 C47.434,226.023 54.168,207.629 69.61,200.923 C84.062,194.648 100.844,218.708 116.031,214.848 C147.098,206.95 167.058,71.499 206.369,71.499 C243.694,71.499 284.043,195.755 335.804,161.581 C385.483,128.782 422.215,17.188 463.182,2.964 C542.182,-24.467 572.991,191.78 629.762,191.78 C645.825,191.78 644.647,131.683 656.215,124.427 C693.63,100.964 677,231.464 732.863,268.464 L0.988,268.464 Z" id="Path" fill="url(#linearGradient-7)"></path>
                        <g transform="translate(263.000000, 162.000000)" id="Path">
                            <polygon fill="#F0F0F0" points="19.263 63.754 4.592 106.464 2.949 106.464 17.621 63.754"></polygon>
                            <polygon fill="#F0F0F0" points="44.066 63.754 29.394 106.464 27.751 106.464 42.422 63.754"></polygon>
                            <path d="M16.001,0.608 C26.288,0.608 36.191,8.949 38.118,19.237 L44.559,45.983 C45.692,52.03 52.317,56.412 58.469,56.412 L71.864,56.412 C73.884,56.412 75.519,58.048 75.519,60.066 C75.519,62.083 73.885,63.718 71.869,63.721 L16.625,63.778 C14.06,63.781 11.854,61.962 11.37,59.442 L0.86,19.237 C-1.066,8.949 5.712,0.608 16.001,0.608 Z" fill="url(#linearGradient-8)"></path>
                            <path d="M16.685,59.442 L6.175,19.237 C4.417,9.853 9.913,2.112 18.696,0.819 C17.803,0.694 16.905,0.608 16.001,0.608 C5.712,0.608 -1.066,8.949 0.86,19.237 L11.37,59.442 C11.854,61.962 14.059,63.781 16.625,63.778 L21.877,63.773 C19.339,63.746 17.165,61.941 16.685,59.442 Z" fill="#F0F0F0"></path>
                            <polygon fill="#FFFFFF" points="76.3 106.464 74.658 106.464 59.986 63.754 61.629 63.754"></polygon>
                            <polygon fill="#FFFFFF" points="51.499 106.464 49.855 106.464 35.183 63.754 36.828 63.754"></polygon>
                        </g>
                        <g transform="translate(41.000000, 174.000000)" id="Path">
                            <g transform="translate(3.000000, 0.000000)">
                                <path d="M7.499,4.317 C7.051,6.436 7.707,8.951 7.336,11.128 C6.871,13.853 5.143,14.633 3.971,16.353 C2.584,18.387 1.95,22.201 2.457,25.452 C2.771,27.463 3.457,29.154 3.969,31.001 C4.481,32.849 4.819,35.111 4.383,37.032 C3.725,39.927 0.209,42.175 0.209,54.443 C0.209,65.641 8.203,69.998 10.471,72.739 L10.471,0.126 L9.445,1.12 C8.667,1.871 7.832,2.748 7.499,4.317 Z" fill="url(#linearGradient-9)"></path>
                                <path d="M16.836,31 C17.348,29.153 18.033,27.462 18.348,25.451 C18.857,22.2 18.222,18.387 16.835,16.352 C15.663,14.632 13.934,13.852 13.469,11.127 C13.098,8.95 13.755,6.436 13.306,4.316 C12.974,2.747 12.136,1.87 11.361,1.118 L10.336,0.124 L10.336,72.737 C12.602,69.996 20.598,65.639 20.598,54.441 C20.598,42.172 17.08,39.924 16.424,37.03 C15.987,35.11 16.325,32.848 16.836,31 Z" fill="url(#linearGradient-10)"></path>
                            </g>
                            <g transform="translate(13.000000, 46.000000)" fill="#F0F0F0">
                                <path d="M10.577,1.698 C10.052,2.39 10.285,3.435 9.809,4.164 C9.214,5.075 7.895,5.037 6.887,5.447 C5.695,5.933 4.873,7.212 4.929,8.499 C4.963,9.295 5.296,10.043 5.488,10.816 C5.68,11.589 5.707,12.482 5.211,13.104 C4.461,14.042 1.715,14.207 0.543,18.704 C-0.525,22.808 4.814,25.904 6.186,27.334 L13.118,0.719 L12.284,0.891 C11.652,1.021 10.966,1.186 10.577,1.698 Z"></path>
                                <path d="M14.226,5.314 C14.166,4.447 14.879,3.648 14.758,2.787 C14.669,2.149 14.15,1.672 13.663,1.25 L13.018,0.693 L6.087,27.308 C7.981,26.728 14.152,26.631 15.222,22.527 C16.393,18.03 14.076,16.547 13.879,15.362 C13.748,14.577 14.207,13.81 14.752,13.229 C15.297,12.648 15.951,12.157 16.37,11.478 C17.047,10.382 16.953,8.866 16.148,7.86 C15.47,7.01 14.3,6.4 14.226,5.314 Z"></path>
                            </g>
                            <path d="M0.245,70.905 C0.245,70.905 5.228,76.246 5.228,79.839 C5.228,80.801 4.883,82.27 4.374,83.91 C2.753,89.143 6.603,94.464 12.081,94.464 L25.255,94.464 C30.734,94.464 34.583,89.144 32.962,83.91 C32.453,82.269 32.108,80.801 32.108,79.839 C32.108,76.246 37.091,70.905 37.091,70.905 L0.245,70.905 Z" fill="#FFFFFF"></path>
                        </g>
                        <g transform="translate(283.000000, 31.000000)" id="Path">
                            <polygon fill="#D5DBE0" points="33.186 29.954 37.727 40.163 47.076 40.163 48.343 29.954"></polygon>
                            <g transform="translate(2.000000, 1.000000)" fill="#D5DBE0">
                                <path d="M0.707,0.899 L7.707,13.607 L16.562,10.709 C16.572,10.594 16.576,6.047 16.576,6.047 C16.576,3.158 14.238,2.51 11.349,2.51 L0.707,0.899 Z"></path>
                                <path d="M0.707,31.096 L7.707,18.388 L16.562,21.287 C16.572,21.401 16.576,25.949 16.576,25.949 C16.576,28.838 14.238,29.486 11.349,29.486 L0.707,31.096 Z"></path>
                            </g>
                            <path d="M0.679,17.559 C0.679,17.559 73.144,17.416 73.271,17.557 C64.76,-12.451 4.707,4.263 0.679,17.559 Z" fill="#F0F0F0"></path>
                            <path d="M0.679,17.559 C0.679,17.559 73.144,17.702 73.271,17.562 C64.76,47.568 4.707,30.855 0.679,17.559 Z" fill="#D5DBE0"></path>
                            <path d="M43.806,7.635 C70.038,7.635 73.144,17.416 73.271,17.557 L0.685,17.557 C0.943,17.46 17.527,7.635 43.806,7.635 Z" fill="#D5DBE0"></path>
                            <path d="M43.806,27.486 C70.038,27.486 73.144,17.704 73.271,17.564 L0.685,17.564 C0.943,17.66 17.527,27.486 43.806,27.486 Z" fill="#F0F0F0"></path>
                            <polygon fill="#D5DBE0" points="73.271 17.557 73.273 17.559 73.271 17.564"></polygon>
                        </g>
                        <g transform="translate(568.000000, 50.000000)" fill="#F0F0F0" id="Path">
                            <path d="M147.888,15.011 C145.027,15.011 142.486,16.464 140.855,18.464 L154.921,18.464 C153.291,16.464 150.751,15.011 147.888,15.011 Z"></path>
                            <path d="M113.388,11.068 C110.384,11.068 108.099,14.644 105.384,14.009 C99.452,12.62 97.015,4.982 90.505,4.982 C85.482,4.982 82.571,11.217 77.935,10.795 C70.591,10.125 67.283,0.218 59.374,0.218 C52.061,0.218 48.472,8.699 41.718,9.448 C37.738,9.889 34.827,5.112 30.505,5.112 C22.353,5.112 21.636,8.353 14.128,10.693 C11.972,11.365 10.323,15.566 7.888,15.566 C5.027,15.566 2.486,16.463 0.855,18.463 L125.63,18.463 C123.539,14.464 118.849,11.068 113.388,11.068 Z"></path>
                        </g>
                        <g transform="translate(36.000000, 29.000000)" fill="#F0F0F0" id="Path">
                            <path d="M7.888,15.011 C10.751,15.011 13.291,16.464 14.921,18.464 L0.855,18.464 C2.486,16.464 5.026,15.011 7.888,15.011 Z"></path>
                            <path d="M42.388,11.068 C45.392,11.068 47.677,14.644 50.392,14.009 C56.324,12.62 58.762,4.982 65.271,4.982 C70.296,4.982 73.205,11.217 77.841,10.795 C85.185,10.125 88.494,0.218 96.403,0.218 C103.715,0.218 107.306,8.699 114.059,9.448 C118.038,9.889 120.949,5.112 125.271,5.112 C133.424,5.112 131.515,9.235 141.65,10.693 C147.584,11.547 145.453,15.566 147.888,15.566 C150.751,15.566 153.291,16.463 154.921,18.463 L30.146,18.463 C32.238,14.464 36.927,11.068 42.388,11.068 Z"></path>
                        </g>
                        <g transform="translate(281.000000, 121.000000)" id="Path">
                            <path d="M48.423,136.431 L51.991,136.512 C51.991,136.512 52.059,137.716 52.204,138.549 C52.481,140.157 56.377,143.487 55.482,145.013 C55.03,145.784 53.003,145.526 51.651,144.803 C50.297,144.081 49.182,143.327 48.719,142.495 C48.143,141.458 46.735,140.015 46.731,139.374 C46.722,138.26 47.67,137.531 47.67,137.531 C48.031,136.599 48.423,136.431 48.423,136.431 Z" fill="#4D3782"></path>
                            <path d="M52.205,138.55 C52.205,138.55 51.07,139.459 49.763,139.132 C48.317,138.77 47.672,137.531 47.672,137.531 C48.031,136.597 48.311,135.986 48.311,135.986 L52.173,136.403 C52.172,136.403 52.025,137.289 52.205,138.55 Z" fill="#FCD2C5"></path>
                            <path d="M5.826,74.164 C12.297,73.992 52.66,84.009 67.029,91.224 C73.141,94.293 71.183,100.74 64.722,100.836 C46.033,101.115 21.457,103.669 9.922,96.658 C-8.417,85.512 5.826,74.164 5.826,74.164 Z" fill="#CE61D4"></path>
                            <path d="M38.976,79.104 C45.445,79.324 55.937,76.789 62.793,79.287 C69.22,81.629 63.939,89.641 57.708,91.355 C52.023,92.92 42.466,96.208 31.874,87.84 C24.437,81.964 36.163,79.008 38.976,79.104 Z" fill="#CE61D4"></path>
                            <path d="M70.247,100.686 C60.59,121.689 52.73,138.28 52.73,138.28 C51.925,137.037 49.342,136.179 47.619,136.817 C47.619,136.817 52.918,118.446 58.008,98.756 C61.363,85.772 74.185,92.118 70.247,100.686 Z" fill="#CE61D4"></path>
                            <path d="M44.88,123.169 L47.935,125.016 C47.935,125.016 47.396,126.094 47.106,126.889 C46.546,128.421 48.267,133.248 46.731,134.126 C45.956,134.569 44.326,133.337 43.513,132.037 C42.699,130.737 42.107,129.528 42.119,128.576 C42.136,127.389 41.632,125.436 41.948,124.879 C42.495,123.909 43.68,123.749 43.68,123.749 C44.458,123.119 44.88,123.169 44.88,123.169 Z" fill="#4D3782"></path>
                            <path d="M47.106,126.889 C47.106,126.889 45.668,127.114 44.697,126.178 C43.625,125.144 43.681,123.749 43.681,123.749 C44.456,123.118 45.003,122.727 45.003,122.727 L48.146,125.011 C48.146,125.011 47.578,125.706 47.106,126.889 Z" fill="#FCD2C5"></path>
                            <path d="M65.746,88.166 C56.089,109.169 48.228,125.759 48.228,125.759 C47.424,124.516 44.841,123.658 43.117,124.296 C43.117,124.296 48.417,105.925 53.506,86.235 C56.861,73.252 69.685,79.598 65.746,88.166 Z" fill="#CE61D4"></path>
                            <g transform="translate(29.000000, 32.000000)">
                                <path d="M49.523,17.356 C49.836,17.575 49.185,19.115 48.88,19.34 C47.986,19.66 47.802,19.136 47.007,19.558 C47.645,19.091 48.216,18.461 48.685,17.82 C48.918,17.449 49.069,16.979 49.523,17.356 Z" fill="#FCD2C5"></path>
                                <path d="M45.995,19.964 C46.64,19.636 47.362,19.357 48.1,19.132 C48.97,18.857 51.018,18.501 51.162,18.478 C51.588,18.433 52.611,18.163 52.959,18.239 C53.182,18.288 53.786,18.692 53.949,18.966 C54.166,19.328 53.931,19.632 53.931,19.632 C54.283,20.049 53.331,20.619 53.435,20.704 C53.856,21.052 53.658,21.711 52.04,21.944 C51.942,21.959 48.229,23.437 46.988,23.792 C46.574,22.908 45.96,19.986 45.995,19.964 Z" fill="#FCD2C5"></path>
                                <path d="M10.206,0.309 C12.838,3.863 18.072,17.141 21.794,23.017 C26.359,30.226 19.7,30.836 17.613,29.1 C12.117,24.527 -0.787,9.368 1.288,6.274 C2.187,4.933 9.728,-0.335 10.206,0.309 Z" fill="#FCD2C5"></path>
                                <path d="M12.904,20.506 C12.119,20.996 9.79,22.555 8.972,22.973 C3.668,16.894 -0.097,8.338 1.287,6.274 C2.187,4.933 9.727,-0.334 10.205,0.309 C12.062,2.818 15.508,10.148 19.088,15.926 C17.398,17.416 14.826,19.307 12.904,20.506 Z" fill="#F0F0F0"></path>
                                <path d="M18.556,24.075 C18.847,23.897 19.136,23.775 19.39,23.716 C24.049,22.635 41.984,21.629 46.658,19.731 C46.945,21.348 47.291,22.674 47.742,23.617 C39.992,26.586 19.861,31.801 17.851,29.163 C16.009,26.747 17.279,24.862 18.556,24.075 Z" fill="#FCD2C5"></path>
                            </g>
                            <path d="M2.384,67.924 C2.384,67.924 0.409,76.926 1.304,81.03 C1.636,82.551 15.325,81.284 22.726,82.324 C30.126,83.364 40.48,81.607 43.117,79.397 C44.283,78.419 41.45,70.912 41.45,70.912 L2.384,67.924 Z" fill="#F0F0F0"></path>
                            <path d="M23.093,17.104 C23.61,17.498 28.976,20.598 30.527,20.39 C30.507,20.82 29.387,25.336 30.346,27.792 C29.876,30.052 23.591,29.96 21.925,26.088 C22.665,25.006 23.363,19.2 23.093,17.104 Z" fill="#FCD2C5"></path>
                            <path d="M28.91,9.679 C31.762,9.533 34.507,10.242 35.091,12.943 C35.301,13.911 34.737,22.596 30.074,23.835 C28.102,24.358 24.391,20.939 24.275,18.65 C24.275,18.65 24.115,15.532 24.115,15.501 C23.96,12.467 25.847,9.835 28.91,9.679 Z" fill="#FCD2C5"></path>
                            <path d="M8.011,38.03 C9.834,33.273 12.937,28.274 17.777,27.2 C19.39,26.842 21.923,26.08 21.923,26.08 C21.923,26.08 25.253,29.073 27.485,29.273 C29.016,29.411 30.345,27.784 30.345,27.784 C30.345,27.784 35.83,29.555 36.824,30.154 C40.673,32.477 40.672,36.289 40.845,39.453 C42.568,70.995 43.908,75.631 42.892,77.354 C40.399,81.583 0.307,78.066 1.144,72.799 C3.934,55.26 7.45,39.497 8.011,38.03 Z" fill="#4D3782"></path>
                            <g transform="translate(10.000000, 30.000000)">
                                <path d="M35.401,46.576 C35.445,46.955 33.861,47.49 33.49,47.412 C32.658,46.956 32.927,46.471 32.085,46.155 C32.857,46.322 33.708,46.333 34.498,46.257 C34.931,46.186 35.383,45.985 35.401,46.576 Z" fill="#FCD2C5"></path>
                                <path d="M31.451,45.902 C32.293,46.217 33.16,46.627 33.992,47.083 C34.982,47.614 37.058,49.047 37.203,49.148 C37.609,49.462 38.727,50.121 38.963,50.451 C39.111,50.662 39.281,51.403 39.184,51.707 C39.056,52.108 38.588,52.109 38.588,52.109 C38.527,52.655 37.211,52.244 37.227,52.38 C37.288,52.939 36.541,53.191 34.944,52.029 C34.847,51.96 30.357,49.884 28.977,49.103 C29.387,48.215 31.402,45.889 31.451,45.902 Z" fill="#FCD2C5"></path>
                                <path d="M13.448,3.059 C14.018,7.444 12.129,21.591 12.52,28.536 C12.999,37.055 6.886,34.348 5.908,31.815 C3.332,25.145 -0.565,5.623 2.755,3.929 C4.193,3.195 13.344,2.264 13.448,3.059 Z" fill="#FCD2C5"></path>
                                <path d="M1.34,22.257 C-0.335,14.365 -0.233,7.143 0.632,4.813 C2.858,-1.181 11.589,-0.523 13.447,3.059 C14.885,5.83 13.292,14.235 13.608,21.024 C10.726,22.328 5.428,23.065 1.34,22.257 Z" fill="#F0F0F0"></path>
                                <path d="M9.83,27.865 C10.155,27.964 10.438,28.099 10.652,28.25 C14.551,31.019 27.203,43.77 31.724,46.008 C30.704,47.295 29.943,48.434 29.536,49.398 C22.173,45.568 4.915,33.966 5.555,30.712 C6.14,27.731 8.392,27.431 9.83,27.865 Z" fill="#FCD2C5"></path>
                            </g>
                            <path d="M33.126,8.547 C38.015,9.567 36.825,16.727 34.556,17.733 C35.711,12.471 32.16,10.702 32.16,10.702 C25.514,10.491 23.064,18.378 23.474,20.436 C23.474,20.436 16.169,13.711 22.528,8.143 C26.751,4.443 33.126,8.547 33.126,8.547 Z" fill="#5836E5"></path>
                            <path d="M24.248,14.301 C24.55,14.318 25.102,14.457 25.513,14.762 C25.204,15.791 24.481,17.426 24.124,18.235 C23.396,17.992 22.559,16.804 22.601,16.059 C22.646,15.269 23.458,14.256 24.248,14.301 Z" fill="#FCD2C5"></path>
                            <path d="M6.609,12.57 C8.339,-6.717 23.888,1.691 23.433,6.757 C23.322,8.003 22.626,8.724 21.632,7.391 C19.95,5.14 13.809,3.055 17.194,14.88 C18.088,18.001 22.059,22.071 13.18,27.528 C5.148,32.465 11.667,34.521 11.188,36.858 C9.957,42.854 -5.431,29.534 2.987,20.671 C4.693,18.879 6.087,18.384 6.609,12.57 Z" fill="#5836E5"></path>
                            <path d="M22.509,6.361 C22.917,6.124 23.303,6.06 23.646,6.09 C24.5,6.167 25.089,6.826 25.089,6.826 C23.048,7.459 21.351,9.296 21.351,9.296 C20.919,8.313 20.972,7.256 22.509,6.361 Z" fill="#4D3782"></path>
                        </g>
                        <g transform="translate(399.000000, 89.000000)" id="Path">
                            <g transform="translate(79.000000, 27.000000)">
                                <path d="M29.529,54.116 C29.765,54.417 31.797,53.465 32.004,53.148 C32.275,52.237 32.264,51.971 32.117,51.265 C31.687,51.928 31.076,52.516 30.474,53.036 C29.906,53.531 29.125,53.685 29.529,54.116 Z" fill="#FCD2C5"></path>
                                <path d="M32.06,51.273 C31.509,53.619 30.781,54.436 30.886,55.469 C30.929,55.889 34.972,56.887 35.439,54.967 C35.466,54.852 35.697,53.566 36.021,52.102 C35.132,51.694 32.089,51.231 32.06,51.273 Z" fill="#FCD2C5"></path>
                                <path d="M2.898,11.623 C6.033,14.743 18.412,21.848 23.685,26.383 C30.156,31.946 31.726,25.445 30.31,23.129 C26.583,17.027 13.456,2.061 10.093,3.665 C8.636,4.361 2.33,11.058 2.898,11.623 Z" fill="#FCD2C5"></path>
                                <path d="M24.746,24.684 C24.699,25.021 24.705,25.335 24.752,25.592 C25.635,30.292 31.928,47.116 32.07,52.159 C33.666,51.771 34.976,52.069 36.021,52.102 C36.39,49.385 32.341,22.771 29.119,21.992 C26.166,21.276 24.953,23.197 24.746,24.684 Z" fill="#FCD2C5"></path>
                                <path d="M37.046,49.613 C36.601,42.511 33.839,26.013 30.845,21.441 C27.804,16.652 13.331,-1.581 8.907,0.609 C7.427,1.343 0.602,11.805 0.854,12.048 C2.471,13.611 23.903,26.731 24.336,27.019 C24.904,28.945 25.76,31.509 26.664,34.216 C28.637,40.125 31.094,47.48 31.215,50.327 L37.046,49.613 Z" fill="#F0F0F0"></path>
                            </g>
                            <path d="M82.589,114.494 C82.413,115.65 75.464,173.663 75.464,173.663 C73.962,174.743 71.71,174.367 71.679,174.249 C71.679,174.249 70.214,114.506 70.577,111.84 C72.035,113.117 81.57,115.38 82.589,114.494 Z" fill="#FCD2C5"></path>
                            <path d="M71.943,173.439 L75.166,171.906 C75.166,171.906 75.77,172.949 76.273,173.629 C77.244,174.941 82.22,176.16 82.109,177.926 C82.052,178.818 80.127,179.499 78.593,179.463 C77.059,179.427 75.822,179.073 74.937,178.721 C74.054,178.368 72.048,177.399 71.755,176.828 C71.247,175.838 71.767,174.76 71.767,174.76 C71.667,173.765 71.943,173.439 71.943,173.439 Z" fill="#F0F0F0"></path>
                            <g transform="translate(53.000000, 74.000000)">
                                <path d="M34.726,94.386 L31.308,95.414 C31.308,95.414 31.562,96.593 31.644,97.435 C31.804,99.059 28.937,103.305 30.205,104.538 C30.846,105.161 32.73,104.373 33.842,103.316 C34.955,102.259 35.828,101.237 36.053,100.311 C36.334,99.158 37.307,97.392 37.141,96.773 C36.852,95.698 35.743,95.248 35.743,95.248 C35.148,94.443 34.726,94.386 34.726,94.386 Z" fill="#F0F0F0"></path>
                                <path d="M31.644,97.435 C31.644,97.435 32.865,97.74 34.154,97.346 C34.883,97.123 35.742,95.247 35.742,95.247 C35.148,94.442 34.717,93.927 34.717,93.927 L31.106,95.358 C31.105,95.357 31.482,96.172 31.644,97.435 Z" fill="#FCD2C5"></path>
                                <path d="M0.933,0.649 C3.474,1.618 13.269,2.06 20.749,1.201 C22.907,14.311 20.895,37.18 20.03,55.247 C19.647,63.252 35.522,94.959 35.522,94.959 C34.081,96.713 31.454,96.398 31.405,96.235 C31.405,96.235 7.944,68.376 6.464,55.881 C3.369,29.77 0.744,2.754 0.933,0.649 Z" fill="#5836E5"></path>
                            </g>
                            <path d="M76.273,173.629 C76.273,173.629 75.574,174.675 74.353,175.248 C73.664,175.573 71.767,174.76 71.767,174.76 C71.667,173.765 71.64,173.093 71.64,173.093 L75.277,171.728 C75.277,171.728 75.544,172.584 76.273,173.629 Z" fill="#FCD2C5"></path>
                            <path d="M91.419,70.715 C88.862,71.647 77.909,72.066 70.442,71.097 C70.442,71.097 68.081,109.401 69.544,128.035 C71.239,149.621 71.388,172.393 71.388,172.393 C72.804,174.168 75.935,172.714 75.988,172.552 C75.988,172.552 91.722,74.741 91.419,70.715 Z" fill="#5836E5"></path>
                            <path d="M54.07,67.35 C54.07,67.35 53.336,75.297 53.336,82.175 C53.336,82.175 60.445,85.083 68.752,85.071 L71.072,78.217 C71.072,78.217 74.275,85.153 75.49,85.182 C82.326,85.349 89.275,84.606 93.945,81.784 L91.365,71.401 L54.07,67.35 Z" fill="#CE61D4"></path>
                            <path d="M74.732,13.768 C75.242,14.17 80.548,17.372 82.103,17.194 C82.076,17.622 80.871,22.117 81.783,24.59 C81.271,26.842 74.988,26.632 73.396,22.73 C74.156,21.66 74.962,15.867 74.732,13.768 Z" fill="#FCD2C5"></path>
                            <path d="M58.445,33.473 C59.715,29.464 62.103,25.179 66.963,24.196 C68.582,23.868 73.397,22.729 73.397,22.729 C73.397,22.729 76.668,25.784 78.897,26.026 C80.426,26.192 81.784,24.589 81.784,24.589 C81.784,24.589 87.237,26.463 88.218,27.08 C92.025,29.476 92.7,33.349 92.066,36.453 C89.853,47.271 94.711,72.564 91.429,73.984 C87.156,75.833 63.249,77.048 54.083,71.007 C53.317,70.502 52.919,69.606 53.003,68.694 C53.521,63.139 55.587,42.507 58.445,33.473 Z" fill="#F0F0F0"></path>
                            <g transform="translate(0.000000, 24.000000)">
                                <path d="M9.775,12.683 C9,12.225 8.138,11.807 7.261,11.444 C6.226,11.006 3.808,10.29 3.638,10.239 C3.138,10.122 1.923,9.663 1.519,9.688 C1.261,9.703 0.578,10.036 0.404,10.302 C0.17,10.655 0.463,11.018 0.463,11.018 C0.076,11.408 1.223,12.175 1.108,12.248 C0.635,12.552 0.907,13.291 2.813,13.807 C2.928,13.838 7.36,16.034 8.834,16.619 C9.267,15.74 9.816,12.712 9.775,12.683 Z" fill="#FCD2C5"></path>
                                <path d="M58.804,4.457 C54.615,5.874 42.743,13.797 36.335,16.501 C28.474,19.818 33.595,24.117 36.3,23.882 C43.421,23.26 62.667,18.166 62.728,14.442 C62.753,12.826 59.562,4.199 58.804,4.457 Z" fill="#FCD2C5"></path>
                                <path d="M37.384,18.207 C37.103,18.015 36.82,17.879 36.568,17.808 C31.966,16.507 14.099,14.654 9.521,12.536 C9.158,14.138 8.75,15.446 8.253,16.367 C15.855,19.698 35.716,25.86 37.849,23.321 C39.802,20.995 38.625,19.053 37.384,18.207 Z" fill="#FCD2C5"></path>
                                <path d="M9.585,18.125 C16.142,20.887 32.146,25.758 37.573,25.112 C43.214,24.521 63.247,19.448 63.255,14.511 C63.255,12.859 66.415,0.312 64.878,0.876 C51.435,5.8 35.925,16.54 35.474,16.8 C33.495,16.452 30.818,16.077 27.994,15.682 C21.824,14.819 14.144,13.744 11.541,12.586 L9.585,18.125 Z" fill="#F0F0F0"></path>
                            </g>
                            <path d="M82.089,32.859 C80.472,26.88 81.023,24.498 81.444,21.941 C81.88,19.313 82.171,16.591 81.405,14.545 C81.454,14.471 85.216,10.295 86.608,12.355 C87.52,14.892 87.874,17.948 87.163,21.124 C86.126,25.765 87.436,29.249 88.253,30.751 C89.608,33.249 89.745,36.694 89.646,38.33 C89.068,47.883 83.527,52.599 81.851,51.712 C80.011,50.736 84.412,41.451 82.089,32.859 Z" fill="#4D3782"></path>
                            <path d="M81.162,5.979 C84.016,5.887 86.271,7.12 86.805,9.831 C86.996,10.802 86.27,19.477 81.586,20.627 C79.604,21.113 75.959,17.624 75.885,15.335 C75.885,15.335 75.783,12.214 75.783,12.183 C75.685,9.146 78.097,6.078 81.162,5.979 Z" fill="#FCD2C5"></path>
                            <path d="M64.248,37.213 C64.053,35.354 64.178,31.431 66.228,28.555 C67.462,26.826 69.416,22.83 67.681,17.576 C65.946,12.322 67.761,7.298 70.693,3.972 C73.623,0.645 77.673,-0.259 79.869,0.662 C82.613,1.816 82.623,3.167 82.623,3.167 C82.623,3.167 84.023,2.846 85.553,3.68 C88.862,5.483 88.617,12.963 86.006,15.278 C87.752,7.243 82.713,5.968 82.713,5.968 C82.713,5.968 79.197,6.328 77.471,8.36 C75.903,10.208 74.334,15.176 75.28,18.971 C76.001,21.867 78.253,23.957 75.884,30.799 C72.482,40.633 79.572,51.085 76.73,52.24 C74.142,53.291 65.39,48.066 64.248,37.213 Z" fill="#4D3782"></path>
                            <path d="M75.939,10.986 C76.24,11.007 76.789,11.158 77.195,11.47 C76.867,12.492 76.113,14.115 75.742,14.916 C75.017,14.659 74.203,13.456 74.26,12.711 C74.318,11.924 75.15,10.926 75.939,10.986 Z" fill="#FCD2C5"></path>
                        </g>
                        <g transform="translate(481.000000, 55.000000)">
                            <path d="M35.837,0.105 L7.589,0.105 C3.616,0.105 0.396,3.325 0.396,7.297 L0.396,20.497 C0.396,24.47 3.617,27.69 7.589,27.69 L22.966,27.69 L22.966,38.315 L33.382,27.69 L35.837,27.69 C39.808,27.69 43.028,24.469 43.028,20.497 L43.028,7.297 C43.029,3.325 39.808,0.105 35.837,0.105 Z" id="Path" fill="url(#linearGradient-11)"></path>
                            <path d="M13.291,18.836 L8.361,13.906 C8.08,13.624 8.08,13.166 8.361,12.885 L13.154,8.092 L14.175,9.113 L9.894,13.395 L14.314,17.814 L13.291,18.836 Z" id="Path" fill="#FFFFFF"></path>
                            <path d="M30.691,19.078 L29.671,18.056 L34.194,13.533 L29.669,9.009 L30.692,7.988 L35.725,13.023 C35.862,13.159 35.938,13.342 35.938,13.534 C35.938,13.726 35.862,13.909 35.725,14.045 L30.691,19.078 Z" id="Path" fill="#FFFFFF"></path>
                            <rect id="Rectangle" fill="#FFFFFF" transform="translate(22.369537, 13.466475) rotate(23.965979) translate(-22.369537, -13.466475) " x="21.647027" y="3.88083679" width="1.44502087" height="19.1712768"></rect>
                        </g>
                        <g transform="translate(520.000000, 119.000000)">
                            <g id="XMLID_123_" transform="translate(32.000000, 50.000000)" fill="#F0F0F0">
                                <rect id="Rectangle" x="0.388" y="0.868" width="24.994" height="11.426"></rect>
                            </g>
                            <g id="XMLID_122_" fill="#FFFFFF">
                                <path d="M85.333,0.637 L4.907,0.637 C2.645,0.637 0.794,2.49 0.794,4.752 L0.794,48.519 C0.794,50.782 2.646,52.634 4.907,52.634 L85.333,52.634 C87.597,52.634 89.448,50.781 89.448,48.519 L89.448,4.752 C89.449,2.489 87.597,0.637 85.333,0.637 Z" id="Path"></path>
                            </g>
                            <g id="XMLID_111_" transform="translate(3.000000, 3.000000)" fill="url(#linearGradient-12)">
                                <rect id="Rectangle" x="0.525" y="0.037" width="83.193" height="42.248"></rect>
                            </g>
                            <g id="XMLID_105_" transform="translate(22.000000, 60.000000)" fill="#FFFFFF">
                                <path d="M42.441,0.663 L1.847,0.663 C0.974,0.663 0.257,1.379 0.257,2.254 C0.257,3.129 0.974,3.845 1.847,3.845 L42.441,3.845 C43.316,3.845 44.031,3.129 44.031,2.254 C44.031,1.379 43.316,0.663 42.441,0.663 Z" id="Path"></path>
                            </g>
                            <g transform="translate(32.000000, 15.000000)" fill="#D5DBE0">
                                <path d="M5.515,19.887 C5.394,19.686 5.303,19.323 5.303,18.805 C5.303,18.444 5.261,17.602 5.189,16.29 C5.15,15.421 5.032,14.732 4.879,14.217 C4.719,13.703 4.493,13.268 4.187,12.903 C3.894,12.549 3.509,12.236 3.044,11.964 C3.569,11.62 3.961,11.297 4.225,10.974 C4.479,10.661 4.691,10.267 4.851,9.781 C5.015,9.287 5.124,8.658 5.164,7.871 C5.236,6.487 5.275,5.545 5.275,5.041 C5.275,4.557 5.338,4.213 5.449,4.011 C5.57,3.807 5.915,3.657 6.169,3.556 C6.409,3.455 7.02,3.403 8.02,3.403 L8.02,0.502 L7.066,0.502 C6.023,0.502 5.265,0.609 4.781,0.75 C4.072,0.965 3.527,1.274 3.154,1.636 C2.779,2.013 2.527,2.505 2.384,3.114 C2.243,3.719 2.173,4.785 2.173,6.322 C2.173,7.261 2.142,7.921 2.071,8.306 C1.991,8.81 1.848,9.224 1.637,9.569 C1.424,9.903 1.392,10.136 1.099,10.287 C0.808,10.429 0.018,10.511 0.018,10.552 L0.018,13.393 C0.018,13.432 1.058,13.584 1.414,13.868 C1.768,14.141 1.917,14.587 2.091,15.223 C2.212,15.658 2.227,16.597 2.227,18.051 C2.227,19.307 2.258,20.225 2.401,20.802 C2.534,21.387 2.783,21.873 3.176,22.267 C3.571,22.663 4.039,23.007 4.607,23.177 C5.181,23.351 5.994,23.503 7.065,23.503 L8.019,23.503 L8.019,20.527 C7.019,20.527 6.45,20.478 6.198,20.367 C5.946,20.256 5.646,20.1 5.515,19.887 Z" id="Path"></path>
                                <path d="M25.222,10.072 C24.867,9.801 24.514,9.344 24.331,8.718 C24.21,8.273 24.106,7.333 24.106,5.887 C24.106,4.634 24.021,3.724 23.88,3.15 C23.737,2.562 23.462,2.068 23.079,1.671 C22.696,1.278 22.204,0.961 21.638,0.787 C21.064,0.627 20.238,0.498 19.176,0.498 L19.02,0.498 L19.02,3.399 C20.02,3.399 20.255,3.462 20.509,3.562 C20.773,3.673 20.835,3.824 20.925,4.015 C21.027,4.219 21.017,4.613 21.027,5.201 C21.066,7.09 21.108,8.304 21.188,8.86 C21.321,9.657 21.567,10.325 21.933,10.849 C22.204,11.213 22.621,11.577 23.209,11.961 C22.754,12.213 22.385,12.518 22.092,12.87 C21.799,13.203 21.575,13.628 21.405,14.125 C21.231,14.619 21.118,15.276 21.079,16.094 C21.018,17.461 20.975,18.379 20.975,18.865 C20.967,19.349 20.907,19.693 20.784,19.895 C20.663,20.097 20.711,20.249 20.45,20.361 C20.186,20.462 19.021,20.511 19.021,20.511 L19.021,23.496 L19.177,23.496 C20.21,23.496 20.976,23.359 21.452,23.217 C22.169,23.004 22.725,22.679 23.1,22.314 C23.473,21.949 23.727,21.438 23.858,20.833 C23.999,20.215 24.071,19.136 24.071,17.608 C24.071,16.669 24.1,16.008 24.173,15.635 C24.253,15.127 24.405,14.7 24.616,14.366 C24.819,14.035 25.073,13.846 25.364,13.704 C25.657,13.561 26.081,13.496 26.669,13.496 L27.021,13.496 L27.021,10.545 C26.02,10.507 25.573,10.346 25.222,10.072 Z" id="Path"></path>
                                <rect id="Rectangle" x="8.02" y="6.499" width="10" height="3"></rect>
                                <rect id="Rectangle" x="8.02" y="10.499" width="10" height="3"></rect>
                                <rect id="Rectangle" x="8.02" y="14.499" width="6" height="2"></rect>
                            </g>
                            <g transform="translate(3.000000, 3.000000)">
                                <rect id="Rectangle" fill="url(#linearGradient-13)" x="0.525" y="0.037" width="10.35" height="42.285"></rect>
                                <rect id="Rectangle" fill="url(#linearGradient-14)" x="78.214" y="0.037" width="5.504" height="42.285"></rect>
                                <rect id="Rectangle" fill="#FFFFFF" x="1.646" y="6.781" width="3.27" height="2.865"></rect>
                                <rect id="Rectangle" fill="#FFFFFF" x="6.294" y="6.781" width="3.27" height="2.865"></rect>
                                <rect id="Rectangle" fill="#FFFFFF" x="1.646" y="10.958" width="3.27" height="2.865"></rect>
                                <rect id="Rectangle" fill="#FFFFFF" x="6.294" y="10.958" width="3.27" height="2.865"></rect>
                                <rect id="Rectangle" fill="#FFFFFF" x="1.646" y="15.135" width="3.27" height="2.865"></rect>
                                <rect id="Rectangle" fill="#FFFFFF" x="6.294" y="15.135" width="3.27" height="2.865"></rect>
                                <rect id="Rectangle" fill="#FFFFFF" x="1.646" y="19.313" width="3.27" height="2.865"></rect>
                                <rect id="Rectangle" fill="#FFFFFF" x="6.294" y="19.313" width="3.27" height="2.865"></rect>
                                <rect id="Rectangle" fill="#FFFFFF" x="1.646" y="23.488" width="3.27" height="2.865"></rect>
                                <rect id="Rectangle" fill="#FFFFFF" x="6.294" y="23.488" width="3.27" height="2.865"></rect>
                                <rect id="Rectangle" fill="#FFFFFF" x="1.646" y="27.666" width="3.27" height="2.865"></rect>
                                <rect id="Rectangle" fill="#FFFFFF" x="6.294" y="27.666" width="3.27" height="2.865"></rect>
                                <rect id="Rectangle" fill="#FFFFFF" x="1.646" y="33.834" width="3.27" height="6.227"></rect>
                                <rect id="Rectangle" fill="#FFFFFF" x="6.294" y="33.834" width="3.27" height="6.227"></rect>
                                <rect id="Rectangle" fill="#FFFFFF" x="79.332" y="36.236" width="3.27" height="3.824"></rect>
                                <rect id="Rectangle" fill="#FFFFFF" x="79.332" y="29.148" width="3.27" height="3.824"></rect>
                                <rect id="Rectangle" fill="#FFFFFF" x="79.332" y="22.061" width="3.27" height="3.824"></rect>
                                <rect id="Rectangle" fill="#FFFFFF" x="79.332" y="14.973" width="3.27" height="3.824"></rect>
                                <rect id="Rectangle" fill="#FFFFFF" x="79.332" y="7.885" width="3.27" height="3.824"></rect>
                                <rect id="Rectangle" fill="#D5DBE0" x="0.525" y="0.037" width="83.193" height="5.518"></rect>
                                <path d="M13.482,4.068 L5.339,4.068 C4.636,4.068 4.068,3.498 4.068,2.796 C4.068,2.094 4.636,1.524 5.339,1.524 L13.482,1.524 C14.183,1.524 14.753,2.094 14.753,2.796 C14.753,3.498 14.183,4.068 13.482,4.068 Z" id="Path" fill="#FFFFFF"></path>
                                <path d="M25.882,4.068 L17.739,4.068 C17.038,4.068 16.468,3.498 16.468,2.796 C16.468,2.094 17.038,1.524 17.739,1.524 L25.882,1.524 C26.585,1.524 27.153,2.094 27.153,2.796 C27.154,3.498 26.585,4.068 25.882,4.068 Z" id="Path" fill="#FFFFFF"></path>
                                <path d="M38.283,4.068 L30.142,4.068 C29.439,4.068 28.869,3.498 28.869,2.796 C28.869,2.094 29.439,1.524 30.142,1.524 L38.283,1.524 C38.986,1.524 39.556,2.094 39.556,2.796 C39.556,3.498 38.986,4.068 38.283,4.068 Z" id="Path" fill="#FFFFFF"></path>
                                <path d="M50.683,4.068 L42.542,4.068 C41.839,4.068 41.271,3.498 41.271,2.796 C41.271,2.094 41.839,1.524 42.542,1.524 L50.683,1.524 C51.386,1.524 51.956,2.094 51.956,2.796 C51.957,3.498 51.386,4.068 50.683,4.068 Z" id="Path" fill="#FFFFFF"></path>
                                <path d="M63.085,4.068 L54.942,4.068 C54.241,4.068 53.671,3.498 53.671,2.796 C53.671,2.094 54.241,1.524 54.942,1.524 L63.085,1.524 C63.786,1.524 64.356,2.094 64.356,2.796 C64.357,3.498 63.787,4.068 63.085,4.068 Z" id="Path" fill="#FFFFFF"></path>
                            </g>
                        </g>
                        <g transform="translate(381.000000, 142.000000)" id="Rectangle">
                            <rect fill="#F0F0F0" x="0.083" y="0.248" width="13.061" height="40.666"></rect>
                            <rect fill="url(#linearGradient-15)" x="13.144" y="0.248" width="28.289" height="40.666"></rect>
                        </g>
                        <g transform="translate(313.000000, 119.000000)">
                            <g id="XMLID_104_" transform="translate(32.000000, 50.000000)" fill="#F0F0F0">
                                <rect id="Rectangle" x="0.574" y="0.868" width="24.994" height="11.426"></rect>
                            </g>
                            <g id="XMLID_101_" fill="#FFFFFF">
                                <path d="M85.519,0.637 L5.094,0.637 C2.831,0.637 0.98,2.49 0.98,4.752 L0.98,48.519 C0.98,50.782 2.832,52.634 5.094,52.634 L85.519,52.634 C87.783,52.634 89.634,50.781 89.634,48.519 L89.634,4.752 C89.634,2.489 87.783,0.637 85.519,0.637 Z" id="Path"></path>
                            </g>
                            <g id="XMLID_90_" transform="translate(25.000000, 7.000000)" fill="#F0F0F0">
                                <path d="M52.382,0.16 L3.044,0.16 C1.655,0.16 0.52,1.297 0.52,2.684 L0.52,29.533 C0.52,30.922 1.656,32.057 3.044,32.057 L52.382,32.057 C53.771,32.057 54.905,30.921 54.905,29.533 L54.905,2.684 C54.906,1.297 53.771,0.16 52.382,0.16 Z" id="Path"></path>
                            </g>
                            <g id="XMLID_80_" transform="translate(22.000000, 60.000000)" fill="#FFFFFF">
                                <path d="M42.626,0.663 L2.033,0.663 C1.158,0.663 0.442,1.379 0.442,2.254 C0.442,3.129 1.158,3.845 2.033,3.845 L42.626,3.845 C43.501,3.845 44.216,3.129 44.216,2.254 C44.216,1.379 43.501,0.663 42.626,0.663 Z" id="Path"></path>
                            </g>
                        </g>
                        <g transform="translate(511.000000, 191.000000)" fill="#FFFFFF" id="Rectangle">
                            <rect x="0.796" y="0.376" width="2.324" height="77.088"></rect>
                            <rect x="30.75" y="0.376" width="2.324" height="77.088"></rect>
                            <rect x="112.925" y="0.376" width="2.324" height="77.088"></rect>
                            <rect x="142.876" y="0.376" width="2.324" height="77.088"></rect>
                        </g>
                        <g transform="translate(263.000000, 191.000000)" fill="#FFFFFF" id="Rectangle">
                            <rect x="0.228" y="0.376" width="2.324" height="77.088"></rect>
                            <rect x="30.18" y="0.376" width="2.324" height="77.088"></rect>
                            <rect x="112.355" y="0.376" width="2.324" height="77.088"></rect>
                            <rect x="142.308" y="0.376" width="2.324" height="77.088"></rect>
                        </g>
                        <g transform="translate(498.000000, 182.000000)" id="Rectangle">
                            <rect fill="#F0F0F0" x="0.302" y="0.845" width="50.914" height="8.619"></rect>
                            <rect fill="url(#linearGradient-16)" x="51.216" y="0.845" width="124.283" height="8.619"></rect>
                        </g>
                        <g transform="translate(255.000000, 182.000000)" id="Rectangle">
                            <rect fill="#F0F0F0" x="0.103" y="0.845" width="50.914" height="8.619"></rect>
                            <rect fill="url(#linearGradient-17)" x="51.017" y="0.845" width="124.285" height="8.619"></rect>
                        </g>
                        <g transform="translate(603.000000, 140.000000)">
                            <rect id="Rectangle" fill="#F0F0F0" x="28.988" y="0.881" width="18.445" height="41.4"></rect>
                            <rect id="Rectangle" fill="#D5DBE0" x="30.662" y="4.642" width="15.096" height="6.308"></rect>
                            <rect id="Rectangle" fill="#D5DBE0" x="30.662" y="12.502" width="15.096" height="3.72"></rect>
                            <rect id="Rectangle" fill="url(#linearGradient-18)" x="0.699" y="0.881" width="28.289" height="41.4"></rect>
                            <circle id="Oval" fill="url(#linearGradient-19)" cx="38.21" cy="31.766" r="3.688"></circle>
                        </g>
                        <g transform="translate(549.000000, 118.000000)" id="Path">
                            <g transform="translate(20.000000, 24.000000)">
                                <path d="M6.128,37.149 C5.733,36.959 5.357,36.638 5.173,37.201 C5.023,37.552 6.39,38.514 6.769,38.544 C7.697,38.342 7.576,37.8 8.472,37.736 C7.685,37.678 6.867,37.446 6.128,37.149 Z" fill="#FCD2C5"></path>
                                <path d="M9.152,37.673 C8.256,37.737 7.308,37.884 6.381,38.086 C5.281,38.315 2.885,39.102 2.717,39.157 C2.238,39.345 0.981,39.659 0.662,39.909 C0.457,40.068 0.086,40.731 0.094,41.05 C0.102,41.473 0.551,41.606 0.551,41.606 C0.453,42.146 1.832,42.125 1.78,42.251 C1.565,42.77 2.208,43.223 4.069,42.562 C4.182,42.523 9.077,41.804 10.622,41.445 C10.476,40.476 9.203,37.674 9.152,37.673 Z" fill="#FCD2C5"></path>
                                <path d="M34.996,26.496 C34.656,26.499 34.346,26.549 34.1,26.633 C29.577,28.184 13.83,36.831 8.862,37.696 C9.475,39.219 9.883,40.528 10.001,41.566 C18.146,39.979 37.983,33.738 38.292,30.436 C38.572,27.412 36.498,26.486 34.996,26.496 Z" fill="#FCD2C5"></path>
                                <path d="M44.779,2.998 C42.142,6.549 36.892,19.82 33.164,25.692 C28.59,32.894 35.248,33.512 37.336,31.78 C42.838,27.213 55.762,12.07 53.69,8.973 C52.791,7.631 45.257,2.355 44.779,2.998 Z" fill="#FCD2C5"></path>
                                <path d="M43.939,0.479 C42.228,4.664 40.599,8.52 38.482,13.034 C36.353,17.576 34.152,22.271 32.318,25.157 C32.005,25.651 31.728,26.139 31.496,26.614 C29.611,27.449 27.115,28.662 24.48,29.94 C18.728,32.733 11.57,36.21 8.689,36.711 L10.191,42.548 C17.361,41.151 33.789,36.147 38.027,32.504 C42.507,28.765 55.42,14.427 54.064,9.545 C51.81,1.433 44.074,0.146 43.939,0.479 Z" fill="url(#linearGradient-20)"></path>
                            </g>
                            <path d="M66.003,74.802 C59.538,75.118 25.603,87.261 11.817,95.538 C5.954,99.059 8.391,105.341 14.842,104.949 C33.498,103.819 58.196,104.513 69.17,96.653 C86.619,84.156 69.455,74.633 66.003,74.802 Z" fill="#4D3782"></path>
                            <path d="M29.859,140.573 C30.316,142.045 30.267,143.101 30.267,143.101 C31.57,144.416 34.017,144.463 34.068,144.353 C34.068,144.353 34.447,142.66 34.154,140.347 C33.917,140.367 31.546,139.017 29.859,140.573 Z" fill="#FCD2C5"></path>
                            <path d="M9.322,105.216 C20.535,125.432 29.748,142.299 29.748,142.299 C30.455,140.998 32.68,140.112 34.447,140.618 C34.447,140.618 27.941,121.618 21.383,102.368 C17.056,89.676 4.75,96.97 9.322,105.216 Z" fill="#4D3782"></path>
                            <path d="M30.201,142.107 C30.201,142.107 30.086,142.346 29.476,142.933 C28.3,144.064 22.984,146.428 22.8,148.188 C22.706,149.077 24.493,150.069 26.011,150.289 C27.529,150.508 28.872,150.561 29.74,150.166 C30.818,149.672 32.974,147.32 33.398,146.84 C34.447,145.652 34.068,143.472 34.068,143.472 C33.183,141.368 30.201,142.107 30.201,142.107 Z" fill="#4D3782"></path>
                            <path d="M30.201,144.271 C28.672,145.337 23.74,147.07 23.586,148.551 C23.508,149.299 25.012,150.135 26.291,150.32 C27.568,150.506 28.701,150.55 29.43,150.216 C30.338,149.8 32.196,147.853 32.51,147.415 C34.24,145.021 31.687,143.236 30.201,144.271 Z" fill="#4D3782"></path>
                            <path d="M59.119,140.993 C59.531,143.261 60.193,145.477 60.193,145.477 C60.244,145.588 63.507,144.416 64.81,143.101 C64.81,143.101 63.81,141.555 63.087,140.118 C61.4,138.563 59.355,141.013 59.119,140.993 Z" fill="#FCD2C5"></path>
                            <path d="M39.394,108.216 C50.607,128.432 58.921,142.37 58.921,142.37 C59.63,141.069 61.751,140.112 63.519,140.618 C63.519,140.618 58.011,124.618 51.453,105.368 C47.128,92.676 34.82,99.97 39.394,108.216 Z" fill="#4D3782"></path>
                            <path d="M64.601,142.934 L64.568,142.902 C63.718,142.085 62.47,141.749 61.369,142.17 C61.355,142.176 61.34,142.182 61.326,142.188 C60.474,142.53 59.978,143.421 60.049,144.335 C60.11,145.138 60.27,146.291 60.68,146.841 C61.063,147.355 63.26,149.673 64.338,150.167 C65.205,150.563 66.549,150.509 68.067,150.29 C69.585,150.07 71.372,149.078 71.278,148.189 C71.093,146.429 65.777,144.064 64.601,142.934 Z" fill="#4D3782"></path>
                            <path d="M63.876,144.271 C62.39,143.236 59.837,145.021 61.567,147.416 C61.881,147.854 63.739,149.801 64.647,150.217 C65.376,150.551 66.508,150.506 67.786,150.321 C69.065,150.136 70.569,149.3 70.491,148.552 C70.337,147.07 65.406,145.338 63.876,144.271 Z" fill="#4D3782"></path>
                            <path d="M76.402,74.202 C68.931,75.146 61.502,76.195 53.957,76.359 C49.289,76.461 44.852,75.965 40.707,74.813 C40.728,81.802 39.307,82.868 36.182,84.753 C38.393,92.43 42.815,94.566 46.649,95.819 C56.745,99.117 82.001,91.559 82.719,91.506 C82.686,85.952 82.184,79.703 81.457,73.463 C79.816,73.767 78.126,73.984 76.402,74.202 Z" fill="#F0F0F0"></path>
                            <path d="M60.939,12.918 C60.418,13.305 55.005,16.328 53.459,16.098 C53.473,16.528 54.527,21.06 53.533,23.501 C53.971,25.769 60.258,25.766 61.978,21.919 C61.253,20.826 60.638,15.01 60.939,12.918 Z" fill="#FCD2C5"></path>
                            <path d="M55.23,5.41 C52.38,5.223 49.626,5.892 49.003,8.584 C48.78,9.549 49.218,18.242 53.862,19.547 C55.825,20.098 59.585,16.733 59.735,14.446 C59.735,14.446 59.938,11.33 59.94,11.299 C60.14,8.269 58.291,5.61 55.23,5.41 Z" fill="#FCD2C5"></path>
                            <path d="M68.359,23.598 C66.752,23.217 61.978,21.919 61.978,21.919 C61.978,21.919 61.042,23.227 58.136,23.848 C55.525,24.405 53.532,23.501 53.532,23.501 C53.532,23.501 48.022,25.193 47.02,25.777 C43.137,28.046 43.118,29.681 42.866,35.017 C42.747,37.504 42.694,75.72 36.655,84.508 C36.856,84.86 39.034,90.076 44.02,91.395 L45.243,80.584 L46.352,91.893 C58.036,94.4 66.987,89.779 76.373,88.343 L77.273,74.156 L79.974,87.834 C80.88,87.721 81.703,87.633 82.419,87.579 C82.294,65.91 76.296,33.352 76.032,32.368 C74.916,28.19 73.183,24.742 68.359,23.598 Z" fill="url(#linearGradient-21)"></path>
                            <path d="M61.197,1.965 C56.742,-1.527 49.228,1.857 47.259,6.426 C45.788,9.832 44.419,7.467 44.56,6.563 C44.117,8.829 45.074,10.79 49.449,10.459 C50.369,10.391 47.416,11.303 47.416,11.303 C47.416,11.303 52.092,20.994 59.311,18.619 C61.456,17.914 63.325,15.816 63.325,15.816 C63.325,15.816 60.985,16.205 62.218,14.298 C64.609,10.598 65.13,5.049 61.197,1.965 Z" fill="#5836E5"></path>
                            <path d="M6.105,59.593 C5.88,59.902 6.998,61.146 7.359,61.26 C8.308,61.273 8.312,60.717 9.201,60.858 C8.445,60.624 7.701,60.213 7.049,59.758 C6.707,59.483 6.412,59.087 6.105,59.593 Z" fill="#FCD2C5"></path>
                            <path d="M7.083,60.727 C5.96,60.703 3.446,60.929 3.27,60.946 C2.762,61.021 1.465,61.045 1.098,61.217 C0.864,61.326 0.352,61.888 0.287,62.2 C0.201,62.613 0.607,62.844 0.607,62.844 C0.392,63.349 1.74,63.638 1.66,63.749 C1.334,64.206 1.859,64.792 3.822,64.567 C3.939,64.553 8.869,64.956 10.455,64.954 C10.535,63.978 9.924,60.962 9.875,60.949 C8.988,60.809 8.033,60.739 7.083,60.727 Z" fill="#FCD2C5"></path>
                            <path d="M35.55,55.181 C35.21,55.193 34.9,55.252 34.655,55.343 C30.176,57.021 13.977,60.07 9.034,61.075 C9.69,62.581 10.136,63.877 10.282,64.912 C18.38,63.094 38.737,62.336 38.952,59.026 C39.15,55.995 37.05,55.129 35.55,55.181 Z" fill="#FCD2C5"></path>
                            <path d="M44.662,31.415 C42.127,35.039 37.256,48.453 33.693,54.429 C29.326,61.758 36,62.188 38.039,60.397 C43.408,55.675 55.896,40.172 53.738,37.136 C52.802,35.819 45.121,30.758 44.662,31.415 Z" fill="#FCD2C5"></path>
                            <path d="M43.751,28.92 C42.159,33.152 40.64,37.053 38.653,41.625 C36.651,46.225 32.272,54.916 32.053,55.396 C30.192,56.285 12.625,59.456 9.76,60.04 L10.5,65.888 C17.596,65.27 34.613,64.863 38.748,61.101 C43.119,57.237 57.203,41.551 55.439,36.801 C53.683,32.074 43.876,28.584 43.751,28.92 Z" fill="url(#linearGradient-22)"></path>
                        </g>
                        <g transform="translate(577.000000, 162.000000)" id="Path">
                            <polygon fill="#F0F0F0" points="58.003 63.754 72.675 106.464 74.318 106.464 59.648 63.754"></polygon>
                            <polygon fill="#F0F0F0" points="33.201 63.754 47.873 106.464 49.517 106.464 34.845 63.754"></polygon>
                            <path d="M61.267,0.608 C50.978,0.608 41.076,8.949 39.148,19.237 L32.709,45.983 C31.576,52.03 24.949,56.412 18.799,56.412 L5.403,56.412 C3.385,56.412 1.749,58.048 1.749,60.066 C1.749,62.083 3.382,63.718 5.399,63.721 L60.643,63.778 C63.207,63.781 65.414,61.962 65.899,59.442 L76.407,19.237 C78.333,8.949 71.554,0.608 61.267,0.608 Z" fill="url(#linearGradient-23)"></path>
                            <path d="M61.267,0.607 C50.978,0.607 41.076,8.948 39.148,19.236 L32.709,46.008 C31.576,52.055 24.949,56.463 18.799,56.463 L5.403,56.463 C3.385,56.463 1.749,58.073 1.749,60.092 C1.749,62.109 3.382,63.732 5.399,63.734 L7.133,63.71 C7.692,62.405 8.985,61.464 10.494,61.464 L23.889,61.464 C30.041,61.464 36.666,57.102 37.799,51.055 L44.24,24.319 C46.168,14.031 56.07,5.695 66.357,5.695 C69.492,5.695 72.295,6.48 74.63,7.848 C72.046,3.449 67.261,0.607 61.267,0.607 Z" fill="#FFFFFF"></path>
                            <polygon fill="#FFFFFF" points="0.966 106.464 2.611 106.464 17.281 63.754 15.638 63.754"></polygon>
                            <polygon fill="#FFFFFF" points="25.769 106.464 27.412 106.464 42.083 63.754 40.441 63.754"></polygon>
                        </g>
                        <g transform="translate(92.000000, 119.000000)">
                            <g id="XMLID_51_" transform="translate(32.000000, 50.000000)" fill="#D5DBE0">
                                <rect id="Rectangle" x="0.388" y="0.868" width="24.994" height="11.426"></rect>
                            </g>
                            <g id="XMLID_32_" fill="#F0F0F0">
                                <path d="M85.333,0.637 L4.908,0.637 C2.645,0.637 0.794,2.49 0.794,4.752 L0.794,48.519 C0.794,50.782 2.646,52.634 4.908,52.634 L85.333,52.634 C87.597,52.634 89.448,50.781 89.448,48.519 L89.448,4.752 C89.449,2.489 87.597,0.637 85.333,0.637 Z" id="Path"></path>
                            </g>
                            <g id="XMLID_10_" transform="translate(3.000000, 3.000000)" fill="url(#linearGradient-12)">
                                <rect id="Rectangle" x="0.525" y="0.037" width="83.193" height="42.248"></rect>
                            </g>
                            <g id="XMLID_3_" transform="translate(22.000000, 60.000000)" fill="#FFFFFF">
                                <path d="M42.441,0.663 L1.848,0.663 C0.973,0.663 0.257,1.379 0.257,2.254 C0.257,3.129 0.973,3.845 1.848,3.845 L42.441,3.845 C43.316,3.845 44.032,3.129 44.032,2.254 C44.032,1.379 43.316,0.663 42.441,0.663 Z" id="Path"></path>
                            </g>
                            <g transform="translate(3.000000, 3.000000)">
                                <rect id="Rectangle" fill="url(#linearGradient-13)" x="0.525" y="0.037" width="10.35" height="42.285"></rect>
                                <rect id="Rectangle" fill="url(#linearGradient-14)" x="78.214" y="0.037" width="5.504" height="42.285"></rect>
                                <rect id="Rectangle" fill="#FFFFFF" x="1.646" y="6.781" width="3.271" height="2.865"></rect>
                                <rect id="Rectangle" fill="#FFFFFF" x="6.294" y="6.781" width="3.27" height="2.865"></rect>
                                <rect id="Rectangle" fill="#FFFFFF" x="1.646" y="10.958" width="3.271" height="2.865"></rect>
                                <rect id="Rectangle" fill="#FFFFFF" x="6.294" y="10.958" width="3.27" height="2.865"></rect>
                                <rect id="Rectangle" fill="#FFFFFF" x="1.646" y="15.135" width="3.271" height="2.865"></rect>
                                <rect id="Rectangle" fill="#FFFFFF" x="6.294" y="15.135" width="3.27" height="2.865"></rect>
                                <rect id="Rectangle" fill="#FFFFFF" x="1.646" y="19.313" width="3.271" height="2.865"></rect>
                                <rect id="Rectangle" fill="#FFFFFF" x="6.294" y="19.313" width="3.27" height="2.865"></rect>
                                <rect id="Rectangle" fill="#FFFFFF" x="1.646" y="23.488" width="3.271" height="2.865"></rect>
                                <rect id="Rectangle" fill="#FFFFFF" x="6.294" y="23.488" width="3.27" height="2.865"></rect>
                                <rect id="Rectangle" fill="#FFFFFF" x="1.646" y="27.666" width="3.271" height="2.865"></rect>
                                <rect id="Rectangle" fill="#FFFFFF" x="6.294" y="27.666" width="3.27" height="2.865"></rect>
                                <rect id="Rectangle" fill="#FFFFFF" x="1.646" y="33.834" width="3.271" height="6.227"></rect>
                                <rect id="Rectangle" fill="#FFFFFF" x="6.294" y="33.834" width="3.27" height="6.227"></rect>
                                <rect id="Rectangle" fill="#FFFFFF" x="79.332" y="36.236" width="3.27" height="3.824"></rect>
                                <rect id="Rectangle" fill="#FFFFFF" x="79.332" y="29.148" width="3.27" height="3.824"></rect>
                                <rect id="Rectangle" fill="#FFFFFF" x="79.332" y="22.061" width="3.27" height="3.824"></rect>
                                <rect id="Rectangle" fill="#FFFFFF" x="79.332" y="14.973" width="3.27" height="3.824"></rect>
                                <rect id="Rectangle" fill="#FFFFFF" x="79.332" y="7.885" width="3.27" height="3.824"></rect>
                                <rect id="Rectangle" fill="#D5DBE0" x="0.525" y="0.037" width="83.193" height="5.518"></rect>
                                <path d="M13.481,4.068 L5.339,4.068 C4.637,4.068 4.068,3.498 4.068,2.796 C4.068,2.094 4.637,1.524 5.339,1.524 L13.481,1.524 C14.183,1.524 14.753,2.094 14.753,2.796 C14.753,3.498 14.183,4.068 13.481,4.068 Z" id="Path" fill="#FFFFFF"></path>
                                <path d="M25.882,4.068 L17.74,4.068 C17.038,4.068 16.468,3.498 16.468,2.796 C16.468,2.094 17.038,1.524 17.74,1.524 L25.882,1.524 C26.584,1.524 27.153,2.094 27.153,2.796 C27.154,3.498 26.584,4.068 25.882,4.068 Z" id="Path" fill="#FFFFFF"></path>
                                <path d="M38.283,4.068 L30.142,4.068 C29.439,4.068 28.869,3.498 28.869,2.796 C28.869,2.094 29.439,1.524 30.142,1.524 L38.283,1.524 C38.986,1.524 39.555,2.094 39.555,2.796 C39.555,3.498 38.986,4.068 38.283,4.068 Z" id="Path" fill="#FFFFFF"></path>
                                <path d="M50.684,4.068 L42.542,4.068 C41.839,4.068 41.27,3.498 41.27,2.796 C41.27,2.094 41.839,1.524 42.542,1.524 L50.684,1.524 C51.386,1.524 51.956,2.094 51.956,2.796 C51.957,3.498 51.386,4.068 50.684,4.068 Z" id="Path" fill="#FFFFFF"></path>
                                <path d="M63.085,4.068 L54.942,4.068 C54.24,4.068 53.671,3.498 53.671,2.796 C53.671,2.094 54.24,1.524 54.942,1.524 L63.085,1.524 C63.787,1.524 64.356,2.094 64.356,2.796 C64.357,3.498 63.788,4.068 63.085,4.068 Z" id="Path" fill="#FFFFFF"></path>
                            </g>
                            <g transform="translate(31.000000, 29.000000)" fill="#FFFFFF">
                                <path d="M10.958,10.998 L8.629,10.998 L7.703,8.59 L3.466,8.59 L2.591,10.998 L0.32,10.998 L4.45,0.396 L6.713,0.396 L10.958,10.998 Z M7.017,6.804 L5.556,2.87 L4.124,6.804 L7.017,6.804 Z" id="Shape" fill-rule="nonzero"></path>
                                <path d="M11.992,10.998 L11.992,0.396 L14.024,0.396 L14.024,4.214 C14.65,3.501 15.393,3.144 16.252,3.144 C17.188,3.144 17.961,3.483 18.572,4.161 C19.185,4.838 19.491,5.81 19.491,7.079 C19.491,8.39 19.179,9.399 18.554,10.108 C17.929,10.817 17.171,11.171 16.28,11.171 C15.842,11.171 15.409,11.062 14.982,10.842 C14.555,10.622 14.187,10.298 13.878,9.869 L13.878,10.997 L11.992,10.997 L11.992,10.998 Z M14.009,6.992 C14.009,7.787 14.134,8.375 14.385,8.756 C14.738,9.296 15.204,9.567 15.788,9.567 C16.235,9.567 16.618,9.376 16.934,8.992 C17.248,8.609 17.407,8.005 17.407,7.18 C17.407,6.303 17.249,5.67 16.93,5.282 C16.612,4.894 16.203,4.7 15.707,4.7 C15.221,4.7 14.815,4.889 14.492,5.268 C14.171,5.646 14.009,6.221 14.009,6.992 Z" id="Shape" fill-rule="nonzero"></path>
                                <path d="M27.821,5.589 L25.818,5.95 C25.751,5.551 25.597,5.249 25.359,5.047 C25.121,4.844 24.81,4.743 24.429,4.743 C23.923,4.743 23.519,4.918 23.218,5.267 C22.917,5.616 22.767,6.201 22.767,7.02 C22.767,7.931 22.919,8.575 23.226,8.951 C23.532,9.327 23.943,9.515 24.458,9.515 C24.844,9.515 25.159,9.406 25.405,9.186 C25.651,8.966 25.825,8.589 25.926,8.054 L27.922,8.394 C27.714,9.31 27.318,10.002 26.729,10.469 C26.141,10.937 25.353,11.171 24.365,11.171 C23.242,11.171 22.346,10.817 21.678,10.108 C21.01,9.399 20.677,8.419 20.677,7.166 C20.677,5.897 21.011,4.91 21.681,4.204 C22.351,3.498 23.258,3.144 24.401,3.144 C25.336,3.144 26.08,3.345 26.631,3.748 C27.183,4.151 27.58,4.765 27.821,5.589 Z" id="Path"></path>
                            </g>
                            <g id="XMLID_574_" transform="translate(29.000000, 12.000000)">
                                <g id="XMLID_575_" fill="#D5DBE0">
                                    <rect id="Rectangle" x="0.903" y="0.038" width="30.437" height="10.954"></rect>
                                </g>
                                <g id="Group" transform="translate(6.000000, 2.000000)" fill="#FFFFFF">
                                    <polygon id="Path" points="1.138 0.896 1.138 2.836 3.38 2.836 3.38 0.896 3.985 0.896 3.985 5.534 3.38 5.534 3.38 3.359 1.138 3.359 1.138 5.534 0.538 5.534 0.538 0.896"></polygon>
                                    <polygon id="Path" points="5.905 1.406 4.495 1.406 4.495 0.896 7.928 0.896 7.928 1.406 6.512 1.406 6.512 5.534 5.906 5.534 5.906 1.406"></polygon>
                                    <path d="M12.351,3.498 C12.316,2.852 12.275,2.073 12.283,1.496 L12.262,1.496 C12.104,2.039 11.911,2.617 11.678,3.257 L10.859,5.506 L10.405,5.506 L9.655,3.298 C9.434,2.645 9.249,2.046 9.118,1.496 L9.104,1.496 C9.09,2.073 9.056,2.851 9.015,3.546 L8.891,5.534 L8.32,5.534 L8.643,0.896 L9.407,0.896 L10.199,3.139 C10.391,3.71 10.55,4.219 10.667,4.701 L10.688,4.701 C10.804,4.234 10.97,3.724 11.176,3.139 L12.001,0.896 L12.765,0.896 L13.054,5.534 L12.47,5.534 L12.351,3.498 Z" id="Path"></path>
                                    <polygon id="Path" points="13.974 0.896 14.572 0.896 14.572 5.031 16.554 5.031 16.554 5.534 13.974 5.534"></polygon>
                                    <path d="M19.677,1.571 L17.97,1.571 L17.798,2.72 C17.902,2.705 17.997,2.693 18.163,2.693 C18.507,2.693 18.851,2.768 19.126,2.933 C19.478,3.132 19.766,3.518 19.766,4.081 C19.766,4.955 19.072,5.608 18.101,5.608 C17.613,5.608 17.2,5.471 16.987,5.333 L17.138,4.873 C17.324,4.983 17.689,5.12 18.095,5.12 C18.665,5.12 19.154,4.749 19.154,4.15 C19.147,3.572 18.761,3.159 17.867,3.159 C17.613,3.159 17.414,3.186 17.248,3.208 L17.537,1.062 L19.678,1.062 L19.678,1.571 L19.677,1.571 Z" id="Path"></path>
                                </g>
                            </g>
                        </g>
                        <g transform="translate(83.000000, 191.000000)" fill="#FFFFFF" id="Rectangle">
                            <rect x="0.797" y="0.376" width="2.323" height="77.088"></rect>
                            <rect x="30.75" y="0.376" width="2.324" height="77.088"></rect>
                            <rect x="112.925" y="0.376" width="2.323" height="77.088"></rect>
                            <rect x="142.876" y="0.376" width="2.324" height="77.088"></rect>
                        </g>
                        <g transform="translate(70.000000, 182.000000)" id="Rectangle">
                            <rect fill="#F0F0F0" x="0.301" y="0.845" width="50.915" height="8.619"></rect>
                            <rect fill="url(#linearGradient-16)" x="51.216" y="0.845" width="124.283" height="8.619"></rect>
                        </g>
                        <g transform="translate(175.000000, 140.000000)">
                            <rect id="Rectangle" fill="#F0F0F0" x="28.988" y="0.881" width="18.445" height="41.4"></rect>
                            <rect id="Rectangle" fill="#D5DBE0" x="30.663" y="4.642" width="15.095" height="6.308"></rect>
                            <rect id="Rectangle" fill="#D5DBE0" x="30.663" y="12.502" width="15.095" height="3.72"></rect>
                            <rect id="Rectangle" fill="url(#linearGradient-18)" x="0.699" y="0.881" width="28.289" height="41.4"></rect>
                            <circle id="Oval" fill="url(#linearGradient-24)" cx="38.21" cy="31.766" r="3.687"></circle>
                        </g>
                        <g transform="translate(121.000000, 118.000000)" id="Path">
                            <path d="M29.859,140.573 C30.316,142.045 30.267,143.101 30.267,143.101 C31.57,144.416 34.017,144.463 34.068,144.353 C34.068,144.353 34.447,142.66 34.154,140.347 C33.917,140.367 31.546,139.017 29.859,140.573 Z" fill="#FCD2C5"></path>
                            <path d="M9.322,105.216 C20.535,125.432 29.748,142.299 29.748,142.299 C30.455,140.998 32.68,140.112 34.447,140.618 C34.447,140.618 27.941,121.618 21.383,102.368 C17.057,89.676 4.75,96.97 9.322,105.216 Z" fill="url(#linearGradient-25)"></path>
                            <path d="M30.201,142.107 C30.201,142.107 30.087,142.346 29.476,142.933 C28.3,144.064 22.983,146.428 22.8,148.188 C22.707,149.077 24.493,150.069 26.011,150.289 C27.529,150.508 28.873,150.561 29.74,150.166 C30.818,149.672 32.974,147.32 33.398,146.84 C34.447,145.652 34.068,143.472 34.068,143.472 C33.183,141.368 30.201,142.107 30.201,142.107 Z" fill="#4D3782"></path>
                            <path d="M30.201,144.271 C28.672,145.337 23.74,147.07 23.586,148.551 C23.508,149.299 25.012,150.135 26.29,150.32 C27.568,150.506 28.701,150.55 29.43,150.216 C30.338,149.8 32.196,147.853 32.511,147.415 C34.24,145.021 31.687,143.236 30.201,144.271 Z" fill="#3A2B62"></path>
                            <path d="M59.119,140.993 C59.531,143.261 60.193,145.477 60.193,145.477 C60.244,145.588 63.507,144.416 64.81,143.101 C64.81,143.101 63.81,141.555 63.087,140.118 C61.4,138.563 59.355,141.013 59.119,140.993 Z" fill="#FCD2C5"></path>
                            <path d="M39.394,108.216 C50.607,128.432 58.921,142.37 58.921,142.37 C59.63,141.069 61.751,140.112 63.519,140.618 C63.519,140.618 58.012,124.618 51.454,105.368 C47.128,92.676 34.821,99.97 39.394,108.216 Z" fill="url(#linearGradient-26)"></path>
                            <path d="M64.601,142.934 L64.568,142.902 C63.718,142.085 62.47,141.749 61.37,142.17 C61.355,142.176 61.34,142.182 61.326,142.188 C60.474,142.53 59.978,143.421 60.049,144.335 C60.111,145.138 60.27,146.291 60.68,146.841 C61.063,147.355 63.26,149.673 64.338,150.167 C65.204,150.563 66.549,150.509 68.067,150.29 C69.585,150.07 71.372,149.078 71.278,148.189 C71.094,146.429 65.777,144.064 64.601,142.934 Z" fill="#4D3782"></path>
                            <path d="M63.876,144.271 C62.39,143.236 59.837,145.021 61.566,147.416 C61.881,147.854 63.739,149.801 64.647,150.217 C65.376,150.551 66.508,150.506 67.787,150.321 C69.065,150.136 70.569,149.3 70.491,148.552 C70.337,147.07 65.406,145.338 63.876,144.271 Z" fill="#3A2B62"></path>
                            <g transform="translate(20.000000, 24.000000)">
                                <path d="M6.129,37.149 C5.733,36.959 5.357,36.638 5.173,37.201 C5.023,37.552 6.391,38.514 6.769,38.544 C7.697,38.342 7.576,37.8 8.472,37.736 C7.685,37.678 6.867,37.446 6.129,37.149 Z" fill="#FCD2C5"></path>
                                <path d="M9.152,37.673 C8.256,37.737 7.308,37.884 6.381,38.086 C5.281,38.315 2.885,39.102 2.717,39.157 C2.238,39.345 0.98,39.659 0.661,39.909 C0.458,40.068 0.086,40.731 0.093,41.05 C0.102,41.473 0.55,41.606 0.55,41.606 C0.453,42.146 1.832,42.125 1.779,42.251 C1.564,42.77 2.207,43.223 4.069,42.562 C4.181,42.523 9.075,41.804 10.62,41.445 C10.476,40.476 9.203,37.674 9.152,37.673 Z" fill="#FCD2C5"></path>
                                <path d="M34.997,26.496 C34.656,26.499 34.347,26.549 34.1,26.633 C29.576,28.184 13.831,36.831 8.861,37.696 C9.475,39.219 9.883,40.528 10.001,41.566 C18.147,39.979 37.983,33.738 38.291,30.436 C38.573,27.412 36.498,26.486 34.997,26.496 Z" fill="#FCD2C5"></path>
                                <path d="M44.779,2.998 C42.142,6.549 36.892,19.82 33.163,25.692 C28.59,32.894 35.247,33.512 37.336,31.78 C42.838,27.213 55.762,12.07 53.69,8.973 C52.791,7.631 45.257,2.355 44.779,2.998 Z" fill="#FCD2C5"></path>
                                <path d="M43.939,0.479 C42.228,4.664 40.599,8.52 38.483,13.034 C36.353,17.576 34.151,22.271 32.318,25.157 C32.005,25.651 31.728,26.139 31.496,26.614 C29.611,27.449 27.115,28.662 24.48,29.94 C18.728,32.733 11.57,36.21 8.689,36.711 L10.19,42.548 C17.362,41.151 33.788,36.147 38.027,32.504 C42.507,28.765 55.419,14.427 54.063,9.545 C51.81,1.433 44.075,0.146 43.939,0.479 Z" fill="#5836E5"></path>
                            </g>
                            <path d="M66.003,74.802 C59.538,75.118 25.602,87.261 11.817,95.538 C5.954,99.059 8.391,105.341 14.841,104.949 C33.498,103.819 58.195,104.513 69.17,96.653 C86.619,84.156 69.455,74.633 66.003,74.802 Z" fill="url(#linearGradient-27)"></path>
                            <path d="M76.402,74.202 C68.93,75.146 61.501,76.195 53.957,76.359 C49.288,76.461 44.853,75.965 40.707,74.813 C40.728,81.802 39.307,82.868 36.182,84.753 C38.393,92.43 42.815,94.566 46.649,95.819 C56.745,99.117 82.001,91.559 82.718,91.506 C82.686,85.952 82.184,79.703 81.456,73.463 C79.816,73.767 78.126,73.984 76.402,74.202 Z" fill="#F0F0F0"></path>
                            <path d="M60.939,12.918 C60.418,13.305 55.006,16.328 53.459,16.098 C53.473,16.528 54.527,21.06 53.533,23.501 C53.971,25.769 60.258,25.766 61.978,21.919 C61.254,20.826 60.638,15.01 60.939,12.918 Z" fill="#FCD2C5"></path>
                            <path d="M55.23,5.41 C52.38,5.223 49.626,5.892 49.003,8.584 C48.779,9.549 49.218,18.242 53.862,19.547 C55.826,20.098 59.586,16.733 59.735,14.446 C59.735,14.446 59.939,11.33 59.94,11.299 C60.139,8.269 58.291,5.61 55.23,5.41 Z" fill="#FCD2C5"></path>
                            <path d="M68.359,23.598 C66.752,23.217 61.978,21.919 61.978,21.919 C61.978,21.919 61.042,23.227 58.136,23.848 C55.526,24.405 53.532,23.501 53.532,23.501 C53.532,23.501 48.021,25.193 47.02,25.777 C43.137,28.046 43.118,29.681 42.866,35.017 C42.747,37.504 42.694,75.72 36.655,84.508 C36.856,84.86 39.034,90.076 44.02,91.395 L45.243,80.584 L46.352,91.893 C58.036,94.4 66.987,89.779 76.374,88.343 L77.274,74.156 L79.974,87.834 C80.88,87.721 81.703,87.633 82.419,87.579 C82.294,65.91 76.297,33.352 76.032,32.368 C74.916,28.19 73.183,24.742 68.359,23.598 Z" fill="#5836E5"></path>
                            <path d="M6.105,59.593 C5.88,59.902 6.998,61.146 7.359,61.26 C8.308,61.273 8.311,60.717 9.201,60.858 C8.446,60.624 7.701,60.213 7.049,59.758 C6.707,59.483 6.412,59.087 6.105,59.593 Z" fill="#FCD2C5"></path>
                            <path d="M7.083,60.727 C5.96,60.703 3.447,60.929 3.27,60.946 C2.762,61.021 1.465,61.045 1.098,61.217 C0.865,61.326 0.353,61.888 0.287,62.2 C0.201,62.613 0.607,62.844 0.607,62.844 C0.392,63.349 1.74,63.638 1.661,63.749 C1.334,64.206 1.859,64.792 3.822,64.567 C3.939,64.553 8.869,64.956 10.456,64.954 C10.534,63.978 9.925,60.962 9.875,60.949 C8.988,60.809 8.033,60.739 7.083,60.727 Z" fill="#FCD2C5"></path>
                            <path d="M35.55,55.181 C35.21,55.193 34.901,55.252 34.655,55.343 C30.177,57.021 13.978,60.07 9.034,61.075 C9.69,62.581 10.137,63.877 10.282,64.912 C18.38,63.094 38.738,62.336 38.952,59.026 C39.15,55.995 37.05,55.129 35.55,55.181 Z" fill="#FCD2C5"></path>
                            <path d="M44.662,31.415 C42.127,35.039 37.256,48.453 33.694,54.429 C29.326,61.758 35.999,62.188 38.039,60.397 C43.408,55.675 55.896,40.172 53.738,37.136 C52.802,35.819 45.122,30.758 44.662,31.415 Z" fill="#FCD2C5"></path>
                            <path d="M43.751,28.92 C42.159,33.152 40.64,37.053 38.652,41.625 C36.652,46.225 32.272,54.916 32.052,55.396 C30.192,56.285 12.625,59.456 9.759,60.04 L10.5,65.888 C17.596,65.27 34.613,64.863 38.748,61.101 C43.119,57.237 57.203,41.551 55.438,36.801 C53.683,32.074 43.877,28.584 43.751,28.92 Z" fill="#5836E5"></path>
                            <path d="M45.477,7.951 C45.433,9.289 47.804,10.949 51.591,10.214 C52.216,18.662 59.072,18.539 61.417,16.748 C65.388,13.717 65.784,6.047 61.426,2.16 C55.726,-2.924 45.674,1.893 45.477,7.951 Z" fill="#4D3782"></path>
                        </g>
                        <g transform="translate(149.000000, 162.000000)" id="Path">
                            <polygon fill="#F0F0F0" points="58.003 63.754 72.675 106.464 74.318 106.464 59.647 63.754"></polygon>
                            <polygon fill="#F0F0F0" points="33.202 63.754 47.873 106.464 49.517 106.464 34.845 63.754"></polygon>
                            <path d="M61.267,0.608 C50.978,0.608 41.076,8.949 39.148,19.237 L32.709,45.983 C31.576,52.03 24.949,56.412 18.799,56.412 L5.403,56.412 C3.385,56.412 1.749,58.048 1.749,60.066 C1.749,62.083 3.382,63.718 5.399,63.721 L60.643,63.778 C63.208,63.781 65.414,61.962 65.899,59.442 L76.407,19.237 C78.333,8.949 71.555,0.608 61.267,0.608 Z" fill="url(#linearGradient-28)"></path>
                            <path d="M61.267,0.607 C50.978,0.607 41.076,8.948 39.148,19.236 L32.709,46.008 C31.576,52.055 24.949,56.463 18.799,56.463 L5.403,56.463 C3.385,56.463 1.749,58.073 1.749,60.092 C1.749,62.109 3.382,63.732 5.399,63.734 L7.133,63.71 C7.691,62.405 8.985,61.464 10.494,61.464 L23.889,61.464 C30.041,61.464 36.667,57.102 37.799,51.055 L44.24,24.319 C46.168,14.031 56.07,5.695 66.358,5.695 C69.493,5.695 72.295,6.48 74.63,7.848 C72.047,3.449 67.261,0.607 61.267,0.607 Z" fill="#FFFFFF"></path>
                            <polygon fill="#FFFFFF" points="0.966 106.464 2.61 106.464 17.282 63.754 15.638 63.754"></polygon>
                            <polygon fill="#FFFFFF" points="25.769 106.464 27.412 106.464 42.083 63.754 40.441 63.754"></polygon>
                        </g>
                        <g transform="translate(412.000000, 228.000000)">
                            <g id="Path">
                                <path d="M0.679,13.461 L0.679,25.331 C0.679,26.787 1.859,27.967 3.314,27.967 L20.56,27.967 C22.015,27.967 23.197,26.787 23.197,25.331 L23.197,13.461 C23.197,12.005 22.015,10.825 20.56,10.825 L3.314,10.825 C1.859,10.825 0.679,12.005 0.679,13.461 Z" fill="#F0F0F0"></path>
                                <path d="M17.625,19.396 C17.625,22.532 15.072,25.085 11.937,25.085 C8.802,25.085 6.253,22.531 6.253,19.396 C6.253,16.261 8.802,13.708 11.937,13.708 C15.072,13.708 17.625,16.261 17.625,19.396 Z" fill="#D5DBE0"></path>
                                <polygon fill="#4D3782" points="10.433 15.216 10.433 23.576 13.443 23.576 13.443 15.216"></polygon>
                                <path d="M7.453,10.825 L7.453,7.7 C7.453,5.226 9.467,3.214 11.941,3.214 C13.199,3.214 14.336,3.736 15.15,4.573 C15.351,4.78 15.533,5.004 15.691,5.246 C16.156,5.953 16.427,6.795 16.427,7.7 L16.427,10.825 L19.435,10.825 L19.435,7.8 C19.435,6.326 19.001,4.954 18.263,3.792 C18.095,3.53 17.919,3.275 17.722,3.036 C17.156,2.349 16.466,1.77 15.691,1.321 C15.515,1.218 15.336,1.126 15.15,1.038 C14.175,0.573 13.089,0.306 11.941,0.306 C7.808,0.306 4.445,3.667 4.445,7.8 L4.445,10.825 L7.453,10.825 Z" fill="#4D3782"></path>
                            </g>
                            <g transform="translate(11.000000, 11.000000)">
                                <path d="M16.978,12.087 L19.08,12.087 L20.08,10.6 L22.185,10.6 C22.005,9.894 21.896,9.162 21.896,8.396 C21.896,7.635 22.005,6.903 22.185,6.192 L3.246,6.192 L0.937,8.396 L3.246,10.6 L7.779,10.6 L9,12.087 L10.52,12.087 L11.653,10.6 L15.93,10.6 L16.978,12.087 Z" id="Path" fill="#FFFFFF"></path>
                                <path d="M19.246,7.66 L4.566,7.66 C4.16,7.66 3.832,7.989 3.832,8.395 C3.832,8.8 4.16,9.129 4.566,9.129 L19.246,9.129 C19.652,9.129 19.982,8.8 19.982,8.395 C19.982,7.989 19.652,7.66 19.246,7.66 Z" id="Path" fill="#F0F0F0"></path>
                                <path d="M36.982,6.604 C36.711,5.431 36.183,4.357 35.457,3.444 C35.221,3.147 34.961,2.866 34.684,2.604 C33.256,1.253 31.332,0.419 29.219,0.419 C28.619,0.419 28.037,0.491 27.475,0.616 C27.188,0.679 26.911,0.762 26.633,0.856 C24.973,1.427 23.555,2.528 22.59,3.962 C22.248,4.474 21.969,5.028 21.75,5.616 C21.426,6.482 21.238,7.416 21.238,8.395 C21.238,9.375 21.426,10.306 21.75,11.174 C21.969,11.76 22.248,12.318 22.59,12.828 C22.998,13.434 23.49,13.98 24.043,14.454 C24.311,14.682 24.59,14.892 24.885,15.084 C25.426,15.434 26.014,15.72 26.633,15.932 C26.91,16.027 27.188,16.109 27.475,16.173 C28.038,16.3 28.62,16.369 29.219,16.369 C33.615,16.369 37.194,12.792 37.194,8.394 C37.194,8.072 37.169,7.755 37.131,7.443 C37.095,7.16 37.046,6.882 36.982,6.604 Z M29.218,13.76 L28.796,13.76 L28.796,3.035 L29.218,3.035 C29.316,3.035 29.413,3.044 29.509,3.048 C30.13,3.083 30.724,3.217 31.271,3.444 C32.664,4.025 33.757,5.177 34.263,6.604 C34.361,6.875 34.437,7.156 34.488,7.446 C34.547,7.755 34.58,8.073 34.58,8.397 C34.58,11.354 32.173,13.76 29.218,13.76 Z" id="Shape" fill="#FFFFFF" fill-rule="nonzero"></path>
                            </g>
                        </g>
                    </g>
                </g>
            </g>
        </g>
    </g>
</svg>