
<svg width="100%" viewBox="0 0 1119 733" version="1.1" xmlns="http://www.w3.org/2000/svg" xmlns:xlink="http://www.w3.org/1999/xlink">
    <defs>
        <linearGradient x1="49.9986279%" y1="99.9899149%" x2="49.9986279%" y2="-0.00690286988%" id="linearGradient-1">
            <stop stop-color="#808080" stop-opacity="0.25" offset="0%"></stop>
            <stop stop-color="#808080" stop-opacity="0.12" offset="54%"></stop>
            <stop stop-color="#808080" stop-opacity="0.1" offset="100%"></stop>
        </linearGradient>
        <linearGradient x1="50.0134006%" y1="99.9991192%" x2="50.0134006%" y2="-0.017041968%" id="linearGradient-2">
            <stop stop-color="#808080" stop-opacity="0.25" offset="0%"></stop>
            <stop stop-color="#808080" stop-opacity="0.12" offset="54%"></stop>
            <stop stop-color="#808080" stop-opacity="0.1" offset="100%"></stop>
        </linearGradient>
    </defs>
    <g id="Page-1" stroke="none" stroke-width="1" fill="none" fill-rule="evenodd">
        <g id="undraw_gifts_btw0-2">
            <ellipse id="Oval" fill="#6C63FF" fill-rule="nonzero" opacity="0.1" cx="559.5" cy="644.13" rx="559.5" ry="88"></ellipse>
            <polygon id="Path" fill="#F86D70" fill-rule="nonzero" points="927.33 472.98 927.33 533.98 911.2 566.52 911.2 566.52 910.69 567.55 868 564.73 851.59 563.64 813.5 561.13 813.5 488.16 851.59 489.23 868.62 489.71 911.71 490.93"></polygon>
            <polygon id="Path" fill="#000000" fill-rule="nonzero" opacity="0.1" points="927.33 476.58 927.33 533.98 923.38 541.93 923.38 541.93 919.35 550.08 919.35 550.08 911.2 566.52 912.11 505.52 912.29 493.21 920.04 484.64 920.04 484.64 923.42 480.9"></polygon>
            <polygon id="Path" fill="#F86D70" fill-rule="nonzero" points="929.51 456.78 929.51 478.09 927.33 481.58 923.41 487.81 919.95 493.33 912.29 505.53 912.11 505.52 810.14 500.27 810.14 479.26 810.4 478.98 822.57 465.8 826.98 461.03 834.95 452.41"></polygon>
            <polygon id="Path" fill="#000000" fill-rule="nonzero" opacity="0.1" points="912.29 484.51 912.29 505.53 810.14 500.27 810.14 479.26 810.4 478.98"></polygon>
            <polygon id="Path" fill="#000000" fill-rule="nonzero" opacity="0.15" points="929.51 456.78 929.51 478.09 912.29 505.53 912.29 484.51"></polygon>
            <polygon id="Path" fill="#3F3D56" fill-rule="nonzero" points="923.43 466.59 923.42 480.9 923.41 487.81 923.38 541.93 923.38 541.93 919.35 550.08 919.95 493.33 920.04 484.64 920.04 484.64 920.18 471.82 822.57 465.8 826.98 461.03"></polygon>
            <polygon id="Path" fill="#3F3D56" fill-rule="nonzero" points="875.52 467.29 868.68 482.14 868.62 489.71 868 564.73 851.59 563.64 851.59 481.15 860.34 467.29"></polygon>
            <path d="M853,468.29 C849.046737,469.610138 844.796157,469.759464 840.76,468.72 C839.975793,468.566163 839.241114,468.222855 838.62,467.72 C837.948982,466.978368 837.489625,466.070017 837.29,465.09 C836.576226,463.06668 836.181508,460.944648 836.12,458.8 C836.07074,456.620931 837.039332,454.543266 838.74,453.18 C839.098019,452.964728 839.433093,452.713422 839.74,452.43 C840.102229,451.969123 840.364467,451.437835 840.51,450.87 C841.71,447.3 844.02,443.54 847.74,442.96 C851.17,442.44 854.29,444.83 856.94,447.08 L862.74,452.02 C864.054517,448.474217 867.414869,446.102394 871.19613,446.051445 C874.97739,446.000497 878.400427,448.280922 879.81,451.79 C883.320625,447.826035 887.750067,444.783798 892.71,442.93 C893.764757,442.385894 895.006671,442.338269 896.1,442.8 C896.723901,443.251697 897.194922,443.883214 897.45,444.61 C899.031858,448.066277 899.889462,451.809784 899.97,455.61 C900.804895,455.324432 901.727143,455.641455 902.21,456.38 C902.656458,457.111508 902.910991,457.9439 902.95,458.8 C903.106618,460.127532 903.183423,461.463266 903.18,462.8 C903.329638,464.209598 902.975374,465.626655 902.18,466.8 C901,468.18 898.95,468.32 897.18,468.36 C898.06,469.14 897.63,470.71 896.66,471.36 C895.622382,471.916739 894.440697,472.146801 893.27,472.02 C888.76,472.02 883.96,471.85 880.2,469.35 C878.72,468.35 877.48,467.04 875.99,466.05 C872.35,463.64 867.77,463.53 863.56,463.73 C859.64,463.92 856.62,467.07 853,468.29 Z" id="Path" fill="#3F3D56" fill-rule="nonzero"></path>
            <path d="M852.17,467.3 C852.17,467.3 814.52,472.55 809.26,495.3 L817.15,494.14 L822.69,504.06 C822.69,504.06 828.53,481.88 845.75,476.62 C862.97,471.36 869.1,470.5 869.1,470.5 C869.1,470.5 881.1,473.41 891.86,508.15 L897.99,499.68 L908.79,502.02 C908.79,502.02 900.91,474.87 879.6,467.29 L852.17,467.3 Z" id="Path" fill="#3F3D56" fill-rule="nonzero"></path>
            <polygon id="Path" fill="#6C63FF" fill-rule="nonzero" points="874.71 496.84 874.71 579.24 852.93 623.18 852.93 623.19 852.24 624.58 794.57 620.77 772.4 619.3 720.95 615.9 720.95 517.34 772.4 518.79 795.41 519.44 853.62 521.08"></polygon>
            <polygon id="Path" fill="#000000" fill-rule="nonzero" opacity="0.1" points="874.71 501.7 874.71 579.24 869.39 589.97 869.39 589.98 863.93 600.98 863.93 600.98 852.93 623.18 854.16 540.78 854.41 524.16 864.87 512.59 864.87 512.58 869.43 507.54"></polygon>
            <polygon id="Path" fill="#6C63FF" fill-rule="nonzero" points="877.67 474.95 877.67 503.74 874.71 508.45 869.43 516.86 864.75 524.32 854.41 540.8 854.16 540.78 716.42 533.7 716.42 505.31 716.76 504.94 733.21 487.14 739.16 480.69 749.93 469.04"></polygon>
            <polygon id="Path" fill="#000000" fill-rule="nonzero" opacity="0.1" points="854.41 512.41 854.41 540.8 716.42 533.7 716.42 505.31 716.76 504.94"></polygon>
            <polygon id="Path" fill="#000000" fill-rule="nonzero" opacity="0.15" points="877.67 474.95 877.67 503.74 854.41 540.8 854.41 512.41"></polygon>
            <polygon id="Path" fill="#3F3D56" fill-rule="nonzero" points="869.45 488.2 869.43 507.54 869.43 516.86 869.39 589.97 869.39 589.98 863.93 600.98 864.75 524.32 864.87 512.59 864.87 512.58 865.06 495.26 733.21 487.14 739.16 480.69"></polygon>
            <polygon id="Path" fill="#3F3D56" fill-rule="nonzero" points="804.73 489.15 795.49 509.21 795.41 519.44 794.57 620.77 772.4 619.3 772.4 507.88 784.23 489.15"></polygon>
            <path d="M774.31,490.5 C768.970452,492.279074 763.23111,492.480455 757.78,491.08 C756.721327,490.877175 755.728821,490.416982 754.89,489.74 C753.981633,488.740097 753.359792,487.513688 753.09,486.19 C752.125428,483.452375 751.592394,480.581414 751.51,477.68 C751.58,474.79 752.68,471.77 755.05,470.1 C755.525484,469.807132 755.973924,469.472475 756.39,469.1 C756.868926,468.475377 757.209775,467.756187 757.39,466.99 C759,462.17 762.13,457.08 767.16,456.31 C771.79,455.6 776.01,458.83 779.58,461.87 L787.41,468.54 C789.193429,463.758021 793.730658,460.56226 798.833915,460.493656 C803.937173,460.425052 808.558668,463.49769 810.47,468.23 C815.21133,462.8649 821.196151,458.744541 827.9,456.23 C829.39,455.67 831.13,455.23 832.49,456.05 C833.326038,456.66402 833.959758,457.513624 834.31,458.49 C836.442328,463.160495 837.599259,468.216961 837.71,473.35 C838.821079,472.967002 840.050936,473.376954 840.71,474.35 C841.314422,475.34159 841.658409,476.469864 841.71,477.63 C841.921496,479.418906 842.028345,481.218636 842.03,483.02 C842.03,484.92 841.85,487.02 840.61,488.42 C839.01,490.28 836.24,490.48 833.79,490.54 C834.97,491.59 834.39,493.7 833.08,494.59 C831.678602,495.343385 830.081558,495.653728 828.5,495.48 C822.4,495.42 815.92,495.25 810.85,491.86 C808.85,490.53 807.17,488.75 805.16,487.42 C800.24,484.16 794.06,484.01 788.36,484.28 C783.28,484.59 779.2,488.86 774.31,490.5 Z" id="Path" fill="#3F3D56" fill-rule="nonzero"></path>
            <path d="M773.19,489.15 C773.19,489.15 722.33,496.25 715.19,527 L725.84,525.42 L733.33,538.83 C733.33,538.83 741.22,508.83 764.48,501.77 C787.74,494.71 796.02,493.49 796.02,493.49 C796.02,493.49 812.18,497.43 826.77,544.35 L835.05,532.91 L849.68,536.07 C849.68,536.07 839.03,499.4 810.25,489.15 L773.19,489.15 Z" id="Path" fill="#3F3D56" fill-rule="nonzero"></path>
            <polygon id="Path" fill="#3F3D56" fill-rule="nonzero" points="957.25 537.77 957.25 588.77 943.77 615.97 943.77 615.97 943.34 616.83 907.65 614.47 893.93 613.56 862.09 611.46 862.09 550.46 893.93 551.35 908.17 551.75 944.2 552.77"></polygon>
            <polygon id="Path" fill="#000000" fill-rule="nonzero" opacity="0.1" points="957.25 540.77 957.25 588.77 953.96 595.41 953.96 595.41 950.58 602.22 950.58 602.23 943.77 615.97 944.53 564.97 944.69 554.68 951.16 547.51 951.16 547.51 953.99 544.39"></polygon>
            <polygon id="Path" fill="#3F3D56" fill-rule="nonzero" points="959.08 524.22 959.08 542.04 957.25 544.95 953.98 550.16 951.09 554.78 944.69 564.97 944.53 564.97 859.28 560.58 859.28 543.01 859.49 542.78 869.67 531.76 873.36 527.78 880.02 520.56"></polygon>
            <polygon id="Path" fill="#000000" fill-rule="nonzero" opacity="0.1" points="944.69 547.4 944.69 564.97 859.28 560.58 859.28 543.01 859.49 542.78"></polygon>
            <polygon id="Path" fill="#000000" fill-rule="nonzero" opacity="0.15" points="959.08 524.22 959.08 542.04 944.69 564.97 944.69 547.4"></polygon>
            <polygon id="Path" fill="#6C63FF" fill-rule="nonzero" points="953.99 532.42 953.99 544.39 953.98 550.16 953.96 595.41 953.96 595.41 950.58 602.22 951.09 554.78 951.16 547.51 951.16 547.51 951.28 536.79 869.67 531.76 873.36 527.78"></polygon>
            <polygon id="Path" fill="#6C63FF" fill-rule="nonzero" points="913.94 533.01 908.22 545.43 908.17 551.75 907.65 614.47 893.93 613.56 893.93 544.6 901.25 533.01"></polygon>
            <path d="M895.11,533.85 C891.804866,534.947347 888.254095,535.0723 884.88,534.21 C884.224618,534.077556 883.610694,533.789458 883.09,533.37 C882.532893,532.750971 882.149879,531.995295 881.98,531.18 C881.375489,529.485794 881.038125,527.707884 880.98,525.91 C880.941042,524.091187 881.750464,522.357768 883.17,521.22 C883.467854,521.039481 883.746031,520.828335 884,520.59 C884.303213,520.207021 884.521386,519.763858 884.64,519.29 C885.64,516.29 887.58,513.16 890.69,512.68 C893.56,512.24 896.17,514.24 898.38,516.12 L903.23,520.25 C904.33222,517.287654 907.142792,515.308185 910.303297,515.268319 C913.463802,515.228452 916.323409,517.136399 917.5,520.07 C920.441536,516.762765 924.145187,514.222727 928.29,512.67 C929.169594,512.212634 930.207559,512.172289 931.12,512.56 C931.640694,512.937486 932.034692,513.46398 932.25,514.07 C933.572879,516.960416 934.287663,520.091851 934.35,523.27 C935.046338,523.026806 935.818695,523.291142 936.22,523.91 C936.591065,524.51481 936.807438,525.201711 936.85,525.91 C936.978064,527.018706 937.041505,528.133924 937.04,529.25 C937.152732,530.43252 936.840773,531.616547 936.16,532.59 C935.16,533.75 933.46,533.87 931.94,533.9 C932.245033,534.279632 932.372607,534.771853 932.290375,535.251857 C932.208144,535.731861 931.924003,536.153549 931.51,536.41 C930.640254,536.874961 929.650445,537.066649 928.67,536.96 C924.9,536.96 920.88,536.82 917.74,534.72 C916.5,533.9 915.46,532.8 914.22,531.97 C911.22,529.97 907.35,529.86 903.83,530.03 C900.66,530.19 898.14,532.83 895.11,533.85 Z" id="Path" fill="#6C63FF" fill-rule="nonzero"></path>
            <path d="M894.42,533.01 C894.42,533.01 862.94,537.4 858.55,556.44 L865.14,555.44 L869.77,563.74 C869.77,563.74 874.65,545.19 889.05,540.8 C903.45,536.41 908.57,535.68 908.57,535.68 C908.57,535.68 918.57,538.12 927.57,567.15 L932.7,560.08 L941.7,562.08 C941.7,562.08 935.11,539.39 917.3,533.08 L894.42,533.01 Z" id="Path" fill="#6C63FF" fill-rule="nonzero"></path>
            <path d="M831.08,165.93 C829.96,159.23 809.18,144.73 809.18,144.73 C809.18,144.73 800.01,139.73 795.18,133.94 C792.07,130.26 791.1,130.3 790.81,130.8 C790.605289,130.669427 790.371941,130.5905 790.13,130.57 C789.94,130.43 789.75,130.3 789.57,130.15 L789.57,130.15 C789.636171,129.574958 789.325625,129.022427 788.8,128.78 C788.554104,128.62684 788.31706,128.459907 788.09,128.28 C786.51,125.6 785.95,121.78 785.76,118.46 C785.53,114.26 780.76,115.32 779.25,115.78 C778.15,113.69 777.07,111.5 776.06,109.32 C776.486857,108.609733 776.835556,107.855337 777.1,107.07 C780,100.67 779.36,93.34 780.62,86.58 C781.53,81.68 783.41,76.58 783.04,71.81 C783.04,71.69 783.04,71.57 783.04,71.46 C783.044856,71.4830807 783.044856,71.5069193 783.04,71.53 C782.935689,70.3385636 782.666452,69.167381 782.24,68.05 C781.41,65.9 779.95,64.05 779.24,61.82 C778.19,58.6 778.86,55.04 777.99,51.76 C776.9,47.62 773.45,44.41 769.55,42.58 C765.65,40.75 761.33,40.12 757.06,39.58 C746.38,38.22 735.06,37.41 725.31,41.97 C724.407308,42.5196368 723.36666,42.8006117 722.31,42.78 C721.344811,42.5119838 720.431927,42.0825902 719.61,41.51 C716.99,40.19 713.7,41.03 711.37,42.8 C709.04,44.57 707.45,47.1 705.89,49.56 C704.33,52.02 702.66,54.56 700.24,56.17 C697.39,58.1 693.63,58.75 691.41,61.36 C690.398001,62.595523 689.759665,64.0942238 689.57,65.68 C689.574856,65.6569193 689.574856,65.6330807 689.57,65.61 C689.57,65.8 689.57,65.99 689.57,66.18 C689.57,66.37 689.57,66.49 689.57,66.64 C689.57,66.79 689.57,66.89 689.57,67.02 C689.545042,67.4429655 689.545042,67.8670345 689.57,68.29 C689.881003,70.7302738 690.516626,73.1180616 691.46,75.39 C691.911275,77.0783253 692.801424,78.6171088 694.04,79.85 C697.46,82.69 702.86,80.01 707.04,81.59 C707.38184,81.72789 707.715695,81.884802 708.04,82.06 L707.89,82.54 C704.906029,92.8517857 706.967177,103.967127 713.449915,112.523476 C719.932654,121.079825 730.075464,126.072075 740.81,125.99 C741.51,125.99 742.21,125.99 742.91,125.91 C743.01,126.28 743.12,126.65 743.21,127.02 C744.26614,131.171971 744.60435,135.473997 744.21,139.74 L744,137.89 C743.542489,137.665468 743.067616,137.478194 742.58,137.33 C741.211034,136.871448 739.773444,136.651582 738.33,136.68 C733.68,136.61 726.67,138.52 719.2,147.74 C719.2,147.74 709.66,153.14 706.85,154.44 C706.622018,154.585189 706.441311,154.793696 706.33,155.04 L706.33,155.04 C706.33,155.04 693.71,174.67 692.4,182.07 L692.22,183.07 L670.82,182.07 C670.671499,176.743119 669.44694,171.501328 667.22,166.66 C666.845396,165.625614 666.169728,164.727045 665.28,164.08 C663.85,163.21 661.99,163.68 660.41,164.27 C653.296783,166.907823 646.935706,171.243516 641.88,176.9 C639.823414,171.89841 634.920241,168.660646 629.512825,168.73345 C624.105409,168.806255 619.291184,172.174854 617.37,177.23 L609.04,170.23 C605.25,167.02 600.77,163.6 595.84,164.35 C590.5,165.17 587.17,170.54 585.45,175.63 C585.247963,176.443787 584.872764,177.204419 584.35,177.86 C584.251259,177.951999 584.147785,178.038784 584.04,178.12 L577.48,177.82 L566.04,190.12 L559.71,196.93 L542.23,215.73 L541.86,216.12 L541.86,234.9 C541.351657,236.26176 540.930801,237.654594 540.6,239.07 L541.86,238.88 L541.86,246.14 L546.68,246.39 L546.68,332.96 L601.37,336.55 L624.94,338.07 L666.59,340.8 C666.59,344.73 668.23,350.25 671.72,352.42 C672.593557,352.981089 673.370312,353.680168 674.02,354.49 C673.84,354.84 673.66,355.2 673.49,355.56 C671.82,359.01 670.34,362.86 670.6,365.25 C670.945428,368.277395 670.239277,371.331496 668.6,373.9 C668.6,373.9 656,413.65 656.28,425.07 C656.56,436.49 651.79,461.6 651.79,461.6 C651.79,461.6 646.59,477.78 649.68,482.38 C652.77,486.98 656.28,507.07 656.28,507.07 C656.28,507.07 658.67,511.67 658.52,515.58 C658.37,519.49 660.77,526.58 660.77,526.58 L668.63,555.45 C668.63,555.45 667.79,563.12 670.74,568.56 C673.69,574 673.4,572.32 672,581.81 C670.6,591.3 673.68,600.08 678.74,602.87 C680.74,603.95 680.8,605.6 680.19,607.21 L680.14,607.21 C678.85,606.7 677.78,609.41 677.14,611.6 C676.75,612 676.49,612.23 676.49,612.23 L676.93,612.34 C676.65,613.39 676.49,614.18 676.49,614.18 C676.49,614.18 663.3,625.34 662.49,629.38 C661.68,633.42 652.38,635.52 652.38,635.52 C652.38,635.52 638.38,639.42 634.69,641.38 C632.536697,642.375259 631.066392,644.430647 630.82,646.79 C630.654326,648.625262 630.823748,650.475354 631.32,652.25 C632.73,657.97 652.38,658.53 661.78,657 C671.18,655.47 690.7,649.88 690.7,649.88 C690.7,649.88 711.19,647.88 717.23,645.42 C723.27,642.96 718.49,636.5 718.49,636.5 C718.49,636.5 718.49,636.28 718.49,635.89 C718.64,633.56 719.06,625.1 717.61,622.83 C716.51,621.11 716.55,616.83 716.7,614.1 C720.8,606.6 711.99,584.1 711.99,584.1 C711.99,584.1 713.68,562.1 712.55,558.86 C711.42,555.62 706.66,528.32 706.66,528.32 C706.66,528.32 703.71,515.9 704.83,513.81 C705.95,511.72 704.13,505.72 704.13,505.72 C704.13,505.72 699.36,499.03 699.78,496.94 C700.2,494.85 698.38,491.08 698.38,491.08 C698.38,491.08 712.7,469.32 711.43,465.28 C710.16,461.24 711.99,454.68 711.99,454.68 L715.99,447.91 C718.65,443.39 721.87,437.96 722.99,436.27 C724.37,434.12 727.69,424.97 729.54,419.69 C730.32,417.45 730.85,415.91 730.85,415.91 C730.85,415.91 733.1,456.91 735.06,461.1 C737.02,465.29 739.98,498.33 739.98,498.33 C741.064575,501.273766 741.540842,504.40692 741.38,507.54 C741.1,512.7 745.87,535.15 745.87,535.15 C745.87,535.15 747.98,551.05 746.57,555.23 C745.16,559.41 746.29,590.23 746.29,590.23 C746.29,590.23 738.57,596.23 736.61,600.82 C734.65,605.41 736.89,617.98 736.89,617.98 L737.79,618.41 C737.062516,620.15359 736.526053,621.970858 736.19,623.83 C735.91,626.48 731.69,638.48 732.12,640.15 C732.55,641.82 730.29,646.98 730.01,649.63 C729.73,652.28 726.22,656.19 725.94,657.63 C725.496177,658.88609 724.97861,660.114893 724.39,661.31 C723.629155,663.146996 723.020443,665.043369 722.57,666.98 C721.17,672.83 737.87,673.81 737.87,673.81 C762.57,678.41 767.07,659.59 767.07,659.59 C767.07,659.59 770.15,642.85 771.28,641.59 C771.55572,641.103853 771.624197,640.5272 771.47,639.99 L771.47,639.99 C770.822391,637.148567 769.611888,634.465738 767.91,632.1 C767.12,631.18 767.06,628.78 767.2,626.64 C767.91412,626.577283 768.620643,626.446693 769.31,626.25 C779.31,623.32 775.21,606.44 775.21,606.44 C775.21,606.44 781.94,595.29 781.94,590.96 C781.94,586.63 784.33,573.39 784.33,573.39 C792.89,557.77 789.52,519.84 790.93,516.77 C792.34,513.7 787.98,502.27 784.47,497.11 C780.96,491.95 782.37,478 784.47,473.96 C786.57,469.92 782.37,455.96 782.37,455.96 C782.37,455.96 786.44,428.9 786.3,424.72 C786.16,420.54 789.8,408.12 789.8,408.12 C789.8,408.12 793.45,401.71 792.61,399.76 C791.77,397.81 795.42,392.76 794.44,390.55 C793.46,388.34 795.28,381.49 797.1,377.44 C798.04,375.37 799.2,369.66 800.1,364.59 L800.4,362.92 C804.49,365.55 808.21,367.51 809.6,366.98 C812.1,365.98 808.12,352.98 805.38,344.86 C805.85,344.51 806.04,344.24 805.85,344.11 C804.17,343 806.04,337.97 806.04,337.97 C815.96,331.97 812.59,327.56 809.41,324.97 C806.23,322.38 808.29,314.97 807.35,311.97 C806.41,308.97 808.47,295.42 810.16,285.57 C810.50654,283.425497 810.486251,281.237707 810.1,279.1 C811.91,276.32 813.77,273.4 815.4,270.69 C821.01,261.4 832.99,217.14 832.99,217.14 L832.91,216.91 C834.08,214.56 834.91,212.65 835.42,211.38 C838.94,201.63 832.2,172.62 831.08,165.93 Z M743.85,140.45 L744.11,140.32 C744.11,140.4 744.11,140.47 744.11,140.54 L743.85,140.45 Z M689.4,615.16 C688.788876,615.167368 688.182838,615.048203 687.62,614.81 L689.4,615.16 Z" id="Shape" fill="url(#linearGradient-1)" fill-rule="nonzero"></path>
            <path d="M580.56,293.36 C588.78,296.48 607.92,296.83 616.42,296.82 C619,296.82 620.6,296.82 620.6,296.82 L626.05,285.73 L620.6,276.48 C620.6,276.48 615.6,275.11 608.96,273.91 C599.16,272.14 585.75,270.76 579.36,274.73 C568.64,281.35 569.84,289.29 580.56,293.36 Z" id="Path" fill="#FEC2BE" fill-rule="nonzero"></path>
            <path d="M616.42,296.82 C619,296.82 620.6,296.82 620.6,296.82 L626.05,285.73 L620.6,276.48 C620.6,276.48 615.6,275.11 608.96,273.91 C614.35,277.85 627.31,286.44 616.42,296.82 Z" id="Path" fill="#000000" fill-rule="nonzero" opacity="0.1"></path>
            <path d="M706.68,160.59 L704.27,157.82 C704.27,157.82 691.88,177.42 690.59,184.82 C689.3,192.22 687.59,200.73 687.59,200.73 C687.59,200.73 684.5,210.33 682.5,214.59 C680.5,218.85 678.62,222.91 678.44,224.76 C678.26,226.61 679.18,230.68 675.29,233.26 C671.4,235.84 670.48,242.88 670.48,242.88 C670.48,242.88 656.48,256.56 649.03,256.93 C641.58,257.3 620.37,261 621.11,264.7 C621.85,268.4 612.23,270.62 608.35,271.54 C604.47,272.46 633.35,283.54 616.49,297.8 C616.49,297.8 627.21,300.02 628.32,302.61 C629.43,305.2 640.71,301.13 640.71,301.13 C640.71,301.13 643.12,295.4 651.44,295.03 C659.76,294.66 664.01,290.96 664.01,290.4 C664.01,289.84 672.33,285.23 676.96,283.93 C681.59,282.63 687.68,282.08 687.87,280.79 C688.06,279.5 715.6,160.59 715.6,160.59 L706.68,160.59 Z" id="Path" fill="#4C4981" fill-rule="nonzero"></path>
            <path d="M706.68,160.59 L704.27,157.82 C704.27,157.82 691.88,177.42 690.59,184.82 C689.3,192.22 687.59,200.73 687.59,200.73 C687.59,200.73 684.5,210.33 682.5,214.59 C680.5,218.85 678.62,222.91 678.44,224.76 C678.26,226.61 679.18,230.68 675.29,233.26 C671.4,235.84 670.48,242.88 670.48,242.88 C670.48,242.88 656.48,256.56 649.03,256.93 C641.58,257.3 620.37,261 621.11,264.7 C621.85,268.4 612.23,270.62 608.35,271.54 C604.47,272.46 633.35,283.54 616.49,297.8 C616.49,297.8 627.21,300.02 628.32,302.61 C629.43,305.2 640.71,301.13 640.71,301.13 C640.71,301.13 643.12,295.4 651.44,295.03 C659.76,294.66 664.01,290.96 664.01,290.4 C664.01,289.84 672.33,285.23 676.96,283.93 C681.59,282.63 687.68,282.08 687.87,280.79 C688.06,279.5 715.6,160.59 715.6,160.59 L706.68,160.59 Z" id="Path" fill="#000000" fill-rule="nonzero" opacity="0.05"></path>
            <path d="M735.5,673.74 C759.91,678.32 764.35,659.6 764.35,659.6 C764.35,659.6 767.35,642.96 768.51,641.71 C768.786273,641.227676 768.854845,640.653841 768.7,640.12 L768.7,640.12 C768.061317,637.29805 766.864495,634.632402 765.18,632.28 C763.65,630.47 764.9,622.98 764.9,622.98 L736.61,615.77 C736.61,615.77 734.11,621.46 733.84,624.09 C733.57,626.72 729.4,638.66 729.84,640.32 C730.28,641.98 728.04,647.12 727.76,649.75 C727.48,652.38 724.02,656.27 723.76,657.66 C723.321305,658.905343 722.810439,660.124073 722.23,661.31 C721.475012,663.136969 720.872946,665.023443 720.43,666.95 C718.98,672.77 735.5,673.74 735.5,673.74 Z" id="Path" fill="#CA8496" fill-rule="nonzero"></path>
            <path d="M735.5,673.74 C759.91,678.32 764.35,659.6 764.35,659.6 C764.35,659.6 767.35,642.96 768.51,641.71 C768.786273,641.227676 768.854845,640.653841 768.7,640.12 L762.82,656.96 C762.82,656.96 757.97,667.09 739.94,665.56 C729.68,664.7 724.63,662.79 722.18,661.31 C721.425012,663.136969 720.822946,665.023443 720.38,666.95 C718.98,672.77 735.5,673.74 735.5,673.74 Z" id="Path" fill="#000000" fill-rule="nonzero" opacity="0.1"></path>
            <path d="M754.5,647.39 C754.5,647.39 748.4,647.53 747.98,642.54 L754.5,647.39 Z" id="Path" fill="#000000" fill-rule="nonzero" opacity="0.1"></path>
            <path d="M648.38,483.46 C651.38,488.04 654.9,508.01 654.9,508.01 C654.9,508.01 657.26,512.59 657.12,516.47 C656.98,520.35 659.34,527.47 659.34,527.47 L667.11,556.18 C667.11,556.18 666.27,563.8 669.19,569.18 C672.11,574.56 671.82,572.93 670.43,582.36 C669.04,591.79 672.1,600.53 677.09,603.3 C682.08,606.07 674.87,612.59 674.87,612.59 C674.87,612.59 706.77,621.19 713.43,615.92 C720.09,610.65 709.96,584.58 709.96,584.58 C709.96,584.58 711.62,562.66 710.52,559.47 C709.42,556.28 704.69,529.07 704.69,529.07 C704.69,529.07 701.78,516.73 702.89,514.65 C704,512.57 702.19,506.6 702.19,506.6 C702.19,506.6 697.48,499.95 697.89,497.87 C698.3,495.79 696.5,492.07 696.5,492.07 C696.5,492.07 710.64,470.43 709.4,466.41 C708.16,462.39 709.95,455.87 709.95,455.87 C709.95,455.87 711.74,452.8 713.89,449.14 C716.52,444.64 719.7,439.25 720.77,437.57 C722.13,435.42 725.41,426.32 727.24,421.08 L728.54,417.32 C728.54,417.32 730.75,458.09 732.7,462.25 C734.65,466.41 737.55,499.25 737.55,499.25 C738.623427,502.179094 739.096153,505.294321 738.94,508.41 C738.66,513.54 743.38,535.87 743.38,535.87 C743.38,535.87 745.46,551.68 744.07,555.87 C742.68,560.06 743.79,590.68 743.79,590.68 C743.79,590.68 736.16,596.68 734.22,601.22 C732.28,605.76 734.5,618.28 734.5,618.28 C734.5,618.28 756.69,629.37 766.5,626.46 C776.31,623.55 772.32,606.77 772.32,606.77 C772.32,606.77 778.98,595.67 778.98,591.37 C778.98,587.07 781.34,573.9 781.34,573.9 C789.8,558.36 786.47,520.64 787.85,517.59 C789.23,514.54 784.99,503.16 781.5,498.07 C778.01,492.98 779.42,479.07 781.5,475.07 C783.58,471.07 779.44,457.07 779.44,457.07 C779.44,457.07 783.44,430.16 783.33,426 C783.22,421.84 786.8,409.5 786.8,409.5 C786.8,409.5 790.4,403.12 789.57,401.18 C788.74,399.24 792.34,394.24 791.37,392.02 C790.4,389.8 792.2,383.02 794.01,379.02 C794.93,376.95 796.08,371.28 797.01,366.24 C797.86,361.45 798.49,357.24 798.49,357.24 L775.6,338.8 L718.46,323.8 L696.96,316.86 L676.02,349.86 C676.02,349.86 673.86,353.31 671.94,357.29 C670.3,360.72 668.83,364.55 669.09,366.92 C669.439069,369.923814 668.754849,372.956954 667.15,375.52 C667.15,375.52 654.62,415.07 654.9,426.46 C655.18,437.85 650.5,462.8 650.5,462.8 C650.5,462.8 645.33,478.88 648.38,483.46 Z" id="Path" fill="#4C4981" fill-rule="nonzero"></path>
            <polygon id="Path" fill="#6C63FF" fill-rule="nonzero" points="708.11 209.76 708.11 296.31 685.23 342.47 685.23 342.47 684.5 343.93 623.93 339.93 600.65 338.39 546.61 334.82 546.61 231.29 600.65 232.82 624.82 233.5 685.95 235.23"></polygon>
            <polygon id="Path" fill="#000000" fill-rule="nonzero" opacity="0.1" points="708.11 214.87 708.11 296.31 702.52 307.58 702.52 307.59 696.78 319.14 696.78 319.15 685.23 342.47 686.52 255.92 686.78 238.46 697.77 226.3 697.77 226.3 702.56 221"></polygon>
            <polygon id="Path" fill="#6C63FF" fill-rule="nonzero" points="711.21 186.78 711.21 217.01 708.11 221.96 702.56 230.8 697.64 238.63 686.78 255.93 686.52 255.92 541.85 248.48 541.85 218.66 542.21 218.27 559.48 199.57 565.74 192.81 577.04 180.57"></polygon>
            <polygon id="Path" fill="#000000" fill-rule="nonzero" opacity="0.1" points="686.78 226.12 686.78 255.93 541.85 248.48 541.85 218.66 542.21 218.27"></polygon>
            <polygon id="Path" fill="#000000" fill-rule="nonzero" opacity="0.15" points="711.21 186.78 711.21 217.01 686.78 255.93 686.78 226.12"></polygon>
            <polygon id="Path" fill="#3F3D56" fill-rule="nonzero" points="702.58 200.69 702.56 221 702.56 230.8 702.52 307.58 702.52 307.59 696.78 319.14 697.64 238.63 697.77 226.3 697.77 226.3 697.97 208.11 559.48 199.57 565.74 192.81"></polygon>
            <polygon id="Path" fill="#3F3D56" fill-rule="nonzero" points="634.61 201.69 624.9 222.76 624.82 233.5 623.93 339.93 600.65 338.39 600.65 221.35 613.07 201.69"></polygon>
            <path d="M602.65,203.07 C597.045,204.933882 591.022061,205.14564 585.3,203.68 C584.202392,203.454383 583.174131,202.971101 582.3,202.27 C581.350851,201.217296 580.701603,199.929162 580.42,198.54 C579.409761,195.66667 578.849814,192.654428 578.76,189.61 C578.83,186.61 579.99,183.39 582.47,181.61 C582.977054,181.308852 583.449837,180.953427 583.88,180.55 C584.401231,179.902325 584.773383,179.147778 584.97,178.34 C586.67,173.28 589.97,167.93 595.23,167.12 C600.1,166.38 604.53,169.78 608.28,172.97 L616.51,179.97 C618.388467,174.953777 623.151343,171.603219 628.507256,171.530244 C633.863168,171.457269 638.715562,174.676819 640.73,179.64 C645.71455,174.019186 652.001503,169.706563 659.04,167.08 C660.6,166.5 662.43,166.02 663.85,166.89 C664.727035,167.538707 665.391776,168.433149 665.76,169.46 C668.002756,174.361669 669.217725,179.670778 669.33,185.06 C670.513888,184.657384 671.819967,185.110597 672.5,186.16 C673.140103,187.197875 673.504933,188.381853 673.56,189.6 C673.780119,191.481979 673.890306,193.375192 673.89,195.27 C673.89,197.27 673.7,199.42 672.4,200.94 C670.72,202.89 667.82,203.1 665.24,203.16 C666.48,204.26 665.87,206.48 664.5,207.42 C663.023432,208.207708 661.343634,208.531819 659.68,208.35 C653.28,208.29 646.47,208.11 641.14,204.55 C639.04,203.15 637.28,201.28 635.14,199.88 C629.97,196.46 623.48,196.3 617.5,196.58 C612.08,196.9 607.79,201.39 602.65,203.07 Z" id="Path" fill="#3F3D56" fill-rule="nonzero"></path>
            <path d="M601.5,201.69 C601.5,201.69 548.08,209.14 540.62,241.44 L551.81,239.79 L559.67,253.87 C559.67,253.87 567.96,222.39 592.39,214.94 C616.82,207.49 625.51,206.24 625.51,206.24 C625.51,206.24 642.51,210.39 657.81,259.66 L666.51,247.66 L681.83,250.98 C681.83,250.98 670.65,212.47 640.42,201.7 L601.5,201.69 Z" id="Path" fill="#3F3D56" fill-rule="nonzero"></path>
            <path d="M732.87,161.97 C733.75,161.61 794.08,136.7 785.77,131.74 C780.84,128.8 774.77,116.35 770.61,106.6 C767.71,99.78 765.74,94.3 765.74,94.3 C765.74,94.3 717.32,85.7 734.65,115.38 C737.383308,119.932041 739.441429,124.856712 740.76,130 C745.7,150.21 733.27,161.6 732.87,161.97 Z" id="Path" fill="#FEC2BE" fill-rule="nonzero"></path>
            <path d="M734.65,115.38 C737.383308,119.932041 739.441429,124.856712 740.76,130 C753.280038,129.120294 764.284844,121.383442 769.35,109.9 C769.830438,108.824038 770.251079,107.72236 770.61,106.6 C767.71,99.78 765.74,94.3 765.74,94.3 C765.74,94.3 717.32,85.7 734.65,115.38 Z" id="Path" fill="#000000" fill-rule="nonzero" opacity="0.1"></path>
            <path d="M704.55,95.13 C704.550491,111.128755 715.755143,124.94119 731.40985,128.241241 C747.064556,131.541292 762.891382,123.427159 769.35,108.79 C771.25862,104.489438 772.239924,99.8350574 772.23,95.13 C772.23,76.4406841 757.079316,61.29 738.39,61.29 C719.700684,61.29 704.55,76.4406841 704.55,95.13 L704.55,95.13 Z" id="Path" fill="#FEC2BE" fill-rule="nonzero"></path>
            <path d="M671.9,357.33 C675.45,360.55 676.81,366.68 676.81,366.68 C676.81,366.68 693.5,378.07 692.35,370.84 C691.2,363.61 700.95,334.51 700.95,334.51 L699.84,374.17 C699.84,374.17 753.09,371.68 756.98,367.79 C760.87,363.9 783.61,356.42 783.61,356.42 C783.61,356.42 790.61,362.01 796.97,366.25 C797.82,361.46 798.45,357.25 798.45,357.25 L775.56,338.81 L718.42,323.81 L696.92,316.87 L675.98,349.87 C675.98,349.87 673.82,353.35 671.9,357.33 Z" id="Path" fill="#000000" fill-rule="nonzero" opacity="0.1"></path>
            <path d="M670.16,354.2 C674.59,356.98 676.26,364.47 676.26,364.47 C676.26,364.47 692.9,375.84 691.79,368.63 C690.68,361.42 700.39,332.29 700.39,332.29 L699.28,371.95 C699.28,371.95 752.54,369.46 756.42,365.57 C760.3,361.68 783.05,354.2 783.05,354.2 C783.05,354.2 802.74,370.01 806.35,368.63 C809.96,367.25 799.97,340.33 799.97,340.33 L789.71,182.78 C789.71,182.78 792.48,135.9 788.32,134.24 C787.678145,133.98036 787.086073,133.611584 786.57,133.15 C783.83,130.68 783.01,125.68 782.77,121.48 C782.5,116.48 775.84,118.98 775.84,118.98 L779.72,123.98 L745.35,144.87 L745.05,145.06 C743.710829,144.354031 742.331848,143.72631 740.92,143.18 C737.92,142.01 733.83,140.91 731.18,142.01 C729.699,142.759157 728.443022,143.887467 727.54,145.28 C725.578583,148.229027 724.005614,151.418659 722.86,154.77 L710.38,175.85 C710.38,175.85 704,203.85 704,204.97 C704,206.09 702.06,231.6 699.84,234.37 C697.62,237.14 695.4,251.02 696.23,255.18 C697.06,259.34 694.84,274.87 694.84,274.87 C685.69,282.36 680.97,307.87 680.97,307.87 C680.97,307.87 666.55,336.44 665.44,339.77 C664.33,343.1 665.72,351.43 670.16,354.2 Z" id="Path" fill="#FFFFFF" fill-rule="nonzero"></path>
            <path d="M745.35,145.98 C748.72,150.98 758.46,157.98 758.46,157.98 L786.57,134.24 C783.83,131.77 783.01,126.77 782.77,122.57 C782.5,117.57 775.84,120.07 775.84,120.07 L776.64,121.07 C777.421791,122.075159 777.737772,123.36604 777.508635,124.618653 C777.279499,125.871266 776.526999,126.966693 775.44,127.63 L745.35,145.98 Z" id="Path" fill="#000000" fill-rule="nonzero" opacity="0.1"></path>
            <path d="M745.35,144.87 C748.72,149.87 758.46,156.87 758.46,156.87 L786.57,133.13 C783.83,130.66 783.01,125.66 782.77,121.46 C782.5,116.46 775.84,118.96 775.84,118.96 L776.64,119.96 C777.421791,120.965159 777.737772,122.25604 777.508635,123.508653 C777.279499,124.761266 776.526999,125.856693 775.44,126.52 L745.35,144.87 Z" id="Path" fill="#FFFFFF" fill-rule="nonzero"></path>
            <path d="M732.35,148.61 C735.98,152.96 741.13,157.88 740.89,155.41 C740.65,152.94 743.96,147.5 746.07,145.06 C742.775463,144.01233 739.223728,144.107466 735.99,145.33 C734.510736,146.086243 733.255657,147.217193 732.35,148.61 L732.35,148.61 Z" id="Path" fill="#000000" fill-rule="nonzero" opacity="0.1"></path>
            <path d="M731.79,146.95 C735.43,151.29 740.57,156.22 740.33,153.75 C740.09,151.28 743.06,147.29 745.17,144.85 C742.17,143.68 738.09,142.58 735.43,143.67 C733.946394,144.419921 732.68982,145.552218 731.79,146.95 L731.79,146.95 Z" id="Path" fill="#FFFFFF" fill-rule="nonzero"></path>
            <circle id="Oval" fill="#FF718D" fill-rule="nonzero" cx="740.89" cy="167.8" r="2.22"></circle>
            <circle id="Oval" fill="#FF718D" fill-rule="nonzero" cx="724.06" cy="227.71" r="2.22"></circle>
            <circle id="Oval" fill="#FF718D" fill-rule="nonzero" cx="705.01" cy="288.37" r="2.22"></circle>
            <circle id="Oval" fill="#FF718D" fill-rule="nonzero" cx="704.46" cy="354.38" r="2.22"></circle>
            <circle id="Oval" fill="#FF718D" fill-rule="nonzero" cx="731.09" cy="196.09" r="2.22"></circle>
            <circle id="Oval" fill="#FF718D" fill-rule="nonzero" cx="716.11" cy="257.67" r="2.22"></circle>
            <circle id="Oval" fill="#FF718D" fill-rule="nonzero" cx="701.5" cy="318.14" r="2.22"></circle>
            <circle id="Oval" fill="#FF718D" fill-rule="nonzero" cx="704.83" cy="361.78" r="2.22"></circle>
            <path d="M786.56,134.52 C786.56,134.52 786.19,131.19 791,136.92 C795.81,142.65 804.87,147.65 804.87,147.65 C804.87,147.65 825.4,162.07 826.5,168.73 C827.6,175.39 834.26,204.23 830.75,213.85 C827.24,223.47 800.42,269.51 800.42,269.51 C800.42,269.51 807.42,277.83 805.79,287.63 C804.16,297.43 802.09,310.93 803.01,313.89 C803.93,316.85 801.9,324.24 805.01,326.83 C808.12,329.42 811.48,333.83 801.68,339.78 C801.68,339.78 799.83,344.78 801.49,345.88 C803.15,346.98 776.9,358.46 766.54,352.35 C756.18,346.24 737.54,297.43 737.14,286.52 C736.74,275.61 742.87,239.52 746.2,231.04 C749.53,222.56 759.52,189.44 763.77,182.04 C768.02,174.64 786.56,134.52 786.56,134.52 Z" id="Path" fill="#000000" fill-rule="nonzero" opacity="0.1"></path>
            <path d="M787.67,134.52 C787.67,134.52 787.3,131.19 792.11,136.92 C796.92,142.65 805.98,147.65 805.98,147.65 C805.98,147.65 826.5,162.07 827.62,168.73 C828.74,175.39 835.38,204.23 831.87,213.85 C828.36,223.47 801.5,269.51 801.5,269.51 C801.5,269.51 808.5,277.83 806.87,287.63 C805.24,297.43 803.17,310.93 804.09,313.89 C805.01,316.85 802.98,324.24 806.09,326.83 C809.2,329.42 812.56,333.83 802.76,339.78 C802.76,339.78 800.91,344.78 802.57,345.88 C804.23,346.98 777.98,358.46 767.62,352.35 C757.26,346.24 738.62,297.43 738.22,286.52 C737.82,275.61 743.95,239.52 747.28,231.04 C750.61,222.56 760.6,189.44 764.85,182.04 C769.1,174.64 787.67,134.52 787.67,134.52 Z" id="Path" fill="#4C4981" fill-rule="nonzero"></path>
            <path d="M795.07,165.95 C795.07,165.95 779.17,183.52 779.72,195.17 C779.72,195.17 779.5,176.31 795.07,165.95 Z" id="Path" fill="#000000" fill-rule="nonzero" opacity="0.1"></path>
            <path d="M773.06,194.8 C773.06,195.36 762.34,235.3 762.89,240.29 C763.44,245.28 759.75,260.07 759.75,260.07 L754.75,258.77 C754.75,258.77 758.63,238.25 759.37,230.67 C760.11,223.09 773.06,194.8 773.06,194.8 Z" id="Path" fill="#000000" fill-rule="nonzero" opacity="0.1"></path>
            <path d="M768.81,308.71 C769.18,309.27 794.15,337.56 787.12,339.59 C780.09,341.62 768.81,308.71 768.81,308.71 Z" id="Path" fill="#000000" fill-rule="nonzero" opacity="0.1"></path>
            <path d="M789.34,301.5 C789.89,301.87 799.34,321.84 800.43,316.5 C801.52,311.16 792.3,331.11 790.82,316.31 L789.34,301.5 Z" id="Path" fill="#000000" fill-rule="nonzero" opacity="0.1"></path>
            <path d="M741.4,140.8 C741.4,140.8 731.09,134.52 718.14,150.6 C718.14,150.6 708.71,155.97 705.94,157.26 C703.17,158.55 700.02,192.95 700.02,192.95 C700.02,192.95 693.92,207.74 695.58,216.25 C697.24,224.76 690.78,253.98 690.78,253.98 C690.78,253.98 680.05,306.49 680.42,307.98 C680.79,309.47 691.33,291.52 691.14,282.65 C690.95,273.78 700.02,246.03 701.32,244.37 C702.62,242.71 711.5,195.17 711.5,195.17 C711.5,195.17 718.71,175.01 723.33,168.36 C727.95,161.71 733.69,149.13 736.09,146.91 C737.815904,145.41255 739.745029,144.166868 741.82,143.21 L741.4,140.8 Z" id="Path" fill="#000000" fill-rule="nonzero" opacity="0.1"></path>
            <path d="M741.5,140.8 C741.5,140.8 729.94,134.52 716.99,150.6 C716.99,150.6 707.56,155.97 704.79,157.26 C702.02,158.55 698.87,192.95 698.87,192.95 C698.87,192.95 692.77,207.74 694.43,216.25 C696.09,224.76 689.63,253.98 689.63,253.98 C689.63,253.98 678.9,306.49 679.27,307.98 C679.64,309.47 690.18,291.52 690,282.65 C689.82,273.78 698.87,246.03 700.17,244.37 C701.47,242.71 710.34,195.18 710.34,195.18 C710.34,195.18 717.55,175.02 722.17,168.37 C726.79,161.72 732.53,149.14 734.93,146.92 C737.33,144.7 741.77,143.22 741.77,143.22 L741.5,140.8 Z" id="Path" fill="#4C4981" fill-rule="nonzero"></path>
            <path d="M690.78,256.38 C690.78,256.38 668.78,241.96 658.14,249.07 C647.5,256.18 630.14,266.27 647.23,273.58 C664.32,280.89 688,279.49 688,279.49 L690.78,256.38 Z" id="Path" fill="#FEC2BE" fill-rule="nonzero"></path>
            <path d="M706.08,395.53 C709.36,402.53 712.08,437.92 713.9,449.13 C716.53,444.63 719.71,439.24 720.78,437.56 C722.14,435.41 725.42,426.31 727.25,421.07 C725.16,415.99 719.39,401.43 719.39,396.07 C719.39,389.55 708.85,381.37 708.85,381.37 C708.85,381.37 702.19,387.21 706.08,395.53 Z" id="Path" fill="#000000" fill-rule="nonzero" opacity="0.1"></path>
            <path d="M776.81,504.13 C776.81,504.13 752.4,493.72 745.19,501.13 C737.98,508.54 776.81,504.13 776.81,504.13 Z" id="Path" fill="#000000" fill-rule="nonzero" opacity="0.1"></path>
            <path d="M763.08,508.29 C763.08,508.29 787.77,522.16 779.31,524.51 C770.85,526.86 763.08,508.29 763.08,508.29 Z" id="Path" fill="#000000" fill-rule="nonzero" opacity="0.1"></path>
            <path d="M689.3,496.22 C689.3,496.22 699.84,496.91 695.81,498.99 C691.78,501.07 689.3,496.22 689.3,496.22 Z" id="Path" fill="#000000" fill-rule="nonzero" opacity="0.1"></path>
            <path d="M676.12,499.41 C676.26,500.1 706.77,509.95 700.81,514.41 C694.85,518.87 676.12,499.41 676.12,499.41 Z" id="Path" fill="#000000" fill-rule="nonzero" opacity="0.1"></path>
            <path d="M773.2,584.29 C768.63,583.6 743.11,571.81 753.09,580.29 C763.07,588.77 773.2,584.29 773.2,584.29 Z" id="Path" fill="#000000" fill-rule="nonzero" opacity="0.1"></path>
            <path d="M760.58,593.58 C760.58,593.58 758.36,602.18 749.9,601.07 C741.44,599.96 760.58,593.58 760.58,593.58 Z" id="Path" fill="#000000" fill-rule="nonzero" opacity="0.1"></path>
            <path d="M767.66,611.07 C766.13,610.65 747.96,602.33 747.55,606.21 C747.14,610.09 764.88,616.89 766.27,614.81 C767.066114,613.713627 767.546828,612.420194 767.66,611.07 L767.66,611.07 Z" id="Path" fill="#000000" fill-rule="nonzero" opacity="0.1"></path>
            <path d="M708.85,601.07 C706.63,600.93 685.85,594.28 681.67,600.24 L708.85,601.07 Z" id="Path" fill="#000000" fill-rule="nonzero" opacity="0.1"></path>
            <path d="M689.99,604.95 C689.99,604.95 686.38,601.76 682.78,603.43 C679.18,605.1 689.99,604.95 689.99,604.95 Z" id="Path" fill="#000000" fill-rule="nonzero" opacity="0.1"></path>
            <path d="M736.03,639.35 C735.561844,641.758239 733.713498,643.661525 731.32,644.2 L736.03,639.35 Z" id="Path" fill="#000000" fill-rule="nonzero" opacity="0.1"></path>
            <path d="M630.21,652.39 C631.6,658.07 651.02,658.63 660.31,657.1 C669.6,655.57 688.88,650.07 688.88,650.07 C688.88,650.07 709.13,648.13 715.09,645.63 C721.05,643.13 716.34,636.75 716.34,636.75 C716.34,636.75 716.34,636.54 716.34,636.16 C716.48,633.84 716.9,625.43 715.47,623.16 C713.8,620.53 714.77,611.93 714.77,611.93 C714.77,611.93 686.07,617.48 685.51,614.84 C684.95,612.2 680.51,608.46 678.44,607.63 C676.37,606.8 674.83,614.56 674.83,614.56 C674.83,614.56 661.83,625.66 660.96,629.68 C660.09,633.7 650.96,635.78 650.96,635.78 C650.96,635.78 637.09,639.67 633.48,641.61 C631.350724,642.610614 629.89854,644.650498 629.65,646.99 C629.514131,648.808978 629.703767,650.63761 630.21,652.39 Z" id="Path" fill="#CA8496" fill-rule="nonzero"></path>
            <path d="M630.21,652.39 C631.6,658.07 651.02,658.63 660.31,657.1 C669.6,655.57 688.88,650.07 688.88,650.07 C688.88,650.07 709.13,648.13 715.09,645.63 C721.05,643.13 716.34,636.75 716.34,636.75 C716.34,636.75 716.34,636.54 716.34,636.16 L687.34,642.58 C687.34,642.58 673.06,648.68 663.91,648.68 C655.91,648.68 638.01,651.96 629.7,646.99 C629.547896,648.806004 629.720595,650.634583 630.21,652.39 Z" id="Path" fill="#000000" fill-rule="nonzero" opacity="0.1"></path>
            <path d="M669.5,630.47 C669.5,630.47 670.89,639.63 676.44,642.68 L669.5,630.47 Z" id="Path" fill="#000000" fill-rule="nonzero" opacity="0.1"></path>
            <path d="M705.87,85.76 C706.392919,86.0401636 706.942258,86.2679383 707.51,86.44 C710.12,87.14 712.66,85.39 714.97,83.99 C717.28,82.59 720.47,81.55 722.47,83.36 C725.08,85.73 723.19,90.8 725.88,93.08 C727.58,94.53 730.28,94.08 732.17,95.23 C734.06,96.38 734.63,99.02 735.11,101.28 C735.59,103.54 736.54,106.1 738.75,106.76 C740.96,107.42 743,105.97 745.17,106.05 C745.62,106.05 746.17,106.12 746.45,105.79 C746.649332,105.497487 746.724827,105.137986 746.66,104.79 C746.389417,102.102424 746.63033,99.3879162 747.37,96.79 C748.26,94.24 750.37,91.92 753,91.51 C756.9,90.91 760.17,94.33 762.46,97.51 C764.867326,100.888036 767.058375,104.41509 769.02,108.07 C769.1424,108.307535 769.252545,108.551188 769.35,108.8 C771.25862,104.499438 772.239924,99.8450574 772.23,95.14 C772.23537,78.2745339 759.821076,63.9796078 743.121262,61.6216021 C726.421448,59.2635964 710.53453,69.5624051 705.87,85.77 L705.87,85.76 Z" id="Path" fill="#000000" fill-rule="nonzero" opacity="0.1"></path>
            <path d="M762.5,96.95 C760.21,93.74 756.94,90.33 753.04,90.95 C750.37,91.36 748.3,93.67 747.41,96.22 C746.670087,98.8178948 746.432508,101.533082 746.71,104.22 C746.764716,104.570505 746.68235,104.92862 746.48,105.22 C746.18,105.55 745.66,105.5 745.21,105.48 C743.04,105.4 740.88,106.81 738.79,106.19 C736.7,105.57 735.63,102.97 735.15,100.71 C734.67,98.45 734.15,95.89 732.21,94.71 C730.27,93.53 727.62,94.01 725.92,92.56 C723.23,90.27 725.12,85.2 722.51,82.84 C720.51,81.02 717.32,82.06 715.01,83.46 C712.7,84.86 710.16,86.61 707.55,85.92 C706.67,85.68 705.88,85.17 705.02,84.84 C700.91,83.28 695.58,85.93 692.2,83.11 C690.971348,81.8846096 690.08822,80.3563848 689.64,78.68 C688.713486,76.4176028 688.08489,74.0443996 687.77,71.62 C687.470183,69.1657548 688.145213,66.6918424 689.65,64.73 C691.85,62.13 695.57,61.49 698.38,59.57 C700.77,57.94 702.38,55.44 703.96,52.99 C705.54,50.54 707.07,47.99 709.37,46.26 C711.67,44.53 714.93,43.68 717.51,44.99 C718.326103,45.5514557 719.227787,45.9769694 720.18,46.25 C721.236728,46.2711675 722.277528,45.9901513 723.18,45.44 C732.8,40.91 744,41.71 754.55,43.06 C758.77,43.6 763.05,44.24 766.9,46.06 C770.75,47.88 774.15,51.06 775.23,55.19 C776.09,58.45 775.43,61.99 776.47,65.19 C777.17,67.37 778.61,69.19 779.47,71.38 C781.72,77.22 779.03,83.64 777.89,89.8 C776.64,96.53 777.27,103.8 774.41,110.19 C773.85,111.44 773.22,113.63 771.81,112.8 C770.81,112.19 769.75,108.64 769.15,107.54 C767.162696,103.871063 764.941443,100.33376 762.5,96.95 L762.5,96.95 Z" id="Path" fill="#9A5E7F" fill-rule="nonzero"></path>
            <path d="M823.36,205.34 L828.36,219.58 C828.36,219.58 816.52,263.58 810.97,272.84 C805.42,282.1 797.29,293.92 797.29,293.92 C797.29,293.92 783.61,300.76 767.7,297.62 C751.79,294.48 705.38,286.15 705.38,286.15 C705.38,286.15 701.5,286.89 699.47,283.93 C697.44,280.97 686.89,279.49 686.89,279.49 C686.89,279.49 674.69,261.74 689.67,254.34 C689.67,254.34 691.51,258.41 699.47,255.64 C707.43,252.87 709.82,257.86 709.82,257.86 C709.82,257.86 722.77,260.45 729.98,259.52 C737.19,258.59 755.13,258.23 756.98,256.75 C757.951593,255.886802 759.437115,255.9671 760.31,256.93 C760.31,256.93 764.74,255.27 766.22,253.61 C767.7,251.95 769.74,255.45 769.74,255.45 C769.74,255.45 772.33,253.98 771.59,252.13 C770.85,250.28 773.99,243.25 773.99,243.25 C773.99,243.25 775.47,238.63 774.54,234.93 C773.61,231.23 779.17,217.93 779.17,217.93 C779.242326,215.686065 778.993133,213.443328 778.43,211.27 C777.5,207.94 785.43,201.27 785.43,201.27 C785.43,201.27 793.2,163.55 809.66,175.94 C826.12,188.33 823.36,205.34 823.36,205.34 Z" id="Path" fill="#000000" fill-rule="nonzero" opacity="0.1"></path>
            <path d="M824.5,205.34 L829.5,219.58 C829.5,219.58 817.66,263.58 812.11,272.84 C806.56,282.1 798.43,293.92 798.43,293.92 C798.43,293.92 784.74,300.76 768.84,297.62 C752.94,294.48 706.5,286.15 706.5,286.15 C706.5,286.15 702.62,286.89 700.59,283.93 C698.56,280.97 688.01,279.49 688.01,279.49 C688.01,279.49 675.81,261.74 690.79,254.34 C690.79,254.34 692.63,258.41 700.59,255.64 C708.55,252.87 710.94,257.86 710.94,257.86 C710.94,257.86 723.94,260.45 731.1,259.52 C738.26,258.59 756.25,258.23 758.1,256.75 C759.06826,255.887931 760.550619,255.9683 761.42,256.93 C761.42,256.93 765.86,255.27 767.34,253.61 C768.82,251.95 770.86,255.45 770.86,255.45 C770.86,255.45 773.44,253.98 772.7,252.13 C771.96,250.28 775.11,243.25 775.11,243.25 C775.11,243.25 776.59,238.63 775.66,234.93 C774.73,231.23 780.29,217.93 780.29,217.93 C780.362326,215.686065 780.113133,213.443328 779.55,211.27 C778.62,207.94 786.55,201.27 786.55,201.27 C786.55,201.27 794.32,163.55 810.78,175.94 C827.24,188.33 824.5,205.34 824.5,205.34 Z" id="Path" fill="#4C4981" fill-rule="nonzero"></path>
            <path d="M704.27,264.89 C704.46,266.18 708.53,271.36 707.05,272.28 C705.57,273.2 703.16,272.65 705.38,275.61 C707.6,278.57 707.38,283.01 705.94,282.45 C704.5,281.89 702.06,275.24 702.06,272.65 C702.06,270.06 704.27,264.89 704.27,264.89 Z" id="Path" fill="#000000" fill-rule="nonzero" opacity="0.1"></path>
            <path d="M759.2,261.93 C759.2,261.93 760.31,274.87 769.37,278.57 C778.43,282.27 759.2,261.93 759.2,261.93 Z" id="Path" fill="#000000" fill-rule="nonzero" opacity="0.1"></path>
            <path d="M778.06,257.49 C778.61,257.67 791,264.33 785.45,268.21 C779.9,272.09 778.06,257.49 778.06,257.49 Z" id="Path" fill="#000000" fill-rule="nonzero" opacity="0.1"></path>
            <path d="M778.8,248.24 C778.8,248.24 796.92,251.94 790.8,255.08 C784.68,258.22 778.8,248.24 778.8,248.24 Z" id="Path" fill="#000000" fill-rule="nonzero" opacity="0.1"></path>
            <g id="Group" opacity="0.1" transform="translate(687.000000, 68.000000)" fill="#000000" fill-rule="nonzero">
                <path d="M60.37,25.07 C61.26,22.52 63.37,20.21 66,19.8 C69.9,19.2 73.17,22.61 75.46,25.8 C77.8694617,29.1731406 80.0606053,32.6970073 82.02,36.35 C82.62,37.46 83.64,41.01 84.68,41.62 C86.09,42.45 86.68,40.25 87.28,39 C90.14,32.64 89.51,25.35 90.76,18.62 C91.49,14.69 92.84,10.62 93.14,6.73 C93.56,11.56 91.67,16.65 90.76,21.58 C89.51,28.31 90.14,35.58 87.28,41.96 C86.72,43.21 86.09,45.4 84.68,44.58 C83.68,43.97 82.62,40.42 82.02,39.31 C80.0731647,35.6615051 77.8954029,32.1410129 75.5,28.77 C73.21,25.55 69.94,22.15 66.04,22.77 C63.37,23.18 61.3,25.49 60.41,28.04 C59.9638831,29.3836925 59.7146317,30.7848895 59.67,32.2 C59.4522435,29.8004582 59.6897409,27.3813775 60.37,25.07 L60.37,25.07 Z" id="Path"></path>
                <path d="M2.6,7.51 C3.05085215,9.18529361 3.9336075,10.7128742 5.16,11.94 C8.54,14.76 13.87,12.1 17.98,13.67 C18.8032522,14.0724 19.64784,14.4295972 20.51,14.74 C23.12,15.44 25.66,13.74 27.97,12.29 C30.28,10.84 33.47,9.85 35.47,11.66 C38.08,14.03 36.19,19.1 38.88,21.38 C40.58,22.84 43.28,22.38 45.17,23.53 C47.06,24.68 47.63,27.32 48.11,29.53 C48.59,31.74 49.54,34.35 51.75,35.01 C53.96,35.67 56,34.22 58.17,34.3 C58.62,34.3 59.17,34.37 59.44,34.04 C59.5120247,33.9624751 59.5665849,33.8704047 59.6,33.77 C59.6,34.51 59.6,35.25 59.67,35.99 C59.7226544,36.340429 59.6404619,36.6977878 59.44,36.99 C59.14,37.32 58.62,37.27 58.17,37.25 C56,37.17 53.84,38.58 51.75,37.96 C49.66,37.34 48.59,34.73 48.11,32.48 C47.63,30.23 47.11,27.66 45.17,26.43 C43.23,25.2 40.58,25.73 38.88,24.28 C36.19,22 38.08,16.93 35.47,14.56 C33.47,12.75 30.28,13.79 27.97,15.19 C25.66,16.59 23.12,18.34 20.51,17.64 C19.63,17.4 18.84,16.9 17.98,16.57 C13.87,15 8.54,17.66 5.16,14.84 C3.93134953,13.6106578 3.04836721,12.0792353 2.6,10.4 C1.67110458,8.1384028 1.04242451,5.7648834 0.73,3.34 C0.659966731,2.51360473 0.680085192,1.68204169 0.79,0.86 C1.13586628,3.13883855 1.7432063,5.3702259 2.6,7.51 L2.6,7.51 Z" id="Path"></path>
            </g>
            <path d="M233.56,563.2 C233.56,625.62 269.79,676.2 314.48,676.2 C359.17,676.2 395.4,625.6 395.4,563.2 C395.4,500.8 359.17,450.2 314.48,450.2 C269.79,450.2 233.56,500.79 233.56,563.2 Z M239.14,561.69 C239.14,507.05 271,462.75 310.29,462.75 C349.58,462.75 381.5,507.07 381.5,561.69 C381.5,616.31 349.64,660.63 310.34,660.63 C271.04,660.63 239.14,616.33 239.14,561.69 Z" id="Shape" fill="#35323E" fill-rule="nonzero"></path>
            <path d="M304.71,316.25 L310.29,411.13 L419.95,411.13 C429.460693,411.0392 438.659662,414.518251 445.73,420.88 C452.08317,426.679651 456.029795,434.651406 456.79,443.22 L456.79,585.53 L442.79,585.53 L442.89,575.76 L304.66,575.76 L304.66,561.76 L443.08,561.76 L444.22,447.58 C444.239158,446.144431 444.091502,444.711496 443.78,443.31 C442.92,439.55 440.51,432.69 434.06,428.84 C431.234299,427.211031 428.021303,426.374961 424.76,426.42 L300.5,426.42 L293.5,327.36 L251.7,327.36 L251.7,316.25 L304.71,316.25 Z" id="Path" fill="#464353" fill-rule="nonzero"></path>
            <path d="M304.71,316.25 L310.29,411.13 L419.95,411.13 C429.460693,411.0392 438.659662,414.518251 445.73,420.88 C452.08317,426.679651 456.029795,434.651406 456.79,443.22 L456.79,585.53 L442.79,585.53 L442.89,575.76 L304.66,575.76 L304.66,561.76 L443.08,561.76 L444.22,447.58 C444.239158,446.144431 444.091502,444.711496 443.78,443.31 C442.92,439.55 440.51,432.69 434.06,428.84 C431.234299,427.211031 428.021303,426.374961 424.76,426.42 L300.5,426.42 L293.5,327.36 L251.7,327.36 L251.7,316.25 L304.71,316.25 Z" id="Path" fill="#000000" fill-rule="nonzero" opacity="0.1"></path>
            <polygon id="Path" fill="#35323E" fill-rule="nonzero" points="301.23 367.17 195.89 363.69 201.47 510.18 454 512.97 447.72 453.68 310.29 476.7"></polygon>
            <rect id="Rectangle" fill="#464353" fill-rule="nonzero" x="205.65" y="561.8" width="139.52" height="13.95"></rect>
            <path d="M300.5,551.23 L300.5,510.23 L311.66,510.23 L311.66,551.23 C315.79,554.32 318.66,560.7 318.66,568.09 C318.66,578.49 313.03,586.92 306.1,586.92 C299.17,586.92 293.54,578.49 293.54,568.09 C293.55,560.7 296.4,554.32 300.5,551.23 Z" id="Path" fill="#464353" fill-rule="nonzero"></path>
            <path d="M355.35,586.14 C350.577243,581.707891 343.275585,581.448182 338.2,585.53 L338.2,585.53 C338.2,585.53 321.46,596.69 336.8,644.13 C336.8,644.13 347.97,651.13 342.38,628.78 C336.79,606.43 339.59,592.5 345.17,592.5 C350.75,592.5 357.73,607.85 357.73,607.85 L367.5,603.67 C367.5,603.67 363.09,593.38 355.35,586.14 Z" id="Path" fill="#464353" fill-rule="nonzero"></path>
            <path d="M459.99,586.14 C455.217243,581.707891 447.915585,581.448182 442.84,585.53 L442.84,585.53 C442.84,585.53 426.1,596.69 441.44,644.13 C441.44,644.13 452.61,651.13 447.03,628.78 C441.45,606.43 444.23,592.5 449.82,592.5 C455.41,592.5 462.37,607.85 462.37,607.85 L472.14,603.67 C472.14,603.67 467.73,593.38 459.99,586.14 Z" id="Path" fill="#464353" fill-rule="nonzero"></path>
            <ellipse id="Oval" fill="#35323E" fill-rule="nonzero" cx="458.88" cy="639.94" rx="31.39" ry="41.86"></ellipse>
            <ellipse id="Oval" fill="#35323E" fill-rule="nonzero" cx="354.24" cy="639.94" rx="31.39" ry="41.86"></ellipse>
            <path d="M541.5,637.07 C538.27,633.78 533.35,631.34 530.38,631.34 C524.13,631.34 499.49,602.1 497.85,597.96 C497.25,596.45 496.25,596.96 495.23,598.29 C493.23,593.56 490.61,586.9 489.91,582.14 C492.55,581.47 494.24,580.98 494.24,580.98 C494.24,580.98 494.56,571.56 492.24,570.58 L492.18,570.58 C489.94,569.26 489.94,549.83 489.94,549.83 C489.94,549.83 484.69,532.66 485.35,526.46 C486.01,520.26 472.24,473.07 472.24,473.07 C472.24,473.07 468.63,444.7 462.06,441.83 C456.51,439.4 409.76,426.06 395.32,421.96 C395.01,421.26 392.77,416.86 385.51,416.86 C377.62,416.86 353.97,417.19 346.09,408.09 C345.115868,406.885261 344.299286,405.561256 343.66,404.15 C347.56,396.98 347.81,385.15 346.41,382.42 C344.41,378.52 343.13,370.72 343.13,370.72 C343.13,370.72 342.13,351.88 340.81,347 C339.49,342.12 333.93,302.16 333.93,302.16 C333.93,302.16 322.76,291.51 314.87,289.21 C311.434129,288.078045 308.20776,286.388846 305.32,284.21 C305.44,283.56 305.56,282.97 305.65,282.47 C310.782631,278.183256 314.308277,272.281325 315.65,265.73 C315.801809,265.374532 315.909284,265.001729 315.97,264.62 C316.031796,264.109095 316.058526,263.594558 316.05,263.08 C316.15,262.14 316.21,261.19 316.22,260.23 L316.22,259.94 C316.22,259.83 316.22,259.72 316.22,259.61 C316.32076,259.146191 316.507294,258.705293 316.77,258.31 C317.92,256.66 320.29,256.31 322.18,255.49 C322.464838,255.359295 322.741958,255.212388 323.01,255.05 L323.25,254.89 C323.43,254.78 323.6,254.67 323.76,254.55 L324.04,254.32 L324.45,253.97 L324.72,253.7 C324.84,253.58 324.96,253.46 325.07,253.33 L325.33,253.02 C325.43,252.89 325.53,252.77 325.62,252.64 L325.86,252.29 C325.947059,252.167931 326.027185,252.041065 326.1,251.91 C326.18,251.78 326.26,251.65 326.33,251.51 C326.4,251.37 326.46,251.26 326.52,251.14 C326.58,251.02 326.67,250.84 326.73,250.69 C326.782677,250.579236 326.82941,250.465741 326.87,250.35 C326.94,250.18 327.01,250.01 327.07,249.84 L327.16,249.57 C327.22,249.37 327.29,249.17 327.35,248.96 C327.35,248.96 327.35,248.96 327.35,248.9 C327.792637,247.207923 327.94813,245.453552 327.81,243.71 L327.81,243.71 C327.81,243.27 327.73,242.84 327.66,242.41 C327.17,239.41 326.09,236.32 326.45,233.36 L326.45,233.36 C326.45,233.1 326.53,232.84 326.58,232.58 C326.58,232.58 326.58,232.52 326.58,232.49 C326.639341,232.219681 326.712774,231.95265 326.8,231.69 C327.21,230.5 327.91,229.41 328.29,228.22 L328.29,228.22 C328.367372,227.973768 328.430806,227.723371 328.48,227.47 L328.48,227.27 C328.48,227.06 328.54,226.85 328.55,226.64 C328.55,226.59 328.55,226.54 328.55,226.49 C328.572809,225.940963 328.535926,225.391073 328.44,224.85 L328.44,224.85 C327.952145,222.507946 326.695596,220.396099 324.87,218.85 C322.16,216.47 318.61,215.16 315.12,214.01 C306.12,211.01 296.75,208.17 287.22,207.56 C283.04,207.29 277.57,206 274.22,208.56 C270.31,211.56 267.87,213.81 263.01,215.85 C259.5,217.32 255.84,219.58 255.01,223.13 C254.818239,224.708958 254.761366,226.301385 254.84,227.89 C254.68,231.09 253.14,234.07 252.15,237.13 C251.528104,238.920719 251.27635,240.819083 251.41,242.71 C251.41,242.71 251.41,242.77 251.41,242.8 C251.41,243.02 251.47,243.24 251.51,243.45 C251.51,243.45 251.51,243.53 251.51,243.56 C251.607699,244.036238 251.751717,244.501785 251.94,244.95 C251.94,245.01 251.99,245.06 252.01,245.12 C252.03,245.18 252.17,245.45 252.26,245.61 L252.35,245.78 C252.48,245.99 252.61,246.19 252.76,246.39 C253.37,247.2 254.19,247.88 254.76,248.73 C255.473653,250.057026 255.864228,251.533674 255.9,253.04 C256.06,254.56 256.21,256.09 256.37,257.61 C256.37,257.73 256.37,257.84 256.37,257.95 C256.32,258.62 256.29,259.3 256.29,259.95 C256.294426,261.524157 256.421477,263.095578 256.67,264.65 C253.34,267.16 249.91,270.17 249.2,272.37 C248.707748,272.999746 248.430811,273.770964 248.41,274.57 L248.41,274.57 C245.28,277.02 231.98,275.57 231.98,275.57 C231.98,275.57 221.14,281.42 217.2,279.14 C213.26,276.86 189.6,295.06 189.6,295.06 C189.6,295.06 183.36,295.39 183.03,297.99 C183.03,297.99 175.15,303.84 169.23,303.84 C163.31,303.84 159.7,311.31 159.7,311.31 C159.7,311.31 149.85,315.86 146.56,316.51 C143.27,317.16 137.69,320.41 139.34,321.71 C140.99,323.01 139.01,325.93 136.05,328.21 C133.09,330.49 128.49,342.21 132.44,343.8 C136.39,345.39 147.22,348.68 150.18,350.3 C151.310661,350.891111 152.592,351.131362 153.86,350.99 C155.294324,351.083796 156.731074,350.847759 158.06,350.3 L158.52,349.73 C162.38,352.66 167.41,355.67 172.25,356.15 C179.87,356.91 196.25,360.03 203.19,361.38 C203.19,361.81 203.19,362.24 203.19,362.67 C203.13,374.81 203.7,387.39 206.04,391.24 C210.97,399.37 211.62,463.05 211.62,463.05 C211.62,463.05 227.06,465.33 232.32,470.2 C237.32,474.8 262.5,483.2 267.47,472.29 L269.05,472.97 C281.85,478.52 298.84,486.42 300.79,489.97 C303.94,495.82 326.61,505.57 326.61,505.57 C326.61,505.57 341.4,505.89 337.12,519.57 C332.84,533.25 365.5,565.99 365.5,565.99 C365.449072,568.059365 366.113033,570.083033 367.38,571.72 C367.794714,572.241886 368.264049,572.717926 368.78,573.14 C370.09,574.14 374.17,575.97 378.9,576.78 C380.11,579.5 381.07,581.86 380.9,582.24 C380.73,582.62 382.32,584.03 384.41,585.87 L384.41,585.87 C386.017904,589.450582 387.907157,592.89805 390.06,596.18 L390.06,596.18 C390.778062,597.390211 391.784702,598.403722 392.99,599.13 C396.19,600.43 429.53,620.25 435.78,620.9 C441.59,621.51 453.39,624.36 464.01,616.09 L462.3,629.95 L461.73,634.55 C461.73,634.55 478.49,641.37 485.39,641.37 C492.29,641.37 515.61,652.42 515.61,652.42 C515.61,652.42 531.05,655.67 541.24,648.85 C546.57,645.28 545.06,640.64 541.5,637.07 Z M435.5,486.39 C433.85,489.96 434.92,496.46 435.7,496.46 C436.48,496.46 440.1,501.66 438.13,507.51 C436.16,513.36 450.94,566.64 457.51,573.79 C457.51,573.79 457.51,573.97 457.39,574.28 C456.91,576.45 455.53,585.28 464.74,585.81 L465.79,585.81 C466.49,591.37 467.54,600.12 468.18,607.38 C466.7,603.07 460.99,598.7 455.29,595.26 C451.034687,592.728065 446.618632,590.476612 442.07,588.52 C442.07,588.52 423.67,584.14 419.73,580.52 C415.79,576.9 404.04,570.41 404.04,570.41 L404.04,570.41 C402.19,568.74 400.11,566.86 398.15,565.06 C398.26,564.3 398.33,563.5 398.37,562.65 C397.905354,560.945401 397.323981,559.27479 396.63,557.65 C395.86,555.9 394.87,554.2 393.77,553.51 C391.15,551.89 382.27,518.42 382.27,514.51 C382.27,510.6 376.69,492.09 374.72,488.84 C372.75,485.59 370.45,477.44 370.45,477.44 C370.45,477.44 400.34,482.02 428.27,479.44 C428.22,479.56 437.09,482.81 435.5,486.39 Z M204.16,336.27 L204.16,336.65 L202.42,336.22 C203.5,336.27 204.16,336.27 204.16,336.27 Z M299,286.68 C299,287.27 299,287.88 299,288.49 L298.66,288.14 C298.38,287.83 298.12,287.51 297.85,287.19 C298.24,287.07 298.62,286.86 299,286.68 Z M331.15,355.07 C330.82,353.16 330.64,352.07 330.64,352.07 L330.76,350.24 L331.15,355.07 Z M179.15,332 C179.843369,331.76524 180.561408,331.610895 181.29,331.54 C181.925107,331.59525 182.545035,331.76463 183.12,332.04 C183.89,332.4 184.69,332.74 185.5,333.04 L179.77,332.04 C179.5681,332.010452 179.363825,332.000406 179.16,332.01 L179.15,332 Z" id="Shape" fill="url(#linearGradient-2)" fill-rule="nonzero"></path>
            <path d="M373.67,566.66 C373.67,566.66 380.27,580.32 379.95,581.29 C379.63,582.26 394.13,593.86 394.13,593.86 L409.93,582.58 L408.32,574.84 C408.32,574.84 390.59,558.84 389.32,557.01 C388.05,555.18 373.67,566.66 373.67,566.66 Z" id="Path" fill="#A1616A" fill-rule="nonzero"></path>
            <path d="M463.78,612.89 C452.78,623.53 439.92,620.3 433.78,619.66 C427.64,619.02 394.93,599.34 391.78,598.05 C390.595039,597.330926 389.608502,596.327202 388.91,595.13 L388.91,595.13 C386.802206,591.864534 384.950021,588.441 383.37,584.89 C383.59,584.95 394.32,588.01 397.03,584.89 C397.03,584.89 401.54,579.35 402.51,579.35 C403.48,579.35 402.58,569.64 402.58,569.64 C402.58,569.64 414.12,576.13 417.99,579.64 C421.86,583.15 439.91,587.54 439.91,587.54 C444.38525,589.48272 448.727947,591.717539 452.91,594.23 C461.5,599.48 470.02,606.84 463.78,612.89 Z" id="Path" fill="#67647E" fill-rule="nonzero"></path>
            <path d="M463.78,612.89 C452.78,623.53 439.92,620.3 433.78,619.66 C427.64,619.02 394.93,599.34 391.78,598.05 C390.595039,597.330926 389.608502,596.327202 388.91,595.13 C392.73,592.85 417.65,608.7 424.63,611.6 C431.61,614.5 449.25,612.89 459.25,608.7 C464.25,606.61 459.18,600.18 452.88,594.26 C461.5,599.48 470.02,606.84 463.78,612.89 Z" id="Path" fill="#000000" fill-rule="nonzero" opacity="0.1"></path>
            <path d="M462.5,579.35 C462.5,579.35 467.1,613.85 465.93,618.35 C464.76,622.85 494.75,602.87 494.75,602.87 C494.75,602.87 484.26,581.25 487.33,576.28 C490.4,571.31 462.5,579.35 462.5,579.35 Z" id="Path" fill="#A1616A" fill-rule="nonzero"></path>
            <path d="M491.19,580 C491.19,580 472.49,585.48 462.19,584.83 C453.19,584.27 454.5,575.55 454.98,573.39 C455.05,573.08 455.1,572.9 455.1,572.9 C448.65,565.81 434.1,512.9 436.1,507.12 C438.1,501.34 434.49,496.12 433.72,496.12 C432.95,496.12 431.91,489.67 433.52,486.12 C435.13,482.57 426.43,479.35 426.43,479.35 C399.02,481.93 369.68,477.35 369.68,477.35 C369.68,477.35 371.93,485.45 373.87,488.67 C375.81,491.89 381.29,510.28 381.29,514.15 C381.29,518.02 389.99,551.23 392.57,552.84 C393.65,553.52 394.62,555.21 395.38,556.94 C396.059032,558.543465 396.630301,560.190458 397.09,561.87 C396.09,583.47 371.61,575.09 368.09,572.19 C365.974684,570.449985 364.785427,567.827711 364.87,565.09 C364.87,565.09 332.87,532.6 337.06,519.07 C341.25,505.54 326.74,505.21 326.74,505.21 C326.74,505.21 304.5,495.51 301.4,489.71 C299.49,486.14 282.8,478.3 270.24,472.79 C262.37,469.34 256.12,466.79 256.12,466.79 L261.35,448.07 L265.5,433.28 L273.26,430.36 L298.04,421.07 L342.59,414.94 L346.67,415.47 L389.94,421.07 C389.94,421.07 453.14,439.12 459.59,441.97 C466.04,444.82 469.59,472.97 469.59,472.97 C469.59,472.97 483.13,519.73 482.49,525.88 C481.85,532.03 487,549.07 487,549.07 C487,549.07 487,568.36 489.19,569.67 L489.26,569.67 C491.5,570.65 491.19,580 491.19,580 Z" id="Path" fill="#4C4981" fill-rule="nonzero"></path>
            <path d="M426.38,479.39 C398.97,481.97 369.63,477.39 369.63,477.39 C367.69,471.3 340.63,454.53 340.63,454.53 C362.82,449.07 426.38,479.39 426.38,479.39 Z" id="Path" fill="#000000" fill-rule="nonzero" opacity="0.1"></path>
            <path d="M397.04,561.94 C396.04,583.54 371.56,575.16 368.04,572.26 C367.533487,571.841143 367.074111,571.368354 366.67,570.85 C375.24,574.01 390.42,576.44 395.36,557.01 C396.02884,558.614209 396.590082,560.261188 397.04,561.94 L397.04,561.94 Z" id="Path" fill="#444053" fill-rule="nonzero"></path>
            <path d="M491.19,580 C491.19,580 472.49,585.48 462.19,584.83 C453.19,584.27 454.5,575.55 454.98,573.39 C464.45,573.09 480.75,572.2 489.21,569.64 L489.28,569.64 C491.5,570.65 491.19,580 491.19,580 Z" id="Path" fill="#444053" fill-rule="nonzero"></path>
            <path d="M397.04,561.94 C396.04,583.54 371.56,575.16 368.04,572.26 C367.533487,571.841143 367.074111,571.368354 366.67,570.85 C375.24,574.01 390.42,576.44 395.36,557.01 C396.02884,558.614209 396.590082,560.261188 397.04,561.94 L397.04,561.94 Z" id="Path" fill="#000000" fill-rule="nonzero" opacity="0.1"></path>
            <path d="M491.19,580 C491.19,580 472.49,585.48 462.19,584.83 C453.19,584.27 454.5,575.55 454.98,573.39 C464.45,573.09 480.75,572.2 489.21,569.64 L489.28,569.64 C491.5,570.65 491.19,580 491.19,580 Z" id="Path" fill="#000000" fill-rule="nonzero" opacity="0.1"></path>
            <path d="M537.3,647.39 C527.3,654.16 512.15,650.94 512.15,650.94 C512.15,650.94 489.26,639.94 482.49,639.94 C475.72,639.94 459.27,633.17 459.27,633.17 L459.82,628.61 L462.5,606.76 C462.5,606.76 487.62,606.12 488.62,603.86 C488.62,603.86 493.14,592.75 494.75,596.86 C496.36,600.97 520.55,629.99 526.67,629.99 C529.59,629.99 534.42,632.41 537.59,635.67 C541.06,639.24 542.5,643.85 537.3,647.39 Z" id="Path" fill="#67647E" fill-rule="nonzero"></path>
            <path d="M450.56,456.82 C450.56,456.82 429.56,470.04 435.41,472.94 C441.26,475.84 450.56,456.82 450.56,456.82 Z" id="Path" fill="#000000" fill-rule="nonzero" opacity="0.1"></path>
            <path d="M459.27,482.29 C459.27,482.29 441.21,499.44 447.98,499.89 C454.75,500.34 459.27,482.29 459.27,482.29 Z" id="Path" fill="#000000" fill-rule="nonzero" opacity="0.1"></path>
            <path d="M478.62,536.79 C478.62,536.79 469.5,554.07 472.9,557.01 C476.3,559.95 478.62,536.79 478.62,536.79 Z" id="Path" fill="#000000" fill-rule="nonzero" opacity="0.1"></path>
            <path d="M377.69,554.2 C380.91,557.43 347.05,543.56 354.79,542.91 C362.53,542.26 377.69,554.2 377.69,554.2 Z" id="Path" fill="#000000" fill-rule="nonzero" opacity="0.1"></path>
            <path d="M309.97,312.36 L308.9,312.2 C304.9,311.58 290.35,309.3 277.31,306.47 C274.13,305.78 271.05,305.06 268.22,304.32 C258.22,301.7 251.53,298.87 255.8,296.56 C261.46,293.49 264.44,287.91 266.01,283.11 C266.163333,282.636667 266.303333,282.176667 266.43,281.73 C267.124752,279.309654 267.560528,276.822376 267.73,274.31 C267.73,274.31 304.17,261.41 297.07,274.31 C293.59,280.64 295.93,285.8 299.22,289.42 C301.477354,291.810773 304.133675,293.790325 307.07,295.27 L309.97,312.36 Z" id="Path" fill="#A1616A" fill-rule="nonzero"></path>
            <path d="M270.96,302.36 C270.96,302.36 283.96,311.71 297.3,303.97 C310.64,296.23 328.03,372.34 328.03,372.34 L346.09,416.83 C346.09,416.83 357.79,426.51 343.23,430.7 C328.67,434.89 296.38,426.51 288.18,438.76 C279.98,451.01 264.5,452.95 262.87,452.95 C261.24,452.95 255.14,406.84 255.14,406.84 L253.5,340.07 L270.96,302.36 Z" id="Path" fill="#000000" fill-rule="nonzero" opacity="0.1"></path>
            <path d="M342.59,428.12 C328.03,432.31 295.73,423.93 287.59,436.18 C284.132118,441.159097 279.313414,445.036973 273.71,447.35 C270.08535,448.965938 266.22119,449.979266 262.27,450.35 C262.06,450.35 261.76,449.5 261.4,448.04 C259.13,438.71 254.54,404.24 254.54,404.24 L252.95,337.49 L268.27,304.3 L270.36,299.76 C272.41855,301.129425 274.651894,302.215825 277,302.99 C283.485112,305.3923 290.700716,304.802897 296.71,301.38 C300.62,299.11 304.88,304.05 308.95,312.18 C318.74,331.74 327.43,369.74 327.43,369.74 L345.49,414.23 C345.921078,414.600756 346.331684,414.99467 346.72,415.41 C349.23,418.13 354.04,424.82 342.59,428.12 Z" id="Path" fill="#F3F5F9" fill-rule="nonzero"></path>
            <path d="M273.23,430.36 C273.948037,435.997531 274.092109,441.693377 273.66,447.36 C273.150709,455.413725 272.148835,463.428718 270.66,471.36 C270.57636,471.857882 270.445777,472.346729 270.27,472.82 C262.4,469.37 256.15,466.82 256.15,466.82 L261.35,448.07 C259.08,438.74 254.49,404.27 254.49,404.27 L252.9,337.52 L268.22,304.33 C258.22,301.71 251.53,298.88 255.8,296.57 C262,293.2 264.99,286.81 266.43,281.74 C269.061112,285.395053 272.138241,288.707333 275.59,291.6 L275.79,291.77 L276.95,303.02 L277.31,306.48 L278.05,313.66 C278.05,313.66 274.5,398.46 271.92,403.3 C269.34,408.14 270.63,417.49 272.92,428.45 C273.02,429.07 273.13,429.7 273.23,430.36 Z" id="Path" fill="#000000" fill-rule="nonzero" opacity="0.1"></path>
            <path d="M271.6,427.15 C273.86,438.15 271.92,456.15 269.34,470.04 C266.76,483.93 239.34,474.88 234.2,470.04 C229.06,465.2 213.88,462.95 213.88,462.95 C213.88,462.95 213.24,399.74 208.4,391.68 C206.1,387.86 205.55,375.38 205.61,363.33 C205.61,352.5 206.19,342.02 206.39,338.46 C206.44,337.64 206.46,337.19 206.46,337.19 C206.46,337.19 185.46,301.72 185.83,299.14 C186.2,296.56 192.28,296.24 192.28,296.24 C192.28,296.24 215.49,278.18 219.36,280.44 C223.23,282.7 233.87,276.89 233.87,276.89 C233.87,276.89 247.36,278.42 250.14,275.82 C250.487738,275.52638 250.673665,275.083873 250.64,274.63 C250.32,270.5 264.38,261.69 264.82,261.42 C252.97,272.08 272.13,288.5 274.3,290.3 L274.5,290.47 L276.76,312.36 C276.76,312.36 273.21,397.16 270.63,402 C268.05,406.84 269.34,416.19 271.6,427.15 Z" id="Path" fill="#6C63FF" fill-rule="nonzero"></path>
            <circle id="Oval" fill="#444053" fill-rule="nonzero" cx="270.35" cy="335.03" r="1.61"></circle>
            <path d="M273.66,291.59 L263.86,301.07 L249.5,277.07 C249.843766,276.773478 250.028813,276.333067 250,275.88 C249.68,271.75 263.74,262.94 264.17,262.67 C252.32,273.37 271.5,289.79 273.66,291.59 Z" id="Path" fill="#000000" fill-rule="nonzero" opacity="0.1"></path>
            <circle id="Oval" fill="#000000" fill-rule="nonzero" opacity="0.1" cx="267.13" cy="386.62" r="1.61"></circle>
            <circle id="Oval" fill="#444053" fill-rule="nonzero" cx="267.13" cy="385.97" r="1.61"></circle>
            <path d="M274.3,290.3 L264.5,299.78 L250.13,275.78 C250.477738,275.48638 250.663665,275.043873 250.63,274.59 C250.31,270.46 264.37,261.65 264.81,261.38 C252.97,272.07 272.13,288.5 274.3,290.3 Z" id="Path" fill="#6C63FF" fill-rule="nonzero"></path>
            <path d="M393.5,424.25 C385.44,427.8 332.55,418.45 324.82,416.19 C317.09,413.93 305.82,396.52 311.27,383.94 C316.72,371.36 309.33,359.07 309.33,359.07 C309.33,359.07 297.72,334.25 295.14,329.41 C292.56,324.57 287.14,310.49 286.43,308.13 C286.378185,307.594893 286.543983,307.061457 286.89,306.65 C288.99,303.46 297.07,297.81 297.07,297.81 C299.35,298.63 299.63,292.11 299.54,287.32 C299.49,284.64 299.33,282.5 299.33,282.5 C299.33,282.5 300.4,283.59 302.15,285.07 C302.79,285.61 303.52,286.2 304.32,286.81 C307.362513,289.25348 310.807307,291.148454 314.5,292.41 C322.24,294.69 333.2,305.26 333.2,305.26 L329.97,354.79 C329.97,354.79 337.39,401.36 345.13,410.39 C352.87,419.42 376.13,419.09 383.82,419.09 C391.51,419.09 393.5,424.25 393.5,424.25 Z" id="Path" fill="#000000" fill-rule="nonzero" opacity="0.1"></path>
            <path d="M394.13,422.32 C386.07,425.86 333.19,416.51 325.45,414.25 C317.71,411.99 306.45,394.58 311.91,382.01 C317.37,369.44 309.97,357.18 309.97,357.18 C309.97,357.18 298.36,332.35 295.78,327.51 C293.2,322.67 287.83,308.59 287.08,306.23 C287.013709,305.69655 287.181451,305.160507 287.54,304.76 C289.63,301.56 297.72,295.91 297.72,295.91 C300,296.74 300.28,290.22 300.19,285.43 C300.14,282.74 299.98,280.6 299.98,280.6 C299.98,280.6 301.05,281.69 302.79,283.18 C303.43,283.71 304.16,284.31 304.97,284.92 C308.006867,287.348684 311.445425,289.22703 315.13,290.47 C322.87,292.76 333.83,303.33 333.83,303.33 L330.61,352.85 C330.61,352.85 338.03,399.42 345.76,408.45 C353.49,417.48 376.76,417.16 384.46,417.16 C392.16,417.16 394.13,422.32 394.13,422.32 Z" id="Path" fill="#6C63FF" fill-rule="nonzero"></path>
            <path d="M306.43,281.89 C306.43,281.89 306.12,283.6 305.61,286.21 C303.88,295.06 299.74,314.4 296.75,313.65 C294.61,313.11 290.99,309.32 288.18,306.05 C290.28,302.85 298.36,297.2 298.36,297.2 C300.64,298.03 300.92,291.51 300.83,286.72 L303.44,284.47 L306.43,281.89 Z" id="Path" fill="#000000" fill-rule="nonzero" opacity="0.1"></path>
            <path d="M305.78,280.6 C305.78,280.6 305.48,282.31 304.97,284.92 C303.23,293.77 299.09,313.11 296.11,312.36 C293.97,311.82 290.35,308.03 287.54,304.76 C289.63,301.56 297.72,295.91 297.72,295.91 C300,296.74 300.28,290.22 300.19,285.43 L302.79,283.18 L305.78,280.6 Z" id="Path" fill="#6C63FF" fill-rule="nonzero"></path>
            <polygon id="Path" fill="#F86D70" fill-rule="nonzero" points="304.46 329.83 304.46 362.55 295.81 380 295.81 380 295.54 380.55 272.64 379.04 263.84 378.45 243.41 377.1 243.41 337.97 263.84 338.55 272.98 338.81 296.08 339.46"></polygon>
            <polygon id="Path" fill="#000000" fill-rule="nonzero" opacity="0.1" points="304.46 331.76 304.46 362.55 302.35 366.81 302.35 366.81 300.18 371.18 300.18 371.18 295.81 380 296.3 347.28 296.4 340.68 300.55 336.09 300.55 336.08 302.36 334.08"></polygon>
            <polygon id="Path" fill="#F86D70" fill-rule="nonzero" points="305.63 321.15 305.63 332.57 304.46 334.44 302.36 337.79 300.5 340.75 296.4 347.29 296.3 347.28 241.62 344.47 241.62 333.2 241.75 333.05 248.28 325.98 250.65 323.43 254.92 318.8"></polygon>
            <polygon id="Path" fill="#000000" fill-rule="nonzero" opacity="0.1" points="296.4 336.02 296.4 347.29 241.62 344.47 241.62 333.2 241.75 333.05"></polygon>
            <polygon id="Path" fill="#000000" fill-rule="nonzero" opacity="0.15" points="305.63 321.15 305.63 332.57 296.4 347.29 296.4 336.02"></polygon>
            <polygon id="Path" fill="#3F3D56" fill-rule="nonzero" points="302.37 326.4 302.36 334.08 302.36 337.79 302.35 366.81 302.35 366.81 300.18 371.18 300.5 340.75 300.55 336.09 300.55 336.08 300.63 329.21 248.28 325.98 250.65 323.43"></polygon>
            <polygon id="Path" fill="#3F3D56" fill-rule="nonzero" points="276.68 326.78 273.01 334.75 272.98 338.81 272.64 379.04 263.84 378.45 263.84 334.22 268.54 326.78"></polygon>
            <path d="M264.6,327.32 C262.481699,328.030057 260.202829,328.109957 258.04,327.55 C257.61872,327.471204 257.223577,327.289095 256.89,327.02 C256.527932,326.624401 256.282223,326.136443 256.18,325.61 C255.792837,324.523669 255.580202,323.382865 255.55,322.23 C255.521459,321.066009 256.039557,319.955798 256.95,319.23 C257.13891,319.113714 257.31637,318.979782 257.48,318.83 C257.68019,318.584372 257.823612,318.297529 257.9,317.99 C258.54,316.08 259.78,314.06 261.77,313.75 C263.76,313.44 265.29,314.75 266.71,315.96 L269.82,318.61 C270.527537,316.713414 272.326493,315.445435 274.350554,315.416678 C276.374615,315.38792 278.208867,316.60428 278.97,318.48 C280.854011,316.357509 283.230193,314.729894 285.89,313.74 C286.455197,313.446291 287.121212,313.417015 287.71,313.66 C288.043241,313.917362 288.296422,314.264184 288.44,314.66 C289.282775,316.515235 289.738715,318.522731 289.78,320.56 C290.228969,320.39498 290.731932,320.571017 290.98,320.98 C291.224164,321.371153 291.362038,321.819246 291.38,322.28 C291.468316,322.989888 291.511735,323.704642 291.51,324.42 C291.581652,325.178513 291.379459,325.937624 290.94,326.56 C290.196359,327.20398 289.217728,327.508443 288.24,327.4 C288.435421,327.644 288.516673,327.960162 288.46311,328.26815 C288.409547,328.576138 288.226325,328.846304 287.96,329.01 C287.403655,329.311171 286.769107,329.436686 286.14,329.37 C283.72,329.37 281.14,329.27 279.14,327.93 C278.34,327.4 277.68,326.69 276.88,326.17 C274.93,324.87 272.47,324.81 270.21,324.92 C268.16,324.97 266.5,326.67 264.6,327.32 Z" id="Path" fill="#3F3D56" fill-rule="nonzero"></path>
            <path d="M264.15,326.79 C264.15,326.79 243.96,329.6 241.15,341.79 L245.37,341.17 L248.37,346.49 C248.37,346.49 251.5,334.59 260.73,331.77 C269.96,328.95 273.25,328.49 273.25,328.49 C273.25,328.49 279.67,330.05 285.46,348.68 L288.75,344.14 L294.54,345.39 C294.54,345.39 290.31,330.83 278.89,326.77 L264.15,326.79 Z" id="Path" fill="#3F3D56" fill-rule="nonzero"></path>
            <path d="M326.42,375.56 C326.42,375.56 310.29,372.34 305.78,365.24 C301.27,358.14 270.56,352.02 274.3,359.44 C278.04,366.86 305.78,391.12 305.78,391.12 L317.78,408.33 L333.78,404.26 L340.54,391.12 L326.42,375.56 Z" id="Path" fill="#A1616A" fill-rule="nonzero"></path>
            <path d="M288.27,393.96 C288.27,393.96 303.89,399.76 306.27,407.5 C308.65,415.24 288.27,393.96 288.27,393.96 Z" id="Path" fill="#000000" fill-rule="nonzero" opacity="0.1"></path>
            <path d="M278.69,402.97 C278.69,402.97 277.27,411.03 296.85,410.38 L278.69,402.97 Z" id="Path" fill="#000000" fill-rule="nonzero" opacity="0.1"></path>
            <path d="M194.21,299.78 L187.12,299.14 C187.12,299.14 179.38,304.94 173.57,304.94 C167.76,304.94 164.22,312.36 164.22,312.36 C164.22,312.36 154.55,316.87 151.32,317.52 C148.09,318.17 142.62,321.39 144.23,322.68 C145.84,323.97 143.91,326.87 141.01,329.13 C138.11,331.39 133.59,342.99 137.46,344.6 C141.33,346.21 151.97,349.44 154.87,351.05 C157.77,352.66 161.32,351.05 161.32,351.05 C161.32,351.05 178.4,328.8 187.11,333 C195.82,337.2 207.75,337.19 207.75,337.19 L217.11,317.52 L194.21,299.78 Z" id="Path" fill="#000000" fill-rule="nonzero" opacity="0.1"></path>
            <path d="M342.59,405.88 C341.309363,408.094646 339.111185,409.626044 336.59,410.06 C330.281141,410.79778 323.88772,410.208509 317.82,408.33 C317.82,408.33 350.3,398.01 319.02,372.92 L327.4,372.92 L330.2,371.86 L328.92,365.18 L327.08,304.94 L333.85,303.33 C333.85,303.33 339.3,342.99 340.61,347.83 C341.92,352.67 342.88,371.37 342.88,371.37 C342.88,371.37 344.17,379.11 346.11,382.98 C347.5,385.89 347.17,399 342.59,405.88 Z" id="Path" fill="#6C63FF" fill-rule="nonzero"></path>
            <path d="M341.3,405.88 C340.018316,408.093684 337.820644,409.624729 335.3,410.06 C328.981265,410.801122 322.577367,410.211828 316.5,408.33 C316.5,408.33 348.98,398.01 317.7,372.92 L326.09,372.92 L328.88,371.86 C333.5,379.99 340.71,394.46 341.3,405.88 Z" id="Path" fill="#000000" fill-rule="nonzero" opacity="0.1"></path>
            <path d="M342.59,405.88 C341.309363,408.094646 339.111185,409.626044 336.59,410.06 C330.281141,410.79778 323.88772,410.208509 317.82,408.33 C317.82,408.33 350.3,398.01 319.02,372.92 L327.4,372.92 L330.2,371.86 C334.77,379.99 342,394.46 342.59,405.88 Z" id="Path"></path>
            <path d="M342.59,405.88 C341.309363,408.094646 339.111185,409.626044 336.59,410.06 C330.281141,410.79778 323.88772,410.208509 317.82,408.33 C317.82,408.33 350.3,398.01 319.02,372.92 L327.4,372.92 L330.2,371.86 C334.77,379.99 342,394.46 342.59,405.88 Z" id="Path" fill="#6C63FF" fill-rule="nonzero"></path>
            <path d="M299.22,289.42 C287.919892,294.529732 274.627864,291.988197 266.01,283.07 C266.163333,282.596667 266.303333,282.136667 266.43,281.69 C267.124752,279.269654 267.560528,276.782376 267.73,274.27 C267.73,274.27 304.17,261.37 297.07,274.27 C293.59,280.64 295.93,285.8 299.22,289.42 Z" id="Path" fill="#000000" fill-rule="nonzero" opacity="0.1"></path>
            <path d="M316.42,261.41 L316.42,261.69 C316.42,262.69 316.36,263.59 316.26,264.52 C316.16,265.45 316.03,266.29 315.86,267.16 C313.249661,280.151558 302.26048,289.784401 289.038946,290.67067 C275.817411,291.556938 263.6409,283.476942 259.32,270.95 C259.13,270.38 258.95,269.81 258.79,269.23 C258.084799,266.683233 257.728217,264.052598 257.73,261.41 C257.73,260.73 257.73,260.06 257.81,259.41 C258.901008,243.642971 272.285087,231.573417 288.080623,232.112421 C303.876159,232.651426 316.406342,245.605276 316.42,261.41 L316.42,261.41 Z" id="Path" fill="#A1616A" fill-rule="nonzero"></path>
            <path d="M316.42,261.69 C316.264856,262.624813 316.211212,263.573657 316.26,264.52 C316.26854,265.031233 316.24181,265.542446 316.18,266.05 C316.122579,266.432455 316.014985,266.805671 315.86,267.16 C314.67,269.94 310.8,271.74 308.25,269.95 C307.265376,269.140127 306.481584,268.113327 305.96,266.95 C303.25,261.95 299.48,256.12 293.55,256.02 C291.02,255.97 288.64,257.02 286.19,257.66 C283.74,258.3 280.85,258.36 279.02,256.66 C277.62,255.38 276.96,253.19 275.08,252.74 C273.2,252.29 271.46,254.02 270.6,255.74 C269.74,257.46 269.05,259.41 267.31,260.29 C266.53,260.67 265.62,260.78 264.86,261.19 C261.35,263.12 262.96,269.85 259.32,270.94 L258.97,271.02 L258.79,269.22 C258.456667,265.94 258.123333,262.66 257.79,259.38 C258.881008,243.612971 272.265087,231.543417 288.060623,232.082421 C303.856159,232.621426 316.386342,245.575276 316.4,261.38 L316.42,261.69 Z" id="Path" fill="#000000" fill-rule="nonzero" opacity="0.1"></path>
            <path d="M264.29,217.61 C260.85,219.07 257.29,221.32 256.48,224.84 C256.296405,226.406215 256.242889,227.984948 256.32,229.56 C256.16,232.74 254.64,235.69 253.68,238.73 C252.72,241.77 252.36,245.33 254.3,247.92 C254.91,248.73 255.71,249.4 256.25,250.25 C256.956918,251.564784 257.344047,253.027654 257.38,254.52 L258.97,270.39 C263.07,269.63 261.24,262.54 264.86,260.56 C265.62,260.15 266.53,260.03 267.31,259.65 C269.05,258.78 269.73,256.79 270.6,255.1 C271.47,253.41 273.17,251.68 275.08,252.1 C276.99,252.52 277.62,254.74 279.02,256.01 C280.85,257.68 283.76,257.6 286.2,257.01 C288.64,256.42 291.02,255.32 293.55,255.36 C299.48,255.46 303.25,261.26 305.96,266.29 C306.485286,267.45112 307.26848,268.477138 308.25,269.29 C311.13,271.29 315.68,268.76 316.18,265.38 C316.45,263.49 315.86,261.38 316.96,259.77 C318.06,258.16 320.41,257.77 322.26,256.97 C326.97,254.8 328.43,248.92 327.65,243.97 C327.08,240.42 325.65,236.75 326.83,233.33 C327.23,232.15 327.92,231.07 328.29,229.89 C329.29,226.57 327.63,222.89 324.97,220.55 C322.31,218.21 318.83,216.89 315.41,215.74 C306.61,212.8 297.41,209.95 288.02,209.34 C283.92,209.08 278.55,207.8 275.3,210.34 C271.5,213.38 269.06,215.59 264.29,217.61 Z" id="Path" fill="#464353" fill-rule="nonzero"></path>
            <circle id="Oval" fill="#000000" fill-rule="nonzero" opacity="0.1" cx="271.96" cy="309.55" r="1.61"></circle>
            <circle id="Oval" fill="#444053" fill-rule="nonzero" cx="271.96" cy="308.91" r="1.61"></circle>
            <circle id="Oval" fill="#000000" fill-rule="nonzero" opacity="0.1" cx="261.65" cy="410.8" r="1.61"></circle>
            <circle id="Oval" fill="#444053" fill-rule="nonzero" cx="261.65" cy="410.16" r="1.61"></circle>
            <circle id="Oval" fill="#000000" fill-rule="nonzero" opacity="0.1" cx="267.13" cy="437.57" r="1.61"></circle>
            <circle id="Oval" fill="#444053" fill-rule="nonzero" cx="267.13" cy="436.92" r="1.61"></circle>
            <path d="M322.55,335.07 C322.55,335.07 326.1,359.15 322.55,363.35 C319,367.55 322.55,335.07 322.55,335.07 Z" id="Path" fill="#000000" fill-rule="nonzero" opacity="0.1"></path>
            <path d="M217.11,379.75 C217.11,379.75 210.33,394.34 217.11,408.33 C223.89,422.32 228.11,428 225.81,436.93 C223.51,445.86 217.11,379.75 217.11,379.75 Z" id="Path" fill="#000000" fill-rule="nonzero" opacity="0.1"></path>
            <path d="M537.3,647.39 C527.3,654.16 512.15,650.94 512.15,650.94 C512.15,650.94 489.26,639.94 482.49,639.94 C475.72,639.94 459.27,633.17 459.27,633.17 L459.82,628.61 C466.51,629.9 481.7,632.96 483.45,634.46 C485.71,636.4 513.45,645.75 513.45,645.75 C513.45,645.75 532.33,643.39 537.59,635.63 C541.06,639.24 542.5,643.85 537.3,647.39 Z" id="Path" fill="#000000" fill-rule="nonzero" opacity="0.1"></path>
            <g id="Group" opacity="0.1" transform="translate(252.000000, 225.000000)" fill="#000000" fill-rule="nonzero">
                <path d="M4.32,1.99 C4.32,1.64 4.32,1.29 4.32,0.93 C4.32,1.34 4.32,1.74 4.32,2.14 C4.32488174,2.09011916 4.32488174,2.03988084 4.32,1.99 Z" id="Path"></path>
                <path d="M70.26,29.41 C68.41,30.27 66.08,30.57 64.96,32.21 C63.84,33.85 64.45,35.93 64.18,37.82 C63.68,41.2 59.13,43.75 56.25,41.73 C55.2664205,40.9191203 54.4828312,39.8925842 53.96,38.73 C51.25,33.73 47.48,27.9 41.55,27.8 C39.02,27.8 36.64,28.8 34.2,29.45 C31.76,30.1 28.85,30.15 27.02,28.45 C25.62,27.18 24.96,24.99 23.08,24.54 C21.2,24.09 19.47,25.81 18.6,27.54 C17.73,29.27 17.05,31.22 15.31,32.09 C14.53,32.47 13.62,32.59 12.86,33 C9.25,35 11.07,42.07 6.97,42.83 L5.38,26.96 C5.34404723,25.4676541 4.95691763,24.0047838 4.25,22.69 C3.71,21.84 2.91,21.17 2.3,20.36 C1.57268395,19.3565178 1.11789463,18.1816454 0.98,16.95 C0.633255576,19.0452991 1.10590081,21.1936865 2.3,22.95 C2.91,23.76 3.71,24.43 4.25,25.28 C4.95691763,26.5947838 5.34404723,28.0576541 5.38,29.55 L6.97,45.42 C11.07,44.66 9.25,37.57 12.86,35.59 C13.62,35.18 14.53,35.06 15.31,34.68 C17.05,33.81 17.74,31.82 18.6,30.13 C19.46,28.44 21.17,26.71 23.08,27.13 C24.99,27.55 25.62,29.77 27.02,31.04 C28.85,32.71 31.76,32.63 34.2,32.04 C36.64,31.45 39.02,30.35 41.55,30.39 C47.48,30.49 51.25,36.29 53.96,41.32 C54.4852863,42.4811197 55.2684805,43.5071383 56.25,44.32 C59.13,46.32 63.68,43.79 64.18,40.41 C64.45,38.52 63.86,36.41 64.96,34.8 C66.06,33.19 68.41,32.8 70.26,32 C74.57,30 76.15,24.93 75.79,20.3 C75.5,24.07 73.78,27.79 70.26,29.41 Z" id="Path"></path>
                <path d="M76.29,2.34 C75.92,3.52 75.23,4.6 74.83,5.78 C74.4100175,7.16911462 74.2974113,8.63299529 74.5,10.07 C74.5647397,9.50521592 74.6887565,8.94881636 74.87,8.41 C75.27,7.23 75.96,6.15 76.33,4.97 C76.6568409,3.87712884 76.7219284,2.72268308 76.52,1.6 C76.456051,1.85044111 76.3792832,2.09743302 76.29,2.34 L76.29,2.34 Z" id="Path"></path>
            </g>
            <path d="M233.55,370.71 C226.13,369.09 208.72,363.95 208.72,363.95 L205.61,363.33 C205.61,352.5 206.19,342.02 206.39,338.46 L206.46,338.46 C206.46,338.46 221.3,343.29 224.84,345.87 C228.38,348.45 239.35,347.81 239.35,347.81 C239.35,347.81 256.44,348.81 270.63,364.58 C284.82,380.35 240.97,372.34 233.55,370.71 Z" id="Path" fill="#000000" fill-rule="nonzero" opacity="0.1"></path>
            <path d="M161.07,341.93 C159.714302,342.535144 158.766664,343.796815 158.563258,345.267442 C158.359851,346.738069 158.929454,348.209594 160.07,349.16 C163.99,352.41 169.73,356.31 175.2,356.86 C184.34,357.78 206.32,362.19 208.51,362.63 L208.85,362.71 C210.66,363.24 226.52,367.89 233.51,369.42 C240.93,371.05 284.78,379.11 270.59,363.31 C257.53,348.76 242.02,346.79 239.59,346.56 C239.400132,346.550002 239.209868,346.550002 239.02,346.56 C237.36,346.64 228.02,346.96 224.76,344.56 C223.073612,343.505664 221.288513,342.618138 219.43,341.91 C212.419867,339.009129 205.107975,336.899414 197.63,335.62 L182.5,333.07 C181.637125,332.919285 180.74888,333.030751 179.95,333.39 L161.07,341.93 Z" id="Path" fill="#A1616A" fill-rule="nonzero"></path>
            <path d="M192.92,299.78 L185.83,299.14 C185.83,299.14 178.09,304.94 172.28,304.94 C166.47,304.94 162.93,312.36 162.93,312.36 C162.93,312.36 153.26,316.87 150.03,317.52 C146.8,318.17 141.33,321.39 142.94,322.68 C144.55,323.97 142.62,326.87 139.72,329.13 C136.82,331.39 132.3,342.99 136.17,344.6 C140.04,346.21 150.68,349.44 153.58,351.05 C156.48,352.66 160.03,351.05 160.03,351.05 C160.03,351.05 177.11,328.8 185.82,333 C194.53,337.2 206.5,337.19 206.5,337.19 L215.86,317.52 L192.92,299.78 Z" id="Path" fill="#6C63FF" fill-rule="nonzero"></path>
            <polygon id="Path" fill="#464353" fill-rule="nonzero" points="208.44 418.07 208.44 501.78 342.38 501.78 342.38 515.78 209.84 515.78 209.84 575.78 195.84 575.78 195.84 418.07"></polygon>
            <path d="M147.05,316.25 L200.05,316.25 L205.63,411.13 L315.31,411.13 C324.820693,411.0392 334.019662,414.518251 341.09,420.88 C347.44317,426.679651 351.389795,434.651406 352.15,443.22 L352.15,585.53 L338.2,585.53 L339.58,447.63 C339.599158,446.194431 339.451502,444.761496 339.14,443.36 C338.28,439.6 335.87,432.74 329.42,428.89 C326.594299,427.261031 323.381303,426.424961 320.12,426.47 L195.89,426.47 L188.89,327.41 L147.05,327.41 L147.05,316.25 Z" id="Path" fill="#464353" fill-rule="nonzero"></path>
            <path d="M128.92,563.2 C128.92,625.62 165.15,676.2 209.84,676.2 C254.53,676.2 290.76,625.6 290.76,563.2 C290.76,500.8 254.53,450.2 209.84,450.2 C165.15,450.2 128.92,500.79 128.92,563.2 Z M134.5,561.69 C134.5,507.05 166.36,462.75 205.65,462.75 C244.94,462.75 276.81,507.05 276.81,561.69 C276.81,616.33 244.95,660.63 205.65,660.63 C166.35,660.63 134.5,616.33 134.5,561.69 Z" id="Shape" fill="#35323E" fill-rule="nonzero"></path>
            <ellipse id="Oval" fill="#35323E" fill-rule="nonzero" cx="201.47" cy="566.69" rx="12.56" ry="18.84"></ellipse>
            <ellipse id="Oval" fill="#464353" fill-rule="nonzero" cx="198.68" cy="567.39" rx="2.79" ry="5.58"></ellipse>
            <path d="M349.36,539.49 L349.36,554.83 C353.74,552.1 358.55,552.83 362.8,554.67 C369.649043,557.795892 374.753486,563.805429 376.73,571.07 C380.11,582.77 386.73,605.79 392.61,627.43 C400.98,658.07 416.33,651.07 416.33,651.07 L523.06,658.75 L568.41,635.75 L568.41,621.75 L454,621.75 C454,621.75 427.49,631.52 416.33,635.75 C405.17,639.98 409.33,631.56 394.62,578.92 C379.91,526.28 349.36,539.49 349.36,539.49 Z" id="Path" fill="#464353" fill-rule="nonzero"></path>
            <polygon id="Path" fill="#000000" fill-rule="nonzero" opacity="0.1" points="416.33 651.1 523.06 658.77 568.41 635.75 456.79 634.36"></polygon>
            <ellipse id="Oval" fill="#6C63FF" fill-rule="nonzero" cx="1025.08" cy="635.11" rx="59.47" ry="11.44"></ellipse>
            <ellipse id="Oval" fill="#3F3D56" fill-rule="nonzero" cx="1024.09" cy="630.25" rx="6.92" ry="9.06"></ellipse>
            <ellipse id="Oval" fill="#3F3D56" fill-rule="nonzero" cx="1024.09" cy="619.17" rx="6.92" ry="9.06"></ellipse>
            <ellipse id="Oval" fill="#3F3D56" fill-rule="nonzero" cx="1024.09" cy="608.1" rx="6.92" ry="9.06"></ellipse>
            <ellipse id="Oval" fill="#3F3D56" fill-rule="nonzero" cx="1024.09" cy="597.02" rx="6.92" ry="9.06"></ellipse>
            <ellipse id="Oval" fill="#3F3D56" fill-rule="nonzero" cx="1024.09" cy="585.94" rx="6.92" ry="9.06"></ellipse>
            <ellipse id="Oval" fill="#3F3D56" fill-rule="nonzero" cx="1024.09" cy="574.86" rx="6.92" ry="9.06"></ellipse>
            <ellipse id="Oval" fill="#3F3D56" fill-rule="nonzero" cx="1024.09" cy="563.78" rx="6.92" ry="9.06"></ellipse>
            <path d="M1050.01,487.98 C1050.95399,486.772437 1051.81592,485.502922 1052.59,484.18 L1034.39,481.18 L1054.07,481.32 C1057.87807,473.021275 1058.10589,463.521728 1054.7,455.05 L1028.31,468.74 L1052.65,450.84 C1046.43433,440.093517 1034.738,433.717511 1022.33786,434.315981 C1009.93773,434.91445 998.909786,442.387201 993.757909,453.682318 C988.606032,464.977434 990.192735,478.203919 997.87,487.96 C996.398693,489.836684 995.13154,491.864799 994.09,494.01 L1017.71,506.28 L992.5,497.85 C988.908479,508.465851 990.916792,520.177252 997.84,528.99 C987.153273,542.585392 988.708403,562.110755 1001.4124,573.843155 C1014.1164,585.575555 1033.7036,585.575555 1046.4076,573.843155 C1059.1116,562.110755 1060.66673,542.585392 1049.98,528.99 C1059.42675,516.955792 1059.42675,500.024208 1049.98,487.99 L1050.01,487.98 Z" id="Path" fill="#6C63FF" fill-rule="nonzero"></path>
            <path d="M990.78,508.48 C990.763569,515.920457 993.262063,523.148118 997.87,528.99 C987.183273,542.585392 988.738403,562.110755 1001.4424,573.843155 C1014.1464,585.575555 1033.7336,585.575555 1046.4376,573.843155 C1059.1416,562.110755 1060.69673,542.585392 1050.01,528.99 C1054.5,523.35 990.78,504.76 990.78,508.48 Z" id="Path" fill="#000000" fill-rule="nonzero" opacity="0.1"></path>
            <ellipse id="Oval" fill="#6C63FF" fill-rule="nonzero" cx="93.08" cy="637.57" rx="40.92" ry="7.87"></ellipse>
            <ellipse id="Oval" fill="#3F3D56" fill-rule="nonzero" cx="92.4" cy="634.23" rx="4.76" ry="6.24"></ellipse>
            <ellipse id="Oval" fill="#3F3D56" fill-rule="nonzero" cx="92.4" cy="626.61" rx="4.76" ry="6.24"></ellipse>
            <ellipse id="Oval" fill="#3F3D56" fill-rule="nonzero" cx="92.4" cy="618.99" rx="4.76" ry="6.24"></ellipse>
            <ellipse id="Oval" fill="#3F3D56" fill-rule="nonzero" cx="92.4" cy="611.36" rx="4.76" ry="6.24"></ellipse>
            <ellipse id="Oval" fill="#3F3D56" fill-rule="nonzero" cx="92.4" cy="603.74" rx="4.76" ry="6.24"></ellipse>
            <ellipse id="Oval" fill="#3F3D56" fill-rule="nonzero" cx="92.4" cy="596.12" rx="4.76" ry="6.24"></ellipse>
            <ellipse id="Oval" fill="#3F3D56" fill-rule="nonzero" cx="92.4" cy="588.5" rx="4.76" ry="6.24"></ellipse>
            <path d="M110.23,536.34 C110.881158,535.510876 111.475832,534.63891 112.01,533.73 L99.49,531.73 L113.03,531.83 C115.658417,526.120026 115.813996,519.578472 113.46,513.75 L95.3,523.17 L112.05,510.86 C107.777589,503.461125 99.7300556,499.068621 91.1960247,499.477485 C82.6619939,499.886348 75.0712441,505.028079 71.5257349,512.80151 C67.9802257,520.57494 69.0739664,529.67772 74.36,536.39 C73.3488122,537.680927 72.4772787,539.07538 71.76,540.55 L88.01,549 L70.68,543.18 C69.886582,545.539002 69.4813127,548.011145 69.48,550.5 C69.4691721,555.619033 71.1889018,560.591449 74.36,564.61 C66.9898309,573.967477 68.0524327,587.418689 76.8004369,595.502883 C85.5484411,603.587077 99.0415589,603.587077 107.789563,595.502883 C116.537567,587.418689 117.600169,573.967477 110.23,564.61 C116.750752,556.333388 116.750752,544.666612 110.23,536.39 L110.23,536.34 Z" id="Path" fill="#6C63FF" fill-rule="nonzero"></path>
            <path d="M69.5,550.45 C69.4891721,555.569033 71.2089018,560.541449 74.38,564.56 C67.0098309,573.917477 68.0724327,587.368689 76.8204369,595.452883 C85.5684411,603.537077 99.0615589,603.537077 107.809563,595.452883 C116.557567,587.368689 117.620169,573.917477 110.25,564.56 C113.29,560.68 69.5,547.89 69.5,550.45 Z" id="Path" fill="#000000" fill-rule="nonzero" opacity="0.1"></path>
            <ellipse id="Oval" fill="#6C63FF" fill-rule="nonzero" cx="608.08" cy="613.06" rx="29.92" ry="5.75"></ellipse>
            <ellipse id="Oval" fill="#3F3D56" fill-rule="nonzero" cx="607.58" cy="610.61" rx="3.48" ry="4.56"></ellipse>
            <ellipse id="Oval" fill="#3F3D56" fill-rule="nonzero" cx="607.58" cy="605.04" rx="3.48" ry="4.56"></ellipse>
            <ellipse id="Oval" fill="#3F3D56" fill-rule="nonzero" cx="607.58" cy="599.47" rx="3.48" ry="4.56"></ellipse>
            <ellipse id="Oval" fill="#3F3D56" fill-rule="nonzero" cx="607.58" cy="593.9" rx="3.48" ry="4.56"></ellipse>
            <ellipse id="Oval" fill="#3F3D56" fill-rule="nonzero" cx="607.58" cy="588.32" rx="3.48" ry="4.56"></ellipse>
            <ellipse id="Oval" fill="#3F3D56" fill-rule="nonzero" cx="607.58" cy="582.75" rx="3.48" ry="4.56"></ellipse>
            <ellipse id="Oval" fill="#3F3D56" fill-rule="nonzero" cx="607.58" cy="577.18" rx="3.48" ry="4.56"></ellipse>
            <path d="M620.62,539.07 C621.097439,538.467999 621.531849,537.833092 621.92,537.17 L612.77,535.66 L622.67,535.74 C623.674298,533.54317 624.192763,531.155506 624.19,528.74 C624.192623,526.601454 623.78175,524.48257 622.98,522.5 L609.7,529.39 L621.95,520.39 C618.807733,515.016285 612.934593,511.839477 606.71737,512.150604 C600.500147,512.46173 594.973507,516.209013 592.383426,521.86959 C589.793344,527.530168 590.570861,534.162011 594.4,539.07 C593.659044,539.999649 593.018795,541.005275 592.49,542.07 L604.37,548.24 L591.71,543.99 C589.903203,549.332467 590.914914,555.225967 594.4,559.66 C589.021082,566.497987 589.8012,576.321772 596.191922,582.225118 C602.582645,588.128465 612.437355,588.128465 618.828078,582.225118 C625.2188,576.321772 625.998918,566.497987 620.62,559.66 C625.380472,553.603477 625.380472,545.076523 620.62,539.02 L620.62,539.07 Z" id="Path" fill="#6C63FF" fill-rule="nonzero"></path>
            <path d="M590.83,549.36 C590.822878,553.104039 592.080899,556.740671 594.4,559.68 C589.021082,566.517987 589.8012,576.341772 596.191922,582.245118 C602.582645,588.148465 612.437355,588.148465 618.828078,582.245118 C625.2188,576.341772 625.998918,566.517987 620.62,559.68 C622.86,556.84 590.83,547.49 590.83,549.36 Z" id="Path" fill="#000000" fill-rule="nonzero" opacity="0.1"></path>
            <circle id="Oval" fill="#6C63FF" fill-rule="nonzero" opacity="0.1" cx="467.93" cy="93.69" r="15.27"></circle>
            <circle id="Oval" fill="#6C63FF" fill-rule="nonzero" opacity="0.1" cx="522.56" cy="25.6" r="25.6"></circle>
            <circle id="Oval" fill="#6C63FF" fill-rule="nonzero" opacity="0.1" cx="488.68" cy="149.82" r="25.6"></circle>
            <circle id="Oval" fill="#6C63FF" fill-rule="nonzero" opacity="0.1" cx="963.43" cy="254.69" r="15.27"></circle>
            <circle id="Oval" fill="#6C63FF" fill-rule="nonzero" opacity="0.1" cx="908.79" cy="186.6" r="25.6"></circle>
            <circle id="Oval" fill="#6C63FF" fill-rule="nonzero" opacity="0.1" cx="942.68" cy="310.82" r="25.6"></circle>
            <circle id="Oval" fill="#6C63FF" fill-rule="nonzero" opacity="0.1" cx="100.27" cy="282.35" r="8.65"></circle>
            <circle id="Oval" fill="#6C63FF" fill-rule="nonzero" opacity="0.1" cx="137.35" cy="249.61" r="14.5"></circle>
            <circle id="Oval" fill="#6C63FF" fill-rule="nonzero" opacity="0.1" cx="67.95" cy="272.1" r="14.5"></circle>
            <circle id="Oval" fill="#6C63FF" fill-rule="nonzero" opacity="0.1" cx="216.08" cy="119.32" r="36.25"></circle>
            <circle id="Oval" fill="#6C63FF" fill-rule="nonzero" opacity="0.1" cx="425.08" cy="303.32" r="20.92"></circle>
            <circle id="Oval" fill="#6C63FF" fill-rule="nonzero" opacity="0.1" cx="579.08" cy="403.32" r="20.92"></circle>
        </g>
    </g>
</svg>