<svg width="100%" viewBox="0 0 1101 807" version="1.1" xmlns="http://www.w3.org/2000/svg" xmlns:xlink="http://www.w3.org/1999/xlink">
    <defs>
        <linearGradient x1="49.9718512%" y1="99.9975676%" x2="49.9718512%" y2="-0.00215705362%" id="linearGradient-1">
            <stop stop-color="#808080" stop-opacity="0.25" offset="0%"></stop>
            <stop stop-color="#808080" stop-opacity="0.12" offset="54%"></stop>
            <stop stop-color="#808080" stop-opacity="0.1" offset="100%"></stop>
        </linearGradient>
    </defs>
    <g id="Page-1" stroke="none" stroke-width="1" fill="none" fill-rule="evenodd">
        <g id="undraw_operating_system_4lr6" fill-rule="nonzero">
            <ellipse id="Oval" fill="#38D39F" opacity="0.1" cx="630.72" cy="780.56" rx="122.56" ry="26.18"></ellipse>
            <path d="M1071.55,683.84 C1047.2,704.04 1012.55,712.4 979.04,717.68 L973.4,718.54 C914.83,727.28 855.08,729.06 795.61,730.82 C629.74,735.73 463.44,740.63 298.01,729.31 C224.85,724.31 149.88,715.55 85.76,685.61 L84.09,684.82 C83.26,684.43 82.43,684.04 81.6,683.63 C70.2154129,678.195536 59.3100105,671.809519 49,664.54 C30.69,651.48 15.57,635.54 7.58,616.63 C-4.94,586.97 1.68,553.63 15.98,524.63 C30.28,495.63 51.78,469.51 70.32,442.2 C75.76,434.2 80.92,425.9 85.72,417.39 C115.72,364.02 130.6,302.26 99.15,250.83 C94.9987814,244.272785 90.5163092,237.931238 85.72,231.83 C78.05,221.83 70.25,211.83 64.98,200.76 C52.69,175 55.33,146.03 59.81,118.51 C65.81,81.92 76.86,42.51 111.19,19.65 C146.86,-4.09 197.49,-2.89 241.76,5.65 C310.59,18.84 374.12,46.45 438.25,71.35 C502.38,96.25 569.6,118.93 640.11,121.37 C702.37,123.54 775,107.37 816.34,65.29 C856.49,24.44 931.94,21.35 986.34,46.02 C1038.25,69.56 1071.82,119.38 1069.34,169.14 C1066.18,231.24 1014.41,280.97 973.44,333.84 C966.63,342.63 960.11,351.52 954.16,360.56 C934.74,390.09 921.01,425.56 934.38,457.44 C941.88,475.29 956.19,488.91 973.44,500.8 C1012.09,527.43 1065.44,545.35 1089.44,582.63 C1110.11,614.79 1102.45,658.19 1071.55,683.84 Z" id="Path" fill="#38D39F" opacity="0.1"></path>
            <ellipse id="Oval" fill="#38D39F" cx="973.5" cy="704.85" rx="57.01" ry="10.96"></ellipse>
            <ellipse id="Oval" fill="#3F3D56" cx="972.55" cy="700.19" rx="6.64" ry="8.69"></ellipse>
            <ellipse id="Oval" fill="#3F3D56" cx="972.55" cy="689.57" rx="6.64" ry="8.69"></ellipse>
            <ellipse id="Oval" fill="#3F3D56" cx="972.55" cy="678.94" rx="6.64" ry="8.69"></ellipse>
            <ellipse id="Oval" fill="#3F3D56" cx="972.55" cy="668.32" rx="6.64" ry="8.69"></ellipse>
            <ellipse id="Oval" fill="#3F3D56" cx="972.55" cy="657.7" rx="6.64" ry="8.69"></ellipse>
            <ellipse id="Oval" fill="#3F3D56" cx="972.55" cy="647.08" rx="6.64" ry="8.69"></ellipse>
            <ellipse id="Oval" fill="#3F3D56" cx="972.55" cy="636.46" rx="6.64" ry="8.69"></ellipse>
            <path d="M997.4,563.78 C998.30849,562.626687 999.1339,561.410292 999.87,560.14 L982.43,557.28 L1001.29,557.42 C1004.95845,549.463235 1005.17917,540.344941 1001.9,532.22 L976.59,545.37 L999.93,528.22 C993.985486,517.889839 982.763653,511.750962 970.858631,512.316577 C958.953609,512.882192 948.364332,520.057329 943.425969,530.904543 C938.487606,541.751756 940.029341,554.449725 947.42,563.8 C946.003316,565.596021 944.78616,567.540788 943.79,569.6 L966.43,581.37 L942.29,573.27 C938.842027,583.450543 940.771949,594.683971 947.42,603.13 C937.17085,616.167648 938.661735,634.892693 950.844792,646.144291 C963.027848,657.395889 981.812152,657.395889 993.995208,646.144291 C1006.17826,634.892693 1007.66915,616.167648 997.42,603.13 C1006.50128,591.596382 1006.50128,575.343618 997.42,563.81 L997.4,563.78 Z" id="Path" fill="#38D39F"></path>
            <path d="M940.61,583.44 C940.601924,590.573125 943.001393,597.500228 947.42,603.1 C937.17085,616.137648 938.661735,634.862693 950.844792,646.114291 C963.027848,657.365889 981.812152,657.365889 993.995208,646.114291 C1006.17826,634.862693 1007.66915,616.137648 997.42,603.1 C1001.66,597.69 940.61,579.87 940.61,583.44 Z" id="Path" fill="#000000" opacity="0.1"></path>
            <path d="M135.73,673.91 C135.73,679.5 113.92,684.12 85.73,684.78 L84.06,684.78 C83.23,684.39 82.4,684 81.57,683.59 C70.19713,678.166851 59.301858,671.794271 49,664.54 C55.85,663.74 63.64,663.2 72,663.02 L73.13,663.02 C74.95,663.02 76.8,662.96 78.67,662.96 C79.89,662.96 81.1,662.96 82.29,662.96 L83.47,662.96 C84.23,662.96 84.98,662.96 85.72,662.96 C113.92,663.69 135.73,668.37 135.73,673.91 Z" id="Path" fill="#38D39F"></path>
            <ellipse id="Oval" fill="#3F3D56" cx="77.76" cy="669.25" rx="6.64" ry="8.69"></ellipse>
            <ellipse id="Oval" fill="#3F3D56" cx="77.76" cy="658.63" rx="6.64" ry="8.69"></ellipse>
            <ellipse id="Oval" fill="#3F3D56" cx="77.76" cy="648.01" rx="6.64" ry="8.69"></ellipse>
            <ellipse id="Oval" fill="#3F3D56" cx="77.76" cy="637.39" rx="6.64" ry="8.69"></ellipse>
            <ellipse id="Oval" fill="#3F3D56" cx="77.76" cy="626.77" rx="6.64" ry="8.69"></ellipse>
            <ellipse id="Oval" fill="#3F3D56" cx="77.76" cy="616.15" rx="6.64" ry="8.69"></ellipse>
            <ellipse id="Oval" fill="#3F3D56" cx="77.76" cy="605.52" rx="6.64" ry="8.69"></ellipse>
            <path d="M102.61,532.84 C103.518198,531.687764 104.346786,530.474952 105.09,529.21 L87.64,526.37 L106.51,526.51 C110.169983,518.554145 110.387046,509.441088 107.11,501.32 L81.81,514.45 L105.15,497.29 C99.1946909,486.98189 87.9805957,480.863415 76.089559,481.434456 C64.1985222,482.005497 53.6223322,489.170402 48.6821987,500.001742 C43.7420652,510.833082 45.265477,523.51657 52.63,532.87 C51.2189838,534.670006 50.0022215,536.614144 49,538.67 L71.64,550.37 L47.5,542.3 C44.0670588,552.481716 45.9957279,563.707849 52.63,572.16 C42.38085,585.197648 43.8717355,603.922693 56.0547919,615.174291 C68.2378484,626.425889 87.0221516,626.425889 99.2052081,615.174291 C111.388265,603.922693 112.87915,585.197648 102.63,572.16 C111.711284,560.626382 111.711284,544.373618 102.63,532.84 L102.61,532.84 Z" id="Path" fill="#38D39F"></path>
            <path d="M45.83,552.5 C45.8182922,559.632064 48.2142819,566.559293 52.63,572.16 C42.38085,585.197648 43.8717355,603.922693 56.0547919,615.174291 C68.2378484,626.425889 87.0221516,626.425889 99.2052081,615.174291 C111.388265,603.922693 112.87915,585.197648 102.63,572.16 C106.87,566.75 45.83,548.93 45.83,552.5 Z" id="Path" fill="#000000" opacity="0.1"></path>
            <g id="Group" opacity="0.2" transform="translate(186.000000, 6.000000)">
                <path d="M120.84,549.29 C120.84,550.23 120.74,551.15 120.64,552.05 C112.88,548.93 105.24,545.62 97.72,542.12 C93.7191844,541.592834 89.9985454,539.778145 87.12,536.95 C84.93,535.85 82.75,534.71 80.58,533.56 C81.068782,532.525619 81.6232481,531.523571 82.24,530.56 C86.44,523.9 92.84,519.73 99.89,519.96 C106.94,520.19 113.04,524.74 116.82,531.62 C119.716576,537.04433 121.104831,543.146437 120.84,549.29 L120.84,549.29 Z" id="Path" fill="#3F3D56"></path>
                <path d="M122,514.37 C121.855718,520.496032 120.08524,526.473553 116.87,531.69 C112.66,538.33 106.27,542.5 99.22,542.27 C98.73,542.27 98.22,542.21 97.77,542.17 C93.7691844,541.642834 90.0485454,539.828145 87.17,537 C85.2144351,535.15014 83.5670025,532.9997 82.29,530.63 C76.5404443,519.566962 76.9570866,506.310161 83.39,495.63 C87.6,488.97 93.99,484.8 101.04,485.03 C108.09,485.26 114.19,489.81 117.97,496.69 C120.86718,502.118039 122.258664,508.222614 122,514.37 L122,514.37 Z" id="Path" fill="#3F3D56"></path>
                <ellipse id="Oval" fill="#3F3D56" transform="translate(101.203239, 478.688321) rotate(-88.190000) translate(-101.203239, -478.688321) " cx="101.203239" cy="478.688321" rx="28.63" ry="21.87"></ellipse>
                <ellipse id="Oval" fill="#3F3D56" transform="translate(102.305746, 443.714340) rotate(-88.190000) translate(-102.305746, -443.714340) " cx="102.305746" cy="443.71434" rx="28.63" ry="21.87"></ellipse>
                <ellipse id="Oval" fill="#3F3D56" transform="translate(103.407938, 408.740354) rotate(-88.190000) translate(-103.407938, -408.740354) " cx="103.407938" cy="408.740354" rx="28.63" ry="21.87"></ellipse>
                <path d="M29.12,166.83 C26.2565523,162.932202 23.6638021,158.842606 21.36,154.59 L79.08,146.97 L17,145.47 C5.789091,118.89426 6.01332905,88.8752954 17.62,62.47 L99.62,108.32 L24.47,49.37 C45.1951085,16.1395557 82.726295,-2.75410915 121.763446,0.391272593 C160.800596,3.53665433 194.822568,28.1956477 209.959828,64.3156687 C225.097088,100.43569 218.820962,141.982901 193.69,172.02 C198.145524,178.083242 201.937249,184.607289 205,191.48 L129.23,227.86 L209.56,203.69 C219.828017,237.569674 212.306349,274.343111 189.56,301.47 C221.977875,345.454288 215.1419,406.968372 173.85838,442.762325 C132.57486,478.556279 70.7128641,476.605236 31.7669328,438.280953 C-7.1789986,399.956671 -10.1251011,338.134073 25,296.28 C-3.68192702,257.360636 -1.99588268,203.86592 29.08,166.83 L29.12,166.83 Z" id="Path" fill="#38D39F"></path>
                <path d="M214.05,237.45 C213.34257,260.926784 204.731047,283.477416 189.61,301.45 C222.010811,345.434159 215.168808,406.93355 173.893156,442.720968 C132.617503,478.508386 70.7691823,476.565881 31.8206571,438.258816 C-7.12786805,399.951752 -10.0970999,338.144214 25,296.28 C11.57,278.03 214.42,225.7 214.05,237.45 Z" id="Path" fill="#000000" opacity="0.1"></path>
            </g>
            <g id="Group" opacity="0.2" transform="translate(713.000000, 89.000000)">
                <path d="M86.18,391.51 C86.18,392.18 86.11,392.83 86.04,393.51 C80.5,391.316667 75.0633333,388.963333 69.73,386.45 C66.8821143,386.070351 64.2335256,384.779383 62.18,382.77 C60.63,381.98 59.07,381.17 57.53,380.36 C57.8792163,379.62644 58.2732962,378.915093 58.71,378.23 C61.71,373.49 66.25,370.53 71.27,370.69 C76.29,370.85 80.63,374.09 83.32,378.99 C85.3696294,382.834786 86.3568813,387.156602 86.18,391.51 Z" id="Path" fill="#3F3D56"></path>
                <path d="M87,366.62 C86.8999572,370.98122 85.6401076,375.237096 83.35,378.95 C80.35,383.67 75.81,386.64 70.79,386.48 L69.79,386.41 C66.9421143,386.030351 64.2935256,384.739383 62.24,382.73 C60.8529868,381.407482 59.68208,379.875518 58.77,378.19 C54.6915304,370.323994 54.9868177,360.905086 59.55,353.31 C62.55,348.57 67.1,345.6 72.11,345.76 C77.12,345.92 81.48,349.16 84.16,354.06 C86.2073675,357.91939 87.187761,362.255215 87,366.62 L87,366.62 Z" id="Path" fill="#3F3D56"></path>
                <ellipse id="Oval" fill="#3F3D56" transform="translate(72.250134, 341.268245) rotate(-88.190000) translate(-72.250134, -341.268245) " cx="72.2501344" cy="341.268245" rx="20.37" ry="15.56"></ellipse>
                <ellipse id="Oval" fill="#3F3D56" transform="translate(73.027505, 316.382484) rotate(-88.190000) translate(-73.027505, -316.382484) " cx="73.0275052" cy="316.382484" rx="20.37" ry="15.56"></ellipse>
                <ellipse id="Oval" fill="#3F3D56" transform="translate(73.814555, 291.497033) rotate(-88.190000) translate(-73.814555, -291.497033) " cx="73.8145552" cy="291.497033" rx="20.37" ry="15.56"></ellipse>
                <path d="M20.91,119.37 C18.8685431,116.59935 17.0240134,113.688869 15.39,110.66 L56.47,105.24 L12.26,104.17 C4.27774726,85.2579455 4.43326722,63.8938428 12.69,45.1 L71,77.69 L17.6,35.76 C32.2904505,11.9865621 59.0430862,-1.57417626 86.9020495,0.631238544 C114.761013,2.83665335 139.046765,20.4377723 149.813697,46.2265074 C160.580629,72.0152425 156.020194,101.659796 138,123.02 C141.176063,127.337503 143.878286,131.984254 146.06,136.88 L92.17,162.77 L149.34,145.57 C156.661444,169.676159 151.312453,195.849354 135.12,215.15 C158.180688,246.450026 153.312171,290.217498 123.936919,315.684761 C94.5616667,341.152025 50.5460903,339.765263 22.8322574,312.499343 C-4.88157547,285.233422 -6.98528259,241.246282 18,211.46 C-2.38528337,183.766063 -1.1830978,145.721641 20.91,119.37 Z" id="Path" fill="#38D39F"></path>
                <path d="M152.52,169.59 C152.019128,186.303397 145.887775,202.357677 135.12,215.15 C158.180688,246.450026 153.312171,290.217498 123.936919,315.684761 C94.5616667,341.152025 50.5460903,339.765263 22.8322574,312.499343 C-4.88157547,285.233422 -6.98528259,241.246282 18,211.46 C8.42,198.46 152.78,161.23 152.52,169.59 Z" id="Path" fill="#000000" opacity="0.1"></path>
            </g>
            <g id="Group" opacity="0.2" transform="translate(500.000000, 11.000000)">
                <path d="M86,391.46 C86,392.13 85.92,392.78 85.85,393.46 C80.31,391.266667 74.8733333,388.913333 69.54,386.4 C66.6950285,386.020369 64.0496181,384.729241 62,382.72 C60.44,381.93 58.89,381.12 57.35,380.31 C57.6941478,379.575761 58.084947,378.864306 58.52,378.18 C61.52,373.45 66.07,370.48 71.08,370.64 C76.09,370.8 80.44,374.04 83.13,378.94 C85.1830976,382.783824 86.1738138,387.105694 86,391.46 L86,391.46 Z" id="Path" fill="#3F3D56"></path>
                <path d="M86.74,366.57 C86.6399572,370.93122 85.3801076,375.187096 83.09,378.9 C80.09,383.62 75.55,386.59 70.53,386.43 C70.18,386.43 69.85,386.43 69.53,386.36 C66.6850285,385.980369 64.0396181,384.689241 61.99,382.68 C60.5968113,381.360581 59.4221613,379.828136 58.51,378.14 C54.4286963,370.273606 54.7278669,360.851626 59.3,353.26 C62.3,348.52 66.84,345.55 71.86,345.71 C76.88,345.87 81.22,349.11 83.86,354.01 C85.9216954,357.86537 86.9159751,362.201534 86.74,366.57 Z" id="Path" fill="#3F3D56"></path>
                <ellipse id="Oval" fill="#3F3D56" transform="translate(71.219100, 340.274600) rotate(-88.281642) translate(-71.219100, -340.274600) " cx="71.2191" cy="340.2746" rx="20.3791644" ry="15.5670004"></ellipse>
                <ellipse id="Oval" fill="#3F3D56" transform="translate(72.781534, 316.330870) rotate(-88.190000) translate(-72.781534, -316.330870) " cx="72.7815339" cy="316.33087" rx="20.37" ry="15.56"></ellipse>
                <ellipse id="Oval" fill="#3F3D56" transform="translate(73.578900, 291.435424) rotate(-88.190000) translate(-73.578900, -291.435424) " cx="73.5788998" cy="291.435424" rx="20.37" ry="15.56"></ellipse>
                <path d="M20.68,119.28 C18.6420107,116.506979 16.7976373,113.596745 15.16,110.57 L56.24,105.15 L12,104.08 C4.01499453,85.1677509 4.17414947,63.8011999 12.44,45.01 L70.77,77.64 L17.38,35.71 C32.1148309,12.0394075 58.8281907,-1.42867143 86.6210301,0.800738539 C114.41387,3.03014851 138.638777,20.584254 149.411991,46.3009811 C160.185205,72.0177081 155.70527,101.596804 137.8,122.97 C140.979214,127.287257 143.684779,131.933989 145.87,136.83 L92,162.72 L149.16,145.52 C156.481444,169.626159 151.132453,195.799354 134.94,215.1 C157.971264,246.41107 153.076525,290.163893 123.695525,315.611469 C94.3145264,341.059045 50.3110565,339.658115 22.6082555,312.393173 C-5.09454542,285.128231 -7.19629371,241.152663 17.78,211.37 C-2.62187442,183.66801 -1.42372459,145.60403 20.68,119.24 L20.68,119.28 Z" id="Path" fill="#38D39F"></path>
                <path d="M152.29,169.54 C151.789128,186.253397 145.657775,202.307677 134.89,215.1 C157.94396,246.407228 153.062882,290.175781 123.678309,315.635053 C94.2937369,341.094324 50.2761761,339.692348 22.5712939,312.414754 C-5.13358835,285.137161 -7.2195076,241.146706 17.78,211.37 C8.19,198.42 152.55,161.18 152.29,169.54 Z" id="Path" fill="#000000" opacity="0.1"></path>
            </g>
            <path d="M973.4,500.81 L973.4,718.54 C914.83,727.28 855.08,729.06 795.61,730.82 C629.74,735.73 463.44,740.63 298.01,729.31 C224.85,724.31 149.88,715.55 85.76,685.61 L85.76,417.37 C86,232.37 85,417.37 85.76,231.81 L85.76,165.22 C85.76,157.432785 92.072785,151.12 99.86,151.12 L959.3,151.12 C967.087215,151.12 973.4,157.432785 973.4,165.22 L973.4,333.85 C974,500.37 973,334.37 973.4,500.81 Z" id="Path" fill="#3F3D56"></path>
            <rect id="Rectangle" fill="#38D39F" opacity="0.3" x="345.15" y="217.75" width="368.86" height="28.56" rx="5.22"></rect>
            <path d="M688.94,233.22 L688.33,233.22 L688.1,233.03 C688.863369,232.118494 689.284288,230.968925 689.29,229.78 C689.256905,227.057173 687.026701,224.874587 684.303793,224.900259 C681.580886,224.92593 679.392229,227.150175 679.410476,229.873142 C679.428723,232.59611 681.646993,234.790823 684.37,234.78 C685.554395,234.775608 686.700182,234.358315 687.61,233.6 L687.83,233.79 L687.83,234.37 L691.64,238.19 L692.78,237.05 L688.94,233.22 Z M684.37,233.22 C682.977747,233.224047 681.720332,232.388489 681.184733,231.103375 C680.649135,229.818261 680.940973,228.337018 681.924015,227.35111 C682.907056,226.365203 684.387443,226.069054 685.674111,226.600909 C686.960779,227.132764 687.799994,228.387741 687.8,229.78 C687.805339,230.692236 687.446001,231.568799 686.801881,232.214797 C686.157761,232.860795 685.282248,233.222683 684.37,233.22 L684.37,233.22 Z" id="Shape" fill="#444053"></path>
            <rect id="Rectangle" fill="#3F3D56" opacity="0.7" x="223.84" y="493.2" width="34.42" height="11.9" rx="5"></rect>
            <rect id="Rectangle" fill="#38D39F" opacity="0.3" x="223.84" y="522.95" width="53.54" height="11.9" rx="5"></rect>
            <rect id="Rectangle" fill="#38D39F" opacity="0.3" x="223.84" y="508.08" width="107.09" height="11.9" rx="5"></rect>
            <path d="M165.57,522.58 C164.045916,522.564011 162.57805,523.15484 161.490033,524.222222 C160.402016,525.289604 159.783193,526.74589 159.77,528.27 C159.721194,530.373756 158.004317,532.055143 155.9,532.06 C157.771147,534.428333 160.611895,535.82482 163.63,535.86 C165.664243,535.881328 167.62363,535.093626 169.077061,533.670201 C170.530493,532.246776 171.358893,530.304246 171.38,528.27 C171.36417,526.744979 170.743133,525.288717 169.653528,524.221617 C168.563924,523.154517 167.095019,522.564004 165.57,522.58 L165.57,522.58 Z M192.1,504.82 L189.5,502.27 C188.745158,501.527965 187.534842,501.527965 186.78,502.27 L169.44,519.27 L174.76,524.49 L192.08,507.49 C192.443718,507.142414 192.651119,506.662314 192.654888,506.159231 C192.658656,505.656148 192.45847,505.172996 192.1,504.82 L192.1,504.82 Z" id="Shape" fill="#38D39F"></path>
            <rect id="Rectangle" fill="#3F3D56" opacity="0.7" x="223.84" y="345.66" width="34.42" height="11.9" rx="5"></rect>
            <rect id="Rectangle" fill="#38D39F" opacity="0.3" x="223.84" y="375.41" width="53.54" height="11.9" rx="5"></rect>
            <rect id="Rectangle" fill="#38D39F" opacity="0.3" x="223.84" y="360.53" width="107.09" height="11.9" rx="5"></rect>
            <path d="M192.18,378.15 L177,362.87 C178.539031,358.854194 177.553664,354.308158 174.49,351.29 C171.231259,348.058018 166.30833,347.189031 162.14,349.11 L169.32,356.33 L164.32,361.33 L157,354.15 C155.004869,358.326427 155.876016,363.308422 159.17,366.56 C162.151639,369.636697 166.685535,370.629349 170.68,369.08 L185.83,384.37 C186.134117,384.69172 186.557291,384.874016 187,384.874016 C187.442709,384.874016 187.865883,384.69172 188.17,384.37 L192.01,380.51 C192.387169,380.24995 192.625882,379.832731 192.658936,379.375795 C192.691991,378.91886 192.515814,378.471627 192.18,378.16 L192.18,378.15 Z" id="Path" fill="#38D39F"></path>
            <rect id="Rectangle" fill="#3F3D56" opacity="0.7" x="510.6" y="493.2" width="34.42" height="11.9" rx="5"></rect>
            <rect id="Rectangle" fill="#38D39F" opacity="0.3" x="510.6" y="522.95" width="53.54" height="11.9" rx="5"></rect>
            <rect id="Rectangle" fill="#38D39F" opacity="0.3" x="510.6" y="508.08" width="107.09" height="11.9" rx="5"></rect>
            <path d="M460.44,526 C457.374065,527.744298 453.615935,527.744298 450.55,526 C446.68,527.19 444.31,531.09 443.43,534.54 L467.55,534.54 C466.68,531.09 464.32,527.19 460.44,526 Z M455.5,507.63 C451.984314,507.630002 448.814993,509.748336 447.470535,512.996795 C446.126076,516.245253 446.87139,519.98376 449.358786,522.468294 C451.846183,524.952829 455.585546,525.693838 458.832454,524.345639 C462.079362,522.997441 464.194046,519.825684 464.19,516.31 C464.184482,511.514551 460.295452,507.629997 455.5,507.63 L455.5,507.63 Z M455.5,522.93 C452.833758,522.878797 450.450895,521.253583 449.43,518.79 L461.57,518.79 C460.549105,521.253583 458.166242,522.878797 455.5,522.93 L455.5,522.93 Z" id="Shape" fill="#38D39F"></path>
            <path d="M473.09,521.37 C470.525547,522.817053 467.456214,523.069176 464.69,522.06 C464.074515,523.125627 463.298778,524.090239 462.39,524.92 C464.416357,525.845832 466.121878,527.352955 467.29,529.25 L480.2,529.25 C479.387805,525.552083 476.685232,522.556827 473.09,521.37 Z M468.15,502.99 C465.185119,502.988864 462.423282,504.496006 460.82,506.99 C463.474543,508.528645 465.34766,511.125549 465.97,514.13 L474.22,514.13 C473.190889,516.584041 470.810612,518.19965 468.15,518.25 C467.439638,518.247462 466.735372,518.118798 466.07,517.87 C465.953867,518.575101 465.773105,519.268022 465.53,519.94 C466.376468,520.211969 467.260941,520.347002 468.15,520.34 C472.949354,520.34 476.839999,516.449354 476.839999,511.65 C476.839999,506.850646 472.949354,502.96 468.15,502.96 L468.15,502.99 Z" id="Shape" fill="#38D39F"></path>
            <rect id="Rectangle" fill="#3F3D56" opacity="0.7" x="223.84" y="603.86" width="34.42" height="11.9" rx="5"></rect>
            <rect id="Rectangle" fill="#38D39F" opacity="0.3" x="223.84" y="633.61" width="53.54" height="11.9" rx="5"></rect>
            <rect id="Rectangle" fill="#38D39F" opacity="0.3" x="223.84" y="618.74" width="107.09" height="11.9" rx="5"></rect>
            <path d="M177.57,607.62 L167.75,607.62 C166.880071,607.609326 166.041538,607.944701 165.418903,608.552333 C164.796268,609.159965 164.440544,609.990069 164.43,610.86 L164.43,611.56 L163.81,611.56 C162.940071,611.549326 162.101538,611.884701 161.478903,612.492333 C160.856268,613.099965 160.500544,613.930069 160.49,614.8 L160.49,638.43 C160.50092,640.259043 161.980957,641.73908 163.81,641.75 L180.89,641.75 C181.759036,641.739471 182.58813,641.383424 183.194175,640.760493 C183.80022,640.137561 184.133353,639.298997 184.12,638.43 L184.12,637.81 L184.83,637.81 C185.699036,637.799471 186.52813,637.443424 187.134175,636.820493 C187.74022,636.197561 188.073353,635.358997 188.06,634.49 L188.06,618.12 L177.57,607.62 Z M177.57,611.28 L184.41,618.12 L177.57,618.12 L177.57,611.28 Z M181.51,638.43 C181.527246,638.792819 181.252246,639.103303 180.89,639.13 L163.81,639.13 C163.433837,639.109654 163.134932,638.806417 163.12,638.43 L163.12,614.8 C163.146615,614.441784 163.450988,614.16829 163.81,614.18 L164.43,614.18 L164.43,635.18 C164.43,637 165.29,637.84 167.1,637.84 L181.51,637.84 L181.51,638.43 Z M185.44,634.49 C185.462914,634.851092 185.190833,635.163316 184.83,635.19 L167.75,635.19 C167.373837,635.169654 167.074932,634.866417 167.06,634.49 L167.06,610.86 C167.086615,610.501784 167.390988,610.22829 167.75,610.24 L174.94,610.24 L174.94,620.75 L185.44,620.75 L185.44,634.49 Z" id="Shape" fill="#38D39F"></path>
            <rect id="Rectangle" fill="#3F3D56" opacity="0.7" x="510.6" y="345.66" width="34.42" height="11.9" rx="5"></rect>
            <rect id="Rectangle" fill="#38D39F" opacity="0.3" x="510.6" y="375.41" width="53.54" height="11.9" rx="5"></rect>
            <rect id="Rectangle" fill="#38D39F" opacity="0.3" x="510.6" y="360.53" width="107.09" height="11.9" rx="5"></rect>
            <path d="M458.32,353.37 L446.94,353.37 C445.005387,353.375512 443.439992,354.945379 443.44,356.88 L443.44,376.13 C443.44,378.062997 445.007003,379.63 446.94,379.63 L476.7,379.63 C478.632997,379.63 480.2,378.062997 480.2,376.13 L480.2,360.79 C480.194507,358.859283 478.630717,357.295493 476.7,357.29 L461.82,357.29 L458.32,353.35 L458.32,353.37 Z" id="Path" fill="#38D39F"></path>
            <rect id="Rectangle" fill="#3F3D56" opacity="0.7" x="793.79" y="493.2" width="34.42" height="11.9" rx="5"></rect>
            <rect id="Rectangle" fill="#38D39F" opacity="0.3" x="793.79" y="522.95" width="53.54" height="11.9" rx="5"></rect>
            <rect id="Rectangle" fill="#38D39F" opacity="0.3" x="793.79" y="508.08" width="107.09" height="11.9" rx="5"></rect>
            <path d="M763.93,509.28 L757.16,508.96 L756.76,504.55 C756.714711,504.098093 756.490478,503.683096 756.137301,503.397549 C755.784124,503.112001 755.331371,502.979648 754.88,503.03 L730.61,505.03 C730.159534,505.050402 729.736464,505.252104 729.437001,505.589235 C729.137538,505.926367 728.987136,506.370272 729.02,506.82 L730.75,526.17 C730.859648,527.099512 731.700014,527.765546 732.63,527.66 L733.86,527.57 L733.67,531.33 C733.653859,531.829401 733.838251,532.314492 734.182047,532.677075 C734.525843,533.039658 735.000447,533.249573 735.5,533.26 L762.59,534.54 C763.621734,534.608704 764.515284,533.831316 764.59,532.8 L765.73,511.2 C765.746172,510.706627 765.565557,510.227061 765.227938,509.866933 C764.890318,509.506806 764.42339,509.295659 763.93,509.28 L763.93,509.28 Z M734.81,509.72 L734.23,520.78 L732.79,522.78 L731.47,508.17 L731.47,508.08 C731.522375,507.674692 731.84405,507.357141 732.25,507.31 L753.67,505.56 C754.080666,505.520652 754.455297,505.796242 754.54,506.2 C754.54,506.2 754.54,506.2 754.54,506.2 C754.54,506.2 754.54,506.2 754.54,506.2 L754.75,508.72 L736.75,507.86 C736.246057,507.849279 735.758506,508.039246 735.394661,508.388087 C735.030815,508.736928 734.820498,509.216052 734.81,509.72 Z M762.21,529.16 L755.21,520.99 L752.14,523.81 L746.47,517.18 L736.4,527.9 L737.26,511.57 L737.26,511.57 C737.359094,511.106493 737.787772,510.789272 738.26,510.83 L762.16,511.99 C762.617535,512.000042 762.989069,512.362833 763.01,512.82 C763.01,512.82 763.01,512.82 763.01,512.82 L762.21,529.16 Z" id="Shape" fill="#38D39F"></path>
            <path d="M757.89,518.79 C758.954636,518.794048 759.916695,518.155842 760.326921,517.173406 C760.737148,516.19097 760.514611,515.058123 759.76323,514.303874 C759.011848,513.549624 757.879858,513.322774 756.895866,513.729255 C755.911874,514.135736 755.270008,515.095356 755.27,516.16 C755.275437,517.606356 756.443675,518.779053 757.89,518.79 Z" id="Path" fill="#38D39F"></path>
            <rect id="Rectangle" fill="#3F3D56" opacity="0.7" x="796.17" y="345.66" width="34.42" height="11.9" rx="5"></rect>
            <rect id="Rectangle" fill="#38D39F" opacity="0.3" x="796.17" y="375.41" width="53.54" height="11.9" rx="5"></rect>
            <rect id="Rectangle" fill="#38D39F" opacity="0.3" x="796.17" y="360.53" width="107.09" height="11.9" rx="5"></rect>
            <circle id="Oval" fill="#38D39F" cx="763.56" cy="356.63" r="5.25"></circle>
            <path d="M759.53,362.82 L749.11,369.76 L734.67,360.14 L734.67,356.63 L749.11,366.26 L757.41,360.73 C755.811221,358.31353 755.772123,355.185678 757.31,352.73 L734.24,352.73 C732.30376,352.735493 730.735493,354.30376 730.73,356.24 L730.73,378.12 C730.735493,380.05624 732.30376,381.624507 734.24,381.63 L764,381.63 C765.934613,381.624488 767.500008,380.054621 767.5,378.12 L767.5,362.92 C765.05359,364.47504 761.92281,364.451559 759.5,362.86 L759.53,362.82 Z" id="Path" fill="#38D39F"></path>
            <ellipse id="Oval" fill="#38D39F" cx="510.64" cy="746.02" rx="26.08" ry="5.01"></ellipse>
            <ellipse id="Oval" fill="#3F3D56" cx="510.21" cy="743.89" rx="3.04" ry="3.97"></ellipse>
            <ellipse id="Oval" fill="#3F3D56" cx="510.21" cy="739.03" rx="3.04" ry="3.97"></ellipse>
            <ellipse id="Oval" fill="#3F3D56" cx="510.21" cy="734.17" rx="3.04" ry="3.97"></ellipse>
            <ellipse id="Oval" fill="#3F3D56" cx="510.21" cy="729.31" rx="3.04" ry="3.97"></ellipse>
            <ellipse id="Oval" fill="#3F3D56" cx="510.21" cy="724.46" rx="3.04" ry="3.97"></ellipse>
            <ellipse id="Oval" fill="#3F3D56" cx="510.21" cy="719.6" rx="3.04" ry="3.97"></ellipse>
            <ellipse id="Oval" fill="#3F3D56" cx="510.21" cy="714.74" rx="3.04" ry="3.97"></ellipse>
            <path d="M521.57,681.5 C521.987501,680.972083 522.365207,680.413881 522.7,679.83 L514.7,678.52 L523.32,678.59 C524.990063,674.951086 525.091304,670.785753 523.6,667.07 L512.03,673.07 L522.7,665.22 C519.981152,660.495031 514.847745,657.68785 509.402601,657.948375 C503.957457,658.2089 499.115507,661.493356 496.860182,666.456317 C494.604856,671.419277 495.31511,677.226829 498.7,681.5 C498.056507,682.323546 497.500196,683.211634 497.04,684.15 L507.4,689.53 L496.4,685.83 C494.821971,690.482984 495.702308,695.618283 498.74,699.48 C494.053002,705.441079 494.7342,714.003284 500.304785,719.148281 C505.87537,724.293279 514.46463,724.293279 520.035215,719.148281 C525.6058,714.003284 526.286998,705.441079 521.6,699.48 C525.756641,694.199903 525.756641,686.760097 521.6,681.48 L521.57,681.5 Z" id="Path" fill="#38D39F"></path>
            <path d="M495.6,690.49 C495.590038,693.755213 496.686255,696.927545 498.71,699.49 C494.023002,705.451079 494.7042,714.013284 500.274785,719.158281 C505.84537,724.303279 514.43463,724.303279 520.005215,719.158281 C525.5758,714.013284 526.256998,705.451079 521.57,699.49 C523.52,697.01 495.6,688.86 495.6,690.49 Z" id="Path" fill="#000000" opacity="0.1"></path>
            <path d="M753,390.23 C752.572619,389.367682 752.23743,388.46267 752,387.53 C751.9,386.46 752.32,385.05 751.37,384.53 C750.84,384.24 750.1,384.46 749.63,384.08 C749.339883,383.742435 749.161686,383.323148 749.12,382.88 C748.642004,381.159043 747.104903,379.945542 745.32,379.88 C746.32,377.17 750,376.51 751.62,374.12 C752.43,372.93 752.17,370.74 750.74,370.73 C750.392878,370.742672 750.052247,370.827829 749.74,370.98 L744.41,373.18 C743.382883,373.582408 742.381053,374.04659 741.41,374.57 C738.48,376.24 736.29,378.95 734.32,381.7 C732.456599,384.130076 730.969917,386.827004 729.91,389.7 C729.313713,391.470143 728.996584,393.322312 728.97,395.19 C728.97,395.38 728.97,395.57 728.97,395.75 C728.1,395.9 727.39,396.28 726.48,396.46 L724.41,401.93 C724.136226,402.844091 723.676628,403.691794 723.06,404.42 C722.602497,404.838975 722.114486,405.223367 721.6,405.57 C719.466903,407.391421 718.37666,410.152619 718.69,412.94 C714.804915,414.465609 712.767461,418.741638 714.03,422.72 C710.872821,423.403152 708.295389,425.674017 707.22,428.72 C707.076743,429.40842 706.771667,430.052849 706.33,430.6 C705.653441,431.120323 704.812068,431.37948 703.96,431.33 C701.62,431.48 699.58,433.33 697.47,432.33 C695.066843,431.203668 692.380139,430.82732 689.76,431.25 C689.22008,431.379115 688.664352,431.429635 688.11,431.4 C687.637524,431.317448 687.181589,431.158716 686.76,430.93 C685.810227,430.36775 684.77745,429.959365 683.7,429.72 C682.596679,429.484148 681.458378,429.923767 680.8,430.84 C680.06,430.03 679.62,428.98 678.95,428.11 C678.337312,427.167037 677.248726,426.645906 676.13,426.76 C676.83,426.13 676.13,424.87 675.2,424.65 C674.262754,424.56887 673.319108,424.602452 672.39,424.75 C669.95,424.75 668.07,422.51 665.7,421.92 C663.52,421.39 660.61,422.03 659.49,420.07 C659.14,419.44 659.04,418.62 658.49,418.15 C658.364858,417.619613 658.122224,417.124092 657.78,416.7 C656.88,415.7 655.37,415.54 654.02,415.58 C652.535162,415.621745 651.063788,415.874269 649.65,416.33 C649.65,416.16 649.56,415.97 649.5,415.77 C648.643631,413.27785 646.927819,411.17208 644.66,409.83 C642.899866,408.791944 640.991042,408.029764 639,407.57 C639,407.39 639,407.22 639,407.04 C638.968069,404.515864 639.360187,402.004281 640.16,399.61 C640.24,399.35 640.34,399.09 640.43,398.83 C649.674172,396.414859 656.912937,389.227424 659.393802,380.000674 C661.874667,370.773923 659.21648,360.925422 652.43,354.2 C652.423473,353.660242 652.352981,353.123161 652.22,352.6 C651.928401,351.45279 651.38146,350.386255 650.62,349.48 C649.4,346.76 647.5,345.56 645.07,344.42 C644.37,344.09 643.63,343.77 642.85,343.42 C638.98,341.68 635.24,339.12 630.85,339.13 C626.85,339.13 622.99,341.34 619.03,341.26 L618.73,341.26 L618.44,341.26 L618.08,341.26 C616.97,341.13 615.64,340.87 614.91,341.72 C614.674504,342.056098 614.486091,342.422831 614.35,342.81 C614.29328,342.938456 614.226401,343.062182 614.15,343.18 L614.15,343.18 C614.002885,343.426066 613.832073,343.657164 613.64,343.87 L613.64,343.87 C612.36,345.27 610.21,345.87 608.44,346.81 C604.44,348.86 601.82,353.04 600.78,357.42 C599.74,361.8 600.1,366.42 600.88,370.86 C601.28,373.08 602.14,375.6 603.72,377 L603.72,377 L603.72,377 C603.72,377 590.35,386.51 592.79,387.86 C594.12,388.6 599.66,385.09 604.43,381.74 C604.48,381.94 604.52,382.15 604.58,382.35 C605.148707,384.485115 605.877435,386.574359 606.76,388.6 C607.76,390.99 609.2,393.6 611.69,394.29 C612.239632,394.442868 612.810145,394.507008 613.38,394.48 L613.82,394.48 C613.943707,398.139171 613.556648,401.797721 612.67,405.35 C611.21953,405.26695 609.782101,405.664088 608.58,406.48 C608.123968,406.928453 607.547108,407.234258 606.92,407.36 C606.27144,407.28133 605.66867,406.985233 605.21,406.52 C601.514989,403.856536 596.464481,404.122791 593.07,407.16 C588.23,411.73 588.78,420.65 583.07,424.11 C581.51,425.06 579.51,425.57 578.59,427.16 C578.369353,427.66804 578.112006,428.159339 577.82,428.63 C577.441938,429.055159 576.97854,429.395892 576.46,429.63 C574.812022,430.368078 573.243861,431.272786 571.78,432.33 C570.30179,433.413229 569.330102,435.053179 569.09,436.87 C569.068535,438.185981 569.349054,439.489367 569.91,440.68 C570.761765,442.772389 571.806262,444.781037 573.03,446.68 C572.365613,447.539976 571.931905,448.555405 571.77,449.63 C571.37,452.44 572.71,455.21 572.86,458.05 C572.99,460.53 572.2,462.95 571.76,465.39 C570,474.93 573.37,484.59 576.76,493.65 C577.414274,495.123016 577.819773,496.694326 577.96,498.3 C578.05,501.3 576.36,503.97 575.89,506.89 C574.89,513.03 579.42,518.81 579.52,525.02 C579.52,527.89 578.66,530.8 579.38,533.57 C579.85,535.42 581,537.01 581.82,538.74 C583.26,541.8 583.65,545.27 585.03,548.36 C586.679738,551.722753 589.123454,554.633246 592.15,556.84 C593.88,562.33 591.42,568.96 592.15,574.84 C593.09,574.466667 594.04,574.133333 595,573.84 C594.40394,582.579374 596.610892,591.281068 601.3,598.68 C602.85,601.1 604.67,603.36 605.84,605.99 C606.599715,607.863983 607.192027,609.801547 607.61,611.78 C609.283333,618.76 610.95,625.733333 612.61,632.7 C613.97,638.35 615.34,644.1 614.93,649.9 C614.65,653.9 613.63,658.47 616.11,661.67 C616.707015,662.278184 617.209285,662.972598 617.6,663.73 C617.84037,664.620735 617.84037,665.559265 617.6,666.45 C616.387421,673.19415 615.559417,680.001811 615.12,686.84 C614.56,687.59 614,688.35 613.49,689.1 C609.38,695.1 607.4,702.31 605.8,709.42 C602.850799,723.389976 601.124272,737.590329 600.64,751.86 C598.5823,753.727623 596.810055,755.887336 595.38,758.27 C593.23,762.27 592.95,766.97 592.72,771.51 C592.628101,772.245434 592.71031,772.992172 592.96,773.69 C593.507994,774.474943 594.293016,775.06371 595.2,775.37 L596.44,775.96 C596.17,776.96 595.93,777.96 595.72,779.01 C594.14,777.23 591.33,774.41 590.85,776.47 C589.269516,783.36207 588.41155,790.400079 588.29,797.47 C588.17648,798.019894 588.330603,798.591035 588.705347,799.00917 C589.080091,799.427306 589.631002,799.642835 590.19,799.59 C597.059207,800.80653 604.023976,801.402267 611,801.37 C616.65,801.37 622.29,800.91 627.92,800.48 L633.69,800.04 C639.62378,799.72201 645.528128,798.990232 651.36,797.85 C653.91,797.29 656.54,796.5 658.46,794.71 C660.38,792.92 661.32,789.86 660,787.59 L660,787.59 C658.39,784.85 654.63,784.65 651.49,784.21 C648.377724,783.773406 645.361795,782.813177 642.57,781.37 C641.94,781.05 641.33,780.69 640.72,780.37 C640.88,780.37 641.05,780.29 641.2,780.23 C643.9,779.32 646.05,777.23 648.59,775.98 C651.59,774.53 654.9,774.2 658.16,773.79 C661.42,773.38 664.78,772.79 667.49,770.93 C670.03,769.19 671.83,766.02 671.24,763.04 C671.199578,762.830215 671.146142,762.623148 671.08,762.42 C670.08,759.19 666.58,757.42 663.32,756.62 C660.06,755.82 656.52,755.34 653.88,753.24 L653.49,752.93 C653.27,752.74 653.04,752.56 652.8,752.37 C653.382073,751.386865 653.650673,750.249673 653.57,749.11 C653.43,747.32 652.39,745.74 651.68,744.11 C650.29,740.86 650.18,737.23 649.8,733.72 C648.86,724.89 646.15,716.37 644.11,707.72 C643.88,706.72 643.66,705.72 643.44,704.72 C645.431254,700.5863 647.869113,696.683044 650.71,693.08 C653.961487,689.017665 656.344039,684.330845 657.71,679.31 C658.13,677.77 658.44,676.21 658.76,674.64 C662.373333,656.58 665.786667,638.49 669,620.37 C669.531405,617.788208 669.835899,615.164872 669.91,612.53 C670.751068,610.140569 671.20676,607.632576 671.26,605.1 C672.2,601.43 673.15,597.58 672.38,595.18 C671.84,593.48 671.57,587.67 671.27,582.1 C671.355915,579.113198 671.175199,576.124686 670.73,573.17 C670.64,572.66 670.54,572.17 670.43,571.66 C670.37,571.36 670.31,571.11 670.25,570.91 C669.828278,569.234931 669.238625,567.606685 668.49,566.05 C668.108124,565.119494 667.667228,564.21432 667.17,563.34 C666.872855,562.823158 666.538647,562.32853 666.17,561.86 C668.251762,561.948692 670.32773,562.142271 672.39,562.44 C672.89,562.51 673.51,562.55 673.82,562.14 C673.949204,561.904592 674.011457,561.63829 674,561.37 C674.096548,559.010114 673.535701,556.669791 672.38,554.61 C671.58,553.19 670.47,551.81 670.5,550.18 C670.553621,549.420202 670.739761,548.675644 671.05,547.98 L673.82,540.54 C676.17,534.25 675.05,526.96 676.27,520.36 C677.221534,515.20269 677.829538,509.987884 678.09,504.75 C678.32,500.28 678.18,495.43 675.49,491.85 C674.713657,490.985527 674.042324,490.032234 673.49,489.01 C673.099241,487.924868 672.935856,486.770959 673.01,485.62 C672.963333,478.613333 673.103333,471.613333 673.43,464.62 C685.206085,464.289484 696.932246,462.951263 708.48,460.62 C709.844339,460.386634 711.18361,460.025031 712.48,459.54 C713.907912,458.856404 715.250467,458.007238 716.48,457.01 C720.41,454.17 724.4,451.28 727.39,447.46 C730.941775,442.826666 733.173955,437.31878 733.85,431.52 C736.69,428.89 738.2,425.15 739.62,421.52 C740.322302,419.98641 740.768225,418.347981 740.94,416.67 C741.01,414.95 739.88,413.15 740.2,411.46 C740.745704,408.548678 742.214968,405.890677 744.39,403.88 C744.853147,403.55105 745.202599,403.086278 745.39,402.55 C745.453651,402.103232 745.373077,401.647809 745.16,401.25 L745.07,401.1 C745.35,400.93 745.61,400.75 745.88,400.57 C746.81,399.91 747.7,399.18 748.57,398.47 C749.900507,397.467382 751.076409,396.274633 752.06,394.93 C753.042493,393.574831 753.385698,391.858807 753,390.23 Z M624.69,773.52 C624.45,773.52 624.21,773.52 623.98,773.58 C623.103647,773.704693 622.248831,773.950369 621.44,774.31 L621.25,774.41 C622.35,772.03 623.39,769.61 624.33,767.15 C624.44,766.86 624.54,766.57 624.65,766.27 L624.53,767.91 C624.322293,769.778346 624.376145,771.666529 624.69,773.52 Z" id="Shape" fill="url(#linearGradient-1)"></path>
            <path d="M639,409.1 C639.1,412.98 640.42,416.74 640.62,420.62 C629.19,421.19 617.9,415.62 606.62,417.34 C609.79,415.29 611.48,411.6 612.48,407.97 C613.746887,403.278175 614.123384,398.3905 613.59,393.56 C613.559373,393.294075 613.51262,393.030256 613.45,392.77 C613.03,390.87 611.94,388.18 612.23,386.69 C612.62,384.69 614.48,385.1 616.16,385.21 C621.277446,385.61599 626.370769,386.283529 631.42,387.21 C632.74,387.44 645.55,390.64 645.75,390.31 C643.498597,393.911683 641.638059,397.743386 640.2,401.74 C639.390097,404.108681 638.984437,406.596732 639,409.1 Z" id="Path" fill="#EE8E9E"></path>
            <path d="M752.05,397.1 C751.068933,398.440996 749.89255,399.627491 748.56,400.62 C747.69,401.33 746.8,402.06 745.87,402.71 C744.211471,403.993726 742.233461,404.799454 740.15,405.04 C737.43,405.22 731.64,403.62 729.95,401.29 C729.226901,400.118644 728.878063,398.754689 728.95,397.38 C728.977743,395.522215 729.294883,393.680105 729.89,391.92 C730.948944,389.046559 732.435703,386.34949 734.3,383.92 C736.3,381.18 738.46,378.49 741.39,376.83 C742.361053,376.30659 743.362883,375.842408 744.39,375.44 L749.72,373.26 C750.031592,373.104644 750.372198,373.016086 750.72,373 C752.15,373 752.41,375.2 751.6,376.38 C749.98,378.76 746.33,379.38 745.3,382.11 C747.072196,382.165706 748.606669,383.356941 749.1,385.06 C749.141097,385.50031 749.319498,385.916578 749.61,386.25 C750.08,386.62 750.82,386.41 751.35,386.7 C752.3,387.2 751.88,388.61 751.98,389.7 C752.217482,390.626227 752.552697,391.524602 752.98,392.38 C753.383061,394.013452 753.04257,395.741535 752.05,397.1 L752.05,397.1 Z" id="Path" fill="#EE8E9E"></path>
            <path d="M594.4,786.45 C595.28,785.57 596.72,785.72 597.95,785.91 C604.549671,786.950782 611.218838,787.488995 617.9,787.52 C618.74,783.44 616.31,779.52 615.53,775.38 C615.417461,774.319357 615.147847,773.281342 614.73,772.3 C613.79,770.5 611.67,769.67 609.68,769.3 C606.09,768.54 600.47,767.21 598.46,770.84 C596.05,775.15 595.28,781.59 594.4,786.45 Z" id="Path" fill="#65617D"></path>
            <path d="M667.49,771.02 C664.78,772.87 661.42,773.44 658.16,773.86 C654.9,774.28 651.55,774.6 648.59,776.05 C646.05,777.31 643.9,779.37 641.2,780.27 C638.694941,780.960227 636.055425,781.001523 633.53,780.39 C630.53,779.82 627.27,778.72 625.64,776.1 C624.18,773.78 624.33,770.83 624.53,768.1 C624.77,765.01 625,761.9 625.22,758.8 C625.210026,758.01496 625.410285,757.241549 625.8,756.56 C627.99,753.36 633.32,757.89 636.17,757.89 C640.69,757.89 645.54,755.43 648.79,752.44 C649.081477,752.141285 649.419128,751.891424 649.79,751.7 C651.08,751.12 652.37,752.19 653.51,753.12 L653.9,753.43 C656.54,755.52 660.08,755.95 663.34,756.8 C666.6,757.65 670.09,759.35 671.1,762.57 C671.167316,762.769407 671.220776,762.973225 671.26,763.18 C671.83,766.13 670,769.28 667.49,771.02 Z" id="Path" fill="#3F3D56"></path>
            <path d="M667.49,771.02 C664.78,772.87 661.42,773.44 658.16,773.86 C654.9,774.28 651.55,774.6 648.59,776.05 C646.05,777.31 643.9,779.37 641.2,780.27 C638.694941,780.960227 636.055425,781.001523 633.53,780.39 C630.53,779.82 627.27,778.72 625.64,776.1 C624.18,773.78 624.33,770.83 624.53,768.1 C624.77,765.01 625,761.9 625.22,758.8 C625.210026,758.01496 625.410285,757.241549 625.8,756.56 C627.99,753.36 633.32,757.89 636.17,757.89 C640.69,757.89 645.54,755.43 648.79,752.44 C649.081477,752.141285 649.419128,751.891424 649.79,751.7 C651.08,751.12 652.37,752.19 653.51,753.12 L653.9,753.43 C656.54,755.52 660.08,755.95 663.34,756.8 C666.6,757.65 670.09,759.35 671.1,762.57 C671.167316,762.769407 671.220776,762.973225 671.26,763.18 C671.83,766.13 670,769.28 667.49,771.02 Z" id="Path" fill="#434175"></path>
            <path d="M667.49,772.06 C664.78,773.91 661.42,774.49 658.16,774.91 C654.9,775.33 651.55,775.64 648.59,777.09 C646.05,778.35 643.9,780.41 641.2,781.31 C638.694941,782.000227 636.055425,782.041523 633.53,781.43 C630.304095,780.753693 627.471629,778.840253 625.64,776.1 C624.18,773.78 624.33,770.83 624.53,768.1 C624.77,765.01 625,761.9 625.22,758.8 C625.210026,758.01496 625.410285,757.241549 625.8,756.56 C627.99,753.36 633.32,757.89 636.17,757.89 C640.69,757.89 645.54,755.43 648.79,752.44 C649.081477,752.141285 649.419128,751.891424 649.79,751.7 C651.08,751.12 652.37,752.19 653.51,753.12 C652.761596,755.442666 651.694772,757.650351 650.34,759.68 C648.120575,763.160692 644.44326,765.447982 640.34,765.9 C638.34,766.05 636.25,765.65 634.34,766.17 C632.43,766.69 630.57,768.69 631.26,770.59 C631.95,772.49 634.32,772.84 636.26,772.95 C639.00899,773.265874 641.792722,773.069216 644.47,772.37 C646.07,771.84 647.54,770.96 649.09,770.31 C655.71,767.57 664.09,769.1 669.55,764.46 C670.071166,763.988911 670.629662,763.560842 671.22,763.18 C672.67,766.17 670,770.37 667.49,772.06 Z" id="Path" fill="#E8EAF2"></path>
            <path d="M667.49,772.06 C664.78,773.91 661.42,774.49 658.16,774.91 C654.9,775.33 651.55,775.64 648.59,777.09 C646.05,778.35 643.9,780.41 641.2,781.31 C638.694941,782.000227 636.055425,782.041523 633.53,781.43 C630.304095,780.753693 627.471629,778.840253 625.64,776.1 C624.18,773.78 624.33,770.83 624.53,768.1 C624.77,765.01 625,761.9 625.22,758.8 C625.210026,758.01496 625.410285,757.241549 625.8,756.56 C627.99,753.36 633.32,757.89 636.17,757.89 C640.69,757.89 645.54,755.43 648.79,752.44 C649.081477,752.141285 649.419128,751.891424 649.79,751.7 C651.08,751.12 652.37,752.19 653.51,753.12 C652.761596,755.442666 651.694772,757.650351 650.34,759.68 C648.120575,763.160692 644.44326,765.447982 640.34,765.9 C638.34,766.05 636.25,765.65 634.34,766.17 C632.43,766.69 630.57,768.69 631.26,770.59 C631.95,772.49 634.32,772.84 636.26,772.95 C639.00899,773.265874 641.792722,773.069216 644.47,772.37 C646.07,771.84 647.54,770.96 649.09,770.31 C655.71,767.57 664.09,769.1 669.55,764.46 C670.071166,763.988911 670.629662,763.560842 671.22,763.18 C672.67,766.17 670,770.37 667.49,772.06 Z" id="Path" fill="#000000" opacity="0.05"></path>
            <path d="M595.64,569.44 C593.54651,579.785293 595.546759,590.539319 601.22,599.44 C602.77,601.84 604.59,604.1 605.76,606.71 C606.521031,608.57665 607.113396,610.507694 607.53,612.48 L612.53,633.28 C613.89,638.9 615.26,644.62 614.85,650.39 C614.57,654.39 613.55,658.92 616.03,662.1 C616.62678,662.704644 617.129081,663.39573 617.52,664.15 C617.760121,665.033984 617.760121,665.966016 617.52,666.85 C614.98,681.96 613.09,697.75 617.68,712.36 C621.85,725.61 622.09,740.29 625.63,753.71 C625.916285,755.41473 626.675027,757.004971 627.82,758.3 C628.769434,759.092178 629.905234,759.629101 631.12,759.86 C636.34,761.11 641.85,759.65 646.71,757.4 C650.13,755.81 653.81,753.03 653.52,749.28 C653.38,747.49 652.34,745.92 651.63,744.28 C650.24,741.05 650.13,737.45 649.75,733.95 C648.81,725.17 646.1,716.69 644.06,708.11 C642.02,699.53 640.62,690.54 642.35,681.88 C645.891783,663.971303 651.555044,646.548467 659.22,629.98 C659.555859,629.100065 660.085641,628.3071 660.77,627.66 C661.537945,627.221534 662.270205,626.723331 662.96,626.17 C663.488945,625.347726 663.83036,624.419077 663.96,623.45 C664.72,620.71 666.96,618.68 668.49,616.28 C672.32,610.2 671.11,602.41 670.97,595.23 C670.83,588.23 671.83,581.23 670.69,574.31 C669.55,567.39 665.65,560.37 659,558.25 C655.71,557.18 652.15,557.43 648.71,557.77 C630.48,559.57 612.76,562.88 595.64,569.44 Z" id="Path" fill="#696791"></path>
            <path d="M595.64,570.44 C593.54651,580.785293 595.546759,591.539319 601.22,600.44 C602.77,602.84 604.59,605.1 605.76,607.71 C606.521031,609.57665 607.113396,611.507694 607.53,613.48 L612.53,634.28 C613.89,639.9 615.26,645.62 614.85,651.39 C614.57,655.39 613.55,659.92 616.03,663.1 C616.62678,663.704644 617.129081,664.39573 617.52,665.15 C617.760121,666.033984 617.760121,666.966016 617.52,667.85 C614.98,682.96 613.09,698.75 617.68,713.36 C621.85,726.61 622.09,741.29 625.63,754.71 C625.916285,756.41473 626.675027,758.004971 627.82,759.3 C628.769434,760.092178 629.905234,760.629101 631.12,760.86 C636.34,762.11 641.85,760.65 646.71,758.4 C650.13,756.81 653.81,754.03 653.52,750.28 C653.38,748.49 652.34,746.92 651.63,745.28 C650.24,742.05 650.13,738.45 649.75,734.95 C648.81,726.17 646.1,717.69 644.06,709.11 C642.02,700.53 640.62,691.54 642.35,682.88 C645.891783,664.971303 651.555044,647.548467 659.22,630.98 C659.555859,630.100065 660.085641,629.3071 660.77,628.66 C661.537945,628.221534 662.270205,627.723331 662.96,627.17 C663.488945,626.347726 663.83036,625.419077 663.96,624.45 C664.72,621.71 666.96,619.68 668.49,617.28 C672.32,611.2 671.11,603.41 670.97,596.23 C670.83,589.23 671.83,582.23 670.69,575.31 C669.55,568.39 665.65,561.37 659,559.25 C655.71,558.18 652.15,558.43 648.71,558.77 C630.48,560.57 612.76,563.88 595.64,570.44 Z" id="Path" fill="#000000" opacity="0.1"></path>
            <path d="M669.92,613.23 C669.866095,615.942301 669.561464,618.643805 669.01,621.3 C665.79,639.3 662.363333,657.3 658.73,675.3 C658.41,676.86 658.1,678.42 657.68,679.95 C656.311023,684.948447 653.928294,689.611788 650.68,693.65 C635.53,712.54 634.22,739.97 626,762.75 C625.44,764.29 624.89,765.84 624.3,767.36 C622.813202,771.217841 621.120776,774.993252 619.23,778.67 C619.022001,779.200562 618.676922,779.666419 618.23,780.02 C617.721292,780.281019 617.149969,780.395284 616.58,780.35 C609.181792,780.38693 601.873937,778.724188 595.22,775.49 C594.271429,775.134736 593.471247,774.468505 592.95,773.6 C592.699296,772.905876 592.617038,772.162133 592.71,771.43 C592.94,766.92 593.22,762.24 595.37,758.27 C596.800566,755.896604 598.57292,753.746866 600.63,751.89 C601.109356,737.692641 602.836003,723.564916 605.79,709.67 C607.39,702.59 609.37,695.44 613.48,689.46 C616.48,685.04 620.86,680.68 620.32,675.35 C620.09,673.01 619.11,670.1 621.01,668.73 C621.84,668.12 623.07,668.04 623.64,667.18 C623.863559,666.774454 623.990198,666.32266 624.01,665.86 C624.40012,662.204362 624.170223,658.509093 623.33,654.93 C622.639212,652.589467 622.094825,650.208193 621.7,647.8 C621.327264,645.3582 621.974493,642.870528 623.49,640.92 C623.59,636.05 623.49,631 623.56,626.14 C623.752936,623.370898 623.520233,620.588583 622.87,617.89 C622.51,616.62 621.94,615.4 621.66,614.1 C620.66,609.43 623.18,603.83 620.16,600.1 C618.9,598.56 616.96,597.79 615.31,596.68 C612.073469,594.333152 609.7262,590.960275 608.65,587.11 C607.574798,583.281097 606.93739,579.342586 606.75,575.37 C606.655125,574.529335 606.655125,573.680665 606.75,572.84 C606.798336,572.401886 606.912979,571.973663 607.09,571.57 C608.03,569.46 610.55,568.64 612.8,568.1 C627.082925,564.676275 641.722504,562.96424 656.41,563 C661.85,559.3 664.9,560.63 667.21,564.54 C668.478576,566.935927 669.50692,569.45152 670.28,572.05 C671.28,575.23 671.4,593.05 672.42,596.22 C673.72,600.37 669.87,608.87 669.92,613.23 Z" id="Path" fill="#696791"></path>
            <path d="M571.68,451.29 C571.28,454.09 572.62,456.84 572.77,459.67 C572.9,462.14 572.11,464.55 571.67,466.98 C569.91,476.46 573.28,486.07 576.67,495.09 C577.324231,496.552519 577.729802,498.113966 577.87,499.71 C577.96,502.65 576.27,505.35 575.8,508.26 C574.8,514.37 579.33,520.11 579.43,526.26 C579.43,529.11 578.57,532.01 579.29,534.76 C579.76,536.6 580.91,538.19 581.72,539.9 C583.17,542.9 583.56,546.4 584.94,549.47 C587.43,555.02 592.78,558.65 597.88,561.98 C600.77,560.98 603.88,559.87 605.5,557.26 C606.199672,555.97589 606.650891,554.571344 606.83,553.12 C607.93,546.79 607.89,540.33 607.83,533.91 C607.939104,528.384061 607.661761,522.857255 607,517.37 C606,510.37 603.71,503.67 602.08,496.8 C600.08,488.15 598.99,479.21 595.8,470.9 C592.99,463.61 588.63,457.06 584.03,450.78 C582.28,448.39 580.89,444.97 577.49,445.52 C574.531884,446.028681 572.209105,448.335469 571.68,451.29 Z" id="Path" fill="#434175"></path>
            <path d="M571.68,449.29 C571.28,452.09 572.62,454.84 572.77,457.67 C572.9,460.14 572.11,462.55 571.67,464.98 C569.91,474.46 573.28,484.07 576.67,493.09 C577.324231,494.552519 577.729802,496.113966 577.87,497.71 C577.96,500.65 576.27,503.35 575.8,506.26 C574.8,512.37 579.33,518.11 579.43,524.26 C579.43,527.11 578.57,530.01 579.29,532.76 C579.76,534.6 580.91,536.19 581.72,537.9 C583.17,540.9 583.56,544.4 584.94,547.47 C587.43,553.02 592.78,556.65 597.88,559.98 C600.77,558.98 603.88,557.87 605.5,555.26 C606.199672,553.97589 606.650891,552.571344 606.83,551.12 C607.93,544.79 607.89,538.33 607.83,531.91 C607.939104,526.384061 607.661761,520.857255 607,515.37 C606,508.37 603.71,501.67 602.08,494.8 C600.08,486.15 598.99,477.21 595.8,468.9 C592.99,461.61 588.63,455.06 584.03,448.78 C582.28,446.39 580.89,442.97 577.49,443.52 C574.531884,444.028681 572.209105,446.335469 571.68,449.29 L571.68,449.29 Z" id="Path" fill="#000000" opacity="0.05"></path>
            <path d="M645.66,390.28 C643.408597,393.881683 641.548059,397.713386 640.11,401.71 C638.048566,402.217746 635.933042,402.472952 633.81,402.47 C625.56,402.47 619.73,397.78 614.88,391.85 C614.46,389.95 611.88,388.18 612.14,386.69 C612.53,384.69 614.39,385.1 616.07,385.21 C621.187446,385.61599 626.280769,386.283529 631.33,387.21 C632.65,387.37 645.46,390.61 645.66,390.28 Z" id="Path" fill="#000000" opacity="0.1"></path>
            <circle id="Oval" fill="#EE8E9E" cx="633.81" cy="375.34" r="26.41"></circle>
            <path d="M667.18,564.56 C662.61,564.29 658,564.48 653.42,564.66 C650.549152,564.692411 647.687264,564.986968 644.87,565.54 C641.4,566.33 638.16,567.91 634.74,568.9 C629.26,570.49 623.48,570.56 617.81,571.12 C614.082078,571.479402 610.37886,572.06043 606.72,572.86 C606.768336,572.421886 606.882979,571.993663 607.06,571.59 C608,569.48 610.52,568.66 612.77,568.12 C627.052925,564.696275 641.692504,562.98424 656.38,563.02 C661.82,559.37 664.87,560.65 667.18,564.56 Z" id="Path" fill="#000000" opacity="0.1"></path>
            <path d="M649.18,418.58 C648.03,419.91 646.48,421.38 644.78,420.95 C644.16089,420.7379 643.580084,420.427236 643.06,420.03 C640.06,418.03 636.28,417.61 632.7,417.03 C625.48088,415.943194 618.349184,414.339063 611.36,412.23 C609.327913,411.494249 607.198229,411.062921 605.04,410.95 C600.57,410.95 596.6,413.95 593.8,417.43 C591,420.91 589,425 586.25,428.53 C584.25,431.05 581.95,433.27 580.12,435.88 C575.5,442.47 574.5,451.07 575.7,459.03 C576.9,466.99 580.07,474.5 583.23,481.91 C584.90431,486.236673 586.959025,490.406339 589.37,494.37 C588.31,500.37 588.87,507.37 591.75,512.77 C592.68,514.54 593.83,516.26 594.14,518.24 C594.280658,519.574046 594.226762,520.921451 593.98,522.24 L592.63,531.8 C592.22,534.71 591.81,537.62 591.28,540.52 C590.28,545.81 589,551.52 591.45,556.34 C594.38,562.08 591.3,569.43 592.07,575.83 C600.333664,572.636918 608.992867,570.58145 617.81,569.72 C623.48,569.16 629.26,569.09 634.74,567.5 C638.16,566.5 641.4,564.93 644.87,564.13 C647.68745,563.579494 650.549411,563.288277 653.42,563.26 C659.75,563.01 666.12,562.75 672.42,563.68 C672.92,563.76 673.54,563.8 673.85,563.39 C673.979168,563.161451 674.044773,562.902481 674.04,562.64 C674.13542,560.292936 673.574406,557.965767 672.42,555.92 C671.62,554.51 670.51,553.13 670.54,551.51 C670.593753,550.753437 670.779912,550.012186 671.09,549.32 L673.86,541.92 C676.21,535.67 675.09,528.41 676.31,521.85 C677.260935,516.719504 677.868948,511.531345 678.13,506.32 C678.36,501.87 678.22,497.05 675.53,493.49 C674.753865,492.628997 674.082516,491.679038 673.53,490.66 C673.140017,489.581612 672.976614,488.434387 673.05,487.29 C672.99,478.383333 673.233333,469.476667 673.78,460.57 C671.44,456.36 668.99,452.06 666.65,447.85 C663.92,442.95 661.16,437.95 660.06,432.45 C659.33,428.82 659.35,425.07 658.83,421.4 C658.773772,420.465554 658.451043,419.566771 657.9,418.81 C656.868838,417.908784 655.495282,417.503293 654.14,417.7 C652.451277,417.736784 650.778308,418.033601 649.18,418.58 L649.18,418.58 Z" id="Path" fill="#434175"></path>
            <path d="M745.87,402.71 C744.211471,403.993726 742.233461,404.799454 740.15,405.04 C737.43,405.22 731.64,403.62 729.95,401.29 C729.226901,400.118644 728.878063,398.754689 728.95,397.38 C729.319962,397.261839 729.702637,397.187989 730.09,397.16 C733.044801,396.838671 736.031009,396.960007 738.95,397.52 C741.83,398.22 744.61,399.97 745.82,402.68 L745.87,402.71 Z" id="Path" fill="#000000" opacity="0.1"></path>
            <path d="M658,459.83 C659.61,461.83 661.28,463.89 663.56,465.08 C666.19,466.44 669.28,466.47 672.23,466.41 C684.400451,466.139438 696.523654,464.800967 708.46,462.41 C709.823015,462.175339 711.161863,461.817198 712.46,461.34 C713.885623,460.656288 715.227793,459.810721 716.46,458.82 C720.39,456 724.38,453.12 727.37,449.31 C730.920352,444.709967 733.153316,439.231256 733.83,433.46 C736.67,430.85 738.18,427.12 739.6,423.53 C740.302225,422.006912 740.74822,420.378355 740.92,418.71 C740.99,417 739.86,415.21 740.18,413.53 C740.724248,410.629585 742.194461,407.983902 744.37,405.99 C744.833147,405.66105 745.182599,405.196278 745.37,404.66 C745.432884,404.216475 745.352292,403.764463 745.14,403.37 C743.92,400.66 741.14,398.92 738.26,398.21 C735.338223,397.644948 732.347958,397.523584 729.39,397.85 C728.405202,398.037176 727.43582,398.297907 726.49,398.63 L724.42,404.06 C724.146301,404.971112 723.686622,405.81556 723.07,406.54 C722.612497,406.958975 722.124486,407.343367 721.61,407.69 C719.479046,409.495688 718.387815,412.244389 718.7,415.02 C714.826964,416.52469 712.787763,420.778132 714.04,424.74 C710.881918,425.421363 708.303728,427.692896 707.23,430.74 C707.084527,431.424653 706.779604,432.065335 706.34,432.61 C705.671068,433.125764 704.84433,433.394277 704,433.37 C701.66,433.51 699.62,435.37 697.51,434.37 C695.105427,433.248442 692.420188,432.8723 689.8,433.29 C689.26008,433.419115 688.704352,433.469635 688.15,433.44 C687.677524,433.357448 687.221589,433.198716 686.8,432.97 C685.847752,432.415076 684.815622,432.01032 683.74,431.77 C682.636679,431.534148 681.498378,431.973767 680.84,432.89 C680.1,432.08 679.66,431.04 678.99,430.17 C678.377312,429.227037 677.288726,428.705906 676.17,428.82 C676.87,428.2 676.17,426.95 675.24,426.72 C674.302526,426.648891 673.360048,426.682431 672.43,426.82 C669.99,426.82 668.11,424.59 665.74,424.01 C663.56,423.48 660.65,424.12 659.53,422.17 C659.14,421.48 659.06,420.54 658.39,420.17 C657.931448,419.942945 657.408091,419.882829 656.91,420 C655.362714,420.203122 653.859339,420.659202 652.46,421.35 C650.17,430.35 651.37,439.59 653.11,448.65 C653.752614,452.734835 655.436733,456.585236 658,459.83 Z" id="Path" fill="#434175"></path>
            <path d="M657.93,491.88 L646.56,514.82 C647.79,512.69 650.38,511.82 652.43,510.51 C655.018539,508.629938 656.963733,505.996767 658,502.97 C659.028829,499.953964 659.74918,496.841377 660.15,493.68 C660.38,492.23 660.86,490.19 660.15,488.87 C658.89,489.14 658.47,490.81 657.93,491.88 Z" id="Path" fill="#000000" opacity="0.1"></path>
            <path d="M625.21,511.37 C622.64,513.91 619.5,515.78 616.68,518.03 C610.08,523.29 605.38,530.49 600.79,537.56 C599.492737,539.40811 598.402841,541.393398 597.54,543.48 C598.08,543.94 598.88,543.48 599.42,542.99 L608.35,535.15 C609.452584,534.258135 610.458135,533.252584 611.35,532.15 C612.9,530.06 613.59,527.46 615,525.27 C616.53293,523.173674 618.361994,521.310925 620.43,519.74 C622.48,517.98 631.9,510.01 629.61,506.91 C627.92,507.71 626.56,510.01 625.21,511.37 Z" id="Path" fill="#000000" opacity="0.1"></path>
            <path d="M644.72,411.95 C641.791897,410.332195 638.586598,409.277329 635.27,408.84 C633.303116,408.394997 631.280241,408.250024 629.27,408.41 C627.41,408.64 625.62,409.36 623.75,409.41 C621.12,409.56 618.61,408.49 616.07,407.8 C613.53,407.11 610.6,406.8 608.47,408.37 C608.013968,408.818453 607.437108,409.124258 606.81,409.25 C606.163871,409.163237 605.563589,408.868362 605.1,408.41 C601.400513,405.761806 596.360538,406.027505 592.96,409.05 C588.12,413.59 588.67,422.46 582.96,425.91 C581.4,426.91 579.4,427.36 578.48,428.91 C578.257148,429.413763 577.999873,429.901583 577.71,430.37 C577.332966,430.796285 576.869309,431.137209 576.35,431.37 C574.702282,432.104594 573.134105,433.00596 571.67,434.06 C570.193486,435.13146 569.22113,436.761693 568.98,438.57 C568.958749,439.879532 569.239331,441.176371 569.8,442.36 C575.492545,456.316312 589.353138,465.178921 604.41,464.49 C605.716748,464.563981 607.006128,464.162604 608.04,463.36 C608.583885,462.74413 609.013914,462.036446 609.31,461.27 C611.98,455.68 616.99,451.55 620.17,446.27 C622.06,443.1 623.28,439.55 625.26,436.43 C628.26,431.7 632.8,428.2 637.26,424.81 C639.78,422.9 642.57,420.89 645.73,421.02 C648.54,421.14 650.59,421.29 649.55,417.85 C648.694909,415.370382 646.981927,413.27792 644.72,411.95 Z" id="Path" fill="#434175"></path>
            <path d="M644.72,411.95 C641.791897,410.332195 638.586598,409.277329 635.27,408.84 C633.303116,408.394997 631.280241,408.250024 629.27,408.41 C627.41,408.64 625.62,409.36 623.75,409.41 C621.12,409.56 618.61,408.49 616.07,407.8 C613.53,407.11 610.6,406.8 608.47,408.37 C608.013968,408.818453 607.437108,409.124258 606.81,409.25 C606.163871,409.163237 605.563589,408.868362 605.1,408.41 C601.400513,405.761806 596.360538,406.027505 592.96,409.05 C588.12,413.59 588.67,422.46 582.96,425.91 C581.4,426.91 579.4,427.36 578.48,428.91 C578.257148,429.413763 577.999873,429.901583 577.71,430.37 C577.332966,430.796285 576.869309,431.137209 576.35,431.37 C574.702282,432.104594 573.134105,433.00596 571.67,434.06 C570.193486,435.13146 569.22113,436.761693 568.98,438.57 C568.958749,439.879532 569.239331,441.176371 569.8,442.36 C575.492545,456.316312 589.353138,465.178921 604.41,464.49 C605.716748,464.563981 607.006128,464.162604 608.04,463.36 C608.583885,462.74413 609.013914,462.036446 609.31,461.27 C611.98,455.68 616.99,451.55 620.17,446.27 C622.06,443.1 623.28,439.55 625.26,436.43 C628.26,431.7 632.8,428.2 637.26,424.81 C639.78,422.9 642.57,420.89 645.73,421.02 C648.54,421.14 650.59,421.29 649.55,417.85 C648.694909,415.370382 646.981927,413.27792 644.72,411.95 Z" id="Path" fill="#000000" opacity="0.05"></path>
            <path d="M658.47,794.73 C656.55,796.52 653.92,797.3 651.37,797.85 C645.538128,798.990232 639.63378,799.72201 633.7,800.04 L627.93,800.48 C622.3,800.91 616.66,801.34 611.01,801.36 C604.03024,801.381319 597.062534,800.778924 590.19,799.56 C589.552277,799.536003 588.953802,799.245833 588.54,798.76 C588.325594,798.358844 588.238395,797.901921 588.29,797.45 C588.410922,790.413035 589.268941,783.408115 590.85,776.55 C591.5,773.74 596.55,780.05 596.78,780.32 C597.837293,781.812947 599.540923,782.714868 601.37,782.75 C607.18,783.07 613.69,779.54 618.3,776.4 C619.290589,775.663768 620.340902,775.011504 621.44,774.45 C622.247601,774.089003 623.103093,773.846501 623.98,773.73 C626.969382,773.451849 629.974467,774.060518 632.62,775.48 C636.09,777.2 639.13,779.67 642.62,781.48 C645.414584,782.912521 648.429814,783.865766 651.54,784.3 C654.68,784.73 658.44,784.94 660.05,787.66 L660.05,787.66 C661.33,789.91 660.37,792.95 658.47,794.73 Z" id="Path" fill="#434175"></path>
            <path d="M658.47,795.77 C656.55,797.56 653.92,798.34 651.37,798.89 C645.538128,800.030232 639.63378,800.76201 633.7,801.08 L627.93,801.52 C622.3,801.95 616.66,802.38 611.01,802.4 C604.030033,802.42632 597.06188,801.823886 590.19,800.6 C589.55354,800.579753 588.954849,800.293107 588.54,799.81 C587.99744,799.090305 587.562857,798.295254 587.25,797.45 C587.37,790.45 589.25,783.4 590.85,776.55 C591.5,773.74 596.55,780.05 596.78,780.32 C597.837293,781.812947 599.540923,782.714868 601.37,782.75 C607.18,783.07 613.69,779.54 618.3,776.4 C619.290589,775.663768 620.340902,775.011504 621.44,774.45 C622.247601,774.089003 623.103093,773.846501 623.98,773.73 C623.23,777.91 617.24,782.96 614.14,784.5 C607.88,787.61 600.44,786.05 593.46,786.42 C592.948163,786.409328 592.44211,786.529817 591.99,786.77 C591.16,787.33 591.11,788.52 591.13,789.52 C591.19,791.18 591.4,793.14 592.85,793.98 C593.572084,794.329262 594.368354,794.49744 595.17,794.47 C612.380857,795.222344 629.62424,794.617137 646.74,792.66 C649.619113,792.469613 652.452021,791.838954 655.14,790.79 C656.897945,789.968533 658.536237,788.912222 660.01,787.65 C662.21,789.37 660.37,793.99 658.47,795.77 Z" id="Path" fill="#E8EAF2"></path>
            <path d="M644.09,375.06 C643.99,377.79 645.85,383.06 640.74,381.61 C637.74,380.73 636.84,377.12 632.98,377.92 C629.12,378.72 628.22,383.49 626.92,386.6 C624.763728,391.617674 620.276062,395.252684 614.92,396.32 C613.831386,396.574873 612.698614,396.574873 611.61,396.32 C609.12,395.61 607.7,393.04 606.68,390.66 C605.799129,388.643975 605.070426,386.564831 604.5,384.44 C604.097962,382.947315 603.833523,381.420936 603.71,379.88 L603.71,379.88 C603.624966,378.831722 603.624966,377.778278 603.71,376.73 C604.17,370.52 607.71,364.86 612.23,360.58 C616.75,356.3 622.23,353.2 627.68,350.15 C629.455199,349.047209 631.373001,348.19261 633.38,347.61 C635.355054,347.215975 637.379785,347.134986 639.38,347.37 C642.024435,347.47839 644.624053,348.089266 647.04,349.17 C648.028593,349.657803 648.935947,350.295312 649.73,351.06 C650.8644,352.107475 651.676207,353.457018 652.07,354.95 C653.07,358.95 650.49,362.58 648.41,365.75 C646.51,368.56 644.22,371.54 644.09,375.06 Z" id="Path" fill="#434175"></path>
            <path d="M730,433.67 C728.91,430.92 724.33,423.31 725.65,420.67 C727.030861,422.620645 728.20075,424.712365 729.14,426.91 C730,429.06 729.32,431.92 730,433.67 Z" id="Path" fill="#000000" opacity="0.1"></path>
            <path d="M648.47,365.74 C650.55,362.57 653.11,358.95 652.13,354.94 C651.644938,353.170609 650.590626,351.610227 649.13,350.5 C649.469057,351.08496 649.724855,351.714359 649.89,352.37 C650.89,356.37 648.31,359.99 646.23,363.17 C644.38,365.99 642.09,368.98 641.95,372.49 C641.85,375.22 643.72,380.49 638.61,379.04 C635.61,378.16 634.71,374.55 630.84,375.35 C626.97,376.15 626.09,380.91 624.78,384.03 C622.626576,389.049829 618.137578,392.685917 612.78,393.75 C611.691386,394.004873 610.558614,394.004873 609.47,393.75 C608.909373,393.585508 608.381542,393.324976 607.91,392.98 C608.689504,394.537402 610.040007,395.733868 611.68,396.32 C612.77254,396.57007 613.90746,396.57007 615,396.32 C620.355192,395.244204 624.84066,391.607237 627,386.59 C628.31,383.47 629.16,378.73 633.06,377.92 C636.96,377.11 637.78,380.72 640.83,381.6 C645.94,383.08 644.07,377.78 644.17,375.05 C644.33,371.55 646.63,368.56 648.47,365.74 Z" id="Path" fill="#000000" opacity="0.1"></path>
            <path d="M649.6,360.31 C649.127216,361.088464 648.606198,361.836592 648.04,362.55 C646.96175,363.911618 645.752637,365.164274 644.43,366.29 C643.64,366.97 642.83,367.6 641.99,368.2 C640.422493,369.30484 638.774566,370.290923 637.06,371.15 C631.984,373.512302 626.70183,375.403573 621.28,376.8 L610.74,379.87 C609.44,380.87 607.07,382.61 604.46,384.44 C604.057962,382.947315 603.793523,381.420936 603.67,379.88 L603.67,379.88 C603.584966,378.831722 603.584966,377.778278 603.67,376.73 C604.13,370.52 607.67,364.86 612.19,360.58 C616.71,356.3 622.19,353.2 627.64,350.15 C629.415199,349.047209 631.333001,348.19261 633.34,347.61 C635.315054,347.215975 637.339785,347.134986 639.34,347.37 C641.984435,347.47839 644.584053,348.089266 647,349.17 C647.988593,349.657803 648.895947,350.295312 649.69,351.06 C650.286815,351.936857 650.742354,352.901926 651.04,353.92 C651.7,356.07 650.78,358.37 649.6,360.31 Z" id="Path" fill="#000000" opacity="0.1"></path>
            <path d="M649.6,359.6 C649.127216,360.378464 648.606198,361.126592 648.04,361.84 C646.96175,363.201618 645.752637,364.454274 644.43,365.58 C643.64,366.26 642.83,366.89 641.99,367.49 C640.420164,368.591254 638.772507,369.577175 637.06,370.44 C631.984,372.802302 626.70183,374.693573 621.28,376.09 L610.74,379.15 C607.06,381.94 594.74,391.06 592.67,389.92 C590.23,388.58 603.6,379.11 603.6,379.11 L604.21,379.58 C602.21,378.35 601.21,375.5 600.79,373.03 C600.01,368.61 599.64,364.03 600.69,359.66 C601.74,355.29 604.36,351.15 608.35,349.11 C610.12,348.19 612.27,347.58 613.55,346.18 C613.742073,345.967164 613.912885,345.736066 614.06,345.49 C614.138411,345.376911 614.205406,345.256321 614.26,345.13 C614.393924,344.741903 614.582487,344.374877 614.82,344.04 C615.55,343.2 616.88,343.45 617.99,343.59 L618.35,343.59 C618.546534,343.600221 618.743466,343.600221 618.94,343.59 C622.94,343.68 626.75,341.47 630.76,341.47 C635.15,341.47 638.89,344.01 642.76,345.75 C643.54,346.1 644.28,346.42 644.98,346.75 C647.78,348.05 649.88,349.44 650.98,353.13 C651.7,355.37 650.78,357.68 649.6,359.6 Z" id="Path" fill="#38D39F"></path>
            <path d="M618.94,343.65 C619.396426,344.420173 619.217465,345.408721 618.52,345.97 C618.032769,346.31811 617.457637,346.522524 616.86,346.56 C616.428976,346.61855 615.994908,346.651939 615.56,346.66 C614.974846,346.704957 614.387613,346.605368 613.85,346.37 C613.745044,346.314854 613.644717,346.251314 613.55,346.18 C613.742073,345.967164 613.912885,345.736066 614.06,345.49 C614.16,345.57 614.26,345.55 614.65,345.49 C615.375109,345.455503 616.093515,345.334649 616.79,345.13 C617.078817,345.05146 617.350229,344.919147 617.59,344.74 C617.946917,344.436188 618.21043,344.03745 618.35,343.59 L618.94,343.65 Z" id="Path" fill="#000000" opacity="0.1"></path>
            <path d="M603.86,379.01 C604.417849,379.357863 605.040355,379.589177 605.69,379.69 C606.152506,379.807097 606.624257,379.88405 607.1,379.92 C608.311893,379.858153 609.492887,379.515836 610.55,378.92" id="Path" fill="#000000" opacity="0.1"></path>
        </g>
    </g>
</svg>