<svg viewBox="0 0 216 48" version="1.1" xmlns="http://www.w3.org/2000/svg" xmlns:xlink="http://www.w3.org/1999/xlink">
    <defs>
        <polygon id="path-1" points="0.6962 0.1813 20.2932 0.1813 20.2932 29 0.6962 29"></polygon>
        <polygon id="path-3" points="0 49 215.163 49 215.163 0.994 0 0.994"></polygon>
    </defs>
    <g id="Page-1" stroke="none" stroke-width="1" fill="none" fill-rule="evenodd">
        <g id="LOGO" transform="translate(-532.000000, -336.000000)">
            <g id="Group-17" transform="translate(532.000000, 335.000000)">
                <polygon id="Fill-1" fill="#000000" points="0 12.6127 0 16.9767 8.11 16.9767 8.11 41.4307 12.515 41.4307 12.515 16.9767 20.626 16.9767 20.626 12.6127"></polygon>
                <path d="M28.569,17.966 L33.921,17.966 L33.921,12.613 L28.569,12.613 L28.569,17.966 Z M23.752,20.188 L33.509,20.188 L33.509,37.273 L41.002,37.273 L41.002,41.431 L21.693,41.431 L21.693,37.273 L29.186,37.273 L29.186,24.346 L23.752,24.346 L23.752,20.188 Z" id="Fill-2" fill="#000000"></path>
                <g id="Group-16" transform="translate(0.000000, 0.006000)">
                    <path d="M49.3144,41.4249 L44.9914,41.4249 L44.9914,20.1819 L49.3144,20.1819 L49.3144,22.0339 C49.9314,20.7989 52.0314,19.6059 54.2534,19.6059 C57.9184,19.6059 62.6934,21.8699 62.6934,28.4149 L62.6934,41.4249 L58.3714,41.4249 L58.3714,28.4979 C58.3714,25.2869 56.5184,23.8049 53.8424,23.8049 C51.1674,23.8049 49.3144,25.2869 49.3144,28.4979 L49.3144,41.4249 Z" id="Fill-3" fill="#000000"></path>
                    <g id="Group-7" transform="translate(65.000000, 20.000000)">
                        <mask id="mask-2" fill="white">
                            <use xlink:href="#path-1"></use>
                        </mask>
                        <g id="Clip-6"></g>
                        <path d="M10.8652,26.3233 C10.2482,28.0943 8.7242,29.0003 6.1722,29.0003 L3.2902,29.0003 L3.2902,24.8423 L4.8132,24.8423 C6.9132,24.8423 6.9952,24.4703 7.6952,22.7013 L8.2712,21.1363 L0.6962,0.1813 L5.1832,0.1813 L10.4952,15.2903 L15.8052,0.1813 L20.2932,0.1813 L10.8652,26.3233 Z" id="Fill-5" fill="#000000" mask="url(#mask-2)"></path>
                    </g>
                    <path d="M102.5039,16.8888 L102.5039,27.0978 L109.0499,27.0978 C112.7549,27.0978 114.2769,24.7508 114.2769,21.9928 C114.2769,19.2358 112.7549,16.8888 109.0499,16.8888 L102.5039,16.8888 Z M102.5039,41.4248 L98.0989,41.4248 L98.0989,12.6068 L109.0499,12.6068 C115.7189,12.6068 118.7649,16.9298 118.7649,22.0348 C118.7649,27.1398 115.7189,31.4618 109.0499,31.4618 L102.5039,31.4618 L102.5039,41.4248 Z" id="Fill-8" fill="#000000"></path>
                    <mask id="mask-4" fill="white">
                        <use xlink:href="#path-3"></use>
                    </mask>
                    <g id="Clip-11"></g>
                    <path d="M126.544,17.96 L131.896,17.96 L131.896,12.607 L126.544,12.607 L126.544,17.96 Z M121.727,20.182 L131.483,20.182 L131.483,37.267 L138.977,37.267 L138.977,41.425 L119.668,41.425 L119.668,37.267 L127.161,37.267 L127.161,24.34 L121.727,24.34 L121.727,20.182 Z" id="Fill-10" fill="#000000" mask="url(#mask-4)"></path>
                    <polygon id="Fill-12" fill="#000000" mask="url(#mask-4)" points="150.9111 33.8087 145.9311 41.4247 141.1541 41.4247 148.3591 30.5147 141.4841 20.1817 146.2601 20.1817 150.9111 27.2627 155.5631 20.1817 160.3391 20.1817 153.4641 30.5147 160.6691 41.4247 155.8921 41.4247"></polygon>
                    <path d="M168.1581,28.3741 L168.1581,28.4151 L177.2161,28.4151 L177.2161,28.3741 C177.1751,25.2871 175.3221,23.7641 172.6871,23.7641 C170.0111,23.7641 168.1581,25.2451 168.1581,28.3741 M177.0101,34.6731 L181.4151,34.6731 C180.6741,40.3131 176.1041,41.8361 172.6871,41.8361 C168.9821,41.8361 163.8361,40.0241 163.8361,33.0261 L163.8361,28.4151 C163.8361,21.4171 168.9821,19.6051 172.6871,19.6051 C176.3921,19.6051 181.5381,21.4171 181.5381,28.4151 L181.5381,32.2441 L168.1581,32.2441 L168.1581,32.9441 C168.1581,36.1551 170.0111,37.6791 172.6871,37.6791 C174.8281,37.6791 176.4331,36.6901 177.0101,34.6731" id="Fill-13" fill="#000000" mask="url(#mask-4)"></path>
                    <polygon id="Fill-14" fill="#000000" mask="url(#mask-4)" points="185.9814 12.6065 195.7384 12.6065 195.7384 37.2665 203.2304 37.2665 203.2304 41.4245 183.9224 41.4245 183.9224 37.2665 191.4154 37.2665 191.4154 16.7645 185.9814 16.7645"></polygon>
                    <polygon id="Fill-15" fill="#000000" mask="url(#mask-4)" points="209.811 6.347 215.163 6.347 215.163 0.994 209.811 0.994"></polygon>
                </g>
            </g>
        </g>
    </g>
</svg>