<?xml version="1.0" encoding="UTF-8"?>
<svg width="898px" height="220px" viewBox="0 0 898 220" version="1.1" xmlns="http://www.w3.org/2000/svg" xmlns:xlink="http://www.w3.org/1999/xlink">
    <!-- Generator: Sketch Beta 53 (71402) - https://sketchapp.com -->
    <title>Group</title>
    <desc>Created with Sketch Beta.</desc>
    <g id="Page-1" stroke="none" stroke-width="1" fill="none" fill-rule="evenodd">
        <g id="Group" fill="#38D39F" fill-rule="nonzero">
            <rect id="Rectangle" opacity="0.2" x="139.47" y="-5.32907052e-15" width="25.51" height="25.51"></rect>
            <rect id="Rectangle" opacity="0.2" x="174.33" y="-5.32907052e-15" width="25.51" height="25.51"></rect>
            <rect id="Rectangle" opacity="0.2" x="209.2" y="-5.32907052e-15" width="25.51" height="25.51"></rect>
            <rect id="Rectangle" opacity="0.2" x="244.06" y="-5.32907052e-15" width="25.51" height="25.51"></rect>
            <rect id="Rectangle" opacity="0.2" x="278.93" y="-5.32907052e-15" width="25.51" height="25.51"></rect>
            <rect id="Rectangle" x="313.8" y="-5.32907052e-15" width="25.51" height="25.51"></rect>
            <rect id="Rectangle" opacity="0.2" x="348.66" y="-5.32907052e-15" width="25.51" height="25.51"></rect>
            <rect id="Rectangle" opacity="0.2" x="383.53" y="-5.32907052e-15" width="25.51" height="25.51"></rect>
            <rect id="Rectangle" opacity="0.2" x="418.39" y="-5.32907052e-15" width="25.51" height="25.51"></rect>
            <rect id="Rectangle" x="453.26" y="-5.32907052e-15" width="25.51" height="25.51"></rect>
            <rect id="Rectangle" opacity="0.2" x="488.13" y="-5.32907052e-15" width="25.51" height="25.51"></rect>
            <rect id="Rectangle" opacity="0.2" x="522.99" y="-5.32907052e-15" width="25.51" height="25.51"></rect>
            <rect id="Rectangle" opacity="0.2" x="557.86" y="-5.32907052e-15" width="25.51" height="25.51"></rect>
            <rect id="Rectangle" opacity="0.2" x="592.73" y="-5.32907052e-15" width="25.51" height="25.51"></rect>
            <rect id="Rectangle" opacity="0.2" x="627.59" y="-5.32907052e-15" width="25.51" height="25.51"></rect>
            <rect id="Rectangle" opacity="0.2" x="662.46" y="-5.32907052e-15" width="25.51" height="25.51"></rect>
            <rect id="Rectangle" x="697.32" y="-5.32907052e-15" width="25.51" height="25.51"></rect>
            <rect id="Rectangle" x="732.19" y="-5.32907052e-15" width="25.51" height="25.51"></rect>
            <rect id="Rectangle" opacity="0.2" x="767.06" y="-5.32907052e-15" width="25.51" height="25.51"></rect>
            <rect id="Rectangle" opacity="0.2" x="801.92" y="-5.32907052e-15" width="25.51" height="25.51"></rect>
            <rect id="Rectangle" x="836.79" y="-5.32907052e-15" width="25.51" height="25.51"></rect>
            <rect id="Rectangle" x="871.65" y="-5.32907052e-15" width="25.51" height="25.51"></rect>
            <rect id="Rectangle" opacity="0.2" x="104.6" y="32.31" width="25.51" height="25.51"></rect>
            <rect id="Rectangle" x="139.47" y="32.31" width="25.51" height="25.51"></rect>
            <rect id="Rectangle" opacity="0.2" x="174.33" y="32.31" width="25.51" height="25.51"></rect>
            <rect id="Rectangle" opacity="0.7" x="209.2" y="32.31" width="25.51" height="25.51"></rect>
            <rect id="Rectangle" opacity="0.2" x="244.06" y="32.31" width="25.51" height="25.51"></rect>
            <rect id="Rectangle" opacity="0.4" x="278.93" y="32.31" width="25.51" height="25.51"></rect>
            <rect id="Rectangle" x="313.8" y="32.31" width="25.51" height="25.51"></rect>
            <rect id="Rectangle" opacity="0.4" x="348.66" y="32.31" width="25.51" height="25.51"></rect>
            <rect id="Rectangle" opacity="0.2" x="383.53" y="32.31" width="25.51" height="25.51"></rect>
            <rect id="Rectangle" opacity="0.4" x="418.39" y="32.31" width="25.51" height="25.51"></rect>
            <rect id="Rectangle" x="453.26" y="32.31" width="25.51" height="25.51"></rect>
            <rect id="Rectangle" opacity="0.4" x="488.13" y="32.31" width="25.51" height="25.51"></rect>
            <rect id="Rectangle" opacity="0.4" x="522.99" y="32.31" width="25.51" height="25.51"></rect>
            <rect id="Rectangle" opacity="0.2" x="557.86" y="32.31" width="25.51" height="25.51"></rect>
            <rect id="Rectangle" opacity="0.4" x="592.73" y="32.31" width="25.51" height="25.51"></rect>
            <rect id="Rectangle" opacity="0.4" x="627.59" y="32.31" width="25.51" height="25.51"></rect>
            <rect id="Rectangle" opacity="0.2" x="662.46" y="32.31" width="25.51" height="25.51"></rect>
            <rect id="Rectangle" opacity="0.2" x="697.32" y="32.31" width="25.51" height="25.51"></rect>
            <rect id="Rectangle" opacity="0.4" x="732.19" y="32.31" width="25.51" height="25.51"></rect>
            <rect id="Rectangle" opacity="0.2" x="767.06" y="32.31" width="25.51" height="25.51"></rect>
            <rect id="Rectangle" x="801.92" y="32.31" width="25.51" height="25.51"></rect>
            <rect id="Rectangle" x="836.79" y="32.31" width="25.51" height="25.51"></rect>
            <rect id="Rectangle" x="871.65" y="32.31" width="25.51" height="25.51"></rect>
            <rect id="Rectangle" x="69.73" y="64.63" width="25.51" height="25.51"></rect>
            <rect id="Rectangle" opacity="0.7" x="104.6" y="64.63" width="25.51" height="25.51"></rect>
            <rect id="Rectangle" x="139.47" y="64.63" width="25.51" height="25.51"></rect>
            <rect id="Rectangle" opacity="0.7" x="174.33" y="64.63" width="25.51" height="25.51"></rect>
            <rect id="Rectangle" opacity="0.7" x="209.2" y="64.63" width="25.51" height="25.51"></rect>
            <rect id="Rectangle" opacity="0.2" x="244.06" y="64.63" width="25.51" height="25.51"></rect>
            <rect id="Rectangle" opacity="0.4" x="278.93" y="64.63" width="25.51" height="25.51"></rect>
            <rect id="Rectangle" opacity="0.4" x="313.8" y="64.63" width="25.51" height="25.51"></rect>
            <rect id="Rectangle" x="348.66" y="64.63" width="25.51" height="25.51"></rect>
            <rect id="Rectangle" opacity="0.2" x="383.53" y="64.63" width="25.51" height="25.51"></rect>
            <rect id="Rectangle" opacity="0.4" x="418.39" y="64.63" width="25.51" height="25.51"></rect>
            <rect id="Rectangle" x="453.26" y="64.63" width="25.51" height="25.51"></rect>
            <rect id="Rectangle" opacity="0.2" x="488.13" y="64.63" width="25.51" height="25.51"></rect>
            <rect id="Rectangle" opacity="0.4" x="522.99" y="64.63" width="25.51" height="25.51"></rect>
            <rect id="Rectangle" opacity="0.2" x="557.86" y="64.63" width="25.51" height="25.51"></rect>
            <rect id="Rectangle" x="592.73" y="64.63" width="25.51" height="25.51"></rect>
            <rect id="Rectangle" opacity="0.2" x="627.59" y="64.63" width="25.51" height="25.51"></rect>
            <rect id="Rectangle" opacity="0.7" x="662.46" y="64.63" width="25.51" height="25.51"></rect>
            <rect id="Rectangle" opacity="0.7" x="697.32" y="64.63" width="25.51" height="25.51"></rect>
            <rect id="Rectangle" opacity="0.4" x="732.19" y="64.63" width="25.51" height="25.51"></rect>
            <rect id="Rectangle" opacity="0.2" x="767.06" y="64.63" width="25.51" height="25.51"></rect>
            <rect id="Rectangle" x="801.92" y="64.63" width="25.51" height="25.51"></rect>
            <rect id="Rectangle" x="836.79" y="64.63" width="25.51" height="25.51"></rect>
            <rect id="Rectangle" x="871.65" y="64.63" width="25.51" height="25.51"></rect>
            <rect id="Rectangle" opacity="0.2" x="-5.32907052e-15" y="96.94" width="25.51" height="25.51"></rect>
            <rect id="Rectangle" opacity="0.2" x="34.87" y="96.94" width="25.51" height="25.51"></rect>
            <rect id="Rectangle" opacity="0.2" x="69.73" y="96.94" width="25.51" height="25.51"></rect>
            <rect id="Rectangle" opacity="0.2" x="104.6" y="96.94" width="25.51" height="25.51"></rect>
            <rect id="Rectangle" x="139.47" y="96.94" width="25.51" height="25.51"></rect>
            <rect id="Rectangle" opacity="0.7" x="174.33" y="96.94" width="25.51" height="25.51"></rect>
            <rect id="Rectangle" opacity="0.7" x="209.2" y="96.94" width="25.51" height="25.51"></rect>
            <rect id="Rectangle" opacity="0.2" x="244.06" y="96.94" width="25.51" height="25.51"></rect>
            <rect id="Rectangle" opacity="0.2" x="278.93" y="96.94" width="25.51" height="25.51"></rect>
            <rect id="Rectangle" opacity="0.4" x="313.8" y="96.94" width="25.51" height="25.51"></rect>
            <rect id="Rectangle" opacity="0.4" x="348.66" y="96.94" width="25.51" height="25.51"></rect>
            <rect id="Rectangle" x="383.53" y="96.94" width="25.51" height="25.51"></rect>
            <rect id="Rectangle" opacity="0.2" x="418.39" y="96.94" width="25.51" height="25.51"></rect>
            <rect id="Rectangle" opacity="0.4" x="453.26" y="96.94" width="25.51" height="25.51"></rect>
            <rect id="Rectangle" opacity="0.4" x="488.13" y="96.94" width="25.51" height="25.51"></rect>
            <rect id="Rectangle" opacity="0.4" x="522.99" y="96.94" width="25.51" height="25.51"></rect>
            <rect id="Rectangle" opacity="0.4" x="557.86" y="96.94" width="25.51" height="25.51"></rect>
            <rect id="Rectangle" opacity="0.2" x="592.73" y="96.94" width="25.51" height="25.51"></rect>
            <rect id="Rectangle" opacity="0.2" x="627.59" y="96.94" width="25.51" height="25.51"></rect>
            <rect id="Rectangle" opacity="0.2" x="662.46" y="96.94" width="25.51" height="25.51"></rect>
            <rect id="Rectangle" opacity="0.2" x="697.32" y="96.94" width="25.51" height="25.51"></rect>
            <rect id="Rectangle" opacity="0.7" x="732.19" y="96.94" width="25.51" height="25.51"></rect>
            <rect id="Rectangle" opacity="0.7" x="767.06" y="96.94" width="25.51" height="25.51"></rect>
            <rect id="Rectangle" opacity="0.4" x="801.92" y="96.94" width="25.51" height="25.51"></rect>
            <rect id="Rectangle" opacity="0.2" x="836.79" y="96.94" width="25.51" height="25.51"></rect>
            <rect id="Rectangle" x="871.65" y="96.94" width="25.51" height="25.51"></rect>
            <rect id="Rectangle" opacity="0.2" x="-5.32907052e-15" y="129.26" width="25.51" height="25.51"></rect>
            <rect id="Rectangle" opacity="0.4" x="69.73" y="129.26" width="25.51" height="25.51"></rect>
            <rect id="Rectangle" opacity="0.2" x="104.6" y="129.26" width="25.51" height="25.51"></rect>
            <rect id="Rectangle" opacity="0.2" x="139.47" y="129.26" width="25.51" height="25.51"></rect>
            <rect id="Rectangle" opacity="0.7" x="174.33" y="129.26" width="25.51" height="25.51"></rect>
            <rect id="Rectangle" opacity="0.7" x="209.2" y="129.26" width="25.51" height="25.51"></rect>
            <rect id="Rectangle" opacity="0.2" x="244.06" y="129.26" width="25.51" height="25.51"></rect>
            <rect id="Rectangle" opacity="0.2" x="278.93" y="129.26" width="25.51" height="25.51"></rect>
            <rect id="Rectangle" opacity="0.4" x="313.8" y="129.26" width="25.51" height="25.51"></rect>
            <rect id="Rectangle" x="348.66" y="129.26" width="25.51" height="25.51"></rect>
            <rect id="Rectangle" opacity="0.2" x="383.53" y="129.26" width="25.51" height="25.51"></rect>
            <rect id="Rectangle" x="418.39" y="129.26" width="25.51" height="25.51"></rect>
            <rect id="Rectangle" x="453.26" y="129.26" width="25.51" height="25.51"></rect>
            <rect id="Rectangle" x="488.13" y="129.26" width="25.51" height="25.51"></rect>
            <rect id="Rectangle" opacity="0.2" x="522.99" y="129.26" width="25.51" height="25.51"></rect>
            <rect id="Rectangle" x="557.86" y="129.26" width="25.51" height="25.51"></rect>
            <rect id="Rectangle" opacity="0.2" x="592.73" y="129.26" width="25.51" height="25.51"></rect>
            <rect id="Rectangle" opacity="0.2" x="627.59" y="129.26" width="25.51" height="25.51"></rect>
            <rect id="Rectangle" opacity="0.2" x="662.46" y="129.26" width="25.51" height="25.51"></rect>
            <rect id="Rectangle" opacity="0.2" x="697.32" y="129.26" width="25.51" height="25.51"></rect>
            <rect id="Rectangle" opacity="0.2" x="732.19" y="129.26" width="25.51" height="25.51"></rect>
            <rect id="Rectangle" opacity="0.7" x="767.06" y="129.26" width="25.51" height="25.51"></rect>
            <rect id="Rectangle" opacity="0.2" x="801.92" y="129.26" width="25.51" height="25.51"></rect>
            <rect id="Rectangle" opacity="0.2" x="836.79" y="129.26" width="25.51" height="25.51"></rect>
            <rect id="Rectangle" x="871.65" y="129.26" width="25.51" height="25.51"></rect>
            <rect id="Rectangle" opacity="0.2" x="-5.32907052e-15" y="161.57" width="25.51" height="25.51"></rect>
            <rect id="Rectangle" opacity="0.2" x="34.87" y="161.57" width="25.51" height="25.51"></rect>
            <rect id="Rectangle" opacity="0.2" x="69.73" y="161.57" width="25.51" height="25.51"></rect>
            <rect id="Rectangle" opacity="0.4" x="104.6" y="161.57" width="25.51" height="25.51"></rect>
            <rect id="Rectangle" opacity="0.2" x="139.47" y="161.57" width="25.51" height="25.51"></rect>
            <rect id="Rectangle" opacity="0.2" x="174.33" y="161.57" width="25.51" height="25.51"></rect>
            <rect id="Rectangle" opacity="0.7" x="209.2" y="161.57" width="25.51" height="25.51"></rect>
            <rect id="Rectangle" opacity="0.2" x="244.06" y="161.57" width="25.51" height="25.51"></rect>
            <rect id="Rectangle" opacity="0.2" x="278.93" y="161.57" width="25.51" height="25.51"></rect>
            <rect id="Rectangle" opacity="0.2" x="313.8" y="161.57" width="25.51" height="25.51"></rect>
            <rect id="Rectangle" x="348.66" y="161.57" width="25.51" height="25.51"></rect>
            <rect id="Rectangle" opacity="0.2" x="383.53" y="161.57" width="25.51" height="25.51"></rect>
            <rect id="Rectangle" x="418.39" y="161.57" width="25.51" height="25.51"></rect>
            <rect id="Rectangle" x="453.26" y="161.57" width="25.51" height="25.51"></rect>
            <rect id="Rectangle" opacity="0.2" x="488.13" y="161.57" width="25.51" height="25.51"></rect>
            <rect id="Rectangle" opacity="0.2" x="522.99" y="161.57" width="25.51" height="25.51"></rect>
            <rect id="Rectangle" opacity="0.2" x="557.86" y="161.57" width="25.51" height="25.51"></rect>
            <rect id="Rectangle" opacity="0.2" x="592.73" y="161.57" width="25.51" height="25.51"></rect>
            <rect id="Rectangle" opacity="0.2" x="627.59" y="161.57" width="25.51" height="25.51"></rect>
            <rect id="Rectangle" opacity="0.2" x="662.46" y="161.57" width="25.51" height="25.51"></rect>
            <rect id="Rectangle" opacity="0.2" x="697.32" y="161.57" width="25.51" height="25.51"></rect>
            <rect id="Rectangle" opacity="0.2" x="732.19" y="161.57" width="25.51" height="25.51"></rect>
            <rect id="Rectangle" opacity="0.2" x="767.06" y="161.57" width="25.51" height="25.51"></rect>
            <rect id="Rectangle" opacity="0.2" x="801.92" y="161.57" width="25.51" height="25.51"></rect>
            <rect id="Rectangle" opacity="0.4" x="836.79" y="161.57" width="25.51" height="25.51"></rect>
            <rect id="Rectangle" x="871.65" y="161.57" width="25.51" height="25.51"></rect>
            <rect id="Rectangle" opacity="0.7" x="-5.32907052e-15" y="193.89" width="25.51" height="25.51"></rect>
            <rect id="Rectangle" opacity="0.7" x="34.87" y="193.89" width="25.51" height="25.51"></rect>
            <rect id="Rectangle" opacity="0.7" x="69.73" y="193.89" width="25.51" height="25.51"></rect>
            <rect id="Rectangle" opacity="0.7" x="104.6" y="193.89" width="25.51" height="25.51"></rect>
            <rect id="Rectangle" opacity="0.7" x="139.47" y="193.89" width="25.51" height="25.51"></rect>
            <rect id="Rectangle" opacity="0.2" x="209.2" y="193.89" width="25.51" height="25.51"></rect>
            <rect id="Rectangle" opacity="0.2" x="244.06" y="193.89" width="25.51" height="25.51"></rect>
            <rect id="Rectangle" opacity="0.2" x="278.93" y="193.89" width="25.51" height="25.51"></rect>
            <rect id="Rectangle" opacity="0.2" x="313.8" y="193.89" width="25.51" height="25.51"></rect>
            <rect id="Rectangle" opacity="0.2" x="348.66" y="193.89" width="25.51" height="25.51"></rect>
            <rect id="Rectangle" x="383.53" y="193.89" width="25.51" height="25.51"></rect>
            <rect id="Rectangle" opacity="0.2" x="418.39" y="193.89" width="25.51" height="25.51"></rect>
            <rect id="Rectangle" opacity="0.2" x="453.26" y="193.89" width="25.51" height="25.51"></rect>
            <rect id="Rectangle" opacity="0.2" x="488.13" y="193.89" width="25.51" height="25.51"></rect>
            <rect id="Rectangle" x="522.99" y="193.89" width="25.51" height="25.51"></rect>
            <rect id="Rectangle" opacity="0.2" x="557.86" y="193.89" width="25.51" height="25.51"></rect>
            <rect id="Rectangle" opacity="0.2" x="592.73" y="193.89" width="25.51" height="25.51"></rect>
            <rect id="Rectangle" opacity="0.2" x="627.59" y="193.89" width="25.51" height="25.51"></rect>
            <rect id="Rectangle" opacity="0.2" x="662.46" y="193.89" width="25.51" height="25.51"></rect>
            <rect id="Rectangle" opacity="0.2" x="697.32" y="193.89" width="25.51" height="25.51"></rect>
            <rect id="Rectangle" opacity="0.2" x="732.19" y="193.89" width="25.51" height="25.51"></rect>
            <rect id="Rectangle" opacity="0.2" x="767.06" y="193.89" width="25.51" height="25.51"></rect>
            <rect id="Rectangle" opacity="0.2" x="801.92" y="193.89" width="25.51" height="25.51"></rect>
            <rect id="Rectangle" opacity="0.2" x="836.79" y="193.89" width="25.51" height="25.51"></rect>
            <rect id="Rectangle" x="871.65" y="193.89" width="25.51" height="25.51"></rect>
        </g>
    </g>
</svg>