
<svg width="100%" viewBox="0 0 1168 780" version="1.1" xmlns="http://www.w3.org/2000/svg" xmlns:xlink="http://www.w3.org/1999/xlink">
    <defs>
        <linearGradient x1="50%" y1="100%" x2="50%" y2="0%" id="linearGradient-1">
            <stop stop-color="#3883D3" stop-opacity="0.25" offset="0%"></stop>
            <stop stop-color="#3883D3" stop-opacity="0.12" offset="54%"></stop>
            <stop stop-color="#3883D3" stop-opacity="0.1" offset="100%"></stop>
        </linearGradient>
        <linearGradient x1="50%" y1="100%" x2="50%" y2="-9.47390314e-13%" id="linearGradient-2">
            <stop stop-color="#3883D3" stop-opacity="0.25" offset="0%"></stop>
            <stop stop-color="#3883D3" stop-opacity="0.12" offset="54%"></stop>
            <stop stop-color="#3883D3" stop-opacity="0.1" offset="100%"></stop>
        </linearGradient>
        <linearGradient x1="49.9534491%" y1="100.038658%" x2="49.9534491%" y2="0.0108735476%" id="linearGradient-3">
            <stop stop-color="#3883D3" stop-opacity="0.25" offset="0%"></stop>
            <stop stop-color="#3883D3" stop-opacity="0.12" offset="54%"></stop>
            <stop stop-color="#3883D3" stop-opacity="0.1" offset="100%"></stop>
        </linearGradient>
        <radialGradient cx="50.1420142%" cy="49.981744%" fx="50.1420142%" fy="49.981744%" r="52.6405264%" gradientTransform="translate(0.501420,0.499817),scale(0.905362,1.000000),translate(-0.501420,-0.499817)" id="radialGradient-4">
            <stop stop-color="#FFFFFF" offset="0%"></stop>
            <stop stop-color="#000000" offset="100%"></stop>
        </radialGradient>
        <radialGradient cx="49.836075%" cy="49.981744%" fx="49.836075%" fy="49.981744%" r="52.6405264%" gradientTransform="translate(0.498361,0.499817),scale(0.904965,1.000000),rotate(180.000000),translate(-0.498361,-0.499817)" id="radialGradient-5">
            <stop stop-color="#FFFFFF" offset="0%"></stop>
            <stop stop-color="#000000" offset="100%"></stop>
        </radialGradient>
        <linearGradient x1="-0.0471634802%" y1="50.0168931%" x2="99.9925715%" y2="50.0168931%" id="linearGradient-6">
            <stop stop-color="#3883D3" stop-opacity="0.25" offset="0%"></stop>
            <stop stop-color="#3883D3" stop-opacity="0.12" offset="54%"></stop>
            <stop stop-color="#3883D3" stop-opacity="0.1" offset="100%"></stop>
        </linearGradient>
    </defs>
    <g id="Page-1" stroke="none" stroke-width="1" fill="none" fill-rule="evenodd">
        <g id="undraw_image_post_24iy" fill-rule="nonzero">
            <ellipse id="Oval" fill="#38D39F" opacity="0.1" cx="223.48" cy="748.04" rx="122.56" ry="30.99"></ellipse>
            <g id="Group" opacity="0.2" transform="translate(987.000000, 478.000000)">
                <path d="M20.26,248.42 C19.7645108,249.360045 19.1855138,250.253641 18.53,251.09 C12.77,247.03 6.91333333,243.053333 0.96,239.16 C1.08,238.91 1.21,238.65 1.35,238.4 C2.73212523,235.730034 4.80384156,233.478769 7.35,231.88 C10.64,229.88 14.35,229.4 17.35,231.02 C20.35,232.64 22.11,235.96 22.29,239.8 C22.3944953,242.802984 21.6935919,245.779234 20.26,248.42 Z" id="Path" fill="#3F3D56"></path>
                <ellipse id="Oval" fill="#3F3D56" transform="translate(18.853491, 228.350113) rotate(-62.090000) translate(-18.853491, -228.350113) " cx="18.8534911" cy="228.350113" rx="14.01" ry="10.7"></ellipse>
                <ellipse id="Oval" fill="#3F3D56" transform="translate(26.863869, 213.215012) rotate(-62.090000) translate(-26.863869, -213.215012) " cx="26.8638694" cy="213.215012" rx="14.01" ry="10.7"></ellipse>
                <ellipse id="Oval" fill="#3F3D56" transform="translate(34.887765, 198.075755) rotate(-62.090000) translate(-34.887765, -198.075755) " cx="34.8877654" cy="198.075755" rx="14.01" ry="10.7"></ellipse>
                <ellipse id="Oval" fill="#3F3D56" transform="translate(42.912825, 182.931818) rotate(-62.090000) translate(-42.912825, -182.931818) " cx="42.9128245" cy="182.931818" rx="14.01" ry="10.7"></ellipse>
                <path d="M62.31,60.51 C61.891759,58.1970257 61.6311589,55.8583063 61.53,53.51 L88.53,62.59 L61.53,48.59 C62.3271769,34.4506213 68.9227997,21.2666117 79.76,12.15 L105.92,49.97 L85.61,7.9 C101.875687,-2.25996217 122.451172,-2.49460823 138.94433,7.29176694 C155.437489,17.0781421 165.091458,35.2497281 163.968673,54.3948778 C162.845888,73.5400274 151.134023,90.4585942 133.61,98.25 C134.272039,101.877156 134.540262,105.565223 134.41,109.25 L93.26,108.93 L133.78,115.6 C130.999763,132.703541 119.777873,147.249878 103.94,154.28 C108.719647,180.598128 92.467197,206.169433 66.6094325,213.015226 C40.7516681,219.861019 13.975269,205.68152 5.10620234,180.446058 C-3.76286433,155.210596 8.25488337,127.396796 32.71,116.56 C28.5052698,93.2851769 40.7612095,70.1529685 62.38,60.56 L62.31,60.51 Z" id="Path" fill="#38D39F"></path>
                <path d="M128.4,131.4 C123.037139,141.574434 114.39265,149.637455 103.87,154.28 C108.649647,180.598128 92.397197,206.169433 66.5394325,213.015226 C40.6816681,219.861019 13.905269,205.68152 5.03620234,180.446058 C-3.83286433,155.210596 8.18488337,127.396796 32.64,116.56 C30.65,105.63 131.1,126.32 128.4,131.4 Z" id="Path" fill="#000000" opacity="0.1"></path>
            </g>
            <g id="Group" opacity="0.2" transform="translate(928.000000, 6.000000)">
                <path d="M47.13,417.95 C46.5074987,419.55531 45.7550001,421.10713 44.88,422.59 C34.8,417.203333 24.5966667,411.983333 14.27,406.93 C14.41,406.5 14.57,406.05 14.74,405.62 C16.4161549,401.062074 19.28204,397.036023 23.04,393.96 C27.91,390.06 33.78,388.59 39.04,390.58 C44.3,392.57 47.66,397.58 48.71,403.69 C49.4685511,408.499086 48.9229161,413.423615 47.13,417.95 L47.13,417.95 Z" id="Path" fill="#3F3D56"></path>
                <ellipse id="Oval" fill="#3F3D56" transform="translate(40.819936, 385.900902) rotate(-69.160000) translate(-40.819936, -385.900902) " cx="40.8199364" cy="385.900902" rx="22.69" ry="17.33"></ellipse>
                <ellipse id="Oval" fill="#3F3D56" transform="translate(50.692821, 359.988238) rotate(-69.160000) translate(-50.692821, -359.988238) " cx="50.6928211" cy="359.988238" rx="22.69" ry="17.33"></ellipse>
                <ellipse id="Oval" fill="#3F3D56" transform="translate(60.549918, 334.062672) rotate(-69.160000) translate(-60.549918, -334.062672) " cx="60.5499177" cy="334.062672" rx="22.69" ry="17.33"></ellipse>
                <ellipse id="Oval" fill="#3F3D56" transform="translate(70.422802, 308.160008) rotate(-69.160000) translate(-70.422802, -308.160008) " cx="70.4228025" cy="308.160008" rx="22.69" ry="17.33"></ellipse>
                <path d="M77.25,107.7 C76.1105832,104.038718 75.2251472,100.30318 74.6,96.52 L119.82,105.73 L73.66,88.51 C72.1292531,65.710068 80.0537234,43.2857339 95.57,26.51 L145.13,82.04 L104.13,18.51 C128.245078,-0.966285037 161.203454,-5.38175136 189.594653,7.06021581 C217.985851,19.502183 237.077999,46.7279202 239.10267,77.6595123 C241.12734,108.591104 225.747086,138.07328 199.22,154.11 C200.996219,159.806132 202.15619,165.676391 202.68,171.62 L136.51,179.3 L202.94,181.95 C201.885379,209.985614 186.750831,235.594744 162.7,250.04 C175.587056,291.355634 154.564795,335.638906 114.405438,351.772221 C74.2460808,367.905535 28.4306355,350.473134 9.15334761,311.724663 C-10.1239403,272.976192 3.60808081,225.919044 40.7,203.62 C29.2707256,167.046973 44.3627988,127.40342 77.22,107.69 L77.25,107.7 Z" id="Path" fill="#38D39F"></path>
                <path d="M197.55,208.4 C190.957877,225.816379 178.673268,240.493772 162.69,250.05 C175.577056,291.365634 154.554795,335.648906 114.395438,351.782221 C74.2360808,367.915535 28.4206355,350.483134 9.14334761,311.734663 C-10.1339403,272.986192 3.59808081,225.929044 40.69,203.63 C35.36,186.51 200.87,199.7 197.55,208.4 Z" id="Path" fill="#000000" opacity="0.1"></path>
            </g>
            <g id="Group" opacity="0.2">
                <path d="M178.38,510.16 C178.886224,512.144986 179.555154,514.084883 180.38,515.96 C193.046667,511.106667 205.856667,506.44 218.81,501.96 C218.7,501.43 218.59,500.88 218.45,500.34 C217.145485,494.709922 214.35926,489.531065 210.38,485.34 C205.2,480.02 198.49,477.42 192.04,479 C185.59,480.58 180.84,486 178.69,493 C177.050433,498.588815 176.943364,504.515612 178.38,510.16 L178.38,510.16 Z" id="Path" fill="#3F3D56"></path>
                <ellipse id="Oval" fill="#3F3D56" transform="translate(190.624644, 473.215667) rotate(-13.720000) translate(-190.624644, -473.215667) " cx="190.624644" cy="473.215667" rx="20.61" ry="26.98"></ellipse>
                <ellipse id="Oval" fill="#3F3D56" transform="translate(182.800989, 441.184325) rotate(-13.720000) translate(-182.800989, -441.184325) " cx="182.800989" cy="441.184325" rx="20.61" ry="26.98"></ellipse>
                <ellipse id="Oval" fill="#3F3D56" transform="translate(174.997048, 409.150611) rotate(-13.720000) translate(-174.997048, -409.150611) " cx="174.997048" cy="409.150611" rx="20.61" ry="26.98"></ellipse>
                <ellipse id="Oval" fill="#3F3D56" transform="translate(167.171022, 377.109554) rotate(-13.720000) translate(-167.171022, -377.109554) " cx="167.171022" cy="377.109554" rx="20.61" ry="26.98"></ellipse>
                <path d="M188.58,139.63 C190.469611,135.479912 192.066837,131.202823 193.36,126.83 L138.65,131.03 L195.65,117.57 C200.832692,90.8793838 194.788235,63.2325946 178.94,41.14 L112.26,99.36 L170.03,30.44 C144.460405,3.81307396 106.171159,-6.32271659 70.776455,4.16596103 C35.3817514,14.6546387 8.7965752,44.0149694 1.8622492,80.2739341 C-5.0720768,116.532899 8.8032771,153.631082 37.83,176.44 C34.8926185,182.902332 32.6565082,189.66095 31.16,196.6 L108.11,215.41 L29.33,208.74 C26.4454851,241.971079 40.5217028,274.414448 66.76,295.01 C45.4415388,341.870178 63.7167575,397.245694 108.739545,422.211704 C153.762332,447.177714 210.412277,433.349656 238.868706,390.447621 C267.325136,347.545585 258.03127,289.977752 217.52,258.21 C236.383565,216.727896 224.399186,167.724182 188.52,139.63 L188.58,139.63 Z" id="Path" fill="#38D39F"></path>
                <path d="M31.76,240.72 C36.977324,262.242908 49.3103074,281.373128 66.76,295.01 C45.4415388,341.870178 63.7167575,397.245694 108.739545,422.211704 C153.762332,447.177714 210.412277,433.349656 238.868706,390.447621 C267.325136,347.545585 258.03127,289.977752 217.52,258.21 C226.4,238.76 29.15,229.96 31.76,240.72 Z" id="Path" fill="#000000" opacity="0.1"></path>
            </g>
            <path d="M1056.3,113.71 L87.56,113.71 C85.2667934,113.712648 83.06871,114.626847 81.449983,116.251201 C79.831256,117.875555 78.9246901,120.076798 78.93,122.37 L78.93,715.25 C78.9220367,719.872726 80.7507736,724.309279 84.013908,727.583666 C87.2770425,730.858052 91.7072745,732.70205 96.33,732.71 L1047.53,732.71 C1052.15273,732.70205 1056.58296,730.858052 1059.84609,727.583666 C1063.10923,724.309279 1064.93796,719.872726 1064.93,715.25 L1064.93,122.37 C1064.93553,117.596634 1061.07336,113.721033 1056.3,113.71 Z" id="Path" fill="url(#linearGradient-1)"></path>
            <path d="M1061.01,150.51 L1061.01,711.76 C1061.01,721.288531 1053.28853,729.014479 1043.76,729.02 L100.27,729.02 C90.7375652,729.02 83.01,721.292435 83.01,711.76 L83.01,150.51 L1061.01,150.51 Z" id="Path" fill="#FFFFFF"></path>
            <path d="M211.93,143.71 L211.93,729.02 L100.27,729.02 C90.7375652,729.02 83.01,721.292435 83.01,711.76 L83.01,143.76 L211.93,143.71 Z" id="Path" fill="#D7D9E1"></path>
            <path d="M1061.01,125.58 L1061.01,150.51 L83.01,150.51 L83.01,125.58 C83.01,120.852443 86.8424425,117.02 91.57,117.02 L1052.45,117.02 C1057.17756,117.02 1061.01,120.852443 1061.01,125.58 Z" id="Path" fill="#EDEDF4"></path>
            <circle id="Oval" fill="#FA5959" opacity="0.8" cx="98.51" cy="133.52" r="4"></circle>
            <circle id="Oval" fill="#FED253" opacity="0.8" cx="109.51" cy="133.52" r="4"></circle>
            <circle id="Oval" fill="#8CCF4D" opacity="0.8" cx="120.51" cy="133.52" r="4"></circle>
            <rect id="Rectangle" fill="#EDEDF4" x="95.93" y="199.71" width="94" height="10"></rect>
            <rect id="Rectangle" fill="#EDEDF4" x="95.93" y="228.71" width="94" height="10"></rect>
            <rect id="Rectangle" fill="#EDEDF4" x="95.93" y="257.71" width="94" height="10"></rect>
            <rect id="Rectangle" fill="#EDEDF4" x="95.93" y="286.71" width="94" height="10"></rect>
            <rect id="Rectangle" fill="#EDEDF4" x="95.93" y="315.71" width="94" height="10"></rect>
            <rect id="Rectangle" fill="url(#linearGradient-2)" transform="translate(625.930000, 100.720000) rotate(90.000000) translate(-625.930000, -100.720000) " x="623.93" y="97.72" width="4" height="6"></rect>
            <rect id="Rectangle" fill="#38D39F" opacity="0.1" x="358.76" y="217.03" width="552" height="344"></rect>
            <rect id="Rectangle" fill="#38D39F" x="834.76" y="600.03" width="76" height="24"></rect>
            <rect id="Rectangle" fill="#D7D9E1" x="315.76" y="243.29" width="557" height="351.48"></rect>
            <rect id="Rectangle" fill="#FFFFFF" x="318.76" y="247.03" width="552" height="344"></rect>
            <path d="M632.76,293.02 L580.76,293.02 C578.56,293.02 576.76,294.32 576.76,295.9 L576.76,298.77 C576.812464,299.683945 577.339923,300.503593 578.15,300.93 L566.76,300.93 C564.56,300.93 562.76,302.22 562.76,303.81 L562.76,306.68 C562.76,308.26 564.56,309.56 566.76,309.56 L567.9,309.56 C567.814283,309.787265 567.766971,310.027207 567.76,310.27 L567.76,313.15 C567.76,314.73 569.56,316.02 571.76,316.02 L623.76,316.02 C625.96,316.02 627.76,314.73 627.76,313.15 L627.76,310.27 C627.76,308.69 625.96,307.4 623.76,307.4 L622.62,307.4 C622.706812,307.169577 622.754142,306.926164 622.76,306.68 L622.76,303.81 C622.707536,302.896055 622.180077,302.076407 621.37,301.65 L632.76,301.65 C634.96,301.65 636.76,300.36 636.76,298.77 L636.76,295.9 C636.76,294.32 634.96,293.02 632.76,293.02 Z" id="Path" fill="#38D39F" opacity="0.1"></path>
            <path d="M558.76,354.02 L506.76,354.02 C504.56,354.02 502.76,355.32 502.76,356.9 L502.76,359.77 C502.812464,360.683945 503.339923,361.503593 504.15,361.93 L492.76,361.93 C490.56,361.93 488.76,363.22 488.76,364.81 L488.76,367.68 C488.76,369.26 490.56,370.56 492.76,370.56 L493.9,370.56 C493.814283,370.787265 493.766971,371.027207 493.76,371.27 L493.76,374.15 C493.76,375.73 495.56,377.02 497.76,377.02 L549.76,377.02 C551.96,377.02 553.76,375.73 553.76,374.15 L553.76,371.27 C553.76,369.69 551.96,368.4 549.76,368.4 L548.62,368.4 C548.706812,368.169577 548.754142,367.926164 548.76,367.68 L548.76,364.81 C548.707536,363.896055 548.180077,363.076407 547.37,362.65 L558.76,362.65 C560.96,362.65 562.76,361.36 562.76,359.77 L562.76,356.9 C562.76,355.32 560.96,354.02 558.76,354.02 Z" id="Path" fill="#38D39F" opacity="0.1"></path>
            <path d="M683.76,365.02 L631.76,365.02 C629.56,365.02 627.76,366.32 627.76,367.9 L627.76,370.77 C627.812464,371.683945 628.339923,372.503593 629.15,372.93 L617.76,372.93 C615.56,372.93 613.76,374.22 613.76,375.81 L613.76,378.68 C613.76,380.26 615.56,381.56 617.76,381.56 L618.9,381.56 C618.814283,381.787265 618.766971,382.027207 618.76,382.27 L618.76,385.15 C618.76,386.73 620.56,388.02 622.76,388.02 L674.76,388.02 C676.96,388.02 678.76,386.73 678.76,385.15 L678.76,382.27 C678.76,380.69 676.96,379.4 674.76,379.4 L673.62,379.4 C673.706812,379.169577 673.754142,378.926164 673.76,378.68 L673.76,375.81 C673.707536,374.896055 673.180077,374.076407 672.37,373.65 L683.76,373.65 C685.96,373.65 687.76,372.36 687.76,370.77 L687.76,367.9 C687.76,366.32 685.96,365.02 683.76,365.02 Z" id="Path" fill="#38D39F" opacity="0.1"></path>
            <ellipse id="Oval" fill="#38D39F" opacity="0.1" transform="translate(578.775697, 371.077942) rotate(-53.720000) translate(-578.775697, -371.077942) " cx="578.775697" cy="371.077942" rx="4.96" ry="8.06"></ellipse>
            <ellipse id="Oval" fill="#38D39F" opacity="0.1" transform="translate(558.783033, 267.070530) rotate(-53.720000) translate(-558.783033, -267.070530) " cx="558.783033" cy="267.07053" rx="4.96" ry="8.06"></ellipse>
            <ellipse id="Oval" fill="#38D39F" opacity="0.1" transform="translate(624.780640, 336.085123) rotate(-53.720000) translate(-624.780640, -336.085123) " cx="624.78064" cy="336.085123" rx="4.96" ry="8.06"></ellipse>
            <g id="Group" opacity="0.7" transform="translate(328.000000, 247.000000)">
                <path d="M116.25,344.02 L102.25,344.02 C106.715146,342.080483 111.784854,342.080483 116.25,344.02 L116.25,344.02 Z" id="Path" fill="#3F3D56"></path>
                <path d="M131.76,336.02 C131.766543,338.709545 131.481545,341.391877 130.91,344.02 L87.61,344.02 C86.1417746,337.195759 86.5846896,330.09874 88.89,323.51 C89.5683987,321.606603 90.42556,319.771742 91.45,318.03 C95.56,311.03 102.01,306.58 109.26,306.58 C116.51,306.58 122.96,311.06 127.07,318.03 C128.064233,319.719681 128.901086,321.497155 129.57,323.34 C131.033009,327.406838 131.774155,331.698036 131.76,336.02 Z" id="Path" fill="#3F3D56"></path>
                <ellipse id="Oval" fill="#3F3D56" cx="109.26" cy="300.03" rx="22.5" ry="29.45"></ellipse>
                <ellipse id="Oval" fill="#3F3D56" cx="109.26" cy="264.03" rx="22.5" ry="29.45"></ellipse>
                <path d="M193.49,150.93 C216.680742,180.424747 222.867398,219.855928 209.823934,255.035732 C196.78047,290.215537 166.383418,316.082735 129.57,323.33 C126.98,323.84 124.36,324.26 121.71,324.56 C113.495768,325.554505 105.19423,325.598127 96.97,324.69 C94.2433333,324.403333 91.55,324.006667 88.89,323.5 C51.8502519,316.545698 21.1331369,290.749657 7.88132788,255.469424 C-5.37048115,220.189191 0.767988829,180.549614 24.07,150.93 C1.54935986,122.296373 -4.98811365,84.2263105 6.69,49.72 L88.52,77.19 L11.76,37.32 C15.1387167,30.3443065 19.2591606,23.7529373 24.05,17.66 C19.7218527,12.1612247 15.9406022,6.2532302 12.76,0.02 L169.54,0.02 L201.87,5.33 C199.361019,9.62623221 196.561153,13.745844 193.49,17.66 C208.461365,36.6429216 216.586629,60.1237362 216.55,84.3 C216.55,84.57 216.55,84.85 216.55,85.12 C216.52159,89.7536337 216.187531,94.3803462 215.55,98.97 C215.19,101.69 214.723333,104.373333 214.15,107.02 C212.445847,114.955375 209.845848,122.671501 206.4,130.02 C206.19,130.48 205.97,130.93 205.75,131.38 C203.491092,136.023398 200.901074,140.498281 198,144.77 C196.62,146.77 195.18,148.77 193.66,150.7 L193.49,150.93 Z" id="Path" fill="#38D39F"></path>
                <path d="M1,84.3 C0.962300621,108.478111 9.09156423,131.960302 24.07,150.94 C-10.677953,195.121601 -5.63411376,258.58977 35.6558754,296.728607 C76.9458645,334.867444 140.614135,334.867444 181.904125,296.728607 C223.194114,258.58977 228.237953,195.121601 193.49,150.94 C207.93,132.6 1,72.2 1,84.3 Z" id="Path" fill="#000000" opacity="0.1"></path>
                <path d="M441.06,344.02 L401.46,344.02 C402.029655,342.640327 402.698055,341.303528 403.46,340.02 C407.57,333.02 414.02,328.57 421.27,328.57 C428.52,328.57 434.97,333.05 439.08,340.02 C439.835098,341.30411 440.496807,342.640896 441.06,344.02 Z" id="Path" fill="#3F3D56"></path>
                <path d="M443.76,322.02 C443.823341,328.330085 442.204498,334.54313 439.07,340.02 C438.240181,341.435005 437.286441,342.773588 436.22,344.02 L406.3,344.02 C405.233559,342.773588 404.279819,341.435005 403.45,340.02 C400.315502,334.54313 398.696659,328.330085 398.76,322.02 C398.76,305.75 408.83,292.57 421.26,292.57 C433.69,292.57 443.76,305.75 443.76,322.02 Z" id="Path" fill="#3F3D56"></path>
                <path d="M505.66,208.7 L505.49,208.93 C520.461365,227.912922 528.586629,251.393736 528.55,275.57 C528.55,277.28 528.55,278.99 528.43,280.68 C528.43,281.16 528.43,281.68 528.35,282.13 L528.29,283.13 C528.29,283.72 528.2,284.32 528.14,284.91 C528.08,285.5 528.04,286.19 527.96,286.82 C527.88,287.45 527.8,288.37 527.7,289.14 L527.7,289.39 C527.63,289.96 527.55,290.53 527.46,291.09 C527.46,291.49 527.35,291.89 527.29,292.28 C527.05,293.84 526.77,295.39 526.46,296.92 C526.38,297.36 526.28,297.8 526.18,298.24 C526.08,298.68 526,299.14 525.89,299.59 C525.78,300.04 525.65,300.59 525.52,301.13 C525.490644,301.295758 525.45056,301.459435 525.4,301.62 C525.27,302.17 525.13,302.71 524.99,303.25 C524.85,303.79 524.77,304.08 524.64,304.5 C524.48,305.12 524.3,305.74 524.11,306.36 C523.92,306.98 523.74,307.58 523.55,308.19 C522.883333,310.403333 522.116667,312.576667 521.25,314.71 C520.97,315.42 520.69,316.12 520.4,316.82 C520.4,316.82 520.4,316.82 520.4,316.82 C520.18,317.36 519.95,317.89 519.72,318.41 C519.59,318.71 519.46,319.01 519.32,319.31 C519.18,319.61 519,320.04 518.83,320.4 C518.66,320.76 518.4,321.4 518.17,321.81 C517.86,322.47 517.54,323.13 517.17,323.81 C516.98,324.19 516.79,324.57 516.59,324.95 C515.17,327.716667 513.626667,330.413333 511.96,333.04 C511.57,333.66 511.17,334.28 510.76,334.89 C510.76,334.89 510.76,334.89 510.76,334.89 C510.346667,335.523333 509.926667,336.143333 509.5,336.75 L508.29,338.51 C506.956667,340.403333 505.533333,342.25 504.02,344.05 L337.53,344.05 C336.04,342.24 334.6,340.38 333.23,338.47 L332.44,337.36 C332.17,336.97 331.89,336.58 331.63,336.18 L331.22,335.57 C330.88,335.07 330.55,334.57 330.22,334.06 L329.86,333.5 C329.49,332.92 329.12,332.33 328.76,331.73 C327.41,329.53 326.15,327.28 324.96,324.98 C324.76,324.6 324.56,324.22 324.38,323.84 C324.05,323.19 323.73,322.53 323.38,321.84 C323.146667,321.38 322.926667,320.91 322.72,320.43 C322.55,320.07 322.38,319.71 322.23,319.34 C322.08,318.97 321.96,318.74 321.83,318.44 C321.6,317.92 321.37,317.44 321.15,316.85 C321.15,316.85 321.15,316.85 321.15,316.85 C320.86,316.15 320.58,315.45 320.3,314.74 C319.46,312.6 318.7,310.43 318,308.22 C317.81,307.61 317.62,307 317.44,306.39 C317.26,305.78 317.07,305.15 316.91,304.53 C316.78,304.11 316.67,303.7 316.56,303.28 C316.45,302.86 316.28,302.2 316.15,301.65 C316.09944,301.489435 316.059356,301.325758 316.03,301.16 C315.9,300.65 315.78,300.16 315.66,299.62 C315.54,299.08 315.46,298.72 315.37,298.27 C315.28,297.82 315.17,297.39 315.09,296.95 C314.78,295.42 314.5,293.87 314.26,292.31 C314.2,291.92 314.14,291.52 314.09,291.12 C314,290.56 313.92,289.99 313.85,289.42 L313.85,289.17 C313.75,288.4 313.66,287.62 313.59,286.85 C313.52,286.08 313.45,285.58 313.41,284.94 C313.37,284.3 313.3,283.75 313.26,283.16 L313.2,282.16 C313.2,281.68 313.14,281.16 313.12,280.71 C313.04,279.02 313,277.31 313,275.6 C312.962301,251.421889 321.091564,227.939698 336.07,208.96 C335.49,208.23 334.93,207.49 334.37,206.74 L334,206.24 C333.566667,205.666667 333.146667,205.086667 332.74,204.5 L332.35,203.95 C331.87,203.26 331.35,202.56 330.93,201.86 C330.85757,201.760501 330.790798,201.657004 330.73,201.55 C330.24,200.81 329.73,200.07 329.29,199.31 L328.99,198.84 C328.55,198.11 328.1,197.38 327.67,196.64 L327.45,196.26 C327,195.48 326.56,194.7 326.13,193.91 L325.98,193.63 C325.59,192.92 325.22,192.21 324.85,191.49 C323.93,189.7 323.05,187.88 322.24,186.03 C321.76,184.95 321.24,183.87 320.85,182.77 L320.69,182.37 C320.41,181.68 320.14,180.99 319.88,180.29 C319.62,179.59 319.37,178.9 319.12,178.2 C318.87,177.5 318.63,176.79 318.4,176.09 C318.02,174.93 317.66,173.77 317.31,172.59 C317.22,172.29 317.13,171.98 317.05,171.68 C316.86,171 316.67,170.32 316.49,169.63 C316.31,168.91 316.13,168.19 315.96,167.47 C315.79,166.75 315.65,166.16 315.5,165.47 L315.41,165.05 C315.25,164.303333 315.1,163.553333 314.96,162.8 C314.85,162.23 314.74,161.66 314.65,161.08 C314.611228,160.9184 314.581184,160.75483 314.56,160.59 C314.45,160 314.36,159.41 314.27,158.82 C314.15,158.06 314.04,157.3 313.94,156.54 C313.83,155.68 313.72,154.82 313.63,153.96 C313.63,153.83 313.63,153.69 313.63,153.56 C313.55,152.77 313.47,151.97 313.42,151.18 C313.37,150.39 313.3,149.76 313.26,149.05 C313.26,148.52 313.19,147.98 313.17,147.44 C313.15,146.9 313.17,146.56 313.12,146.12 C313.07,145.68 313.12,145.26 313.12,144.82 C313.12,143.986667 313.12,143.156667 313.12,142.33 L313.12,142.05 C313.143798,130.383733 315.065572,118.799054 318.81,107.75 L400.64,135.22 L323.76,95.32 C327.138717,88.3443065 331.259161,81.7529373 336.05,75.66 C331.275314,69.6065322 327.16818,63.0552333 323.8,56.12 C321.548567,51.5123249 319.636811,46.7463031 318.08,41.86 C314.69136,31.246516 312.970875,20.1713123 312.98,9.03 C312.98,6.03 313.11,3.03 313.36,0.03 L452.89,0.03 L434.96,13.2 L460.37,0.02 L528.17,0.02 C528.43,3.02 528.55,6.02 528.55,9.02 C528.567178,24.5770134 525.202859,39.951885 518.69,54.08 L454.76,53.62 L513.88,63.33 C511.371019,67.6262322 508.571153,71.745844 505.5,75.66 C536.160879,114.670196 536.231054,169.571551 505.67,208.66 L505.66,208.7 Z" id="Path" fill="#38D39F"></path>
                <path d="M528.55,275.57 C528.55,277.28 528.55,278.99 528.43,280.68 C528.43,281.16 528.43,281.68 528.35,282.13 L528.29,283.13 C528.29,283.72 528.2,284.32 528.14,284.91 C528.08,285.5 528.04,286.19 527.96,286.82 C527.88,287.45 527.8,288.37 527.7,289.14 L527.7,289.39 C527.63,289.96 527.55,290.53 527.46,291.09 C527.46,291.49 527.35,291.89 527.29,292.28 C527.05,293.84 526.77,295.39 526.46,296.92 C526.38,297.36 526.28,297.8 526.18,298.24 C526.08,298.68 526,299.14 525.89,299.59 C525.78,300.04 525.65,300.59 525.52,301.13 C525.490644,301.295758 525.45056,301.459435 525.4,301.62 C525.27,302.17 525.13,302.71 524.99,303.25 C524.85,303.79 524.77,304.08 524.64,304.5 C524.48,305.12 524.3,305.74 524.11,306.36 C523.92,306.98 523.74,307.58 523.55,308.19 C522.883333,310.403333 522.116667,312.576667 521.25,314.71 C520.97,315.42 520.69,316.12 520.4,316.82 C520.4,316.82 520.4,316.82 520.4,316.82 C520.18,317.36 519.95,317.89 519.72,318.41 C519.59,318.71 519.46,319.01 519.32,319.31 C519.18,319.61 519,320.04 518.83,320.4 C518.66,320.76 518.4,321.4 518.17,321.81 C517.86,322.47 517.54,323.13 517.17,323.81 C516.98,324.19 516.79,324.57 516.59,324.95 C515.17,327.716667 513.626667,330.413333 511.96,333.04 C511.57,333.66 511.17,334.28 510.76,334.89 C510.76,334.89 510.76,334.89 510.76,334.89 C510.346667,335.523333 509.926667,336.143333 509.5,336.75 L508.29,338.51 C506.956667,340.403333 505.533333,342.25 504.02,344.05 L337.53,344.05 C336.04,342.24 334.6,340.38 333.23,338.47 L332.44,337.36 C332.17,336.97 331.89,336.58 331.63,336.18 L331.22,335.57 C330.88,335.07 330.55,334.57 330.22,334.06 L329.86,333.5 C329.49,332.92 329.12,332.33 328.76,331.73 C327.41,329.53 326.15,327.28 324.96,324.98 C324.76,324.6 324.56,324.22 324.38,323.84 C324.05,323.19 323.73,322.53 323.38,321.84 C323.146667,321.38 322.926667,320.91 322.72,320.43 C322.55,320.07 322.38,319.71 322.23,319.34 C322.08,318.97 321.96,318.74 321.83,318.44 C321.6,317.92 321.37,317.44 321.15,316.85 C321.15,316.85 321.15,316.85 321.15,316.85 C320.86,316.15 320.58,315.45 320.3,314.74 C319.46,312.6 318.7,310.43 318,308.22 C317.81,307.61 317.62,307 317.44,306.39 C317.26,305.78 317.07,305.15 316.91,304.53 C316.78,304.11 316.67,303.7 316.56,303.28 C316.45,302.86 316.28,302.2 316.15,301.65 C316.09944,301.489435 316.059356,301.325758 316.03,301.16 C315.9,300.65 315.78,300.16 315.66,299.62 C315.54,299.08 315.46,298.72 315.37,298.27 C315.28,297.82 315.17,297.39 315.09,296.95 C314.78,295.42 314.5,293.87 314.26,292.31 C314.2,291.92 314.14,291.52 314.09,291.12 C314,290.56 313.92,289.99 313.85,289.42 L313.85,289.17 C313.75,288.4 313.66,287.62 313.59,286.85 C313.52,286.08 313.45,285.58 313.41,284.94 C313.37,284.3 313.3,283.75 313.26,283.16 L313.2,282.16 C313.2,281.68 313.14,281.16 313.12,280.71 C313.04,279.02 313,277.31 313,275.6 C312.962301,251.421889 321.091564,227.939698 336.07,208.96 C335.49,208.23 334.93,207.49 334.37,206.74 L334,206.24 C333.566667,205.666667 333.146667,205.086667 332.74,204.5 L332.35,203.95 C331.87,203.26 331.35,202.56 330.93,201.86 C330.85757,201.760501 330.790798,201.657004 330.73,201.55 C330.24,200.81 329.73,200.07 329.29,199.31 L328.99,198.84 C328.55,198.11 328.1,197.38 327.67,196.64 L327.45,196.26 C327,195.48 326.56,194.7 326.13,193.91 L325.98,193.63 C325.59,192.92 325.22,192.21 324.85,191.49 C323.93,189.7 323.05,187.88 322.24,186.03 C321.76,184.95 321.24,183.87 320.85,182.77 L320.69,182.37 C320.41,181.68 320.14,180.99 319.88,180.29 C319.62,179.59 319.37,178.9 319.12,178.2 C318.87,177.5 318.63,176.79 318.4,176.09 C318.02,174.93 317.66,173.77 317.31,172.59 C317.22,172.29 317.13,171.98 317.05,171.68 C316.86,171 316.67,170.32 316.49,169.63 C316.31,168.91 316.13,168.19 315.96,167.47 C315.79,166.75 315.65,166.16 315.5,165.47 L315.41,165.05 C315.25,164.303333 315.1,163.553333 314.96,162.8 C314.85,162.23 314.74,161.66 314.65,161.08 C314.611228,160.9184 314.581184,160.75483 314.56,160.59 C314.45,160 314.36,159.41 314.27,158.82 C314.15,158.06 314.04,157.3 313.94,156.54 C313.83,155.68 313.72,154.82 313.63,153.96 C313.63,153.83 313.63,153.69 313.63,153.56 C313.55,152.77 313.47,151.97 313.42,151.18 C313.37,150.39 313.3,149.76 313.26,149.05 C313.26,148.52 313.19,147.98 313.17,147.44 C313.15,146.9 313.17,146.56 313.12,146.12 C313.07,145.68 313.12,145.26 313.12,144.82 C313.12,143.986667 313.12,143.156667 313.12,142.33 C313.099974,142.237741 313.099974,142.142259 313.12,142.05 C313.67,140.22 319.95,140.4 329.93,142.05 C337.86,143.36 348.11,145.6 359.7,148.5 L359.7,148.5 C419.44,163.44 514.36,195.89 505.7,208.73 L505.53,208.96 C520.480641,227.940111 528.591266,251.40878 528.55,275.57 L528.55,275.57 Z" id="Path" fill="#000000" opacity="0.1"></path>
                <ellipse id="Oval" fill="#38D39F" transform="translate(223.761562, 89.028258) rotate(-45.000000) translate(-223.761562, -89.028258) " cx="223.761562" cy="89.0282581" rx="13" ry="8"></ellipse>
                <ellipse id="Oval" fill="#38D39F" transform="translate(316.759541, 52.024377) rotate(-45.000000) translate(-316.759541, -52.024377) " cx="316.759541" cy="52.0243765" rx="13" ry="8"></ellipse>
                <ellipse id="Oval" fill="#38D39F" transform="translate(528.755226, 118.026786) rotate(-45.000000) translate(-528.755226, -118.026786) " cx="528.755226" cy="118.026786" rx="13" ry="8"></ellipse>
                <ellipse id="Oval" fill="#38D39F" transform="translate(204.774192, 140.077855) rotate(-53.720000) translate(-204.774192, -140.077855) " cx="204.774192" cy="140.077855" rx="8" ry="13"></ellipse>
                <path d="M329.76,337.78 C329.520484,337.282952 329.319882,336.768074 329.16,336.24 C329.020535,335.011697 329.050819,333.770043 329.25,332.55 L329.25,332.51 C329.243022,331.635665 329.145841,330.764385 328.96,329.91 C328.36,326.63 327.77,323.34 327.18,320.06 C326.9,318.54 326.63,317.06 326.5,315.5 C326.37,313.94 326.38,312.35 326.36,310.78 C326.28,305.68 325.36,300.61 325.18,295.52 C325.08,292.87 324.87,290.22 324.66,287.58 C324.29,283.03 323.89,278.49 323.09,274 C322.46,270.44 320.67,267.12 320.64,263.5 L320.58,257.87 C320.687677,256.260306 320.43133,254.647034 319.83,253.15 C319.126944,251.913599 318.181366,250.831966 317.05,249.97 L316.21,249.26 C313.543333,246.966667 310.78,244.776667 307.92,242.69 L307.92,242.69 C307.66,242.48 307.4,242.29 307.14,242.1 C308.177941,242.301994 309.250831,242.226099 310.25,241.88 C310.973698,241.551132 311.473868,240.869083 311.57,240.08 C311.601135,239.816184 311.556021,239.548971 311.44,239.31 C311.076084,238.746221 310.511138,238.342177 309.86,238.18 C308.699881,237.83254 307.500225,237.634277 306.29,237.59 L306.08,237.59 C306.199232,237.10192 306.292695,236.607904 306.36,236.11 C306.528441,234.662969 306.501533,233.199859 306.28,231.76 C306.285542,231.666749 306.285542,231.573251 306.28,231.48 C305.94,229.18 305.28,226.9 304.87,224.6 C304.82,224.31 304.78,224.02 304.74,223.73 C304.55376,222.653169 304.456764,221.562797 304.45,220.47 C304.45,215.04 307.21,210.05 308.8,204.86 C310.060913,200.729979 310.598823,196.413162 310.39,192.1 C310.39,191.78 310.39,191.46 310.32,191.1 C310.04545,187.1987 309.157899,183.365023 307.69,179.74 C305.97,175.51 303.47,171.55 302.63,167.07 C302.57,166.74 302.52,166.43 302.47,166.07 C302.47,166.01 302.47,165.96 302.47,165.9 C302.14,163.32 302.26,160.7 302.03,158.11 L302.03,157.89 C302.03,157.39 301.93,156.89 301.84,156.38 C300.33,147.43 292.35,140.54 283.58,138.17 C276.81,136.33 269.92,136.91 263.12,138.17 C257.26,139.26 251.92,136.87 246.12,137.63 C243.83,137.93 241.44,138.68 239.97,140.46 C239.213732,141.5616 238.528989,142.710632 237.92,143.9 C235.31,147.98 230.13,149.34 225.84,151.57 C219.31,154.95 214.1,161.27 213.13,168.57 C212.22,175.32 214.88,182.02 215.28,188.82 C215.429228,191.644358 215.25138,194.476498 214.75,197.26 C213.75,202.99 211.75,208.63 209.98,214.2 C209.104405,216.471865 208.65359,218.885247 208.65,221.32 C208.803455,222.974492 209.173276,224.601706 209.75,226.16 C210.59,228.72 211.54,231.25 212.63,233.72 C210.607417,234.542203 208.486165,235.096889 206.32,235.37 C204.1,235.62 201.75,235.53 199.83,236.66 C198.940429,237.21827 198.171926,237.949368 197.57,238.81 C195.720696,241.389276 194.982313,244.602144 195.52,247.73 C194.709162,248.242665 194.224084,249.140818 194.24,250.1 C194.24,251.04 194.4,251.98 194.44,252.92 C194.369934,254.700258 194.032839,256.459891 193.44,258.14 C191.86544,263.901823 191.474242,269.922874 192.29,275.84 C192.69,278.78 193,281.7 193.23,284.63 L193.23,284.63 C193.76,291.16 193.97,297.68 194.23,304.28 C194.51,310.54 193.99,316.87 195.03,323.06 C195.38,325.13 196.03,327.32 197.65,328.62 C198.040264,328.890469 198.411166,329.187859 198.76,329.51 C199.68,330.51 199.71,331.93 200.01,333.22 C201.013706,336.885509 204.457717,339.338949 208.25,339.09 L208.25,339.09 L208.25,339.09 L206.57,343.94 L310.24,343.94 C310.129983,342.99653 310.129983,342.04347 310.24,341.1 L310.24,341.16 C310.76421,341.990895 311.032025,342.95781 311.01,343.94 L330.76,343.94 C330.848588,341.840055 330.508333,339.744081 329.76,337.78 L329.76,337.78 Z" id="Path" fill="url(#linearGradient-3)"></path>
                <path d="M246.54,138.85 C244.26,139.15 241.89,139.85 240.43,141.66 C239.694362,142.75824 239.026453,143.900365 238.43,145.08 C235.85,149.13 230.71,150.48 226.43,152.69 C219.95,156.05 214.78,162.34 213.81,169.58 C212.92,176.29 215.55,182.94 215.95,189.7 C216.47,198.32 213.34,206.7 210.69,214.91 C209.818567,217.165325 209.371065,219.562173 209.37,221.98 C209.518625,223.627793 209.885154,225.248593 210.46,226.8 C212.89,234.17 216.19,241.35 221.1,247.37 C226.01,253.39 232.64,258.19 240.2,259.97 C243.666224,260.678462 247.192304,261.053506 250.73,261.09 C256.143333,261.29 261.556667,261.386667 266.97,261.38 C269.94531,261.464201 272.921912,261.266653 275.86,260.79 C282.05,259.59 287.52,256.08 292.81,252.64 C298.9,248.64 305.59,243.83 306.51,236.64 C307.17,231.44 304.57,226.34 304.57,221.1 C304.57,215.71 307.31,210.75 308.89,205.59 C311.378545,197.401283 310.990381,188.6076 307.79,180.67 C306.08,176.48 303.6,172.54 302.79,168.09 C302.14,164.6 302.54,160.99 301.96,157.5 C300.47,148.6 292.54,141.76 283.83,139.4 C277.11,137.58 270.28,138.15 263.52,139.4 C257.65,140.51 252.34,138.09 246.54,138.85 Z" id="Path" fill="#3F3D56"></path>
                <path d="M248.38,213.39 C249.680063,219.042558 248.695311,224.979823 245.64,229.91 C244.022956,232.253459 242.04122,234.322971 239.77,236.04 C236.320426,238.843689 232.399243,241.010837 228.19,242.44 C230.815953,244.504259 233.854383,245.980848 237.1,246.77 C239.596768,247.306785 242.137291,247.614727 244.69,247.69 C257.512499,248.372547 270.370347,247.907362 283.11,246.3 C287.37,245.76 291.81,245.02 295.25,242.46 C295.555855,242.272294 295.79402,241.9921 295.93,241.66 C296.18,240.81 295.17,240.17 294.34,239.89 C290.23,238.49 285.81,237.68 282.26,235.18 C276.82,231.37 274.55,224.36 274.06,217.73 C273.57,211.1 274.53,204.42 273.88,197.8 C265.1,197.673333 256.323333,197.93 247.55,198.57 C246.55,198.64 242.14,198.39 241.62,199.24 C241.1,200.09 243.49,202.52 244.09,203.44 C246.126785,206.46077 247.581709,209.835246 248.38,213.39 Z" id="Path" fill="#FBBEBE"></path>
                <circle id="Oval" fill="#000000" opacity="0.1" cx="260.54" cy="183.6" r="30"></circle>
                <circle id="Oval" fill="#FBBEBE" cx="260.54" cy="182.54" r="30"></circle>
                <path d="M302.65,292.96 C300.2,302.96 298.65,313.4 299.7,323.69 C300.36,330.23 302.59,337.33 302.87,344.02 L228.53,344.02 C228.53,340.54 228.53,336.95 228.47,333.36 C228.47,332.65 228.47,331.95 228.47,331.23 L228.47,331.23 C228.47,330.31 228.47,329.39 228.47,328.46 L228.47,328.46 C228.47,325.66 228.47,322.89 228.47,320.19 C228.47,315.32 228.47,310.45 227.96,305.61 C227.015528,296.991637 225.017268,288.5217 222.01,280.39 C221.8,279.79 221.59,279.19 221.37,278.6 L221.37,278.6 C221.342298,278.538363 221.318908,278.474877 221.3,278.41 C221.07,277.81 220.85,277.21 220.62,276.6 C217,266.99 212.87,257 214.85,247 C215.269131,244.973961 215.941056,243.008582 216.85,241.15 C218.497221,237.702654 220.887854,234.663135 223.85,232.25 L224.14,232.01 C225.169122,231.206708 226.259065,230.484538 227.4,229.85 C227.981356,229.523488 228.578779,229.226445 229.19,228.96 L229.42,228.86 C230.803109,228.251121 232.289686,227.91172 233.8,227.86 C237.57,227.8 240.96,229.95 244.11,232.05 L244.36,232.22 L244.78,232.49 L245.26,232.81 C246.5,233.63 247.76,234.45 249.03,235.23 L249.64,235.6 C253.171832,237.843444 256.971604,239.634141 260.95,240.93 C266.95,242.75 273.73,242.82 279.22,239.79 C280.282198,239.187158 281.286462,238.487521 282.22,237.7 C282.809153,237.219266 283.373229,236.708594 283.91,236.17 C285.09826,234.99528 286.21051,233.746085 287.24,232.43 C288.69,235.27 291.86,236.43 294.49,238.27 C297.357493,240.336794 299.663847,243.086545 301.2,246.27 C301.64,247.13 302.03,248.01 302.38,248.9 C303.884844,253.125184 304.891649,257.511497 305.38,261.97 C306.108676,266.340161 306.400116,270.77205 306.25,275.2 C305.85,281.22 304.09,287.08 302.65,292.96 Z" id="Path" fill="#3F3D56"></path>
                <rect id="Rectangle" fill="#38D39F" transform="translate(233.421652, 209.212029) rotate(166.700000) translate(-233.421652, -209.212029) " x="224.956652" y="183.542029" width="16.93" height="51.34" rx="2.9"></rect>
                <rect id="Rectangle" fill="#EDEDF4" transform="translate(232.572845, 209.421851) rotate(166.700000) translate(-232.572845, -209.421851) " x="224.737845" y="183.751851" width="15.67" height="51.34" rx="2.9"></rect>
                <ellipse id="Oval" fill="#38D39F" transform="translate(228.176320, 195.315739) rotate(-13.300000) translate(-228.176320, -195.315739) " cx="228.17632" cy="195.315739" rx="1.5" ry="3.64"></ellipse>
                <path d="M258.07,344.02 L207.36,344.02 L209.08,339.02 L209.08,339.02 C209.08,339.02 209.08,339.02 209.08,339.02 L209.02,339.02 C205.253214,339.271502 201.831344,336.832687 200.84,333.19 C200.54,331.91 200.51,330.45 199.6,329.5 C199.234408,329.169539 198.843181,328.868595 198.43,328.6 C196.79,327.31 196.18,325.13 195.84,323.07 C194.84,316.92 195.32,310.64 195.05,304.41 C194.75,297.41 194.53,290.54 193.92,283.63 C193.7,281.14 193.43,278.63 193.09,276.15 C192.284542,270.269062 192.675703,264.286008 194.24,258.56 C194.832881,256.893706 195.170036,255.147243 195.24,253.38 C195.24,252.44 194.99,251.51 195.04,250.58 C195.025428,249.626325 195.50605,248.733199 196.31,248.22 C195.766646,245.118084 196.486821,241.92771 198.31,239.36 C198.904823,238.503002 199.666748,237.775091 200.55,237.22 C202.45,236.1 204.8,236.22 206.99,235.94 C209.139802,235.671489 211.244691,235.120049 213.25,234.3 L213.25,234.3 C213.96,234.02 214.65,233.72 215.35,233.4 L215.35,233.4 C217.79,232.28 220.17,230.92 222.56,229.63 L223.06,229.36 C224.86,228.36 226.67,227.47 228.52,226.7 L228.75,226.61 C230.933327,225.68102 233.241313,225.077911 235.6,224.82 C237.910384,224.666797 240.229907,224.723697 242.53,224.99 C243.179414,225.041127 243.808657,225.239475 244.37,225.57 C245.219611,226.115888 245.923274,226.860741 246.42,227.74 L246.42,227.74 C246.49,227.86 246.56,227.97 246.63,228.1 C247.504019,229.899015 248.149049,231.800509 248.55,233.76 C248.67,234.25 248.78,234.76 248.88,235.22 C249.12,236.4 249.33,237.58 249.5,238.77 C249.5,238.77 249.5,238.77 249.5,238.77 L249.5,238.77 C249.939032,241.772706 250.212778,244.797263 250.32,247.83 C250.51,252.2 250.46,256.61 250.44,260.99 C250.44,261.73 250.44,262.46 250.44,263.19 C250.446983,265.343144 250.742959,267.485608 251.32,269.56 C252.87,275.22 253.03,281.15 253.32,287 C253.985898,300.705726 255.364428,314.367525 257.45,327.93 C257.84,330.48 258.25,333.02 258.39,335.59 C258.544509,338.403847 258.437382,341.225963 258.07,344.02 Z" id="Path" fill="#F86D70"></path>
                <path d="M247.12,270.67 C248.231322,271.916093 249.23492,273.254225 250.12,274.67 C250.53,275.34 250.86,276.32 250.26,276.83 C249.93892,277.045791 249.55628,277.151104 249.17,277.13 L242.01,277.43 C240.934698,277.55074 239.846078,277.452084 238.81,277.14 C237.44264,276.469092 236.289453,275.430185 235.48,274.14 L232.31,270 C231.391124,268.969978 230.708524,267.751536 230.31,266.43 C229.966938,265.065489 230.555388,263.636975 231.76,262.91 C232.911257,262.54106 234.160084,262.626939 235.25,263.15 C237.39,263.88 239.95,264.37 241.86,265.61 C243.826595,267.059944 245.594948,268.76106 247.12,270.67 Z" id="Path" fill="#F86D70"></path>
                <path d="M247.12,270.67 C248.231322,271.916093 249.23492,273.254225 250.12,274.67 C250.53,275.34 250.86,276.32 250.26,276.83 C249.93892,277.045791 249.55628,277.151104 249.17,277.13 L242.01,277.43 C240.934698,277.55074 239.846078,277.452084 238.81,277.14 C237.44264,276.469092 236.289453,275.430185 235.48,274.14 L232.31,270 C231.391124,268.969978 230.708524,267.751536 230.31,266.43 C229.966938,265.065489 230.555388,263.636975 231.76,262.91 C232.911257,262.54106 234.160084,262.626939 235.25,263.15 C237.39,263.88 239.95,264.37 241.86,265.61 C243.826595,267.059944 245.594948,268.76106 247.12,270.67 Z" id="Path" fill="#000000" opacity="0.1"></path>
                <path d="M243.06,271.15 C243.931483,266.492124 245.127736,261.900918 246.64,257.41 C247.480468,255.255197 248.084018,253.015353 248.44,250.73 C248.63,248.94 248.44,247.13 248.62,245.33 C248.76,243.78 249.14,242.26 249.37,240.72 C249.82519,237.594525 249.634597,234.408906 248.81,231.36 C248.16,228.93 248.81,225.99 247.23,224.02 C246.6,223.22 245.75,222.6 245.1,221.82 C244.369277,221.08228 244.064072,220.023481 244.29,219.01 C246.504799,219.517632 248.796846,219.592336 251.04,219.23 C251.708419,219.154586 252.351122,218.928956 252.92,218.57 C253.493513,218.196713 253.804022,217.529117 253.72,216.85 C253.503445,216.207459 253.038972,215.678176 252.43,215.38 C248.402226,212.897573 243.473955,212.350803 239,213.89 C238.841095,213.51876 238.987742,213.087444 239.34,212.89 C239.649523,212.715989 239.988557,212.600718 240.34,212.55 C242.626468,212.034758 244.503341,210.409386 245.34,208.22 C245.497838,207.911084 245.533541,207.554054 245.44,207.22 C245.19,206.47 244.13,206.51 243.36,206.7 L239.23,207.7 C238.428957,207.856937 237.652211,208.119215 236.92,208.48 C236.021308,209.030595 235.220392,209.72675 234.55,210.54 C232.38,212.88 230.17,215.3 228.97,218.26 C228.44,219.6 228.12,221.02 227.56,222.35 C227.06099,223.717907 226.098605,224.867815 224.84,225.6 C223.510978,226.33494 222.798815,227.835712 223.07,229.33 C223.391071,230.815896 224.03645,232.21251 224.96,233.42 C226.494782,235.819835 228.231049,238.084676 230.15,240.19 C231.549061,241.452349 232.749284,242.918913 233.71,244.54 C234.3,245.74 234.55,247.07 235.07,248.3 C235.355733,248.865785 235.5739,249.463226 235.72,250.08 C235.784837,250.524314 235.784837,250.975686 235.72,251.42 C234.85,258.16 229.85,263.66 227.98,270.2 C227.863565,270.519654 227.822499,270.861874 227.86,271.2 C228.014625,271.809737 228.407246,272.33203 228.95,272.65 C232.58,275.4 237.02,276.81 241.37,278.18 C242.115957,275.884369 242.681018,273.533852 243.06,271.15 L243.06,271.15 Z" id="Path" fill="#000000" opacity="0.1"></path>
                <path d="M242.45,270.84 C243.322722,266.182402 244.518953,261.591281 246.03,257.1 C246.876644,254.950678 247.480392,252.713455 247.83,250.43 C248.02,248.64 247.83,246.82 248.01,245.03 C248.15,243.48 248.53,241.96 248.76,240.42 C249.218692,237.29189 249.031508,234.102965 248.21,231.05 C247.55,228.63 248.21,225.68 246.62,223.71 C245.99,222.91 245.15,222.3 244.49,221.52 C243.754432,220.785237 243.451734,219.722011 243.69,218.71 C245.902067,219.214265 248.190831,219.285577 250.43,218.92 C251.097761,218.848307 251.740558,218.626064 252.31,218.27 C252.881648,217.895099 253.191586,217.228731 253.11,216.55 C252.899523,215.903978 252.433213,215.372601 251.82,215.08 C247.796873,212.59595 242.872293,212.045513 238.4,213.58 C238.223831,213.21212 238.369476,212.770772 238.73,212.58 C239.040602,212.408418 239.379182,212.293301 239.73,212.24 C242.018722,211.722781 243.896068,210.093245 244.73,207.9 C244.880776,207.588749 244.912778,207.233171 244.82,206.9 C244.57,206.16 243.51,206.2 242.74,206.39 L238.61,207.39 C237.811859,207.557719 237.036439,207.819549 236.3,208.17 C235.403571,208.723676 234.603128,209.41942 233.93,210.23 C231.76,212.58 229.55,214.99 228.36,217.95 C227.82,219.29 227.5,220.71 226.94,222.04 C226.446262,223.410942 225.482521,224.562471 224.22,225.29 C222.891711,226.030624 222.18058,227.533241 222.45,229.03 C222.771071,230.515896 223.41645,231.91251 224.34,233.12 C225.87749,235.520554 227.617141,237.785446 229.54,239.89 C230.933205,241.155266 232.129724,242.621424 233.09,244.24 C233.68,245.44 233.93,246.77 234.45,247.99 C234.735776,248.556827 234.957157,249.153883 235.11,249.77 C235.174964,250.217655 235.174964,250.672345 235.11,251.12 C234.24,257.86 229.25,263.35 227.38,269.89 C227.261904,270.209288 227.217464,270.55113 227.25,270.89 C227.409648,271.497318 227.800964,272.017876 228.34,272.34 C231.97,275.08 236.41,276.5 240.76,277.87 C241.505486,275.574235 242.070537,273.223756 242.45,270.84 Z" id="Path" fill="#FBBEBE"></path>
                <path d="M245.2,269.14 C245.347051,269.207755 245.469373,269.319593 245.55,269.46 C245.609434,269.635094 245.609434,269.824906 245.55,270 C244.550133,273.003202 243.236193,275.892529 241.63,278.62 C238.41,276.853333 235.26,274.956667 232.18,272.93 C231.407377,272.504661 230.756671,271.888384 230.29,271.14 C225.76,262.39 242.19,267.4 245.2,269.14 Z" id="Path" fill="#3F3D56"></path>
                <path d="M227.1,273.39 C226.04,274.81 224.81,276.09 223.76,277.52 C222.016191,280.175159 220.471946,282.956138 219.14,285.84 C217.198482,289.542478 214.85068,293.017226 212.14,296.2 C209.41,299.41 206.14,302.69 205.85,306.89 C205.875583,307.48987 205.744625,308.086072 205.47,308.62 C205.096599,309.000022 204.680502,309.335584 204.23,309.62 C203.83,309.99 203.6,310.68 204,311.05 C202.43,311.21 201.79,313.05 201.49,314.64 L200.8,318.19 C200.577434,319.113588 200.46333,320.059979 200.46,321.01 C200.557225,322.299046 200.868133,323.562951 201.38,324.75 C203.022783,329.11806 205.163577,333.282208 207.76,337.16 C209.01,339.01 210.45,340.87 212.5,341.75 C214.42867,342.403026 216.482866,342.598174 218.5,342.32 C221.38,342.14 224.74,341.67 226.18,339.16 C227.09,337.57 226.95,335.51 227.95,333.96 C228.532483,333.218747 229.16745,332.520284 229.85,331.87 C230.925112,330.492991 231.723159,328.920667 232.2,327.24 C234.839932,319.70272 236.951708,311.990727 238.52,304.16 C238.936947,301.512486 239.637649,298.917541 240.61,296.42 C241.707819,294.196272 242.995955,292.071685 244.46,290.07 C247.03,286.18 247.46,282.82 249.19,278.51 C245.27,277.6 243.46,275 240.13,272.8 C236.98,270.72 232.33,266.3 229.01,264.7 C227.98,267.43 228.9,270.96 227.1,273.39 Z" id="Path" fill="#000000" opacity="0.1"></path>
                <path d="M224.76,271.26 C223.7,272.68 222.47,273.97 221.42,275.39 C219.675624,278.046534 218.134567,280.831135 216.81,283.72 C214.858952,287.416775 212.511832,290.890512 209.81,294.08 C207.07,297.29 203.81,300.57 203.51,304.77 C203.535583,305.36987 203.404625,305.966072 203.13,306.5 C202.82,306.95 202.29,307.17 201.89,307.5 C201.49,307.83 201.26,308.56 201.66,308.93 C200.1,309.09 199.45,310.93 199.15,312.51 L198.46,316.06 C198.24328,316.98802 198.129262,317.937056 198.12,318.89 C198.217225,320.179046 198.528133,321.442951 199.04,322.63 C200.695056,326.98558 202.845872,331.136219 205.45,335 C206.7,336.85 208.14,338.7 210.19,339.59 C212.119734,340.238033 214.172761,340.43307 216.19,340.16 C219.07,339.97 222.44,339.51 223.87,337 C224.79,335.4 224.64,333.35 225.64,331.8 C226.219809,331.053372 226.854932,330.351394 227.54,329.7 C228.615041,328.326659 229.413148,326.757614 229.89,325.08 C232.528659,317.541517 234.643689,309.829846 236.22,302 C236.627513,299.351554 237.325039,296.755953 238.3,294.26 C239.397577,292.03297 240.68571,289.905041 242.15,287.9 C244.72,284.02 244.57,281.71 246.35,277.4 C242.43,276.5 241.16,272.84 237.82,270.63 C234.67,268.56 230.02,264.13 226.7,262.54 C225.59,265.31 226.51,268.84 224.76,271.26 Z" id="Path" fill="#000000" opacity="0.1"></path>
                <path d="M226.04,272.32 C224.98,273.74 223.75,275.03 222.7,276.45 C220.956136,279.108604 219.411899,281.892911 218.08,284.78 C216.138482,288.482478 213.79068,291.957226 211.08,295.14 C208.35,298.35 205.08,301.63 204.79,305.83 C204.815583,306.42987 204.684625,307.026072 204.41,307.56 C204.036599,307.940022 203.620502,308.275584 203.17,308.56 C202.77,308.93 202.53,309.62 202.93,309.99 C201.37,310.15 200.72,311.99 200.42,313.58 L199.73,317.13 C199.515601,318.054825 199.404918,319.000661 199.4,319.95 C199.497225,321.239046 199.808133,322.502951 200.32,323.69 C201.981741,328.060802 204.142725,332.225059 206.76,336.1 C208.01,337.95 209.45,339.81 211.5,340.69 C213.428283,341.344836 215.482906,341.540025 217.5,341.26 C220.39,341.07 223.75,340.61 225.19,338.1 C226.1,336.5 225.96,334.45 226.96,332.9 C227.542483,332.158747 228.17745,331.460284 228.86,330.81 C229.929438,329.429391 230.726904,327.858212 231.21,326.18 C233.849932,318.64272 235.961708,310.930727 237.53,303.1 C237.943564,300.452832 238.640915,297.85788 239.61,295.36 C240.712625,293.136798 242.004031,291.012335 243.47,289.01 C246.038167,285.117936 248.228141,280.989132 250.01,276.68 C246.122015,275.692029 242.441161,274.019221 239.14,271.74 C235.99,269.66 231.34,265.23 228.02,263.64 C226.92,266.37 227.84,269.9 226.04,272.32 Z" id="Path" fill="#F86D70"></path>
                <circle id="Oval" fill="#3F3D56" cx="236.12" cy="275.46" r="2.12"></circle>
                <circle id="Oval" fill="#3F3D56" cx="229.48" cy="285.81" r="2.12"></circle>
                <circle id="Oval" fill="#3F3D56" cx="222.58" cy="296.43" r="2.12"></circle>
                <path d="M330.65,344.02 L311.11,344.02 C311.156633,342.956062 310.862343,341.905025 310.27,341.02 C310.27,341.08 310.27,341.14 310.27,341.2 C310.174754,342.125574 310.194909,343.059397 310.33,343.98 L285.81,343.98 C285.829076,341.15699 286.130578,338.342973 286.71,335.58 C287.515919,331.129046 287.973971,326.622085 288.08,322.1 C288.2,316.52 287.79,310.94 287.76,305.36 C287.732861,299.82886 288.087034,294.302427 288.82,288.82 C289.49,283.82 290.48,278.67 289.66,273.65 C288.74,268.04 287.95,262.36 287.24,256.72 C287.24,256.52 287.19,256.32 287.16,256.11 C287.050412,255.065327 286.839418,254.033799 286.53,253.03 C286.24,252.18 285.83,251.38 285.46,250.56 C284.801754,249.139604 284.240469,247.676255 283.78,246.18 C282.938536,243.402742 282.398754,240.542904 282.17,237.65 C282.03,236 279.76,234.52 279.69,232.86 L279.69,232.86 C279.685071,232.826849 279.685071,232.793151 279.69,232.76 C282.94,232.1 288.69,231.29 291.84,232.42 C294.99,233.55 297.29,236.31 300.43,237.35 C302.317414,237.837957 304.260601,238.076653 306.21,238.06 C307.481083,238.092745 308.742155,238.294516 309.96,238.66 C310.610224,238.812413 311.17426,239.214783 311.53,239.78 C311.5699,239.851404 311.596976,239.929248 311.61,240.01 C311.789396,240.983662 311.264375,241.950368 310.35,242.33 C309.592719,242.621448 308.775109,242.721073 307.97,242.62 L307.97,242.62 L307.28,242.55 C310.326667,244.776667 313.293333,247.11 316.18,249.55 L317.12,250.35 C318.238669,251.206099 319.170999,252.28134 319.86,253.51 C320.455742,255.001582 320.71194,256.607086 320.61,258.21 C320.61,260.07 320.61,261.94 320.61,263.8 C320.61,267.39 322.42,270.69 323.05,274.23 C323.84,278.69 324.23,283.23 324.6,287.72 C324.81,290.35 325.02,292.98 325.12,295.61 C325.33,300.67 326.21,305.71 326.29,310.78 C326.29,312.34 326.29,313.9 326.43,315.46 C326.57,317.02 326.83,318.46 327.1,319.99 C327.69,323.25 328.28,326.52 328.88,329.78 C329.056372,330.629161 329.153456,331.492874 329.17,332.36 L329.17,332.36 C328.97217,333.586749 328.938541,334.834375 329.07,336.07 C329.229912,336.594825 329.430521,337.106377 329.67,337.6 C330.443429,339.647554 330.77733,341.834947 330.65,344.02 Z" id="Path" fill="#F86D70"></path>
                <ellipse id="Oval" fill="#3F3D56" cx="261.74" cy="159.04" rx="28.67" ry="11.15"></ellipse>
                <path d="M290.02,176.99 C289.962552,175.979508 289.725514,174.987336 289.32,174.06 C289.32,174.06 289.32,174.06 289.32,174.06 C289.098477,173.560649 288.816357,173.09045 288.48,172.66 C284.88,168.02 276.37,169.72 276.37,169.72 C275.703099,169.454564 275.018005,169.237339 274.32,169.07 C271.843257,168.382497 269.194006,168.721313 266.97,170.01 C265.339111,171.005437 264.013966,172.430918 263.14,174.13 C262.900245,174.760294 262.699859,175.404868 262.54,176.06 C262.402419,176.610296 262.295587,177.167825 262.22,177.73 C261.22,185.31 266.88,189.92 270.48,192.05 C273.214504,193.654586 276.53805,193.902005 279.48,192.72 C284.976545,190.593222 288.936851,185.716073 289.89,179.9 C289.96263,179.352861 290.0027,178.801891 290.01,178.25 L290.01,178.25 C290.045332,177.830864 290.048675,177.409644 290.02,176.99 Z M286.26,180.08 C285.507123,184.873752 282.302043,188.92467 277.81,190.76 C275.406848,191.75212 272.675382,191.544291 270.45,190.2 C267.08,188.2 261.52,183.4 264.45,175.28 C264.45,175.28 267.45,168.49 275.2,171.6 C275.24,171.6 287.64,169.06 286.26,180.08 Z" id="Shape" fill="#F86D70"></path>
                <path d="M275.24,171.61 C275.24,171.61 287.64,169.06 286.24,180.08 C285.487123,184.873752 282.282043,188.92467 277.79,190.76 C276.795852,191.177402 275.728217,191.391609 274.65,191.39 L274.65,191.39 C273.162337,191.386751 271.703584,190.978853 270.43,190.21 C267.06,188.21 261.5,183.4 264.43,175.28 C264.49,175.28 267.52,168.51 275.24,171.61 Z" id="Path" fill="#3F3D56"></path>
                <path d="M275.24,171.61 C275.24,171.61 287.64,169.06 286.24,180.08 C285.487123,184.873752 282.282043,188.92467 277.79,190.76 C276.795852,191.177402 275.728217,191.391609 274.65,191.39 L274.65,191.39 C273.162337,191.386751 271.703584,190.978853 270.43,190.21 C267.06,188.21 261.5,183.4 264.43,175.28 C264.49,175.28 267.52,168.51 275.24,171.61 Z" id="Path" fill="url(#radialGradient-4)" opacity="0.1"></path>
                <path d="M258.87,177.71 C258.794413,177.147825 258.687581,176.590296 258.55,176.04 C258.390141,175.384868 258.189755,174.740294 257.95,174.11 C256.989956,172.250649 255.49134,170.724152 253.65,169.73 C251.916017,168.841271 249.945671,168.522795 248.02,168.82 C246.887785,168.975457 245.779286,169.271057 244.72,169.7 C244.72,169.7 236.21,168 232.61,172.64 C232.273643,173.07045 231.991523,173.540649 231.77,174.04 C231.77,174.04 231.77,174.04 231.77,174.04 C231.364486,174.967336 231.127448,175.959508 231.07,176.97 C231.039505,177.379433 231.039505,177.790567 231.07,178.2 L231.07,178.2 C231.084641,179.898671 231.424073,181.578862 232.07,183.15 L232.07,183.22 C232.891792,185.313229 234.134037,187.215737 235.72,188.81 C236.320188,189.42761 236.968934,189.996098 237.66,190.51 C238.862804,191.40099 240.173135,192.136791 241.56,192.7 C244.50147,193.885097 247.826428,193.637572 250.56,192.03 C254.21,189.9 259.87,185.29 258.87,177.71 Z M250.63,190.2 C248.404618,191.544291 245.673152,191.75212 243.27,190.76 C238.77653,188.92419 235.568536,184.874382 234.81,180.08 C233.44,169.08 245.81,171.6 245.81,171.6 C253.53,168.49 256.56,175.28 256.56,175.28 C259.56,183.4 254,188.16 250.63,190.2 Z" id="Shape" fill="#F86D70"></path>
                <path d="M245.84,171.61 C245.84,171.61 233.44,169.06 234.84,180.08 C235.598536,184.874382 238.80653,188.92419 243.3,190.76 C244.294148,191.177402 245.361783,191.391609 246.44,191.39 L246.44,191.39 C247.927663,191.386751 249.386416,190.978853 250.66,190.21 C254.03,188.21 259.59,183.4 256.66,175.28 C256.59,175.28 253.56,168.51 245.84,171.61 Z" id="Path" fill="#3F3D56"></path>
                <path d="M245.84,171.61 C245.84,171.61 233.44,169.06 234.84,180.08 C235.598536,184.874382 238.80653,188.92419 243.3,190.76 C244.294148,191.177402 245.361783,191.391609 246.44,191.39 L246.44,191.39 C247.927663,191.386751 249.386416,190.978853 250.66,190.21 C254.03,188.21 259.59,183.4 256.66,175.28 C256.59,175.28 253.56,168.51 245.84,171.61 Z" id="Path" fill="url(#radialGradient-5)" opacity="0.1"></path>
                <rect id="Rectangle" fill="#F86D70" x="257.65" y="176.05" width="5.82" height="1.66"></rect>
            </g>
            <path d="M354.3,678.33 C351.95,673.77 346.75,671.51 341.9,669.73 C337.05,667.95 331.9,666.24 326.8,664.73 C333,659.17 337.91,652.28 342.37,645.25 C344.92,641.25 347.37,637.06 348.59,632.48 C349.81,627.9 349.69,622.77 347.27,618.67 C344.4,613.8 338.72,611.08 333.06,610.4 C327.4,609.72 321.7,610.77 316.12,611.88 C312.12,612.68 308.12,613.513333 304.12,614.38 C306.459873,613.248739 308.739593,611.997063 310.95,610.63 C319.19,605.52 326.43,598.98 333.3,592.16 C335.47,590 337.77,587.46 337.71,584.41 C337.65,581.59 335.46,579.12 332.82,578.06 C330.10821,577.135558 327.185889,577.020889 324.41,577.73 C316.813744,579.348721 310.215665,584.016184 306.16,590.64 C304.78,592.94 303.7,595.49 301.79,597.39 C299.52,599.64 295.93,600.53 293.41,598.23 C292.536457,597.255015 291.899914,596.091441 291.55,594.83 L291.68,594.66 C296.68,587.39 297.05,577.53 293.75,569.34 C291.24,563.09 286.9,557.82 282.54,552.6 C286.443493,549.850922 290.698094,547.637857 295.19,546.02 C296.431194,545.661927 297.608754,545.111949 298.68,544.39 C300.81,542.76 301.46,539.84 301.5,537.17 C301.54,534.5 301.12,531.87 301.68,529.3 C304.36627,530.141723 307.164943,530.569954 309.98,530.57 C320.784917,530.59313 330.586807,524.241505 334.98,514.37 C339.93,513.09 344.76,511.01 348.33,507.37 C352.73,502.92 355.44,494.28 350.74,489.07 C349.19,487.36 346.84,486.61 344.94,485.38 C341.94,483.38 339.94,480.93 337.84,478.06 C328.55,465.55 315.24,463.24 300.25,464.91 C293.51,465.66 286.75,466.91 280.55,469.65 C275.809682,471.904153 271.301502,474.6171 267.09,477.75 C266.41,478.23 265.72,478.75 265.09,479.22 C263.88,475.5 262.26,471.84 261.3,468.9 C260.803072,467.694739 260.594203,466.39016 260.69,465.09 C261.01,462.9 262.89,461.31 264.69,459.93 L290.1,440.01 C292.771675,437.791269 295.625044,435.800935 298.63,434.06 C307.39,429.32 318.47,428.75 325.81,422.06 C330.084844,418.12417 332.490579,412.560454 332.43,406.75 C332.35,402.62 330.43,397.99 326.43,396.85 C322.23,395.65 318.13,398.74 314.89,401.63 C304.26,411.1 293.66,420.69 281.8,428.63 C270.58,436.1 258.22,442.07 248.24,451.09 C246.417678,452.621935 244.851339,454.434702 243.6,456.46 C242.372811,458.896612 241.526317,461.506916 241.09,464.2 L239.02,473.94 C237.35,481.78 236.02,490.87 240.77,497.16 C240.471177,497.754503 240.223613,498.373413 240.03,499.01 C239.31,501.44 240.63,504.01 240.03,506.13 C239.37,508.51 235.74,511.13 234.12,513.02 C231.88,515.62 229.72,518.31 227.66,521.02 C219.709808,531.808665 212.87796,543.378245 207.27,555.55 C198.68,573.81 192.27,592.97 185.81,612.08 C184.68,615.46 183.53,618.91 183.5,622.48 C183.511491,625.718209 184.455829,628.88452 186.22,631.6 C184.5,641.73 180.16,651.41 180.01,661.78 L178.44,662.49 C177.76,672.12 182.44,681.72 186.44,690.49 C188.75,695.49 191.53,700.88 196.67,702.93 C199.3,703.93 202.21,703.99 205.04,703.93 C208.33,703.93 211.36,703.99 214.35,704.06 L213.97,704.06 C210.37,704.66 206.37,706.06 204.97,709.39 C204.387827,711.197089 204.247233,713.117389 204.56,714.99 C205.72,728.13 206.876667,741.27 208.03,754.41 C208.28,757.32 208.64,760.46 210.63,762.62 C212.45,764.62 215.26,765.3 217.93,765.72 C222.93434,766.4881 228.023185,766.531882 233.04,765.85 C235.149152,765.702365 237.184638,765.013537 238.95,763.85 C240.62,762.58 241.66,760.28 240.84,758.35 C239.68,755.6 235.78,755.21 233.84,752.94 C231.3,750.01 232.99,745.53 234.76,742.09 C235.03,741.56 235.35,741 235.68,740.43 C237.441676,743.070449 239.539266,745.470577 241.92,747.57 C243.87,749.28 246.66,750.49 248.92,749.29 C254.46,746.403333 260.033333,743.57 265.64,740.79 L266.94,740.97 C277.813478,742.457612 288.788225,743.076237 299.76,742.82 C301.843898,742.899985 303.920685,742.531688 305.85,741.74 C307.72,740.82 309.22,738.86 308.93,736.82 C308.59,734.35 305.98,732.9 303.62,732.03 C299.170002,730.408126 294.507979,729.441363 289.78,729.16 C295.906667,726.24 302.05,723.333333 308.21,720.44 C314.36,717.54 320.57,714.62 327.21,712.96 C335.72,710.83 345.69,710.31 351.21,703.53 C354.52,699.43 355.33,693.93 355.68,688.69 C355.87,685.17 355.92,681.51 354.3,678.33 Z M267.89,623.09 C264.89,623.88 261.5,624.71 258.07,625.73 C257.75,623.11 257.25,620.5 256.93,617.89 C256.756197,617.087139 256.829405,616.250476 257.14,615.49 C257.645137,614.760995 258.360136,614.202948 259.19,613.89 L270.63,608.29 C270.642701,606.17503 269.781503,604.148683 268.25,602.69 C269.358756,603.104571 270.508606,603.399577 271.68,603.57 C272.838044,608.587473 275.024075,613.310255 278.1,617.44 C278.762713,618.420498 279.68317,619.19908 280.76,619.69 L280.94,619.74 C276.58,620.82 272.23,621.936667 267.89,623.09 Z" id="Shape" fill="url(#linearGradient-6)"></path>
            <path d="M278.82,511.95 C273.14,513.62 266.82,512.24 261.77,509.22 C260.768257,508.511788 259.646967,507.990101 258.46,507.68 C256.39,507.31 254.34,508.49 252.84,509.97 C247.97,514.81 247.41,522.81 249.93,529.19 C252.45,535.57 257.49,540.62 262.79,544.99 C267.065928,548.513769 271.587363,551.728567 276.32,554.61 C278.95291,548.439183 283.94844,543.580516 290.19,541.12 C295.75,538.97 299.82,533.2 303.01,528.12 C305.37,524.39 307.48,524.56 305.35,520.69 C303.22,516.82 299.9,513.77 296.92,510.5 C295.172166,508.666796 293.648167,506.632558 292.38,504.44 C290.95,501.89 291.27,500.23 289.08,502.25 C287.63,503.6 287,506.49 285.38,508.07 C283.539984,509.875719 281.288726,511.207256 278.82,511.95 L278.82,511.95 Z" id="Path" fill="#FABDBD"></path>
            <path d="M261.39,472.38 C260.909133,471.18457 260.707346,469.895185 260.8,468.61 C261.11,466.45 262.95,464.88 264.66,463.52 L289.48,443.85 C292.089834,441.666698 294.876025,439.70332 297.81,437.98 C306.37,433.3 317.19,432.74 324.36,426.12 C328.544731,422.217536 330.890157,416.731562 330.82,411.01 C330.74,406.94 328.82,402.37 324.95,401.23 C320.85,400.05 316.85,403.11 313.68,405.96 C303.3,415.3 292.95,424.77 281.36,432.57 C270.36,439.95 258.36,445.84 248.59,454.75 C246.808698,456.261621 245.279541,458.047325 244.06,460.04 C242.861224,462.451452 242.035162,465.030789 241.61,467.69 L239.61,477.3 C237.9,485.4 236.52,494.85 241.98,501.07 C243.590425,503.085006 246.011159,504.282556 248.59,504.34 C250.398067,504.131664 252.140509,503.538348 253.7,502.6 C257.76,500.51 265.07,498.51 266.31,493.51 C267.87,487.12 263.3,478.26 261.39,472.38 Z" id="Path" fill="#FABDBD"></path>
            <path d="M300.98,599.17 C302.84,597.29 303.9,594.78 305.25,592.51 C309.180702,585.987314 315.627629,581.374613 323.07,579.76 C325.780115,579.059344 328.637098,579.17766 331.28,580.1 C333.954311,581.080662 335.818331,583.521826 336.06,586.36 C336.11,589.36 333.87,591.88 331.74,594.01 C325.04,600.74 317.97,607.2 309.93,612.24 C301.89,617.28 292.76,620.88 283.28,621.51 C282.325611,621.625971 281.357466,621.537338 280.44,621.25 C279.387785,620.759884 278.488945,619.992414 277.84,619.03 C272.84,612.57 271.06,604.21 269.7,596.14 C270.19,599.05 286.53,592.27 288.38,593.14 C291.08,594.41 290.82,598.23 292.79,600.05 C295.25,602.27 298.76,601.4 300.98,599.17 Z" id="Path" fill="#FABDBD"></path>
            <path d="M181.96,662.93 C181.869321,663.945242 182.070549,664.96526 182.54,665.87 C183.65,667.62 186.17,667.64 188.22,667.34 C192.956991,666.532047 197.634229,665.406169 202.22,663.97 L243.87,651.97 C244.529472,651.838359 245.145112,651.542577 245.66,651.11 C246.089373,650.582642 246.372201,649.951451 246.48,649.28 C247.938785,643.275743 248.250918,637.050056 247.4,630.93 C247.352875,630.051188 247.062016,629.202849 246.56,628.48 C245.62085,627.617692 244.384671,627.151886 243.11,627.18 C236.584791,626.520064 230.028218,626.21961 223.47,626.28 C219.215294,626.465185 214.953064,626.374997 210.71,626.01 C205.23,625.35 198.93,622.21 193.44,622.69 C188.67,623.1 188.86,626.82 188.37,630.76 C187,641.62 182.07,651.87 181.96,662.93 Z" id="Path" fill="#FABDBD"></path>
            <path d="M314.97,613.51 C320.42,612.41 325.97,611.36 331.52,612.04 C337.07,612.72 342.59,615.4 345.39,620.21 C347.75,624.26 347.88,629.31 346.68,633.84 C345.48,638.37 343.09,642.48 340.61,646.45 C335.61,654.35 330.12,662.07 322.82,667.87 C319.28,670.69 315.36,673.02 311.95,676 C304.68,682.35 300.18,691.22 295.86,699.85 C291.79,707.98 287.68,716.24 286,725.17 C285.961541,725.867003 285.644419,726.519264 285.12,726.98 C284.555365,727.240749 283.914251,727.28349 283.32,727.1 L263.32,723.41 C262.412773,723.354364 261.548734,723.003129 260.86,722.41 C260.01,721.41 260.23,719.97 260.52,718.71 C264.852207,700.074005 272.962848,682.525341 284.35,667.15 C273.607239,677.29338 258.630982,681.631356 244.13,678.8 C241.340337,678.391468 238.708158,677.253042 236.5,675.5 C232.04,671.5 232.25,664.5 233.24,658.61 C234.132195,653.348095 235.368176,648.150297 236.94,643.05 C240.76,630.82 256.9,627.51 267.87,624.51 C283.45,620.35 299.15,616.683333 314.97,613.51 Z" id="Path" fill="#3F3D56"></path>
            <path d="M300.19,656.62 C297.42,657.92 294.59,659.33 292.58,661.62 C296.18,657.48 306.44,655.55 311.48,653.62 C317.71,651.29 324.48,648.93 329.8,644.8 C319.655588,648.014405 309.759301,651.964898 300.19,656.62 Z" id="Path" fill="#000000" opacity="0.1"></path>
            <path d="M235.46,742.15 C233.72,745.54 232.08,749.96 234.56,752.86 C236.48,755.1 240.29,755.48 241.43,758.2 C242.22,760.1 241.21,762.37 239.58,763.63 C237.86132,764.783092 235.873623,765.472068 233.81,765.63 C228.909682,766.301935 223.937723,766.258144 219.05,765.5 C216.44,765.09 213.7,764.39 211.92,762.44 C209.97,760.31 209.63,757.21 209.38,754.34 C208.253333,741.373333 207.126667,728.403333 206,715.43 C205.685834,713.578681 205.819563,711.679046 206.39,709.89 C207.74,706.59 211.64,705.22 215.16,704.63 C219.107563,703.970663 223.122273,703.809403 227.11,704.15 C229.8,704.38 232.64,704.91 234.63,706.73 C236.87,708.73 237.58,711.95 238.16,714.93 C239.07,719.55 241.62,725.93 241.08,730.65 C240.64,734.43 237.16,738.74 235.46,742.15 Z" id="Path" fill="#38D39F"></path>
            <path d="M280.26,729.57 C287.854159,728.572497 295.577007,729.440888 302.76,732.1 C305.07,732.96 307.61,734.38 307.95,736.82 C308.23,738.82 306.76,740.82 304.95,741.68 C303.050747,742.465804 301.003805,742.830842 298.95,742.75 C288.218147,743.040628 277.480287,742.46879 266.84,741.04 C264.1,740.67 261.26,740.2 259.02,738.58 C256.78,736.96 255.38,733.85 256.57,731.36 C257.85,728.7 261.35,727.86 263.03,725.44 C264.25,723.69 264.55,721.13 266.46,720.21 C267.81,719.56 269.46,720.05 270.82,720.54 C272.82,721.25 277.71,721.96 279.12,723.64 C279.76,724.35 280.31,729.56 280.26,729.57 Z" id="Path" fill="#38D39F"></path>
            <circle id="Oval" fill="#FABDBD" cx="308.98" cy="506.59" r="26.64"></circle>
            <path d="M245.76,494.84 C250.05,491.71 255.45,490.64 260.67,489.65 C262.46,489.31 264.44,489 266.02,489.92 C267.14584,490.726654 268.033606,491.821681 268.59,493.09 C270.217856,495.690178 271.422837,498.532177 272.16,501.51 C272.72,504.51 272.16,507.89 270.07,510.08 C268.49,511.72 266.22,512.53 264.6,514.08 C262.36,516.29 261.71,519.73 262.21,522.83 C262.856815,525.916285 264.056089,528.860265 265.75,531.52 C269.668947,538.403653 274.129706,544.964379 279.09,551.14 C284.26,557.58 290.09,563.76 293.09,571.43 C296.31,579.52 295.98,589.25 291.09,596.43 C286.2,603.61 276.35,607.43 268.21,604.37 C269.707827,605.814652 270.549659,607.809035 270.54,609.89 L259.38,615.51 C258.568662,615.821889 257.871206,616.37288 257.38,617.09 C257.078241,617.842322 257.008585,618.667748 257.18,619.46 C257.73,624 258.85,628.53 258.54,633.1 C258.23,637.67 256.14,642.48 252.01,644.46 C248.2,646.29 243.71,645.32 239.57,644.46 C229.892596,642.50867 220.051758,641.480722 210.18,641.39 C205.28,641.39 200.18,641.51 195.68,639.61 C189.479811,636.876299 185.454386,630.765789 185.39,623.99 C185.39,620.47 186.54,617.07 187.65,613.73 C193.92,594.86 200.21,575.94 208.65,557.92 C214.119519,545.911973 220.793722,534.490106 228.57,523.83 C230.57,521.123333 232.673333,518.48 234.88,515.9 C236.45,514.05 240,511.45 240.64,509.1 C241.22,506.99 239.93,504.47 240.64,502.1 C241.525615,499.194369 243.320265,496.649612 245.76,494.84 Z" id="Path" fill="#38D39F"></path>
            <path d="M180.43,663.51 C192.11,658.12 203.81,652.72 215.96,648.51 C224.96,645.42 234.89,643.02 243.68,646.51 C246.3,647.51 248.68,649.09 251.24,650.33 C259.75,654.46 269.48,655.06 278.89,656.11 C299.821433,658.44709 320.391842,663.316025 340.15,670.61 C344.89,672.36 349.97,674.61 352.26,679.1 C353.84,682.2 353.8,685.85 353.57,689.32 C353.22,694.49 352.43,699.93 349.2,703.97 C343.85,710.67 334.11,711.17 325.8,713.28 C319.35,714.92 313.29,717.8 307.28,720.66 C287.83,729.93 268.38,739.2 249.28,749.26 C247.03,750.45 244.28,749.26 242.41,747.57 C236.57,742.41 232.67,735.31 230.41,727.85 C228.15,720.39 227.5,712.54 227.36,704.76 C219.9,704.76 213.83,704.42 206.36,704.44 C203.6,704.44 200.75,704.44 198.19,703.44 C193.19,701.44 190.45,696.08 188.19,691.16 C184.31,682.45 179.76,672.97 180.43,663.51 Z" id="Path" fill="#3F3D56"></path>
            <path d="M316.14,691.22 C310.87,688.66 304.78,688.59 298.92,688.65 C295.349402,688.580359 291.78021,688.848216 288.26,689.45 C282.76,690.51 277.76,693.16 272.65,695.31 C260.203543,700.526667 246.824913,703.153397 233.33,703.03" id="Path" fill="#000000" opacity="0.1"></path>
            <path d="M346.43,510.35 C342.63,514.22 337.37,516.35 332.08,517.55 C326.79,518.75 321.35,519.24 316.08,520.41 C309.55,521.85 302.39,525.31 300.92,531.84 C300.34,534.41 300.76,537.09 300.72,539.73 C300.68,542.37 300.05,545.24 297.97,546.86 C296.923743,547.567926 295.773161,548.107788 294.56,548.46 C273.23,556.19 257.92,578.19 258.1,600.88 C251.324727,596.944313 246.714983,590.132791 245.58,582.38 C245.58,589.44 239.58,596.67 242.93,602.88 C235.299087,597.932658 230.103917,590.000959 228.617766,581.02887 C227.131616,572.056782 229.491849,562.873594 235.12,555.73 C237.81,552.31 241.12,549.48 244.02,546.21 C252.037429,536.917475 255.830153,524.709761 254.49,512.51 C253.91,507.37 252.41,502.17 253.49,497.13 C255.06,490.13 261.21,485.25 267.06,481.13 C271.164655,478.035344 275.566211,475.355554 280.2,473.13 C286.26,470.43 292.86,469.13 299.44,468.44 C314.08,466.79 327.08,469.07 336.15,481.44 C338.23,484.28 340.15,486.73 343.09,488.67 C344.94,489.88 347.24,490.67 348.75,492.31 C353.38,497.42 350.76,505.96 346.43,510.35 Z" id="Path" fill="#3F3D56"></path>
            <ellipse id="Oval" fill="#38D39F" cx="141.4" cy="738.68" rx="26.08" ry="5.01"></ellipse>
            <ellipse id="Oval" fill="#3F3D56" cx="140.97" cy="736.55" rx="3.04" ry="3.97"></ellipse>
            <ellipse id="Oval" fill="#3F3D56" cx="140.97" cy="731.69" rx="3.04" ry="3.97"></ellipse>
            <ellipse id="Oval" fill="#3F3D56" cx="140.97" cy="726.83" rx="3.04" ry="3.97"></ellipse>
            <ellipse id="Oval" fill="#3F3D56" cx="140.97" cy="721.98" rx="3.04" ry="3.97"></ellipse>
            <ellipse id="Oval" fill="#3F3D56" cx="140.97" cy="717.12" rx="3.04" ry="3.97"></ellipse>
            <ellipse id="Oval" fill="#3F3D56" cx="140.97" cy="712.26" rx="3.04" ry="3.97"></ellipse>
            <ellipse id="Oval" fill="#3F3D56" cx="140.97" cy="707.4" rx="3.04" ry="3.97"></ellipse>
            <path d="M152.33,674.15 C152.74662,673.631966 153.124318,673.083802 153.46,672.51 L145.46,671.2 L154.08,671.26 C155.750063,667.621086 155.851304,663.455753 154.36,659.74 L142.79,665.74 L153.46,657.89 C150.750207,653.149507 145.612923,650.326853 140.158533,650.581577 C134.704143,650.836301 129.852286,654.125456 127.596093,659.097865 C125.339899,664.070273 126.059777,669.887561 129.46,674.16 C128.814225,674.985516 128.257782,675.877165 127.8,676.82 L138.16,682.2 L127.16,678.49 C125.5821,683.146246 126.462285,688.284423 129.5,692.15 C124.813002,698.111079 125.4942,706.673284 131.064785,711.818281 C136.63537,716.963279 145.22463,716.963279 150.795215,711.818281 C156.3658,706.673284 157.046998,698.111079 152.36,692.15 C156.513009,686.868645 156.513009,679.431355 152.36,674.15 L152.33,674.15 Z" id="Path" fill="#38D39F"></path>
            <path d="M126.36,683.15 C126.353185,686.414689 127.449054,689.586015 129.47,692.15 C124.783002,698.111079 125.4642,706.673284 131.034785,711.818281 C136.60537,716.963279 145.19463,716.963279 150.765215,711.818281 C156.3358,706.673284 157.016998,698.111079 152.33,692.15 C154.28,689.66 126.36,681.51 126.36,683.15 Z" id="Path" fill="#000000" opacity="0.1"></path>
        </g>
    </g>
</svg>